<svg xmlns="http://www.w3.org/2000/svg" xmlns:xlink="http://www.w3.org/1999/xlink" version="1.1"><metadata>Created by FontForge 20170731 at Tue Mar 23 16:28:46 2021 By Aleksey,,, Copyright 2013 Valve Corporation. See license metadata for details.</metadata><defs><font id="Radiance-Regular" horiz-adv-x="1073"><font-face x-height="948" ascent="1534" bbox="-782 -522 2314 1870" cap-height="1376" descent="-514" font-family="Radiance" font-stretch="normal" font-weight="400" panose-1="0 0 5 0 0 0 0 0 0 0" underline-position="-307" underline-thickness="102" unicode-range="U+0020-FB02" units-per-em="2048"/><glyph d="M1018 745v-544q0 -158 6 -201h-188q6 47 6 201v608h-439v-610q0 -117 3 -199h-183q4 176 4 199v610h-149v139h149v146q0 181 84 284t242 103q61 0 174 -25l-22 -143q-44 24 -117 24q-96 0 -140.5 -66t-44.5 -171v-152h621q-6 -49 -6 -203zM836 1257q0 45 31 77t75 32 t77.5 -32.5t33.5 -76.5q0 -45 -33 -76.5t-78 -31.5q-44 0 -75 31t-31 77z" glyph-name="fi" horiz-adv-x="1183" unicode="fi"/><glyph d="M223 0q4 176 4 199v610h-149v139h149v146q0 181 84 284t242 103q61 0 174 -25l-22 -143q-44 24 -117 24q-96 0 -140.5 -66t-44.5 -171v-152h238l-27 -139h-211v-610q0 -117 3 -199h-183zM815 0q4 43 4 201v1077q0 113 -4 195h186q-6 -39 -6 -179v-1093q0 -158 4 -201 h-184z" glyph-name="fl" horiz-adv-x="1196" unicode="fl"/><glyph glyph-name=".notdef" horiz-adv-x="456"/><glyph glyph-name=".null" horiz-adv-x="0"/><glyph glyph-name="nonmarkingreturn" horiz-adv-x="682"/><glyph glyph-name="space" horiz-adv-x="456"/><glyph d="M184 1376h189q-4 -49 -4 -229v-496q0 -180 4 -231h-189q6 68 6 231v496q0 172 -6 229zM154 104q0 50 37 87.5t85 37.5q50 0 85.5 -36t35.5 -87q0 -47 -37 -84t-88 -38q-48 0 -83 35.5t-35 84.5z" glyph-name="exclam" horiz-adv-x="552" unicode="!"/><glyph d="M152 975l-29 491h172l-27 -491h-116zM463 975l-29 491h172l-26 -491h-117z" glyph-name="quotedbl" horiz-adv-x="729" unicode="&quot;"/><glyph d="M78 397l6 125h231l64 330h-223l6 121h239l68 366h133l-67 -366h268l69 366h136l-72 -366h213l-6 -121h-228l-63 -330h221l-6 -125h-240l-71 -379h-133l71 379h-270l-72 -379h-133l74 379h-215zM782 852h-272l-64 -330h271z" glyph-name="numbersign" horiz-adv-x="1220" unicode="#"/><glyph d="M182 94l23 164q104 -86 289 -86q105 0 165 53t60 148q0 69 -53.5 127t-151.5 114q-56 30 -91 51.5t-80.5 57.5t-71.5 70.5t-45 84t-19 105.5q0 127 75.5 213t211.5 117l2 149h118v-141q131 -7 236 -39v-156q-104 68 -252 68q-93 0 -151 -49.5t-58 -136.5q0 -68 50.5 -119 t201.5 -144q46 -26 77.5 -47t71.5 -55t64.5 -67.5t41.5 -81t17 -99.5q0 -135 -83 -225.5t-230 -118.5v-162h-119v152q-170 3 -299 53z" glyph-name="dollar" horiz-adv-x="1089" unicode="$"/><glyph d="M92 1038q0 148 91 246t225 98q133 0 223 -95t90 -243t-91 -245t-224 -97t-223.5 95.5t-90.5 240.5zM268 0l967 1372h145l-970 -1372h-142zM227 1047q0 -108 49 -169t132 -61q79 0 130.5 64t51.5 161q0 96 -53 160t-136 64q-75 0 -124.5 -61.5t-49.5 -157.5zM928 322 q0 151 91 247.5t224 96.5q130 0 221.5 -96t91.5 -244q0 -145 -91 -242.5t-224 -97.5q-132 0 -222.5 95.5t-90.5 240.5zM1059 322q0 -97 49.5 -159.5t134.5 -62.5q81 0 130.5 63.5t49.5 162.5q0 98 -50 159.5t-132 61.5q-81 0 -131.5 -62.5t-50.5 -162.5z" glyph-name="percent" horiz-adv-x="1648" unicode="%"/><glyph d="M111 371q0 118 76 214t229 181q-85 83 -124.5 148.5t-39.5 148.5q0 123 96 206t238 83q136 0 227.5 -81.5t91.5 -203.5q0 -87 -60.5 -162.5t-185.5 -154.5q155 -141 332 -336q62 72 96 112.5t76 99t66 105.5h182q-127 -191 -321 -420q155 -165 280 -174l19 -147 q-128 1 -215 44.5t-199 151.5q-107 -103 -215 -153.5t-232 -50.5q-185 0 -301 110.5t-116 278.5zM414 1069q0 -97 147 -229q101 56 146 109.5t45 119.5q0 67 -47 114.5t-121 47.5q-75 0 -122.5 -46.5t-47.5 -115.5zM289 383q0 -112 76 -185t192 -73q153 0 313 168 q-179 205 -368 381q-213 -126 -213 -291z" glyph-name="ampersand" horiz-adv-x="1474" unicode="&amp;"/><glyph d="M152 975l-29 491h172l-27 -491h-116z" glyph-name="quotesingle" horiz-adv-x="417" unicode="'"/><glyph d="M121 553q0 644 375 1028l98 -108q-152 -197 -217.5 -417.5t-65.5 -500.5q0 -273 63 -495.5t218 -424.5l-96 -104q-375 378 -375 1022z" glyph-name="parenleft" horiz-adv-x="671" unicode="("/><glyph d="M551 561q0 -644 -375 -1028l-98 109q152 196 217 416.5t65 500.5q0 273 -62.5 495.5t-217.5 424.5l96 104q375 -378 375 -1022z" glyph-name="parenright" horiz-adv-x="671" unicode=")"/><glyph d="M244 815q48 57 176 240q-62 -1 -168 -11.5t-123 -15.5v135q113 -16 293 -24q-24 38 -174 243l112 68q4 -12 24 -53t54.5 -108.5t55.5 -110.5q1 3 57.5 124t66.5 148l115 -68q-58 -68 -178 -245q263 18 297 24v-133q-107 14 -291 27q116 -176 174 -244l-114 -63 q-18 42 -67 146.5t-58 125.5l-53 -106t-58 -117.5t-23 -51.5z" glyph-name="asterisk" horiz-adv-x="980" unicode="*"/><glyph d="M98 449v139h367v389h158v-389h368v-139h-368v-392h-158v392h-367z" glyph-name="plus" horiz-adv-x="1087" unicode="+"/><glyph d="M362 246q11 -51 11 -119q0 -118 -45.5 -231t-126.5 -207l-105 45q92 170 92 342q0 81 -10 135z" glyph-name="comma" horiz-adv-x="489" unicode=","/><glyph d="M92 418v157h518v-157h-518z" glyph-name="hyphen" horiz-adv-x="702" unicode="-"/><glyph d="M137 104q0 50 37.5 87.5t85.5 37.5q50 0 85.5 -36t35.5 -87q0 -47 -37 -84t-88 -38q-48 0 -83.5 35.5t-35.5 84.5z" glyph-name="period" horiz-adv-x="487" unicode="."/><glyph d="M655 1434l-454 -1508h-168l450 1508h172z" glyph-name="slash" horiz-adv-x="690" unicode="/"/><glyph d="M100 680q0 316 121.5 506t337.5 190q146 0 252.5 -91t159.5 -247.5t53 -359.5t-53.5 -359t-160 -246.5t-251.5 -90.5q-146 0 -251 90.5t-156.5 246.5t-51.5 361zM291 678q0 -259 70 -403t198 -144q131 0 203 145.5t72 401.5q0 255 -72.5 402t-202.5 147 q-128 0 -198 -145.5t-70 -403.5z" glyph-name="zero" horiz-adv-x="1124" unicode="0"/><glyph d="M496 0q2 84 2 207v971q-211 -91 -287 -131l-31 141q220 94 406 188h96q0 -21 -2 -122t-2 -136v-913q0 -103 4 -205h-186z" glyph-name="one" horiz-adv-x="989" unicode="1"/><glyph d="M131 0v129q125 104 228 205t188 207t132.5 209.5t47.5 191.5q0 130 -75 206.5t-201 76.5q-199 0 -295 -107v187q52 35 140 59.5t189 24.5q205 0 322 -111.5t117 -308.5q0 -66 -17.5 -132t-56.5 -135.5t-80.5 -129t-111 -137.5t-124.5 -135.5t-143 -145.5h299q179 0 275 8 v-162h-834z" glyph-name="two" unicode="2"/><glyph d="M178 27v161q111 -57 250 -57t222 68.5t83 189.5q0 111 -88.5 174.5t-224.5 63.5q-57 0 -92 -2v143q15 0 41 -1t39 -1q133 0 211.5 65t78.5 170q0 108 -66 172t-177 64q-151 0 -275 -82v166q152 68 295 68q189 0 299.5 -96.5t110.5 -262.5q0 -108 -72.5 -192.5 t-202.5 -128.5q143 -36 228.5 -124t85.5 -206q0 -178 -127.5 -287.5t-341.5 -109.5q-157 0 -277 45z" glyph-name="three" horiz-adv-x="1091" unicode="3"/><glyph d="M647 4q4 39 4 154v229h-592v92l693 899h77v-858q112 0 222 4v-139q-47 2 -222 2v-227q0 -78 9 -160zM651 520l4 563l-413 -563h409z" glyph-name="four" horiz-adv-x="1103" unicode="4"/><glyph d="M137 37v168q120 -74 260 -74q143 0 236.5 77.5t93.5 203.5q0 121 -87 197.5t-259 76.5q-120 0 -193 -22q3 34 9.5 81.5t9.5 77.5l51 561q94 -6 201 -6h237q106 0 189 6v-161q-122 4 -197 4h-282l-46 -418q65 14 113 14q207 0 330 -108.5t123 -294.5q0 -195 -138 -319 t-360 -124q-140 0 -291 60z" glyph-name="five" horiz-adv-x="1071" unicode="5"/><glyph d="M90 438q0 138 45.5 275t126.5 257t187 224t231 188h227q-178 -102 -348 -278t-237 -350q114 112 276 112q79 0 155.5 -35t135.5 -93t95 -140t36 -170q0 -116 -63 -218.5t-171.5 -164t-234.5 -61.5q-125 0 -231 60.5t-168 165t-62 228.5zM272 434q0 -126 81 -214.5 t206 -88.5q130 0 206.5 85.5t76.5 209.5q0 121 -84.5 205t-202.5 84t-200.5 -81t-82.5 -200z" glyph-name="six" horiz-adv-x="1099" unicode="6"/><glyph d="M109 1214l-13 164q55 -2 228 -2h399q44 0 125.5 2t118.5 2q-94 -200 -156 -350l-332 -762q-73 -161 -110 -268h-211q1 3 41 75t63 122l459 1024h-438q-102 0 -174 -7z" glyph-name="seven" horiz-adv-x="1042" unicode="7"/><glyph d="M109 360q0 115 77 211.5t201 139.5q-112 48 -174.5 128.5t-62.5 180.5q0 154 116 254t289 100q174 0 287.5 -101t113.5 -243q0 -100 -64.5 -183.5t-174.5 -131.5q131 -46 206.5 -138t75.5 -208q0 -168 -126.5 -276.5t-323.5 -108.5q-193 0 -316.5 104t-123.5 272z M326 1018q0 -94 68.5 -157.5t180.5 -82.5q92 20 148.5 83.5t56.5 148.5q0 96 -64 158.5t-163 62.5q-98 0 -162.5 -60.5t-64.5 -152.5zM289 385q0 -113 75.5 -183.5t188.5 -70.5q115 0 190.5 70.5t75.5 173.5q0 110 -80 177.5t-211 90.5q-101 -18 -170 -88.5t-69 -169.5z" glyph-name="eight" horiz-adv-x="1110" unicode="8"/><glyph d="M1010 944q0 -138 -45.5 -275t-126.5 -257t-187 -224t-231 -188h-227q178 102 348 278.5t237 350.5q-115 -113 -276 -113q-79 0 -155.5 35t-135.5 93t-95 140t-36 170q0 116 63 219t171.5 164.5t234.5 61.5q125 0 231 -60.5t168 -165.5t62 -229zM827 948 q0 126 -80.5 214.5t-205.5 88.5q-130 0 -206.5 -85.5t-76.5 -209.5q0 -121 84.5 -204.5t202.5 -83.5t200 80.5t82 199.5z" glyph-name="nine" horiz-adv-x="1099" unicode="9"/><glyph d="M137 881q0 50 37.5 87.5t85.5 37.5q50 0 85.5 -36t35.5 -87q0 -48 -37 -85t-88 -38q-48 0 -83.5 36t-35.5 85zM137 104q0 50 37.5 87.5t85.5 37.5q50 0 85.5 -36t35.5 -87q0 -47 -37 -84t-88 -38q-48 0 -83.5 35.5t-35.5 84.5z" glyph-name="colon" horiz-adv-x="487" unicode=":"/><glyph d="M139 881q0 50 37.5 87.5t85.5 37.5q50 0 85.5 -36t35.5 -87q0 -48 -37 -85t-88 -38q-48 0 -83.5 36t-35.5 85zM365 246q10 -46 10 -119q0 -118 -45.5 -231t-126.5 -207l-105 45q92 170 92 342q0 81 -10 135z" glyph-name="semicolon" horiz-adv-x="489" unicode=";"/><glyph d="M977 49l-834 426v103l834 436v-160l-664 -322l664 -321v-162z" glyph-name="less" horiz-adv-x="1140" unicode="&lt;"/><glyph d="M991 768v-135h-893v135h893zM991 395v-141h-893v141h893z" glyph-name="equal" horiz-adv-x="1087" unicode="="/><glyph d="M164 1012l833 -426v-103l-833 -436v160l663 321l-663 322v162z" glyph-name="greater" horiz-adv-x="1140" unicode="&gt;"/><glyph d="M326 403q0 109 34.5 183t143.5 200q75 84 109 142.5t34 113.5q0 87 -55.5 141t-155.5 54q-71 0 -140 -34t-120 -91v170q49 49 122.5 80t156.5 31q167 0 266.5 -96.5t99.5 -231.5q0 -62 -26.5 -123.5t-62.5 -109.5t-103 -123q-80 -89 -110.5 -152t-31.5 -154h-161z M291 104q0 50 37.5 87.5t85.5 37.5q50 0 85.5 -36t35.5 -87q0 -47 -37 -84t-88 -38q-48 0 -83.5 35.5t-35.5 84.5z" glyph-name="question" horiz-adv-x="935" unicode="?"/><glyph d="M469 391q0 113 45 209t132.5 156.5t199.5 60.5q59 0 116.5 -28t81.5 -74l13 90l143 -21l-70 -465q-3 -78 22 -115.5t83 -37.5q105 0 172.5 98.5t67.5 261.5q0 257 -167.5 416.5t-449.5 159.5q-132 0 -251 -52t-205 -141.5t-136.5 -216.5t-50.5 -270t47.5 -263.5 t129.5 -202.5t195 -127.5t242 -45.5q176 0 281 51l8 -115q-53 -14 -139 -27.5t-150 -13.5q-152 0 -290 56t-239.5 152.5t-161.5 235t-60 294.5q0 168 62 316t167 252t247.5 164t299.5 60q158 0 296 -48.5t239 -134.5t159 -213t58 -277q0 -212 -107.5 -345t-277.5 -133 q-202 0 -213 181q-97 -172 -271 -172q-114 0 -191 90.5t-77 234.5zM616 408q0 -101 45.5 -159.5t126.5 -58.5q112 0 209 136l33 319q-26 27 -74.5 46.5t-87.5 19.5q-105 0 -178.5 -87.5t-73.5 -215.5z" glyph-name="at" horiz-adv-x="1685" unicode="@"/><glyph d="M43 0q19 40 39.5 86t34 78t36 87t35.5 85l441 1057h73l472 -1108q52 -119 137 -285h-217l-156 387h-555l-150 -387h-190zM436 526h447l-224 576z" glyph-name="A" horiz-adv-x="1351" unicode="A"/><glyph d="M195 0q8 125 8 360v633q0 251 -6 383h348q185 0 297 -91.5t112 -242.5q0 -93 -55.5 -170t-148.5 -116q134 -37 216.5 -133t82.5 -222q0 -127 -64.5 -219.5t-171.5 -137t-242 -44.5h-376zM772 1018q0 101 -66 161t-182 60h-137v-442h156q103 0 166 60.5t63 160.5zM860 401 q0 118 -77 188t-205 70h-191v-520h172q140 0 220.5 69t80.5 193z" glyph-name="B" horiz-adv-x="1155" unicode="B"/><glyph d="M117 682q0 146 54 277.5t148 228t229 153t288 56.5q176 0 344 -62v-184q-138 86 -332 86q-156 0 -280.5 -73.5t-192.5 -199t-68 -278.5q0 -154 69 -280t192 -198.5t276 -72.5q82 0 174.5 25t165.5 61v-180q-160 -61 -361 -61q-202 0 -363.5 90t-252 250.5t-90.5 361.5z" glyph-name="C" horiz-adv-x="1302" unicode="C"/><glyph d="M195 0q6 147 6 377v678q0 201 -6 321h401q199 0 360 -85.5t254 -242.5t93 -356q0 -202 -95 -361t-256.5 -245t-359.5 -86h-397zM385 154h193q241 0 386.5 149.5t145.5 388.5q0 236 -150 384.5t-385 148.5h-190v-1071z" glyph-name="D" horiz-adv-x="1419" unicode="D"/><glyph d="M195 0q1 83 3.5 191t2.5 143v706q0 195 -6 336h352q237 0 346 4l-27 -159q-96 4 -344 4h-137v-434h147q230 0 316 2v-158q-176 4 -316 4h-147v-485h201q235 0 315 2v-158q-80 2 -309 2h-397z" glyph-name="E" horiz-adv-x="1038" unicode="E"/><glyph d="M195 0q6 150 6 356v662q0 208 -6 358h372q234 0 328 4l-29 -159q-70 4 -301 4h-180v-461h176q186 0 268 4v-162q-70 4 -268 4h-176v-262q0 -233 2 -348h-192z" glyph-name="F" horiz-adv-x="1003" unicode="F"/><glyph d="M117 680q0 200 88.5 362t258 258.5t390.5 96.5q185 0 354 -62v-180q-148 84 -344 84q-250 0 -402.5 -155.5t-152.5 -397.5q0 -151 63.5 -276t187.5 -202t286 -77q123 0 221 43v213q0 172 -4 256h190q-4 -200 -4 -381l-2 -207q-197 -78 -407 -78q-207 0 -371 86t-258 247 t-94 370z" glyph-name="G" horiz-adv-x="1421" unicode="G"/><glyph d="M195 0q6 126 6 305v723q0 219 -6 348h194q-4 -127 -4 -452v-129h733v252q0 161 -4 329h195q-6 -188 -6 -348v-772q0 -136 6 -256h-195q4 156 4 291v354h-733v-354q0 -205 4 -291h-194z" glyph-name="H" horiz-adv-x="1503" unicode="H"/><glyph d="M195 0q6 138 6 336v670q0 217 -6 370h196q-4 -61 -4 -370v-670q0 -238 4 -336h-196z" glyph-name="I" horiz-adv-x="585" unicode="I"/><glyph d="M63 2v166q62 -33 150 -33q99 0 151 65t52 185v643q0 252 -4 348h190q-2 -168 -2 -348v-663q0 -177 -98.5 -281t-276.5 -104q-72 0 -162 22z" glyph-name="J" horiz-adv-x="776" unicode="J"/><glyph d="M195 0q6 141 6 334v708q0 55 -1 110t-2.5 119t-2.5 105h194q-2 -111 -2 -334v-335l361 440q109 133 178 229h207q-49 -64 -99 -125l-452 -540l460 -527q12 -13 69 -78t97 -106h-250q-45 60 -133 164l-438 510v-338q0 -215 2 -336h-194z" glyph-name="K" horiz-adv-x="1247" unicode="K"/><glyph d="M195 0q6 93 6 377v622q0 221 -6 377h192q0 -41 -1 -96t-1 -76v-1050h250q151 0 291 4v-162q-86 4 -301 4h-430z" glyph-name="L" horiz-adv-x="983" unicode="L"/><glyph d="M131 0q2 25 14.5 165.5t14.5 180.5l76 1040h122l508 -937l502 937h123l61 -1062q9 -194 23 -324h-195q0 115 -10 297l-35 733l-446 -846h-53l-451 846l-47 -725q-10 -146 -14 -305h-193z" glyph-name="M" horiz-adv-x="1705" unicode="M"/><glyph d="M195 0q6 132 6 289v751q0 168 -6 353h90l872 -1033v672q0 246 -6 344h190q-8 -106 -8 -334v-761q0 -197 2 -285h-92l-866 1036v-751q0 -158 6 -281h-188z" glyph-name="N" horiz-adv-x="1536" unicode="N"/><glyph d="M117 688q0 148 54.5 279.5t147.5 225.5t223 149t277 55q196 0 358 -94t254.5 -257t92.5 -360q0 -200 -93 -362.5t-254 -254.5t-356 -92q-198 0 -359 92t-253 255t-92 364zM309 686q0 -242 144 -399.5t368 -157.5q145 0 261.5 72.5t181.5 199.5t65 285q0 238 -144.5 397.5 t-365.5 159.5q-143 0 -259.5 -71t-183.5 -199t-67 -287z" glyph-name="O" horiz-adv-x="1640" unicode="O"/><glyph d="M1006 942q0 -190 -131 -311t-365 -121h-125v-170q0 -248 4 -340h-194q6 135 6 356v719q0 184 -6 301h323q230 0 359 -118t129 -316zM813 946q0 129 -83 206t-226 77h-119v-572h119q138 0 223.5 78t85.5 211z" glyph-name="P" horiz-adv-x="1097" unicode="P"/><glyph d="M1681 -158l21 -135q-94 -24 -182 -24q-190 0 -337 69t-302 228q-27 -3 -60 -3q-198 0 -359 92t-253 255t-92 364q0 148 54.5 279.5t147.5 225.5t223 149t277 55q196 0 358 -94t254.5 -257t92.5 -360q0 -228 -121.5 -406.5t-319.5 -254.5q105 -94 228.5 -145.5 t240.5 -51.5q68 0 129 14zM309 686q0 -242 144 -399.5t368 -157.5q145 0 261.5 72.5t181.5 199.5t65 285q0 238 -144.5 397.5t-365.5 159.5q-143 0 -259.5 -71t-183.5 -199t-67 -287z" glyph-name="Q" horiz-adv-x="1640" unicode="Q"/><glyph d="M999 981q0 -270 -276 -360l197 -289q100 -144 256 -332h-236l-387 567h-170v-211q0 -180 4 -356h-192q6 90 6 362v687q0 249 -6 327h327q99 0 184.5 -24t151.5 -71.5t103.5 -124.5t37.5 -175zM811 969q0 124 -83.5 191t-211.5 67h-133v-516h137q120 0 205.5 68.5 t85.5 189.5z" glyph-name="R" horiz-adv-x="1226" unicode="R"/><glyph d="M123 47l39 176q58 -48 137.5 -76t165.5 -28q116 0 185 58t69 159q0 47 -19.5 89t-55.5 77t-71 60t-81 52q-47 28 -76 46t-72 49.5t-69.5 61t-53 68.5t-39 85t-12.5 98q0 171 113.5 274t300.5 103q68 0 149 -16t127 -37v-170q-102 77 -268 77q-104 0 -168 -53.5 t-64 -146.5q0 -79 56.5 -141.5t169.5 -125.5q124 -73 194 -133t105 -131t35 -164q0 -169 -124 -277t-325 -108q-177 0 -348 74z" glyph-name="S" horiz-adv-x="1050" unicode="S"/><glyph d="M510 0q4 94 4 350v615q0 184 -2 258h-139q-219 0 -305 -4v159q47 0 153.5 -1t163.5 -1h461q235 0 315 2l-18 -159q-180 4 -305 4h-138q-2 -70 -2 -258v-615q0 -200 7 -350h-195z" glyph-name="T" horiz-adv-x="1218" unicode="T"/><glyph d="M369 1376q-7 -110 -7 -346v-500q0 -192 96 -293.5t255 -101.5q163 0 255.5 104t92.5 296v495q0 258 -2 346h190q-2 -100 -2 -348v-500q0 -265 -144 -406.5t-390 -141.5q-251 0 -393 146t-142 402v500q0 168 -4 348h195z" glyph-name="U" horiz-adv-x="1421" unicode="U"/><glyph d="M41 1376h211l430 -1085l430 1085h199q-6 -13 -58.5 -123.5t-56.5 -119.5l-489 -1158h-62l-479 1135q-81 185 -125 266z" glyph-name="V" horiz-adv-x="1351" unicode="V"/><glyph d="M41 1376h201l446 -1097l207 524l-252 573h182l170 -381l154 381h178l-250 -573l197 -524l446 1097h193q-31 -73 -123 -278l-475 -1102h-62l-274 635l-277 -635h-63l-475 1091q-27 59 -72.5 167.5t-50.5 121.5z" glyph-name="W" horiz-adv-x="1953" unicode="W"/><glyph d="M45 0q131 181 199 285l260 405l-250 400q-24 38 -191 286h224q59 -107 116 -198l209 -340l222 356q72 122 110 182h209q-103 -138 -195 -280l-251 -391l254 -406q71 -110 204 -299h-223q-93 157 -113 188l-229 365l-250 -397q-11 -17 -49.5 -81.5t-44.5 -74.5h-211z" glyph-name="X" horiz-adv-x="1210" unicode="X"/><glyph d="M520 0q6 282 6 324v272l-325 530q-124 196 -160 250h219q11 -24 24 -49t22 -41.5t26 -46t26 -45.5l267 -440l256 434q17 29 58 102.5t48 85.5h207q-13 -23 -70 -111t-88 -139l-325 -530v-274q0 -184 6 -322h-197z" glyph-name="Y" horiz-adv-x="1234" unicode="Y"/><glyph d="M92 0q10 18 68.5 116.5t91.5 157.5l536 949h-335q-246 0 -322 -4l-16 159q96 -2 360 -2h602l-706 -1222h411q227 0 303 2v-158q-78 2 -305 2h-688z" glyph-name="Z" horiz-adv-x="1173" unicode="Z"/><glyph d="M164 -424q4 126 4 225v1522q0 99 -4 225h311q98 0 137 2v-135q-39 2 -129 2h-161v-1710h163q92 0 127 4v-137q-25 2 -120 2h-328z" glyph-name="bracketleft" horiz-adv-x="681" unicode="["/><glyph d="M205 1436l454 -1514h-172l-452 1514h170z" glyph-name="backslash" horiz-adv-x="692" unicode="\"/><glyph d="M518 -424h-328q-95 0 -120 -2v137q35 -4 127 -4h163v1710h-161q-90 0 -129 -2v135q39 -2 137 -2h311q-4 -126 -4 -225v-1522q0 -99 4 -225z" glyph-name="bracketright" horiz-adv-x="681" unicode="]"/><glyph d="M793 815l-261 447l-256 -447h-159l377 600h86l376 -600h-163z" glyph-name="asciicircum" unicode="^"/><glyph d="M782 -193v-14h-614v14h614z" glyph-name="underscore" horiz-adv-x="950" unicode="_"/><glyph d="M96 274q0 139 103 217t284 89q168 8 234 8v41q0 95 -69.5 148.5t-172.5 53.5q-140 0 -258 -69l-57 123q141 86 338 86q176 0 283.5 -98t107.5 -271v-301q0 -179 33 -301h-181l-12 111q-131 -131 -315 -131q-134 0 -226 81.5t-92 212.5zM276 276q0 -75 45 -119t121 -44 q74 0 148.5 31t126.5 85v232l-193 -6q-124 -5 -186 -46t-62 -133z" glyph-name="a" unicode="a"/><glyph d="M240 0h-58v1384h-104l45 109h242q-7 -123 -7 -176v-434q121 90 291 90q212 0 345.5 -138.5t133.5 -351.5q0 -221 -136 -357t-349 -136q-87 0 -170 31.5t-137 78.5zM358 246q51 -49 121 -77t144 -28q153 0 240 93.5t87 246.5q0 154 -87 248t-236 94q-81 0 -154 -25.5 t-115 -66.5v-485z" glyph-name="b" horiz-adv-x="1232" unicode="b"/><glyph d="M104 469q0 215 147.5 357.5t375.5 142.5q143 0 274 -62v-170q-109 78 -258 78q-166 0 -262 -97t-96 -249t94 -242t266 -90q74 0 142 24.5t116 57.5v-168q-42 -29 -114.5 -48t-159.5 -19q-231 0 -378 137.5t-147 347.5z" glyph-name="c" horiz-adv-x="1044" unicode="c"/><glyph d="M104 483q0 220 135.5 354t350.5 134q80 0 159.5 -27t124.5 -65v460h-108l51 109h238q-6 -80 -6 -186v-1026q0 -36 1 -119t1 -117h-88l-68 98q-58 -48 -143 -78t-174 -30q-212 0 -343 139.5t-131 353.5zM283 479q0 -154 83 -247t232 -93q76 0 153 28.5t123 72.5l3 477 q-52 48 -122.5 76t-146.5 28q-152 0 -238.5 -93.5t-86.5 -248.5z" glyph-name="d" horiz-adv-x="1251" unicode="d"/><glyph d="M104 485q0 129 53 239t157 178.5t237 68.5q113 0 199 -38.5t134 -102.5t71.5 -138t23.5 -155q0 -64 -6 -91h-690q15 -315 323 -315q147 0 320 94v-143q-57 -41 -142 -68.5t-186 -27.5q-224 0 -359 130.5t-135 368.5zM553 831q-55 0 -100.5 -15.5t-75.5 -41.5t-51.5 -61 t-31.5 -71.5t-13 -76.5h528q-2 123 -63 194.5t-193 71.5z" glyph-name="e" unicode="e"/><glyph d="M223 0q4 176 4 199v610h-149v139h149v146q0 181 84 284t242 103q61 0 174 -25l-22 -143q-44 24 -117 24q-96 0 -140.5 -66t-44.5 -171v-152h238l-27 -139h-211v-610q0 -117 3 -199h-183z" glyph-name="f" horiz-adv-x="698" unicode="f"/><glyph d="M104 479q0 219 135 354.5t341 135.5q87 0 168 -28.5t124 -68.5l5 76h165q-4 -90 -4 -139v-799q0 -137 -38.5 -233t-111 -149.5t-163.5 -77t-211 -23.5q-85 0 -188 16t-162 33l41 135q205 -41 313 -41q170 0 261 77.5t91 258.5v76q-132 -92 -292 -92q-213 0 -343.5 138 t-130.5 351zM283 479q0 -154 82 -247t229 -93q76 0 152.5 28t121.5 71l2 479q-116 104 -264 104q-154 0 -238.5 -93t-84.5 -249z" glyph-name="g" horiz-adv-x="1222" unicode="g"/><glyph d="M156 0q6 80 6 195v1169h-84l43 109h221q-4 -49 -4 -201v-461q50 69 134 111.5t200 42.5q163 0 261.5 -104.5t98.5 -299.5v-338q0 -172 4 -223h-182q2 36 2 231v347q0 120 -67 179.5t-175 59.5q-84 0 -158.5 -48.5t-117.5 -129.5v-446q0 -91 4 -193h-186z" glyph-name="h" horiz-adv-x="1181" unicode="h"/><glyph d="M199 1257q0 45 31 77t75 32t77.5 -32.5t33.5 -76.5q0 -45 -33 -76.5t-78 -31.5q-44 0 -75 31t-31 77zM246 0q6 47 6 201v542q0 156 -6 205h188q-6 -49 -6 -203v-544q0 -158 6 -201h-188z" glyph-name="i" horiz-adv-x="565" unicode="i"/><glyph d="M258 1366q44 0 77.5 -32.5t33.5 -76.5q0 -45 -33 -76.5t-78 -31.5t-76.5 31.5t-31.5 76.5q0 44 32 76.5t76 32.5zM-84 -496v142h117q174 0 174 278v819q0 158 -4 205h186q-4 -47 -4 -203v-829q0 -190 -80 -301t-250 -111h-139z" glyph-name="j" horiz-adv-x="501" unicode="j"/><glyph d="M164 0q4 110 4 205v1159h-90l41 109h229q-6 -55 -6 -199v-746l418 420h223q-105 -86 -166 -143l-291 -281l389 -407q86 -91 115 -117h-239l-449 475v-282q0 -75 4 -193h-182z" glyph-name="k" horiz-adv-x="1083" unicode="k"/><glyph d="M166 0q4 86 4 201v1163h-92l43 109h229q-6 -39 -6 -179v-1093q0 -158 4 -201h-182z" glyph-name="l" horiz-adv-x="546" unicode="l"/><glyph d="M80 838l43 110h205l10 -139q43 66 119.5 111t158.5 45q207 0 281 -170q51 78 131 124t166 46q144 0 233 -102.5t89 -295.5v-377q0 -80 4 -190h-183q2 78 2 221v357q0 121 -43.5 180t-136.5 59q-67 0 -127 -47.5t-106 -130.5v-449q0 -76 4 -190h-180q2 70 2 221v354 q0 242 -181 242q-67 0 -127 -47.5t-106 -130.5v-414q0 -162 2 -225h-180q2 86 2 195v643h-82z" glyph-name="m" horiz-adv-x="1665" unicode="m"/><glyph d="M80 838l43 110h203l10 -139q111 156 336 156q164 0 260 -103t96 -303v-336q0 -162 4 -223h-182q4 82 4 231v347q0 121 -67 180t-175 59q-86 0 -158.5 -48t-117.5 -130v-408q0 -161 4 -231h-182q4 148 4 231v607h-82z" glyph-name="n" horiz-adv-x="1175" unicode="n"/><glyph d="M104 471q0 136 62.5 250t171 180t237.5 66q131 0 240.5 -67t171.5 -181t62 -248q0 -205 -137 -346t-337 -141q-132 0 -240 65t-169.5 177t-61.5 245zM281 471q0 -142 83.5 -241t210.5 -99q131 0 213 98t82 242q0 149 -83.5 245.5t-211.5 96.5q-87 0 -156 -53 t-103.5 -130.5t-34.5 -158.5z" glyph-name="o" horiz-adv-x="1150" unicode="o"/><glyph d="M80 840l43 108h242l-11 -90q115 115 295 115q212 0 345.5 -138.5t133.5 -351.5q0 -221 -137 -357t-350 -136q-142 0 -285 88v-541l-178 -37q4 136 4 205v1135h-102zM950 481q0 154 -87 248t-236 94q-161 0 -271 -110v-467q53 -50 122.5 -77.5t144.5 -27.5q153 0 240 93 t87 247z" glyph-name="p" horiz-adv-x="1230" unicode="p"/><glyph d="M104 483q0 220 134.5 353t343.5 133q90 0 169.5 -26.5t122.5 -63.5v69h181q-4 -57 -4 -192v-1006q0 -162 6 -248h-185q5 185 5 246l-3 336q-132 -94 -296 -94q-212 0 -343 139.5t-131 353.5zM283 479q0 -155 82.5 -247.5t230.5 -92.5q78 0 155 28t123 73l3 477 q-116 104 -269 104q-155 0 -240 -93t-85 -249z" glyph-name="q" horiz-adv-x="1251" unicode="q"/><glyph d="M80 840l43 108h190l21 -147q51 71 130 119.5t152 48.5q55 0 101 -19l-35 -162q-54 13 -98 13q-61 0 -128.5 -38.5t-111.5 -105.5v-454q0 -26 6 -203h-188q6 111 6 207v633h-88z" glyph-name="r" horiz-adv-x="755" unicode="r"/><glyph d="M98 39l31 158q113 -88 244 -88q80 0 130 35.5t50 99.5q0 27 -12.5 50t-44.5 46.5t-50.5 34.5t-67.5 36q-9 5 -13 7q-47 23 -82 46.5t-72.5 58t-57.5 80.5t-20 99q0 120 86.5 192.5t235.5 72.5q104 0 233 -41v-154q-112 66 -221 66q-76 0 -120 -32.5t-44 -90.5 q0 -35 29.5 -68t55.5 -48.5t86 -45.5q10 -5 15 -8q47 -24 82 -47t73.5 -58.5t59.5 -83t21 -102.5q0 -129 -92.5 -203t-251.5 -74q-72 0 -151.5 17.5t-131.5 44.5z" glyph-name="s" horiz-adv-x="829" unicode="s"/><glyph d="M68 809v139h153v82q0 105 -2 148l180 28q-2 -57 -2 -178v-80h273l-25 -139h-248v-467q0 -110 34 -162.5t116 -52.5q46 0 98 27l29 -131q-35 -17 -88 -29t-92 -12q-134 0 -203.5 80.5t-69.5 236.5v510h-153z" glyph-name="t" horiz-adv-x="761" unicode="t"/><glyph d="M80 838l45 110h221q-6 -49 -6 -213v-327q0 -279 211 -279q72 0 135.5 47.5t99.5 132.5v410q0 157 -4 229h185q-4 -68 -4 -223v-532q0 -130 16 -193h-152l-32 127q-97 -143 -285 -143q-346 0 -346 409v445h-84z" glyph-name="u" horiz-adv-x="1173" unicode="u"/><glyph d="M242 948l67 -174l197 -520l209 549q6 15 25.5 72t25.5 73h186q-46 -95 -90 -194l-327 -774h-74l-332 776q-41 95 -92 192h205z" glyph-name="v" horiz-adv-x="991" unicode="v"/><glyph d="M35 948h196q18 -77 64 -198l170 -486l225 684h105l237 -694l178 555q33 95 43 139h181l-68 -172l-283 -794h-84l-262 731l-254 -731h-90l-274 751q-15 42 -44.5 114t-39.5 101z" glyph-name="w" horiz-adv-x="1468" unicode="w"/><glyph d="M41 0q68 91 143 203l187 270l-187 283q-69 115 -137 192h207l225 -354l223 354h193q-17 -21 -35 -46.5t-30.5 -44t-34.5 -51.5t-33 -50l-187 -279l209 -313q102 -151 111 -164h-193l-235 354l-231 -354h-195z" glyph-name="x" horiz-adv-x="940" unicode="x"/><glyph d="M37 948h207q13 -31 35 -91.5t32 -86.5l215 -555l217 545q30 75 64 188h194q-18 -38 -49 -111t-41 -96l-385 -884q-59 -140 -137 -199t-196 -59h-89l15 131q114 0 160.5 28t91.5 125l71 150l-292 663q-65 155 -113 252z" glyph-name="y" horiz-adv-x="1038" unicode="y"/><glyph d="M76 0l483 801h-278q-76 0 -166 -4l-6 155q51 -4 180 -4h528l-473 -801h293q49 0 182 5v-154q-43 2 -135 2h-608z" glyph-name="z" horiz-adv-x="892" unicode="z"/><glyph d="M74 500v131q91 8 136.5 62.5t45.5 164.5q0 28 -4 168.5t-4 165.5q0 179 105.5 266t293.5 90l10 -139q-125 -3 -186 -62.5t-61 -199.5q0 -24 4 -159.5t4 -162.5q0 -100 -37.5 -164t-128.5 -96q91 -32 128.5 -96t37.5 -164q0 -25 -4 -160.5t-4 -162.5q0 -138 61 -198 t186 -63l-10 -139q-188 3 -293.5 90.5t-105.5 266.5q0 31 4 174t4 170q0 201 -182 217z" glyph-name="braceleft" horiz-adv-x="724" unicode="{"/><glyph d="M317 1561v-2003h-147v2003h147z" glyph-name="bar" horiz-adv-x="485" unicode="|"/><glyph d="M651 631v-131q-91 -8 -136.5 -63t-45.5 -165q0 -28 4 -168t4 -165q0 -179 -105.5 -266.5t-293.5 -90.5l-10 139q125 3 186 63t61 200q0 24 -4 159t-4 162q0 100 37.5 164t128.5 96q-91 32 -128.5 96t-37.5 164q0 25 4 161t4 163q0 138 -61 197.5t-186 62.5l10 139 q188 -3 293.5 -90t105.5 -266q0 -31 -4 -174t-4 -170q0 -201 182 -217z" glyph-name="braceright" horiz-adv-x="724" unicode="}"/><glyph d="M176 512q3 77 49.5 136t124.5 59q35 0 71 -15t61 -32.5t54 -32.5t52 -15q62 0 69 84h105q-2 -50 -19 -93t-55 -73t-92 -30q-45 0 -90.5 23t-84.5 46t-67 23q-57 0 -67 -80h-111z" glyph-name="asciitilde" horiz-adv-x="940" unicode="~"/><glyph d="M397 856q0 -50 -37.5 -87.5t-85.5 -37.5q-50 0 -85 36t-35 87q0 48 37 85t88 38q47 0 82.5 -36t35.5 -85zM367 -416h-189q4 49 4 230v495q0 181 -4 232h189q-7 -79 -7 -232v-495q0 -163 7 -230z" glyph-name="exclamdown" horiz-adv-x="552" unicode="¡"/><glyph d="M879 145q-94 -33 -201 -36v-177h-111v181q-180 26 -285.5 154t-105.5 302q0 184 109 313.5t282 157.5v193h113v-184q104 -7 182 -35v-158q-72 44 -172 47q-143 2 -239.5 -86.5t-96.5 -241.5q0 -147 91 -235t241 -86q102 0 178 45z" glyph-name="cent" horiz-adv-x="1085" unicode="¢"/><glyph d="M90 0v135q121 21 184 141t64 369h-164v119h170q10 610 455 610q69 0 196 -31l-22 -147q-64 31 -156 31q-271 0 -291 -348l-4 -115h324l-23 -119h-307q-1 -183 -51 -313t-137 -195q136 4 266 4h162q95 0 209 4v-147q-57 2 -193 2h-682z" glyph-name="sterling" horiz-adv-x="1085" unicode="£"/><glyph d="M113 662q0 127 86 251l-152 150l90 88l150 -150q122 89 258 89q121 0 250 -89l145 146l90 -90l-143 -144q88 -128 88 -251q0 -136 -90 -248l147 -148l-90 -92l-149 148q-122 -84 -250 -84q-138 0 -254 84l-144 -144l-92 90l146 148q-86 112 -86 246zM260 664 q0 -122 82.5 -206.5t200.5 -84.5t200 86t82 205q0 117 -82 202.5t-200 85.5q-120 0 -201.5 -84.5t-81.5 -203.5z" glyph-name="currency" horiz-adv-x="1085" unicode="¤"/><glyph d="M442 0q1 24 4 96.5t3 116.5v106h-287v93h287v155h-287v97h299l-305 516q-52 84 -105 178h205q31 -61 82 -154l207 -395l213 383q75 141 84 166h192l-121 -209l-288 -485h295v-97h-289v-155h289v-93h-289v-104q0 -5 6 -215h-195z" glyph-name="yen" horiz-adv-x="1085" unicode="¥"/><glyph d="M317 1561v-732h-147v732h147zM317 289v-731h-147v731h147z" glyph-name="brokenbar" horiz-adv-x="485" unicode="¦"/><glyph d="M125 653q0 83 52.5 154t146.5 119q-54 39 -89.5 100t-35.5 127q0 138 96.5 219.5t265.5 81.5q160 0 297 -55v-144q-56 37 -118.5 52.5t-151.5 15.5q-96 0 -151.5 -44t-55.5 -122q0 -70 54 -119.5t159 -95.5q62 -27 102 -46.5t93.5 -54.5t84.5 -69.5t53.5 -85t22.5 -108.5 q0 -152 -170 -271q111 -91 111 -225q0 -154 -109.5 -236t-296.5 -82q-168 0 -333 72l32 152q119 -90 295 -90q110 0 173 44.5t63 131.5q0 127 -230 227q-154 68 -212 106q-140 92 -148 229v17zM283 692q0 -38 18.5 -73t44 -60t68 -51.5t73.5 -41.5t78 -36q106 -48 125 -59 q98 76 98 178q0 34 -10 64t-33 55.5t-44.5 44.5t-61.5 40.5t-66.5 34.5t-74.5 35q-91 42 -95 45q-57 -28 -88.5 -75t-31.5 -101z" glyph-name="section" horiz-adv-x="1064" unicode="§"/><glyph d="M117 664q0 135 51.5 257.5t139 212t210 142.5t258.5 53q182 0 335 -89.5t241 -242.5t88 -333q0 -137 -51.5 -261t-139.5 -213.5t-211.5 -142.5t-261.5 -53q-137 0 -259.5 53t-210 142.5t-138.5 213.5t-51 261zM215 664q0 -121 43.5 -229.5t118 -187t179 -124t222.5 -45.5 t222.5 45.5t179 124t118 187t43.5 229.5q0 159 -75 292t-204.5 209t-283.5 76t-283.5 -75.5t-204.5 -208.5t-75 -293zM453 657q0 160 104.5 271.5t261.5 111.5q76 0 166 -28v-115q-58 35 -158 35q-108 0 -180 -77t-72 -191q0 -120 70.5 -196.5t177.5 -76.5q80 0 160 41 l16 -117q-91 -32 -188 -32q-154 0 -256 107.5t-102 266.5z" glyph-name="copyright" horiz-adv-x="1556" unicode="©"/><glyph d="M51 150q0 151 213 161l129 4v27q0 59 -38.5 90t-98.5 31q-78 0 -143 -35l-23 59q95 45 180 45q104 0 158.5 -49.5t54.5 -148.5v-172q0 -110 9 -162h-74l-21 68q-41 -38 -89 -60t-89 -22q-74 0 -121 45.5t-47 118.5zM141 154q0 -45 28 -73t73 -28q37 0 79 17t72 47v143 l-106 -4q-70 -3 -108 -25t-38 -77z" glyph-name="ordfeminine" horiz-adv-x="548" unicode="ª"/><glyph d="M588 59l-490 396v20l486 397v-155l-303 -252l307 -248v-158zM1114 59l-489 396v20l485 397v-155l-303 -252l307 -248v-158z" glyph-name="guillemotleft" horiz-adv-x="1232" unicode="«"/><glyph d="M61 535v143h918v-520h-174v377h-744z" glyph-name="logicalnot" horiz-adv-x="1087" unicode="¬"/><glyph d="M133 1065q0 159 110 270t267 111q156 0 267.5 -111.5t111.5 -269.5q0 -157 -110 -268t-269 -111q-160 0 -268.5 110t-108.5 269zM190 1065q0 -139 92.5 -234.5t227.5 -95.5q137 0 228 96t91 234q0 141 -91 237.5t-228 96.5q-136 0 -228 -96.5t-92 -237.5zM635 1161 q0 -49 -29.5 -79t-73.5 -35l127 -175h-63l-109 170h-47v-170h-55q2 31 2 82v228q0 11 0.5 29.5t0.5 33t-1 25.5h107q68 0 104.5 -29.5t36.5 -79.5zM586 1157q0 37 -23.5 54.5t-75.5 17.5h-47v-150h47q46 0 72.5 20.5t26.5 57.5z" glyph-name="registered" horiz-adv-x="1021" unicode="®"/><glyph d="M358 1378q117 0 196 -79t79 -193t-83 -198.5t-200 -84.5t-193.5 81t-76.5 198q0 116 80.5 196t197.5 80zM354 926q74 0 122 52t48 128q0 69 -49.5 119.5t-116.5 50.5q-71 0 -121.5 -49.5t-50.5 -124.5t48 -125.5t120 -50.5z" glyph-name="degree" horiz-adv-x="714" unicode="°"/><glyph d="M98 639v139h367v389h158v-389h368v-139h-368v-391h-158v391h-367zM98 0v143h893v-143h-893z" glyph-name="plusminus" horiz-adv-x="1087" unicode="±"/><glyph d="M82 887v106q14 14 101.5 97t107.5 104q143 143 143 227q0 63 -38.5 101.5t-104.5 38.5q-89 0 -174 -58l-17 119q103 55 207 55q128 0 200.5 -61.5t72.5 -171.5q0 -129 -183 -297q-25 -25 -86 -77t-82 -73h213q64 0 158 4v-114h-518z" glyph-name="uni00B2" horiz-adv-x="698" unicode="²"/><glyph d="M119 1528l-13 110q72 41 185 41q123 0 195.5 -50t72.5 -144q0 -67 -51 -123.5t-135 -67.5q89 -7 150 -63.5t61 -128.5q0 -100 -79.5 -160.5t-211.5 -60.5q-116 0 -201 34l12 109q63 -39 175 -39q76 0 118.5 34t42.5 97q0 59 -46.5 94t-133.5 35q-23 0 -51 -4v98l39 -2 q79 0 124.5 34t45.5 93q0 54 -36 81.5t-97 27.5q-96 0 -166 -45z" glyph-name="uni00B3" horiz-adv-x="700" unicode="³"/><glyph d="M80 838l45 108h217q0 -34 -2 -100.5t-2 -100.5v-219q0 -397 264 -397q87 0 163 57.5t93 139.5v393q0 155 -4 227h184q-4 -68 -4 -221v-532q0 -101 10 -193h-143l-35 139q-111 -155 -282 -155q-100 0 -161.5 37t-117.5 129q17 -140 17 -232v-250q0 -76 6 -190h-170 q4 49 4 200v1160h-82z" glyph-name="uni00B5" horiz-adv-x="1241" unicode="µ"/><glyph d="M109 907q0 206 138 337.5t355 131.5h469v-1616h-147v1497h-148v-1151q0 -237 2 -348h-182q0 24 1 76.5t1 85.5v520q-223 11 -356 134.5t-133 332.5z" glyph-name="paragraph" horiz-adv-x="1208" unicode="¶"/><glyph d="M135 502q0 50 37.5 87.5t85.5 37.5q50 0 85.5 -36t35.5 -87q0 -48 -37 -85t-88 -38q-48 0 -83.5 36t-35.5 85z" glyph-name="periodcentered" horiz-adv-x="514" unicode="·"/><glyph d="M442 1047q0 -141 2 -162h-141q0 24 2 99.5t2 102.5v447l-198 -80l-21 96q131 51 285 123h71l-2 -164v-462z" glyph-name="uni00B9" horiz-adv-x="624" unicode="¹"/><glyph d="M336 567q119 0 199.5 -84.5t80.5 -206.5q0 -121 -80 -205.5t-200 -84.5q-119 0 -200 84.5t-81 205.5q0 122 81 206.5t200 84.5zM170 260q6 -81 58 -132t124 -44q73 6 114.5 65.5t35.5 141.5q-6 84 -57.5 134t-122.5 44q-74 -6 -117 -72t-35 -137z" glyph-name="ordmasculine" horiz-adv-x="1032" unicode="º"/><glyph d="M119 870l489 -395v-20l-485 -398v156l303 252l-307 248v157zM645 870l490 -395v-20l-486 -398v156l303 252l-307 248v157z" glyph-name="guillemotright" horiz-adv-x="1232" unicode="»"/><glyph d="M442 741q0 -141 2 -161h-141q0 24 2 99.5t2 102.5v447l-198 -80l-21 96q131 51 285 123h71l-2 -164v-463zM1315 1362l-901 -1362h-133l901 1362h133zM1278 0v88v107h-377v67l426 522h82v-499q86 0 129 2v-92q-14 1 -32.5 1t-47 -0.5t-49.5 -0.5v-95q0 -57 2 -100h-133z M1278 287l6 340l-266 -340h260z" glyph-name="onequarter" horiz-adv-x="1658" unicode="¼"/><glyph d="M442 752q0 -142 2 -162h-141q0 24 2 100t2 103v446l-198 -80l-21 96q131 51 285 123h71l-2 -164v-462zM1294 1362l-901 -1362h-133l901 1362h133zM1038 0v106q14 14 101.5 97t107.5 104q144 144 144 228q0 62 -38.5 100.5t-105.5 38.5q-89 0 -174 -58l-16 119 q105 56 207 56q128 0 200 -62t72 -172q0 -130 -182 -297q-25 -25 -86 -76.5t-82 -72.5h213q63 0 157 4v-115h-518z" glyph-name="onehalf" horiz-adv-x="1654" unicode="½"/><glyph d="M119 1235l-13 111q70 40 185 40q123 0 195.5 -50t72.5 -144q0 -67 -51 -123.5t-135 -67.5q89 -7 150 -63.5t61 -128.5q0 -100 -79.5 -160.5t-211.5 -60.5q-113 0 -201 35l12 108q63 -39 175 -39q76 0 118.5 34t42.5 97q0 59 -46.5 94t-133.5 35q-23 0 -51 -4v99l39 -3 q79 0 124.5 34t45.5 93q0 54 -36 81.5t-97 27.5q-96 0 -166 -45zM1366 1362l-901 -1362h-133l901 1362h133zM1270 0v98v97h-377v67l426 522h84v-499q86 0 127 2v-92h-127v-95q0 -57 2 -100h-135zM1270 287l6 340l-266 -340h260z" glyph-name="threequarters" horiz-adv-x="1650" unicode="¾"/><glyph d="M707 854q0 -50 -37.5 -87.5t-85.5 -37.5q-50 0 -85.5 36t-35.5 87q0 48 37 85t88 38q48 0 83.5 -36t35.5 -85zM672 555q0 -109 -34.5 -183t-143.5 -200q-75 -85 -109.5 -143t-34.5 -113q0 -87 55.5 -141t155.5 -54q71 0 140 34t120 91v-170q-49 -49 -121.5 -79.5 t-156.5 -30.5q-85 0 -155.5 27.5t-116 73t-70.5 104.5t-25 123q0 89 46 166t147 190q80 89 110 151t31 154h162z" glyph-name="questiondown" horiz-adv-x="935" unicode="¿"/><glyph d="M440 1778h187l166 -291h-148zM43 0q19 40 39.5 86t34 78t36 87t35.5 85l441 1057h73l472 -1108q52 -119 137 -285h-217l-156 387h-555l-150 -387h-190zM436 526h447l-224 576z" glyph-name="Agrave" horiz-adv-x="1351" unicode="À"/><glyph d="M891 1778l-205 -291h-147l166 291h186zM43 0q19 40 39.5 86t34 78t36 87t35.5 85l441 1057h73l472 -1108q52 -119 137 -285h-217l-156 387h-555l-150 -387h-190zM436 526h447l-224 576z" glyph-name="Aacute" horiz-adv-x="1351" unicode="Á"/><glyph d="M393 1470l230 293h79l230 -293h-133l-137 185l-136 -185h-133zM43 0q19 40 39.5 86t34 78t36 87t35.5 85l441 1057h73l472 -1108q52 -119 137 -285h-217l-156 387h-555l-150 -387h-190zM436 526h447l-224 576z" glyph-name="Acircumflex" horiz-adv-x="1351" unicode="Â"/><glyph d="M373 1513q3 77 49.5 136t124.5 59q44 0 88.5 -23.5t82.5 -47t66 -23.5q63 0 70 84h104q-3 -80 -45 -138.5t-120 -58.5q-45 0 -91 23t-84.5 46t-66.5 23q-58 0 -68 -80h-110zM43 0q19 40 39.5 86t34 78t36 87t35.5 85l441 1057h73l472 -1108q52 -119 137 -285h-217 l-156 387h-555l-150 -387h-190zM436 526h447l-224 576z" glyph-name="Atilde" horiz-adv-x="1351" unicode="Ã"/><glyph d="M367 1645q0 44 32 76t76 32q45 0 78 -32t33 -76q0 -45 -33 -77t-78 -32t-76.5 32t-31.5 77zM750 1645q0 44 32 76t76 32q45 0 78 -32t33 -76q0 -45 -33 -77t-78 -32q-44 0 -76 32t-32 77zM43 0q19 40 39.5 86t34 78t36 87t35.5 85l441 1057h73l472 -1108 q52 -119 137 -285h-217l-156 387h-555l-150 -387h-190zM436 526h447l-224 576z" glyph-name="Adieresis" horiz-adv-x="1351" unicode="Ä"/><glyph d="M473 1632q0 77 55 126.5t138 49.5q82 0 137 -50t55 -126q0 -73 -54.5 -124.5t-137.5 -51.5q-82 0 -137.5 50.5t-55.5 125.5zM569 1634q0 -40 26.5 -73t70.5 -33t71 29t27 75q0 44 -27.5 73.5t-70.5 29.5q-41 0 -69 -28t-28 -73zM43 0q19 40 39.5 86t34 78t36 87t35.5 85 l441 1057h73l472 -1108q52 -119 137 -285h-217l-156 387h-555l-150 -387h-190zM436 526h447l-224 576z" glyph-name="Aring" horiz-adv-x="1351" unicode="Å"/><glyph d="M43 0q15 27 55.5 95t78.5 134.5t75 137.5l524 1009h414q223 0 336 4l-17 -159q-86 4 -319 4h-229l79 -469h224q194 0 272 4v-158q-76 2 -258 2h-207l74 -450h219q196 0 268 6v-164q-39 0 -120.5 2t-125.5 2h-385l-63 391h-489l-197 -391h-209zM516 532h393l-96 609z" glyph-name="AE" horiz-adv-x="1765" unicode="Æ"/><glyph d="M1184 41q-150 -58 -342 -61l-33 -66q77 -14 119.5 -58.5t42.5 -111.5q0 -81 -58.5 -131.5t-162.5 -50.5q-74 0 -129 22l10 90q59 -18 102 -18q51 0 82 23.5t31 64.5q0 90 -139 90q-23 0 -33 -2l71 152q-183 17 -326 110.5t-222.5 246.5t-79.5 341q0 146 54 277.5t148 228 t229 153t288 56.5q176 0 344 -62v-184q-138 86 -332 86q-156 0 -280.5 -73.5t-192.5 -199t-68 -278.5q0 -154 69 -280t192 -198.5t276 -72.5q82 0 174.5 25t165.5 61v-180z" glyph-name="Ccedilla" horiz-adv-x="1302" unicode="Ç"/><glyph d="M297 1778h186l166 -291h-147zM195 0q1 83 3.5 191t2.5 143v706q0 195 -6 336h352q237 0 346 4l-27 -159q-96 4 -344 4h-137v-434h147q230 0 316 2v-158q-176 4 -316 4h-147v-485h201q235 0 315 2v-158q-80 2 -309 2h-397z" glyph-name="Egrave" horiz-adv-x="1038" unicode="È"/><glyph d="M748 1778l-205 -291h-148l166 291h187zM195 0q1 83 3.5 191t2.5 143v706q0 195 -6 336h352q237 0 346 4l-27 -159q-96 4 -344 4h-137v-434h147q230 0 316 2v-158q-176 4 -316 4h-147v-485h201q235 0 315 2v-158q-80 2 -309 2h-397z" glyph-name="Eacute" horiz-adv-x="1038" unicode="É"/><glyph d="M250 1470l229 293h80l229 -293h-133l-137 185l-135 -185h-133zM195 0q1 83 3.5 191t2.5 143v706q0 195 -6 336h352q237 0 346 4l-27 -159q-96 4 -344 4h-137v-434h147q230 0 316 2v-158q-176 4 -316 4h-147v-485h201q235 0 315 2v-158q-80 2 -309 2h-397z" glyph-name="Ecircumflex" horiz-adv-x="1038" unicode="Ê"/><glyph d="M223 1645q0 44 32.5 76t76.5 32t77 -32t33 -76q0 -45 -32.5 -77t-77.5 -32t-77 32t-32 77zM606 1645q0 44 32.5 76t76.5 32t77 -32t33 -76q0 -45 -32.5 -77t-77.5 -32t-77 32t-32 77zM195 0q1 83 3.5 191t2.5 143v706q0 195 -6 336h352q237 0 346 4l-27 -159 q-96 4 -344 4h-137v-434h147q230 0 316 2v-158q-176 4 -316 4h-147v-485h201q235 0 315 2v-158q-80 2 -309 2h-397z" glyph-name="Edieresis" horiz-adv-x="1038" unicode="Ë"/><glyph d="M68 1778h186l166 -291h-148zM195 0q6 138 6 336v670q0 217 -6 370h196q-4 -61 -4 -370v-670q0 -238 4 -336h-196z" glyph-name="Igrave" horiz-adv-x="585" unicode="Ì"/><glyph d="M518 1778l-205 -291h-147l166 291h186zM195 0q6 138 6 336v670q0 217 -6 370h196q-4 -61 -4 -370v-670q0 -238 4 -336h-196z" glyph-name="Iacute" horiz-adv-x="585" unicode="Í"/><glyph d="M20 1470l230 293h80l229 -293h-133l-137 185l-135 -185h-134zM195 0q6 138 6 336v670q0 217 -6 370h196q-4 -61 -4 -370v-670q0 -238 4 -336h-196z" glyph-name="Icircumflex" horiz-adv-x="585" unicode="Î"/><glyph d="M-6 1645q0 44 32 76t76 32q45 0 78 -32t33 -76q0 -45 -33 -77t-78 -32q-44 0 -76 32t-32 77zM377 1645q0 44 32 76t76 32q45 0 78 -32t33 -76q0 -45 -33 -77t-78 -32t-76.5 32t-31.5 77zM195 0q6 138 6 336v670q0 217 -6 370h196q-4 -61 -4 -370v-670q0 -238 4 -336h-196 z" glyph-name="Idieresis" horiz-adv-x="585" unicode="Ï"/><glyph d="M596 1376q199 0 360 -85.5t254 -242.5t93 -356q0 -202 -95 -361t-256.5 -245t-359.5 -86h-397q6 147 6 377v244h-170v135h170v299q0 201 -6 321h401zM578 154q241 0 386.5 149.5t145.5 388.5q0 236 -150 384.5t-385 148.5h-190v-469h317v-135h-317v-467h193z" glyph-name="Eth" horiz-adv-x="1419" unicode="Ð"/><glyph d="M479 1513q3 77 49.5 136t124.5 59q44 0 89 -23.5t83 -47t66 -23.5q63 0 70 84h104q-2 -50 -19 -93t-55.5 -73.5t-91.5 -30.5q-45 0 -91 23t-84.5 46t-66.5 23q-57 0 -67 -80h-111zM195 0q6 132 6 289v751q0 168 -6 353h90l872 -1033v672q0 246 -6 344h190 q-8 -106 -8 -334v-761q0 -197 2 -285h-92l-866 1036v-751q0 -158 6 -281h-188z" glyph-name="Ntilde" horiz-adv-x="1536" unicode="Ñ"/><glyph d="M594 1778h186l166 -291h-147zM117 688q0 148 54.5 279.5t147.5 225.5t223 149t277 55q196 0 358 -94t254.5 -257t92.5 -360q0 -200 -93 -362.5t-254 -254.5t-356 -92q-198 0 -359 92t-253 255t-92 364zM309 686q0 -242 144 -399.5t368 -157.5q145 0 261.5 72.5 t181.5 199.5t65 285q0 238 -144.5 397.5t-365.5 159.5q-143 0 -259.5 -71t-183.5 -199t-67 -287z" glyph-name="Ograve" horiz-adv-x="1640" unicode="Ò"/><glyph d="M1044 1778l-204 -291h-148l166 291h186zM117 688q0 148 54.5 279.5t147.5 225.5t223 149t277 55q196 0 358 -94t254.5 -257t92.5 -360q0 -200 -93 -362.5t-254 -254.5t-356 -92q-198 0 -359 92t-253 255t-92 364zM309 686q0 -242 144 -399.5t368 -157.5q145 0 261.5 72.5 t181.5 199.5t65 285q0 238 -144.5 397.5t-365.5 159.5q-143 0 -259.5 -71t-183.5 -199t-67 -287z" glyph-name="Oacute" horiz-adv-x="1640" unicode="Ó"/><glyph d="M547 1470l229 293h80l229 -293h-133l-137 185l-135 -185h-133zM117 688q0 148 54.5 279.5t147.5 225.5t223 149t277 55q196 0 358 -94t254.5 -257t92.5 -360q0 -200 -93 -362.5t-254 -254.5t-356 -92q-198 0 -359 92t-253 255t-92 364zM309 686q0 -242 144 -399.5 t368 -157.5q145 0 261.5 72.5t181.5 199.5t65 285q0 238 -144.5 397.5t-365.5 159.5q-143 0 -259.5 -71t-183.5 -199t-67 -287z" glyph-name="Ocircumflex" horiz-adv-x="1640" unicode="Ô"/><glyph d="M526 1513q3 77 49.5 136t124.5 59q44 0 89 -23.5t83 -47t66 -23.5q63 0 70 84h104q-2 -50 -19 -93t-55.5 -73.5t-91.5 -30.5q-45 0 -90.5 23t-84 46t-66.5 23q-58 0 -68 -80h-111zM117 688q0 148 54.5 279.5t147.5 225.5t223 149t277 55q196 0 358 -94t254.5 -257 t92.5 -360q0 -200 -93 -362.5t-254 -254.5t-356 -92q-198 0 -359 92t-253 255t-92 364zM309 686q0 -242 144 -399.5t368 -157.5q145 0 261.5 72.5t181.5 199.5t65 285q0 238 -144.5 397.5t-365.5 159.5q-143 0 -259.5 -71t-183.5 -199t-67 -287z" glyph-name="Otilde" horiz-adv-x="1640" unicode="Õ"/><glyph d="M520 1645q0 44 32.5 76t76.5 32t77 -32t33 -76q0 -45 -32.5 -77t-77.5 -32t-77 32t-32 77zM903 1645q0 44 32.5 76t76.5 32t77 -32t33 -76q0 -45 -32.5 -77t-77.5 -32t-77 32t-32 77zM117 688q0 148 54.5 279.5t147.5 225.5t223 149t277 55q196 0 358 -94t254.5 -257 t92.5 -360q0 -200 -93 -362.5t-254 -254.5t-356 -92q-198 0 -359 92t-253 255t-92 364zM309 686q0 -242 144 -399.5t368 -157.5q145 0 261.5 72.5t181.5 199.5t65 285q0 238 -144.5 397.5t-365.5 159.5q-143 0 -259.5 -71t-183.5 -199t-67 -287z" glyph-name="Odieresis" horiz-adv-x="1640" unicode="Ö"/><glyph d="M463 520l-326 324l96 96l324 -322l320 320l98 -96l-320 -324l324 -321l-100 -95l-320 322l-319 -320l-99 97z" glyph-name="multiply" horiz-adv-x="1116" unicode="×"/><glyph d="M1341 1188q96 -97 148.5 -226t52.5 -276q0 -200 -92.5 -362.5t-253.5 -254.5t-356 -92q-250 0 -439 146l-122 -141h-162l196 223q-178 197 -178 483q0 198 92.5 360.5t253.5 255.5t357 93q230 0 411 -129l113 127h162zM328 686q0 -203 102 -348l709 805 q-130 100 -301 100q-143 0 -259.5 -71t-183.5 -199t-67 -287zM840 129q145 0 261.5 72.5t181.5 199.5t65 285q0 215 -121 371l-715 -809q138 -119 328 -119z" glyph-name="Oslash" horiz-adv-x="1658" unicode="Ø"/><glyph d="M487 1778h187l166 -291h-148zM369 1376q-7 -110 -7 -346v-500q0 -192 96 -293.5t255 -101.5q163 0 255.5 104t92.5 296v495q0 258 -2 346h190q-2 -100 -2 -348v-500q0 -265 -144 -406.5t-390 -141.5q-251 0 -393 146t-142 402v500q0 168 -4 348h195z" glyph-name="Ugrave" horiz-adv-x="1421" unicode="Ù"/><glyph d="M938 1778l-205 -291h-147l166 291h186zM369 1376q-7 -110 -7 -346v-500q0 -192 96 -293.5t255 -101.5q163 0 255.5 104t92.5 296v495q0 258 -2 346h190q-2 -100 -2 -348v-500q0 -265 -144 -406.5t-390 -141.5q-251 0 -393 146t-142 402v500q0 168 -4 348h195z" glyph-name="Uacute" horiz-adv-x="1421" unicode="Ú"/><glyph d="M440 1470l230 293h80l229 -293h-133l-137 185l-136 -185h-133zM369 1376q-7 -110 -7 -346v-500q0 -192 96 -293.5t255 -101.5q163 0 255.5 104t92.5 296v495q0 258 -2 346h190q-2 -100 -2 -348v-500q0 -265 -144 -406.5t-390 -141.5q-251 0 -393 146t-142 402v500 q0 168 -4 348h195z" glyph-name="Ucircumflex" horiz-adv-x="1421" unicode="Û"/><glyph d="M414 1645q0 44 32 76t76 32q45 0 78 -32t33 -76q0 -45 -33 -77t-78 -32q-44 0 -76 32t-32 77zM797 1645q0 44 32 76t76 32q45 0 78 -32t33 -76q0 -45 -33 -77t-78 -32t-76.5 32t-31.5 77zM369 1376q-7 -110 -7 -346v-500q0 -192 96 -293.5t255 -101.5q163 0 255.5 104 t92.5 296v495q0 258 -2 346h190q-2 -100 -2 -348v-500q0 -265 -144 -406.5t-390 -141.5q-251 0 -393 146t-142 402v500q0 168 -4 348h195z" glyph-name="Udieresis" horiz-adv-x="1421" unicode="Ü"/><glyph d="M842 1778l-205 -291h-148l166 291h187zM520 0q6 282 6 324v272l-325 530q-124 196 -160 250h219q11 -24 24 -49t22 -41.5t26 -46t26 -45.5l267 -440l256 434q17 29 58 102.5t48 85.5h207q-13 -23 -70 -111t-88 -139l-325 -530v-274q0 -184 6 -322h-197z" glyph-name="Yacute" horiz-adv-x="1234" unicode="Ý"/><glyph d="M991 698q0 -135 -67.5 -232t-178 -143.5t-251.5 -46.5h-109v-69q0 -148 2 -207h-192q6 126 6 319v709q0 225 -6 348h192q-2 -61 -2 -190v-58h121q135 0 243 -46.5t175 -145.5t67 -238zM805 702q0 129 -87 206t-222 77h-111v-569h109q133 0 222 78t89 208z" glyph-name="Thorn" horiz-adv-x="1083" unicode="Þ"/><glyph d="M547 795q16 -2 45 -2q137 0 209.5 70t72.5 194q0 122 -64 187t-179 65q-118 0 -185.5 -74t-66.5 -221v-809q0 -152 4 -209h-184q4 63 4 207v796q0 218 118 340.5t308 122.5q199 0 312.5 -108.5t113.5 -280.5q0 -120 -70 -214.5t-172 -119.5q160 -30 255 -134.5t95 -256.5 q0 -89 -32.5 -160.5t-88 -117t-127 -69.5t-151.5 -24q-116 0 -221 43v166q85 -55 209 -55q100 0 162.5 61t62.5 158q0 131 -104 222.5t-259 91.5q-42 0 -67 -5v136z" glyph-name="germandbls" horiz-adv-x="1265" unicode="ß"/><glyph d="M262 1389h187l165 -291h-147zM96 274q0 139 103 217t284 89q168 8 234 8v41q0 95 -69.5 148.5t-172.5 53.5q-140 0 -258 -69l-57 123q141 86 338 86q176 0 283.5 -98t107.5 -271v-301q0 -179 33 -301h-181l-12 111q-131 -131 -315 -131q-134 0 -226 81.5t-92 212.5z M276 276q0 -75 45 -119t121 -44q74 0 148.5 31t126.5 85v232l-193 -6q-124 -5 -186 -46t-62 -133z" glyph-name="agrave" unicode="à"/><glyph d="M713 1389l-205 -291h-148l166 291h187zM96 274q0 139 103 217t284 89q168 8 234 8v41q0 95 -69.5 148.5t-172.5 53.5q-140 0 -258 -69l-57 123q141 86 338 86q176 0 283.5 -98t107.5 -271v-301q0 -179 33 -301h-181l-12 111q-131 -131 -315 -131q-134 0 -226 81.5 t-92 212.5zM276 276q0 -75 45 -119t121 -44q74 0 148.5 31t126.5 85v232l-193 -6q-124 -5 -186 -46t-62 -133z" glyph-name="aacute" unicode="á"/><glyph d="M215 1081l229 293h80l230 -293h-133l-138 185l-135 -185h-133zM96 274q0 139 103 217t284 89q168 8 234 8v41q0 95 -69.5 148.5t-172.5 53.5q-140 0 -258 -69l-57 123q141 86 338 86q176 0 283.5 -98t107.5 -271v-301q0 -179 33 -301h-181l-12 111q-131 -131 -315 -131 q-134 0 -226 81.5t-92 212.5zM276 276q0 -75 45 -119t121 -44q74 0 148.5 31t126.5 85v232l-193 -6q-124 -5 -186 -46t-62 -133z" glyph-name="acircumflex" unicode="â"/><glyph d="M195 1124q3 77 49.5 136t124.5 59q44 0 88.5 -23.5t82.5 -47t66 -23.5q63 0 70 84h104q-2 -50 -19 -93t-55.5 -73.5t-91.5 -30.5q-45 0 -90.5 23t-84 46t-66.5 23q-58 0 -68 -80h-110zM96 274q0 139 103 217t284 89q168 8 234 8v41q0 95 -69.5 148.5t-172.5 53.5 q-140 0 -258 -69l-57 123q141 86 338 86q176 0 283.5 -98t107.5 -271v-301q0 -179 33 -301h-181l-12 111q-131 -131 -315 -131q-134 0 -226 81.5t-92 212.5zM276 276q0 -75 45 -119t121 -44q74 0 148.5 31t126.5 85v232l-193 -6q-124 -5 -186 -46t-62 -133z" glyph-name="atilde" unicode="ã"/><glyph d="M188 1255q0 44 32.5 76.5t76.5 32.5t77.5 -32.5t33.5 -76.5q0 -45 -33 -76.5t-78 -31.5t-77 31.5t-32 76.5zM571 1255q0 44 32.5 76.5t76.5 32.5t77.5 -32.5t33.5 -76.5q0 -45 -33 -76.5t-78 -31.5t-77 31.5t-32 76.5zM96 274q0 139 103 217t284 89q168 8 234 8v41 q0 95 -69.5 148.5t-172.5 53.5q-140 0 -258 -69l-57 123q141 86 338 86q176 0 283.5 -98t107.5 -271v-301q0 -179 33 -301h-181l-12 111q-131 -131 -315 -131q-134 0 -226 81.5t-92 212.5zM276 276q0 -75 45 -119t121 -44q74 0 148.5 31t126.5 85v232l-193 -6 q-124 -5 -186 -46t-62 -133z" glyph-name="adieresis" unicode="ä"/><glyph d="M295 1243q0 77 54.5 126.5t137.5 49.5q82 0 137.5 -50t55.5 -126q0 -73 -55 -124.5t-138 -51.5q-82 0 -137 50.5t-55 125.5zM391 1245q0 -41 26 -73.5t70 -32.5t71.5 29t27.5 75q0 44 -27.5 73.5t-71.5 29.5q-41 0 -68.5 -28t-27.5 -73zM96 274q0 139 103 217t284 89 q168 8 234 8v41q0 95 -69.5 148.5t-172.5 53.5q-140 0 -258 -69l-57 123q141 86 338 86q176 0 283.5 -98t107.5 -271v-301q0 -179 33 -301h-181l-12 111q-131 -131 -315 -131q-134 0 -226 81.5t-92 212.5zM276 276q0 -75 45 -119t121 -44q74 0 148.5 31t126.5 85v232 l-193 -6q-124 -5 -186 -46t-62 -133z" glyph-name="aring" unicode="å"/><glyph d="M96 274q0 284 387 306q168 8 234 8v41q0 95 -69.5 148.5t-172.5 53.5q-140 0 -258 -69l-57 119q136 90 338 90q233 0 315 -162q119 162 340 162q113 0 199 -38.5t134 -102.5t71.5 -138t23.5 -155q0 -55 -4 -91h-692q15 -315 323 -315q147 0 320 94v-143 q-137 -96 -330 -96q-133 0 -236.5 47.5t-164.5 138.5q-149 -192 -381 -192q-136 0 -228 81.5t-92 212.5zM883 565h528q-7 266 -256 266q-68 0 -121 -23.5t-84.5 -62.5t-48 -84.5t-18.5 -95.5zM276 276q0 -75 45 -119t121 -44q173 0 310 151q-37 92 -37 197l-191 -6 q-124 -5 -186 -46t-62 -133z" glyph-name="ae" horiz-adv-x="1673" unicode="æ"/><glyph d="M903 51q-83 -58 -246 -67l-34 -70q77 -14 119 -58.5t42 -111.5q0 -81 -58.5 -131.5t-162.5 -50.5q-74 0 -129 22l10 90q58 -18 103 -18q51 0 81.5 23.5t30.5 64.5q0 90 -139 90q-23 0 -33 -2l74 156q-204 20 -330.5 153.5t-126.5 327.5q0 215 147.5 357.5t375.5 142.5 q143 0 274 -62v-170q-109 78 -258 78q-166 0 -262 -97t-96 -249t94 -242t266 -90q74 0 142 24.5t116 57.5v-168z" glyph-name="ccedilla" horiz-adv-x="1044" unicode="ç"/><glyph d="M332 1389h186l166 -291h-147zM104 485q0 129 53 239t157 178.5t237 68.5q113 0 199 -38.5t134 -102.5t71.5 -138t23.5 -155q0 -64 -6 -91h-690q15 -315 323 -315q147 0 320 94v-143q-57 -41 -142 -68.5t-186 -27.5q-224 0 -359 130.5t-135 368.5zM553 831 q-55 0 -100.5 -15.5t-75.5 -41.5t-51.5 -61t-31.5 -71.5t-13 -76.5h528q-2 123 -63 194.5t-193 71.5z" glyph-name="egrave" unicode="è"/><glyph d="M782 1389l-204 -291h-148l166 291h186zM104 485q0 129 53 239t157 178.5t237 68.5q113 0 199 -38.5t134 -102.5t71.5 -138t23.5 -155q0 -64 -6 -91h-690q15 -315 323 -315q147 0 320 94v-143q-57 -41 -142 -68.5t-186 -27.5q-224 0 -359 130.5t-135 368.5zM553 831 q-55 0 -100.5 -15.5t-75.5 -41.5t-51.5 -61t-31.5 -71.5t-13 -76.5h528q-2 123 -63 194.5t-193 71.5z" glyph-name="eacute" unicode="é"/><glyph d="M285 1081l229 293h80l229 -293h-133l-137 185l-135 -185h-133zM104 485q0 129 53 239t157 178.5t237 68.5q113 0 199 -38.5t134 -102.5t71.5 -138t23.5 -155q0 -64 -6 -91h-690q15 -315 323 -315q147 0 320 94v-143q-57 -41 -142 -68.5t-186 -27.5q-224 0 -359 130.5 t-135 368.5zM553 831q-55 0 -100.5 -15.5t-75.5 -41.5t-51.5 -61t-31.5 -71.5t-13 -76.5h528q-2 123 -63 194.5t-193 71.5z" glyph-name="ecircumflex" unicode="ê"/><glyph d="M258 1255q0 44 32.5 76.5t76.5 32.5t77 -32.5t33 -76.5q0 -45 -32.5 -76.5t-77.5 -31.5t-77 31.5t-32 76.5zM641 1255q0 44 32.5 76.5t76.5 32.5t77 -32.5t33 -76.5q0 -45 -32.5 -76.5t-77.5 -31.5t-77 31.5t-32 76.5zM104 485q0 129 53 239t157 178.5t237 68.5 q113 0 199 -38.5t134 -102.5t71.5 -138t23.5 -155q0 -64 -6 -91h-690q15 -315 323 -315q147 0 320 94v-143q-57 -41 -142 -68.5t-186 -27.5q-224 0 -359 130.5t-135 368.5zM553 831q-55 0 -100.5 -15.5t-75.5 -41.5t-51.5 -61t-31.5 -71.5t-13 -76.5h528q-2 123 -63 194.5 t-193 71.5z" glyph-name="edieresis" unicode="ë"/><glyph d="M70 1389h186l166 -291h-148zM199 0q6 47 6 201v542q0 156 -6 205h188q-6 -49 -6 -203v-544q0 -158 6 -201h-188z" glyph-name="igrave" horiz-adv-x="583" unicode="ì"/><glyph d="M520 1389l-205 -291h-147l166 291h186zM199 0q6 47 6 201v542q0 156 -6 205h188q-6 -49 -6 -203v-544q0 -158 6 -201h-188z" glyph-name="iacute" horiz-adv-x="583" unicode="í"/><glyph d="M23 1081l229 293h80l229 -293h-133l-137 185l-135 -185h-133zM199 0q6 47 6 201v542q0 156 -6 205h188q-6 -49 -6 -203v-544q0 -158 6 -201h-188z" glyph-name="icircumflex" horiz-adv-x="583" unicode="î"/><glyph d="M-4 1255q0 44 32 76.5t76 32.5t77.5 -32.5t33.5 -76.5q0 -45 -33 -76.5t-78 -31.5t-76.5 31.5t-31.5 76.5zM379 1255q0 44 32 76.5t76 32.5t77.5 -32.5t33.5 -76.5q0 -45 -33 -76.5t-78 -31.5t-76.5 31.5t-31.5 76.5zM199 0q6 47 6 201v542q0 156 -6 205h188 q-6 -49 -6 -203v-544q0 -158 6 -201h-188z" glyph-name="idieresis" horiz-adv-x="583" unicode="ï"/><glyph d="M776 1272q277 -244 277 -701q0 -271 -133 -429t-347 -158q-201 0 -335 139t-134 346q0 202 127 337.5t316 135.5q103 0 190.5 -43t132.5 -106q-43 255 -239 403l-250 -131l-43 74l211 110q-134 75 -303 99l18 135q256 -34 436 -154l215 113l46 -74zM578 131 q130 0 211 101.5t81 250.5q0 141 -80.5 231.5t-211.5 90.5q-126 0 -209.5 -95t-83.5 -241q0 -144 82 -241t211 -97z" glyph-name="eth" horiz-adv-x="1157" unicode="ð"/><glyph d="M319 1124q3 77 50 136t125 59q44 0 88.5 -23.5t82.5 -47t66 -23.5q63 0 70 84h104q-2 -50 -19 -93t-55.5 -73.5t-91.5 -30.5q-45 0 -90.5 23t-84 46t-66.5 23q-58 0 -68 -80h-111zM80 838l43 110h203l10 -139q111 156 336 156q164 0 260 -103t96 -303v-336q0 -162 4 -223 h-182q4 82 4 231v347q0 121 -67 180t-175 59q-86 0 -158.5 -48t-117.5 -130v-408q0 -161 4 -231h-182q4 148 4 231v607h-82z" glyph-name="ntilde" horiz-adv-x="1175" unicode="ñ"/><glyph d="M344 1389h186l166 -291h-147zM104 471q0 136 62.5 250t171 180t237.5 66q131 0 240.5 -67t171.5 -181t62 -248q0 -205 -137 -346t-337 -141q-132 0 -240 65t-169.5 177t-61.5 245zM281 471q0 -142 83.5 -241t210.5 -99q131 0 213 98t82 242q0 149 -83.5 245.5 t-211.5 96.5q-87 0 -156 -53t-103.5 -130.5t-34.5 -158.5z" glyph-name="ograve" horiz-adv-x="1150" unicode="ò"/><glyph d="M795 1389l-205 -291h-148l166 291h187zM104 471q0 136 62.5 250t171 180t237.5 66q131 0 240.5 -67t171.5 -181t62 -248q0 -205 -137 -346t-337 -141q-132 0 -240 65t-169.5 177t-61.5 245zM281 471q0 -142 83.5 -241t210.5 -99q131 0 213 98t82 242q0 149 -83.5 245.5 t-211.5 96.5q-87 0 -156 -53t-103.5 -130.5t-34.5 -158.5z" glyph-name="oacute" horiz-adv-x="1150" unicode="ó"/><glyph d="M297 1081l229 293h80l230 -293h-134l-137 185l-135 -185h-133zM104 471q0 136 62.5 250t171 180t237.5 66q131 0 240.5 -67t171.5 -181t62 -248q0 -205 -137 -346t-337 -141q-132 0 -240 65t-169.5 177t-61.5 245zM281 471q0 -142 83.5 -241t210.5 -99q131 0 213 98 t82 242q0 149 -83.5 245.5t-211.5 96.5q-87 0 -156 -53t-103.5 -130.5t-34.5 -158.5z" glyph-name="ocircumflex" horiz-adv-x="1150" unicode="ô"/><glyph d="M276 1124q3 77 50 136t125 59q44 0 88.5 -23.5t82.5 -47t66 -23.5q63 0 70 84h104q-2 -50 -19 -93t-55.5 -73.5t-91.5 -30.5q-45 0 -90.5 23t-84 46t-66.5 23q-58 0 -68 -80h-111zM104 471q0 136 62.5 250t171 180t237.5 66q131 0 240.5 -67t171.5 -181t62 -248 q0 -205 -137 -346t-337 -141q-132 0 -240 65t-169.5 177t-61.5 245zM281 471q0 -142 83.5 -241t210.5 -99q131 0 213 98t82 242q0 149 -83.5 245.5t-211.5 96.5q-87 0 -156 -53t-103.5 -130.5t-34.5 -158.5z" glyph-name="otilde" horiz-adv-x="1150" unicode="õ"/><glyph d="M270 1255q0 44 32.5 76.5t76.5 32.5t77 -32.5t33 -76.5q0 -45 -32.5 -76.5t-77.5 -31.5t-77 31.5t-32 76.5zM653 1255q0 44 32.5 76.5t76.5 32.5t77 -32.5t33 -76.5q0 -45 -32.5 -76.5t-77.5 -31.5t-77 31.5t-32 76.5zM104 471q0 136 62.5 250t171 180t237.5 66 q131 0 240.5 -67t171.5 -181t62 -248q0 -205 -137 -346t-337 -141q-132 0 -240 65t-169.5 177t-61.5 245zM281 471q0 -142 83.5 -241t210.5 -99q131 0 213 98t82 242q0 149 -83.5 245.5t-211.5 96.5q-87 0 -156 -53t-103.5 -130.5t-34.5 -158.5z" glyph-name="odieresis" horiz-adv-x="1150" unicode="ö"/><glyph d="M440 874q0 46 31.5 77.5t75.5 31.5q45 0 77.5 -32t32.5 -77t-32.5 -77.5t-77.5 -32.5q-43 0 -75 32.5t-32 77.5zM991 610v-141h-887v141h887zM440 207q0 47 31.5 79.5t75.5 32.5q45 0 77.5 -32.5t32.5 -79.5q0 -43 -33 -76t-77 -33q-43 0 -75 33t-32 76z" glyph-name="divide" horiz-adv-x="1095" unicode="÷"/><glyph d="M930 827q67 -68 104 -160.5t37 -195.5q0 -205 -136.5 -346t-336.5 -141q-174 0 -305 112l-98 -114h-91l142 161q-119 138 -119 328q0 136 62.5 250t171 180t237.5 66q155 0 281 -95l79 91h89zM303 471q0 -111 53 -199l418 480q-77 61 -176 61q-87 0 -156 -53t-104 -130.5 t-35 -158.5zM598 131q131 0 213 98t82 242q0 137 -72 231l-422 -485q83 -86 199 -86z" glyph-name="oslash" horiz-adv-x="1173" unicode="ø"/><glyph d="M305 1389h187l165 -291h-147zM80 838l45 110h221q-6 -49 -6 -213v-327q0 -279 211 -279q72 0 135.5 47.5t99.5 132.5v410q0 157 -4 229h185q-4 -68 -4 -223v-532q0 -130 16 -193h-152l-32 127q-97 -143 -285 -143q-346 0 -346 409v445h-84z" glyph-name="ugrave" horiz-adv-x="1173" unicode="ù"/><glyph d="M756 1389l-205 -291h-148l166 291h187zM80 838l45 110h221q-6 -49 -6 -213v-327q0 -279 211 -279q72 0 135.5 47.5t99.5 132.5v410q0 157 -4 229h185q-4 -68 -4 -223v-532q0 -130 16 -193h-152l-32 127q-97 -143 -285 -143q-346 0 -346 409v445h-84z" glyph-name="uacute" horiz-adv-x="1173" unicode="ú"/><glyph d="M258 1081l229 293h80l230 -293h-133l-138 185l-135 -185h-133zM80 838l45 110h221q-6 -49 -6 -213v-327q0 -279 211 -279q72 0 135.5 47.5t99.5 132.5v410q0 157 -4 229h185q-4 -68 -4 -223v-532q0 -130 16 -193h-152l-32 127q-97 -143 -285 -143q-346 0 -346 409v445 h-84z" glyph-name="ucircumflex" horiz-adv-x="1173" unicode="û"/><glyph d="M231 1255q0 44 32.5 76.5t76.5 32.5t77.5 -32.5t33.5 -76.5q0 -45 -33 -76.5t-78 -31.5t-77 31.5t-32 76.5zM614 1255q0 44 32.5 76.5t76.5 32.5t77.5 -32.5t33.5 -76.5q0 -45 -33 -76.5t-78 -31.5t-77 31.5t-32 76.5zM80 838l45 110h221q-6 -49 -6 -213v-327 q0 -279 211 -279q72 0 135.5 47.5t99.5 132.5v410q0 157 -4 229h185q-4 -68 -4 -223v-532q0 -130 16 -193h-152l-32 127q-97 -143 -285 -143q-346 0 -346 409v445h-84z" glyph-name="udieresis" horiz-adv-x="1173" unicode="ü"/><glyph d="M737 1389l-205 -291h-147l166 291h186zM37 948h207q13 -31 35 -91.5t32 -86.5l215 -555l217 545q30 75 64 188h194q-18 -38 -49 -111t-41 -96l-385 -884q-59 -140 -137 -199t-196 -59h-89l15 131q114 0 160.5 28t91.5 125l71 150l-292 663q-65 155 -113 252z" glyph-name="yacute" horiz-adv-x="1038" unicode="ý"/><glyph d="M1149 483q0 -221 -137 -357t-350 -136q-142 0 -285 88v-373q0 -12 6 -201h-184q4 136 4 205v1571q0 129 -4 199h184q-1 -22 -2.5 -61t-2.5 -72t-1 -64v-424q115 115 293 115q212 0 345.5 -138.5t133.5 -351.5zM971 481q0 154 -87.5 248t-236.5 94q-154 0 -270 -112v-465 q111 -105 266 -105q153 0 240.5 93t87.5 247z" glyph-name="thorn" horiz-adv-x="1251" unicode="þ"/><glyph d="M213 1255q0 44 32.5 76.5t76.5 32.5t77 -32.5t33 -76.5q0 -45 -32.5 -76.5t-77.5 -31.5t-77 31.5t-32 76.5zM596 1255q0 44 32.5 76.5t76.5 32.5t77 -32.5t33 -76.5q0 -45 -32.5 -76.5t-77.5 -31.5t-77 31.5t-32 76.5zM37 948h207q13 -31 35 -91.5t32 -86.5l215 -555 l217 545q30 75 64 188h194q-18 -38 -49 -111t-41 -96l-385 -884q-59 -140 -137 -199t-196 -59h-89l15 131q114 0 160.5 28t91.5 125l71 150l-292 663q-65 155 -113 252z" glyph-name="ydieresis" horiz-adv-x="1038" unicode="ÿ"/><glyph d="M403 1554v123h525v-123h-525zM43 0q19 40 39.5 86t34 78t36 87t35.5 85l441 1057h73l472 -1108q52 -119 137 -285h-217l-156 387h-555l-150 -387h-190zM436 526h447l-224 576z" glyph-name="Amacron" horiz-adv-x="1351" unicode="Ā"/><glyph d="M225 1165v123h525v-123h-525zM96 274q0 139 103 217t284 89q168 8 234 8v41q0 95 -69.5 148.5t-172.5 53.5q-140 0 -258 -69l-57 123q141 86 338 86q176 0 283.5 -98t107.5 -271v-301q0 -179 33 -301h-181l-12 111q-131 -131 -315 -131q-134 0 -226 81.5t-92 212.5z M276 276q0 -75 45 -119t121 -44q74 0 148.5 31t126.5 85v232l-193 -6q-124 -5 -186 -46t-62 -133z" glyph-name="amacron" unicode="ā"/><glyph d="M520 1735q6 -61 46.5 -96t99.5 -35q56 0 96 37t51 94h117q-7 -108 -81 -175t-183 -67q-105 0 -179 70t-86 172h119zM43 0q19 40 39.5 86t34 78t36 87t35.5 85l441 1057h73l472 -1108q52 -119 137 -285h-217l-156 387h-555l-150 -387h-190zM436 526h447l-224 576z" glyph-name="Abreve" horiz-adv-x="1351" unicode="Ă"/><glyph d="M342 1346q6 -61 46 -96.5t99 -35.5q56 0 96.5 37.5t51.5 94.5h117q-7 -108 -81.5 -175t-183.5 -67q-105 0 -178.5 70t-85.5 172h119zM96 274q0 139 103 217t284 89q168 8 234 8v41q0 95 -69.5 148.5t-172.5 53.5q-140 0 -258 -69l-57 123q141 86 338 86q176 0 283.5 -98 t107.5 -271v-301q0 -179 33 -301h-181l-12 111q-131 -131 -315 -131q-134 0 -226 81.5t-92 212.5zM276 276q0 -75 45 -119t121 -44q74 0 148.5 31t126.5 85v232l-193 -6q-124 -5 -186 -46t-62 -133z" glyph-name="abreve" unicode="ă"/><glyph d="M1309 0q-106 -65 -160.5 -136t-54.5 -138q0 -52 28.5 -80.5t79.5 -28.5q46 0 94 23l13 -105q-65 -33 -158 -33q-91 0 -151 52.5t-60 138.5q0 161 197 307h-43l-156 387h-555l-150 -387h-190q19 40 39.5 86t34 78t36 87t35.5 85l441 1057h73l472 -1108q52 -119 137 -285 h-2zM436 526h447l-224 576z" glyph-name="Aogonek" horiz-adv-x="1351" unicode="Ą"/><glyph d="M817 -383q46 0 94 23l13 -105q-65 -33 -158 -33q-91 0 -151 52.5t-60 138.5q0 161 197 307h-11l-12 111q-131 -131 -315 -131q-134 0 -226 81.5t-92 212.5q0 139 103 217t284 89q168 8 234 8v41q0 95 -69.5 148.5t-172.5 53.5q-140 0 -258 -69l-57 123q141 86 338 86 q176 0 283.5 -98t107.5 -271v-301q0 -177 33 -299l2 -2q-106 -65 -160.5 -136t-54.5 -138q0 -52 28.5 -80.5t79.5 -28.5zM717 229v232l-193 -6q-124 -5 -186 -46t-62 -133q0 -75 45 -119t121 -44q74 0 148.5 31t126.5 85z" glyph-name="aogonek" unicode="ą"/><glyph d="M973 1778l-205 -291h-147l165 291h187zM117 682q0 146 54 277.5t148 228t229 153t288 56.5q176 0 344 -62v-184q-138 86 -332 86q-156 0 -280.5 -73.5t-192.5 -199t-68 -278.5q0 -154 69 -280t192 -198.5t276 -72.5q82 0 174.5 25t165.5 61v-180q-160 -61 -361 -61 q-202 0 -363.5 90t-252 250.5t-90.5 361.5z" glyph-name="Cacute" horiz-adv-x="1302" unicode="Ć"/><glyph d="M813 1389l-205 -291h-147l166 291h186zM104 469q0 215 147.5 357.5t375.5 142.5q143 0 274 -62v-170q-109 78 -258 78q-166 0 -262 -97t-96 -249t94 -242t266 -90q74 0 142 24.5t116 57.5v-168q-42 -29 -114.5 -48t-159.5 -19q-231 0 -378 137.5t-147 347.5z" glyph-name="cacute" horiz-adv-x="1044" unicode="ć"/><glyph d="M639 1647q0 44 32.5 76t76.5 32t77 -32t33 -76q0 -45 -32.5 -77t-77.5 -32t-77 32t-32 77zM117 682q0 146 54 277.5t148 228t229 153t288 56.5q176 0 344 -62v-184q-138 86 -332 86q-156 0 -280.5 -73.5t-192.5 -199t-68 -278.5q0 -154 69 -280t192 -198.5t276 -72.5 q82 0 174.5 25t165.5 61v-180q-160 -61 -361 -61q-202 0 -363.5 90t-252 250.5t-90.5 361.5z" glyph-name="Cdotaccent" horiz-adv-x="1302" unicode="Ċ"/><glyph d="M479 1257q0 44 32.5 76.5t76.5 32.5t77 -32.5t33 -76.5q0 -45 -32.5 -76.5t-77.5 -31.5t-77 31.5t-32 76.5zM104 469q0 215 147.5 357.5t375.5 142.5q143 0 274 -62v-170q-109 78 -258 78q-166 0 -262 -97t-96 -249t94 -242t266 -90q74 0 142 24.5t116 57.5v-168 q-42 -29 -114.5 -48t-159.5 -19q-231 0 -378 137.5t-147 347.5z" glyph-name="cdotaccent" horiz-adv-x="1044" unicode="ċ"/><glyph d="M1016 1763l-230 -293h-79l-230 293h133l138 -184l135 184h133zM117 682q0 146 54 277.5t148 228t229 153t288 56.5q176 0 344 -62v-184q-138 86 -332 86q-156 0 -280.5 -73.5t-192.5 -199t-68 -278.5q0 -154 69 -280t192 -198.5t276 -72.5q82 0 174.5 25t165.5 61v-180 q-160 -61 -361 -61q-202 0 -363.5 90t-252 250.5t-90.5 361.5z" glyph-name="Ccaron" horiz-adv-x="1302" unicode="Č"/><glyph d="M856 1374l-229 -293h-80l-230 293h134l137 -184l135 184h133zM104 469q0 215 147.5 357.5t375.5 142.5q143 0 274 -62v-170q-109 78 -258 78q-166 0 -262 -97t-96 -249t94 -242t266 -90q74 0 142 24.5t116 57.5v-168q-42 -29 -114.5 -48t-159.5 -19q-231 0 -378 137.5 t-147 347.5z" glyph-name="ccaron" horiz-adv-x="1044" unicode="č"/><glyph d="M887 1763l-230 -293h-79l-230 293h133l137 -184l136 184h133zM195 0q6 147 6 377v678q0 201 -6 321h401q199 0 360 -85.5t254 -242.5t93 -356q0 -202 -95 -361t-256.5 -245t-359.5 -86h-397zM385 154h193q241 0 386.5 149.5t145.5 388.5q0 236 -150 384.5t-385 148.5 h-190v-1071z" glyph-name="Dcaron" horiz-adv-x="1419" unicode="Ď"/><glyph d="M1251 1120h-127l37 355h160zM104 483q0 220 135.5 354t350.5 134q80 0 159.5 -27t124.5 -65v460h-108l51 109h238q-6 -80 -6 -186v-1026q0 -36 1 -119t1 -117h-88l-68 98q-58 -48 -143 -78t-174 -30q-212 0 -343 139.5t-131 353.5zM283 479q0 -154 83 -247t232 -93 q76 0 153 28.5t123 72.5l3 477q-52 48 -122.5 76t-146.5 28q-152 0 -238.5 -93.5t-86.5 -248.5z" glyph-name="dcaron" horiz-adv-x="1251" unicode="ď"/><glyph d="M596 1376q199 0 360 -85.5t254 -242.5t93 -356q0 -202 -95 -361t-256.5 -245t-359.5 -86h-397q6 147 6 377v244h-170v135h170v299q0 201 -6 321h401zM578 154q241 0 386.5 149.5t145.5 388.5q0 236 -150 384.5t-385 148.5h-190v-469h317v-135h-317v-467h193z" glyph-name="Dcroat" horiz-adv-x="1419" unicode="Đ"/><glyph d="M1145 1153h-96v-917q0 -36 1 -119t1 -117h-88l-68 98q-58 -48 -143 -78t-174 -30q-212 0 -343 139.5t-131 353.5q0 220 135.5 354t350.5 134q80 0 159.5 -27t124.5 -65v274h-270v104h270v82h-108l51 109h238q-6 -80 -6 -186v-5h96v-104zM874 240l3 477q-52 48 -122.5 76 t-146.5 28q-152 0 -238.5 -93.5t-86.5 -248.5q0 -154 83 -247t232 -93q76 0 153 28.5t123 72.5z" glyph-name="dslash" horiz-adv-x="1251" unicode="đ"/><glyph d="M260 1554v123h524v-123h-524zM195 0q1 83 3.5 191t2.5 143v706q0 195 -6 336h352q237 0 346 4l-27 -159q-96 4 -344 4h-137v-434h147q230 0 316 2v-158q-176 4 -316 4h-147v-485h201q235 0 315 2v-158q-80 2 -309 2h-397z" glyph-name="Emacron" horiz-adv-x="1038" unicode="Ē"/><glyph d="M295 1165v123h524v-123h-524zM104 485q0 129 53 239t157 178.5t237 68.5q113 0 199 -38.5t134 -102.5t71.5 -138t23.5 -155q0 -64 -6 -91h-690q15 -315 323 -315q147 0 320 94v-143q-57 -41 -142 -68.5t-186 -27.5q-224 0 -359 130.5t-135 368.5zM553 831 q-55 0 -100.5 -15.5t-75.5 -41.5t-51.5 -61t-31.5 -71.5t-13 -76.5h528q-2 123 -63 194.5t-193 71.5z" glyph-name="emacron" unicode="ē"/><glyph d="M414 1647q0 44 32 76t76 32q45 0 78 -32t33 -76q0 -45 -33 -77t-78 -32q-44 0 -76 32t-32 77zM195 0q1 83 3.5 191t2.5 143v706q0 195 -6 336h352q237 0 346 4l-27 -159q-96 4 -344 4h-137v-434h147q230 0 316 2v-158q-176 4 -316 4h-147v-485h201q235 0 315 2v-158 q-80 2 -309 2h-397z" glyph-name="Edotaccent" horiz-adv-x="1038" unicode="Ė"/><glyph d="M449 1257q0 44 32 76.5t76 32.5t77.5 -32.5t33.5 -76.5q0 -45 -33 -76.5t-78 -31.5t-76.5 31.5t-31.5 76.5zM104 485q0 129 53 239t157 178.5t237 68.5q113 0 199 -38.5t134 -102.5t71.5 -138t23.5 -155q0 -64 -6 -91h-690q15 -315 323 -315q147 0 320 94v-143 q-57 -41 -142 -68.5t-186 -27.5q-224 0 -359 130.5t-135 368.5zM553 831q-55 0 -100.5 -15.5t-75.5 -41.5t-51.5 -61t-31.5 -71.5t-13 -76.5h528q-2 123 -63 194.5t-193 71.5z" glyph-name="edotaccent" unicode="ė"/><glyph d="M797 -383q46 0 94 23l12 -105q-65 -33 -158 -33q-91 0 -150.5 52.5t-59.5 138.5q0 162 196 307h-139h-397q1 83 3.5 191t2.5 143v706q0 195 -6 336h352q237 0 346 4l-27 -159q-96 4 -344 4h-137v-434h147q230 0 316 2v-158q-176 4 -316 4h-147v-485h201q235 0 315 2v-154 l2 -2q-2 0 -2 -2h-2q-211 -132 -211 -272q0 -52 29 -80.5t80 -28.5z" glyph-name="Eogonek" horiz-adv-x="1038" unicode="Ę"/><glyph d="M979 537q0 -64 -6 -91h-690q15 -315 323 -315q147 0 320 94v-143q-26 -20 -68 -39q-87 -80 -128.5 -163.5t-41.5 -151.5q0 -52 30 -81.5t81 -29.5q44 0 92 23l12 -105q-65 -33 -158 -33q-91 0 -150.5 52.5t-59.5 140.5q0 145 122 293q-18 -2 -59 -2q-224 0 -359 130.5 t-135 368.5q0 129 53 239t157 178.5t237 68.5q113 0 199 -38.5t134 -102.5t71.5 -138t23.5 -155zM281 565h528q-2 123 -63 194.5t-193 71.5q-55 0 -100.5 -15.5t-75.5 -41.5t-51.5 -61t-31.5 -71.5t-13 -76.5z" glyph-name="eogonek" unicode="ę"/><glyph d="M791 1763l-230 -293h-80l-229 293h133l137 -184l135 184h134zM195 0q1 83 3.5 191t2.5 143v706q0 195 -6 336h352q237 0 346 4l-27 -159q-96 4 -344 4h-137v-434h147q230 0 316 2v-158q-176 4 -316 4h-147v-485h201q235 0 315 2v-158q-80 2 -309 2h-397z" glyph-name="Ecaron" horiz-adv-x="1038" unicode="Ě"/><glyph d="M825 1374l-229 -293h-80l-229 293h133l137 -184l135 184h133zM104 485q0 129 53 239t157 178.5t237 68.5q113 0 199 -38.5t134 -102.5t71.5 -138t23.5 -155q0 -64 -6 -91h-690q15 -315 323 -315q147 0 320 94v-143q-57 -41 -142 -68.5t-186 -27.5q-224 0 -359 130.5 t-135 368.5zM553 831q-55 0 -100.5 -15.5t-75.5 -41.5t-51.5 -61t-31.5 -71.5t-13 -76.5h528q-2 123 -63 194.5t-193 71.5z" glyph-name="ecaron" unicode="ě"/><glyph d="M627 1735q6 -61 46 -96t99 -35q56 0 96.5 37t51.5 94h116q-7 -108 -81 -175t-183 -67q-105 0 -178.5 70t-85.5 172h119zM117 680q0 200 88.5 362t258 258.5t390.5 96.5q185 0 354 -62v-180q-148 84 -344 84q-250 0 -402.5 -155.5t-152.5 -397.5q0 -151 63.5 -276 t187.5 -202t286 -77q123 0 221 43v213q0 172 -4 256h190q-4 -200 -4 -381l-2 -207q-197 -78 -407 -78q-207 0 -371 86t-258 247t-94 370z" glyph-name="Gbreve" horiz-adv-x="1421" unicode="Ğ"/><glyph d="M438 1346q6 -61 46.5 -96.5t99.5 -35.5q56 0 96 37.5t51 94.5h117q-7 -108 -81 -175t-183 -67q-105 0 -179 70t-86 172h119zM104 479q0 219 135 354.5t341 135.5q87 0 168 -28.5t124 -68.5l5 76h165q-4 -90 -4 -139v-799q0 -137 -38.5 -233t-111 -149.5t-163.5 -77 t-211 -23.5q-85 0 -188 16t-162 33l41 135q205 -41 313 -41q170 0 261 77.5t91 258.5v76q-132 -92 -292 -92q-213 0 -343.5 138t-130.5 351zM283 479q0 -154 82 -247t229 -93q76 0 152.5 28t121.5 71l2 479q-116 104 -264 104q-154 0 -238.5 -93t-84.5 -249z" glyph-name="gbreve" horiz-adv-x="1222" unicode="ğ"/><glyph d="M664 1647q0 44 32 76t76 32q45 0 78 -32t33 -76q0 -45 -33 -77t-78 -32q-44 0 -76 32t-32 77zM117 680q0 200 88.5 362t258 258.5t390.5 96.5q185 0 354 -62v-180q-148 84 -344 84q-250 0 -402.5 -155.5t-152.5 -397.5q0 -151 63.5 -276t187.5 -202t286 -77q123 0 221 43 v213q0 172 -4 256h190q-4 -200 -4 -381l-2 -207q-197 -78 -407 -78q-207 0 -371 86t-258 247t-94 370z" glyph-name="Gdotaccent" horiz-adv-x="1421" unicode="Ġ"/><glyph d="M475 1257q0 44 32.5 76.5t76.5 32.5t77 -32.5t33 -76.5q0 -45 -32.5 -76.5t-77.5 -31.5t-77 31.5t-32 76.5zM104 479q0 219 135 354.5t341 135.5q87 0 168 -28.5t124 -68.5l5 76h165q-4 -90 -4 -139v-799q0 -137 -38.5 -233t-111 -149.5t-163.5 -77t-211 -23.5 q-85 0 -188 16t-162 33l41 135q205 -41 313 -41q170 0 261 77.5t91 258.5v76q-132 -92 -292 -92q-213 0 -343.5 138t-130.5 351zM283 479q0 -154 82 -247t229 -93q76 0 152.5 28t121.5 71l2 479q-116 104 -264 104q-154 0 -238.5 -93t-84.5 -249z" glyph-name="gdotaccent" horiz-adv-x="1222" unicode="ġ"/><glyph d="M117 680q0 200 88.5 362t258 258.5t390.5 96.5q185 0 354 -62v-180q-148 84 -344 84q-250 0 -402.5 -155.5t-152.5 -397.5q0 -151 63.5 -276t187.5 -202t286 -77q123 0 221 43v213q0 172 -4 256h190q-4 -200 -4 -381l-2 -207q-197 -78 -407 -78q-207 0 -371 86t-258 247 t-94 370zM901 -109q10 -39 10 -108q0 -63 -39.5 -139t-107.5 -129l-111 36q74 103 74 193q0 57 -10 119z" glyph-name="Gcommaaccent" horiz-adv-x="1421" unicode="Ģ"/><glyph d="M471 1049q-10 39 -10 108q0 63 39.5 139t107.5 129l111 -36q-74 -103 -74 -193q0 -57 10 -119zM104 479q0 219 135 354.5t341 135.5q87 0 168 -28.5t124 -68.5l5 76h165q-4 -90 -4 -139v-799q0 -137 -38.5 -233t-111 -149.5t-163.5 -77t-211 -23.5q-85 0 -188 16t-162 33 l41 135q205 -41 313 -41q170 0 261 77.5t91 258.5v76q-132 -92 -292 -92q-213 0 -343.5 138t-130.5 351zM283 479q0 -154 82 -247t229 -93q76 0 152.5 28t121.5 71l2 479q-116 104 -264 104q-154 0 -238.5 -93t-84.5 -249z" glyph-name="gcommaaccent" horiz-adv-x="1222" unicode="ģ"/><glyph d="M1397 1018h-94v-762q0 -136 6 -256h-195q4 156 4 291v354h-733v-354q0 -205 4 -291h-194q6 126 6 305v713h-138v119h138l-6 239h194q-4 -148 -4 -239h733q0 107 -4 239h195l-6 -239h94v-119zM1118 795v223h-733v-94v-129h733z" glyph-name="Hbar" horiz-adv-x="1458" unicode="Ħ"/><glyph d="M1036 0h-182q2 36 2 231v347q0 120 -67 179.5t-175 59.5q-84 0 -158.5 -48.5t-117.5 -129.5v-446q0 -91 4 -193h-186q6 80 6 195v929h-119v105h119v135h-84l43 109h221q-4 -49 -4 -201v-43h326v-105h-326v-313q50 69 134 111.5t200 42.5q163 0 261.5 -104.5t98.5 -299.5 v-338q0 -172 4 -223z" glyph-name="hbar" horiz-adv-x="1181" unicode="ħ"/><glyph d="M31 1554v123h524v-123h-524zM195 0q6 138 6 336v670q0 217 -6 370h196q-4 -61 -4 -370v-670q0 -238 4 -336h-196z" glyph-name="Imacron" horiz-adv-x="585" unicode="Ī"/><glyph d="M33 1165v123h524v-123h-524zM199 0q6 47 6 201v542q0 156 -6 205h188q-6 -49 -6 -203v-544q0 -158 6 -201h-188z" glyph-name="imacron" horiz-adv-x="583" unicode="ī"/><glyph d="M391 0q-106 -65 -160.5 -136t-54.5 -138q0 -52 29 -80.5t80 -28.5q46 0 94 23l12 -105q-65 -33 -158 -33q-91 0 -150.5 52.5t-59.5 138.5q0 162 196 307h-24q6 138 6 336v670q0 217 -6 370h196q-4 -61 -4 -370v-670q0 -238 4 -336z" glyph-name="Iogonek" horiz-adv-x="585" unicode="Į"/><glyph d="M295 1149q-45 0 -77 31.5t-32 76.5q0 44 32.5 76.5t76.5 32.5t77.5 -32.5t33.5 -76.5q0 -45 -33 -76.5t-78 -31.5zM399 0q-106 -65 -160.5 -136t-54.5 -138q0 -52 29 -80.5t80 -28.5q46 0 94 23l12 -105q-65 -33 -157 -33q-91 0 -151 52.5t-60 138.5q0 162 196 307h-28 q6 47 6 201v542q0 156 -6 205h188q-6 -49 -6 -203v-544q0 -146 4 -189z" glyph-name="iogonek" horiz-adv-x="567" unicode="į"/><glyph d="M184 1647q0 44 32.5 76t76.5 32t77 -32t33 -76q0 -45 -32.5 -77t-77.5 -32t-77 32t-32 77zM195 0q6 138 6 336v670q0 217 -6 370h196q-4 -61 -4 -370v-670q0 -238 4 -336h-196z" glyph-name="Idotaccent" horiz-adv-x="585" unicode="İ"/><glyph d="M199 0q6 47 6 201v542q0 156 -6 205h188q-6 -49 -6 -203v-544q0 -158 6 -201h-188z" glyph-name="dotlessi" horiz-adv-x="583" unicode="ı"/><glyph d="M195 0q6 141 6 334v708q0 55 -1 110t-2.5 119t-2.5 105h194q-2 -111 -2 -334v-335l361 440q109 133 178 229h207q-49 -64 -99 -125l-452 -540l460 -527q12 -13 69 -78t97 -106h-250q-45 60 -133 164l-438 510v-338q0 -215 2 -336h-194zM776 -109q10 -39 10 -108 q0 -63 -39.5 -139t-107.5 -129l-111 36q74 103 74 193q0 57 -10 119z" glyph-name="Kcommaaccent" horiz-adv-x="1247" unicode="Ķ"/><glyph d="M164 0q4 110 4 205v1159h-90l41 109h229q-6 -55 -6 -199v-746l418 420h223q-105 -86 -166 -143l-291 -281l389 -407q86 -91 115 -117h-239l-449 475v-282q0 -75 4 -193h-182zM682 -109q10 -39 10 -108q0 -63 -39.5 -139t-107.5 -129l-111 36q74 103 74 193q0 57 -10 119z" glyph-name="kcommaaccent" horiz-adv-x="1083" unicode="ķ"/><glyph d="M522 1778l-205 -291h-147l166 291h186zM195 0q6 93 6 377v622q0 221 -6 377h192q0 -41 -1 -96t-1 -76v-1050h250q151 0 291 4v-162q-86 4 -301 4h-430z" glyph-name="Lacute" horiz-adv-x="983" unicode="Ĺ"/><glyph d="M481 1870l-205 -291h-147l166 291h186zM166 0q4 86 4 201v1163h-92l43 109h229q-6 -39 -6 -179v-1093q0 -158 4 -201h-182z" glyph-name="lacute" horiz-adv-x="546" unicode="ĺ"/><glyph d="M195 0q6 93 6 377v622q0 221 -6 377h192q0 -41 -1 -96t-1 -76v-1050h250q151 0 291 4v-162q-86 4 -301 4h-430zM668 -109q10 -39 10 -108q0 -63 -40 -139t-108 -129l-110 36q74 103 74 193q0 51 -11 119z" glyph-name="Lcommaaccent" horiz-adv-x="983" unicode="Ļ"/><glyph d="M166 0q4 86 4 201v1163h-92l43 109h229q-6 -39 -6 -179v-1093q0 -158 4 -201h-182zM369 -109q10 -39 10 -108q0 -63 -40 -139t-108 -129l-110 36q74 103 74 193q0 51 -11 119z" glyph-name="lcommaaccent" horiz-adv-x="546" unicode="ļ"/><glyph d="M692 1038l39 357h158l-70 -357h-127zM195 0q6 93 6 377v622q0 221 -6 377h192q0 -41 -1 -96t-1 -76v-1050h250q151 0 291 4v-162q-86 4 -301 4h-430z" glyph-name="Lcaron" horiz-adv-x="983" unicode="Ľ"/><glyph d="M453 1120l39 355h157l-69 -355h-127zM166 0q4 86 4 201v1163h-92l43 109h229q-6 -39 -6 -179v-1093q0 -158 4 -201h-182z" glyph-name="lcaron" horiz-adv-x="512" unicode="ľ"/><glyph d="M195 0q6 93 6 377v622q0 221 -6 377h192q0 -41 -1 -96t-1 -76v-1050h250q151 0 291 4v-162q-86 4 -301 4h-430zM618 770q0 47 33.5 80t79.5 33t79.5 -33t33.5 -80q0 -46 -33.5 -79.5t-79.5 -33.5t-79.5 33.5t-33.5 79.5z" glyph-name="Ldot" horiz-adv-x="983" unicode="Ŀ"/><glyph d="M166 0q4 86 4 201v1163h-92l43 109h229q-6 -39 -6 -179v-1093q0 -158 4 -201h-182zM434 762q0 47 33.5 79.5t79.5 32.5t79 -32.5t33 -79.5q0 -46 -33 -78.5t-79 -32.5t-79.5 32.5t-33.5 78.5z" glyph-name="ldot" horiz-adv-x="659" unicode="ŀ"/><glyph d="M657 154q151 0 291 4v-162q-86 4 -301 4h-430q6 93 6 377v201l-192 -111v162l192 110v260q0 221 -6 377h193q0 -41 -1 -96t-1 -76v-360l309 176v-162l-309 -176v-528h249z" glyph-name="Lslash" horiz-adv-x="983" unicode="Ł"/><glyph d="M477 741l-123 -69v-471q0 -158 4 -201h-182q4 86 4 201v372l-174 -98v154l174 100v635h-92l43 109h229q-6 -39 -6 -179v-465l123 70v-158z" glyph-name="lslash" horiz-adv-x="542" unicode="ł"/><glyph d="M997 1778l-204 -291h-148l166 291h186zM195 0q6 132 6 289v751q0 168 -6 353h90l872 -1033v672q0 246 -6 344h190q-8 -106 -8 -334v-761q0 -197 2 -285h-92l-866 1036v-751q0 -158 6 -281h-188z" glyph-name="Nacute" horiz-adv-x="1536" unicode="Ń"/><glyph d="M838 1389l-205 -291h-148l166 291h187zM80 838l43 110h203l10 -139q111 156 336 156q164 0 260 -103t96 -303v-336q0 -162 4 -223h-182q4 82 4 231v347q0 121 -67 180t-175 59q-86 0 -158.5 -48t-117.5 -130v-408q0 -161 4 -231h-182q4 148 4 231v607h-82z" glyph-name="nacute" horiz-adv-x="1175" unicode="ń"/><glyph d="M195 0q6 132 6 289v751q0 168 -6 353h90l872 -1033v672q0 246 -6 344h190q-8 -106 -8 -334v-761q0 -197 2 -285h-92l-866 1036v-751q0 -158 6 -281h-188zM889 -109q10 -39 10 -108q0 -63 -39.5 -139t-107.5 -129l-111 36q74 103 74 193q0 57 -10 119z" glyph-name="Ncommaaccent" horiz-adv-x="1536" unicode="Ņ"/><glyph d="M80 838l43 110h203l10 -139q111 156 336 156q164 0 260 -103t96 -303v-336q0 -162 4 -223h-182q4 82 4 231v347q0 121 -67 180t-175 59q-86 0 -158.5 -48t-117.5 -130v-408q0 -161 4 -231h-182q4 148 4 231v607h-82zM748 -109q10 -39 10 -108q0 -63 -40 -139t-108 -129 l-110 36q73 102 73 193q0 57 -10 119z" glyph-name="ncommaaccent" horiz-adv-x="1175" unicode="ņ"/><glyph d="M1040 1763l-229 -293h-80l-229 293h133l137 -184l135 184h133zM195 0q6 132 6 289v751q0 168 -6 353h90l872 -1033v672q0 246 -6 344h190q-8 -106 -8 -334v-761q0 -197 2 -285h-92l-866 1036v-751q0 -158 6 -281h-188z" glyph-name="Ncaron" horiz-adv-x="1536" unicode="Ň"/><glyph d="M881 1374l-230 -293h-80l-229 293h133l137 -184l136 184h133zM80 838l43 110h203l10 -139q111 156 336 156q164 0 260 -103t96 -303v-336q0 -162 4 -223h-182q4 82 4 231v347q0 121 -67 180t-175 59q-86 0 -158.5 -48t-117.5 -130v-408q0 -161 4 -231h-182q4 148 4 231 v607h-82z" glyph-name="ncaron" horiz-adv-x="1175" unicode="ň"/><glyph d="M1333 1042v-761q0 -197 2 -285h-22q0 -179 -104 -293.5t-263 -114.5q-100 0 -170 27v145q65 -26 162 -26q94 0 151.5 73t57.5 191v113l-770 921v-751q0 -158 6 -281h-188q6 132 6 289v751q0 168 -6 353h90l872 -1033v672q0 246 -6 344h190q-8 -106 -8 -334z" glyph-name="Eng" horiz-adv-x="1536" unicode="Ŋ"/><glyph d="M158 0q4 148 4 231v607h-82l43 110h203l10 -139q111 156 336 156q164 0 260 -103t96 -303v-643q0 -191 -78.5 -301.5t-249.5 -110.5h-139v142h119q174 0 174 278v654q0 121 -67 180t-175 59q-86 0 -158.5 -48t-117.5 -130v-408q0 -161 4 -231h-182z" glyph-name="eng" horiz-adv-x="1171" unicode="ŋ"/><glyph d="M557 1554v123h524v-123h-524zM117 688q0 148 54.5 279.5t147.5 225.5t223 149t277 55q196 0 358 -94t254.5 -257t92.5 -360q0 -200 -93 -362.5t-254 -254.5t-356 -92q-198 0 -359 92t-253 255t-92 364zM309 686q0 -242 144 -399.5t368 -157.5q145 0 261.5 72.5 t181.5 199.5t65 285q0 238 -144.5 397.5t-365.5 159.5q-143 0 -259.5 -71t-183.5 -199t-67 -287z" glyph-name="Omacron" horiz-adv-x="1640" unicode="Ō"/><glyph d="M307 1165v123h524v-123h-524zM104 471q0 136 62.5 250t171 180t237.5 66q131 0 240.5 -67t171.5 -181t62 -248q0 -205 -137 -346t-337 -141q-132 0 -240 65t-169.5 177t-61.5 245zM281 471q0 -142 83.5 -241t210.5 -99q131 0 213 98t82 242q0 149 -83.5 245.5 t-211.5 96.5q-87 0 -156 -53t-103.5 -130.5t-34.5 -158.5z" glyph-name="omacron" horiz-adv-x="1150" unicode="ō"/><glyph d="M858 1778l-205 -291h-147l166 291h186zM1221 1778l-205 -291h-148l166 291h187zM117 688q0 148 54.5 279.5t147.5 225.5t223 149t277 55q196 0 358 -94t254.5 -257t92.5 -360q0 -200 -93 -362.5t-254 -254.5t-356 -92q-198 0 -359 92t-253 255t-92 364zM309 686 q0 -242 144 -399.5t368 -157.5q145 0 261.5 72.5t181.5 199.5t65 285q0 238 -144.5 397.5t-365.5 159.5q-143 0 -259.5 -71t-183.5 -199t-67 -287z" glyph-name="Ohungarumlaut" horiz-adv-x="1640" unicode="Ő"/><glyph d="M608 1389l-205 -291h-147l166 291h186zM971 1389l-205 -291h-148l166 291h187zM104 471q0 136 62.5 250t171 180t237.5 66q131 0 240.5 -67t171.5 -181t62 -248q0 -205 -137 -346t-337 -141q-132 0 -240 65t-169.5 177t-61.5 245zM281 471q0 -142 83.5 -241t210.5 -99 q131 0 213 98t82 242q0 149 -83.5 245.5t-211.5 96.5q-87 0 -156 -53t-103.5 -130.5t-34.5 -158.5z" glyph-name="ohungarumlaut" horiz-adv-x="1150" unicode="ő"/><glyph d="M117 686q0 199 92.5 357.5t252.5 245.5t357 87h359q237 0 350 4l-19 -161q-45 0 -151 2t-168 2h-166v-432h147q230 0 318 2v-154q-180 4 -318 4h-147v-489h203q235 0 317 2v-158q-82 2 -311 2h-414q-198 0 -358 86t-252 243.5t-92 356.5zM309 686q0 -158 68.5 -280.5 t187.5 -188t269 -65.5v1071q-229 0 -377 -148.5t-148 -388.5z" glyph-name="OE" horiz-adv-x="1675" unicode="Œ"/><glyph d="M104 471q0 136 62.5 250t171 180t237.5 66q124 0 222 -61t155 -165q52 106 146 168t221 62q113 0 199 -38.5t134 -102.5t71.5 -138t23.5 -155q0 -37 -6 -91h-690q15 -315 323 -315q147 0 320 94v-143q-137 -96 -330 -96q-142 0 -246.5 56.5t-161.5 166.5 q-57 -104 -156.5 -164.5t-224.5 -60.5q-132 0 -240 65t-169.5 177t-61.5 245zM1049 565h528q-3 123 -64 194.5t-192 71.5q-68 0 -121 -23.5t-84.5 -62.5t-48 -84.5t-18.5 -95.5zM281 471q0 -142 83.5 -241t210.5 -99q131 0 213 98t82 242q0 149 -83.5 245.5t-211.5 96.5 q-87 0 -156 -53t-103.5 -130.5t-34.5 -158.5z" glyph-name="oe" horiz-adv-x="1839" unicode="œ"/><glyph d="M766 1778l-205 -291h-147l166 291h186zM999 981q0 -270 -276 -360l197 -289q100 -144 256 -332h-236l-387 567h-170v-211q0 -180 4 -356h-192q6 90 6 362v687q0 249 -6 327h327q99 0 184.5 -24t151.5 -71.5t103.5 -124.5t37.5 -175zM811 969q0 124 -83.5 191t-211.5 67 h-133v-516h137q120 0 205.5 68.5t85.5 189.5z" glyph-name="Racute" horiz-adv-x="1226" unicode="Ŕ"/><glyph d="M598 1389l-205 -291h-147l166 291h186zM80 840l43 108h190l21 -147q51 71 130 119.5t152 48.5q55 0 101 -19l-35 -162q-54 13 -98 13q-61 0 -128.5 -38.5t-111.5 -105.5v-454q0 -26 6 -203h-188q6 111 6 207v633h-88z" glyph-name="racute" horiz-adv-x="755" unicode="ŕ"/><glyph d="M999 981q0 -270 -276 -360l197 -289q100 -144 256 -332h-236l-387 567h-170v-211q0 -180 4 -356h-192q6 90 6 362v687q0 249 -6 327h327q99 0 184.5 -24t151.5 -71.5t103.5 -124.5t37.5 -175zM811 969q0 124 -83.5 191t-211.5 67h-133v-516h137q120 0 205.5 68.5 t85.5 189.5zM719 -109q10 -39 10 -108q0 -63 -39.5 -139t-107.5 -129l-111 36q74 103 74 193q0 57 -10 119z" glyph-name="Rcommaaccent" horiz-adv-x="1226" unicode="Ŗ"/><glyph d="M80 840l43 108h190l21 -147q51 71 130 119.5t152 48.5q55 0 101 -19l-35 -162q-54 13 -98 13q-61 0 -128.5 -38.5t-111.5 -105.5v-454q0 -26 6 -203h-188q6 111 6 207v633h-88zM512 -109q10 -39 10 -108q0 -63 -39.5 -139t-107.5 -129l-111 36q74 103 74 193 q0 57 -10 119z" glyph-name="rcommaaccent" horiz-adv-x="755" unicode="ŗ"/><glyph d="M809 1763l-229 -293h-80l-230 293h133l138 -184l135 184h133zM999 981q0 -270 -276 -360l197 -289q100 -144 256 -332h-236l-387 567h-170v-211q0 -180 4 -356h-192q6 90 6 362v687q0 249 -6 327h327q99 0 184.5 -24t151.5 -71.5t103.5 -124.5t37.5 -175zM811 969 q0 124 -83.5 191t-211.5 67h-133v-516h137q120 0 205.5 68.5t85.5 189.5z" glyph-name="Rcaron" horiz-adv-x="1226" unicode="Ř"/><glyph d="M641 1374l-229 -293h-80l-230 293h134l137 -184l135 184h133zM80 840l43 108h190l21 -147q51 71 130 119.5t152 48.5q55 0 101 -19l-35 -162q-54 13 -98 13q-61 0 -128.5 -38.5t-111.5 -105.5v-454q0 -26 6 -203h-188q6 111 6 207v633h-88z" glyph-name="rcaron" horiz-adv-x="755" unicode="ř"/><glyph d="M725 1778l-205 -291h-147l166 291h186zM123 47l39 176q58 -48 137.5 -76t165.5 -28q116 0 185 58t69 159q0 47 -19.5 89t-55.5 77t-71 60t-81 52q-47 28 -76 46t-72 49.5t-69.5 61t-53 68.5t-39 85t-12.5 98q0 171 113.5 274t300.5 103q68 0 149 -16t127 -37v-170 q-102 77 -268 77q-104 0 -168 -53.5t-64 -146.5q0 -79 56.5 -141.5t169.5 -125.5q124 -73 194 -133t105 -131t35 -164q0 -169 -124 -277t-325 -108q-177 0 -348 74z" glyph-name="Sacute" horiz-adv-x="1050" unicode="Ś"/><glyph d="M643 1389l-205 -291h-147l166 291h186zM98 39l31 158q113 -88 244 -88q80 0 130 35.5t50 99.5q0 27 -12.5 50t-44.5 46.5t-50.5 34.5t-67.5 36q-9 5 -13 7q-47 23 -82 46.5t-72.5 58t-57.5 80.5t-20 99q0 120 86.5 192.5t235.5 72.5q104 0 233 -41v-154q-112 66 -221 66 q-76 0 -120 -32.5t-44 -90.5q0 -35 29.5 -68t55.5 -48.5t86 -45.5q10 -5 15 -8q47 -24 82 -47t73.5 -58.5t59.5 -83t21 -102.5q0 -129 -92.5 -203t-251.5 -74q-72 0 -151.5 17.5t-131.5 44.5z" glyph-name="sacute" horiz-adv-x="829" unicode="ś"/><glyph d="M920 358q0 -148 -97.5 -250.5t-261.5 -127.5l-33 -66q77 -14 119.5 -58.5t42.5 -111.5q0 -81 -58.5 -131.5t-162.5 -50.5q-74 0 -129 22l10 90q58 -18 103 -18q51 0 81.5 23.5t30.5 64.5q0 90 -139 90q-23 0 -33 -2l68 141q-177 3 -338 74l39 176q58 -48 137.5 -76 t165.5 -28q116 0 185 58t69 159q0 47 -19.5 89t-55.5 77t-71 60t-81 52q-47 28 -76 46t-72 49.5t-69.5 61t-53 68.5t-39 85t-12.5 98q0 171 113.5 274t300.5 103q68 0 149 -16t127 -37v-170q-102 77 -268 77q-104 0 -168 -53.5t-64 -146.5q0 -79 56.5 -141.5t169.5 -125.5 q124 -73 194 -133t105 -131t35 -164z" glyph-name="Scedilla" horiz-adv-x="1050" unicode="Ş"/><glyph d="M725 254q0 -108 -66.5 -178t-185.5 -90l-35 -72q77 -14 119.5 -58.5t42.5 -111.5q0 -81 -58.5 -131.5t-162.5 -50.5q-74 0 -129 22l10 90q58 -18 102 -18q51 0 82 23.5t31 64.5q0 90 -139 90q-23 0 -33 -2l70 145q-72 2 -149 19t-126 43l31 158q113 -88 244 -88 q80 0 130 35.5t50 99.5q0 27 -12.5 50t-44.5 46.5t-50.5 34.5t-67.5 36q-9 5 -13 7q-47 23 -82 46.5t-72.5 58t-57.5 80.5t-20 99q0 120 86.5 192.5t235.5 72.5q104 0 233 -41v-154q-112 66 -221 66q-76 0 -120 -32.5t-44 -90.5q0 -35 29.5 -68t55.5 -48.5t86 -45.5 q10 -5 15 -8q47 -24 82 -47t73.5 -58.5t59.5 -83t21 -102.5z" glyph-name="scedilla" horiz-adv-x="829" unicode="ş"/><glyph d="M768 1763l-229 -293h-80l-230 293h133l138 -184l135 184h133zM123 47l39 176q58 -48 137.5 -76t165.5 -28q116 0 185 58t69 159q0 47 -19.5 89t-55.5 77t-71 60t-81 52q-47 28 -76 46t-72 49.5t-69.5 61t-53 68.5t-39 85t-12.5 98q0 171 113.5 274t300.5 103 q68 0 149 -16t127 -37v-170q-102 77 -268 77q-104 0 -168 -53.5t-64 -146.5q0 -79 56.5 -141.5t169.5 -125.5q124 -73 194 -133t105 -131t35 -164q0 -169 -124 -277t-325 -108q-177 0 -348 74z" glyph-name="Scaron" horiz-adv-x="1050" unicode="Š"/><glyph d="M686 1374l-229 -293h-80l-230 293h134l137 -184l135 184h133zM98 39l31 158q113 -88 244 -88q80 0 130 35.5t50 99.5q0 27 -12.5 50t-44.5 46.5t-50.5 34.5t-67.5 36q-9 5 -13 7q-47 23 -82 46.5t-72.5 58t-57.5 80.5t-20 99q0 120 86.5 192.5t235.5 72.5q104 0 233 -41 v-154q-112 66 -221 66q-76 0 -120 -32.5t-44 -90.5q0 -35 29.5 -68t55.5 -48.5t86 -45.5q10 -5 15 -8q47 -24 82 -47t73.5 -58.5t59.5 -83t21 -102.5q0 -129 -92.5 -203t-251.5 -74q-72 0 -151.5 17.5t-131.5 44.5z" glyph-name="scaron" horiz-adv-x="829" unicode="š"/><glyph d="M846 1376q235 0 315 2l-18 -159q-180 4 -305 4h-138q-2 -70 -2 -258v-615q0 -200 7 -350h-37l-43 -86q77 -14 119 -58.5t42 -111.5q0 -81 -58.5 -131.5t-162.5 -50.5q-74 0 -129 22l10 90q58 -18 103 -18q51 0 82 23.5t31 64.5q0 90 -140 90q-23 0 -33 -2l80 168h-59 q4 94 4 350v615q0 184 -2 258h-139q-219 0 -305 -4v159q47 0 153.5 -1t163.5 -1h461z" glyph-name="uni0162" horiz-adv-x="1218" unicode="Ţ"/><glyph d="M438 -86q77 -14 119.5 -58.5t42.5 -111.5q0 -81 -58.5 -131.5t-162.5 -50.5q-74 0 -129 22l10 90q58 -18 102 -18q51 0 82 23.5t31 64.5q0 90 -139 90q-23 0 -33 -2l80 168q-162 57 -162 299v510h-153v139h153v82q0 105 -2 148l180 28q-2 -57 -2 -178v-80h273l-25 -139 h-248v-467q0 -110 34 -162.5t116 -52.5q46 0 98 27l29 -131q-35 -17 -88 -29t-92 -12h-21z" glyph-name="uni0163" horiz-adv-x="761" unicode="ţ"/><glyph d="M874 1763l-229 -293h-80l-229 293h133l137 -184l135 184h133zM510 0q4 94 4 350v615q0 184 -2 258h-139q-219 0 -305 -4v159q47 0 153.5 -1t163.5 -1h461q235 0 315 2l-18 -159q-180 4 -305 4h-138q-2 -70 -2 -258v-615q0 -200 7 -350h-195z" glyph-name="Tcaron" horiz-adv-x="1218" unicode="Ť"/><glyph d="M653 1079h-129l37 355h160zM68 809v139h153v82q0 105 -2 148l180 28q-2 -57 -2 -178v-80h273l-25 -139h-248v-467q0 -110 34 -162.5t116 -52.5q46 0 98 27l29 -131q-35 -17 -88 -29t-92 -12q-134 0 -203.5 80.5t-69.5 236.5v510h-153z" glyph-name="tcaron" horiz-adv-x="727" unicode="ť"/><glyph d="M700 1223q-2 -70 -2 -258v-207h248v-133h-248v-275q0 -200 7 -350h-195q4 94 4 350v275h-278v133h278v207q0 184 -2 258h-139q-219 0 -305 -4v159q47 0 153.5 -1t163.5 -1h461q235 0 315 2l-18 -159q-180 4 -305 4h-138z" glyph-name="Tbar" horiz-adv-x="1218" unicode="Ŧ"/><glyph d="M662 154l28 -131q-35 -17 -88 -29t-92 -12q-134 0 -203 80.5t-69 236.5v117h-170v131h170v262h-154v139h154v82q0 105 -2 148l180 28q-2 -57 -2 -178v-80h272l-24 -139h-248v-262h215v-131h-215v-74q0 -110 33.5 -162.5t115.5 -52.5q47 0 99 27z" glyph-name="tbar" horiz-adv-x="778" unicode="ŧ"/><glyph d="M451 1554v123h524v-123h-524zM369 1376q-7 -110 -7 -346v-500q0 -192 96 -293.5t255 -101.5q163 0 255.5 104t92.5 296v495q0 258 -2 346h190q-2 -100 -2 -348v-500q0 -265 -144 -406.5t-390 -141.5q-251 0 -393 146t-142 402v500q0 168 -4 348h195z" glyph-name="Umacron" horiz-adv-x="1421" unicode="Ū"/><glyph d="M268 1165v123h525v-123h-525zM80 838l45 110h221q-6 -49 -6 -213v-327q0 -279 211 -279q72 0 135.5 47.5t99.5 132.5v410q0 157 -4 229h185q-4 -68 -4 -223v-532q0 -130 16 -193h-152l-32 127q-97 -143 -285 -143q-346 0 -346 409v445h-84z" glyph-name="umacron" horiz-adv-x="1173" unicode="ū"/><glyph d="M520 1632q0 77 55 126.5t138 49.5q82 0 137 -50t55 -126q0 -73 -54.5 -124.5t-137.5 -51.5q-82 0 -137.5 50.5t-55.5 125.5zM616 1634q0 -40 26.5 -73t70.5 -33t71 29t27 75q0 44 -27.5 73.5t-70.5 29.5q-41 0 -69 -28t-28 -73zM369 1376q-7 -110 -7 -346v-500 q0 -192 96 -293.5t255 -101.5q163 0 255.5 104t92.5 296v495q0 258 -2 346h190q-2 -100 -2 -348v-500q0 -265 -144 -406.5t-390 -141.5q-251 0 -393 146t-142 402v500q0 168 -4 348h195z" glyph-name="Uring" horiz-adv-x="1421" unicode="Ů"/><glyph d="M338 1243q0 77 54.5 126.5t137.5 49.5q82 0 137.5 -50t55.5 -126q0 -73 -55 -124.5t-138 -51.5q-82 0 -137 50.5t-55 125.5zM434 1245q0 -41 26 -73.5t70 -32.5t71.5 29t27.5 75q0 44 -27.5 73.5t-71.5 29.5q-41 0 -68.5 -28t-27.5 -73zM80 838l45 110h221 q-6 -49 -6 -213v-327q0 -279 211 -279q72 0 135.5 47.5t99.5 132.5v410q0 157 -4 229h185q-4 -68 -4 -223v-532q0 -130 16 -193h-152l-32 127q-97 -143 -285 -143q-346 0 -346 409v445h-84z" glyph-name="uring" horiz-adv-x="1173" unicode="ů"/><glyph d="M752 1778l-205 -291h-148l166 291h187zM1114 1778l-205 -291h-147l166 291h186zM369 1376q-7 -110 -7 -346v-500q0 -192 96 -293.5t255 -101.5q163 0 255.5 104t92.5 296v495q0 258 -2 346h190q-2 -100 -2 -348v-500q0 -265 -144 -406.5t-390 -141.5q-251 0 -393 146 t-142 402v500q0 168 -4 348h195z" glyph-name="Uhungarumlaut" horiz-adv-x="1421" unicode="Ű"/><glyph d="M569 1389l-204 -291h-148l166 291h186zM932 1389l-205 -291h-147l165 291h187zM80 838l45 110h221q-6 -49 -6 -213v-327q0 -279 211 -279q72 0 135.5 47.5t99.5 132.5v410q0 157 -4 229h185q-4 -68 -4 -223v-532q0 -130 16 -193h-152l-32 127q-97 -143 -285 -143 q-346 0 -346 409v445h-84z" glyph-name="uhungarumlaut" horiz-adv-x="1173" unicode="ű"/><glyph d="M1059 1376h190q-2 -100 -2 -348v-500q0 -180 -67 -303t-191 -186q-87 -79 -132.5 -163.5t-45.5 -149.5q0 -52 29 -80.5t80 -28.5q46 0 94 23l14 -105q-67 -33 -160 -33q-91 0 -150 52.5t-59 138.5q0 136 134 291q-50 -4 -80 -4q-251 0 -393 146t-142 402v500 q0 168 -4 348h195q-7 -110 -7 -346v-500q0 -192 96 -293.5t255 -101.5q163 0 255.5 104t92.5 296v495q0 258 -2 346z" glyph-name="Uogonek" horiz-adv-x="1421" unicode="Ų"/><glyph d="M872 -383q47 0 95 23l12 -105q-65 -33 -158 -33q-91 0 -151 52.5t-60 138.5q0 168 213 319l-28 115q-97 -143 -285 -143q-346 0 -346 409v445h-84l45 110h221q-6 -49 -6 -213v-327q0 -279 211 -279q72 0 135.5 47.5t99.5 132.5v410q0 157 -4 229h185q-4 -68 -4 -223v-532 q0 -130 16 -193q-106 -65 -160.5 -136t-54.5 -138q0 -52 28.5 -80.5t79.5 -28.5z" glyph-name="uogonek" horiz-adv-x="1173" unicode="ų"/><glyph d="M711 1470l229 293h80l229 -293h-133l-137 185l-135 -185h-133zM41 1376h201l446 -1097l207 524l-252 573h182l170 -381l154 381h178l-250 -573l197 -524l446 1097h193q-31 -73 -123 -278l-475 -1102h-62l-274 635l-277 -635h-63l-475 1091q-27 59 -72.5 167.5 t-50.5 121.5z" glyph-name="Wcircumflex" horiz-adv-x="1953" unicode="Ŵ"/><glyph d="M473 1081l229 293h80l230 -293h-133l-138 185l-135 -185h-133zM35 948h196q18 -77 64 -198l170 -486l225 684h105l237 -694l178 555q33 95 43 139h181l-68 -172l-283 -794h-84l-262 731l-254 -731h-90l-274 751q-15 42 -44.5 114t-39.5 101z" glyph-name="wcircumflex" horiz-adv-x="1468" unicode="ŵ"/><glyph d="M344 1470l229 293h80l230 -293h-133l-138 185l-135 -185h-133zM520 0q6 282 6 324v272l-325 530q-124 196 -160 250h219q11 -24 24 -49t22 -41.5t26 -46t26 -45.5l267 -440l256 434q17 29 58 102.5t48 85.5h207q-13 -23 -70 -111t-88 -139l-325 -530v-274q0 -184 6 -322 h-197z" glyph-name="Ycircumflex" horiz-adv-x="1234" unicode="Ŷ"/><glyph d="M240 1081l229 293h80l229 -293h-133l-137 185l-135 -185h-133zM37 948h207q13 -31 35 -91.5t32 -86.5l215 -555l217 545q30 75 64 188h194q-18 -38 -49 -111t-41 -96l-385 -884q-59 -140 -137 -199t-196 -59h-89l15 131q114 0 160.5 28t91.5 125l71 150l-292 663 q-65 155 -113 252z" glyph-name="ycircumflex" horiz-adv-x="1038" unicode="ŷ"/><glyph d="M317 1645q0 44 32.5 76t76.5 32q45 0 78 -32t33 -76q0 -45 -33 -77t-78 -32t-77 32t-32 77zM700 1645q0 44 32.5 76t76.5 32q45 0 78 -32t33 -76q0 -45 -33 -77t-78 -32t-77 32t-32 77zM520 0q6 282 6 324v272l-325 530q-124 196 -160 250h219q11 -24 24 -49t22 -41.5 t26 -46t26 -45.5l267 -440l256 434q17 29 58 102.5t48 85.5h207q-13 -23 -70 -111t-88 -139l-325 -530v-274q0 -184 6 -322h-197z" glyph-name="Ydieresis" horiz-adv-x="1234" unicode="Ÿ"/><glyph d="M825 1778l-204 -291h-148l166 291h186zM92 0q10 18 68.5 116.5t91.5 157.5l536 949h-335q-246 0 -322 -4l-16 159q96 -2 360 -2h602l-706 -1222h411q227 0 303 2v-158q-78 2 -305 2h-688z" glyph-name="Zacute" horiz-adv-x="1173" unicode="Ź"/><glyph d="M662 1389l-205 -291h-148l166 291h187zM76 0l483 801h-278q-76 0 -166 -4l-6 155q51 -4 180 -4h528l-473 -801h293q49 0 182 5v-154q-43 2 -135 2h-608z" glyph-name="zacute" horiz-adv-x="892" unicode="ź"/><glyph d="M492 1647q0 44 32 76t76 32q45 0 78 -32t33 -76q0 -45 -33 -77t-78 -32q-44 0 -76 32t-32 77zM92 0q10 18 68.5 116.5t91.5 157.5l536 949h-335q-246 0 -322 -4l-16 159q96 -2 360 -2h602l-706 -1222h411q227 0 303 2v-158q-78 2 -305 2h-688z" glyph-name="Zdotaccent" horiz-adv-x="1173" unicode="Ż"/><glyph d="M328 1257q0 44 32 76.5t76 32.5t77.5 -32.5t33.5 -76.5q0 -45 -33 -76.5t-78 -31.5t-76.5 31.5t-31.5 76.5zM76 0l483 801h-278q-76 0 -166 -4l-6 155q51 -4 180 -4h528l-473 -801h293q49 0 182 5v-154q-43 2 -135 2h-608z" glyph-name="zdotaccent" horiz-adv-x="892" unicode="ż"/><glyph d="M868 1763l-229 -293h-80l-229 293h133l137 -184l135 184h133zM92 0q10 18 68.5 116.5t91.5 157.5l536 949h-335q-246 0 -322 -4l-16 159q96 -2 360 -2h602l-706 -1222h411q227 0 303 2v-158q-78 2 -305 2h-688z" glyph-name="Zcaron" horiz-adv-x="1173" unicode="Ž"/><glyph d="M705 1374l-230 -293h-80l-229 293h133l137 -184l135 184h134zM76 0l483 801h-278q-76 0 -166 -4l-6 155q51 -4 180 -4h528l-473 -801h293q49 0 182 5v-154q-43 2 -135 2h-608z" glyph-name="zcaron" horiz-adv-x="892" unicode="ž"/><glyph d="M-170 -375v156q70 -51 174 -51q40 0 74 14t68 51t61.5 97.5t52.5 157.5t43 226l57 377h-184v125h201l20 142q35 244 133.5 361.5t266.5 117.5q100 0 172 -31v-154q-65 43 -152 43q-206 0 -252 -356l-16 -123h244v-125h-263l-57 -383q-56 -357 -165.5 -520.5 t-301.5 -163.5q-106 0 -176 39z" glyph-name="florin" horiz-adv-x="1075" unicode="ƒ"/><glyph d="M123 47l39 176q58 -48 137.5 -76t165.5 -28q116 0 185 58t69 159q0 47 -19.5 89t-55.5 77t-71 60t-81 52q-47 28 -76 46t-72 49.5t-69.5 61t-53 68.5t-39 85t-12.5 98q0 171 113.5 274t300.5 103q68 0 149 -16t127 -37v-170q-102 77 -268 77q-104 0 -168 -53.5 t-64 -146.5q0 -79 56.5 -141.5t169.5 -125.5q124 -73 194 -133t105 -131t35 -164q0 -169 -124 -277t-325 -108q-177 0 -348 74zM616 -109q11 -43 11 -108q0 -63 -40 -139t-108 -129l-110 36q73 102 73 193q0 57 -10 119z" glyph-name="Scommaaccent" horiz-adv-x="1050" unicode="Ș"/><glyph d="M98 39l31 158q113 -88 244 -88q80 0 130 35.5t50 99.5q0 27 -12.5 50t-44.5 46.5t-50.5 34.5t-67.5 36q-9 5 -13 7q-47 23 -82 46.5t-72.5 58t-57.5 80.5t-20 99q0 120 86.5 192.5t235.5 72.5q104 0 233 -41v-154q-112 66 -221 66q-76 0 -120 -32.5t-44 -90.5 q0 -35 29.5 -68t55.5 -48.5t86 -45.5q10 -5 15 -8q47 -24 82 -47t73.5 -58.5t59.5 -83t21 -102.5q0 -129 -92.5 -203t-251.5 -74q-72 0 -151.5 17.5t-131.5 44.5zM526 -109q11 -43 11 -108q0 -63 -40 -139t-108 -129l-110 36q73 102 73 193q0 57 -10 119z" glyph-name="scommaaccent" horiz-adv-x="829" unicode="ș"/><glyph d="M510 0q4 94 4 350v615q0 184 -2 258h-139q-219 0 -305 -4v159q47 0 153.5 -1t163.5 -1h461q235 0 315 2l-18 -159q-180 4 -305 4h-138q-2 -70 -2 -258v-615q0 -200 7 -350h-195zM713 -109q10 -39 10 -108q0 -63 -40 -139t-108 -129l-110 36q74 103 74 193q0 51 -11 119z" glyph-name="uni021A" horiz-adv-x="1218" unicode="Ț"/><glyph d="M68 809v139h153v82q0 105 -2 148l180 28q-2 -57 -2 -178v-80h273l-25 -139h-248v-467q0 -110 34 -162.5t116 -52.5q46 0 98 27l29 -131q-35 -17 -88 -29t-92 -12q-134 0 -203.5 80.5t-69.5 236.5v510h-153zM526 -109q11 -43 11 -108q0 -63 -40 -139t-108 -129l-110 36 q73 102 73 193q0 57 -10 119z" glyph-name="uni021B" horiz-adv-x="761" unicode="ț"/><glyph d="M-84 -496v142h117q174 0 174 278v819q0 158 -4 205h186q-4 -47 -4 -203v-829q0 -190 -80 -301t-250 -111h-139z" glyph-name="uni0237" horiz-adv-x="585" unicode="ȷ"/><glyph d="M-420 1389h187l165 -291h-147z" glyph-name="gravecomb" horiz-adv-x="0" unicode="̀"/><glyph d="M-68 1389l-204 -291h-148l166 291h186z" glyph-name="acutecomb" horiz-adv-x="0" unicode="́"/><glyph d="M-700 1081l229 293h80l229 -293h-133l-137 185l-135 -185h-133z" glyph-name="uni0302" horiz-adv-x="0" unicode="̂"/><glyph d="M-725 1124q3 77 49.5 136t124.5 59q44 0 89 -23.5t83 -47t66 -23.5q62 0 69 84h105q-2 -50 -19 -93t-55.5 -73.5t-91.5 -30.5q-45 0 -91 23t-84.5 46t-66.5 23q-57 0 -67 -80h-111z" glyph-name="tildecomb" horiz-adv-x="0" unicode="̃"/><glyph d="M-694 1165v123h524v-123h-524z" glyph-name="uni0304" horiz-adv-x="0" unicode="̄"/><glyph d="M-571 1346q6 -61 46 -96.5t99 -35.5q56 0 96 37.5t51 94.5h117q-7 -108 -81 -175t-183 -67q-105 0 -178.5 70t-85.5 172h119z" glyph-name="uni0306" horiz-adv-x="0" unicode="̆"/><glyph d="M-371 1257q0 44 32.5 76.5t76.5 32.5t77 -32.5t33 -76.5q0 -45 -32.5 -76.5t-77.5 -31.5t-77 31.5t-32 76.5z" glyph-name="uni0307" horiz-adv-x="0" unicode="̇"/><glyph d="M-743 1257q0 44 32 76.5t76 32.5t77.5 -32.5t33.5 -76.5q0 -45 -33 -76.5t-78 -31.5t-76.5 31.5t-31.5 76.5zM-360 1257q0 44 32 76.5t76 32.5t77.5 -32.5t33.5 -76.5q0 -45 -33 -76.5t-78 -31.5t-76.5 31.5t-31.5 76.5z" glyph-name="uni0308" horiz-adv-x="0" unicode="̈"/><glyph d="M-616 1243q0 77 54.5 126.5t137.5 49.5q82 0 137.5 -50t55.5 -126q0 -73 -55 -124.5t-138 -51.5q-82 0 -137 50.5t-55 125.5zM-520 1245q0 -41 26 -73.5t70 -32.5t71 29t27 75q0 44 -27.5 73.5t-70.5 29.5q-41 0 -68.5 -28t-27.5 -73z" glyph-name="uni030A" horiz-adv-x="0" unicode="̊"/><glyph d="M-430 1389l-205 -291h-147l166 291h186zM-68 1389l-204 -291h-148l166 291h186z" glyph-name="uni030B" horiz-adv-x="0" unicode="̋"/><glyph d="M-162 1374l-229 -293h-80l-229 293h133l137 -184l135 184h133z" glyph-name="uni030C" horiz-adv-x="0" unicode="̌"/><glyph d="M-418 1049q-10 39 -10 108q0 63 39.5 139t107.5 129l111 -36q-74 -103 -74 -193q0 -51 11 -119z" glyph-name="uni0312" horiz-adv-x="0" unicode="̒"/><glyph d="M-180 -109q10 -39 10 -108q0 -63 -39.5 -139t-107.5 -129l-111 36q74 103 74 193q0 51 -11 119z" glyph-name="uni0326" horiz-adv-x="0" unicode="̦"/><glyph d="M-360 41h98l-64 -127q77 -14 119.5 -58.5t42.5 -111.5q0 -81 -58.5 -131.5t-162.5 -50.5q-74 0 -129 22l10 90q58 -18 103 -18q51 0 81.5 23.5t30.5 64.5q0 90 -139 90q-23 0 -33 -2z" glyph-name="uni0327" horiz-adv-x="0" unicode="̧"/><glyph d="M-156 66l72 -66q-106 -65 -160.5 -136t-54.5 -138q0 -52 29 -80.5t80 -28.5q46 0 94 23l12 -105q-65 -33 -158 -33q-91 0 -151 52.5t-60 138.5q0 99 77 194.5t220 178.5z" glyph-name="uni0328" horiz-adv-x="0" unicode="̨"/><glyph d="M420 1389l-205 -291h-147l165 291h187z" glyph-name="tonos" horiz-adv-x="487" unicode="΄"/><glyph d="M684 1389l-205 -291h-147l166 291h186zM129 1229q0 36 26 62t62 26q35 0 62.5 -26.5t27.5 -61.5t-26.5 -61.5t-63.5 -26.5q-35 0 -61.5 25.5t-26.5 62.5zM686 1229q0 36 26 62t64 26q34 0 61 -26.5t27 -61.5t-26.5 -61.5t-61.5 -26.5q-37 0 -63.5 25t-26.5 63z" glyph-name="dieresistonos" horiz-adv-x="976" unicode="΅"/><glyph d="M43 0q19 40 39.5 86t34 78t36 87t35.5 85l441 1057h73l472 -1108q52 -119 137 -285h-217l-156 387h-555l-150 -387h-190zM426 1376l-205 -291h-147l166 291h186zM436 526h447l-224 576z" glyph-name="Alphatonos" horiz-adv-x="1351" unicode="Ά"/><glyph d="M244 887q50 0 85.5 -35t35.5 -84q0 -51 -35.5 -87t-85.5 -36t-85.5 36t-35.5 87q0 49 35.5 84t85.5 35z" glyph-name="anoteleia" horiz-adv-x="487" unicode="·"/><glyph d="M504 0q1 83 3.5 191t2.5 143v706q0 195 -6 336h352q237 0 346 4l-26 -159q-96 4 -345 4h-137v-434h148q229 0 315 2v-158q-176 4 -315 4h-148v-485h201q235 0 315 2v-158q-80 2 -309 2h-397zM393 1376l-205 -291h-147l166 291h186z" glyph-name="Epsilontonos" horiz-adv-x="1347" unicode="Έ"/><glyph d="M393 1376l-205 -291h-147l166 291h186zM532 0q7 147 7 305v723q0 198 -7 348h195q-4 -127 -4 -452v-129h733v252q0 161 -4 329h195q-7 -219 -7 -348v-772q0 -116 7 -256h-195q4 156 4 291v354h-733v-354q0 -205 4 -291h-195z" glyph-name="Etatonos" horiz-adv-x="1841" unicode="Ή"/><glyph d="M393 1376l-205 -291h-147l166 291h186zM494 0q6 138 6 336v670q0 217 -6 370h196q-4 -61 -4 -370v-670q0 -238 4 -336h-196z" glyph-name="Iotatonos" horiz-adv-x="884" unicode="Ί"/><glyph d="M356 688q0 198 92.5 360.5t253.5 255.5t357 93t358 -94t254 -257t92 -360q0 -200 -92.5 -362.5t-253.5 -254.5t-356 -92q-148 0 -279 54t-224.5 148t-147.5 226t-54 283zM393 1376l-205 -291h-147l166 291h186zM549 686q0 -242 144 -399.5t368 -157.5q145 0 261.5 72.5 t181.5 199.5t65 285q0 238 -144.5 397.5t-365.5 159.5q-143 0 -259.5 -71t-183.5 -199t-67 -287z" glyph-name="Omicrontonos" horiz-adv-x="1880" unicode="Ό"/><glyph d="M393 1376l-205 -291h-147l166 291h186zM983 0q6 282 6 324v272l-325 530q-124 196 -160 250h219q11 -24 24 -49t22 -41.5t26 -46t26 -45.5l266 -440l256 434q3 4 107 188h207q-13 -23 -70 -111t-88 -139l-325 -530v-274q0 -184 6 -322h-197z" glyph-name="Upsilontonos" horiz-adv-x="1697" unicode="Ύ"/><glyph d="M215 -4v151q84 -6 260 -6h139q-153 105 -244 256t-91 330q0 150 57 276t153 210t223 131t267 47q203 0 365.5 -88.5t252 -240t89.5 -335.5q0 -180 -93 -332t-247 -254h120q197 0 279 6v-151q-68 4 -330 4h-256v162q156 84 248 231.5t92 319.5q0 227 -148.5 377.5 t-371.5 150.5q-231 0 -372.5 -148.5t-141.5 -379.5q0 -171 91 -319.5t247 -231.5v-162h-275q-245 0 -313 -4zM393 1376l-205 -291h-147l166 291h186z" glyph-name="Omegatonos" horiz-adv-x="1824" unicode="Ώ"/><glyph d="M455 1389l-205 -291h-148l166 291h187zM-100 1229q0 36 26 62t62 26q35 0 62.5 -26.5t27.5 -61.5t-26.5 -61.5t-63.5 -26.5q-35 0 -61.5 25.5t-26.5 62.5zM457 1229q0 36 26 62t64 26q34 0 61 -26.5t27 -61.5t-26.5 -61.5t-61.5 -26.5q-37 0 -63.5 25t-26.5 63zM199 0 q6 47 6 201v542q0 156 -6 205h188q-6 -49 -6 -203v-544q0 -158 6 -201h-188z" glyph-name="iotadieresistonos" horiz-adv-x="583" unicode="ΐ"/><glyph d="M43 0q19 40 39.5 86t34 78t36 87t35.5 85l441 1057h73l472 -1108q52 -119 137 -285h-217l-156 387h-555l-150 -387h-190zM436 526h447l-224 576z" glyph-name="Alpha" horiz-adv-x="1351" unicode="Α"/><glyph d="M195 0q8 125 8 360v633q0 251 -6 383h348q185 0 297 -91.5t112 -242.5q0 -93 -55.5 -170t-148.5 -116q134 -37 216.5 -133t82.5 -222q0 -127 -64.5 -219.5t-171.5 -137t-242 -44.5h-376zM772 1018q0 101 -66 161t-182 60h-137v-442h156q103 0 166 60.5t63 160.5zM860 401 q0 118 -77 188t-205 70h-191v-520h172q140 0 220.5 69t80.5 193z" glyph-name="Beta" horiz-adv-x="1155" unicode="Β"/><glyph d="M195 0q6 150 6 356v662q0 192 -6 358h374q236 0 330 4l-16 -161q-72 4 -303 4h-195v-875q0 -233 2 -348h-192z" glyph-name="Gamma" horiz-adv-x="962" unicode="Γ"/><glyph d="M43 0q81 174 135 309l451 1088h76l466 -1123q95 -218 125 -274h-1253zM659 1118l-368 -966h739z" glyph-name="uni0394" horiz-adv-x="1337" unicode="Δ"/><glyph d="M195 0q1 83 3.5 191t2.5 143v706q0 195 -6 336h352q237 0 346 4l-27 -159q-96 4 -344 4h-137v-434h147q230 0 316 2v-158q-176 4 -316 4h-147v-485h201q235 0 315 2v-158q-80 2 -309 2h-397z" glyph-name="Epsilon" horiz-adv-x="1038" unicode="Ε"/><glyph d="M92 0q10 18 68.5 116.5t91.5 157.5l536 949h-335q-246 0 -322 -4l-16 159q96 -2 360 -2h602l-706 -1222h411q227 0 303 2v-158q-78 2 -305 2h-688z" glyph-name="Zeta" horiz-adv-x="1173" unicode="Ζ"/><glyph d="M195 0q6 126 6 305v723q0 219 -6 348h194q-4 -127 -4 -452v-129h733v252q0 161 -4 329h195q-6 -188 -6 -348v-772q0 -136 6 -256h-195q4 156 4 291v354h-733v-354q0 -205 4 -291h-194z" glyph-name="Eta" horiz-adv-x="1503" unicode="Η"/><glyph d="M117 688q0 148 54.5 279.5t147.5 225.5t223 149t277 55q196 0 358 -94t254.5 -257t92.5 -360q0 -200 -93 -362.5t-254 -254.5t-356 -92q-198 0 -359 92t-253 255t-92 364zM309 686q0 -242 144 -399.5t368 -157.5q145 0 261.5 72.5t181.5 199.5t65 285q0 238 -144.5 397.5 t-365.5 159.5q-143 0 -259.5 -71t-183.5 -199t-67 -287zM940 762q148 0 178 2v-143q-106 4 -182 4h-274q-75 0 -181 -4v145q106 -4 178 -4h281z" glyph-name="Theta" horiz-adv-x="1640" unicode="Θ"/><glyph d="M195 0q6 138 6 336v670q0 217 -6 370h196q-4 -61 -4 -370v-670q0 -238 4 -336h-196z" glyph-name="Iota" horiz-adv-x="585" unicode="Ι"/><glyph d="M195 0q6 141 6 334v708q0 55 -1 110t-2.5 119t-2.5 105h194q-2 -111 -2 -334v-335l361 440q109 133 178 229h207q-49 -64 -99 -125l-452 -540l460 -527q12 -13 69 -78t97 -106h-250q-45 60 -133 164l-438 510v-338q0 -215 2 -336h-194z" glyph-name="Kappa" horiz-adv-x="1247" unicode="Κ"/><glyph d="M1311 0h-211l-430 1085l-430 -1085h-199q7 14 59 125t56 119l489 1157h62l479 -1135q81 -185 125 -266z" glyph-name="Lambda" horiz-adv-x="1351" unicode="Λ"/><glyph d="M131 0q2 25 14.5 165.5t14.5 180.5l76 1040h122l508 -937l502 937h123l61 -1062q9 -194 23 -324h-195q0 115 -10 297l-35 733l-446 -846h-53l-451 846l-47 -725q-10 -146 -14 -305h-193z" glyph-name="Mu" horiz-adv-x="1705" unicode="Μ"/><glyph d="M195 0q6 132 6 289v751q0 168 -6 353h90l872 -1033v672q0 246 -6 344h190q-8 -106 -8 -334v-761q0 -197 2 -285h-92l-866 1036v-751q0 -158 6 -281h-188z" glyph-name="Nu" horiz-adv-x="1536" unicode="Ν"/><glyph d="M106 1380q70 -4 218 -4h452q22 0 97 2t128 2v-168q-100 5 -225 5h-452q-60 0 -218 -5v168zM184 797q68 -2 211 -2h301q134 0 222 4v-166q-80 4 -222 4h-301q-150 0 -211 -4v164zM100 164q76 -4 281 -4h330q203 0 295 4v-168q-94 4 -295 4h-332q-193 0 -279 -4v168z" glyph-name="Xi" horiz-adv-x="1110" unicode="Ξ"/><glyph d="M117 688q0 148 54.5 279.5t147.5 225.5t223 149t277 55q196 0 358 -94t254.5 -257t92.5 -360q0 -200 -93 -362.5t-254 -254.5t-356 -92q-198 0 -359 92t-253 255t-92 364zM309 686q0 -242 144 -399.5t368 -157.5q145 0 261.5 72.5t181.5 199.5t65 285q0 238 -144.5 397.5 t-365.5 159.5q-143 0 -259.5 -71t-183.5 -199t-67 -287z" glyph-name="Omicron" horiz-adv-x="1640" unicode="Ο"/><glyph d="M195 0q10 165 10 330v1046h1042l-2 -1048q0 -236 4 -328h-196q10 155 10 330v889h-678v-891q0 -200 8 -328h-198z" glyph-name="Pi" horiz-adv-x="1445" unicode="Π"/><glyph d="M1006 942q0 -190 -131 -311t-365 -121h-125v-170q0 -248 4 -340h-194q6 135 6 356v719q0 184 -6 301h323q230 0 359 -118t129 -316zM813 946q0 129 -83 206t-226 77h-119v-572h119q138 0 223.5 78t85.5 211z" glyph-name="Rho" horiz-adv-x="1097" unicode="Ρ"/><glyph d="M45 0l498 709l-484 667h727q184 0 250 2l-18 -153q-84 4 -254 4h-402l375 -516l-397 -563h446q183 0 263 2v-154q-39 2 -156 2h-848z" glyph-name="Sigma" horiz-adv-x="1183" unicode="Σ"/><glyph d="M510 0q4 94 4 350v615q0 184 -2 258h-139q-219 0 -305 -4v159q47 0 153.5 -1t163.5 -1h461q235 0 315 2l-18 -159q-180 4 -305 4h-138q-2 -70 -2 -258v-615q0 -200 7 -350h-195z" glyph-name="Tau" horiz-adv-x="1218" unicode="Τ"/><glyph d="M520 0q6 282 6 324v272l-325 530q-124 196 -160 250h219q11 -24 24 -49t22 -41.5t26 -46t26 -45.5l267 -440l256 434q17 29 58 102.5t48 85.5h207q-13 -23 -70 -111t-88 -139l-325 -530v-274q0 -184 6 -322h-197z" glyph-name="Upsilon" horiz-adv-x="1234" unicode="Υ"/><glyph d="M117 686q0 256 167.5 422t436.5 190q0 76 -6 132h178q-2 -19 -2 -132q270 -24 438 -190.5t168 -421.5q0 -251 -167.5 -415.5t-438.5 -186.5q0 -51 4 -133h-180q6 56 6 133q-271 22 -437.5 186.5t-166.5 415.5zM301 686q0 -184 112.5 -306t307.5 -144v913 q-191 -20 -305.5 -145t-114.5 -318zM1311 686q0 191 -115 317t-305 146v-913q193 19 306.5 142.5t113.5 307.5z" glyph-name="Phi" horiz-adv-x="1611" unicode="Φ"/><glyph d="M45 0q131 181 199 285l260 405l-250 400q-24 38 -191 286h224q59 -107 116 -198l209 -340l222 356q72 122 110 182h209q-103 -138 -195 -280l-251 -391l254 -406q71 -110 204 -299h-223q-93 157 -113 188l-229 365l-250 -397q-11 -17 -49.5 -81.5t-44.5 -74.5h-211z" glyph-name="Chi" horiz-adv-x="1210" unicode="Χ"/><glyph d="M299 1376q6 -99 6 -219q0 -276 80.5 -400.5t269.5 -146.5v455q0 233 -4 311h191q-4 -84 -4 -311v-455q190 25 269 148t79 399q0 66 6 219h188q-12 -118 -12 -217q-1 -339 -130.5 -506t-399.5 -200v-129q0 -240 4 -324h-191q4 96 4 324v127q-273 36 -401.5 203t-128.5 505 q-4 132 -14 217h188z" glyph-name="Psi" horiz-adv-x="1490" unicode="Ψ"/><glyph d="M78 -4v151q84 -6 260 -6h139q-154 105 -245 256t-91 330q0 150 57 276t153.5 210t223.5 131t267 47q152 0 284.5 -52t224.5 -141t144.5 -211t52.5 -260q0 -180 -93 -332t-247 -254h121q197 0 279 6v-151q-68 4 -330 4h-256v162q156 84 248 231.5t92 319.5 q0 227 -148.5 377.5t-371.5 150.5q-231 0 -372.5 -148.5t-141.5 -379.5q0 -171 91 -319.5t247 -231.5v-162h-275q-245 0 -313 -4z" glyph-name="uni03A9" horiz-adv-x="1685" unicode="Ω"/><glyph d="M-31 1645q0 44 32.5 76t76.5 32t77 -32t33 -76q0 -45 -32.5 -77t-77.5 -32t-77 32t-32 77zM352 1645q0 44 32.5 76t76.5 32t77 -32t33 -76q0 -45 -32.5 -77t-77.5 -32t-77 32t-32 77zM195 0q6 138 6 336v670q0 217 -6 370h196q-4 -61 -4 -370v-670q0 -238 4 -336h-196z" glyph-name="Iotadieresis" horiz-adv-x="585" unicode="Ϊ"/><glyph d="M324 1645q0 44 32 76t76 32q45 0 78 -32t33 -76q0 -45 -33 -77t-78 -32q-44 0 -76 32t-32 77zM707 1645q0 44 32 76t76 32q45 0 78 -32t33 -76q0 -45 -33 -77t-78 -32t-76.5 32t-31.5 77zM520 0q6 282 6 324v272l-325 530q-124 196 -160 250h219q11 -24 24 -49t22 -41.5 t26 -46t26 -45.5l267 -440l256 434q17 29 58 102.5t48 85.5h207q-13 -23 -70 -111t-88 -139l-325 -530v-274q0 -184 6 -322h-197z" glyph-name="Upsilondieresis" horiz-adv-x="1234" unicode="Ϋ"/><glyph d="M817 1389l-205 -291h-147l166 291h186zM104 469q0 138 48.5 250.5t139.5 179t206 66.5q107 0 193 -63.5t132 -184.5q12 76 56 233l161 -24q-72 -228 -96 -406q47 -391 143 -391q16 0 37 6l19 -127q-57 -26 -109 -26q-83 0 -126.5 63.5t-78.5 220.5q-53 -150 -136.5 -218 t-203.5 -68q-168 0 -276.5 142.5t-108.5 346.5zM287 471q0 -144 69 -245t172 -101q89 0 147 84.5t120 265.5q-82 342 -260 342q-105 0 -176.5 -99t-71.5 -247z" glyph-name="alphatonos" horiz-adv-x="1187" unicode="ά"/><glyph d="M694 1389l-205 -291h-147l166 291h186zM762 37q-126 -57 -281 -57q-180 0 -284.5 82t-104.5 204q0 174 213 232q-89 28 -138.5 83.5t-49.5 131.5q0 117 100.5 188.5t255.5 71.5q160 0 287 -62l-33 -141q-111 57 -233 57q-88 0 -137.5 -35.5t-49.5 -99.5q0 -135 213 -141 q94 0 109 2v-135q-20 2 -92 2q-129 0 -190.5 -34.5t-61.5 -106.5q0 -154 211 -154q141 0 266 61v-149z" glyph-name="epsilontonos" horiz-adv-x="876" unicode="έ"/><glyph d="M803 1389l-205 -291h-147l165 291h187zM80 838l43 110h203l10 -139q111 156 336 156q164 0 260 -103t96 -303v-858q0 -162 4 -223h-182q4 82 4 231v869q0 121 -67 180t-175 59q-86 0 -158.5 -48t-117.5 -130v-408q0 -161 4 -231h-182q4 148 4 231v607h-82z" glyph-name="etatonos" horiz-adv-x="1175" unicode="ή"/><glyph d="M471 1389l-205 -291h-147l166 291h186zM199 0q6 47 6 201v542q0 156 -6 205h188q-6 -49 -6 -203v-544q0 -158 6 -201h-188z" glyph-name="iotatonos" horiz-adv-x="583" unicode="ί"/><glyph d="M725 1389l-205 -291h-147l166 291h186zM170 1229q0 36 26 62t62 26q35 0 62.5 -26.5t27.5 -61.5t-26.5 -61.5t-63.5 -26.5q-35 0 -61.5 25.5t-26.5 62.5zM727 1229q0 36 26 62t64 26q34 0 61 -26.5t27 -61.5t-26.5 -61.5t-61.5 -26.5q-37 0 -63.5 25t-26.5 63zM156 403 q0 38 10 148.5t10 134.5q0 66 -20.5 94.5t-61.5 28.5q-25 0 -39 -4l-30 133q65 29 135 29q207 0 207 -248q0 -28 -9.5 -144t-9.5 -141q0 -152 59.5 -229.5t170.5 -77.5q129 0 195.5 103t66.5 294q0 103 -30 218.5t-81 203.5h193q114 -196 114 -428q0 -249 -121.5 -393.5 t-336.5 -144.5q-199 0 -310.5 111.5t-111.5 311.5z" glyph-name="upsilondieresistonos" horiz-adv-x="1138" unicode="ΰ"/><glyph d="M104 469q0 138 48.5 250.5t139.5 179t206 66.5q107 0 193 -63.5t132 -184.5q12 76 56 233l161 -24q-72 -228 -96 -406q47 -391 143 -391q16 0 37 6l19 -127q-57 -26 -109 -26q-83 0 -126.5 63.5t-78.5 220.5q-53 -150 -136.5 -218t-203.5 -68q-168 0 -276.5 142.5 t-108.5 346.5zM287 471q0 -144 69 -245t172 -101q89 0 147 84.5t120 265.5q-82 342 -260 342q-105 0 -176.5 -99t-71.5 -247z" glyph-name="alpha" horiz-adv-x="1187" unicode="α"/><glyph d="M1110 403q0 -186 -129.5 -306t-329.5 -120q-143 0 -272 72v-270q0 -197 4 -283h-184q0 45 2 140t2 145v1259q0 210 114 327.5t299 117.5q174 0 283 -103t109 -256q0 -111 -68.5 -214t-167.5 -136q153 -21 245.5 -120.5t92.5 -252.5zM922 412q0 127 -87 203.5t-237 76.5 q-64 0 -76 -2v139q9 0 26 -1t25 -1q110 0 185.5 84.5t75.5 196.5q0 101 -61.5 166t-158.5 65q-107 0 -171 -79t-64 -222v-831q112 -80 254 -80q132 0 210.5 78t78.5 207z" glyph-name="beta" horiz-adv-x="1212" unicode="β"/><glyph d="M420 -514l24 506q-3 26 -8 78.5t-9.5 95.5t-12 103.5t-15.5 109t-21 105.5t-28 101t-35.5 86.5t-44.5 70t-55.5 44.5t-67.5 17q-45 0 -77 -12l-41 127q53 26 133 26q74 0 135 -34.5t100.5 -87t69.5 -123.5t45 -136t24.5 -132t12 -103.5t2.5 -59.5q18 115 47.5 209t77 179 t91.5 147.5t118 154.5l127 -96q-162 -195 -248 -379q-105 -222 -158 -495l-16 -502h-170z" glyph-name="gamma" horiz-adv-x="1114" unicode="γ"/><glyph d="M104 414q0 163 109.5 284t286.5 172q-148 98 -223.5 193t-75.5 178q0 115 109 176.5t282 61.5q202 0 401 -97l-18 -161q-203 122 -400 122q-90 0 -138 -31t-48 -89q0 -93 268 -279q74 -53 121 -90t99 -87.5t80.5 -96.5t47.5 -106t19 -126q0 -192 -132 -323t-327 -131 q-199 0 -330 120t-131 310zM291 406q3 -117 78 -194t196 -77q119 0 196 85.5t77 217.5q0 108 -60.5 187t-171.5 147q-57 -16 -110 -44.5t-102 -72t-77.5 -108t-25.5 -141.5z" glyph-name="delta" horiz-adv-x="1110" unicode="δ"/><glyph d="M762 37q-126 -57 -281 -57q-180 0 -284.5 82t-104.5 204q0 174 213 232q-89 28 -138.5 83.5t-49.5 131.5q0 117 100.5 188.5t255.5 71.5q160 0 287 -62l-33 -141q-111 57 -233 57q-88 0 -137.5 -35.5t-49.5 -99.5q0 -135 213 -141q94 0 109 2v-135q-20 2 -92 2 q-129 0 -190.5 -34.5t-61.5 -106.5q0 -154 211 -154q141 0 266 61v-149z" glyph-name="epsilon" horiz-adv-x="876" unicode="ε"/><glyph d="M96 461q0 214 143.5 437.5t376.5 420.5q-258 -25 -440 -25l-12 138q64 -5 194 -5q279 0 459 48l4 -132q-545 -437 -545 -851q0 -134 60 -203.5t194 -114.5q176 -58 249 -123.5t73 -159.5q0 -134 -117 -286l-137 37q10 21 25.5 51t21.5 43.5t14 33.5t10.5 37.5t2.5 38.5 q0 53 -49.5 91.5t-149.5 70.5q-377 114 -377 453z" glyph-name="zeta" horiz-adv-x="878" unicode="ζ"/><glyph d="M80 838l43 110h203l10 -139q111 156 336 156q164 0 260 -103t96 -303v-858q0 -162 4 -223h-182q4 82 4 231v869q0 121 -67 180t-175 59q-86 0 -158.5 -48t-117.5 -130v-408q0 -161 4 -231h-182q4 148 4 231v607h-82z" glyph-name="eta" horiz-adv-x="1175" unicode="η"/><glyph d="M104 723q0 220 52.5 386.5t156 261.5t246.5 95q144 0 248 -96t155.5 -262t51.5 -385q0 -218 -51.5 -383.5t-155.5 -260.5t-248 -95t-248 95t-155.5 260.5t-51.5 383.5zM285 795h549q-6 247 -78 386.5t-197 139.5q-124 0 -193.5 -138t-80.5 -388zM285 662 q11 -255 79.5 -395t194.5 -140t196 139.5t79 395.5h-549z" glyph-name="theta" horiz-adv-x="1118" unicode="θ"/><glyph d="M199 0q6 47 6 201v542q0 156 -6 205h188q-6 -49 -6 -203v-544q0 -158 6 -201h-188z" glyph-name="iota" horiz-adv-x="583" unicode="ι"/><glyph d="M199 0q0 24 2 81.5t2 88.5v567q0 38 -2 108.5t-2 102.5h186q-6 -189 -6 -207v-254q126 153 294.5 283.5t346.5 208.5l74 -141q-223 -93 -441 -287l273 -346q76 -98 172 -205h-240q-51 79 -110 158l-222 280q-86 -86 -147 -168v-270h-180z" glyph-name="kappa" horiz-adv-x="1153" unicode="κ"/><glyph d="M37 0q32 66 113 252l292 666l-84 219q-38 98 -87.5 125.5t-164.5 27.5l-16 131h90q117 0 196 -58.5t138 -197.5l397 -958q12 -28 42.5 -98.5t47.5 -108.5h-194q-30 103 -64 188l-215 545l-217 -555l-67 -178h-207z" glyph-name="lambda" horiz-adv-x="1038" unicode="λ"/><glyph d="M80 838l45 108h217q0 -34 -2 -100.5t-2 -100.5v-219q0 -397 264 -397q87 0 163 57.5t93 139.5v393q0 155 -4 227h184q-4 -68 -4 -221v-532q0 -101 10 -193h-143l-35 139q-111 -155 -282 -155q-100 0 -161.5 37t-117.5 129q17 -140 17 -232v-250q0 -76 6 -190h-170 q4 49 4 200v1160h-82z" glyph-name="uni03BC" horiz-adv-x="1241" unicode="μ"/><glyph d="M250 948q7 -19 18.5 -54.5t22 -65t20.5 -54.5l201 -553q221 265 221 510q0 108 -37 217h181q28 -126 28 -219q0 -172 -103 -356.5t-298 -390.5h-70l-284 702q-75 187 -113 264h213z" glyph-name="nu" horiz-adv-x="991" unicode="ν"/><glyph d="M102 389q0 115 84.5 194.5t227.5 112.5q-230 68 -230 232q0 98 94 196t259 185q-220 -34 -379 -41l-27 145q99 0 158 2q322 3 553 45l10 -119q-477 -175 -477 -383q0 -91 71.5 -138.5t206.5 -47.5q67 0 90 4v-137q-41 3 -90 0q-95 -1 -178.5 -28.5t-136.5 -81t-53 -121.5 q0 -78 53.5 -125.5t183.5 -87.5q183 -57 264.5 -122t81.5 -182q0 -63 -28 -124t-92 -146l-142 78q74 104 74 172q0 104 -207 160q-177 46 -274 137.5t-97 220.5z" glyph-name="xi" horiz-adv-x="903" unicode="ξ"/><glyph d="M104 471q0 136 62.5 250t171 180t237.5 66q131 0 240.5 -67t171.5 -181t62 -248q0 -205 -137 -346t-337 -141q-132 0 -240 65t-169.5 177t-61.5 245zM281 471q0 -142 83.5 -241t210.5 -99q131 0 213 98t82 242q0 149 -83.5 245.5t-211.5 96.5q-87 0 -156 -53 t-103.5 -130.5t-34.5 -158.5z" glyph-name="omicron" horiz-adv-x="1150" unicode="ο"/><glyph d="M80 799v149h946q129 0 170 4v-157q-90 4 -139 4h-78v-480q0 -179 31 -319h-189q-20 132 -20 309v490h-295v-799h-174v799h-252z" glyph-name="pi" horiz-adv-x="1257" unicode="π"/><glyph d="M199 500q0 236 108 362.5t307 126.5q215 0 337 -133.5t122 -363.5q0 -223 -121.5 -367.5t-326.5 -144.5q-133 0 -252 83v-567h-174v1004zM881 492q0 161 -73.5 253.5t-191.5 92.5q-121 0 -182 -89.5t-61 -248.5v-277q108 -88 227 -88q135 0 208 98t73 259z" glyph-name="rho" horiz-adv-x="1177" unicode="ρ"/><glyph d="M104 471q0 109 38.5 202.5t105 157.5t156 100t190.5 36q85 0 203 -23v-166q-87 35 -199 35q-137 0 -227 -96t-90 -248q0 -125 63.5 -198.5t212.5 -120.5q148 -47 206 -108.5t58 -166.5q0 -64 -25 -123.5t-79 -150.5l-164 8q51 85 76.5 138.5t25.5 92.5q0 58 -37 99.5 t-135 70.5q-176 50 -277.5 165t-101.5 296z" glyph-name="uni03C2" horiz-adv-x="851" unicode="ς"/><glyph d="M104 461q0 228 142.5 357.5t392.5 129.5h537l-48 -155h-282q135 -156 135 -347q0 -124 -51 -229t-152.5 -171t-234.5 -66q-202 0 -320.5 135.5t-118.5 345.5zM793 459q0 102 -32.5 182t-96.5 154h-37q-161 0 -247.5 -86.5t-86.5 -249.5q0 -149 66 -237.5t182 -88.5 q115 0 183.5 91.5t68.5 234.5z" glyph-name="sigma" horiz-adv-x="1187" unicode="σ"/><glyph d="M913 948l-24 -145q-16 1 -64.5 3.5t-66.5 2.5h-211l-6 -539q0 -151 112 -151q42 0 82 16l27 -115q-72 -40 -162 -40q-114 0 -175 71t-60 209l6 549h-84q-109 0 -219 -8v135q61 12 227 12h618z" glyph-name="tau" horiz-adv-x="1001" unicode="τ"/><glyph d="M156 403q0 38 10 148.5t10 134.5q0 66 -20.5 94.5t-61.5 28.5q-25 0 -39 -4l-30 133q65 29 135 29q207 0 207 -248q0 -28 -9.5 -144t-9.5 -141q0 -152 59.5 -229.5t170.5 -77.5q129 0 195.5 103t66.5 294q0 103 -30 218.5t-81 203.5h193q114 -196 114 -428 q0 -249 -121.5 -393.5t-336.5 -144.5q-199 0 -310.5 111.5t-111.5 311.5z" glyph-name="upsilon" horiz-adv-x="1138" unicode="υ"/><glyph d="M104 475q0 203 140.5 339t363.5 153v213q0 50 -3.5 136.5t-4.5 106.5h182q0 -9 -4 -100.5t-4 -140.5v-215q239 -20 371.5 -151.5t132.5 -338.5q0 -208 -133.5 -341.5t-368.5 -153.5v-209q0 -134 6 -242h-182q1 21 4.5 107t3.5 135v209q-223 19 -363.5 154.5t-140.5 338.5 zM274 475q0 -146 90 -236.5t244 -101.5v674q-154 -9 -244 -99.5t-90 -236.5zM1108 475q0 146 -90 236.5t-244 99.5v-674q154 11 244 101.5t90 236.5z" glyph-name="phi" horiz-adv-x="1380" unicode="φ"/><glyph d="M213 -481h-195l396 739l-142 395q-31 87 -68 122.5t-85 35.5q-22 0 -43 -6l-31 141q50 21 119 21q74 0 141 -51.5t107 -161.5l114 -316l267 508h194l-377 -706l148 -439q28 -78 65 -107.5t84 -29.5q15 0 47 4l29 -137q-66 -25 -115 -25q-71 0 -134.5 45.5t-98.5 135.5 l-139 372z" glyph-name="chi" horiz-adv-x="1003" unicode="χ"/><glyph d="M614 -522q0 33 2 109t2 120v268q-239 15 -373 142.5t-134 343.5q0 54 13 138.5t13 131.5q0 103 -41 215h178q41 -97 41 -217q0 -45 -13 -134t-13 -124q0 -153 86 -240.5t243 -105.5v1005q0 46 -2 151t-2 142h177q-5 -215 -5 -293v-1003q173 20 272 136t99 298 q0 224 -102 385h184q98 -164 98 -395q0 -246 -145.5 -402.5t-405.5 -173.5v-272q0 -45 5 -225h-177z" glyph-name="psi" horiz-adv-x="1439" unicode="ψ"/><glyph d="M104 436q0 259 189 514l190 -12q-196 -231 -196 -487q0 -143 56 -229.5t151 -86.5q69 0 114 50.5t63.5 129.5t18.5 185q0 155 -4 202h178q-8 -65 -8 -167q0 -92 10 -162.5t32 -125.5t61 -83.5t94 -28.5q98 0 152.5 88.5t54.5 227.5q0 260 -195 487l192 12 q185 -250 185 -510q0 -195 -98 -325.5t-269 -130.5q-107 0 -189.5 62.5t-113.5 168.5q-31 -108 -111 -170.5t-192 -62.5q-169 0 -267 127.5t-98 326.5z" glyph-name="omega" horiz-adv-x="1546" unicode="ω"/><glyph d="M-53 1255q0 44 32 76.5t76 32.5t77.5 -32.5t33.5 -76.5q0 -45 -33 -76.5t-78 -31.5t-76.5 31.5t-31.5 76.5zM330 1255q0 44 32 76.5t76 32.5t77.5 -32.5t33.5 -76.5q0 -45 -33 -76.5t-78 -31.5t-76.5 31.5t-31.5 76.5zM199 0q6 47 6 201v542q0 156 -6 205h188 q-6 -49 -6 -203v-544q0 -158 6 -201h-188z" glyph-name="iotadieresis" horiz-adv-x="583" unicode="ϊ"/><glyph d="M217 1255q0 44 32.5 76.5t76.5 32.5t77 -32.5t33 -76.5q0 -45 -32.5 -76.5t-77.5 -31.5t-77 31.5t-32 76.5zM600 1255q0 44 32.5 76.5t76.5 32.5t77 -32.5t33 -76.5q0 -45 -32.5 -76.5t-77.5 -31.5t-77 31.5t-32 76.5zM156 403q0 38 10 148.5t10 134.5q0 66 -20.5 94.5 t-61.5 28.5q-25 0 -39 -4l-30 133q65 29 135 29q207 0 207 -248q0 -28 -9.5 -144t-9.5 -141q0 -152 59.5 -229.5t170.5 -77.5q129 0 195.5 103t66.5 294q0 103 -30 218.5t-81 203.5h193q114 -196 114 -428q0 -249 -121.5 -393.5t-336.5 -144.5q-199 0 -310.5 111.5 t-111.5 311.5z" glyph-name="upsilondieresis" horiz-adv-x="1138" unicode="ϋ"/><glyph d="M795 1389l-205 -291h-148l166 291h187zM104 471q0 136 62.5 250t171 180t237.5 66q131 0 240.5 -67t171.5 -181t62 -248q0 -205 -137 -346t-337 -141q-132 0 -240 65t-169.5 177t-61.5 245zM281 471q0 -142 83.5 -241t210.5 -99q131 0 213 98t82 242q0 149 -83.5 245.5 t-211.5 96.5q-87 0 -156 -53t-103.5 -130.5t-34.5 -158.5z" glyph-name="omicrontonos" horiz-adv-x="1150" unicode="ό"/><glyph d="M741 1389l-204 -291h-148l166 291h186zM156 403q0 38 10 148.5t10 134.5q0 66 -20.5 94.5t-61.5 28.5q-25 0 -39 -4l-30 133q65 29 135 29q207 0 207 -248q0 -28 -9.5 -144t-9.5 -141q0 -152 59.5 -229.5t170.5 -77.5q129 0 195.5 103t66.5 294q0 103 -30 218.5 t-81 203.5h193q114 -196 114 -428q0 -249 -121.5 -393.5t-336.5 -144.5q-199 0 -310.5 111.5t-111.5 311.5z" glyph-name="upsilontonos" horiz-adv-x="1138" unicode="ύ"/><glyph d="M995 1389l-204 -291h-148l166 291h186zM104 436q0 259 189 514l190 -12q-196 -231 -196 -487q0 -143 56 -229.5t151 -86.5q69 0 114 50.5t63.5 129.5t18.5 185q0 155 -4 202h178q-8 -65 -8 -167q0 -92 10 -162.5t32 -125.5t61 -83.5t94 -28.5q98 0 152.5 88.5t54.5 227.5 q0 260 -195 487l192 12q185 -250 185 -510q0 -195 -98 -325.5t-269 -130.5q-107 0 -189.5 62.5t-113.5 168.5q-31 -108 -111 -170.5t-192 -62.5q-169 0 -267 127.5t-98 326.5z" glyph-name="omegatonos" horiz-adv-x="1546" unicode="ώ"/><glyph d="M188 1645q0 44 32.5 76t76.5 32q45 0 78 -32t33 -76q0 -45 -33 -77t-78 -32t-77 32t-32 77zM571 1645q0 44 32.5 76t76.5 32q45 0 78 -32t33 -76q0 -45 -33 -77t-78 -32t-77 32t-32 77zM195 0q1 83 3.5 191t2.5 143v706q0 195 -6 336h352q237 0 346 4l-27 -159 q-96 4 -344 4h-137v-434h147q230 0 316 2v-158q-176 4 -316 4h-147v-485h201q235 0 315 2v-158q-80 2 -309 2h-397z" glyph-name="uni0401" horiz-adv-x="1038" unicode="Ё"/><glyph d="M510 0q2 94 2 352v869h-141q-215 0 -303 -4v163q45 0 142.5 -2t149.5 -2h519q229 0 311 2l-19 -161q-184 4 -299 4h-172v-426q86 8 189 8q247 0 381.5 -116t134.5 -314q0 -162 -113.5 -274.5t-275.5 -112.5q-95 0 -160 22l27 152q67 -15 112 -15q96 0 163 67t67 171 q0 116 -90.5 183t-264.5 67q-131 0 -170 -8v-279q0 -243 7 -346h-197z" glyph-name="uni0402" horiz-adv-x="1546" unicode="Ђ"/><glyph d="M788 1778l-204 -291h-148l166 291h186zM195 0q6 150 6 356v662q0 192 -6 358h374q236 0 330 4l-16 -161q-72 4 -303 4h-195v-875q0 -233 2 -348h-192z" glyph-name="uni0403" horiz-adv-x="962" unicode="Ѓ"/><glyph d="M844 135q82 0 174.5 25t165.5 61v-180q-160 -61 -361 -61q-202 0 -363.5 90t-252 250.5t-90.5 361.5q0 146 54 277.5t148 228t229 153t288 56.5q176 0 344 -62v-184q-138 86 -332 86q-208 0 -353.5 -125t-179.5 -321h297q142 0 314 4v-158q-88 4 -314 4h-303 q15 -219 164.5 -362.5t370.5 -143.5z" glyph-name="uni0404" horiz-adv-x="1302" unicode="Є"/><glyph d="M123 47l39 176q58 -48 137.5 -76t165.5 -28q116 0 185 58t69 159q0 47 -19.5 89t-55.5 77t-71 60t-81 52q-47 28 -76 46t-72 49.5t-69.5 61t-53 68.5t-39 85t-12.5 98q0 171 113.5 274t300.5 103q68 0 149 -16t127 -37v-170q-102 77 -268 77q-104 0 -168 -53.5 t-64 -146.5q0 -79 56.5 -141.5t169.5 -125.5q124 -73 194 -133t105 -131t35 -164q0 -169 -124 -277t-325 -108q-177 0 -348 74z" glyph-name="uni0405" horiz-adv-x="1050" unicode="Ѕ"/><glyph d="M195 0q6 138 6 336v670q0 217 -6 370h196q-4 -61 -4 -370v-670q0 -238 4 -336h-196z" glyph-name="uni0406" horiz-adv-x="585" unicode="І"/><glyph d="M-6 1645q0 44 32 76t76 32q45 0 78 -32t33 -76q0 -45 -33 -77t-78 -32q-44 0 -76 32t-32 77zM377 1645q0 44 32 76t76 32q45 0 78 -32t33 -76q0 -45 -33 -77t-78 -32t-76.5 32t-31.5 77zM195 0q6 138 6 336v670q0 217 -6 370h196q-4 -61 -4 -370v-670q0 -238 4 -336h-196 z" glyph-name="uni0407" horiz-adv-x="585" unicode="Ї"/><glyph d="M387 -39q0 -177 -103 -282t-278 -105q-70 0 -164 23v163q56 -30 150 -30q101 0 156 66.5t55 183.5v1048q0 252 -4 348h192q-4 -168 -4 -348v-1067z" glyph-name="uni0408" horiz-adv-x="585" unicode="Ј"/><glyph d="M1194 827q247 0 394 -106.5t147 -300.5q0 -195 -141.5 -307.5t-379.5 -112.5h-323q0 56 2 182.5t2 194.5v856h-266q-27 -312 -94 -615q-35 -168 -73 -280.5t-90.5 -194t-121.5 -118.5t-162 -37q-32 0 -53 6v178q12 -4 39 -4q57 0 104 38.5t84.5 116.5t67 178t57.5 240 q61 296 92 635h606q-6 -177 -6 -364v-185h115zM1214 147q155 0 243.5 72t88.5 195q0 131 -95 198.5t-257 67.5h-115v-533h135z" glyph-name="uni0409" horiz-adv-x="1878" unicode="Љ"/><glyph d="M1217 801q249 0 394.5 -100.5t145.5 -294.5q0 -193 -140.5 -299.5t-381.5 -106.5h-320q5 292 5 377v270h-535v-356q0 -205 4 -291h-194q6 126 6 305v723q0 219 -6 348h194q-4 -127 -4 -452v-127h535v215q0 114 -5 364h197q-6 -89 -6 -364v-211h111zM1235 147 q159 0 246.5 65.5t87.5 186.5q0 130 -94.5 192t-260.5 62h-108v-506h129z" glyph-name="uni040A" horiz-adv-x="1898" unicode="Њ"/><glyph d="M514 0q4 86 4 332v899h-225q-96 0 -225 -6v155q32 0 108 -2t117 -2l627 2q46 0 127 2t116 2l-18 -157q-135 6 -225 6h-220v-383q45 47 120 76.5t163 29.5q196 0 303 -107t107 -292v-358q0 -171 2 -197h-189q4 123 4 377v207q0 110 -69.5 169.5t-179.5 59.5 q-82 0 -151.5 -33.5t-109.5 -105.5v-342q0 -230 5 -332h-191z" glyph-name="uni040B" horiz-adv-x="1499" unicode="Ћ"/><glyph d="M881 1778l-205 -291h-148l166 291h187zM195 0q6 276 6 295v792q0 19 -6 289h194q-4 -172 -4 -278v-342h178q62 0 110.5 46t92.5 134q48 95 121.5 245t95.5 195h215q-24 -34 -66 -106.5t-77 -136.5t-70 -129t-39 -72q-52 -102 -96.5 -159.5t-101.5 -80.5q59 -27 109.5 -86 t100.5 -157q2 -3 46 -94.5t98.5 -195t91.5 -159.5h-221q-40 82 -104 215.5t-103 212.5q-41 88 -87 135t-106 47h-188v-309q0 -113 4 -301h-194z" glyph-name="uni040C" horiz-adv-x="1275" unicode="Ќ"/><glyph d="M307 1782h152q2 -74 41.5 -116t115.5 -42q77 0 115.5 41.5t40.5 116.5h152q-2 -132 -85 -212.5t-223 -80.5q-142 0 -224.5 81t-84.5 212zM186 -6v166h76q95 0 144 36t112 162l-362 777q-83 179 -113 241h190q16 -60 84 -202l299 -633l275 612q45 110 82 223h182 l-125 -278l-340 -770q-78 -177 -174 -255.5t-223 -78.5h-107z" glyph-name="uni040E" horiz-adv-x="1196" unicode="Ў"/><glyph d="M195 1376h200q-6 -240 -6 -334v-874h672v879q0 182 -6 329h198q0 -2 -4 -132t-4 -197v-1047h-422v-70q0 -139 4 -319h-190l6 330v59h-438v1047q0 162 -10 329z" glyph-name="uni040F" horiz-adv-x="1447" unicode="Џ"/><glyph d="M43 0q19 40 39.5 86t34 78t36 87t35.5 85l441 1057h73l472 -1108q52 -119 137 -285h-217l-156 387h-555l-150 -387h-190zM436 526h447l-224 576z" glyph-name="uni0410" horiz-adv-x="1351" unicode="А"/><glyph d="M195 0v1376h370q236 0 330 4l-18 -161q-72 4 -304 4h-192v-396h115q247 0 393.5 -106.5t146.5 -300.5q0 -195 -141.5 -307.5t-380.5 -112.5h-319zM848 414q0 131 -95.5 198.5t-258.5 67.5h-113v-533h133q156 0 245 72.5t89 194.5z" glyph-name="uni0411" horiz-adv-x="1177" unicode="Б"/><glyph d="M195 0q8 125 8 360v633q0 251 -6 383h348q185 0 297 -91.5t112 -242.5q0 -93 -55.5 -170t-148.5 -116q134 -37 216.5 -133t82.5 -222q0 -127 -64.5 -219.5t-171.5 -137t-242 -44.5h-376zM772 1018q0 101 -66 161t-182 60h-137v-442h156q103 0 166 60.5t63 160.5zM860 401 q0 118 -77 188t-205 70h-191v-520h172q140 0 220.5 69t80.5 193z" glyph-name="uni0412" horiz-adv-x="1155" unicode="В"/><glyph d="M195 0q6 150 6 356v662q0 192 -6 358h374q236 0 330 4l-16 -161q-72 4 -303 4h-195v-875q0 -233 2 -348h-192z" glyph-name="uni0413" horiz-adv-x="962" unicode="Г"/><glyph d="M74 -389q4 68 4 239v304l82 -7q291 392 407 1233h631v-1233h148v-268q0 -51 2 -143t2 -125h-170l2 385l-934 4l2 -389h-176zM1016 147v1086h-314q-71 -678 -337 -1081z" glyph-name="uni0414" horiz-adv-x="1439" unicode="Д"/><glyph d="M195 0q1 83 3.5 191t2.5 143v706q0 195 -6 336h352q237 0 346 4l-27 -159q-96 4 -344 4h-137v-434h147q230 0 316 2v-158q-176 4 -316 4h-147v-485h201q235 0 315 2v-158q-80 2 -309 2h-397z" glyph-name="uni0415" horiz-adv-x="1038" unicode="Е"/><glyph d="M72 0q89 123 231 449q81 183 207 239q-117 53 -207 240q-26 52 -65 131t-61 123t-52 98.5t-57 95.5h211l210 -428q51 -102 103 -147t119 -45h106v409q0 22 -6 211h195q0 -35 -2.5 -104.5t-2.5 -104.5v-411h105q68 0 120 45t103 147l211 428h209q-27 -41 -57.5 -97 t-50 -95t-62 -126.5t-63.5 -129.5q-96 -190 -209 -240q127 -55 206 -239q129 -304 234 -449h-231l-185 395q-52 115 -103 167t-116 52h-111v-368q0 -40 2.5 -122.5t2.5 -123.5h-195q6 216 6 246v368h-112q-67 0 -122.5 -52.5t-105.5 -166.5l-174 -395h-231z" glyph-name="uni0416" horiz-adv-x="1818" unicode="Ж"/><glyph d="M178 27v161q111 -57 250 -57q138 0 219.5 68t81.5 190q0 112 -85 175t-222 63q-55 0 -90 -2v143q14 0 40 -1t40 -1q133 0 207.5 63t74.5 170q0 101 -65 162.5t-174 61.5q-150 0 -275 -80v166q154 65 295 65q189 0 298.5 -94t109.5 -254q0 -108 -71.5 -190t-201.5 -127 q143 -36 228.5 -125.5t85.5 -208.5q0 -176 -127.5 -284.5t-341.5 -108.5q-157 0 -277 45z" glyph-name="uni0417" horiz-adv-x="1028" unicode="З"/><glyph d="M1341 0h-188q6 123 6 281v751l-866 -1036h-92q2 88 2 285v761q0 228 -8 334h190q-6 -98 -6 -344v-672l872 1033h90q-6 -185 -6 -353v-751q0 -157 6 -289z" glyph-name="uni0418" horiz-adv-x="1536" unicode="И"/><glyph d="M442 1782h152q2 -74 42 -116t116 -42q77 0 115 41.5t40 116.5h152q-2 -132 -84.5 -212.5t-222.5 -80.5q-142 0 -225 81t-85 212zM1341 0h-188q6 123 6 281v751l-866 -1036h-92q2 88 2 285v761q0 228 -8 334h190q-6 -98 -6 -344v-672l872 1033h90q-6 -185 -6 -353v-751 q0 -157 6 -289z" glyph-name="uni0419" horiz-adv-x="1536" unicode="Й"/><glyph d="M195 0q6 276 6 295v792q0 19 -6 289h194q-4 -172 -4 -278v-342h178q62 0 110.5 46t92.5 134q48 95 121.5 245t95.5 195h215q-24 -34 -66 -106.5t-77 -136.5t-70 -129t-39 -72q-52 -102 -96.5 -159.5t-101.5 -80.5q59 -27 109.5 -86t100.5 -157q2 -3 46 -94.5t98.5 -195 t91.5 -159.5h-221q-40 82 -104 215.5t-103 212.5q-41 88 -87 135t-106 47h-188v-309q0 -113 4 -301h-194z" glyph-name="uni041A" horiz-adv-x="1275" unicode="К"/><glyph d="M35 -6v178q12 -4 39 -4q57 0 104 38.5t84.5 116.5t67 178t57.5 240q61 296 92 635h680v-1110q0 -63 2 -150.5t2 -115.5h-194q4 180 4 266v967h-344q-27 -312 -94 -615q-35 -168 -73 -280.5t-90.5 -194t-121.5 -118.5t-162 -37q-32 0 -53 6z" glyph-name="uni041B" horiz-adv-x="1357" unicode="Л"/><glyph d="M131 0q2 25 14.5 165.5t14.5 180.5l76 1040h122l508 -937l502 937h123l61 -1062q9 -194 23 -324h-195q0 115 -10 297l-35 733l-446 -846h-53l-451 846l-47 -725q-10 -146 -14 -305h-193z" glyph-name="uni041C" horiz-adv-x="1705" unicode="М"/><glyph d="M195 0q6 126 6 305v723q0 219 -6 348h194q-4 -127 -4 -452v-129h733v252q0 161 -4 329h195q-6 -188 -6 -348v-772q0 -136 6 -256h-195q4 156 4 291v354h-733v-354q0 -205 4 -291h-194z" glyph-name="uni041D" horiz-adv-x="1503" unicode="Н"/><glyph d="M117 688q0 148 54.5 279.5t147.5 225.5t223 149t277 55q196 0 358 -94t254.5 -257t92.5 -360q0 -200 -93 -362.5t-254 -254.5t-356 -92q-198 0 -359 92t-253 255t-92 364zM309 686q0 -242 144 -399.5t368 -157.5q145 0 261.5 72.5t181.5 199.5t65 285q0 238 -144.5 397.5 t-365.5 159.5q-143 0 -259.5 -71t-183.5 -199t-67 -287z" glyph-name="uni041E" horiz-adv-x="1640" unicode="О"/><glyph d="M195 0q10 165 10 330v1046h1042l-2 -1048q0 -236 4 -328h-196q10 155 10 330v889h-678v-891q0 -200 8 -328h-198z" glyph-name="uni041F" horiz-adv-x="1445" unicode="П"/><glyph d="M1006 942q0 -190 -131 -311t-365 -121h-125v-170q0 -248 4 -340h-194q6 135 6 356v719q0 184 -6 301h323q230 0 359 -118t129 -316zM813 946q0 129 -83 206t-226 77h-119v-572h119q138 0 223.5 78t85.5 211z" glyph-name="uni0420" horiz-adv-x="1097" unicode="Р"/><glyph d="M117 682q0 146 54 277.5t148 228t229 153t288 56.5q176 0 344 -62v-184q-138 86 -332 86q-156 0 -280.5 -73.5t-192.5 -199t-68 -278.5q0 -154 69 -280t192 -198.5t276 -72.5q82 0 174.5 25t165.5 61v-180q-160 -61 -361 -61q-202 0 -363.5 90t-252 250.5t-90.5 361.5z" glyph-name="uni0421" horiz-adv-x="1302" unicode="С"/><glyph d="M510 0q4 94 4 350v615q0 184 -2 258h-139q-219 0 -305 -4v159q47 0 153.5 -1t163.5 -1h461q235 0 315 2l-18 -159q-180 4 -305 4h-138q-2 -70 -2 -258v-615q0 -200 7 -350h-195z" glyph-name="uni0422" horiz-adv-x="1218" unicode="Т"/><glyph d="M186 -6v166h76q95 0 144 36t112 162l-362 777q-83 179 -113 241h190q16 -60 84 -202l299 -633l275 612q45 110 82 223h182l-125 -278l-340 -770q-78 -177 -174 -255.5t-223 -78.5h-107z" glyph-name="uni0423" horiz-adv-x="1196" unicode="У"/><glyph d="M117 674q0 159 78 278.5t205.5 183t289.5 76.5q0 130 -2 164h189q-1 -25 -1.5 -54t0 -48.5t1 -36.5t0.5 -18q118 -10 219.5 -50.5t179 -107.5t122 -167t44.5 -220t-44.5 -217t-123 -161t-181 -101.5t-223.5 -47.5q0 -110 4 -178h-188q2 27 2 174q-165 13 -291.5 74.5 t-203 179t-76.5 277.5zM305 674q0 -169 101.5 -271t285.5 -112v780q-184 -13 -285.5 -119t-101.5 -278zM1253 674q0 173 -101 278t-282 117v-778q181 10 282 112.5t101 270.5z" glyph-name="uni0424" horiz-adv-x="1558" unicode="Ф"/><glyph d="M45 0q131 181 199 285l260 405l-250 400q-24 38 -191 286h224q59 -107 116 -198l209 -340l222 356q72 122 110 182h209q-103 -138 -195 -280l-251 -391l254 -406q71 -110 204 -299h-223q-93 157 -113 188l-229 365l-250 -397q-11 -17 -49.5 -81.5t-44.5 -74.5h-211z" glyph-name="uni0425" horiz-adv-x="1210" unicode="Х"/><glyph d="M201 0v1047q0 229 -6 329h196q-6 -135 -6 -332v-886h668v889q0 182 -6 329h194q-4 -172 -4 -329v-893h149v-211q0 -153 7 -332h-187q4 196 4 332v57h-1009z" glyph-name="uni0426" horiz-adv-x="1482" unicode="Ц"/><glyph d="M154 1376h196q-4 -47 -4 -196l-2 -174q0 -97 18 -159t60 -98t101.5 -49.5t152.5 -13.5q74 0 205 25v362q0 213 -4 303h194q-6 -132 -6 -303v-768q0 -53 6 -305h-194q4 176 4 305v238q-134 -25 -222 -25q-261 0 -380 117t-119 377v151q0 119 -6 213z" glyph-name="uni0427" horiz-adv-x="1267" unicode="Ч"/><glyph d="M1720 0h-1519v1044q0 232 -6 332h192q-6 -216 -6 -334v-874h489v876q0 236 -2 332h191q-8 -172 -8 -334v-874h491v876q0 169 -10 332h192q-4 -172 -4 -332v-1044z" glyph-name="uni0428" horiz-adv-x="1918" unicode="Ш"/><glyph d="M201 0v1049q0 229 -6 327h194q-6 -60 -6 -329v-879h489v879q0 233 -4 329h191q-6 -129 -6 -329v-879h489v881q0 77 -2.5 152.5t-5 121.5t-2.5 53h194q-4 -86 -4 -327v-883h164v-223q0 -230 4 -332h-186q4 188 4 319v70h-1507z" glyph-name="uni0429" horiz-adv-x="1980" unicode="Щ"/><glyph d="M469 0q0 56 2 182.5t2 194.5v848h-213q-156 0 -211 -8l-33 165q30 0 118 -2t128 -2h395v-551h115q247 0 394 -106.5t147 -300.5q0 -195 -141 -307.5t-379 -112.5h-324zM1124 414q0 131 -95 198.5t-257 67.5h-115v-533h136q155 0 243 72t88 195z" glyph-name="uni042A" horiz-adv-x="1456" unicode="Ъ"/><glyph d="M195 0q6 351 6 377v635q0 214 -6 364h196q-6 -177 -6 -364v-185h115q247 0 393.5 -106.5t146.5 -300.5q0 -195 -141.5 -307.5t-380.5 -112.5h-323zM1376 0q6 138 6 336v670q0 217 -6 370h197q-4 -61 -4 -370v-670q0 -238 4 -336h-197zM852 414q0 131 -95 198.5t-259 67.5 h-113v-533h133q157 0 245.5 72t88.5 195z" glyph-name="uni042B" horiz-adv-x="1767" unicode="Ы"/><glyph d="M195 0q6 351 6 377v635q0 214 -6 364h196q-6 -177 -6 -364v-185h115q247 0 393.5 -106.5t146.5 -300.5q0 -195 -141.5 -307.5t-380.5 -112.5h-323zM852 414q0 131 -95 198.5t-259 67.5h-113v-533h133q157 0 245.5 72t88.5 195z" glyph-name="uni042C" horiz-adv-x="1181" unicode="Ь"/><glyph d="M467 1397q153 0 288 -56.5t229 -153t148 -228t54 -277.5q0 -201 -90.5 -361.5t-252.5 -250.5t-364 -90q-200 0 -360 61v180q73 -36 165.5 -61t174.5 -25q221 0 370 143.5t164 362.5h-303q-225 0 -313 -4v158q172 -4 313 -4h297q-34 196 -179 321t-353 125 q-194 0 -332 -86v184q168 62 344 62z" glyph-name="uni042D" horiz-adv-x="1302" unicode="Э"/><glyph d="M195 0q6 135 6 317v695q0 214 -6 364h194q-4 -118 -4 -364v-226h297q17 130 70 242.5t133.5 193.5t189 127t230.5 46q136 0 254 -57.5t199.5 -155.5t128 -230t46.5 -278q0 -152 -47 -282t-129.5 -221t-199 -142.5t-252.5 -51.5q-171 0 -309.5 84t-221 232.5t-94.5 335.5 h-295v-314q0 -219 4 -315h-194zM868 674q0 -235 120.5 -381t316.5 -146q197 0 315.5 145.5t118.5 381.5q0 152 -52.5 277.5t-152.5 200.5t-229 75q-127 0 -227.5 -73.5t-155 -199t-54.5 -280.5z" glyph-name="uni042E" horiz-adv-x="2048" unicode="Ю"/><glyph d="M227 981q0 98 38 175t104 124.5t151.5 71.5t184.5 24h327q-6 -78 -6 -327v-687q0 -272 6 -362h-192q4 176 4 356v211h-170l-387 -567h-236q156 188 256 332l197 289q-277 91 -277 360zM416 969q0 -121 85.5 -189.5t205.5 -68.5h137v516h-133q-128 0 -211.5 -67 t-83.5 -191z" glyph-name="uni042F" horiz-adv-x="1226" unicode="Я"/><glyph d="M96 274q0 139 103 217t284 89q168 8 234 8v41q0 95 -69.5 148.5t-172.5 53.5q-140 0 -258 -69l-57 123q141 86 338 86q176 0 283.5 -98t107.5 -271v-301q0 -179 33 -301h-181l-12 111q-131 -131 -315 -131q-134 0 -226 81.5t-92 212.5zM276 276q0 -75 45 -119t121 -44 q74 0 148.5 31t126.5 85v232l-193 -6q-124 -5 -186 -46t-62 -133z" glyph-name="uni0430" unicode="а"/><glyph d="M88 618q0 316 123.5 497t380.5 255q38 11 70 21.5t67 24t53.5 20.5t63.5 25.5t63 25.5v-166q-66 -31 -125 -50.5t-186 -53.5q-294 -82 -334 -373q49 43 136.5 71.5t185.5 28.5q193 0 308.5 -137t115.5 -344q0 -213 -128.5 -348t-330.5 -135q-220 0 -341.5 162.5 t-121.5 475.5zM838 457q0 159 -73.5 251.5t-223.5 92.5q-62 0 -137 -31t-134 -76q-4 -20 -4 -121q0 -220 78 -332t209 -112q123 0 204 94t81 234z" glyph-name="uni0431" horiz-adv-x="1112" unicode="б"/><glyph d="M199 0q6 123 6 150v651q0 26 -3 77.5t-3 69.5h315q184 0 276.5 -68t92.5 -180q0 -141 -156 -200q106 -17 171 -82t65 -148q0 -121 -95 -195.5t-284 -74.5h-385zM709 676q0 145 -203 145h-127v-282h143q86 0 136.5 36t50.5 101zM784 276q0 68 -52.5 106t-137.5 38h-215 v-291h203q202 0 202 147z" glyph-name="uni0432" horiz-adv-x="1046" unicode="в"/><glyph d="M199 0q0 30 2 100t2 111v563q0 31 -2 89t-2 85h395q31 0 235 6l-38 -157q-183 6 -203 6h-207v-592q0 -41 2 -111t2 -100h-186z" glyph-name="uni0433" horiz-adv-x="870" unicode="г"/><glyph d="M37 -352q4 106 4 159v316h65q131 134 196 322t106 503h536v-825h131v-313q0 -68 4 -162h-153q2 66 2 166v180h-742v-184q0 -101 2 -162h-151zM772 123v682h-237q-66 -452 -240 -682h477z" glyph-name="uni0434" horiz-adv-x="1140" unicode="д"/><glyph d="M104 485q0 129 53 239t157 178.5t237 68.5q113 0 199 -38.5t134 -102.5t71.5 -138t23.5 -155q0 -64 -6 -91h-690q15 -315 323 -315q147 0 320 94v-143q-57 -41 -142 -68.5t-186 -27.5q-224 0 -359 130.5t-135 368.5zM553 831q-55 0 -100.5 -15.5t-75.5 -41.5t-51.5 -61 t-31.5 -71.5t-13 -76.5h528q-2 123 -63 194.5t-193 71.5z" glyph-name="uni0435" unicode="е"/><glyph d="M76 0q29 44 104 186l76 142q58 110 143 147q-82 25 -147 148l-80 157q-49 100 -94 168h190l74 -145l78 -172q50 -107 131 -107h72v240q0 32 -2.5 98t-2.5 86h183q-4 -86 -4 -182v-242h69q82 0 131 107l88 182q45 84 66 135h188q-11 -15 -25 -39t-35.5 -64t-31.5 -59 l-82 -161q-57 -119 -147 -152q89 -32 143 -143l74 -137q58 -114 106 -193h-200q-8 16 -32.5 66.5t-39.5 78.5l-82 162q-28 57 -55 83t-66 26h-69v-209q0 -85 4 -207h-183q0 31 2.5 103.5t2.5 105.5v207h-72q-38 0 -63.5 -25.5t-55.5 -83.5l-78 -149q-35 -66 -78 -158h-200z" glyph-name="uni0436" horiz-adv-x="1417" unicode="ж"/><glyph d="M115 37v149q125 -61 266 -61q211 0 211 154q0 72 -61.5 106.5t-190.5 34.5q-72 0 -92 -2v135q15 -2 108 -2q213 6 213 141q0 64 -49 99.5t-137 35.5q-122 0 -233 -57l-33 141q127 62 286 62q155 0 256 -71.5t101 -188.5q0 -75 -50 -131t-139 -84q213 -58 213 -232 q0 -122 -104.5 -204t-284.5 -82q-154 0 -280 57z" glyph-name="uni0437" horiz-adv-x="876" unicode="з"/><glyph d="M203 -4q2 88 2 264v381q0 215 -6 305h186q-6 -125 -6 -319v-344l614 671h90q-4 -226 -4 -327v-359q0 -112 4 -268h-180q4 78 4 262v395l-604 -661h-100z" glyph-name="uni0438" horiz-adv-x="1280" unicode="и"/><glyph d="M336 1393h151q2 -74 42 -116t116 -42q77 0 115.5 41.5t40.5 116.5h151q-2 -132 -84.5 -212.5t-222.5 -80.5q-142 0 -224.5 81t-84.5 212zM203 -4q2 88 2 264v381q0 215 -6 305h186q-6 -125 -6 -319v-344l614 671h90q-4 -226 -4 -327v-359q0 -112 4 -268h-180q4 78 4 262 v395l-604 -661h-100z" glyph-name="uni0439" horiz-adv-x="1280" unicode="й"/><glyph d="M199 0q0 24 2 80t2 88v623q0 31 -2 81t-2 76h186q-4 -78 -4 -143v-268h59q46 0 76 22t59 78l166 311h193q-39 -55 -82 -139l-92 -184q-61 -118 -152 -144q90 -39 148 -147l98 -189q71 -125 86 -145h-207l-160 305q-27 56 -57.5 78.5t-75.5 22.5h-59v-244q0 -68 4 -162 h-186z" glyph-name="uni043A" horiz-adv-x="1028" unicode="к"/><glyph d="M33 -10v160q28 -7 33 -7q105 0 190.5 200.5t134.5 604.5h549q-4 -117 -4 -340v-344q0 -186 4 -264h-190q10 74 10 262v541h-219q-30 -227 -76.5 -389t-106.5 -254.5t-127 -134t-147 -41.5q-33 0 -51 6z" glyph-name="uni043B" horiz-adv-x="1136" unicode="л"/><glyph d="M199 0q4 168 4 291l4 319q0 76 -1 187.5t-1 150.5h188l314 -499l303 499h188q-2 -113 -2 -332l4 -372q0 -133 6 -244h-178q6 132 0 287l-2 409l-289 -442h-69l-287 444l-2 -411q0 -201 4 -287h-184z" glyph-name="uni043C" horiz-adv-x="1400" unicode="м"/><glyph d="M199 0q4 152 4 242v516q0 55 -2 122t-2 68h182q-4 -74 -4 -190v-197h469v197q0 38 -4 190h182q0 -10 -2 -87t-2 -103v-520q0 -94 4 -238h-182q4 152 4 242v182h-469v-180q0 -164 4 -244h-182z" glyph-name="uni043D" horiz-adv-x="1220" unicode="н"/><glyph d="M104 471q0 136 62.5 250t171 180t237.5 66q131 0 240.5 -67t171.5 -181t62 -248q0 -205 -137 -346t-337 -141q-132 0 -240 65t-169.5 177t-61.5 245zM281 471q0 -142 83.5 -241t210.5 -99q131 0 213 98t82 242q0 149 -83.5 245.5t-211.5 96.5q-87 0 -156 -53 t-103.5 -130.5t-34.5 -158.5z" glyph-name="uni043E" horiz-adv-x="1150" unicode="о"/><glyph d="M199 0q6 264 6 307v641h809v-645q0 -168 6 -303h-189q5 240 5 307v488h-453v-490q0 -205 4 -305h-188z" glyph-name="uni043F" horiz-adv-x="1214" unicode="п"/><glyph d="M199 -469v1372q179 70 358 70q232 0 364 -132t132 -360q0 -140 -61.5 -254.5t-172.5 -180.5t-250 -66q-90 0 -196 38v-487h-174zM889 479q0 157 -98 252.5t-244 95.5q-68 0 -174 -28v-633q85 -39 180 -39q146 0 241 100t95 252z" glyph-name="uni0440" horiz-adv-x="1157" unicode="р"/><glyph d="M104 469q0 215 147.5 357.5t375.5 142.5q143 0 274 -62v-170q-109 78 -258 78q-166 0 -262 -97t-96 -249t94 -242t266 -90q74 0 142 24.5t116 57.5v-168q-42 -29 -114.5 -48t-159.5 -19q-231 0 -378 137.5t-147 347.5z" glyph-name="uni0441" horiz-adv-x="1044" unicode="с"/><glyph d="M381 0q2 90 2 328v471h-115q-141 0 -217 -4v157q70 -4 225 -4h445q100 0 168 2l-17 -155q-17 0 -85 2t-87 2h-139v-471q0 -250 4 -328h-184z" glyph-name="uni0442" horiz-adv-x="923" unicode="т"/><glyph d="M37 948h207q13 -31 35 -91.5t32 -86.5l215 -555l217 545q30 75 64 188h194q-18 -38 -49 -111t-41 -96l-385 -884q-59 -140 -137 -199t-196 -59h-89l15 131q114 0 160.5 28t91.5 125l71 150l-292 663q-65 155 -113 252z" glyph-name="uni0443" horiz-adv-x="1038" unicode="у"/><glyph d="M104 475q0 203 140.5 339t363.5 153v213q0 50 -3.5 136.5t-4.5 106.5h182q0 -9 -4 -100.5t-4 -140.5v-215q239 -20 371.5 -151.5t132.5 -338.5q0 -208 -133.5 -341.5t-368.5 -153.5v-209q0 -134 6 -242h-182q1 21 4.5 107t3.5 135v209q-223 19 -363.5 154.5t-140.5 338.5 zM274 475q0 -146 90 -236.5t244 -101.5v674q-154 -9 -244 -99.5t-90 -236.5zM1108 475q0 146 -90 236.5t-244 99.5v-674q154 11 244 101.5t90 236.5z" glyph-name="uni0444" horiz-adv-x="1380" unicode="ф"/><glyph d="M41 0q68 91 143 203l187 270l-187 283q-69 115 -137 192h207l225 -354l223 354h193q-17 -21 -35 -46.5t-30.5 -44t-34.5 -51.5t-33 -50l-187 -279l209 -313q102 -151 111 -164h-193l-235 354l-231 -354h-195z" glyph-name="uni0445" horiz-adv-x="940" unicode="х"/><glyph d="M203 0v643q0 209 -4 305h190q-6 -228 -6 -307v-494h426v496q0 205 -4 305h188q-4 -168 -4 -307v-498h133v-174q0 -186 6 -309h-176q4 196 4 340h-753z" glyph-name="uni0446" horiz-adv-x="1191" unicode="ц"/><glyph d="M104 948h193q-10 -78 -10 -157v-125q0 -177 205 -177q119 0 225 29v211q0 117 -6 219h188q0 -34 -2 -110t-2 -113v-434q0 -131 4 -291h-186q4 168 4 268v94q-91 -26 -236 -26q-179 0 -275.5 82t-96.5 227v148q0 38 -5 155z" glyph-name="uni0447" horiz-adv-x="1095" unicode="ч"/><glyph d="M203 0v643q0 119 -4 307h182q-4 -188 -4 -307v-485h332v485q0 207 -2 305h182q-6 -252 -6 -307v-483h356v485q0 115 -8 307h186q-4 -168 -4 -307v-643h-1210z" glyph-name="uni0448" horiz-adv-x="1613" unicode="ш"/><glyph d="M201 0v643q0 213 -2 307h180q-4 -188 -4 -307v-485h332v485q0 207 -2 305h184q-8 -136 -8 -307v-483h356v485q0 157 -6 307h184q-4 -84 -4 -307v-493h107v-252q0 -145 6 -244h-181q5 76 5 346h-1147z" glyph-name="uni0449" horiz-adv-x="1585" unicode="щ"/><glyph d="M428 0q0 29 2 97.5t2 107.5v616h-160q-104 0 -163 -4l-29 135q140 -4 209 -4h325q-6 -105 -6 -190v-152h160q164 0 270.5 -82.5t106.5 -220.5t-107.5 -220.5t-275.5 -82.5h-334zM969 303q0 80 -58 124t-163 44h-140v-336h142q105 0 162 43t57 125z" glyph-name="uni044A" horiz-adv-x="1253" unicode="ъ"/><glyph d="M199 0q0 29 2 97.5t2 107.5v467q0 84 -4 276h184q-6 -105 -6 -194v-148h149q166 0 273.5 -80.5t107.5 -222.5q0 -138 -107.5 -220.5t-275.5 -82.5h-325zM1214 0q7 55 7 201v542q0 148 -7 205h189q-6 -49 -6 -203v-544q0 -158 6 -201h-189zM731 303q0 79 -57.5 123.5 t-159.5 44.5h-137v-336h137q103 0 160 43.5t57 124.5z" glyph-name="uni044B" horiz-adv-x="1599" unicode="ы"/><glyph d="M199 0q0 29 2 97.5t2 107.5v467q0 84 -4 276h184q-6 -105 -6 -194v-148h149q166 0 273.5 -80.5t107.5 -222.5q0 -138 -107.5 -220.5t-275.5 -82.5h-325zM731 303q0 79 -57.5 123.5t-159.5 44.5h-137v-336h137q103 0 160 43.5t57 124.5z" glyph-name="uni044C" horiz-adv-x="1015" unicode="ь"/><glyph d="M950 469q0 -212 -145.5 -348.5t-372.5 -136.5q-92 0 -169.5 20t-121.5 49v152q46 -34 120 -59t155 -25q159 0 255.5 84t108.5 225h-202q-43 0 -123 -2t-117 -2v139q148 -4 246 -4h192q-31 118 -126 189t-232 71q-156 0 -275 -82v160q143 64 289 64q228 0 373 -140 t145 -354z" glyph-name="uni044D" horiz-adv-x="1054" unicode="э"/><glyph d="M1468 475q0 -95 -30 -183t-84.5 -158t-139.5 -112t-186 -42q-173 0 -287.5 123t-140.5 313h-219v-115q0 -207 4 -301h-186q4 180 4 303v381q0 60 -4 264h186q-4 -86 -4 -239v-152h221q27 187 141.5 301.5t284.5 114.5q131 0 233 -70t154.5 -182.5t52.5 -245.5zM1284 475 q0 154 -69 246t-187 92q-116 0 -186 -92.5t-70 -245.5q0 -151 70.5 -243.5t185.5 -92.5q116 0 186 92.5t70 243.5z" glyph-name="uni044E" horiz-adv-x="1570" unicode="ю"/><glyph d="M131 655q0 130 100 211.5t277 81.5h360q0 -27 -2 -121.5t-2 -134.5v-502q0 -124 4 -190h-188q8 76 8 180v178h-203l-215 -358h-202q57 63 133 190q68 111 139 199q-209 76 -209 266zM297 653q0 -77 54 -117t145 -40h192v325h-182q-101 0 -155 -42t-54 -126z" glyph-name="uni044F" horiz-adv-x="1064" unicode="я"/><glyph d="M244 1255q0 44 32 76.5t76 32.5t77.5 -32.5t33.5 -76.5q0 -45 -33 -76.5t-78 -31.5t-76.5 31.5t-31.5 76.5zM627 1255q0 44 32 76.5t76 32.5t77.5 -32.5t33.5 -76.5q0 -45 -33 -76.5t-78 -31.5t-76.5 31.5t-31.5 76.5zM104 485q0 129 53 239t157 178.5t237 68.5 q113 0 199 -38.5t134 -102.5t71.5 -138t23.5 -155q0 -64 -6 -91h-690q15 -315 323 -315q147 0 320 94v-143q-57 -41 -142 -68.5t-186 -27.5q-224 0 -359 130.5t-135 368.5zM553 831q-55 0 -100.5 -15.5t-75.5 -41.5t-51.5 -61t-31.5 -71.5t-13 -76.5h528q-2 123 -63 194.5 t-193 71.5z" glyph-name="uni0451" unicode="ё"/><glyph d="M154 0q8 86 8 233v908h-121v137h121q0 121 -6 172h190q-8 -78 -8 -172h305v-137h-305v-312q59 65 143 99.5t166 34.5q163 0 257.5 -142t94.5 -397q0 -256 -103 -442.5t-284 -288.5l-98 125q152 95 230.5 249.5t78.5 358.5q0 181 -58.5 282t-162.5 101q-60 0 -130.5 -34 t-133.5 -97v-430q0 -191 2 -248h-186z" glyph-name="uni0452" horiz-adv-x="1095" unicode="ђ"/><glyph d="M707 1389l-205 -291h-148l166 291h187zM199 0q0 30 2 100t2 111v563q0 31 -2 89t-2 85h395q31 0 235 6l-38 -157q-183 6 -203 6h-207v-592q0 -41 2 -111t2 -100h-186z" glyph-name="uni0453" horiz-adv-x="870" unicode="ѓ"/><glyph d="M104 469q0 214 145 354t374 140q145 0 288 -64v-160q-119 82 -274 82q-137 0 -232 -71t-126 -189h192q98 0 246 4v-139q-37 0 -117 2t-123 2h-203q12 -141 109 -225t256 -84q81 0 154.5 25t119.5 59v-152q-44 -29 -121 -49t-169 -20q-227 0 -373 136.5t-146 348.5z" glyph-name="uni0454" horiz-adv-x="1054" unicode="є"/><glyph d="M98 39l31 158q113 -88 244 -88q80 0 130 35.5t50 99.5q0 27 -12.5 50t-44.5 46.5t-50.5 34.5t-67.5 36q-9 5 -13 7q-47 23 -82 46.5t-72.5 58t-57.5 80.5t-20 99q0 120 86.5 192.5t235.5 72.5q104 0 233 -41v-154q-112 66 -221 66q-76 0 -120 -32.5t-44 -90.5 q0 -35 29.5 -68t55.5 -48.5t86 -45.5q10 -5 15 -8q47 -24 82 -47t73.5 -58.5t59.5 -83t21 -102.5q0 -129 -92.5 -203t-251.5 -74q-72 0 -151.5 17.5t-131.5 44.5z" glyph-name="uni0455" horiz-adv-x="829" unicode="ѕ"/><glyph d="M199 1257q0 45 31 77t75 32t77.5 -32.5t33.5 -76.5q0 -45 -33 -76.5t-78 -31.5q-44 0 -75 31t-31 77zM246 0q6 47 6 201v542q0 156 -6 205h188q-6 -49 -6 -203v-544q0 -158 6 -201h-188z" glyph-name="uni0456" horiz-adv-x="565" unicode="і"/><glyph d="M-4 1255q0 44 32 76.5t76 32.5t77.5 -32.5t33.5 -76.5q0 -45 -33 -76.5t-78 -31.5t-76.5 31.5t-31.5 76.5zM379 1255q0 44 32 76.5t76 32.5t77.5 -32.5t33.5 -76.5q0 -45 -33 -76.5t-78 -31.5t-76.5 31.5t-31.5 76.5zM199 0q6 47 6 201v542q0 156 -6 205h188 q-6 -49 -6 -203v-544q0 -158 6 -201h-188z" glyph-name="uni0457" horiz-adv-x="583" unicode="ї"/><glyph d="M258 1366q44 0 77.5 -32.5t33.5 -76.5q0 -45 -33 -76.5t-78 -31.5t-76.5 31.5t-31.5 76.5q0 44 32 76.5t76 32.5zM-84 -496v142h117q174 0 174 278v819q0 158 -4 205h186q-4 -47 -4 -203v-829q0 -190 -80 -301t-250 -111h-139z" glyph-name="uni0458" horiz-adv-x="501" unicode="ј"/><glyph d="M1014 606q165 0 272 -80.5t107 -222.5q0 -137 -107 -220t-274 -83h-295q4 148 4 227v576h-180q-30 -227 -76.5 -389t-106.5 -254.5t-127 -134t-147 -41.5q-33 0 -51 6v160q28 -7 33 -7q105 0 190.5 200.5t134.5 604.5h512q-6 -141 -6 -196v-146h117zM1001 135 q102 0 160 43.5t58 124.5q0 79 -58.5 123.5t-161.5 44.5h-102v-336h104z" glyph-name="uni0459" horiz-adv-x="1503" unicode="љ"/><glyph d="M1036 578q168 0 273.5 -74.5t105.5 -216.5q0 -136 -106 -211.5t-275 -75.5h-311q4 122 4 205v219h-350v-180q0 -164 4 -244h-182q4 152 4 242v516q0 55 -2 122t-2 68h182q-4 -74 -4 -190v-197h350v111q0 180 -2 276h184q-6 -52 -6 -194v-176h133zM1022 135q219 0 219 154 q0 76 -57 114.5t-162 38.5h-119v-307h119z" glyph-name="uni045A" horiz-adv-x="1525" unicode="њ"/><glyph d="M870 0q4 123 4 311v267q0 245 -249 245q-82 0 -158.5 -56.5t-114.5 -145.5v-428q0 -91 4 -193h-186q6 80 6 195v929h-98v105h98v43q0 40 -5 117t-5 84h190q-4 -49 -4 -201v-43h346v-105h-346v-329q145 170 342 170q174 0 268.5 -111.5t94.5 -312.5v-344q0 -171 2 -197 h-189z" glyph-name="uni045B" horiz-adv-x="1204" unicode="ћ"/><glyph d="M768 1389l-205 -291h-147l166 291h186zM199 0q0 24 2 80t2 88v623q0 31 -2 81t-2 76h186q-4 -78 -4 -143v-268h59q46 0 76 22t59 78l166 311h193q-39 -55 -82 -139l-92 -184q-61 -118 -152 -144q90 -39 148 -147l98 -189q71 -125 86 -145h-207l-160 305 q-27 56 -57.5 78.5t-75.5 22.5h-59v-244q0 -68 4 -162h-186z" glyph-name="uni045C" horiz-adv-x="1028" unicode="ќ"/><glyph d="M190 1393h152q2 -74 42 -116t116 -42q77 0 115 41.5t40 116.5h152q-2 -132 -84.5 -212.5t-222.5 -80.5q-142 0 -225 81t-85 212zM37 948h207q13 -31 35 -91.5t32 -86.5l215 -555l217 545q30 75 64 188h194q-18 -38 -49 -111t-41 -96l-385 -884q-59 -140 -137 -199 t-196 -59h-89l15 131q114 0 160.5 28t91.5 125l71 150l-292 663q-65 155 -113 252z" glyph-name="uni045E" horiz-adv-x="1038" unicode="ў"/><glyph d="M199 948h186q-4 -192 -4 -243v-555h432v555q0 67 -4 243h186q-4 -172 -4 -243v-705h-289v-72q0 -197 5 -317h-191q6 141 6 315v74h-319v705q0 75 -4 243z" glyph-name="uni045F" horiz-adv-x="1191" unicode="џ"/><glyph d="M156 0q6 80 6 195v1169h-84l43 109h221q-4 -49 -4 -201v-461q50 69 134 111.5t200 42.5q163 0 261.5 -104.5t98.5 -299.5v-338q0 -172 4 -223h-182q2 36 2 231v347q0 120 -67 179.5t-175 59.5q-84 0 -158.5 -48.5t-117.5 -129.5v-446q0 -91 4 -193h-186z" glyph-name="uni04BB" horiz-adv-x="1181" unicode="һ"/><glyph d="M195 0q6 138 6 336v670q0 217 -6 370h196q-4 -61 -4 -370v-670q0 -238 4 -336h-196z" glyph-name="uni04C0" horiz-adv-x="585" unicode="Ӏ"/><glyph d="M199 0q6 47 6 201v542q0 156 -6 205h188q-6 -49 -6 -203v-544q0 -158 6 -201h-188z" glyph-name="uni04CF" horiz-adv-x="583" unicode="ӏ"/><glyph d="M489 1554v123h525v-123h-525zM1341 0h-188q6 123 6 281v751l-866 -1036h-92q2 88 2 285v761q0 228 -8 334h190q-6 -98 -6 -344v-672l872 1033h90q-6 -185 -6 -353v-751q0 -157 6 -289z" glyph-name="uni04E2" horiz-adv-x="1536" unicode="Ӣ"/><glyph d="M383 1165v123h524v-123h-524zM203 -4q2 88 2 264v381q0 215 -6 305h186q-6 -125 -6 -319v-344l614 671h90q-4 -226 -4 -327v-359q0 -112 4 -268h-180q4 78 4 262v395l-604 -661h-100z" glyph-name="uni04E3" horiz-adv-x="1280" unicode="ӣ"/><glyph d="M238 1165v123h524v-123h-524zM37 948h207q13 -31 35 -91.5t32 -86.5l215 -555l217 545q30 75 64 188h194q-18 -38 -49 -111t-41 -96l-385 -884q-59 -140 -137 -199t-196 -59h-89l15 131q114 0 160.5 28t91.5 125l71 150l-292 663q-65 155 -113 252z" glyph-name="uni04EF" horiz-adv-x="1038" unicode="ӯ"/><glyph d="M758 1778h186l166 -291h-147zM41 1376h201l446 -1097l207 524l-252 573h182l170 -381l154 381h178l-250 -573l197 -524l446 1097h193q-31 -73 -123 -278l-475 -1102h-62l-274 635l-277 -635h-63l-475 1091q-27 59 -72.5 167.5t-50.5 121.5z" glyph-name="Wgrave" horiz-adv-x="1953" unicode="Ẁ"/><glyph d="M520 1389h187l165 -291h-147zM35 948h196q18 -77 64 -198l170 -486l225 684h105l237 -694l178 555q33 95 43 139h181l-68 -172l-283 -794h-84l-262 731l-254 -731h-90l-274 751q-15 42 -44.5 114t-39.5 101z" glyph-name="wgrave" horiz-adv-x="1468" unicode="ẁ"/><glyph d="M1208 1778l-204 -291h-148l166 291h186zM41 1376h201l446 -1097l207 524l-252 573h182l170 -381l154 381h178l-250 -573l197 -524l446 1097h193q-31 -73 -123 -278l-475 -1102h-62l-274 635l-277 -635h-63l-475 1091q-27 59 -72.5 167.5t-50.5 121.5z" glyph-name="Wacute" horiz-adv-x="1953" unicode="Ẃ"/><glyph d="M971 1389l-205 -291h-148l166 291h187zM35 948h196q18 -77 64 -198l170 -486l225 684h105l237 -694l178 555q33 95 43 139h181l-68 -172l-283 -794h-84l-262 731l-254 -731h-90l-274 751q-15 42 -44.5 114t-39.5 101z" glyph-name="wacute" horiz-adv-x="1468" unicode="ẃ"/><glyph d="M684 1645q0 44 32.5 76t76.5 32t77 -32t33 -76q0 -45 -32.5 -77t-77.5 -32t-77 32t-32 77zM1067 1645q0 44 32.5 76t76.5 32t77 -32t33 -76q0 -45 -32.5 -77t-77.5 -32t-77 32t-32 77zM41 1376h201l446 -1097l207 524l-252 573h182l170 -381l154 381h178l-250 -573 l197 -524l446 1097h193q-31 -73 -123 -278l-475 -1102h-62l-274 635l-277 -635h-63l-475 1091q-27 59 -72.5 167.5t-50.5 121.5z" glyph-name="Wdieresis" horiz-adv-x="1953" unicode="Ẅ"/><glyph d="M446 1255q0 44 32.5 76.5t76.5 32.5t77.5 -32.5t33.5 -76.5q0 -45 -33 -76.5t-78 -31.5t-77 31.5t-32 76.5zM829 1255q0 44 32.5 76.5t76.5 32.5t77.5 -32.5t33.5 -76.5q0 -45 -33 -76.5t-78 -31.5t-77 31.5t-32 76.5zM35 948h196q18 -77 64 -198l170 -486l225 684h105 l237 -694l178 555q33 95 43 139h181l-68 -172l-283 -794h-84l-262 731l-254 -731h-90l-274 751q-15 42 -44.5 114t-39.5 101z" glyph-name="wdieresis" horiz-adv-x="1468" unicode="ẅ"/><glyph d="M391 1778h187l165 -291h-147zM520 0q6 282 6 324v272l-325 530q-124 196 -160 250h219q11 -24 24 -49t22 -41.5t26 -46t26 -45.5l267 -440l256 434q17 29 58 102.5t48 85.5h207q-13 -23 -70 -111t-88 -139l-325 -530v-274q0 -184 6 -322h-197z" glyph-name="Ygrave" horiz-adv-x="1234" unicode="Ỳ"/><glyph d="M287 1389h186l166 -291h-147zM37 948h207q13 -31 35 -91.5t32 -86.5l215 -555l217 545q30 75 64 188h194q-18 -38 -49 -111t-41 -96l-385 -884q-59 -140 -137 -199t-196 -59h-89l15 131q114 0 160.5 28t91.5 125l71 150l-292 663q-65 155 -113 252z" glyph-name="ygrave" horiz-adv-x="1038" unicode="ỳ"/><glyph d="M92 426v145h922v-145h-922z" glyph-name="endash" horiz-adv-x="1103" unicode="–"/><glyph d="M80 426v145h1894v-145h-1894z" glyph-name="emdash" horiz-adv-x="2054" unicode="—"/><glyph d="M14 426v139h1702v-139h-1702z" glyph-name="uni2015" horiz-adv-x="1783" unicode="―"/><glyph d="M127 1133q0 166 96 335l113 -22q-47 -130 -47 -272q0 -104 22 -203l-164 -35q-20 114 -20 197z" glyph-name="quoteleft" horiz-adv-x="456" unicode="‘"/><glyph d="M305 1272q0 -167 -96 -336l-113 22q47 130 47 273q0 104 -22 203l164 34q20 -114 20 -196z" glyph-name="quoteright" horiz-adv-x="421" unicode="’"/><glyph d="M305 -16q0 -167 -96 -336l-113 22q47 130 47 273q0 103 -22 202l164 35q20 -114 20 -196z" glyph-name="quotesinglbase" horiz-adv-x="421" unicode="‚"/><glyph d="M127 1133q0 166 96 335l113 -22q-47 -130 -47 -272q0 -104 22 -203l-164 -35q-20 114 -20 197zM543 1133q0 166 96 335l113 -22q-47 -130 -47 -272q0 -104 22 -203l-164 -35q-20 114 -20 197z" glyph-name="quotedblleft" horiz-adv-x="874" unicode="“"/><glyph d="M307 1272q0 -167 -96 -336l-113 22q47 130 47 273q0 104 -22 203l164 34q20 -114 20 -196zM723 1272q0 -167 -96 -336l-113 22q47 130 47 273q0 104 -22 203l163 34q21 -120 21 -196z" glyph-name="quotedblright" horiz-adv-x="837" unicode="”"/><glyph d="M307 -14q0 -167 -96 -336l-113 22q47 130 47 273q0 103 -22 202l164 35q20 -114 20 -196zM723 -14q0 -167 -96 -336l-113 22q47 130 47 273q0 103 -22 202l163 35q21 -120 21 -196z" glyph-name="quotedblbase" horiz-adv-x="837" unicode="„"/><glyph d="M98 881v139q188 -12 281 -12q0 35 -5.5 158.5t-6.5 154.5h155q-10 -177 -14 -313q136 0 280 12v-139q-141 12 -280 12q0 -28 4 -248.5t4 -282.5q0 -201 2 -256h-149q4 114 4 256q0 66 4 284t4 247q-106 0 -283 -12z" glyph-name="dagger" horiz-adv-x="886" unicode="†"/><glyph d="M106 897v139q152 -12 275 -12q-10 295 -10 297h151l-10 -297q122 0 274 12v-139q-173 10 -274 10q0 -3 1 -35.5t2 -77t1 -77.5q0 -41 -2 -103t-2 -94q88 2 274 10v-139q-160 12 -274 12l10 -297h-151l10 297q-111 0 -275 -12v141q160 -12 275 -12q-6 171 -6 199 q0 32 1.5 76t3 76.5t1.5 35.5q-40 0 -149 -4t-126 -6z" glyph-name="daggerdbl" horiz-adv-x="892" unicode="‡"/><glyph d="M164 557q0 91 63 155t152 64q91 0 154 -64t63 -155t-63 -155t-154 -64q-89 0 -152 64t-63 155z" glyph-name="bullet" horiz-adv-x="759" unicode="•"/><glyph d="M137 104q0 50 37.5 87.5t85.5 37.5q50 0 85.5 -36t35.5 -87q0 -47 -37 -84t-88 -38q-48 0 -83.5 35.5t-35.5 84.5zM752 104q0 50 37 87.5t85 37.5q50 0 85.5 -36t35.5 -87q0 -47 -37 -84t-88 -38q-48 0 -83 35.5t-35 84.5zM1366 104q0 50 37.5 87.5t85.5 37.5 q50 0 85.5 -36t35.5 -87q0 -47 -37 -84t-88 -38q-48 0 -83.5 35.5t-35.5 84.5z" glyph-name="ellipsis" horiz-adv-x="1746" unicode="…"/><glyph d="M92 1038q0 150 91.5 247t226.5 97q134 0 223.5 -94.5t89.5 -243.5q0 -148 -90 -245t-223 -97q-137 0 -227.5 95.5t-90.5 240.5zM268 0l965 1372h153l-970 -1372h-148zM227 1047q0 -104 50 -166t133 -62q79 0 129.5 65.5t50.5 164.5q0 92 -54 153.5t-130 61.5 q-75 0 -127 -61t-52 -156zM930 322q0 151 90 247.5t223 96.5q131 0 222 -96t91 -244q0 -146 -90.5 -243t-224.5 -97q-130 0 -220.5 95.5t-90.5 240.5zM1686 322q0 151 90.5 247.5t222.5 96.5q134 0 224.5 -95.5t90.5 -244.5q0 -146 -91 -243t-226 -97q-131 0 -221 96 t-90 240zM1079 305q8 -88 57 -140t124 -46q74 7 114.5 69t32.5 154q-6 91 -56.5 142.5t-125.5 43.5q-72 -6 -112 -68t-34 -155zM1835 305q8 -86 57.5 -139t124.5 -47q73 7 113.5 69.5t32.5 153.5q-6 91 -57 142.5t-126 43.5q-70 -6 -110.5 -68.5t-34.5 -154.5z" glyph-name="perthousand" horiz-adv-x="2408" unicode="‰"/><glyph d="M588 59l-490 396v20l486 397v-155l-303 -252l307 -248v-158z" glyph-name="guilsinglleft" horiz-adv-x="706" unicode="‹"/><glyph d="M119 870l489 -395v-20l-485 -398v156l303 252l-307 248v157z" glyph-name="guilsinglright" horiz-adv-x="706" unicode="›"/><glyph d="M682 1362l-901 -1362h-133l901 1362h133z" glyph-name="fraction" horiz-adv-x="331" unicode="⁄"/><glyph d="M997 201l27 -164q-123 -53 -279 -53q-226 0 -357.5 135.5t-168.5 367.5h-147v99h137q-2 27 -2 84q0 30 4 92h-139v98h151q39 236 176 375t351 139q53 0 125 -14.5t124 -34.5v-174q-96 72 -235 72q-142 0 -234 -94.5t-124 -268.5h481l-15 -98h-477q-4 -58 -4 -88t4 -88 h467l-14 -99h-440q32 -171 124 -263.5t226 -92.5q145 0 239 70z" glyph-name="Euro" horiz-adv-x="1085" unicode="€"/><glyph d="M195 0q6 132 6 289v751q0 168 -6 353h90l872 -1033v672q0 246 -6 344h190q-8 -106 -8 -334v-761q0 -197 2 -285h-92l-866 1036v-751q0 -158 6 -281h-188zM1468 887q0 152 102.5 255t252.5 103t251 -103.5t101 -254.5t-100 -253t-252 -102t-253.5 102t-101.5 253z M1595 887q0 -110 64 -183t164 -73q103 0 165 72t62 184q0 114 -63.5 185t-163.5 71q-101 0 -164.5 -78.5t-63.5 -177.5zM2144 385v-125h-635v125h635z" glyph-name="uni2116" horiz-adv-x="2291" unicode="№"/><glyph d="M117 664q-1 128 49 249t135.5 213t210 147.5t264.5 55.5q177 0 329.5 -88t243.5 -241.5t91 -335.5q0 -133 -51 -256t-138.5 -214t-211.5 -145.5t-263 -54.5q-133 0 -254.5 52.5t-210 141.5t-141 213.5t-53.5 262.5zM215 664q-1 -151 69 -284.5t201 -217.5t293 -84 q154 0 283.5 78t204.5 213t75 295q0 111 -42 216t-115 185t-179.5 128t-226.5 48q-156 0 -285 -77.5t-202 -209.5t-76 -290zM573 289q0 30 1 58t1 32v442q0 16 -1 82t-1 111h222q130 0 201 -64t71 -174q0 -108 -72 -171.5t-204 -63.5h-101v-121q0 -92 2 -131h-119zM950 776 q0 69 -44 111.5t-124 42.5h-92v-301h90q81 0 125.5 39.5t44.5 107.5z" glyph-name="uni2117" horiz-adv-x="1556" unicode="℗"/><glyph d="M655 750q3 41 7 149l16 481h94l234 -399l227 399h94l19 -481q6 -128 8 -149h-113q0 94 -2 135l-14 297l-205 -318h-33l-203 346l-10 -327q0 -1 -1 -44t-1 -89h-117zM246 750q6 92 6 151v379h-193v96h502v-96h-196v-377q0 -110 2 -153h-121z" glyph-name="trademark" horiz-adv-x="1480" unicode="™"/><glyph d="M78 -4v151q84 -6 260 -6h139q-154 105 -245 256t-91 330q0 150 57 276t153.5 210t223.5 131t267 47q152 0 284.5 -52t224.5 -141t144.5 -211t52.5 -260q0 -180 -93 -332t-247 -254h121q197 0 279 6v-151q-68 4 -330 4h-256v162q156 84 248 231.5t92 319.5 q0 227 -148.5 377.5t-371.5 150.5q-231 0 -372.5 -148.5t-141.5 -379.5q0 -171 91 -319.5t247 -231.5v-162h-275q-245 0 -313 -4z" glyph-name="uni2126" horiz-adv-x="1685" unicode="Ω"/><glyph d="M342 258q43 -78 126 -135t177 -84t189 -27q291 0 483 217h119q-216 -245 -609 -245q-113 0 -223 29.5t-206.5 87.5t-169.5 138t-115.5 188t-42.5 230q0 146 63 273.5t168 215t243 137.5t287 50q148 0 282 -48.5t237 -135.5t166 -217.5t69 -284.5h-1243v-389zM1319 1059 q-40 106 -184.5 173.5t-303.5 67.5q-144 0 -288.5 -65t-200.5 -182v-375h977v381z" glyph-name="estimated" horiz-adv-x="1658" unicode="℮"/><glyph d="M442 752q0 -142 2 -162h-141q0 24 2 100t2 103v446l-198 -80l-21 96q131 51 285 123h71l-2 -164v-462zM1296 1362l-901 -1362h-133l901 1362h133zM1114 623l-12 110q72 41 184 41q123 0 195.5 -50t72.5 -144q0 -67 -51 -123.5t-135 -67.5q89 -7 150 -63.5t61 -128.5 q0 -100 -79.5 -161t-211.5 -61q-114 0 -201 35l13 109q63 -39 174 -39q76 0 119 34.5t43 96.5q0 59 -47 94t-134 35q-23 0 -51 -4v98l39 -2q79 0 124.5 34t45.5 93q0 54 -36 81.5t-97 27.5q-96 0 -166 -45z" glyph-name="uni2153" horiz-adv-x="1695" unicode="⅓"/><glyph d="M82 600v107q14 14 101.5 96.5t107.5 103.5q143 143 143 228q0 63 -38 101t-105 38q-91 0 -174 -57l-17 118q105 56 207 56q128 0 200.5 -62t72.5 -172q0 -129 -183 -297q-25 -25 -86 -76.5t-82 -72.5h213q64 0 158 4v-115h-518zM1413 1362l-901 -1362h-133l901 1362h133z M1186 629l-12 110q72 41 184 41q123 0 195.5 -50t72.5 -144q0 -67 -51 -123.5t-135 -67.5q89 -7 150 -63.5t61 -128.5q0 -100 -79.5 -160.5t-211.5 -60.5q-116 0 -201 34l12 109q63 -39 175 -39q76 0 118.5 34t42.5 97q0 59 -46.5 94t-133.5 35q-23 0 -51 -4v98l39 -2 q79 0 124.5 34t45.5 93q0 54 -36 81.5t-97 27.5q-96 0 -166 -45z" glyph-name="uni2154" horiz-adv-x="1767" unicode="⅔"/><glyph d="M78 410q0 131 65 240t175 169.5t237 57.5q202 -3 303 -121q4 32 4 55q0 135 -44 248t-132 183.5t-203 70.5q-162 0 -286 -76l-31 145q154 82 336 82q252 0 398.5 -189t146.5 -511q0 -384 -146 -582t-389 -198q-186 0 -310 122t-124 304zM252 410q0 -122 76 -201.5 t186 -79.5q146 0 231.5 113.5t102.5 330.5q-42 65 -121 109.5t-166 44.5q-135 0 -222 -87t-87 -230z" glyph-name="partialdiff" horiz-adv-x="1161" unicode="∂"/><glyph d="M43 0q81 174 135 309l451 1088h76l466 -1123q95 -218 125 -274h-1253zM659 1118l-368 -966h739z" glyph-name="uni2206" horiz-adv-x="1337" unicode="∆"/><glyph d="M213 -256q6 179 6 383v1079h-141l-2 170h1323l-58 -170h-116v-1077q0 -244 6 -385h-197q4 96 4 383v1079h-632v-1079q0 -242 6 -383h-199z" glyph-name="product" horiz-adv-x="1449" unicode="∏"/><glyph d="M580 559l-517 817h662q278 0 391 4l-41 -153q-31 0 -163 2t-167 2h-374l413 -664l-444 -708h573q69 0 205 4v-154q-141 6 -205 6h-870z" glyph-name="summation" horiz-adv-x="1196" unicode="∑"/><glyph d="M98 438v144h893v-144h-893z" glyph-name="minus" horiz-adv-x="1087" unicode="−"/><glyph d="M125 532l-39 140l334 127l321 -901l430 1773h164l-487 -1945h-207l-340 870z" glyph-name="radical" horiz-adv-x="1368" unicode="√"/><glyph d="M84 621q0 140 95.5 235.5t236.5 95.5q106 0 194.5 -57.5t184.5 -175.5q95 113 180.5 173t191.5 60q139 0 231.5 -96.5t92.5 -232.5q0 -139 -93.5 -238.5t-236.5 -99.5q-103 0 -190 57t-185 178q-102 -122 -189.5 -178.5t-190.5 -56.5q-140 0 -231 97t-91 239zM1327 618 q0 86 -53 142.5t-133 54.5q-61 -1 -113 -40.5t-162 -156.5q85 -103 146.5 -149.5t132.5 -46.5q79 0 130.5 56t51.5 140zM238 616q0 -85 52 -139.5t132 -54.5q71 0 145.5 53t130.5 141q-45 53 -71.5 82t-63 60t-71.5 44t-74 13q-78 0 -129 -56.5t-51 -142.5z" glyph-name="infinity" horiz-adv-x="1574" unicode="∞"/><glyph d="M12 -383l13 141q40 -18 96 -18q32 0 57 10.5t41.5 25.5t28 43.5t17.5 53.5t9.5 68t4 73.5t0.5 81.5q0 97 -9.5 500.5t-9.5 503.5q0 254 72 375.5t241 121.5q64 0 119 -22l-14 -133q-38 14 -84 14q-42 0 -72 -17.5t-47.5 -46.5t-27.5 -77.5t-13.5 -99t-3.5 -121.5 q0 -88 9.5 -483.5t9.5 -493.5q0 -104 -8 -181.5t-29 -144.5t-55 -108.5t-87.5 -65t-126.5 -23.5q-72 0 -131 23z" glyph-name="integral" horiz-adv-x="739" unicode="∫"/><glyph d="M121 621q3 85 55 146.5t143 61.5q48 0 108.5 -25.5t114 -51t85.5 -25.5q78 0 88 92h110q-3 -85 -53.5 -147t-140.5 -62q-52 0 -113 25t-114.5 49.5t-86.5 24.5q-72 0 -86 -88h-110zM121 297q3 86 55 147.5t143 61.5q48 0 108 -25t114 -50t86 -25q78 0 88 90h110 q-3 -85 -53.5 -147t-140.5 -62q-50 0 -112 24.5t-116.5 49t-85.5 24.5q-72 0 -86 -88h-110z" glyph-name="approxequal" horiz-adv-x="946" unicode="≈"/><glyph d="M991 639h-303l-133 -238h436v-141h-514l-110 -197h-131l110 197h-248v141h326l133 238h-459v135h535l110 197h131l-110 -197h227v-135z" glyph-name="notequal" horiz-adv-x="1099" unicode="≠"/><glyph d="M965 1167v-159l-672 -297l672 -295v-160l-871 414v82zM985 0h-893v139h893v-139z" glyph-name="lessequal" horiz-adv-x="1087" unicode="≤"/><glyph d="M113 1167l870 -415v-82l-870 -414v160l671 295l-671 297v159zM92 0v139h893v-139h-893z" glyph-name="greaterequal" horiz-adv-x="1087" unicode="≥"/><glyph d="M1266 1374q92 0 148 -56.5t56 -148.5v-970q0 -88 -56 -143.5t-148 -55.5h-971q-88 0 -143.5 55.5t-55.5 143.5v970q0 92 55.5 148.5t143.5 56.5h971zM258 279q0 -57 46.5 -87t111.5 -30h811l-447 522v528h-364q-64 0 -111 -32.5t-47 -89.5v-811z" glyph-name="filledbox" horiz-adv-x="1982" unicode="■"/><glyph d="M92 1124q0 3 2 10.5t2 10.5q8 25 24 32t38 -6q25 -20 28 -22q16 -18 48 -49t45 -45q0 -2 4 -2q2 1 4 3.5t4 2.5q91 115 237 176q79 30 148 41q71 11 125 6q125 -7 221 -49q125 -56 201 -137q91 -97 137 -209q19 -50 -6.5 -96t-79.5 -56q-37 -5 -72 13.5t-47 52.5 q-33 71 -61 106q-75 89 -189 133q-75 29 -153 23q-129 -6 -232 -90q-35 -24 -76 -76q-2 -4 -2 -6q2 0 2 -4q11 -11 47 -45.5t54 -53.5q8 -7 26 -38q5 -23 -18 -39q-4 -4 -10 -6t-13 -4t-10 -3h-28h-267q-40 0 -67 19q-54 34 -66 98v2v307zM1464 180q-4 -6 -4 -20 q-8 -23 -23.5 -29.5t-37.5 6.5q-16 6 -29 23q-15 13 -30 28t-34 35t-30 31q0 2 -2 2q-8 -4 -8 -10q-96 -110 -238 -172q-48 -24 -147 -43q-86 -8 -127 -8q-110 6 -219 51q-111 45 -201 135q-88 94 -137 213q-19 50 6 95t76 52q38 7 72.5 -11t49.5 -52q20 -53 62 -105 q73 -94 184 -133q77 -28 154 -22q129 6 235 86q42 33 74 80q0 4 4 4q-4 2 -6 2q-16 16 -48.5 50.5t-49.5 51.5q-21 21 -25 39q-7 24 14 39q20 8 37 8q10 4 29 4h266q32 0 68 -18q54 -39 65 -98v-2v-312z" glyph-name="H22073" horiz-adv-x="1560" unicode="□"/><glyph d="M915 1540l-213 -747h504l-966 -1031l272 764h-463z" glyph-name="uni25A2" horiz-adv-x="1257" unicode="▢"/><glyph d="M1487 1176l-25 22l-123 -156q80 -104 109 -194l-84 -33q-6 14 -16.5 35.5t-12.5 26.5l-256 -232l359 -401l49 -213l-227 32l-408 373l-412 -373l-223 -32l43 213l361 401l-256 232q-18 -32 -25 -62l-88 33q40 107 113 194l-127 156l-25 -22l-47 51l119 119l51 -48 l-23 -24l156 -123q92 76 195 109l36 -84q-11 -5 -32 -14.5t-33 -14.5l217 -242l213 242q-21 11 -61 29l32 84q98 -31 199 -109l156 123l-23 24l51 48l119 -119z" glyph-name="uni25A3" horiz-adv-x="1705" unicode="▣"/><glyph d="M1249 1333q19 -88 83 -149.5t153 -73.5l-129 -782l-502 -281l-502 281l-133 782q90 12 154.5 73t83.5 150h792z" glyph-name="uni25A4" horiz-adv-x="1705" unicode="▤"/><glyph d="M1585 946q0 -48 -6 -98q-28 -131 -117 -217q-391 -391 -588 -586q-10 -13 -26 -13t-29 13q-337 341 -583 584q-102 105 -119 235q-10 75 2 140q31 146 139 235q138 121 330 96q132 -19 221 -108q6 -5 13 -12t15 -15.5t13 -13.5v4q31 34 70 65q137 104 311 80 q133 -18 231 -116q97 -101 117 -232q1 -7 3 -20.5t3 -20.5z" glyph-name="uni25A5" horiz-adv-x="1701" unicode="▥"/><glyph d="M948 985q162 -25 281 -168t119 -325q0 -134 -73.5 -248t-194.5 -179t-259 -65q-136 0 -255.5 65t-192 179t-72.5 248q0 182 118.5 325t280.5 168v248q-23 0 -41 18.5t-18 40.5q0 24 18 43t41 19h248q23 0 41.5 -19.5t18.5 -42.5q0 -22 -18.5 -40.5t-41.5 -18.5v-248z" glyph-name="uni25A6" horiz-adv-x="1699" unicode="▦"/><glyph d="M868 1401q132 0 246.5 -70t184 -193.5t69.5 -269.5v-532l-367 -334l64 602l168 68v196q-113 0 -297 -67v-266l-68 -66l-67 66v266q-191 67 -299 67v-196l166 -68l65 -602l-399 334v532q0 148 70 270t192.5 192.5t271.5 70.5z" glyph-name="uni25A7" horiz-adv-x="1697" unicode="▧"/><glyph d="M1200 1389q176 -112 281.5 -314t105.5 -444q-38 -34 -103 -82t-121 -87t-118 -93.5t-105.5 -106.5t-72.5 -120t-29 -140h-360q0 72 -35 147.5t-85 134.5t-119 119.5t-123.5 99t-112 78t-72.5 50.5q0 242 104 444t279 314q22 -73 46 -134.5t43.5 -104.5t48.5 -85.5 t46.5 -65.5t52.5 -56t50.5 -46t56.5 -47q100 94 136 136q111 131 196 373q5 14 10 30zM543 455q88 0 149.5 50.5t61.5 125.5q0 45 -109 89q-115 47 -223 49q-94 2 -94 -40q0 -80 66.5 -177t148.5 -97zM1171 455q57 0 109.5 49.5t80.5 112.5t28 112q0 46 -109 40 q-114 -7 -223 -55q-94 -42 -94 -83q0 -75 60.5 -125.5t147.5 -50.5z" glyph-name="uni25A8" horiz-adv-x="1701" unicode="▨"/><glyph d="M1096 1323h219v-1128q-231 -138 -467 -138q-234 0 -465 138v1128h192v-219h162v219h221v-219h138v219z" glyph-name="uni25A9" horiz-adv-x="1703" unicode="▩"/><glyph d="M602 573l-532 156l532 168l248 621l248 -621l532 -168l-532 -156l-248 -628z" glyph-name="H18543" horiz-adv-x="1699" unicode="▪"/><glyph d="M96 659l426 684h74l428 -684l-428 -684h-74zM281 662l278 -476l279 478l-277 464z" glyph-name="lozenge" horiz-adv-x="1120" unicode="◊"/><glyph d="M-84 -496v142h117q174 0 174 278v819q0 158 -4 205h186q-4 -47 -4 -203v-829q0 -190 -80 -301t-250 -111h-139z" glyph-name="uniF6BE" horiz-adv-x="585" unicode=""/><glyph d="M43 0q30 63 145 336l387 932l-75 121h205l469 -1104q52 -119 137 -285h-217l-156 387h-555l-150 -387h-190zM659 1102l-223 -576h447z" glyph-name="A.alt" horiz-adv-x="1351"/><glyph d="M117 680q0 149 52.5 280.5t146.5 228t232.5 152.5t301.5 56q189 0 358 -62v-180q-151 84 -348 84q-246 0 -398.5 -153.5t-152.5 -399.5q0 -151 63.5 -276t187.5 -202t286 -77q134 0 225 47v393h-330l23 142h483v-658q-194 -78 -407 -78q-207 0 -371 86t-258 247t-94 370z" glyph-name="G.alt" horiz-adv-x="1415"/><glyph d="M387 -39q0 -177 -103 -282t-278 -105q-70 0 -164 23v163q56 -30 150 -30q101 0 156 66.5t55 183.5v1048q0 252 -4 348h192q-4 -168 -4 -348v-1067z" glyph-name="J.alt" horiz-adv-x="585"/><glyph d="M1524 686q0 -187 -82 -341.5t-225 -250.5q153 -172 239 -260h-223q-70 96 -152 191q-124 -48 -260 -48q-198 0 -359 92t-253 255t-92 364q0 148 54.5 279.5t147.5 225.5t223 149t277 55q196 0 358 -94t254.5 -257t92.5 -360zM821 129q75 0 152 23q-68 76 -207 219h213 q15 -17 59 -69.5t70 -82.5q104 73 162.5 195.5t58.5 271.5q0 238 -144.5 397.5t-365.5 159.5q-143 0 -259.5 -71t-183.5 -199t-67 -287q0 -242 144 -399.5t368 -157.5z" glyph-name="Q.alt" horiz-adv-x="1640"/><glyph d="M41 1376h199l348 -1065l344 1065h53l350 -1065l328 1065h190q-26 -74 -73.5 -217t-73.5 -217l-326 -948h-114l-314 975l-317 -975h-111l-270 758z" glyph-name="W.alt" horiz-adv-x="1894"/><glyph d="M41 1376h201l348 -1065h8l279 819q-16 43 -46 124t-45 122h197l363 -1065h8l327 1065h191q-23 -66 -63.5 -185t-59.5 -173l-352 -1024h-123l-311 915l-318 -915h-119l-376 1075q-12 34 -50 142t-59 165z" glyph-name="W.alt2" horiz-adv-x="1912"/><glyph d="M186 1257q0 44 32.5 76.5t76.5 32.5t77.5 -32.5t33.5 -76.5q0 -45 -33 -76.5t-78 -31.5t-77 31.5t-32 76.5zM199 0q6 47 6 201v542q0 156 -6 205h188q-6 -49 -6 -203v-544q0 -158 6 -201h-188z" glyph-name="i.loclTRK" horiz-adv-x="583"/><glyph d="M-94 -483l20 141q59 -27 121 -27q63 0 103.5 34.5t56.5 86t16 119.5v938h-147v139h147v146q0 180 84.5 283.5t241.5 103.5q61 0 178 -25l-22 -145q-51 26 -121 26q-93 0 -139 -67t-46 -170v-152h240l-27 -139h-213v-928q0 -183 -80 -286t-235 -103q-60 0 -178 25z" glyph-name="f.alt" horiz-adv-x="698"/><glyph d="M147 1257q0 44 31.5 76.5t75.5 32.5q46 0 78.5 -32.5t32.5 -76.5q0 -45 -32.5 -76.5t-78.5 -31.5q-44 0 -75.5 31.5t-31.5 76.5zM160 0q4 47 4 201v637h-84l43 110h221q-4 -57 -4 -239v-508q0 -158 4 -201h-184z" glyph-name="i.alt" horiz-adv-x="495"/><glyph d="M141 1257q0 44 32.5 76.5t76.5 32.5t77 -32.5t33 -76.5q0 -45 -32.5 -76.5t-77.5 -31.5t-77 31.5t-32 76.5zM-125 -496l43 142h66q174 0 174 278v914h-84l45 110h221q-4 -51 -4 -223v-868q0 -165 -93 -259t-237 -94h-131z" glyph-name="j.alt" horiz-adv-x="493"/><glyph d="M217 0q0 44 2 133t2 133v541h-153v139h153v78q0 109 -2 154l180 28q-2 -57 -2 -180v-80h273l-25 -139h-248v-549q0 -43 2 -129t2 -129h-184z" glyph-name="t.alt" horiz-adv-x="757"/><glyph d="M80 838l45 110h221q-6 -49 -6 -213v-327q0 -279 211 -279q72 0 135.5 47.5t99.5 132.5v410q0 157 -4 229h185q-4 -68 -4 -223v-532q0 -130 16 -193h-152l-32 127q-97 -143 -285 -143q-346 0 -346 409v445h-84z" glyph-name="u.alt" horiz-adv-x="1173"/><glyph d="M35 946h186q19 -50 51 -112l297 -594l90 229l-204 477h159l117 -299l111 299h153l-200 -461l98 -245l295 591l59 115h185q-16 -27 -70 -133l-422 -831h-72l-141 331l-141 -331h-70l-405 819q-37 76 -76 145z" glyph-name="w.alt" horiz-adv-x="1466"/><glyph d="M203 -473q87 165 139 280l102 224l-299 674q-76 174 -108 241h207q3 -8 28.5 -75.5t40.5 -102.5l215 -549l207 537q14 33 38 98.5t34 91.5h194q-21 -44 -57 -127.5t-49 -111.5l-524 -1180h-168z" glyph-name="y.alt" horiz-adv-x="1038"/><glyph d="M100 680q0 316 121.5 506t337.5 190q146 0 252.5 -91t159.5 -247.5t53 -359.5t-53.5 -359t-160 -246.5t-251.5 -90.5q-146 0 -251 90.5t-156.5 246.5t-51.5 361zM291 678q0 -259 70 -403t198 -144q131 0 203 145.5t72 401.5q0 255 -72.5 402t-202.5 147 q-128 0 -198 -145.5t-70 -403.5z" glyph-name="zero.non" horiz-adv-x="1124"/><glyph d="M496 0q2 84 2 207v971q-211 -91 -287 -131l-31 141q220 94 406 188h96q0 -21 -2 -122t-2 -136v-913q0 -103 4 -205h-186z" glyph-name="one.non" horiz-adv-x="989"/><glyph d="M131 0v129q125 104 228 205t188 207t132.5 209.5t47.5 191.5q0 130 -75 206.5t-201 76.5q-199 0 -295 -107v187q52 35 140 59.5t189 24.5q205 0 322 -111.5t117 -308.5q0 -66 -17.5 -132t-56.5 -135.5t-80.5 -129t-111 -137.5t-124.5 -135.5t-143 -145.5h299q179 0 275 8 v-162h-834z" glyph-name="two.non"/><glyph d="M178 -178v162q113 -58 250 -58q139 0 222 68.5t83 189.5q0 111 -88.5 174.5t-224.5 63.5q-57 0 -92 -2v143q15 0 41 -1t39 -1q133 0 211.5 65t78.5 171q0 108 -66 171.5t-177 63.5q-151 0 -275 -82v166q152 68 295 68q189 0 299.5 -96.5t110.5 -262.5 q0 -108 -72.5 -192.5t-202.5 -128.5q143 -36 228.5 -124t85.5 -206q0 -178 -127.5 -287.5t-341.5 -109.5q-157 0 -277 45z" glyph-name="three.non" horiz-adv-x="1091"/><glyph d="M647 -180q4 39 4 153v230h-592v92l693 899h77v-858q112 0 222 4v-139q-47 2 -222 2v-228q0 -76 9 -159zM651 336l4 563l-413 -563h409z" glyph-name="four.non" horiz-adv-x="1103"/><glyph d="M137 -188v168q120 -74 260 -74q143 0 236.5 77t93.5 203q0 121 -87 198t-259 77q-117 0 -193 -23q3 34 9.5 82t9.5 78l51 561q94 -6 201 -6h237q106 0 189 6v-162q-122 4 -197 4h-282l-46 -417q65 14 113 14q207 0 330 -108.5t123 -294.5q0 -195 -138 -319t-360 -124 q-140 0 -291 60z" glyph-name="five.non" horiz-adv-x="1071"/><glyph d="M90 438q0 138 45.5 275t126.5 257t187 224t231 188h227q-178 -102 -348 -278t-237 -350q114 112 276 112q79 0 155.5 -35t135.5 -93t95 -140t36 -170q0 -116 -63 -218.5t-171.5 -164t-234.5 -61.5q-125 0 -231 60.5t-168 165t-62 228.5zM272 434q0 -126 81 -214.5 t206 -88.5q130 0 206.5 85.5t76.5 209.5q0 121 -84.5 205t-202.5 84t-200.5 -81t-82.5 -200z" glyph-name="six.non" horiz-adv-x="1099"/><glyph d="M109 1010l-13 164q83 -3 228 -3h399q44 0 125.5 2.5t118.5 2.5q-90 -192 -156 -351l-332 -762q-73 -161 -110 -268h-211q1 3 41 75t63 122l459 1024h-438q-113 0 -174 -6z" glyph-name="seven.non" horiz-adv-x="1042"/><glyph d="M109 360q0 115 77 211.5t201 139.5q-112 48 -174.5 128.5t-62.5 180.5q0 154 116 254t289 100q174 0 287.5 -101t113.5 -243q0 -100 -64.5 -183.5t-174.5 -131.5q131 -46 206.5 -138t75.5 -208q0 -168 -126.5 -276.5t-323.5 -108.5q-193 0 -316.5 104t-123.5 272z M326 1018q0 -94 68.5 -157.5t180.5 -82.5q92 20 148.5 83.5t56.5 148.5q0 96 -64 158.5t-163 62.5q-98 0 -162.5 -60.5t-64.5 -152.5zM289 385q0 -113 75.5 -183.5t188.5 -70.5q115 0 190.5 70.5t75.5 173.5q0 110 -80 177.5t-211 90.5q-101 -18 -170 -88.5t-69 -169.5z" glyph-name="eight.non" horiz-adv-x="1110"/><glyph d="M1010 760q0 -138 -45.5 -275t-126.5 -257t-187 -224t-231 -188h-227q178 102 348 278t237 350q-114 -112 -276 -112q-79 0 -155.5 35t-135.5 93t-95 140t-36 170q0 116 63 218.5t171.5 164t234.5 61.5q125 0 231 -60.5t168 -165t62 -228.5zM827 764q0 126 -80.5 214.5 t-205.5 88.5q-130 0 -206.5 -85.5t-76.5 -209.5q0 -121 84.5 -205t202.5 -84t200 81t82 200z" glyph-name="nine.non" horiz-adv-x="1099"/><glyph d="M98 680q0 316 121.5 506t337.5 190q146 0 252.5 -91t159.5 -247.5t53 -359.5t-53.5 -359t-160 -246.5t-251.5 -90.5q-146 0 -251 90.5t-156.5 246.5t-51.5 361zM289 678q0 -259 70 -403t198 -144q131 0 202.5 145.5t71.5 401.5q0 255 -72 402t-202 147 q-128 0 -198 -145.5t-70 -403.5z" glyph-name="zero.tf" horiz-adv-x="1120"/><glyph d="M535 0q2 84 2 207v971q-211 -91 -287 -131l-31 141q220 94 406 188h96q0 -21 -2 -122t-2 -136v-913q0 -103 4 -205h-186z" glyph-name="one.tf" horiz-adv-x="1120"/><glyph d="M141 0v129q125 104 228 205t188 207t132.5 209.5t47.5 191.5q0 130 -75 206.5t-201 76.5q-199 0 -295 -107v187q51 35 140 59.5t190 24.5q205 0 321.5 -111.5t116.5 -308.5q0 -66 -17.5 -132t-56.5 -135.5t-80.5 -129t-111 -137.5t-124.5 -135.5t-143 -145.5h299 q179 0 275 8v-162h-834z" glyph-name="two.tf" horiz-adv-x="1120"/><glyph d="M201 27v161q111 -57 250 -57t222 68.5t83 189.5q0 111 -88.5 174.5t-225.5 63.5q-57 0 -92 -2v143q15 0 41 -1t39 -1q134 0 212.5 65t78.5 170q0 108 -66.5 172t-177.5 64q-150 0 -274 -82v166q152 68 295 68q189 0 299 -96.5t110 -262.5q0 -108 -72 -192.5t-202 -128.5 q143 -36 228 -124t85 -206q0 -178 -127.5 -287.5t-341.5 -109.5q-156 0 -276 45z" glyph-name="three.tf" horiz-adv-x="1120"/><glyph d="M651 4q4 39 4 154v229h-592v92l693 899h78v-858q111 0 221 4v-139q-47 2 -221 2v-227q0 -87 8 -160zM655 520l4 563l-413 -563h409z" glyph-name="four.tf" horiz-adv-x="1120"/><glyph d="M182 37v168q120 -74 260 -74q143 0 236.5 77.5t93.5 203.5q0 121 -87 197.5t-259 76.5q-120 0 -193 -22q3 34 9.5 81.5t9.5 77.5l51 561q94 -6 201 -6h237q106 0 189 6v-161q-122 4 -197 4h-282l-45 -418q65 14 112 14q208 0 330.5 -108.5t122.5 -294.5q0 -195 -138 -319 t-360 -124q-140 0 -291 60z" glyph-name="five.tf" horiz-adv-x="1120"/><glyph d="M86 438q0 138 45.5 275t126.5 257t187 224t231 188h227q-178 -102 -348.5 -278t-237.5 -350q114 112 277 112q79 0 155.5 -35t135.5 -93t95 -140t36 -170q0 -116 -63 -218.5t-171.5 -164t-234.5 -61.5q-125 0 -231 60.5t-168 165t-62 228.5zM268 434q0 -126 81 -214.5 t206 -88.5q130 0 206.5 85.5t76.5 209.5q0 121 -84.5 205t-202.5 84t-200.5 -81t-82.5 -200z" glyph-name="six.tf" horiz-adv-x="1120"/><glyph d="M164 1214l-12 164q55 -2 227 -2h399q44 0 125.5 2t118.5 2q-94 -200 -156 -350l-331 -762q-77 -171 -111 -268h-211q1 3 41 75t63 122l459 1024h-438q-102 0 -174 -7z" glyph-name="seven.tf" horiz-adv-x="1120"/><glyph d="M115 360q0 115 77 211.5t201 139.5q-112 48 -174.5 128.5t-62.5 180.5q0 154 116 254t289 100q175 0 288.5 -101.5t113.5 -242.5q0 -100 -65 -183.5t-175 -131.5q131 -46 207 -138t76 -208q0 -168 -126.5 -276.5t-324.5 -108.5q-193 0 -316.5 104t-123.5 272zM332 1018 q0 -94 69 -157.5t181 -82.5q92 20 148 83.5t56 148.5q0 96 -64 158.5t-163 62.5q-98 0 -162.5 -60.5t-64.5 -152.5zM295 385q0 -113 75.5 -183.5t188.5 -70.5q115 0 190.5 70.5t75.5 173.5q0 110 -79.5 177.5t-210.5 90.5q-101 -18 -170.5 -88.5t-69.5 -169.5z" glyph-name="eight.tf" horiz-adv-x="1120"/><glyph d="M1016 944q0 -138 -45.5 -275t-126.5 -257t-187 -224t-231 -188h-227q178 102 348 278.5t237 350.5q-115 -113 -276 -113q-79 0 -155.5 35t-135.5 93t-95 140t-36 170q0 116 63 219t171.5 164.5t234.5 61.5q125 0 231 -60.5t168 -165.5t62 -229zM834 948q0 126 -81 214.5 t-206 88.5q-130 0 -206.5 -85.5t-76.5 -209.5q0 -121 84.5 -204.5t202.5 -83.5t200.5 80.5t82.5 199.5z" glyph-name="nine.tf" horiz-adv-x="1120"/><glyph glyph-name="CR" horiz-adv-x="456"/><glyph d="M-715 1393h152q2 -74 41.5 -116t115.5 -42q77 0 115.5 41.5t40.5 116.5h152q-2 -132 -85 -212.5t-223 -80.5q-142 0 -224.5 81t-84.5 212z" glyph-name="brevecombcy" horiz-adv-x="0"/><glyph glyph-name="filledbox.001" horiz-adv-x="1705"/></font>
</defs>
</svg>
