<svg xmlns="http://www.w3.org/2000/svg" xmlns:xlink="http://www.w3.org/1999/xlink" version="1.1"><metadata>Created by FontForge 20170731 at Tue Mar 23 16:28:46 2021 By Aleksey,,, Copyright 2013 Valve Corporation. See license metadata for details.</metadata><defs><font id="Radiance-Light" horiz-adv-x="0"><font-face x-height="938" ascent="1526" bbox="-707 -522 2269 1858" cap-height="1376" descent="-522" font-family="Radiance" font-stretch="normal" font-weight="300" panose-1="0 0 4 0 0 0 0 0 0 0" underline-position="-307" underline-thickness="102" unicode-range="U+0020-FB02" units-per-em="2048"/><glyph d="M940 735v-534q0 -160 6 -201h-147q6 45 6 201v626h-447v-630q0 -140 2 -197h-139q2 86 2 197v630h-141v111h141v166q0 173 78.5 276t226.5 103q58 0 152 -23l-14 -114q-41 24 -113 24q-101 0 -148 -74t-47 -188v-170h588q-6 -47 -6 -203zM799 1255q0 37 26.5 64t63.5 27 t64.5 -27t27.5 -64q0 -38 -27.5 -64t-64.5 -26t-63.5 26t-26.5 64z" glyph-name="fi" horiz-adv-x="1116" unicode="fi"/><glyph d="M221 0q2 86 2 197v630h-141v111h141v166q0 173 78.5 276t226.5 103q58 0 152 -23l-14 -114q-41 24 -113 24q-101 0 -148 -74t-47 -188v-170h236l-19 -111h-217v-630q0 -140 2 -197h-139zM776 0q4 86 4 199v1089q0 16 -2 93.5t-2 95.5h146q-7 -45 -7 -172v-1106 q0 -145 5 -199h-144z" glyph-name="fl" horiz-adv-x="1132" unicode="fl"/><glyph glyph-name=".notdef" horiz-adv-x="450"/><glyph glyph-name=".null"/><glyph glyph-name="nonmarkingreturn" horiz-adv-x="682"/><glyph glyph-name="space" horiz-adv-x="450"/><glyph d="M186 1376h148q-4 -49 -4 -229v-526q0 -181 4 -232h-148q7 79 7 232v526q0 163 -7 229zM158 80q0 40 30 70t68 30q39 0 67.5 -28.5t28.5 -67.5q0 -38 -30 -67t-70 -31q-37 0 -65.5 28t-28.5 66z" glyph-name="exclam" horiz-adv-x="514" unicode="!"/><glyph d="M154 993l-23 467h133l-20 -467h-90zM420 993l-23 467h133l-20 -467h-90z" glyph-name="quotedbl" horiz-adv-x="661" unicode="&quot;"/><glyph d="M84 408v100h244l67 354h-231v99h252l69 376h113l-72 -376h289l72 376h112l-73 -376h223v-99h-242l-67 -354h233v-100h-254l-74 -390h-110l72 390h-289l-72 -390h-113l76 390h-225zM797 862h-291l-70 -354h291z" glyph-name="numbersign" horiz-adv-x="1230" unicode="#"/><glyph d="M180 96l27 131q103 -88 287 -88q116 0 182.5 60.5t66.5 167.5q0 140 -217 258l-60 33t-57 33t-56.5 38t-47.5 39.5t-43.5 46t-31.5 50.5t-22.5 59.5t-6.5 66.5q0 126 77.5 213t215.5 115v147h94v-141q142 -10 237 -41v-127q-98 70 -254 70q-103 0 -168 -56.5t-65 -154.5 q0 -52 25.5 -93t79 -81.5t169.5 -112.5q51 -29 80 -47t72.5 -52.5t67 -66t41.5 -78t18 -98.5q0 -134 -85.5 -226t-234.5 -118v-162h-94v156q-169 3 -297 59z" glyph-name="dollar" horiz-adv-x="1073" unicode="$"/><glyph d="M98 1040q0 148 86.5 244t216.5 96t217 -92.5t87 -240.5q0 -146 -88 -241t-218 -95q-129 0 -215 93t-86 236zM276 0l951 1370h112l-954 -1370h-109zM207 1051q0 -120 52.5 -187t141.5 -67q87 0 142 70t55 177t-56.5 176.5t-146.5 69.5q-82 0 -135 -67t-53 -172zM911 315 q0 152 88.5 246t217.5 94q126 0 213.5 -93t87.5 -240q0 -144 -88 -239t-216 -95q-129 0 -216 92t-87 235zM1018 317q0 -108 53.5 -175.5t145.5 -67.5q87 0 139.5 69t52.5 179q0 108 -53.5 175.5t-141.5 67.5q-89 0 -142.5 -68.5t-53.5 -179.5z" glyph-name="percent" horiz-adv-x="1615" unicode="%"/><glyph d="M113 369q0 122 77.5 218.5t233.5 182.5q-89 89 -128.5 154t-39.5 149q0 117 91 197t228 80q132 0 221 -78t89 -195q0 -88 -63.5 -164t-196.5 -159q147 -133 370 -375q95 109 155.5 187.5t96.5 150.5h148q-118 -180 -320 -420q174 -180 289 -188l14 -117q-113 1 -198 48 t-197 159q-112 -109 -222.5 -163t-236.5 -54q-184 0 -297.5 110.5t-113.5 276.5zM389 1077q0 -107 158 -250q110 62 159.5 121t49.5 129q0 73 -50.5 124.5t-132.5 51.5q-83 0 -133.5 -50.5t-50.5 -125.5zM258 379q0 -124 83.5 -204.5t207.5 -80.5q89 0 172.5 46t175.5 141 q-172 195 -403 415q-236 -138 -236 -317z" glyph-name="ampersand" horiz-adv-x="1462" unicode="&amp;"/><glyph d="M154 993l-23 467h133l-20 -467h-90z" glyph-name="quotesingle" horiz-adv-x="395" unicode="'"/><glyph d="M127 545q0 320 77 576t251 464l98 -76q-150 -214 -208 -440t-58 -524q0 -291 55.5 -516t208.5 -445l-96 -71q-176 206 -252 457.5t-76 574.5z" glyph-name="parenleft" horiz-adv-x="632" unicode="("/><glyph d="M506 553q0 -320 -77 -576t-251 -464l-98 75q150 214 208 440t58 525q0 290 -55.5 515t-208.5 445l96 72q176 -206 252 -457.5t76 -574.5z" glyph-name="parenright" horiz-adv-x="632" unicode=")"/><glyph d="M248 838q75 95 172 241q-39 -1 -109 -6t-124 -9.5t-56 -4.5v102q5 0 49 -3.5t113.5 -8t128.5 -6.5q-13 21 -170 246l84 49q4 -10 139 -269q3 6 61.5 125.5t69.5 145.5l86 -54q-39 -47 -66 -85t-108 -160q271 14 295 18v-100q-86 8 -289 20q104 -162 170 -245l-86 -48 q-21 48 -73 152.5t-58 116.5q-128 -240 -137 -271z" glyph-name="asterisk" horiz-adv-x="944" unicode="*"/><glyph d="M96 457v110h379v404h125v-404h379v-110h-379v-408h-125v408h-379z" glyph-name="plus" horiz-adv-x="1075" unicode="+"/><glyph d="M324 207q10 -44 10 -115q0 -213 -164 -389l-74 35q90 153 90 313q0 73 -8 125z" glyph-name="comma" horiz-adv-x="452" unicode=","/><glyph d="M98 430v119h490v-119h-490z" glyph-name="hyphen" horiz-adv-x="686" unicode="-"/><glyph d="M145 80q0 40 30.5 70t68.5 30q39 0 67.5 -28.5t28.5 -67.5q0 -38 -30 -67t-70 -31q-37 0 -66 28t-29 66z" glyph-name="period" horiz-adv-x="450" unicode="."/><glyph d="M633 1432l-467 -1506h-129l469 1506h127z" glyph-name="slash" horiz-adv-x="669" unicode="/"/><glyph d="M102 678q0 324 119 511t328 187t329.5 -190t120.5 -508q0 -317 -120 -506.5t-330 -189.5t-328.5 188t-118.5 508zM254 678q0 -273 77.5 -426.5t217.5 -153.5q141 0 220 155.5t79 424.5q0 267 -79.5 422t-219.5 155t-217.5 -153.5t-77.5 -423.5z" glyph-name="zero" horiz-adv-x="1101" unicode="0"/><glyph d="M500 0q2 84 2 205v1016q-209 -90 -297 -138l-27 109q196 87 383 184h84q0 -26 -2 -129t-2 -129v-915q0 -97 4 -203h-145z" glyph-name="one" horiz-adv-x="960" unicode="1"/><glyph d="M127 0v102q625 534 625 856q0 141 -80 222.5t-217 81.5q-92 0 -171.5 -27.5t-129.5 -79.5v148q48 35 134 60.5t185 25.5q196 0 311 -109t115 -301q0 -97 -34.5 -191t-130 -217.5t-156 -190.5t-218.5 -231q-20 -21 -30 -32h323q191 0 289 8v-125h-815z" glyph-name="two" horiz-adv-x="1056" unicode="2"/><glyph d="M180 23v129q108 -54 248 -54q150 0 238 75t88 208q0 123 -93.5 191.5t-244.5 68.5q-55 0 -90 -2v113q14 0 39 -1t38 -1q149 0 232.5 70.5t83.5 189.5q0 120 -70 189t-190 69q-155 0 -279 -86v135q158 69 289 69q185 0 291 -95.5t106 -262.5q0 -108 -73.5 -192.5 t-206.5 -128.5q144 -34 232.5 -124t88.5 -208q0 -175 -126.5 -284t-338.5 -109q-141 0 -262 41z" glyph-name="three" horiz-adv-x="1079" unicode="3"/><glyph d="M672 4q6 61 6 154v243h-610v78l680 899h73v-870q111 0 221 4v-113q-49 2 -221 2v-239q0 -86 8 -162zM678 508l4 637l-463 -637h459z" glyph-name="four" horiz-adv-x="1103" unicode="4"/><glyph d="M143 35v129q114 -68 254 -68q155 0 256 85.5t101 224.5q0 132 -92.5 215.5t-278.5 83.5q-115 0 -188 -23l16 141l55 561q105 -6 213 -6h207q106 0 188 6v-127q-153 5 -204 5h-285l-51 -465q62 16 115 16q213 0 336.5 -108t123.5 -295q0 -186 -135.5 -309.5t-357.5 -123.5 q-69 0 -145 17.5t-128 40.5z" glyph-name="five" horiz-adv-x="1054" unicode="5"/><glyph d="M94 432q0 138 47.5 276.5t131.5 259.5t194.5 227t241.5 189l186 -2q-199 -111 -377.5 -291.5t-243.5 -363.5q127 131 308 131q75 0 151 -34.5t135.5 -91.5t97.5 -138.5t38 -169.5q0 -112 -61 -212.5t-167.5 -163t-230.5 -62.5q-122 0 -226 59t-164.5 161.5t-60.5 225.5z M240 428q0 -137 89 -234.5t224 -97.5q141 0 225 95t84 231q0 132 -93.5 223.5t-221.5 91.5q-126 0 -216.5 -88.5t-90.5 -220.5z" glyph-name="six" horiz-adv-x="1087" unicode="6"/><glyph d="M111 1251l-17 127q59 -2 217 -2h367q42 0 127 2t127 2q-94 -204 -156 -352l-330 -743q-69 -152 -118 -285h-166q2 6 41 76.5t61 118.5l471 1060h-471q-75 0 -153 -4z" glyph-name="seven" horiz-adv-x="1019" unicode="7"/><glyph d="M111 356q0 116 79 211t205 142q-115 52 -180 134t-65 181q0 152 113 251t284 99q170 0 281.5 -100.5t111.5 -241.5q0 -103 -66 -186t-182 -133q136 -50 213.5 -141t77.5 -207q0 -166 -122.5 -273.5t-319.5 -107.5q-193 0 -311.5 102.5t-118.5 269.5zM297 1026 q0 -105 73 -172.5t199 -89.5q101 22 162.5 92.5t61.5 161.5q0 103 -70 171t-178 68t-178 -65t-70 -166zM260 375q0 -125 81 -201t204 -76q125 0 208 75t83 189q0 119 -87.5 192.5t-226.5 98.5q-110 -18 -186 -96t-76 -182z" glyph-name="eight" horiz-adv-x="1101" unicode="8"/><glyph d="M993 950q0 -183 -83 -364.5t-219 -328.5t-312 -259l-186 2q199 111 377 291.5t243 363.5q-127 -131 -307 -131q-75 0 -151 34.5t-135.5 91.5t-97.5 138.5t-38 169.5q0 83 36.5 163t97.5 141t146.5 98t178.5 37q122 0 225.5 -59t164 -162t60.5 -226zM848 954 q0 137 -89 234.5t-224 97.5q-141 0 -225.5 -94.5t-84.5 -230.5q0 -132 94 -224t222 -92q126 0 216.5 88.5t90.5 220.5z" glyph-name="nine" horiz-adv-x="1087" unicode="9"/><glyph d="M145 860q0 40 30.5 70.5t68.5 30.5t67 -28.5t29 -68.5q0 -38 -30 -67t-70 -31q-37 0 -66 28t-29 66zM145 80q0 40 30.5 70t68.5 30q39 0 67.5 -28.5t28.5 -67.5q0 -38 -30 -67t-70 -31q-37 0 -66 28t-29 66z" glyph-name="colon" horiz-adv-x="450" unicode=":"/><glyph d="M145 860q0 40 30.5 70.5t68.5 30.5t67 -28.5t29 -68.5q0 -38 -30 -67t-70 -31q-37 0 -66 28t-29 66zM324 207q10 -44 10 -115q0 -213 -164 -389l-74 35q90 153 90 313q0 73 -8 125z" glyph-name="semicolon" horiz-adv-x="450" unicode=";"/><glyph d="M975 57l-832 426v82l832 426v-123l-696 -340l696 -344v-127z" glyph-name="less" horiz-adv-x="1138" unicode="&lt;"/><glyph d="M979 743v-108h-883v108h883zM979 393v-112h-883v112h883z" glyph-name="equal" horiz-adv-x="1075" unicode="="/><glyph d="M164 991l831 -426v-82l-831 -426v123l696 340l-696 344v127z" glyph-name="greater" horiz-adv-x="1138" unicode="&gt;"/><glyph d="M336 379q0 123 37 201t159 215q81 92 116.5 150t35.5 116q0 92 -60 150.5t-163 58.5q-74 0 -146 -36.5t-127 -98.5v141q46 51 116.5 83t156.5 32q160 0 255 -95t95 -227q0 -48 -13 -91t-44.5 -90.5t-61 -83t-84.5 -97.5q-86 -95 -117.5 -162t-31.5 -166h-123zM307 80 q0 40 30.5 70t68.5 30q39 0 67.5 -28.5t28.5 -67.5q0 -38 -30.5 -67t-70.5 -31q-37 0 -65.5 28t-28.5 66z" glyph-name="question" horiz-adv-x="937" unicode="?"/><glyph d="M451 383q0 113 45 207.5t132.5 152.5t200.5 58q58 0 117.5 -26t83.5 -66l12 79l119 -24l-65 -469q0 -79 24.5 -116.5t85.5 -37.5q108 0 178 102t70 269q0 262 -168 426t-450 164q-133 0 -253.5 -53t-208.5 -144.5t-140 -221.5t-52 -277q0 -193 83 -340.5t224 -224.5 t316 -77q178 0 282 52l13 -86q-46 -14 -138.5 -27.5t-156.5 -13.5q-146 0 -279 53.5t-231.5 146t-156.5 226.5t-58 286q0 165 60.5 311t162.5 248.5t241.5 162t293.5 59.5q207 0 370.5 -82.5t255.5 -233t92 -344.5q0 -209 -102 -339t-262 -130q-91 0 -142.5 42t-54.5 143 q-101 -179 -276 -179q-113 0 -190.5 89t-77.5 235zM569 393q0 -108 50.5 -172.5t138.5 -64.5q74 0 128 42t101 109l35 359q-30 25 -83 43t-93 18q-115 0 -196 -96.5t-81 -237.5z" glyph-name="at" horiz-adv-x="1638" unicode="@"/><glyph d="M49 0q30 66 135 324l434 1067h68l465 -1129q28 -68 123 -262h-172l-170 424h-565l-164 -424h-154zM408 537h481l-240 626z" glyph-name="A" horiz-adv-x="1323" unicode="A"/><glyph d="M205 0q6 147 6 360v641q0 187 -4 375h313q186 0 292 -93.5t106 -238.5q0 -94 -58 -172t-155 -120q142 -37 227.5 -134t85.5 -223q0 -185 -129.5 -290t-335.5 -105h-348zM774 1024q0 109 -72 172.5t-198 63.5h-150v-474h170q114 0 182 65t68 173zM870 395 q0 126 -84.5 200.5t-222.5 74.5h-209v-553h189q153 0 240 73.5t87 204.5z" glyph-name="B" horiz-adv-x="1124" unicode="B"/><glyph d="M123 680q0 144 53.5 275t146.5 228t227.5 154.5t289.5 57.5q172 0 346 -64v-143q-144 84 -338 84q-167 0 -298.5 -78t-203.5 -212t-72 -298t71.5 -297.5t202 -211t294.5 -77.5q80 0 175.5 25.5t170.5 62.5v-139q-168 -67 -363 -67q-202 0 -362 89.5t-250 249.5t-90 361z" glyph-name="C" horiz-adv-x="1304" unicode="C"/><glyph d="M205 0q4 208 4 379v684q0 145 -4 313h366q203 0 365 -85t255 -242t93 -357q0 -202 -93.5 -360.5t-257 -245t-368.5 -86.5h-360zM352 119h207q259 0 416.5 160t157.5 415q0 250 -161 406.5t-415 156.5h-205v-1138z" glyph-name="D" horiz-adv-x="1406" unicode="D"/><glyph d="M205 0q0 96 2 201t2 127v716q0 140 -4 332h305q248 0 352 4l-20 -127q-104 4 -348 4h-142v-481h156q227 0 315 2v-125q-180 4 -315 4h-156v-538h211q236 0 316 2v-123q-80 2 -310 2h-364z" glyph-name="E" horiz-adv-x="1017" unicode="E"/><glyph d="M205 0q4 208 4 354v664q0 150 -4 358h336q227 0 323 4l-20 -127q-74 4 -293 4h-199v-501h197q174 0 258 4v-127q-148 4 -258 4h-197v-291q0 -225 2 -346h-149z" glyph-name="F" horiz-adv-x="983" unicode="F"/><glyph d="M123 678q0 147 51 277.5t143.5 228t231.5 154.5t305 57q190 0 360 -66v-143q-141 86 -352 86q-261 0 -424.5 -162.5t-163.5 -423.5q0 -120 39.5 -227t111.5 -187.5t181.5 -128t241.5 -47.5q146 0 260 51v228q0 168 -4 254h151q0 -49 -0.5 -100.5t-1.5 -138t-2 -163.5 l-2 -170q-204 -80 -409 -80q-206 0 -368.5 85.5t-255.5 246t-93 369.5z" glyph-name="G" horiz-adv-x="1427" unicode="G"/><glyph d="M205 0q4 172 4 307v723q0 170 -4 346h151q-4 -139 -4 -471v-127h791v275q0 159 -4 323h151q-4 -121 -4 -346v-780q0 -98 4 -250h-151q4 164 4 291v371h-791v-371q0 -203 4 -291h-151z" glyph-name="H" horiz-adv-x="1495" unicode="H"/><glyph d="M205 0q6 282 6 324v688q0 46 -6 364h153q-4 -114 -4 -364v-690q0 -222 4 -322h-153z" glyph-name="I" horiz-adv-x="563" unicode="I"/><glyph d="M61 2v127q59 -29 142 -29q103 0 159 67.5t56 188.5v674q0 246 -4 346h149q-2 -186 -2 -346v-690q0 -167 -92.5 -263.5t-257.5 -96.5q-67 0 -150 22z" glyph-name="J" horiz-adv-x="743" unicode="J"/><glyph d="M205 0q4 192 4 328v719q0 59 -2 162.5t-2 166.5h151q-2 -117 -2 -327v-353l383 455q121 140 185 225h161q-28 -35 -84 -100l-487 -569l489 -545q14 -15 44.5 -49t55.5 -61t50 -52h-195q-46 59 -133 158l-469 530v-358q0 -201 2 -330h-151z" glyph-name="K" horiz-adv-x="1198" unicode="K"/><glyph d="M205 0q0 1 1 82.5t2 174.5t1 122v616q0 159 -4 381h149q0 -44 -1 -85t-1 -50v-1122h266q137 0 277 4v-127q-86 4 -289 4h-401z" glyph-name="L" horiz-adv-x="954" unicode="L"/><glyph d="M143 0q1 13 14 160.5t15 183.5l76 1045h84l530 -992l522 992h86l62 -1067q10 -211 22 -322h-157q0 144 -8 295l-37 805l-469 -910h-49l-474 910l-51 -795q-10 -155 -14 -305h-152z" glyph-name="M" horiz-adv-x="1697" unicode="M"/><glyph d="M205 0q4 180 4 289v760q0 104 -4 342h86l903 -1106v751q0 239 -6 340h151q-8 -98 -8 -327v-773q0 -190 2 -276h-92l-895 1110v-831q0 -153 6 -279h-147z" glyph-name="N" horiz-adv-x="1544" unicode="N"/><glyph d="M123 686q0 198 91 360.5t250 255.5t353 93q193 0 352.5 -94t250.5 -256.5t91 -358.5q0 -198 -91.5 -361t-250.5 -255.5t-352 -92.5q-146 0 -274.5 54t-221 147.5t-145.5 225t-53 282.5zM274 686q0 -257 153.5 -423.5t389.5 -166.5q234 0 387.5 168t153.5 422 q0 250 -154 419t-387 169q-151 0 -275 -75t-196 -210t-72 -303z" glyph-name="O" horiz-adv-x="1634" unicode="O"/><glyph d="M967 950q0 -187 -129 -308.5t-359 -121.5h-127v-184q0 -240 4 -336h-151q4 188 4 354v733q0 129 -4 289h284q228 0 353 -116.5t125 -309.5zM815 952q0 141 -90 223t-246 82h-127v-618h127q151 0 243.5 83t92.5 230z" glyph-name="P" horiz-adv-x="1062" unicode="P"/><glyph d="M1642 -182l15 -109q-82 -20 -166 -20q-185 0 -329.5 66t-297.5 225q-21 -3 -47 -3q-146 0 -274.5 54t-221 147.5t-145.5 225t-53 282.5q0 198 91 360.5t250 255.5t353 93q193 0 352.5 -94t250.5 -256.5t91 -358.5q0 -243 -133.5 -427t-349.5 -251q111 -99 239.5 -152 t248.5 -53q60 0 126 15zM274 686q0 -257 153.5 -423.5t389.5 -166.5q234 0 387.5 168t153.5 422q0 250 -154 419t-387 169q-151 0 -275 -75t-196 -210t-72 -303z" glyph-name="Q" horiz-adv-x="1634" unicode="Q"/><glyph d="M961 991q0 -137 -76 -228.5t-215 -135.5l198 -285q89 -128 269 -342h-191l-409 582h-187v-228q0 -170 4 -354h-149q4 94 4 362v693q0 241 -4 321h284q97 0 181 -23.5t150 -69t103.5 -120.5t37.5 -172zM811 979q0 133 -91.5 205.5t-232.5 72.5h-137v-557h146 q130 0 222.5 75t92.5 204z" glyph-name="R" horiz-adv-x="1191" unicode="R"/><glyph d="M131 45l31 150q56 -50 137 -78.5t170 -28.5q124 0 198 64t74 178q0 52 -20.5 98.5t-58 83.5t-74.5 64t-84 53q-41 23 -67 38.5t-64.5 42t-63 48.5t-53 54t-44.5 63.5t-27 72t-11 84.5q0 166 109.5 265.5t287.5 99.5q65 0 147 -15.5t124 -33.5v-144q-93 78 -269 78 q-110 0 -179.5 -59.5t-69.5 -165.5q0 -86 58 -154.5t175 -132.5q134 -78 205 -137.5t104 -126.5t33 -158q0 -165 -119.5 -269t-310.5 -104q-169 0 -338 70z" glyph-name="S" horiz-adv-x="1034" unicode="S"/><glyph d="M520 0q2 92 2 348v649q0 186 -2 260h-155q-211 0 -295 -4v125q51 0 154.5 -1t154.5 -1h452q226 0 306 2l-21 -125q-180 4 -293 4h-155q-2 -76 -2 -260v-649q0 -260 4 -348h-150z" glyph-name="T" horiz-adv-x="1193" unicode="T"/><glyph d="M334 1376q-6 -94 -6 -336v-512q0 -209 104.5 -319.5t276.5 -110.5q177 0 277.5 113.5t100.5 320.5v508q0 252 -2 336h148q-2 -102 -2 -338v-514q0 -266 -141 -405t-381 -139q-248 0 -386.5 144t-138.5 400v514q0 150 -4 338h154z" glyph-name="U" horiz-adv-x="1413" unicode="U"/><glyph d="M49 1376h164l457 -1165l456 1165h156q-14 -31 -59.5 -133t-44.5 -98l-482 -1170h-61l-469 1141q-70 171 -117 260z" glyph-name="V" horiz-adv-x="1331" unicode="V"/><glyph d="M49 1376h164l457 -1165l227 580l-248 585h154l182 -413l164 413h145l-241 -581l215 -584l456 1165h156q-28 -66 -57 -132t-62 -142l-467 -1102h-61l-268 645l-269 -645h-61l-465 1090q-23 53 -64.5 152t-56.5 134z" glyph-name="W" horiz-adv-x="1929" unicode="W"/><glyph d="M53 0q111 152 193 279l266 411l-254 404q-20 32 -186 282h176q50 -90 121 -207l229 -368l244 387q59 101 116 188h164q-78 -103 -192 -278l-256 -398l256 -411q42 -69 196 -289h-174q-99 169 -116 195l-248 391l-269 -426q-97 -156 -100 -160h-166z" glyph-name="X" horiz-adv-x="1179" unicode="X"/><glyph d="M522 0q6 264 6 328v268l-323 532l-156 248h168q19 -38 105 -188l282 -469l275 463q13 21 53 93.5t57 100.5h162q-12 -22 -67 -107t-83 -132l-329 -543v-268q0 -44 6 -326h-156z" glyph-name="Y" horiz-adv-x="1200" unicode="Y"/><glyph d="M106 0q6 10 66 110.5t92 157.5l565 989h-370q-242 0 -320 -4l-20 125q98 -2 366 -2h574l-733 -1257h452q221 0 297 2v-123q-78 2 -299 2h-670z" glyph-name="Z" horiz-adv-x="1165" unicode="Z"/><glyph d="M166 -434q4 132 4 225v1526q0 95 -4 227h276q92 0 131 2v-106q-39 2 -120 2h-160v-1774h162q85 0 118 2v-106q-20 2 -110 2h-297z" glyph-name="bracketleft" horiz-adv-x="636" unicode="["/><glyph d="M168 1432l469 -1506h-131l-465 1506h127z" glyph-name="backslash" horiz-adv-x="675" unicode="\"/><glyph d="M471 -434h-297q-91 0 -111 -2v106q33 -2 119 -2h162v1774h-160q-82 0 -121 -2v106q39 -2 132 -2h276q-4 -132 -4 -227v-1526q0 -93 4 -225z" glyph-name="bracketright" horiz-adv-x="636" unicode="]"/><glyph d="M803 815l-273 471l-270 -471h-121l357 584h73l359 -584h-125z" glyph-name="asciicircum" horiz-adv-x="1067" unicode="^"/><glyph d="M936 -176v-55h-920v55h920z" glyph-name="underscore" horiz-adv-x="952" unicode="_"/><glyph d="M102 272q0 140 105.5 216t296.5 85q154 7 237 7v47q0 103 -75 162t-183 59q-145 0 -264 -74l-47 100q146 87 328 87q161 0 267.5 -94.5t106.5 -256.5v-317q0 -179 31 -293h-143l-12 113q-143 -133 -330 -133q-134 0 -226 81.5t-92 210.5zM244 274q0 -85 49 -134.5 t135 -49.5q84 0 168.5 34.5t144.5 94.5v256l-215 -6q-143 -5 -212.5 -49t-69.5 -146z" glyph-name="a" horiz-adv-x="1069" unicode="a"/><glyph d="M244 0h-49v1415h-105l39 86h209q-8 -132 -8 -170v-459q128 91 295 91q215 0 351 -137.5t136 -348.5q0 -222 -138 -353.5t-353 -131.5q-84 0 -168.5 30t-139.5 78zM330 217q56 -51 130.5 -79.5t153.5 -28.5q166 0 261.5 100.5t95.5 267.5t-95 268t-258 101q-89 0 -166 -26 t-122 -68v-535z" glyph-name="b" horiz-adv-x="1222" unicode="b"/><glyph d="M111 463q0 212 143.5 353.5t370.5 141.5q156 0 290 -69v-135q-119 86 -278 86q-177 0 -280 -105.5t-103 -271.5q0 -167 101 -264t284 -97q82 0 155.5 27.5t120.5 63.5v-134q-41 -31 -117.5 -53t-172.5 -22q-227 0 -370.5 136t-143.5 343z" glyph-name="c" horiz-adv-x="1062" unicode="c"/><glyph d="M111 475q0 222 138 354t353 132q82 0 165 -28.5t124 -66.5v496h-107l45 86h203q-6 -86 -6 -182v-1026l2 -240h-51l-62 100q-58 -48 -147 -79t-180 -31q-214 0 -345.5 136.5t-131.5 348.5zM252 475q0 -169 90 -269t252 -100q83 0 166 29t131 74l2 526q-119 109 -285 109 t-261 -100.5t-95 -268.5z" glyph-name="d" horiz-adv-x="1243" unicode="d"/><glyph d="M111 481q0 127 52.5 235.5t154 176.5t231.5 68q112 0 196.5 -37.5t131.5 -101t69.5 -135.5t22.5 -152q0 -48 -4 -84h-713q15 -351 346 -351q144 0 320 103v-119q-53 -41 -138.5 -69.5t-187.5 -28.5q-215 0 -348 128.5t-133 366.5zM553 850q-62 0 -112.5 -17.5 t-83.5 -45.5t-56.5 -67t-34.5 -79t-14 -84h586q-7 293 -285 293z" glyph-name="e" horiz-adv-x="1067" unicode="e"/><glyph d="M221 0q2 86 2 197v630h-141v111h141v166q0 173 78.5 276t226.5 103q58 0 152 -23l-14 -114q-41 24 -113 24q-101 0 -148 -74t-47 -188v-170h236l-19 -111h-217v-630q0 -140 2 -197h-139z" glyph-name="f" horiz-adv-x="659" unicode="f"/><glyph d="M111 475q0 221 137 352t346 131q88 0 172 -27t125 -65l4 72h137q-4 -90 -4 -137v-809q0 -109 -25.5 -191.5t-70 -135.5t-110.5 -86t-140 -46.5t-166 -13.5q-79 0 -180.5 16t-163.5 33l29 108q215 -43 317 -43q177 0 275 83.5t98 279.5v86q-137 -92 -303 -92 q-214 0 -345.5 136.5t-131.5 348.5zM252 475q0 -169 90 -269t252 -100q83 0 166 29t131 74l2 526q-126 109 -285 109q-170 0 -263 -100t-93 -269z" glyph-name="g" horiz-adv-x="1222" unicode="g"/><glyph d="M164 0q4 106 4 184v1207h-78l37 86h180q-4 -47 -4 -199v-487q51 72 138.5 117.5t209.5 45.5q163 0 263 -100.5t100 -292.5v-344q0 -166 4 -217h-141q2 37 2 227v348q0 134 -74 198.5t-195 64.5q-93 0 -176 -53.5t-131 -141.5v-463q0 -82 4 -180h-143z" glyph-name="h" horiz-adv-x="1169" unicode="h"/><glyph d="M213 1255q0 37 26.5 64t63.5 27t64.5 -27t27.5 -64q0 -38 -27.5 -64t-64.5 -26t-63.5 26t-26.5 64zM268 0q6 45 6 201v534q0 160 -6 203h148q-6 -47 -6 -203v-534q0 -160 6 -201h-148z" glyph-name="i" horiz-adv-x="550" unicode="i"/><glyph d="M246 1346q37 0 64.5 -27t27.5 -64q0 -38 -27.5 -64t-64.5 -26t-63.5 26t-26.5 64q0 37 26.5 64t63.5 27zM-76 -510v107h119q178 0 178 282v856q0 160 -4 203h143q-4 -47 -4 -203v-862q0 -383 -313 -383h-119z" glyph-name="j" horiz-adv-x="473" unicode="j"/><glyph d="M172 0q4 114 4 205v1186h-86l33 86h194q-6 -57 -6 -197v-768l430 426h187q-103 -80 -160 -133l-301 -283l405 -416q81 -81 109 -106h-190l-480 496v-308q0 -70 4 -188h-143z" glyph-name="k" horiz-adv-x="1046" unicode="k"/><glyph d="M174 0q4 86 4 199v1192h-88l37 86h192q-6 -39 -6 -172v-1106q0 -156 4 -199h-143z" glyph-name="l" horiz-adv-x="530" unicode="l"/><glyph d="M90 848l37 90h164l12 -143q40 65 117.5 112t157.5 47q211 0 284 -176q52 79 133 127.5t166 48.5q139 0 225.5 -100.5t86.5 -292.5v-375q0 -76 4 -186h-142q2 74 2 223v352q0 134 -47 198.5t-149 64.5q-73 0 -139 -52.5t-115 -142.5v-457q0 -80 4 -186h-139q2 70 2 223 v350q0 132 -47.5 198.5t-149.5 66.5q-73 0 -139 -52.5t-115 -142.5v-416q0 -161 2 -227h-139q2 90 2 190v658h-78z" glyph-name="m" horiz-adv-x="1628" unicode="m"/><glyph d="M90 848l37 90h164l12 -147q51 72 138.5 117.5t209.5 45.5q162 0 261.5 -100.5t99.5 -292.5v-344q0 -154 4 -217h-142q3 132 3 227v348q0 134 -73.5 198.5t-193.5 64.5q-96 0 -177.5 -53t-129.5 -142v-416q0 -153 2 -227h-141q4 152 4 227v621h-78z" glyph-name="n" horiz-adv-x="1167" unicode="n"/><glyph d="M111 465q0 204 133.5 346.5t326.5 142.5q195 0 328 -142.5t133 -346.5q0 -202 -132 -341.5t-329 -139.5t-328.5 139.5t-131.5 341.5zM252 465q0 -156 90 -262.5t229 -106.5q144 0 232 105.5t88 263.5q0 162 -91 267.5t-229 105.5q-72 0 -134 -34.5t-101.5 -89t-61.5 -120 t-22 -129.5z" glyph-name="o" horiz-adv-x="1142" unicode="o"/><glyph d="M90 850l37 88h209l-10 -90q115 115 297 115q215 0 351 -137.5t136 -348.5q0 -222 -138.5 -353.5t-353.5 -131.5q-143 0 -290 88v-555l-140 -35q0 34 2.5 101.5t2.5 101.5v1157h-103zM969 477q0 167 -95 268t-258 101q-165 0 -288 -115v-514q56 -51 130.5 -79.5 t153.5 -28.5q166 0 261.5 100.5t95.5 267.5z" glyph-name="p" horiz-adv-x="1220" unicode="p"/><glyph d="M111 475q0 221 137 352t346 131q88 0 172 -27t125 -65v72h141q-4 -57 -4 -170v-1032q0 -79 6 -250h-145q4 152 4 244l-2 352q-137 -92 -303 -92q-214 0 -345.5 136.5t-131.5 348.5zM252 475q0 -169 90 -269t252 -100q83 0 166 29t131 74l2 526q-126 109 -285 109 q-170 0 -263 -100t-93 -269z" glyph-name="q" horiz-adv-x="1245" unicode="q"/><glyph d="M90 850l37 88h160l18 -135q47 63 128 109t151 46q52 0 96 -14l-27 -125q-52 10 -96 10q-61 0 -130 -36.5t-118 -108.5v-483q0 -24 6 -201h-147q6 111 6 207v643h-84z" glyph-name="r" horiz-adv-x="729" unicode="r"/><glyph d="M102 39l23 131q111 -90 244 -90q87 0 142.5 41.5t55.5 114.5q0 26 -12.5 50t-28 40.5t-47 37.5t-50 30.5t-56.5 29.5q-47 24 -82 47t-73.5 57t-59.5 78.5t-21 95.5q0 112 82.5 182t222.5 70q96 0 220 -36v-127q-101 61 -213 61q-84 0 -133.5 -37t-49.5 -102 q0 -25 12.5 -49t27.5 -40t46 -36t49.5 -30t55.5 -28q38 -19 65.5 -35.5t62.5 -44t57.5 -56t38 -68.5t15.5 -84q0 -123 -88 -194t-233 -71q-71 0 -147.5 18t-125.5 44z" glyph-name="s" horiz-adv-x="806" unicode="s"/><glyph d="M70 827v111h157v80q0 104 -2 147l140 27q-3 -88 -3 -176v-78h275l-19 -111h-256v-514q0 -114 33.5 -167.5t118.5 -53.5q51 0 104 29l23 -105q-32 -14 -82.5 -24t-85.5 -10q-246 0 -246 297v548h-157z" glyph-name="t" horiz-adv-x="731" unicode="t"/><glyph d="M90 850l41 88h180q-6 -45 -6 -213v-328q0 -157 57.5 -229t172.5 -72q77 0 147.5 52.5t110.5 144.5v412q0 157 -2 233h141q-4 -72 -4 -225v-527q0 -120 16 -186h-115l-34 123q-94 -139 -285 -139q-168 0 -254 98.5t-86 308.5v459h-80z" glyph-name="u" horiz-adv-x="1155" unicode="u"/><glyph d="M201 938q8 -24 18.5 -51.5t26.5 -67.5t26 -67l215 -568l228 600q6 16 27.5 77t27.5 77h145q-53 -112 -86 -190l-313 -766h-65l-320 770q-44 100 -86 186h156z" glyph-name="v" horiz-adv-x="960" unicode="v"/><glyph d="M41 938h152q22 -91 65 -211l184 -526l240 737h90l254 -754l201 627q30 93 37 127h141q-11 -27 -28 -76.5t-29 -79.5l-287 -800h-68l-268 780l-262 -780h-74l-270 745q-12 36 -40.5 109t-37.5 102z" glyph-name="w" horiz-adv-x="1445" unicode="w"/><glyph d="M49 0q61 82 137 195l189 272l-185 276q-88 137 -139 195h162l244 -381l237 381h156q-20 -26 -41 -57t-48 -72.5t-44 -65.5l-185 -274l218 -322q10 -14 46.5 -67.5t55.5 -79.5h-150l-253 377l-246 -377h-154z" glyph-name="x" horiz-adv-x="901" unicode="x"/><glyph d="M45 938h158q13 -31 36 -93.5t35 -92.5l228 -596l237 585q36 88 68 197h149l-88 -205l-395 -905q-53 -122 -126.5 -173.5t-188.5 -51.5h-58l19 94q73 0 113.5 13.5t69.5 47t63 105.5l75 160l-282 655q-7 16 -48 111.5t-65 148.5z" glyph-name="y" horiz-adv-x="1001" unicode="y"/><glyph d="M86 0l492 827h-293q-76 0 -166 -4l-6 117q51 -2 176 -2h485l-491 -829h309q76 0 186 4v-115q-43 2 -129 2h-563z" glyph-name="z" horiz-adv-x="856" unicode="z"/><glyph d="M78 508v100q89 9 133.5 66t44.5 170q0 26 -4 178t-4 178q0 172 97 256.5t263 87.5l13 -112q-125 -5 -184.5 -66.5t-59.5 -210.5q0 -20 4 -170t4 -178q0 -93 -35 -154.5t-123 -93.5q88 -33 123 -95t35 -155q0 -22 -4 -172.5t-4 -175.5q0 -149 59.5 -210t184.5 -64 l-13 -115q-166 3 -263 87.5t-97 256.5q0 28 4 185.5t4 183.5q0 205 -178 223z" glyph-name="braceleft" horiz-adv-x="688" unicode="{"/><glyph d="M295 1561v-2003h-119v2003h119z" glyph-name="bar" horiz-adv-x="471" unicode="|"/><glyph d="M610 608v-100q-89 -9 -133.5 -66t-44.5 -170q0 -26 4 -178t4 -178q0 -172 -97 -256.5t-263 -87.5l-12 113q125 5 184 66t59 210q0 20 -4 170t-4 178q0 93 35 154.5t123 93.5q-88 33 -123 95t-35 155q0 22 4 172.5t4 175.5q0 149 -59.5 210.5t-183.5 64.5l12 114 q166 -3 263 -87.5t97 -256.5q0 -28 -4 -185.5t-4 -183.5q0 -205 178 -223z" glyph-name="braceright" horiz-adv-x="688" unicode="}"/><glyph d="M184 535q3 69 44.5 121.5t111.5 52.5q34 0 69.5 -15.5t60 -34t54.5 -34t54 -15.5q63 0 73 88h82q-3 -71 -41.5 -122.5t-109.5 -51.5q-43 0 -88 23.5t-84.5 47t-69.5 23.5q-60 0 -70 -83h-86z" glyph-name="asciitilde" horiz-adv-x="917" unicode="~"/><glyph d="M352 868q0 -40 -30 -70t-68 -30q-39 0 -67.5 28.5t-28.5 67.5q0 38 30 67.5t70 31.5q37 0 65.5 -28.5t28.5 -66.5zM324 -428h-148q4 49 4 229v527q0 180 -4 231h148q-7 -79 -7 -231v-527q0 -162 7 -229z" glyph-name="exclamdown" horiz-adv-x="514" unicode="¡"/><glyph d="M870 170q-91 -37 -219 -43v-174h-88v178q-177 24 -283 154.5t-106 298.5q0 180 110 310.5t281 156.5v190h88v-182q111 -7 199 -37v-123q-75 46 -172 49q-158 2 -262.5 -94t-104.5 -264q0 -160 98.5 -256.5t262.5 -93.5q104 0 178 47z" glyph-name="cent" horiz-adv-x="1073" unicode="¢"/><glyph d="M100 0v98q246 52 246 559h-160v97h164q0 620 428 620q28 0 91.5 -10.5t99.5 -20.5l-17 -116q-53 30 -155 30q-284 0 -303 -374l-5 -129h334l-20 -97h-318q0 -198 -53 -341t-147 -212q190 5 286 5h162q87 0 209 4v-115q-57 2 -186 2h-656z" glyph-name="sterling" horiz-adv-x="1073" unicode="£"/><glyph d="M102 670q0 134 95 264l-154 149l74 72l149 -149q131 98 273 98q128 0 264 -98l147 147l72 -74l-145 -145q94 -131 94 -264q0 -144 -97 -262l148 -148l-74 -76l-147 148q-130 -92 -264 -92q-148 0 -269 92l-145 -144l-74 72l148 150q-95 121 -95 260zM217 672 q0 -138 93 -233t227 -95q132 0 224.5 96.5t92.5 231.5q0 131 -92 228t-225 97q-136 0 -228 -96t-92 -229z" glyph-name="currency" horiz-adv-x="1073" unicode="¤"/><glyph d="M459 0q1 25 2.5 67t2.5 78t1 72v111h-301v80h301v172h-301v77h303l-299 517q-63 105 -109 184h162l86 -160l230 -432l235 420q72 133 88 172h152l-119 -205l-289 -496h301v-77h-301v-172h301v-80h-301v-111q0 -19 6 -217h-151z" glyph-name="yen" horiz-adv-x="1073" unicode="¥"/><glyph d="M295 1561v-730h-119v730h119zM295 287v-729h-119v729h119z" glyph-name="brokenbar" horiz-adv-x="471" unicode="¦"/><glyph d="M127 662q0 79 51.5 150t145.5 122q-55 40 -90 100t-35 125q0 134 94.5 214.5t253.5 80.5q145 0 284 -55v-117q-54 39 -115.5 54.5t-150.5 15.5q-105 0 -166 -49.5t-61 -135.5q0 -76 55.5 -129t163.5 -102q54 -25 87.5 -41.5t82 -44t78 -54t58.5 -61.5t43 -76.5t14 -89.5 q0 -149 -170 -272q108 -95 108 -223q0 -150 -106 -230t-283 -80q-160 0 -324 76l31 123q111 -94 291 -94q118 0 186 49t68 145q0 142 -236 248q-155 71 -211 108q-135 89 -146 217q-1 13 -1 26zM250 694q0 -30 11.5 -59t27 -51.5t44.5 -46.5t51.5 -39.5t61.5 -36.5 t60.5 -31.5t60.5 -28.5q62 -27 115 -55q111 86 111 199q0 37 -10.5 69t-35.5 60t-48.5 48.5t-67.5 45t-73 39t-83 39.5q-81 37 -90 43q-64 -30 -99.5 -83t-35.5 -112z" glyph-name="section" horiz-adv-x="1036" unicode="§"/><glyph d="M123 657q0 178 86 329t236 240t329 89q180 0 330.5 -89t236.5 -240t86 -329q0 -136 -50.5 -258t-136.5 -210.5t-207.5 -140.5t-258.5 -52q-136 0 -257 52t-207 140.5t-136.5 210.5t-50.5 258zM205 657q0 -166 74 -303t205 -216t290 -79q160 0 291.5 79t206 216t74.5 303 q0 163 -76 299t-207.5 213.5t-288.5 77.5q-117 0 -222.5 -45.5t-181.5 -124t-120.5 -188t-44.5 -232.5zM451 651q0 159 102 271t258 112q76 0 168 -30v-86q-56 36 -162 36q-118 0 -196 -85t-78 -212q0 -134 76.5 -217.5t193.5 -83.5q80 0 164 41l18 -84q-92 -37 -192 -37 q-153 0 -252.5 107t-99.5 268z" glyph-name="copyright" horiz-adv-x="1550" unicode="©"/><glyph d="M53 145q0 151 213 158l131 4v31q0 64 -39 97.5t-102 33.5q-75 0 -145 -37l-19 39q92 47 176 47q187 0 187 -178v-184q0 -90 4 -156h-39l-21 70q-44 -38 -94 -60t-92 -22q-71 0 -115.5 43t-44.5 114zM111 150q0 -51 31 -82t83 -31q41 0 90 19.5t82 54.5v157l-118 -4 q-82 -3 -125 -27t-43 -87z" glyph-name="ordfeminine" horiz-adv-x="520" unicode="ª"/><glyph d="M565 66l-463 380v15l459 381v-117l-321 -272l325 -267v-120zM1057 66l-463 380v15l459 381v-117l-322 -272l326 -267v-120z" glyph-name="guillemotleft" horiz-adv-x="1179" unicode="«"/><glyph d="M61 539v110h906v-495h-131v385h-775z" glyph-name="logicalnot" horiz-adv-x="1075" unicode="¬"/><glyph d="M135 1040q0 164 112 278t273 114q160 0 274.5 -115.5t114.5 -276.5q0 -162 -112.5 -275.5t-276.5 -113.5q-165 0 -275 112.5t-110 276.5zM184 1040q0 -149 96.5 -249.5t239.5 -100.5q146 0 242 101t96 249q0 149 -96.5 251t-241.5 102q-144 0 -240 -101.5t-96 -251.5z M647 1143q0 -51 -31.5 -83.5t-78.5 -35.5l133 -184h-54l-118 182h-54v-182h-45q2 33 2 84v237v90h105q67 0 104 -28.5t37 -79.5zM604 1139q0 42 -25 60t-83 18h-52v-164h52q51 0 79.5 22.5t28.5 63.5z" glyph-name="registered" horiz-adv-x="1044" unicode="®"/><glyph d="M362 1374q114 0 191.5 -76.5t77.5 -189.5q0 -111 -82 -195t-197 -84t-189.5 79t-74.5 194q0 114 79.5 193t194.5 79zM356 911q81 0 132 56.5t51 140.5q0 74 -52.5 128t-124.5 54q-75 0 -129.5 -53.5t-54.5 -134.5q0 -82 51 -136.5t127 -54.5z" glyph-name="degree" horiz-adv-x="718" unicode="°"/><glyph d="M96 621v110h379v404h125v-404h379v-110h-379v-408h-125v408h-379zM96 -2v111h883v-111h-883z" glyph-name="plusminus" horiz-adv-x="1075" unicode="±"/><glyph d="M76 891v100q12 13 211 199q162 158 162 248q0 66 -40.5 107.5t-111.5 41.5q-96 0 -180 -61l-21 94q103 57 205 57q124 0 195 -58.5t71 -164.5q0 -139 -207 -321q-23 -22 -90.5 -77t-91.5 -79h240q68 0 166 4v-90h-508z" glyph-name="uni00B2" horiz-adv-x="679" unicode="²"/><glyph d="M115 1552l-15 86q73 43 179 43q121 0 191.5 -49t70.5 -143q0 -66 -54.5 -124.5t-142.5 -68.5q95 -6 158 -63.5t63 -128.5q0 -98 -76 -158.5t-208 -60.5q-106 0 -197 35l14 84q63 -37 172 -37q84 0 132.5 38.5t48.5 108.5q0 66 -52.5 104.5t-148.5 38.5l-53 -2v78l39 -2 q89 0 140.5 39t51.5 107q0 59 -40 89.5t-107 30.5q-96 0 -166 -45z" glyph-name="uni00B3" horiz-adv-x="681" unicode="³"/><glyph d="M90 848l39 88h178q0 -34 -2 -100.5t-2 -100.5v-194q0 -445 293 -445q96 0 181 63.5t102 153.5v392q0 155 -2 231h141q-4 -72 -4 -223v-527q0 -101 10 -186h-106l-37 139q-61 -83 -133.5 -119t-165.5 -36q-114 0 -182.5 40t-131.5 144q15 -138 15 -244v-258q0 -68 6 -188 h-125q4 47 4 200v1170h-78z" glyph-name="uni00B5" horiz-adv-x="1234" unicode="µ"/><glyph d="M115 905q0 206 135 338.5t350 132.5h418v-1632h-139v1526h-142v-1182q0 -227 2 -344h-143q0 24 1 62.5t1 58.5v571q-218 12 -350.5 137t-132.5 332z" glyph-name="paragraph" horiz-adv-x="1153" unicode="¶"/><glyph d="M143 494q0 40 30.5 70t68.5 30q39 0 67.5 -28.5t28.5 -67.5q0 -38 -30 -67.5t-70 -31.5q-37 0 -66 28.5t-29 66.5z" glyph-name="periodcentered" horiz-adv-x="481" unicode="·"/><glyph d="M424 1055q0 -145 2 -166h-113q0 25 2 107t2 108v459l-206 -82l-19 73q164 68 273 119h63q0 -21 -2 -82t-2 -82v-454z" glyph-name="uni00B9" horiz-adv-x="612" unicode="¹"/><glyph d="M330 561q115 0 192.5 -83t77.5 -204q0 -118 -77 -201t-193 -83t-194.5 83t-78.5 201q0 120 79 203.5t194 83.5zM129 274q0 -97 56.5 -164t144.5 -67q89 0 143.5 66t54.5 165q0 101 -56 166.5t-142 65.5q-88 0 -144.5 -73.5t-56.5 -158.5z" glyph-name="ordmasculine" horiz-adv-x="1091" unicode="º"/><glyph d="M123 842l463 -381v-15l-459 -380v116l322 273l-326 266v121zM614 842l463 -381v-15l-459 -380v116l322 273l-326 266v121z" glyph-name="guillemotright" horiz-adv-x="1179" unicode="»"/><glyph d="M424 748q0 -146 2 -166h-113q0 26 2 108t2 107v458l-206 -81l-19 73q164 68 273 119h63q0 -20 -2 -82t-2 -82v-454zM1272 1358l-871 -1358h-98l871 1358h98zM1280 0v90v113h-379v55l416 524h65v-506q64 0 129 3v-76h-129v-99q0 -61 2 -104h-104zM1280 276l6 375 l-287 -375h281z" glyph-name="onequarter" horiz-adv-x="1646" unicode="¼"/><glyph d="M424 760q0 -146 2 -166h-113q0 26 2 108t2 107v459l-206 -82l-19 74q181 75 273 118h63q0 -20 -2 -82t-2 -82v-454zM1237 1358l-870 -1358h-99l871 1358h98zM995 0v100q12 13 211 199q162 158 162 248q0 66 -40.5 107.5t-110.5 41.5q-97 0 -181 -61l-20 94q103 57 205 57 q124 0 195 -58.5t71 -164.5q0 -139 -207 -321q-23 -22 -90.5 -77t-91.5 -79h239q68 0 166 4v-90h-508z" glyph-name="onehalf" horiz-adv-x="1599" unicode="½"/><glyph d="M115 1260l-15 86q73 43 179 43q121 0 191.5 -49.5t70.5 -143.5q0 -66 -54.5 -124t-142.5 -68q95 -6 158 -63.5t63 -129.5q0 -98 -76 -158.5t-208 -60.5q-106 0 -197 35l14 84q63 -37 172 -37q84 0 132.5 38.5t48.5 108.5q0 66 -52.5 105t-148.5 39l-53 -2v77l39 -2 q89 0 140.5 39t51.5 107q0 60 -40 90.5t-107 30.5q-96 0 -166 -45zM1321 1358l-870 -1358h-99l871 1358h98zM1257 0v102v101h-378v55l415 524h66v-506q64 0 129 3v-76h-129v-99q0 -61 2 -104h-105zM1257 276l7 375l-287 -375h280z" glyph-name="threequarters" horiz-adv-x="1624" unicode="¾"/><glyph d="M692 866q0 -40 -30 -70t-68 -30q-39 0 -67.5 28.5t-28.5 67.5q0 38 30 67.5t70 31.5q37 0 65.5 -28.5t28.5 -66.5zM664 567q0 -122 -37 -199.5t-160 -215.5q-81 -92 -116.5 -150t-35.5 -117q0 -92 60.5 -150.5t163.5 -58.5q74 0 145.5 36.5t126.5 99.5v-142 q-46 -51 -116 -82.5t-156 -31.5q-160 0 -255.5 95t-95.5 226q0 48 13 91t44.5 91t61 84t84.5 97q86 96 118 162.5t32 164.5h123z" glyph-name="questiondown" horiz-adv-x="937" unicode="¿"/><glyph d="M461 1765h149l150 -278h-109zM49 0q30 66 135 324l434 1067h68l465 -1129q28 -68 123 -262h-172l-170 424h-565l-164 -424h-154zM408 537h481l-240 626z" glyph-name="Agrave" horiz-adv-x="1323" unicode="À"/><glyph d="M842 1765l-191 -278h-108l149 278h150zM49 0q30 66 135 324l434 1067h68l465 -1129q28 -68 123 -262h-172l-170 424h-565l-164 -424h-154zM408 537h481l-240 626z" glyph-name="Aacute" horiz-adv-x="1323" unicode="Á"/><glyph d="M399 1470l209 279h80l211 -279h-104l-148 201l-147 -201h-101zM49 0q30 66 135 324l434 1067h68l465 -1129q28 -68 123 -262h-172l-170 424h-565l-164 -424h-154zM408 537h481l-240 626z" glyph-name="Acircumflex" horiz-adv-x="1323" unicode="Â"/><glyph d="M377 1520q3 70 44 122t111 52q43 0 87 -25t82.5 -49.5t68.5 -24.5q64 0 74 88h82q-3 -71 -42 -122.5t-110 -51.5q-34 0 -70 15t-61.5 32.5t-56 32.5t-54.5 15q-59 0 -69 -84h-86zM49 0q30 66 135 324l434 1067h68l465 -1129q28 -68 123 -262h-172l-170 424h-565 l-164 -424h-154zM408 537h481l-240 626z" glyph-name="Atilde" horiz-adv-x="1323" unicode="Ã"/><glyph d="M379 1645q0 37 26.5 63.5t63.5 26.5t64.5 -26.5t27.5 -63.5q0 -38 -27.5 -64.5t-64.5 -26.5t-63.5 26.5t-26.5 64.5zM741 1645q0 37 26.5 63.5t63.5 26.5t65 -27t28 -63q0 -38 -28 -64.5t-65 -26.5t-63.5 26.5t-26.5 64.5zM49 0q30 66 135 324l434 1067h68l465 -1129 q28 -68 123 -262h-172l-170 424h-565l-164 -424h-154zM408 537h481l-240 626z" glyph-name="Adieresis" horiz-adv-x="1323" unicode="Ä"/><glyph d="M469 1628q0 74 52 121t130 47q79 0 132 -47.5t53 -120.5q0 -70 -52.5 -119t-132.5 -49q-77 0 -129.5 48t-52.5 120zM547 1632q0 -44 27.5 -80t76.5 -36t78 31t29 81q0 48 -29.5 80.5t-77.5 32.5q-44 0 -74 -30.5t-30 -78.5zM49 0q30 66 135 324l434 1067h68l465 -1129 q28 -68 123 -262h-172l-170 424h-565l-164 -424h-154zM408 537h481l-240 626z" glyph-name="Aring" horiz-adv-x="1323" unicode="Å"/><glyph d="M49 0q15 25 56 92t79.5 133t75.5 135l537 1016h385q229 0 340 4l-21 -127q-92 4 -319 4h-246l86 -524h233q109 0 265 4v-123q-76 2 -246 2h-227l79 -497h232q190 0 260 8v-131q-42 0 -126 2t-126 2h-362l-68 430h-492l-219 -430h-176zM502 543h411l-96 628z" glyph-name="AE" horiz-adv-x="1757" unicode="Æ"/><glyph d="M1188 47q-156 -64 -342 -67l-35 -68q75 -12 116.5 -54.5t41.5 -105.5q0 -75 -55 -122.5t-150 -47.5q-66 0 -119 21l12 73q55 -18 97 -18q52 0 83 25.5t31 68.5q0 96 -145 96h-21l64 134q-140 10 -259.5 66.5t-204 147.5t-132 216t-47.5 268q0 144 53.5 275t146.5 228 t227.5 154.5t289.5 57.5q172 0 346 -64v-143q-144 84 -338 84q-167 0 -298.5 -78t-203.5 -212t-72 -298t71.5 -297.5t202 -211t294.5 -77.5q80 0 175.5 25.5t170.5 62.5v-139z" glyph-name="Ccedilla" horiz-adv-x="1304" unicode="Ç"/><glyph d="M334 1765h149l150 -278h-109zM205 0q0 96 2 201t2 127v716q0 140 -4 332h305q248 0 352 4l-20 -127q-104 4 -348 4h-142v-481h156q227 0 315 2v-125q-180 4 -315 4h-156v-538h211q236 0 316 2v-123q-80 2 -310 2h-364z" glyph-name="Egrave" horiz-adv-x="1017" unicode="È"/><glyph d="M715 1765l-191 -278h-108l149 278h150zM205 0q0 96 2 201t2 127v716q0 140 -4 332h305q248 0 352 4l-20 -127q-104 4 -348 4h-142v-481h156q227 0 315 2v-125q-180 4 -315 4h-156v-538h211q236 0 316 2v-123q-80 2 -310 2h-364z" glyph-name="Eacute" horiz-adv-x="1017" unicode="É"/><glyph d="M272 1470l209 279h80l211 -279h-104l-148 201l-147 -201h-101zM205 0q0 96 2 201t2 127v716q0 140 -4 332h305q248 0 352 4l-20 -127q-104 4 -348 4h-142v-481h156q227 0 315 2v-125q-180 4 -315 4h-156v-538h211q236 0 316 2v-123q-80 2 -310 2h-364z" glyph-name="Ecircumflex" horiz-adv-x="1017" unicode="Ê"/><glyph d="M252 1645q0 37 26.5 63.5t63.5 26.5t64.5 -26.5t27.5 -63.5q0 -38 -27.5 -64.5t-64.5 -26.5t-63.5 26.5t-26.5 64.5zM614 1645q0 37 27 63.5t64 26.5t64.5 -26.5t27.5 -63.5q0 -38 -27.5 -64.5t-64.5 -26.5t-64 26.5t-27 64.5zM205 0q0 96 2 201t2 127v716q0 140 -4 332 h305q248 0 352 4l-20 -127q-104 4 -348 4h-142v-481h156q227 0 315 2v-125q-180 4 -315 4h-156v-538h211q236 0 316 2v-123q-80 2 -310 2h-364z" glyph-name="Edieresis" horiz-adv-x="1017" unicode="Ë"/><glyph d="M92 1765h150l149 -278h-108zM205 0q6 282 6 324v688q0 46 -6 364h153q-4 -114 -4 -364v-690q0 -222 4 -322h-153z" glyph-name="Igrave" horiz-adv-x="563" unicode="Ì"/><glyph d="M473 1765l-190 -278h-109l150 278h149zM205 0q6 282 6 324v688q0 46 -6 364h153q-4 -114 -4 -364v-690q0 -222 4 -322h-153z" glyph-name="Iacute" horiz-adv-x="563" unicode="Í"/><glyph d="M31 1470l209 279h79l211 -279h-104l-147 201l-148 -201h-100zM205 0q6 282 6 324v688q0 46 -6 364h153q-4 -114 -4 -364v-690q0 -222 4 -322h-153z" glyph-name="Icircumflex" horiz-adv-x="563" unicode="Î"/><glyph d="M10 1645q0 37 26.5 63.5t63.5 26.5t65 -27t28 -63q0 -38 -28 -64.5t-65 -26.5t-63.5 26.5t-26.5 64.5zM373 1645q0 37 26.5 63.5t63.5 26.5t64.5 -26.5t27.5 -63.5q0 -38 -27.5 -64.5t-64.5 -26.5t-63.5 26.5t-26.5 64.5zM205 0q6 282 6 324v688q0 46 -6 364h153 q-4 -114 -4 -364v-690q0 -222 4 -322h-153z" glyph-name="Idieresis" horiz-adv-x="563" unicode="Ï"/><glyph d="M571 1376q203 0 365 -85t255 -242t93 -357q0 -202 -93.5 -360.5t-257 -245t-368.5 -86.5h-360q4 208 4 379v254h-178v106h178v324q0 145 -4 313h366zM559 119q259 0 416.5 160t157.5 415q0 250 -161 406.5t-415 156.5h-205v-518h340v-106h-340v-514h207z" glyph-name="Eth" horiz-adv-x="1406" unicode="Ð"/><glyph d="M496 1520q3 70 44 122t111 52q43 0 87 -25t82.5 -49.5t68.5 -24.5q64 0 74 88h81q-3 -71 -41.5 -122.5t-109.5 -51.5q-34 0 -70 15t-61.5 32.5t-56 32.5t-54.5 15q-59 0 -69 -84h-86zM205 0q4 180 4 289v760q0 104 -4 342h86l903 -1106v751q0 239 -6 340h151 q-8 -98 -8 -327v-773q0 -190 2 -276h-92l-895 1110v-831q0 -153 6 -279h-147z" glyph-name="Ntilde" horiz-adv-x="1544" unicode="Ñ"/><glyph d="M627 1765h149l150 -278h-109zM123 686q0 198 91 360.5t250 255.5t353 93q193 0 352.5 -94t250.5 -256.5t91 -358.5q0 -198 -91.5 -361t-250.5 -255.5t-352 -92.5q-146 0 -274.5 54t-221 147.5t-145.5 225t-53 282.5zM274 686q0 -257 153.5 -423.5t389.5 -166.5 q234 0 387.5 168t153.5 422q0 250 -154 419t-387 169q-151 0 -275 -75t-196 -210t-72 -303z" glyph-name="Ograve" horiz-adv-x="1634" unicode="Ò"/><glyph d="M1008 1765l-191 -278h-108l149 278h150zM123 686q0 198 91 360.5t250 255.5t353 93q193 0 352.5 -94t250.5 -256.5t91 -358.5q0 -198 -91.5 -361t-250.5 -255.5t-352 -92.5q-146 0 -274.5 54t-221 147.5t-145.5 225t-53 282.5zM274 686q0 -257 153.5 -423.5t389.5 -166.5 q234 0 387.5 168t153.5 422q0 250 -154 419t-387 169q-151 0 -275 -75t-196 -210t-72 -303z" glyph-name="Oacute" horiz-adv-x="1634" unicode="Ó"/><glyph d="M565 1470l209 279h80l211 -279h-104l-148 201l-147 -201h-101zM123 686q0 198 91 360.5t250 255.5t353 93q193 0 352.5 -94t250.5 -256.5t91 -358.5q0 -198 -91.5 -361t-250.5 -255.5t-352 -92.5q-146 0 -274.5 54t-221 147.5t-145.5 225t-53 282.5zM274 686 q0 -257 153.5 -423.5t389.5 -166.5q234 0 387.5 168t153.5 422q0 250 -154 419t-387 169q-151 0 -275 -75t-196 -210t-72 -303z" glyph-name="Ocircumflex" horiz-adv-x="1634" unicode="Ô"/><glyph d="M543 1520q3 70 44 122t111 52q43 0 87 -25t82.5 -49.5t68.5 -24.5q64 0 74 88h82q-3 -71 -42 -122.5t-110 -51.5q-34 0 -70 15t-61.5 32.5t-56 32.5t-54.5 15q-59 0 -69 -84h-86zM123 686q0 198 91 360.5t250 255.5t353 93q193 0 352.5 -94t250.5 -256.5t91 -358.5 q0 -198 -91.5 -361t-250.5 -255.5t-352 -92.5q-146 0 -274.5 54t-221 147.5t-145.5 225t-53 282.5zM274 686q0 -257 153.5 -423.5t389.5 -166.5q234 0 387.5 168t153.5 422q0 250 -154 419t-387 169q-151 0 -275 -75t-196 -210t-72 -303z" glyph-name="Otilde" horiz-adv-x="1634" unicode="Õ"/><glyph d="M545 1645q0 37 26.5 63.5t63.5 26.5t64.5 -26.5t27.5 -63.5q0 -38 -27.5 -64.5t-64.5 -26.5t-63.5 26.5t-26.5 64.5zM907 1645q0 37 26.5 63.5t63.5 26.5t65 -27t28 -63q0 -38 -28 -64.5t-65 -26.5t-63.5 26.5t-26.5 64.5zM123 686q0 198 91 360.5t250 255.5t353 93 q193 0 352.5 -94t250.5 -256.5t91 -358.5q0 -198 -91.5 -361t-250.5 -255.5t-352 -92.5q-146 0 -274.5 54t-221 147.5t-145.5 225t-53 282.5zM274 686q0 -257 153.5 -423.5t389.5 -166.5q234 0 387.5 168t153.5 422q0 250 -154 419t-387 169q-151 0 -275 -75t-196 -210 t-72 -303z" glyph-name="Odieresis" horiz-adv-x="1634" unicode="Ö"/><glyph d="M473 512l-334 332l78 76l332 -330l330 330l77 -76l-329 -334l331 -330l-79 -76l-328 332l-330 -332l-80 78z" glyph-name="multiply" horiz-adv-x="1099" unicode="×"/><glyph d="M1331 1192q97 -97 150 -227t53 -279q0 -198 -91.5 -361t-250.5 -255.5t-352 -92.5q-258 0 -447 156l-137 -156h-133l199 226q-177 199 -177 483q0 148 53.5 279.5t146 225.5t221.5 149t274 55q230 0 415 -138l123 140h133zM297 686q0 -221 117 -379l755 852 q-144 115 -329 115q-151 0 -275 -75t-196 -210t-72 -303zM840 96q234 0 387 168t153 422q0 240 -139 404l-760 -859q148 -135 359 -135z" glyph-name="Oslash" horiz-adv-x="1656" unicode="Ø"/><glyph d="M516 1765h150l149 -278h-108zM334 1376q-6 -94 -6 -336v-512q0 -209 104.5 -319.5t276.5 -110.5q177 0 277.5 113.5t100.5 320.5v508q0 252 -2 336h148q-2 -102 -2 -338v-514q0 -266 -141 -405t-381 -139q-248 0 -386.5 144t-138.5 400v514q0 150 -4 338h154z" glyph-name="Ugrave" horiz-adv-x="1413" unicode="Ù"/><glyph d="M897 1765l-190 -278h-109l150 278h149zM334 1376q-6 -94 -6 -336v-512q0 -209 104.5 -319.5t276.5 -110.5q177 0 277.5 113.5t100.5 320.5v508q0 252 -2 336h148q-2 -102 -2 -338v-514q0 -266 -141 -405t-381 -139q-248 0 -386.5 144t-138.5 400v514q0 150 -4 338h154z" glyph-name="Uacute" horiz-adv-x="1413" unicode="Ú"/><glyph d="M455 1470l209 279h79l211 -279h-104l-148 201l-147 -201h-100zM334 1376q-6 -94 -6 -336v-512q0 -209 104.5 -319.5t276.5 -110.5q177 0 277.5 113.5t100.5 320.5v508q0 252 -2 336h148q-2 -102 -2 -338v-514q0 -266 -141 -405t-381 -139q-248 0 -386.5 144t-138.5 400 v514q0 150 -4 338h154z" glyph-name="Ucircumflex" horiz-adv-x="1413" unicode="Û"/><glyph d="M434 1645q0 37 26.5 63.5t63.5 26.5t64.5 -26.5t27.5 -63.5q0 -38 -27.5 -64.5t-64.5 -26.5t-63.5 26.5t-26.5 64.5zM797 1645q0 37 26.5 63.5t63.5 26.5t64.5 -26.5t27.5 -63.5q0 -38 -27.5 -64.5t-64.5 -26.5t-63.5 26.5t-26.5 64.5zM334 1376q-6 -94 -6 -336v-512 q0 -209 104.5 -319.5t276.5 -110.5q177 0 277.5 113.5t100.5 320.5v508q0 252 -2 336h148q-2 -102 -2 -338v-514q0 -266 -141 -405t-381 -139q-248 0 -386.5 144t-138.5 400v514q0 150 -4 338h154z" glyph-name="Udieresis" horiz-adv-x="1413" unicode="Ü"/><glyph d="M786 1765l-190 -278h-109l150 278h149zM522 0q6 264 6 328v268l-323 532l-156 248h168q19 -38 105 -188l282 -469l275 463q13 21 53 93.5t57 100.5h162q-12 -22 -67 -107t-83 -132l-329 -543v-268q0 -44 6 -326h-156z" glyph-name="Yacute" horiz-adv-x="1200" unicode="Ý"/><glyph d="M958 700q0 -134 -68.5 -230.5t-177.5 -141.5t-245 -45h-115v-78q0 -148 2 -205h-149q4 172 4 311v719q0 174 -4 346h149q-2 -66 -2 -192v-62h131q98 0 182.5 -26.5t150.5 -77t104 -132.5t38 -186zM809 702q0 143 -94.5 225.5t-241.5 82.5h-121v-617h119q144 0 241 83 t97 226z" glyph-name="Thorn" horiz-adv-x="1054" unicode="Þ"/><glyph d="M535 772h40q153 0 231.5 74.5t78.5 208.5t-69 204t-195 70q-125 0 -197 -77.5t-72 -233.5v-821q0 -144 4 -201h-143q4 63 4 199v806q0 214 111 331.5t293 117.5q196 0 303.5 -108t107.5 -275q0 -123 -75.5 -220.5t-184.5 -119.5q169 -29 268 -135.5t99 -257.5 q0 -114 -53.5 -196t-137.5 -120t-188 -38q-120 0 -225 45v131q88 -60 217 -60q107 0 172 64.5t65 167.5q0 143 -114 242.5t-287 99.5q-37 0 -53 -2v104z" glyph-name="germandbls" horiz-adv-x="1249" unicode="ß"/><glyph d="M293 1376h149l150 -278h-109zM102 272q0 140 105.5 216t296.5 85q154 7 237 7v47q0 103 -75 162t-183 59q-145 0 -264 -74l-47 100q146 87 328 87q161 0 267.5 -94.5t106.5 -256.5v-317q0 -179 31 -293h-143l-12 113q-143 -133 -330 -133q-134 0 -226 81.5t-92 210.5z M244 274q0 -85 49 -134.5t135 -49.5q84 0 168.5 34.5t144.5 94.5v256l-215 -6q-143 -5 -212.5 -49t-69.5 -146z" glyph-name="agrave" horiz-adv-x="1069" unicode="à"/><glyph d="M674 1376l-191 -278h-108l149 278h150zM102 272q0 140 105.5 216t296.5 85q154 7 237 7v47q0 103 -75 162t-183 59q-145 0 -264 -74l-47 100q146 87 328 87q161 0 267.5 -94.5t106.5 -256.5v-317q0 -179 31 -293h-143l-12 113q-143 -133 -330 -133q-134 0 -226 81.5 t-92 210.5zM244 274q0 -85 49 -134.5t135 -49.5q84 0 168.5 34.5t144.5 94.5v256l-215 -6q-143 -5 -212.5 -49t-69.5 -146z" glyph-name="aacute" horiz-adv-x="1069" unicode="á"/><glyph d="M231 1081l209 279h80l211 -279h-104l-148 201l-147 -201h-101zM102 272q0 140 105.5 216t296.5 85q154 7 237 7v47q0 103 -75 162t-183 59q-145 0 -264 -74l-47 100q146 87 328 87q161 0 267.5 -94.5t106.5 -256.5v-317q0 -179 31 -293h-143l-12 113q-143 -133 -330 -133 q-134 0 -226 81.5t-92 210.5zM244 274q0 -85 49 -134.5t135 -49.5q84 0 168.5 34.5t144.5 94.5v256l-215 -6q-143 -5 -212.5 -49t-69.5 -146z" glyph-name="acircumflex" horiz-adv-x="1069" unicode="â"/><glyph d="M209 1130q3 70 44.5 122.5t111.5 52.5q34 0 69.5 -15.5t59.5 -34t54 -34t54 -15.5q64 0 74 88h82q-3 -71 -42 -122.5t-110 -51.5q-43 0 -88 23.5t-84 47t-69 23.5q-60 0 -70 -84h-86zM102 272q0 140 105.5 216t296.5 85q154 7 237 7v47q0 103 -75 162t-183 59 q-145 0 -264 -74l-47 100q146 87 328 87q161 0 267.5 -94.5t106.5 -256.5v-317q0 -179 31 -293h-143l-12 113q-143 -133 -330 -133q-134 0 -226 81.5t-92 210.5zM244 274q0 -85 49 -134.5t135 -49.5q84 0 168.5 34.5t144.5 94.5v256l-215 -6q-143 -5 -212.5 -49t-69.5 -146z" glyph-name="atilde" horiz-adv-x="1069" unicode="ã"/><glyph d="M211 1255q0 37 26.5 64t63.5 27t64.5 -27t27.5 -64q0 -38 -27.5 -64t-64.5 -26t-63.5 26t-26.5 64zM573 1255q0 37 27 64t64 27t64.5 -27t27.5 -64q0 -38 -27.5 -64t-64.5 -26t-64 26t-27 64zM102 272q0 140 105.5 216t296.5 85q154 7 237 7v47q0 103 -75 162t-183 59 q-145 0 -264 -74l-47 100q146 87 328 87q161 0 267.5 -94.5t106.5 -256.5v-317q0 -179 31 -293h-143l-12 113q-143 -133 -330 -133q-134 0 -226 81.5t-92 210.5zM244 274q0 -85 49 -134.5t135 -49.5q84 0 168.5 34.5t144.5 94.5v256l-215 -6q-143 -5 -212.5 -49t-69.5 -146z" glyph-name="adieresis" horiz-adv-x="1069" unicode="ä"/><glyph d="M301 1239q0 74 52 121t130 47q79 0 132 -47.5t53 -120.5q0 -70 -52.5 -119t-132.5 -49q-77 0 -129.5 48t-52.5 120zM379 1243q0 -45 27.5 -81t76.5 -36t78 31.5t29 81.5q0 48 -29.5 80.5t-77.5 32.5q-44 0 -74 -30.5t-30 -78.5zM102 272q0 140 105.5 216t296.5 85 q154 7 237 7v47q0 103 -75 162t-183 59q-145 0 -264 -74l-47 100q146 87 328 87q161 0 267.5 -94.5t106.5 -256.5v-317q0 -179 31 -293h-143l-12 113q-143 -133 -330 -133q-134 0 -226 81.5t-92 210.5zM244 274q0 -85 49 -134.5t135 -49.5q84 0 168.5 34.5t144.5 94.5v256 l-215 -6q-143 -5 -212.5 -49t-69.5 -146z" glyph-name="aring" horiz-adv-x="1069" unicode="å"/><glyph d="M102 272q0 283 402 301q154 7 237 7v47q0 103 -75 162t-183 59q-145 0 -264 -74l-47 96q136 91 334 91q116 0 200 -44.5t123 -132.5q56 83 145.5 130t205.5 47q91 0 163.5 -25t119.5 -66.5t78.5 -98t44.5 -115t13 -121.5q0 -66 -2 -84h-714q15 -351 346 -351 q143 0 319 103v-119q-53 -41 -138 -69.5t-187 -28.5q-133 0 -237.5 49.5t-166.5 146.5q-156 -202 -399 -202q-134 0 -226 81.5t-92 210.5zM883 557h585q-7 291 -284 291q-76 0 -135 -25.5t-93 -68.5t-52 -92.5t-21 -104.5zM244 274q0 -85 49 -134.5t135 -49.5q192 0 352 170 q-39 98 -39 215l-215 -6q-143 -5 -212.5 -49t-69.5 -146z" glyph-name="ae" horiz-adv-x="1697" unicode="æ"/><glyph d="M637 840q-177 0 -280 -105.5t-103 -271.5q0 -167 101 -264t284 -97q82 0 155.5 27.5t120.5 63.5v-134q-38 -28 -105 -49.5t-151 -25.5l-36 -72q75 -12 116 -54.5t41 -105.5q0 -75 -55 -122.5t-150 -47.5q-65 0 -118 21l12 73q55 -18 96 -18q52 0 83.5 25.5t31.5 68.5 q0 96 -145 96h-21l66 138q-209 13 -339 147t-130 330q0 212 143.5 353.5t370.5 141.5q156 0 290 -69v-135q-119 86 -278 86z" glyph-name="ccedilla" horiz-adv-x="1062" unicode="ç"/><glyph d="M367 1376h149l150 -278h-109zM111 481q0 127 52.5 235.5t154 176.5t231.5 68q112 0 196.5 -37.5t131.5 -101t69.5 -135.5t22.5 -152q0 -48 -4 -84h-713q15 -351 346 -351q144 0 320 103v-119q-53 -41 -138.5 -69.5t-187.5 -28.5q-215 0 -348 128.5t-133 366.5zM553 850 q-62 0 -112.5 -17.5t-83.5 -45.5t-56.5 -67t-34.5 -79t-14 -84h586q-7 293 -285 293z" glyph-name="egrave" horiz-adv-x="1067" unicode="è"/><glyph d="M748 1376l-191 -278h-108l149 278h150zM111 481q0 127 52.5 235.5t154 176.5t231.5 68q112 0 196.5 -37.5t131.5 -101t69.5 -135.5t22.5 -152q0 -48 -4 -84h-713q15 -351 346 -351q144 0 320 103v-119q-53 -41 -138.5 -69.5t-187.5 -28.5q-215 0 -348 128.5t-133 366.5z M553 850q-62 0 -112.5 -17.5t-83.5 -45.5t-56.5 -67t-34.5 -79t-14 -84h586q-7 293 -285 293z" glyph-name="eacute" horiz-adv-x="1067" unicode="é"/><glyph d="M305 1081l209 279h80l211 -279h-105l-147 201l-147 -201h-101zM111 481q0 127 52.5 235.5t154 176.5t231.5 68q112 0 196.5 -37.5t131.5 -101t69.5 -135.5t22.5 -152q0 -48 -4 -84h-713q15 -351 346 -351q144 0 320 103v-119q-53 -41 -138.5 -69.5t-187.5 -28.5 q-215 0 -348 128.5t-133 366.5zM553 850q-62 0 -112.5 -17.5t-83.5 -45.5t-56.5 -67t-34.5 -79t-14 -84h586q-7 293 -285 293z" glyph-name="ecircumflex" horiz-adv-x="1067" unicode="ê"/><glyph d="M285 1255q0 37 26.5 64t63.5 27t64.5 -27t27.5 -64q0 -38 -27.5 -64t-64.5 -26t-63.5 26t-26.5 64zM647 1255q0 37 26.5 64t63.5 27t64.5 -27t27.5 -64q0 -38 -27.5 -64t-64.5 -26t-63.5 26t-26.5 64zM111 481q0 127 52.5 235.5t154 176.5t231.5 68q112 0 196.5 -37.5 t131.5 -101t69.5 -135.5t22.5 -152q0 -48 -4 -84h-713q15 -351 346 -351q144 0 320 103v-119q-53 -41 -138.5 -69.5t-187.5 -28.5q-215 0 -348 128.5t-133 366.5zM553 850q-62 0 -112.5 -17.5t-83.5 -45.5t-56.5 -67t-34.5 -79t-14 -84h586q-7 293 -285 293z" glyph-name="edieresis" horiz-adv-x="1067" unicode="ë"/><glyph d="M96 1376h150l149 -278h-108zM213 0q6 45 6 201v534q0 160 -6 203h147q-6 -47 -6 -203v-534q0 -160 6 -201h-147z" glyph-name="igrave" horiz-adv-x="571" unicode="ì"/><glyph d="M477 1376l-190 -278h-109l150 278h149zM213 0q6 45 6 201v534q0 160 -6 203h147q-6 -47 -6 -203v-534q0 -160 6 -201h-147z" glyph-name="iacute" horiz-adv-x="571" unicode="í"/><glyph d="M35 1081l209 279h80l211 -279h-105l-147 201l-148 -201h-100zM213 0q6 45 6 201v534q0 160 -6 203h147q-6 -47 -6 -203v-534q0 -160 6 -201h-147z" glyph-name="icircumflex" horiz-adv-x="571" unicode="î"/><glyph d="M14 1255q0 37 26.5 64t63.5 27t65 -27t28 -64q0 -38 -28 -64t-65 -26t-63.5 26t-26.5 64zM377 1255q0 37 26.5 64t63.5 27t64.5 -27t27.5 -64q0 -38 -27.5 -64t-64.5 -26t-63.5 26t-26.5 64zM213 0q6 45 6 201v534q0 160 -6 203h147q-6 -47 -6 -203v-534q0 -160 6 -201 h-147z" glyph-name="idieresis" horiz-adv-x="571" unicode="ï"/><glyph d="M756 1276q282 -237 282 -707q0 -268 -128.5 -426.5t-340.5 -158.5q-130 0 -235 62t-164 171.5t-59 243.5q0 205 127.5 343t318.5 138q112 0 206.5 -49t141.5 -121q-45 287 -262 445l-254 -134l-35 62l224 117q-144 81 -322 108l14 107q247 -36 422 -154l217 113l37 -60z M573 96q142 0 230 110t88 273q0 154 -87.5 251t-230.5 97q-137 0 -227 -103t-90 -263q0 -157 88.5 -261t228.5 -104z" glyph-name="eth" horiz-adv-x="1148" unicode="ð"/><glyph d="M344 1130q3 70 44.5 122.5t111.5 52.5q34 0 69.5 -15.5t59.5 -34t54 -34t54 -15.5q64 0 74 88h82q-3 -71 -42 -122.5t-110 -51.5q-43 0 -88 23.5t-84 47t-69 23.5q-60 0 -70 -84h-86zM90 848l37 90h164l12 -147q51 72 138.5 117.5t209.5 45.5q162 0 261.5 -100.5 t99.5 -292.5v-344q0 -154 4 -217h-142q3 132 3 227v348q0 134 -73.5 198.5t-193.5 64.5q-96 0 -177.5 -53t-129.5 -142v-416q0 -153 2 -227h-141q4 152 4 227v621h-78z" glyph-name="ntilde" horiz-adv-x="1167" unicode="ñ"/><glyph d="M375 1376h149l150 -278h-109zM111 465q0 204 133.5 346.5t326.5 142.5q195 0 328 -142.5t133 -346.5q0 -202 -132 -341.5t-329 -139.5t-328.5 139.5t-131.5 341.5zM252 465q0 -156 90 -262.5t229 -106.5q144 0 232 105.5t88 263.5q0 162 -91 267.5t-229 105.5 q-72 0 -134 -34.5t-101.5 -89t-61.5 -120t-22 -129.5z" glyph-name="ograve" horiz-adv-x="1142" unicode="ò"/><glyph d="M756 1376l-191 -278h-108l149 278h150zM111 465q0 204 133.5 346.5t326.5 142.5q195 0 328 -142.5t133 -346.5q0 -202 -132 -341.5t-329 -139.5t-328.5 139.5t-131.5 341.5zM252 465q0 -156 90 -262.5t229 -106.5q144 0 232 105.5t88 263.5q0 162 -91 267.5t-229 105.5 q-72 0 -134 -34.5t-101.5 -89t-61.5 -120t-22 -129.5z" glyph-name="oacute" horiz-adv-x="1142" unicode="ó"/><glyph d="M313 1081l209 279h80l211 -279h-104l-148 201l-147 -201h-101zM111 465q0 204 133.5 346.5t326.5 142.5q195 0 328 -142.5t133 -346.5q0 -202 -132 -341.5t-329 -139.5t-328.5 139.5t-131.5 341.5zM252 465q0 -156 90 -262.5t229 -106.5q144 0 232 105.5t88 263.5 q0 162 -91 267.5t-229 105.5q-72 0 -134 -34.5t-101.5 -89t-61.5 -120t-22 -129.5z" glyph-name="ocircumflex" horiz-adv-x="1142" unicode="ô"/><glyph d="M291 1130q3 70 44 122.5t111 52.5q34 0 69.5 -15.5t60 -34t54.5 -34t54 -15.5q64 0 74 88h82q-3 -71 -42 -122.5t-110 -51.5q-43 0 -88 23.5t-84.5 47t-69.5 23.5q-59 0 -69 -84h-86zM111 465q0 204 133.5 346.5t326.5 142.5q195 0 328 -142.5t133 -346.5 q0 -202 -132 -341.5t-329 -139.5t-328.5 139.5t-131.5 341.5zM252 465q0 -156 90 -262.5t229 -106.5q144 0 232 105.5t88 263.5q0 162 -91 267.5t-229 105.5q-72 0 -134 -34.5t-101.5 -89t-61.5 -120t-22 -129.5z" glyph-name="otilde" horiz-adv-x="1142" unicode="õ"/><glyph d="M293 1255q0 37 26.5 64t63.5 27t64.5 -27t27.5 -64q0 -38 -27.5 -64t-64.5 -26t-63.5 26t-26.5 64zM655 1255q0 37 26.5 64t63.5 27t65 -27t28 -64q0 -38 -28 -64t-65 -26t-63.5 26t-26.5 64zM111 465q0 204 133.5 346.5t326.5 142.5q195 0 328 -142.5t133 -346.5 q0 -202 -132 -341.5t-329 -139.5t-328.5 139.5t-131.5 341.5zM252 465q0 -156 90 -262.5t229 -106.5q144 0 232 105.5t88 263.5q0 162 -91 267.5t-229 105.5q-72 0 -134 -34.5t-101.5 -89t-61.5 -120t-22 -129.5z" glyph-name="odieresis" horiz-adv-x="1142" unicode="ö"/><glyph d="M451 821q0 37 25.5 62.5t60.5 25.5q36 0 63 -26t27 -62t-27 -63t-63 -27q-34 0 -60 27t-26 63zM967 567v-110h-861v110h861zM451 203q0 38 25 64t61 26t63 -26t27 -64q0 -35 -27.5 -61.5t-62.5 -26.5q-34 0 -60 26.5t-26 61.5z" glyph-name="divide" horiz-adv-x="1075" unicode="÷"/><glyph d="M918 821q67 -68 104 -160.5t37 -195.5q0 -202 -132 -341.5t-329 -139.5q-176 0 -303 114l-105 -121h-79l141 164q-115 137 -115 324q0 204 134 346.5t327 142.5q153 0 274 -94l82 94h78zM279 465q0 -128 61 -223l453 524q-85 72 -195 72q-72 0 -134 -34.5t-101.5 -89 t-61.5 -120t-22 -129.5zM598 96q144 0 232 105.5t88 263.5q0 155 -84 260l-457 -530q89 -99 221 -99z" glyph-name="oslash" horiz-adv-x="1169" unicode="ø"/><glyph d="M322 1376h149l150 -278h-109zM90 850l41 88h180q-6 -45 -6 -213v-328q0 -157 57.5 -229t172.5 -72q77 0 147.5 52.5t110.5 144.5v412q0 157 -2 233h141q-4 -72 -4 -225v-527q0 -120 16 -186h-115l-34 123q-94 -139 -285 -139q-168 0 -254 98.5t-86 308.5v459h-80z" glyph-name="ugrave" horiz-adv-x="1155" unicode="ù"/><glyph d="M702 1376l-190 -278h-109l150 278h149zM90 850l41 88h180q-6 -45 -6 -213v-328q0 -157 57.5 -229t172.5 -72q77 0 147.5 52.5t110.5 144.5v412q0 157 -2 233h141q-4 -72 -4 -225v-527q0 -120 16 -186h-115l-34 123q-94 -139 -285 -139q-168 0 -254 98.5t-86 308.5v459 h-80z" glyph-name="uacute" horiz-adv-x="1155" unicode="ú"/><glyph d="M260 1081l209 279h80l211 -279h-105l-147 201l-148 -201h-100zM90 850l41 88h180q-6 -45 -6 -213v-328q0 -157 57.5 -229t172.5 -72q77 0 147.5 52.5t110.5 144.5v412q0 157 -2 233h141q-4 -72 -4 -225v-527q0 -120 16 -186h-115l-34 123q-94 -139 -285 -139 q-168 0 -254 98.5t-86 308.5v459h-80z" glyph-name="ucircumflex" horiz-adv-x="1155" unicode="û"/><glyph d="M240 1255q0 37 26.5 64t63.5 27t64.5 -27t27.5 -64q0 -38 -27.5 -64t-64.5 -26t-63.5 26t-26.5 64zM602 1255q0 37 26.5 64t63.5 27t64.5 -27t27.5 -64q0 -38 -27.5 -64t-64.5 -26t-63.5 26t-26.5 64zM90 850l41 88h180q-6 -45 -6 -213v-328q0 -157 57.5 -229t172.5 -72 q77 0 147.5 52.5t110.5 144.5v412q0 157 -2 233h141q-4 -72 -4 -225v-527q0 -120 16 -186h-115l-34 123q-94 -139 -285 -139q-168 0 -254 98.5t-86 308.5v459h-80z" glyph-name="udieresis" horiz-adv-x="1155" unicode="ü"/><glyph d="M678 1376l-191 -278h-108l149 278h150zM45 938h158q13 -31 36 -93.5t35 -92.5l228 -596l237 585q36 88 68 197h149l-88 -205l-395 -905q-53 -122 -126.5 -173.5t-188.5 -51.5h-58l19 94q73 0 113.5 13.5t69.5 47t63 105.5l75 160l-282 655q-7 16 -48 111.5t-65 148.5z" glyph-name="yacute" horiz-adv-x="1001" unicode="ý"/><glyph d="M1135 477q0 -222 -138.5 -353.5t-353.5 -131.5q-144 0 -291 88v-391q0 -33 2 -99.5t2 -99.5h-143q0 34 2 101.5t2 101.5v1587q0 127 -4 195h143q0 -34 -2 -97.5t-2 -97.5v-432q115 115 295 115q215 0 351.5 -137.5t136.5 -348.5zM993 477q0 167 -94.5 268t-257.5 101 q-161 0 -289 -119v-510q56 -51 131 -79.5t154 -28.5q166 0 261 100.5t95 267.5z" glyph-name="thorn" horiz-adv-x="1245" unicode="þ"/><glyph d="M215 1255q0 37 26.5 64t63.5 27t64.5 -27t27.5 -64q0 -38 -27.5 -64t-64.5 -26t-63.5 26t-26.5 64zM578 1255q0 37 26.5 64t63.5 27t64.5 -27t27.5 -64q0 -38 -27.5 -64t-64.5 -26t-63.5 26t-26.5 64zM45 938h158q13 -31 36 -93.5t35 -92.5l228 -596l237 585 q36 88 68 197h149l-88 -205l-395 -905q-53 -122 -126.5 -173.5t-188.5 -51.5h-58l19 94q73 0 113.5 13.5t69.5 47t63 105.5l75 160l-282 655q-7 16 -48 111.5t-65 148.5z" glyph-name="ydieresis" horiz-adv-x="1001" unicode="ÿ"/><glyph d="M403 1561v98h496v-98h-496zM49 0q30 66 135 324l434 1067h68l465 -1129q28 -68 123 -262h-172l-170 424h-565l-164 -424h-154zM408 537h481l-240 626z" glyph-name="Amacron" horiz-adv-x="1323" unicode="Ā"/><glyph d="M236 1171v99h495v-99h-495zM102 272q0 140 105.5 216t296.5 85q154 7 237 7v47q0 103 -75 162t-183 59q-145 0 -264 -74l-47 100q146 87 328 87q161 0 267.5 -94.5t106.5 -256.5v-317q0 -179 31 -293h-143l-12 113q-143 -133 -330 -133q-134 0 -226 81.5t-92 210.5z M244 274q0 -85 49 -134.5t135 -49.5q84 0 168.5 34.5t144.5 94.5v256l-215 -6q-143 -5 -212.5 -49t-69.5 -146z" glyph-name="amacron" horiz-adv-x="1069" unicode="ā"/><glyph d="M494 1716q7 -64 50 -101.5t107 -37.5q60 0 104 40t56 99h88q-7 -100 -75.5 -160.5t-172.5 -60.5q-98 0 -166 63t-82 158h91zM49 0q30 66 135 324l434 1067h68l465 -1129q28 -68 123 -262h-172l-170 424h-565l-164 -424h-154zM408 537h481l-240 626z" glyph-name="Abreve" horiz-adv-x="1323" unicode="Ă"/><glyph d="M326 1327q7 -64 50 -101.5t107 -37.5q60 0 104 40t56 99h88q-7 -100 -75.5 -160.5t-172.5 -60.5q-97 0 -165 63t-82 158h90zM102 272q0 140 105.5 216t296.5 85q154 7 237 7v47q0 103 -75 162t-183 59q-145 0 -264 -74l-47 100q146 87 328 87q161 0 267.5 -94.5 t106.5 -256.5v-317q0 -179 31 -293h-143l-12 113q-143 -133 -330 -133q-134 0 -226 81.5t-92 210.5zM244 274q0 -85 49 -134.5t135 -49.5q84 0 168.5 34.5t144.5 94.5v256l-215 -6q-143 -5 -212.5 -49t-69.5 -146z" glyph-name="abreve" horiz-adv-x="1069" unicode="ă"/><glyph d="M1272 0q-103 -69 -158 -144t-55 -145q0 -54 29.5 -84t82.5 -30q45 0 91 22l10 -84q-65 -29 -137 -29q-84 0 -140.5 51t-56.5 134q0 75 50.5 155.5t141.5 153.5h-28l-170 424h-565l-164 -424h-154q30 66 135 324l434 1067h68l465 -1129q28 -68 123 -262h-2zM408 537h481 l-240 626z" glyph-name="Aogonek" horiz-adv-x="1323" unicode="Ą"/><glyph d="M807 -403q44 0 90 22l10 -84q-65 -29 -137 -29q-84 0 -140.5 51t-56.5 134q0 75 51 155.5t142 153.5h-4l-12 113q-143 -133 -330 -133q-134 0 -226 81.5t-92 210.5q0 140 105.5 216t296.5 85q154 7 237 7v47q0 103 -75 162t-183 59q-145 0 -264 -74l-47 100 q146 87 328 87q161 0 267.5 -94.5t106.5 -256.5v-317q0 -177 31 -291l2 -2q-103 -69 -158 -144t-55 -145q0 -54 30 -84t83 -30zM741 219v256l-215 -6q-143 -5 -212.5 -49t-69.5 -146q0 -85 49 -134.5t135 -49.5q84 0 168.5 34.5t144.5 94.5z" glyph-name="aogonek" horiz-adv-x="1069" unicode="ą"/><glyph d="M944 1765l-190 -278h-109l150 278h149zM123 680q0 144 53.5 275t146.5 228t227.5 154.5t289.5 57.5q172 0 346 -64v-143q-144 84 -338 84q-167 0 -298.5 -78t-203.5 -212t-72 -298t71.5 -297.5t202 -211t294.5 -77.5q80 0 175.5 25.5t170.5 62.5v-139q-168 -67 -363 -67 q-202 0 -362 89.5t-250 249.5t-90 361z" glyph-name="Cacute" horiz-adv-x="1304" unicode="Ć"/><glyph d="M799 1376l-191 -278h-108l149 278h150zM111 463q0 212 143.5 353.5t370.5 141.5q156 0 290 -69v-135q-119 86 -278 86q-177 0 -280 -105.5t-103 -271.5q0 -167 101 -264t284 -97q82 0 155.5 27.5t120.5 63.5v-134q-41 -31 -117.5 -53t-172.5 -22q-227 0 -370.5 136 t-143.5 343z" glyph-name="cacute" horiz-adv-x="1062" unicode="ć"/><glyph d="M664 1645q0 37 26.5 63.5t63.5 26.5t64.5 -26.5t27.5 -63.5q0 -38 -27.5 -64.5t-64.5 -26.5t-63.5 26.5t-26.5 64.5zM123 680q0 144 53.5 275t146.5 228t227.5 154.5t289.5 57.5q172 0 346 -64v-143q-144 84 -338 84q-167 0 -298.5 -78t-203.5 -212t-72 -298t71.5 -297.5 t202 -211t294.5 -77.5q80 0 175.5 25.5t170.5 62.5v-139q-168 -67 -363 -67q-202 0 -362 89.5t-250 249.5t-90 361z" glyph-name="Cdotaccent" horiz-adv-x="1304" unicode="Ċ"/><glyph d="M518 1255q0 37 26.5 64t63.5 27t64.5 -27t27.5 -64q0 -38 -27.5 -64t-64.5 -26t-63.5 26t-26.5 64zM111 463q0 212 143.5 353.5t370.5 141.5q156 0 290 -69v-135q-119 86 -278 86q-177 0 -280 -105.5t-103 -271.5q0 -167 101 -264t284 -97q82 0 155.5 27.5t120.5 63.5 v-134q-41 -31 -117.5 -53t-172.5 -22q-227 0 -370.5 136t-143.5 343z" glyph-name="cdotaccent" horiz-adv-x="1062" unicode="ċ"/><glyph d="M1001 1749l-208 -279h-80l-211 279h104l148 -201l147 201h100zM123 680q0 144 53.5 275t146.5 228t227.5 154.5t289.5 57.5q172 0 346 -64v-143q-144 84 -338 84q-167 0 -298.5 -78t-203.5 -212t-72 -298t71.5 -297.5t202 -211t294.5 -77.5q80 0 175.5 25.5t170.5 62.5 v-139q-168 -67 -363 -67q-202 0 -362 89.5t-250 249.5t-90 361z" glyph-name="Ccaron" horiz-adv-x="1304" unicode="Č"/><glyph d="M856 1360l-209 -279h-80l-211 279h105l147 -201l148 201h100zM111 463q0 212 143.5 353.5t370.5 141.5q156 0 290 -69v-135q-119 86 -278 86q-177 0 -280 -105.5t-103 -271.5q0 -167 101 -264t284 -97q82 0 155.5 27.5t120.5 63.5v-134q-41 -31 -117.5 -53t-172.5 -22 q-227 0 -370.5 136t-143.5 343z" glyph-name="ccaron" horiz-adv-x="1062" unicode="č"/><glyph d="M858 1749l-209 -279h-80l-211 279h105l147 -201l148 201h100zM205 0q4 208 4 379v684q0 145 -4 313h366q203 0 365 -85t255 -242t93 -357q0 -202 -93.5 -360.5t-257 -245t-368.5 -86.5h-360zM352 119h207q259 0 416.5 160t157.5 415q0 250 -161 406.5t-415 156.5h-205 v-1138z" glyph-name="Dcaron" horiz-adv-x="1406" unicode="Ď"/><glyph d="M1194 1135h-98l39 340h129zM111 475q0 222 138 354t353 132q82 0 165 -28.5t124 -66.5v496h-107l45 86h203q-6 -86 -6 -182v-1026l2 -240h-51l-62 100q-58 -48 -147 -79t-180 -31q-214 0 -345.5 136.5t-131.5 348.5zM252 475q0 -169 90 -269t252 -100q83 0 166 29t131 74 l2 526q-119 109 -285 109t-261 -100.5t-95 -268.5z" glyph-name="dcaron" horiz-adv-x="1243" unicode="ď"/><glyph d="M571 1376q203 0 365 -85t255 -242t93 -357q0 -202 -93.5 -360.5t-257 -245t-368.5 -86.5h-360q4 208 4 379v254h-178v106h178v324q0 145 -4 313h366zM559 119q259 0 416.5 160t157.5 415q0 250 -161 406.5t-415 156.5h-205v-518h340v-106h-340v-514h207z" glyph-name="Dcroat" horiz-adv-x="1406" unicode="Đ"/><glyph d="M1124 1171h-98v-931l2 -240h-51l-62 100q-58 -48 -147 -79t-180 -31q-214 0 -345.5 136.5t-131.5 348.5q0 222 138 354t353 132q82 0 165 -28.5t124 -66.5v305h-258v99h258v92h-107l45 86h203q-6 -83 -6 -178h98v-99zM891 209l2 526q-119 109 -285 109t-261 -100.5 t-95 -268.5q0 -169 90 -269t252 -100q83 0 166 29t131 74z" glyph-name="dslash" horiz-adv-x="1243" unicode="đ"/><glyph d="M276 1561v98h496v-98h-496zM205 0q0 96 2 201t2 127v716q0 140 -4 332h305q248 0 352 4l-20 -127q-104 4 -348 4h-142v-481h156q227 0 315 2v-125q-180 4 -315 4h-156v-538h211q236 0 316 2v-123q-80 2 -310 2h-364z" glyph-name="Emacron" horiz-adv-x="1017" unicode="Ē"/><glyph d="M309 1171v99h496v-99h-496zM111 481q0 127 52.5 235.5t154 176.5t231.5 68q112 0 196.5 -37.5t131.5 -101t69.5 -135.5t22.5 -152q0 -48 -4 -84h-713q15 -351 346 -351q144 0 320 103v-119q-53 -41 -138.5 -69.5t-187.5 -28.5q-215 0 -348 128.5t-133 366.5zM553 850 q-62 0 -112.5 -17.5t-83.5 -45.5t-56.5 -67t-34.5 -79t-14 -84h586q-7 293 -285 293z" glyph-name="emacron" horiz-adv-x="1067" unicode="ē"/><glyph d="M434 1645q0 37 26.5 63.5t63.5 26.5t64.5 -26.5t27.5 -63.5q0 -38 -27.5 -64.5t-64.5 -26.5t-63.5 26.5t-26.5 64.5zM205 0q0 96 2 201t2 127v716q0 140 -4 332h305q248 0 352 4l-20 -127q-104 4 -348 4h-142v-481h156q227 0 315 2v-125q-180 4 -315 4h-156v-538h211 q236 0 316 2v-123q-80 2 -310 2h-364z" glyph-name="Edotaccent" horiz-adv-x="1017" unicode="Ė"/><glyph d="M467 1255q0 37 26.5 64t63.5 27t64.5 -27t27.5 -64q0 -38 -27.5 -64t-64.5 -26t-63.5 26t-26.5 64zM111 481q0 127 52.5 235.5t154 176.5t231.5 68q112 0 196.5 -37.5t131.5 -101t69.5 -135.5t22.5 -152q0 -48 -4 -84h-713q15 -351 346 -351q144 0 320 103v-119 q-53 -41 -138.5 -69.5t-187.5 -28.5q-215 0 -348 128.5t-133 366.5zM553 850q-62 0 -112.5 -17.5t-83.5 -45.5t-56.5 -67t-34.5 -79t-14 -84h586q-7 293 -285 293z" glyph-name="edotaccent" horiz-adv-x="1067" unicode="ė"/><glyph d="M563 119q236 0 316 2v-123h-2q-211 -142 -211 -287q0 -54 29.5 -84t82.5 -30q44 0 90 22l11 -84q-65 -29 -138 -29q-84 0 -140 51t-56 134q0 75 50.5 155.5t141.5 153.5h-168h-364q0 96 2 201t2 127v716q0 140 -4 332h305q248 0 352 4l-20 -127q-104 4 -348 4h-142v-481 h156q227 0 315 2v-125q-180 4 -315 4h-156v-538h211z" glyph-name="Eogonek" horiz-adv-x="1017" unicode="Ę"/><glyph d="M969 535q0 -48 -4 -84h-713q15 -351 346 -351q144 0 320 103v-119q-26 -21 -76 -45q-85 -85 -124.5 -171.5t-39.5 -156.5q0 -54 30 -84t83 -30q44 0 90 22l10 -84q-65 -29 -137 -29q-84 0 -140.5 51t-56.5 134q0 141 123 301q-44 -6 -88 -6q-215 0 -348 128.5t-133 366.5 q0 127 52.5 235.5t154 176.5t231.5 68q112 0 196.5 -37.5t131.5 -101t69.5 -135.5t22.5 -152zM252 557h586q-7 293 -285 293q-62 0 -112.5 -17.5t-83.5 -45.5t-56.5 -67t-34.5 -79t-14 -84z" glyph-name="eogonek" horiz-adv-x="1067" unicode="ę"/><glyph d="M772 1749l-209 -279h-80l-211 279h105l147 -201l148 201h100zM205 0q0 96 2 201t2 127v716q0 140 -4 332h305q248 0 352 4l-20 -127q-104 4 -348 4h-142v-481h156q227 0 315 2v-125q-180 4 -315 4h-156v-538h211q236 0 316 2v-123q-80 2 -310 2h-364z" glyph-name="Ecaron" horiz-adv-x="1017" unicode="Ě"/><glyph d="M805 1360l-209 -279h-80l-211 279h105l147 -201l148 201h100zM111 481q0 127 52.5 235.5t154 176.5t231.5 68q112 0 196.5 -37.5t131.5 -101t69.5 -135.5t22.5 -152q0 -48 -4 -84h-713q15 -351 346 -351q144 0 320 103v-119q-53 -41 -138.5 -69.5t-187.5 -28.5 q-215 0 -348 128.5t-133 366.5zM553 850q-62 0 -112.5 -17.5t-83.5 -45.5t-56.5 -67t-34.5 -79t-14 -84h586q-7 293 -285 293z" glyph-name="ecaron" horiz-adv-x="1067" unicode="ě"/><glyph d="M616 1716q7 -64 50.5 -101.5t107.5 -37.5q60 0 104 40t56 99h88q-7 -100 -75.5 -160.5t-172.5 -60.5q-98 0 -166 63t-82 158h90zM123 678q0 147 51 277.5t143.5 228t231.5 154.5t305 57q190 0 360 -66v-143q-141 86 -352 86q-261 0 -424.5 -162.5t-163.5 -423.5 q0 -120 39.5 -227t111.5 -187.5t181.5 -128t241.5 -47.5q146 0 260 51v228q0 168 -4 254h151q0 -49 -0.5 -100.5t-1.5 -138t-2 -163.5l-2 -170q-204 -80 -409 -80q-206 0 -368.5 85.5t-255.5 246t-93 369.5z" glyph-name="Gbreve" horiz-adv-x="1427" unicode="Ğ"/><glyph d="M430 1327q7 -64 50.5 -101.5t107.5 -37.5q60 0 104 40t56 99h88q-7 -100 -75.5 -160.5t-172.5 -60.5q-98 0 -166 63t-82 158h90zM111 475q0 221 137 352t346 131q88 0 172 -27t125 -65l4 72h137q-4 -90 -4 -137v-809q0 -109 -25.5 -191.5t-70 -135.5t-110.5 -86 t-140 -46.5t-166 -13.5q-79 0 -180.5 16t-163.5 33l29 108q215 -43 317 -43q177 0 275 83.5t98 279.5v86q-137 -92 -303 -92q-214 0 -345.5 136.5t-131.5 348.5zM252 475q0 -169 90 -269t252 -100q83 0 166 29t131 74l2 526q-126 109 -285 109q-170 0 -263 -100t-93 -269z" glyph-name="gbreve" horiz-adv-x="1222" unicode="ğ"/><glyph d="M684 1645q0 37 26.5 63.5t63.5 26.5t64.5 -26.5t27.5 -63.5q0 -38 -27.5 -64.5t-64.5 -26.5t-63.5 26.5t-26.5 64.5zM123 678q0 147 51 277.5t143.5 228t231.5 154.5t305 57q190 0 360 -66v-143q-141 86 -352 86q-261 0 -424.5 -162.5t-163.5 -423.5q0 -120 39.5 -227 t111.5 -187.5t181.5 -128t241.5 -47.5q146 0 260 51v228q0 168 -4 254h151q0 -49 -0.5 -100.5t-1.5 -138t-2 -163.5l-2 -170q-204 -80 -409 -80q-206 0 -368.5 85.5t-255.5 246t-93 369.5z" glyph-name="Gdotaccent" horiz-adv-x="1427" unicode="Ġ"/><glyph d="M498 1255q0 37 26.5 64t63.5 27t64.5 -27t27.5 -64q0 -38 -27.5 -64t-64.5 -26t-63.5 26t-26.5 64zM111 475q0 221 137 352t346 131q88 0 172 -27t125 -65l4 72h137q-4 -90 -4 -137v-809q0 -109 -25.5 -191.5t-70 -135.5t-110.5 -86t-140 -46.5t-166 -13.5 q-79 0 -180.5 16t-163.5 33l29 108q215 -43 317 -43q177 0 275 83.5t98 279.5v86q-137 -92 -303 -92q-214 0 -345.5 136.5t-131.5 348.5zM252 475q0 -169 90 -269t252 -100q83 0 166 29t131 74l2 526q-126 109 -285 109q-170 0 -263 -100t-93 -269z" glyph-name="gdotaccent" horiz-adv-x="1222" unicode="ġ"/><glyph d="M123 678q0 147 51 277.5t143.5 228t231.5 154.5t305 57q190 0 360 -66v-143q-141 86 -352 86q-261 0 -424.5 -162.5t-163.5 -423.5q0 -120 39.5 -227t111.5 -187.5t181.5 -128t241.5 -47.5q146 0 260 51v228q0 168 -4 254h151q0 -49 -0.5 -100.5t-1.5 -138t-2 -163.5 l-2 -170q-204 -80 -409 -80q-206 0 -368.5 85.5t-255.5 246t-93 369.5zM885 -115q10 -44 10 -116q0 -63 -36.5 -138.5t-106.5 -126.5l-72 35q68 96 68 191q0 66 -9 125z" glyph-name="Gcommaaccent" horiz-adv-x="1427" unicode="Ģ"/><glyph d="M496 1047q-11 48 -11 116q0 62 37 137t107 127l71 -34q-67 -95 -67 -191q0 -73 8 -125zM111 475q0 221 137 352t346 131q88 0 172 -27t125 -65l4 72h137q-4 -90 -4 -137v-809q0 -109 -25.5 -191.5t-70 -135.5t-110.5 -86t-140 -46.5t-166 -13.5q-79 0 -180.5 16 t-163.5 33l29 108q215 -43 317 -43q177 0 275 83.5t98 279.5v86q-137 -92 -303 -92q-214 0 -345.5 136.5t-131.5 348.5zM252 475q0 -169 90 -269t252 -100q83 0 166 29t131 74l2 526q-126 109 -285 109q-170 0 -263 -100t-93 -269z" glyph-name="gcommaaccent" horiz-adv-x="1222" unicode="ģ"/><glyph d="M1374 1020h-88v-770q0 -98 4 -250h-151q4 164 4 291v371h-791v-371q0 -203 4 -291h-151q4 172 4 307v713h-141v98h141q0 118 -4 258h151q-4 -164 -4 -258h791q0 122 -4 258h151q-4 -90 -4 -258h88v-98zM1143 778v242h-791v-115v-127h791z" glyph-name="Hbar" horiz-adv-x="1441" unicode="Ħ"/><glyph d="M1018 0h-141q2 37 2 227v348q0 134 -74 198.5t-195 64.5q-93 0 -176 -53.5t-131 -141.5v-463q0 -82 4 -180h-143q4 106 4 184v953h-123v98h123v156h-78l37 86h180q-4 -47 -4 -199v-43h330v-98h-330v-346q51 72 138.5 117.5t209.5 45.5q163 0 263 -100.5t100 -292.5v-344 q0 -166 4 -217z" glyph-name="hbar" horiz-adv-x="1169" unicode="ħ"/><glyph d="M35 1561v98h495v-98h-495zM205 0q6 282 6 324v688q0 46 -6 364h153q-4 -114 -4 -364v-690q0 -222 4 -322h-153z" glyph-name="Imacron" horiz-adv-x="563" unicode="Ī"/><glyph d="M39 1171v99h496v-99h-496zM213 0q6 45 6 201v534q0 160 -6 203h147q-6 -47 -6 -203v-534q0 -160 6 -201h-147z" glyph-name="imacron" horiz-adv-x="571" unicode="ī"/><glyph d="M358 0q-103 -69 -158 -144t-55 -145q0 -54 30 -84t83 -30q44 0 90 22l10 -84q-65 -29 -137 -29q-84 0 -140 51t-56 134q0 75 50.5 155.5t141.5 153.5h-12q6 282 6 324v688q0 46 -6 364h153q-4 -114 -4 -364v-690q0 -222 4 -322z" glyph-name="Iogonek" horiz-adv-x="563" unicode="Į"/><glyph d="M287 1165q-37 0 -63.5 26t-26.5 64q0 37 26.5 64t63.5 27t64.5 -27t27.5 -64q0 -38 -27.5 -64t-64.5 -26zM375 0q-103 -69 -158 -144t-55 -145q0 -54 29.5 -84t82.5 -30q45 0 91 22l10 -84q-65 -29 -137 -29q-84 0 -140.5 51t-56.5 134q0 75 50.5 155.5t141.5 153.5h-20 q6 45 6 201v534q0 160 -6 203h147q-6 -47 -6 -203v-534q0 -148 4 -189z" glyph-name="iogonek" horiz-adv-x="550" unicode="į"/><glyph d="M193 1645q0 37 26.5 63.5t63.5 26.5t64.5 -26.5t27.5 -63.5q0 -38 -27.5 -64.5t-64.5 -26.5t-63.5 26.5t-26.5 64.5zM205 0q6 282 6 324v688q0 46 -6 364h153q-4 -114 -4 -364v-690q0 -222 4 -322h-153z" glyph-name="Idotaccent" horiz-adv-x="563" unicode="İ"/><glyph d="M213 0q6 45 6 201v534q0 160 -6 203h147q-6 -47 -6 -203v-534q0 -160 6 -201h-147z" glyph-name="dotlessi" horiz-adv-x="571" unicode="ı"/><glyph d="M205 0q4 192 4 328v719q0 59 -2 162.5t-2 166.5h151q-2 -117 -2 -327v-353l383 455q121 140 185 225h161q-28 -35 -84 -100l-487 -569l489 -545q14 -15 44.5 -49t55.5 -61t50 -52h-195q-46 59 -133 158l-469 530v-358q0 -201 2 -330h-151zM741 -115q11 -48 11 -116 q0 -62 -37 -137.5t-107 -127.5l-71 35q67 95 67 191q0 73 -8 125z" glyph-name="Kcommaaccent" horiz-adv-x="1198" unicode="Ķ"/><glyph d="M172 0q4 114 4 205v1186h-86l33 86h194q-6 -57 -6 -197v-768l430 426h187q-103 -80 -160 -133l-301 -283l405 -416q81 -81 109 -106h-190l-480 496v-308q0 -70 4 -188h-143zM647 -115q10 -44 10 -116q0 -63 -36.5 -138.5t-106.5 -126.5l-72 35q68 96 68 191q0 73 -8 125z" glyph-name="kcommaaccent" horiz-adv-x="1046" unicode="ķ"/><glyph d="M471 1765l-190 -278h-109l150 278h149zM205 0q0 1 1 82.5t2 174.5t1 122v616q0 159 -4 381h149q0 -44 -1 -85t-1 -50v-1122h266q137 0 277 4v-127q-86 4 -289 4h-401z" glyph-name="Lacute" horiz-adv-x="954" unicode="Ĺ"/><glyph d="M432 1858l-190 -279h-109l150 279h149zM174 0q4 86 4 199v1192h-88l37 86h192q-6 -39 -6 -172v-1106q0 -156 4 -199h-143z" glyph-name="lacute" horiz-adv-x="530" unicode="ĺ"/><glyph d="M205 0q0 1 1 82.5t2 174.5t1 122v616q0 159 -4 381h149q0 -44 -1 -85t-1 -50v-1122h266q137 0 277 4v-127q-86 4 -289 4h-401zM639 -115q10 -44 10 -116q0 -63 -36.5 -138.5t-106.5 -126.5l-72 35q68 96 68 191q0 73 -8 125z" glyph-name="Lcommaaccent" horiz-adv-x="954" unicode="Ļ"/><glyph d="M174 0q4 86 4 199v1192h-88l37 86h192q-6 -39 -6 -172v-1106q0 -156 4 -199h-143zM336 -115q10 -44 10 -116q0 -63 -36.5 -138.5t-106.5 -126.5l-72 35q68 96 68 191q0 66 -9 125z" glyph-name="lcommaaccent" horiz-adv-x="530" unicode="ļ"/><glyph d="M690 1036l41 344h127l-70 -344h-98zM205 0q0 1 1 82.5t2 174.5t1 122v616q0 159 -4 381h149q0 -44 -1 -85t-1 -50v-1122h266q137 0 277 4v-127q-86 4 -289 4h-401z" glyph-name="Lcaron" horiz-adv-x="954" unicode="Ľ"/><glyph d="M174 0q4 86 4 199v1192h-88l37 86h192q-6 -39 -6 -172v-1106q0 -156 4 -199h-143zM420 1135l41 340h129l-72 -340h-98z" glyph-name="lcaron" horiz-adv-x="489" unicode="ľ"/><glyph d="M205 0q0 1 1 82.5t2 174.5t1 122v616q0 159 -4 381h149q0 -44 -1 -85t-1 -50v-1122h266q137 0 277 4v-127q-86 4 -289 4h-401zM612 737q0 41 29.5 70t69.5 29t69 -29t29 -70q0 -40 -29 -68t-69 -28t-69.5 28.5t-29.5 67.5z" glyph-name="Ldot" horiz-adv-x="954" unicode="Ŀ"/><glyph d="M174 0q4 86 4 199v1192h-88l37 86h192q-6 -39 -6 -172v-1106q0 -156 4 -199h-143zM391 752q0 41 29 69.5t69 28.5t69.5 -28.5t29.5 -69.5q0 -40 -29.5 -68.5t-69.5 -28.5t-69 28.5t-29 68.5z" glyph-name="ldot" horiz-adv-x="587" unicode="ŀ"/><glyph d="M645 119q137 0 277 4v-127q-86 4 -289 4h-402q0 1 1.5 82.5t2.5 174.5t1 122v237l-213 -129v127l213 129v252q0 103 -5 381h150q0 -44 -1 -85t-1 -50v-412l291 177v-129l-291 -175v-583h266z" glyph-name="Lslash" horiz-adv-x="954" unicode="Ł"/><glyph d="M434 754l-121 -74v-481q0 -156 4 -199h-143q4 86 4 199v399l-182 -111v125l182 111v668h-88l37 86h192q-6 -39 -6 -172v-498l121 74v-127z" glyph-name="lslash" horiz-adv-x="501" unicode="ł"/><glyph d="M961 1765l-191 -278h-108l149 278h150zM205 0q4 180 4 289v760q0 104 -4 342h86l903 -1106v751q0 239 -6 340h151q-8 -98 -8 -327v-773q0 -190 2 -276h-92l-895 1110v-831q0 -153 6 -279h-147z" glyph-name="Nacute" horiz-adv-x="1544" unicode="Ń"/><glyph d="M809 1376l-191 -278h-108l149 278h150zM90 848l37 90h164l12 -147q51 72 138.5 117.5t209.5 45.5q162 0 261.5 -100.5t99.5 -292.5v-344q0 -154 4 -217h-142q3 132 3 227v348q0 134 -73.5 198.5t-193.5 64.5q-96 0 -177.5 -53t-129.5 -142v-416q0 -153 2 -227h-141 q4 152 4 227v621h-78z" glyph-name="nacute" horiz-adv-x="1167" unicode="ń"/><glyph d="M205 0q4 180 4 289v760q0 104 -4 342h86l903 -1106v751q0 239 -6 340h151q-8 -98 -8 -327v-773q0 -190 2 -276h-92l-895 1110v-831q0 -153 6 -279h-147zM864 -115q10 -44 10 -116q0 -63 -36.5 -138.5t-106.5 -126.5l-72 35q68 96 68 191q0 73 -8 125z" glyph-name="Ncommaaccent" horiz-adv-x="1544" unicode="Ņ"/><glyph d="M90 848l37 90h164l12 -147q51 72 138.5 117.5t209.5 45.5q162 0 261.5 -100.5t99.5 -292.5v-344q0 -154 4 -217h-142q3 132 3 227v348q0 134 -73.5 198.5t-193.5 64.5q-96 0 -177.5 -53t-129.5 -142v-416q0 -153 2 -227h-141q4 152 4 227v621h-78zM731 -115 q10 -44 10 -116q0 -63 -36.5 -138.5t-106.5 -126.5l-72 35q68 96 68 191q0 73 -8 125z" glyph-name="ncommaaccent" horiz-adv-x="1167" unicode="ņ"/><glyph d="M1018 1749l-209 -279h-80l-211 279h105l147 -201l148 201h100zM205 0q4 180 4 289v760q0 104 -4 342h86l903 -1106v751q0 239 -6 340h151q-8 -98 -8 -327v-773q0 -190 2 -276h-92l-895 1110v-831q0 -153 6 -279h-147z" glyph-name="Ncaron" horiz-adv-x="1544" unicode="Ň"/><glyph d="M866 1360l-209 -279h-79l-211 279h104l147 -201l148 201h100zM90 848l37 90h164l12 -147q51 72 138.5 117.5t209.5 45.5q162 0 261.5 -100.5t99.5 -292.5v-344q0 -154 4 -217h-142q3 132 3 227v348q0 134 -73.5 198.5t-193.5 64.5q-96 0 -177.5 -53t-129.5 -142v-416 q0 -153 2 -227h-141q4 152 4 227v621h-78z" glyph-name="ncaron" horiz-adv-x="1167" unicode="ň"/><glyph d="M1331 1049v-773q0 -190 2 -276h-26q0 -170 -91.5 -275.5t-238.5 -105.5q-96 0 -156 25v104q68 -22 154 -22q95 0 152 75.5t57 198.5v72l-838 1038v-831q0 -153 6 -279h-147q4 180 4 289v760q0 104 -4 342h86l903 -1106v751q0 239 -6 340h151q-8 -98 -8 -327z" glyph-name="Eng" horiz-adv-x="1544" unicode="Ŋ"/><glyph d="M164 0q4 152 4 227v621h-78l37 90h164l12 -147q51 72 138.5 117.5t209.5 45.5q162 0 261.5 -100.5t99.5 -292.5v-688q0 -383 -314 -383h-118v107h118q179 0 179 282v696q0 134 -73.5 198.5t-193.5 64.5q-96 0 -177.5 -53t-129.5 -142v-416q0 -153 2 -227h-141z" glyph-name="eng" horiz-adv-x="1163" unicode="ŋ"/><glyph d="M569 1561v98h496v-98h-496zM123 686q0 198 91 360.5t250 255.5t353 93q193 0 352.5 -94t250.5 -256.5t91 -358.5q0 -198 -91.5 -361t-250.5 -255.5t-352 -92.5q-146 0 -274.5 54t-221 147.5t-145.5 225t-53 282.5zM274 686q0 -257 153.5 -423.5t389.5 -166.5 q234 0 387.5 168t153.5 422q0 250 -154 419t-387 169q-151 0 -275 -75t-196 -210t-72 -303z" glyph-name="Omacron" horiz-adv-x="1634" unicode="Ō"/><glyph d="M317 1171v99h496v-99h-496zM111 465q0 204 133.5 346.5t326.5 142.5q195 0 328 -142.5t133 -346.5q0 -202 -132 -341.5t-329 -139.5t-328.5 139.5t-131.5 341.5zM252 465q0 -156 90 -262.5t229 -106.5q144 0 232 105.5t88 263.5q0 162 -91 267.5t-229 105.5 q-72 0 -134 -34.5t-101.5 -89t-61.5 -120t-22 -129.5z" glyph-name="omacron" horiz-adv-x="1142" unicode="ō"/><glyph d="M844 1765l-191 -278h-108l149 278h150zM1161 1765l-190 -278h-109l150 278h149zM123 686q0 198 91 360.5t250 255.5t353 93q193 0 352.5 -94t250.5 -256.5t91 -358.5q0 -198 -91.5 -361t-250.5 -255.5t-352 -92.5q-146 0 -274.5 54t-221 147.5t-145.5 225t-53 282.5z M274 686q0 -257 153.5 -423.5t389.5 -166.5q234 0 387.5 168t153.5 422q0 250 -154 419t-387 169q-151 0 -275 -75t-196 -210t-72 -303z" glyph-name="Ohungarumlaut" horiz-adv-x="1634" unicode="Ő"/><glyph d="M592 1376l-191 -278h-108l149 278h150zM909 1376l-190 -278h-109l150 278h149zM111 465q0 204 133.5 346.5t326.5 142.5q195 0 328 -142.5t133 -346.5q0 -202 -132 -341.5t-329 -139.5t-328.5 139.5t-131.5 341.5zM252 465q0 -156 90 -262.5t229 -106.5q144 0 232 105.5 t88 263.5q0 162 -91 267.5t-229 105.5q-72 0 -134 -34.5t-101.5 -89t-61.5 -120t-22 -129.5z" glyph-name="ohungarumlaut" horiz-adv-x="1142" unicode="ő"/><glyph d="M123 686q0 148 53.5 276.5t146 219t220.5 142.5t274 52h322q247 0 356 4l-20 -129q-53 0 -160 2t-160 2h-172v-479h154q229 0 317 2v-121q-225 5 -317 5h-154v-543h213q233 0 315 2v-123q-82 2 -309 2h-385q-196 0 -354 85.5t-249 243t-91 357.5zM274 686 q0 -254 157.5 -410.5t402.5 -156.5v1136q-156 0 -283.5 -70t-202 -201t-74.5 -298z" glyph-name="OE" horiz-adv-x="1650" unicode="Œ"/><glyph d="M111 465q0 204 133.5 346.5t326.5 142.5q129 0 229 -65.5t156 -177.5q49 114 145.5 182t227.5 68q112 0 196.5 -37.5t131.5 -101t69.5 -135.5t22.5 -152q0 -48 -4 -84h-713q15 -351 346 -351q144 0 320 103v-119q-53 -41 -138.5 -69.5t-187.5 -28.5q-146 0 -252 61 t-159 180q-55 -112 -157.5 -177.5t-232.5 -65.5q-197 0 -328.5 139.5t-131.5 341.5zM1032 557h586q-7 293 -285 293q-62 0 -112.5 -17.5t-83.5 -45.5t-56.5 -67t-34.5 -79t-14 -84zM252 465q0 -156 90 -262.5t229 -106.5q144 0 232 105.5t88 263.5q0 162 -91 267.5 t-229 105.5q-72 0 -134 -34.5t-101.5 -89t-61.5 -120t-22 -129.5z" glyph-name="oe" horiz-adv-x="1847" unicode="œ"/><glyph d="M715 1765l-191 -278h-108l149 278h150zM961 991q0 -137 -76 -228.5t-215 -135.5l198 -285q89 -128 269 -342h-191l-409 582h-187v-228q0 -170 4 -354h-149q4 94 4 362v693q0 241 -4 321h284q97 0 181 -23.5t150 -69t103.5 -120.5t37.5 -172zM811 979q0 133 -91.5 205.5 t-232.5 72.5h-137v-557h146q130 0 222.5 75t92.5 204z" glyph-name="Racute" horiz-adv-x="1191" unicode="Ŕ"/><glyph d="M555 1376l-190 -278h-109l150 278h149zM90 850l37 88h160l18 -135q47 63 128 109t151 46q52 0 96 -14l-27 -125q-52 10 -96 10q-61 0 -130 -36.5t-118 -108.5v-483q0 -24 6 -201h-147q6 111 6 207v643h-84z" glyph-name="racute" horiz-adv-x="729" unicode="ŕ"/><glyph d="M961 991q0 -137 -76 -228.5t-215 -135.5l198 -285q89 -128 269 -342h-191l-409 582h-187v-228q0 -170 4 -354h-149q4 94 4 362v693q0 241 -4 321h284q97 0 181 -23.5t150 -69t103.5 -120.5t37.5 -172zM811 979q0 133 -91.5 205.5t-232.5 72.5h-137v-557h146 q130 0 222.5 75t92.5 204zM680 -115q10 -44 10 -116q0 -63 -36.5 -138.5t-106.5 -126.5l-72 35q68 96 68 191q0 73 -8 125z" glyph-name="Rcommaaccent" horiz-adv-x="1191" unicode="Ŗ"/><glyph d="M90 850l37 88h160l18 -135q47 63 128 109t151 46q52 0 96 -14l-27 -125q-52 10 -96 10q-61 0 -130 -36.5t-118 -108.5v-483q0 -24 6 -201h-147q6 111 6 207v643h-84zM489 -115q11 -48 11 -116q0 -62 -37 -137.5t-107 -127.5l-71 35q67 95 67 191q0 73 -8 125z" glyph-name="rcommaaccent" horiz-adv-x="729" unicode="ŗ"/><glyph d="M772 1749l-209 -279h-80l-211 279h105l147 -201l148 201h100zM961 991q0 -137 -76 -228.5t-215 -135.5l198 -285q89 -128 269 -342h-191l-409 582h-187v-228q0 -170 4 -354h-149q4 94 4 362v693q0 241 -4 321h284q97 0 181 -23.5t150 -69t103.5 -120.5t37.5 -172z M811 979q0 133 -91.5 205.5t-232.5 72.5h-137v-557h146q130 0 222.5 75t92.5 204z" glyph-name="Rcaron" horiz-adv-x="1191" unicode="Ř"/><glyph d="M612 1360l-209 -279h-79l-211 279h104l148 -201l147 201h100zM90 850l37 88h160l18 -135q47 63 128 109t151 46q52 0 96 -14l-27 -125q-52 10 -96 10q-61 0 -130 -36.5t-118 -108.5v-483q0 -24 6 -201h-147q6 111 6 207v643h-84z" glyph-name="rcaron" horiz-adv-x="729" unicode="ř"/><glyph d="M686 1765l-190 -278h-109l150 278h149zM131 45l31 150q56 -50 137 -78.5t170 -28.5q124 0 198 64t74 178q0 52 -20.5 98.5t-58 83.5t-74.5 64t-84 53q-41 23 -67 38.5t-64.5 42t-63 48.5t-53 54t-44.5 63.5t-27 72t-11 84.5q0 166 109.5 265.5t287.5 99.5q65 0 147 -15.5 t124 -33.5v-144q-93 78 -269 78q-110 0 -179.5 -59.5t-69.5 -165.5q0 -86 58 -154.5t175 -132.5q134 -78 205 -137.5t104 -126.5t33 -158q0 -165 -119.5 -269t-310.5 -104q-169 0 -338 70z" glyph-name="Sacute" horiz-adv-x="1034" unicode="Ś"/><glyph d="M596 1376l-190 -278h-109l149 278h150zM102 39l23 131q111 -90 244 -90q87 0 142.5 41.5t55.5 114.5q0 26 -12.5 50t-28 40.5t-47 37.5t-50 30.5t-56.5 29.5q-47 24 -82 47t-73.5 57t-59.5 78.5t-21 95.5q0 112 82.5 182t222.5 70q96 0 220 -36v-127q-101 61 -213 61 q-84 0 -133.5 -37t-49.5 -102q0 -25 12.5 -49t27.5 -40t46 -36t49.5 -30t55.5 -28q38 -19 65.5 -35.5t62.5 -44t57.5 -56t38 -68.5t15.5 -84q0 -123 -88 -194t-233 -71q-71 0 -147.5 18t-125.5 44z" glyph-name="sacute" horiz-adv-x="806" unicode="ś"/><glyph d="M899 348q0 -146 -94.5 -245t-253.5 -121l-35 -70q75 -12 116.5 -54.5t41.5 -105.5q0 -75 -55 -122.5t-150 -47.5q-67 0 -119 21l12 73q56 -18 97 -18q52 0 83 25.5t31 68.5q0 96 -145 96h-20l61 127q-169 0 -338 70l31 150q56 -50 137 -78.5t170 -28.5q124 0 198 64 t74 178q0 52 -20.5 98.5t-58 83.5t-74.5 64t-84 53q-41 23 -67 38.5t-64.5 42t-63 48.5t-53 54t-44.5 63.5t-27 72t-11 84.5q0 166 109.5 265.5t287.5 99.5q65 0 147 -15.5t124 -33.5v-144q-93 78 -269 78q-110 0 -179.5 -59.5t-69.5 -165.5q0 -86 58 -154.5t175 -132.5 q134 -78 205 -137.5t104 -126.5t33 -158z" glyph-name="Scedilla" horiz-adv-x="1034" unicode="Ş"/><glyph d="M696 242q0 -103 -63 -170t-172 -86l-37 -74q75 -12 116.5 -54.5t41.5 -105.5q0 -75 -55 -122.5t-150 -47.5q-67 0 -119 21l12 73q56 -18 97 -18q52 0 83 25.5t31 68.5q0 96 -145 96h-21l62 129h-2q-71 0 -147.5 18t-125.5 44l23 131q111 -90 244 -90q87 0 142.5 41.5 t55.5 114.5q0 26 -12.5 50t-28 40.5t-47 37.5t-50 30.5t-56.5 29.5q-47 24 -82 47t-73.5 57t-59.5 78.5t-21 95.5q0 112 82.5 182t222.5 70q96 0 220 -36v-127q-101 61 -213 61q-84 0 -133.5 -37t-49.5 -102q0 -25 12.5 -49t27.5 -40t46 -36t49.5 -30t55.5 -28 q38 -19 65.5 -35.5t62.5 -44t57.5 -56t38 -68.5t15.5 -84z" glyph-name="scedilla" horiz-adv-x="806" unicode="ş"/><glyph d="M743 1749l-208 -279h-80l-211 279h104l148 -201l147 201h100zM131 45l31 150q56 -50 137 -78.5t170 -28.5q124 0 198 64t74 178q0 52 -20.5 98.5t-58 83.5t-74.5 64t-84 53q-41 23 -67 38.5t-64.5 42t-63 48.5t-53 54t-44.5 63.5t-27 72t-11 84.5q0 166 109.5 265.5 t287.5 99.5q65 0 147 -15.5t124 -33.5v-144q-93 78 -269 78q-110 0 -179.5 -59.5t-69.5 -165.5q0 -86 58 -154.5t175 -132.5q134 -78 205 -137.5t104 -126.5t33 -158q0 -165 -119.5 -269t-310.5 -104q-169 0 -338 70z" glyph-name="Scaron" horiz-adv-x="1034" unicode="Š"/><glyph d="M653 1360l-209 -279h-79l-211 279h104l148 -201l147 201h100zM102 39l23 131q111 -90 244 -90q87 0 142.5 41.5t55.5 114.5q0 26 -12.5 50t-28 40.5t-47 37.5t-50 30.5t-56.5 29.5q-47 24 -82 47t-73.5 57t-59.5 78.5t-21 95.5q0 112 82.5 182t222.5 70q96 0 220 -36 v-127q-101 61 -213 61q-84 0 -133.5 -37t-49.5 -102q0 -25 12.5 -49t27.5 -40t46 -36t49.5 -30t55.5 -28q38 -19 65.5 -35.5t62.5 -44t57.5 -56t38 -68.5t15.5 -84q0 -123 -88 -194t-233 -71q-71 0 -147.5 18t-125.5 44z" glyph-name="scaron" horiz-adv-x="806" unicode="š"/><glyph d="M831 1376q226 0 306 2l-21 -125q-180 4 -293 4h-155q-2 -76 -2 -260v-649q0 -260 4 -348h-23l-45 -88q75 -12 116.5 -54.5t41.5 -105.5q0 -75 -55 -122.5t-150 -47.5q-67 0 -119 21l13 73q56 -18 96 -18q52 0 83 25.5t31 68.5q0 96 -145 96h-20l71 152h-45q2 92 2 348 v649q0 186 -2 260h-155q-211 0 -295 -4v125q51 0 154.5 -1t154.5 -1h452z" glyph-name="uni0162" horiz-adv-x="1193" unicode="Ţ"/><glyph d="M416 -88q75 -12 116 -54.5t41 -105.5q0 -75 -54.5 -122.5t-149.5 -47.5q-67 0 -119 21l12 73q55 -18 96 -18q52 0 83.5 25.5t31.5 68.5q0 96 -145 96h-21l70 148q-150 50 -150 283v548h-157v111h157v80q0 104 -2 147l140 27q-3 -88 -3 -176v-78h275l-19 -111h-256v-514 q0 -114 33.5 -167.5t118.5 -53.5q51 0 104 29l23 -105q-32 -14 -82.5 -24t-85.5 -10h-22z" glyph-name="uni0163" horiz-adv-x="731" unicode="ţ"/><glyph d="M840 1749l-209 -279h-80l-211 279h104l148 -201l147 201h101zM520 0q2 92 2 348v649q0 186 -2 260h-155q-211 0 -295 -4v125q51 0 154.5 -1t154.5 -1h452q226 0 306 2l-21 -125q-180 4 -293 4h-155q-2 -76 -2 -260v-649q0 -260 4 -348h-150z" glyph-name="Tcaron" horiz-adv-x="1193" unicode="Ť"/><glyph d="M590 1083h-98l38 342h129zM70 827v111h157v80q0 104 -2 147l140 27q-3 -88 -3 -176v-78h275l-19 -111h-256v-514q0 -114 33.5 -167.5t118.5 -53.5q51 0 104 29l23 -105q-32 -14 -82.5 -24t-85.5 -10q-246 0 -246 297v548h-157z" glyph-name="tcaron" horiz-adv-x="690" unicode="ť"/><glyph d="M668 1257q-2 -76 -2 -260v-245h243v-105h-243v-299q0 -260 4 -348h-150q2 92 2 348v299h-282v105h282v245q0 186 -2 260h-155q-211 0 -295 -4v125q51 0 154.5 -1t154.5 -1h452q226 0 306 2l-21 -125q-180 4 -293 4h-155z" glyph-name="Tbar" horiz-adv-x="1193" unicode="Ŧ"/><glyph d="M639 121l23 -105q-32 -14 -82.5 -24t-85.5 -10q-246 0 -246 297v139h-178v110h178v299h-158v111h158v80q0 104 -2 147l139 27q-2 -59 -2 -176v-78h274l-18 -111h-256v-299h217v-110h-217v-105q0 -114 33.5 -167.5t118.5 -53.5q51 0 104 29z" glyph-name="tbar" horiz-adv-x="751" unicode="ŧ"/><glyph d="M459 1561v98h495v-98h-495zM334 1376q-6 -94 -6 -336v-512q0 -209 104.5 -319.5t276.5 -110.5q177 0 277.5 113.5t100.5 320.5v508q0 252 -2 336h148q-2 -102 -2 -338v-514q0 -266 -141 -405t-381 -139q-248 0 -386.5 144t-138.5 400v514q0 150 -4 338h154z" glyph-name="Umacron" horiz-adv-x="1413" unicode="Ū"/><glyph d="M264 1171v99h496v-99h-496zM90 850l41 88h180q-6 -45 -6 -213v-328q0 -157 57.5 -229t172.5 -72q77 0 147.5 52.5t110.5 144.5v412q0 157 -2 233h141q-4 -72 -4 -225v-527q0 -120 16 -186h-115l-34 123q-94 -139 -285 -139q-168 0 -254 98.5t-86 308.5v459h-80z" glyph-name="umacron" horiz-adv-x="1155" unicode="ū"/><glyph d="M524 1628q0 74 52.5 121t130.5 47q79 0 131.5 -47.5t52.5 -120.5q0 -70 -52 -119t-132 -49q-77 0 -130 48t-53 120zM602 1632q0 -44 28 -80t77 -36t77.5 31t28.5 81q0 49 -29 81t-77 32q-44 0 -74.5 -30.5t-30.5 -78.5zM334 1376q-6 -94 -6 -336v-512 q0 -209 104.5 -319.5t276.5 -110.5q177 0 277.5 113.5t100.5 320.5v508q0 252 -2 336h148q-2 -102 -2 -338v-514q0 -266 -141 -405t-381 -139q-248 0 -386.5 144t-138.5 400v514q0 150 -4 338h154z" glyph-name="Uring" horiz-adv-x="1413" unicode="Ů"/><glyph d="M330 1239q0 74 52 121t130 47q79 0 131.5 -47.5t52.5 -120.5q0 -70 -52 -119t-132 -49q-77 0 -129.5 48t-52.5 120zM408 1243q0 -45 27.5 -81t76.5 -36t77.5 31.5t28.5 81.5q0 49 -29 81t-77 32q-44 0 -74 -30.5t-30 -78.5zM90 850l41 88h180q-6 -45 -6 -213v-328 q0 -157 57.5 -229t172.5 -72q77 0 147.5 52.5t110.5 144.5v412q0 157 -2 233h141q-4 -72 -4 -225v-527q0 -120 16 -186h-115l-34 123q-94 -139 -285 -139q-168 0 -254 98.5t-86 308.5v459h-80z" glyph-name="uring" horiz-adv-x="1155" unicode="ů"/><glyph d="M733 1765l-190 -278h-109l150 278h149zM1051 1765l-191 -278h-108l149 278h150zM334 1376q-6 -94 -6 -336v-512q0 -209 104.5 -319.5t276.5 -110.5q177 0 277.5 113.5t100.5 320.5v508q0 252 -2 336h148q-2 -102 -2 -338v-514q0 -266 -141 -405t-381 -139 q-248 0 -386.5 144t-138.5 400v514q0 150 -4 338h154z" glyph-name="Uhungarumlaut" horiz-adv-x="1413" unicode="Ű"/><glyph d="M539 1376l-191 -278h-108l149 278h150zM856 1376l-190 -278h-109l150 278h149zM90 850l41 88h180q-6 -45 -6 -213v-328q0 -157 57.5 -229t172.5 -72q77 0 147.5 52.5t110.5 144.5v412q0 157 -2 233h141q-4 -72 -4 -225v-527q0 -120 16 -186h-115l-34 123 q-94 -139 -285 -139q-168 0 -254 98.5t-86 308.5v459h-80z" glyph-name="uhungarumlaut" horiz-adv-x="1155" unicode="ű"/><glyph d="M1085 1376h148q-2 -102 -2 -338v-514q0 -183 -69 -307t-195 -184q-84 -79 -128 -166t-44 -156q0 -54 29.5 -84t82.5 -30q44 0 90 22l11 -84q-65 -29 -138 -29q-84 0 -140 51t-56 134q0 132 135 295q-49 -6 -100 -6q-248 0 -386.5 144t-138.5 400v514q0 150 -4 338h154 q-6 -94 -6 -336v-512q0 -209 104.5 -319.5t276.5 -110.5q177 0 277.5 113.5t100.5 320.5v508q0 252 -2 336z" glyph-name="Uogonek" horiz-adv-x="1413" unicode="Ų"/><glyph d="M844 -403q44 0 90 22l10 -84q-65 -29 -137 -29q-84 0 -140.5 51t-56.5 134q0 80 56.5 164.5t158.5 160.5l-30 107q-94 -139 -285 -139q-168 0 -254 98.5t-86 308.5v459h-80l41 88h180q-6 -45 -6 -213v-328q0 -157 57.5 -229t172.5 -72q77 0 147.5 52.5t110.5 144.5v412 q0 157 -2 233h141q-4 -72 -4 -225v-527q0 -120 16 -186q-103 -69 -158 -144t-55 -145q0 -54 30 -84t83 -30z" glyph-name="uogonek" horiz-adv-x="1155" unicode="ų"/><glyph d="M717 1470l209 279h80l211 -279h-105l-147 201l-148 -201h-100zM49 1376h164l457 -1165l227 580l-248 585h154l182 -413l164 413h145l-241 -581l215 -584l456 1165h156q-28 -66 -57 -132t-62 -142l-467 -1102h-61l-268 645l-269 -645h-61l-465 1090q-23 53 -64.5 152 t-56.5 134z" glyph-name="Wcircumflex" horiz-adv-x="1929" unicode="Ŵ"/><glyph d="M479 1081l209 279h80l211 -279h-105l-147 201l-147 -201h-101zM41 938h152q22 -91 65 -211l184 -526l240 737h90l254 -754l201 627q30 93 37 127h141q-11 -27 -28 -76.5t-29 -79.5l-287 -800h-68l-268 780l-262 -780h-74l-270 745q-12 36 -40.5 109t-37.5 102z" glyph-name="wcircumflex" horiz-adv-x="1445" unicode="ŵ"/><glyph d="M344 1470l209 279h80l211 -279h-105l-147 201l-148 -201h-100zM522 0q6 264 6 328v268l-323 532l-156 248h168q19 -38 105 -188l282 -469l275 463q13 21 53 93.5t57 100.5h162q-12 -22 -67 -107t-83 -132l-329 -543v-268q0 -44 6 -326h-156z" glyph-name="Ycircumflex" horiz-adv-x="1200" unicode="Ŷ"/><glyph d="M236 1081l208 279h80l211 -279h-104l-148 201l-147 -201h-100zM45 938h158q13 -31 36 -93.5t35 -92.5l228 -596l237 585q36 88 68 197h149l-88 -205l-395 -905q-53 -122 -126.5 -173.5t-188.5 -51.5h-58l19 94q73 0 113.5 13.5t69.5 47t63 105.5l75 160l-282 655 q-7 16 -48 111.5t-65 148.5z" glyph-name="ycircumflex" horiz-adv-x="1001" unicode="ŷ"/><glyph d="M324 1645q0 37 26.5 63.5t63.5 26.5t64.5 -26.5t27.5 -63.5q0 -38 -27.5 -64.5t-64.5 -26.5t-63.5 26.5t-26.5 64.5zM686 1645q0 37 26.5 63.5t63.5 26.5t64.5 -26.5t27.5 -63.5q0 -38 -27.5 -64.5t-64.5 -26.5t-63.5 26.5t-26.5 64.5zM522 0q6 264 6 328v268l-323 532 l-156 248h168q19 -38 105 -188l282 -469l275 463q13 21 53 93.5t57 100.5h162q-12 -22 -67 -107t-83 -132l-329 -543v-268q0 -44 6 -326h-156z" glyph-name="Ydieresis" horiz-adv-x="1200" unicode="Ÿ"/><glyph d="M791 1765l-191 -278h-108l149 278h150zM106 0q6 10 66 110.5t92 157.5l565 989h-370q-242 0 -320 -4l-20 125q98 -2 366 -2h574l-733 -1257h452q221 0 297 2v-123q-78 2 -299 2h-670z" glyph-name="Zacute" horiz-adv-x="1165" unicode="Ź"/><glyph d="M602 1376l-190 -278h-109l150 278h149zM86 0l492 827h-293q-76 0 -166 -4l-6 117q51 -2 176 -2h485l-491 -829h309q76 0 186 4v-115q-43 2 -129 2h-563z" glyph-name="zacute" horiz-adv-x="856" unicode="ź"/><glyph d="M510 1645q0 37 26.5 63.5t63.5 26.5t64.5 -26.5t27.5 -63.5q0 -38 -27.5 -64.5t-64.5 -26.5t-63.5 26.5t-26.5 64.5zM106 0q6 10 66 110.5t92 157.5l565 989h-370q-242 0 -320 -4l-20 125q98 -2 366 -2h574l-733 -1257h452q221 0 297 2v-123q-78 2 -299 2h-670z" glyph-name="Zdotaccent" horiz-adv-x="1165" unicode="Ż"/><glyph d="M322 1255q0 37 26.5 64t63.5 27t64.5 -27t27.5 -64q0 -38 -27.5 -64t-64.5 -26t-63.5 26t-26.5 64zM86 0l492 827h-293q-76 0 -166 -4l-6 117q51 -2 176 -2h485l-491 -829h309q76 0 186 4v-115q-43 2 -129 2h-563z" glyph-name="zdotaccent" horiz-adv-x="856" unicode="ż"/><glyph d="M848 1749l-209 -279h-80l-211 279h105l147 -201l148 201h100zM106 0q6 10 66 110.5t92 157.5l565 989h-370q-242 0 -320 -4l-20 125q98 -2 366 -2h574l-733 -1257h452q221 0 297 2v-123q-78 2 -299 2h-670z" glyph-name="Zcaron" horiz-adv-x="1165" unicode="Ž"/><glyph d="M659 1360l-208 -279h-80l-211 279h104l148 -201l147 201h100zM86 0l492 827h-293q-76 0 -166 -4l-6 117q51 -2 176 -2h485l-491 -829h309q76 0 186 4v-115q-43 2 -129 2h-563z" glyph-name="zcaron" horiz-adv-x="856" unicode="ž"/><glyph d="M-168 -369v123q71 -53 174 -53q51 0 93.5 26.5t83.5 89t75 179t59 283.5l60 401h-189v96h201l23 158q34 235 127 350t249 115q94 0 166 -33v-119q-65 43 -151 43q-213 0 -262 -372l-19 -142h250v-96h-264l-62 -406q-57 -356 -159 -520t-281 -164q-107 0 -174 41z" glyph-name="florin" horiz-adv-x="1060" unicode="ƒ"/><glyph d="M131 45l31 150q56 -50 137 -78.5t170 -28.5q124 0 198 64t74 178q0 52 -20.5 98.5t-58 83.5t-74.5 64t-84 53q-41 23 -67 38.5t-64.5 42t-63 48.5t-53 54t-44.5 63.5t-27 72t-11 84.5q0 166 109.5 265.5t287.5 99.5q65 0 147 -15.5t124 -33.5v-144q-93 78 -269 78 q-110 0 -179.5 -59.5t-69.5 -165.5q0 -86 58 -154.5t175 -132.5q134 -78 205 -137.5t104 -126.5t33 -158q0 -165 -119.5 -269t-310.5 -104q-169 0 -338 70zM590 -115q10 -44 10 -116q0 -63 -36.5 -138.5t-106.5 -126.5l-72 35q68 96 68 191q0 66 -9 125z" glyph-name="Scommaaccent" horiz-adv-x="1034" unicode="Ș"/><glyph d="M102 39l23 131q111 -90 244 -90q87 0 142.5 41.5t55.5 114.5q0 26 -12.5 50t-28 40.5t-47 37.5t-50 30.5t-56.5 29.5q-47 24 -82 47t-73.5 57t-59.5 78.5t-21 95.5q0 112 82.5 182t222.5 70q96 0 220 -36v-127q-101 61 -213 61q-84 0 -133.5 -37t-49.5 -102 q0 -25 12.5 -49t27.5 -40t46 -36t49.5 -30t55.5 -28q38 -19 65.5 -35.5t62.5 -44t57.5 -56t38 -68.5t15.5 -84q0 -123 -88 -194t-233 -71q-71 0 -147.5 18t-125.5 44zM498 -115q10 -44 10 -116q0 -63 -36.5 -138.5t-106.5 -126.5l-72 35q67 95 67 191q0 73 -8 125z" glyph-name="scommaaccent" horiz-adv-x="806" unicode="ș"/><glyph d="M520 0q2 92 2 348v649q0 186 -2 260h-155q-211 0 -295 -4v125q51 0 154.5 -1t154.5 -1h452q226 0 306 2l-21 -125q-180 4 -293 4h-155q-2 -76 -2 -260v-649q0 -260 4 -348h-150zM676 -115q10 -44 10 -116q0 -63 -36.5 -138.5t-106.5 -126.5l-72 35q68 96 68 191 q0 66 -9 125z" glyph-name="uni021A" horiz-adv-x="1193" unicode="Ț"/><glyph d="M70 827v111h157v80q0 104 -2 147l140 27q-3 -88 -3 -176v-78h275l-19 -111h-256v-514q0 -114 33.5 -167.5t118.5 -53.5q51 0 104 29l23 -105q-32 -14 -82.5 -24t-85.5 -10q-246 0 -246 297v548h-157zM489 -115q11 -48 11 -116q0 -62 -37 -137.5t-107 -127.5l-71 35 q67 95 67 191q0 73 -8 125z" glyph-name="uni021B" horiz-adv-x="731" unicode="ț"/><glyph d="M-76 -510v107h119q178 0 178 282v856q0 160 -4 203h143q-4 -47 -4 -203v-862q0 -383 -313 -383h-119z" glyph-name="uni0237" horiz-adv-x="571" unicode="ȷ"/><glyph d="M-350 1376h149l150 -278h-109z" glyph-name="gravecomb" unicode="̀"/><glyph d="M-51 1376l-191 -278h-108l149 278h150z" glyph-name="acutecomb" unicode="́"/><glyph d="M-674 1081l209 279h80l211 -279h-105l-147 201l-147 -201h-101z" glyph-name="uni0302" unicode="̂"/><glyph d="M-698 1130q3 70 44 122.5t111 52.5q34 0 69.5 -15.5t60 -34t54.5 -34t54 -15.5q64 0 74 88h81q-3 -71 -41.5 -122.5t-109.5 -51.5q-43 0 -88 23.5t-84.5 47t-69.5 23.5q-59 0 -69 -84h-86z" glyph-name="tildecomb" unicode="̃"/><glyph d="M-672 1171v99h496v-99h-496z" glyph-name="uni0304" unicode="̄"/><glyph d="M-582 1327q7 -64 50.5 -101.5t107.5 -37.5q60 0 104 40t56 99h88q-7 -100 -75.5 -160.5t-172.5 -60.5q-98 0 -166 63t-82 158h90z" glyph-name="uni0306" unicode="̆"/><glyph d="M-340 1255q0 37 26.5 64t63.5 27t64.5 -27t27.5 -64q0 -38 -27.5 -64t-64.5 -26t-63.5 26t-26.5 64z" glyph-name="uni0307" unicode="̇"/><glyph d="M-696 1255q0 37 26.5 64t63.5 27t64.5 -27t27.5 -64q0 -38 -27.5 -64t-64.5 -26t-63.5 26t-26.5 64zM-334 1255q0 37 26.5 64t63.5 27t64.5 -27t27.5 -64q0 -38 -27.5 -64t-64.5 -26t-63.5 26t-26.5 64z" glyph-name="uni0308" unicode="̈"/><glyph d="M-608 1239q0 74 52 121t130 47q79 0 131.5 -47.5t52.5 -120.5q0 -70 -52 -119t-132 -49q-77 0 -129.5 48t-52.5 120zM-530 1243q0 -45 27.5 -81t76.5 -36t78 31.5t29 81.5q0 48 -29.5 80.5t-77.5 32.5q-44 0 -74 -30.5t-30 -78.5z" glyph-name="uni030A" unicode="̊"/><glyph d="M-369 1376l-190 -278h-109l150 278h149zM-51 1376l-191 -278h-108l149 278h150z" glyph-name="uni030B" unicode="̋"/><glyph d="M-174 1360l-209 -279h-80l-211 279h105l147 -201l148 201h100z" glyph-name="uni030C" unicode="̌"/><glyph d="M-369 1047q-10 44 -10 116q0 63 36.5 137.5t106.5 126.5l72 -34q-67 -95 -67 -191q0 -73 8 -125z" glyph-name="uni0312" unicode="̒"/><glyph d="M-174 -115q10 -44 10 -116q0 -63 -36.5 -138.5t-106.5 -126.5l-72 35q68 96 68 191q0 73 -8 125z" glyph-name="uni0326" unicode="̦"/><glyph d="M-344 41h82l-66 -129q75 -12 116.5 -54.5t41.5 -105.5q0 -75 -55 -122.5t-150 -47.5q-67 0 -119 21l13 73q55 -18 96 -18q52 0 83.5 25.5t31.5 68.5q0 96 -146 96h-20z" glyph-name="uni0327" unicode="̧"/><glyph d="M-152 51l70 -51q-103 -69 -158 -144t-55 -145q0 -54 30 -84t83 -30q44 0 90 22l10 -84q-65 -29 -137 -29q-84 0 -140.5 51t-56.5 134q0 90 70.5 184.5t193.5 175.5z" glyph-name="uni0328" unicode="̨"/><glyph d="M350 1376l-190 -278h-109l150 278h149z" glyph-name="tonos" horiz-adv-x="401" unicode="΄"/><glyph d="M616 1376l-190 -278h-109l150 278h149zM147 1221q0 28 21 49.5t51 21.5q29 0 52.5 -21.5t23.5 -49.5q0 -29 -22.5 -51.5t-53.5 -22.5q-29 0 -50.5 20.5t-21.5 53.5zM618 1221q0 29 21 50t53 21q28 0 51 -22t23 -49q0 -29 -22.5 -51.5t-51.5 -22.5q-30 0 -52 20.5 t-22 53.5z" glyph-name="dieresistonos" horiz-adv-x="892" unicode="΅"/><glyph d="M49 0q30 66 135 324l434 1067h68l465 -1129q28 -68 123 -262h-172l-170 424h-565l-164 -424h-154zM403 1376l-190 -278h-109l150 278h149zM408 537h481l-240 626z" glyph-name="Alphatonos" horiz-adv-x="1323" unicode="Ά"/><glyph d="M225 887q40 0 69.5 -28.5t29.5 -67.5q0 -41 -29.5 -70t-69.5 -29t-69 29t-29 70q0 40 29 68t69 28z" glyph-name="anoteleia" horiz-adv-x="450" unicode="·"/><glyph d="M455 0q0 96 2 201t2 127v716q0 140 -4 332h305q248 0 352 4l-20 -127q-104 4 -349 4h-141v-481h156q227 0 315 2v-125q-180 4 -315 4h-156v-538h211q235 0 315 2v-123q-80 2 -309 2h-364zM340 1376l-190 -278h-109l149 278h150z" glyph-name="Epsilontonos" horiz-adv-x="1267" unicode="Έ"/><glyph d="M340 1376l-190 -278h-109l149 278h150zM492 0q4 172 4 307v723q0 170 -4 346h151q-4 -139 -4 -471v-127h791v275q0 118 -5 323h152q-4 -121 -4 -346v-780q0 -98 4 -250h-152q5 205 5 291v371h-791v-371q0 -203 4 -291h-151z" glyph-name="Etatonos" horiz-adv-x="1781" unicode="Ή"/><glyph d="M340 1376l-190 -278h-109l149 278h150zM453 0q6 282 6 324v688q0 46 -6 364h153q-4 -114 -4 -364v-690q0 -222 4 -322h-153z" glyph-name="Iotatonos" horiz-adv-x="811" unicode="Ί"/><glyph d="M324 686q0 198 91 360.5t250 255.5t353 93q193 0 352.5 -94t250.5 -256.5t91 -358.5q0 -198 -91.5 -361t-250.5 -255.5t-352 -92.5q-146 0 -274.5 54t-221 147.5t-145.5 225t-53 282.5zM340 1376l-190 -278h-109l149 278h150zM475 686q0 -257 153.5 -423.5t389.5 -166.5 q234 0 387.5 168t153.5 422q0 250 -154 419t-387 169q-151 0 -275 -75t-196 -210t-72 -303z" glyph-name="Omicrontonos" horiz-adv-x="1835" unicode="Ό"/><glyph d="M340 1376l-190 -278h-109l149 278h150zM922 0q6 264 6 328v268l-324 532l-155 248h167q19 -38 105 -188l283 -469l274 463q12 21 53 93.5t58 100.5h161q-12 -22 -66.5 -107.5t-82.5 -131.5l-330 -543v-268q0 -44 6 -326h-155z" glyph-name="Upsilontonos" horiz-adv-x="1599" unicode="Ύ"/><glyph d="M150 -4v115q96 -7 266 -7h155q-162 107 -260 267.5t-98 345.5q0 150 56.5 278t152 213.5t221.5 134t264 48.5q151 0 282 -53.5t222 -144.5t143 -214.5t52 -261.5q0 -185 -98.5 -345.5t-262.5 -267.5h135q194 0 287 7v-115q-63 4 -324 4h-245v125q168 84 267 243t99 343 q0 159 -73 289.5t-201 204t-283 73.5q-247 0 -400 -160.5t-153 -406.5q0 -183 99 -342t266 -244v-125h-264q-242 0 -305 -4zM340 1376l-190 -278h-109l149 278h150z" glyph-name="Omegatonos" horiz-adv-x="1744" unicode="Ώ"/><glyph d="M412 1376l-191 -278h-108l149 278h150zM-57 1221q0 28 20.5 49.5t50.5 21.5q29 0 52.5 -21.5t23.5 -49.5q0 -29 -22.5 -51.5t-53.5 -22.5q-29 0 -50 20.5t-21 53.5zM414 1221q0 29 21 50t52 21q28 0 51 -22t23 -49q0 -29 -22.5 -51.5t-51.5 -22.5q-30 0 -51.5 20.5 t-21.5 53.5zM213 0q6 45 6 201v534q0 160 -6 203h147q-6 -47 -6 -203v-534q0 -160 6 -201h-147z" glyph-name="iotadieresistonos" horiz-adv-x="571" unicode="ΐ"/><glyph d="M49 0q30 66 135 324l434 1067h68l465 -1129q28 -68 123 -262h-172l-170 424h-565l-164 -424h-154zM408 537h481l-240 626z" glyph-name="Alpha" horiz-adv-x="1323" unicode="Α"/><glyph d="M205 0q6 147 6 360v641q0 187 -4 375h313q186 0 292 -93.5t106 -238.5q0 -94 -58 -172t-155 -120q142 -37 227.5 -134t85.5 -223q0 -185 -129.5 -290t-335.5 -105h-348zM774 1024q0 109 -72 172.5t-198 63.5h-150v-474h170q114 0 182 65t68 173zM870 395 q0 126 -84.5 200.5t-222.5 74.5h-209v-553h189q153 0 240 73.5t87 204.5z" glyph-name="Beta" horiz-adv-x="1124" unicode="Β"/><glyph d="M205 0q4 208 4 354v664q0 150 -4 358h336q227 0 323 4l-20 -127q-74 4 -293 4h-199v-911q0 -225 2 -346h-149z" glyph-name="Gamma" horiz-adv-x="927" unicode="Γ"/><glyph d="M49 0q57 123 131 307l438 1090h70l459 -1131q89 -210 117 -266h-1215zM649 1184l-403 -1065h809z" glyph-name="uni0394" horiz-adv-x="1312" unicode="Δ"/><glyph d="M205 0q0 96 2 201t2 127v716q0 140 -4 332h305q248 0 352 4l-20 -127q-104 4 -348 4h-142v-481h156q227 0 315 2v-125q-180 4 -315 4h-156v-538h211q236 0 316 2v-123q-80 2 -310 2h-364z" glyph-name="Epsilon" horiz-adv-x="1017" unicode="Ε"/><glyph d="M106 0q6 10 66 110.5t92 157.5l565 989h-370q-242 0 -320 -4l-20 125q98 -2 366 -2h574l-733 -1257h452q221 0 297 2v-123q-78 2 -299 2h-670z" glyph-name="Zeta" horiz-adv-x="1165" unicode="Ζ"/><glyph d="M205 0q4 172 4 307v723q0 170 -4 346h151q-4 -139 -4 -471v-127h791v275q0 159 -4 323h151q-4 -121 -4 -346v-780q0 -98 4 -250h-151q4 164 4 291v371h-791v-371q0 -203 4 -291h-151z" glyph-name="Eta" horiz-adv-x="1495" unicode="Η"/><glyph d="M123 686q0 198 91 360.5t250 255.5t353 93q193 0 352.5 -94t250.5 -256.5t91 -358.5q0 -198 -91.5 -361t-250.5 -255.5t-352 -92.5q-146 0 -274.5 54t-221 147.5t-145.5 225t-53 282.5zM274 686q0 -257 153.5 -423.5t389.5 -166.5q234 0 387.5 168t153.5 422 q0 250 -154 419t-387 169q-151 0 -275 -75t-196 -210t-72 -303zM942 750q148 0 176 2v-119q-106 4 -180 4h-293q-76 0 -178 -4v121q114 -4 176 -4h299z" glyph-name="Theta" horiz-adv-x="1634" unicode="Θ"/><glyph d="M205 0q6 282 6 324v688q0 46 -6 364h153q-4 -114 -4 -364v-690q0 -222 4 -322h-153z" glyph-name="Iota" horiz-adv-x="563" unicode="Ι"/><glyph d="M205 0q4 192 4 328v719q0 59 -2 162.5t-2 166.5h151q-2 -117 -2 -327v-353l383 455q121 140 185 225h161q-28 -35 -84 -100l-487 -569l489 -545q14 -15 44.5 -49t55.5 -61t50 -52h-195q-46 59 -133 158l-469 530v-358q0 -201 2 -330h-151z" glyph-name="Kappa" horiz-adv-x="1198" unicode="Κ"/><glyph d="M1282 0h-164l-456 1165l-457 -1165h-156q9 21 57.5 128t47.5 103l481 1170h61l469 -1141q70 -171 117 -260z" glyph-name="Lambda" horiz-adv-x="1331" unicode="Λ"/><glyph d="M143 0q1 13 14 160.5t15 183.5l76 1045h84l530 -992l522 992h86l62 -1067q10 -211 22 -322h-157q0 144 -8 295l-37 805l-469 -910h-49l-474 910l-51 -795q-10 -155 -14 -305h-152z" glyph-name="Mu" horiz-adv-x="1697" unicode="Μ"/><glyph d="M205 0q4 180 4 289v760q0 104 -4 342h86l903 -1106v751q0 239 -6 340h151q-8 -98 -8 -327v-773q0 -190 2 -276h-92l-895 1110v-831q0 -153 6 -279h-147z" glyph-name="Nu" horiz-adv-x="1544" unicode="Ν"/><glyph d="M100 1380q72 -4 209 -4h465q25 0 95.5 2t117.5 2v-131q-80 4 -213 4h-465q-83 0 -209 -4v131zM193 782q72 -4 206 -4h277q135 0 211 4v-127q-80 4 -211 4h-277q-80 0 -206 -4v127zM96 127q82 -4 279 -4h323q195 0 289 4v-131q-96 4 -289 4h-325q-189 0 -277 -4v131z" glyph-name="Xi" horiz-adv-x="1087" unicode="Ξ"/><glyph d="M123 686q0 198 91 360.5t250 255.5t353 93q193 0 352.5 -94t250.5 -256.5t91 -358.5q0 -198 -91.5 -361t-250.5 -255.5t-352 -92.5q-146 0 -274.5 54t-221 147.5t-145.5 225t-53 282.5zM274 686q0 -257 153.5 -423.5t389.5 -166.5q234 0 387.5 168t153.5 422 q0 250 -154 419t-387 169q-151 0 -275 -75t-196 -210t-72 -303z" glyph-name="Omicron" horiz-adv-x="1634" unicode="Ο"/><glyph d="M205 0q0 5 2 66.5t4 138.5t2 119v1052h1008l-2 -1054q0 -222 4 -322h-154q0 5 2 66.5t4 138.5t2 119v927h-725v-929q0 -222 6 -322h-153z" glyph-name="Pi" horiz-adv-x="1427" unicode="Π"/><glyph d="M967 950q0 -187 -129 -308.5t-359 -121.5h-127v-184q0 -240 4 -336h-151q4 188 4 354v733q0 129 -4 289h284q228 0 353 -116.5t125 -309.5zM815 952q0 141 -90 223t-246 82h-127v-618h127q151 0 243.5 83t92.5 230z" glyph-name="Rho" horiz-adv-x="1062" unicode="Ρ"/><glyph d="M49 0l506 713l-487 663h706q164 0 227 2l-22 -125q-78 4 -234 4h-434l398 -540l-424 -598h489q172 0 244 2v-123q-33 2 -115 2h-854z" glyph-name="Sigma" horiz-adv-x="1157" unicode="Σ"/><glyph d="M520 0q2 92 2 348v649q0 186 -2 260h-155q-211 0 -295 -4v125q51 0 154.5 -1t154.5 -1h452q226 0 306 2l-21 -125q-180 4 -293 4h-155q-2 -76 -2 -260v-649q0 -260 4 -348h-150z" glyph-name="Tau" horiz-adv-x="1193" unicode="Τ"/><glyph d="M522 0q6 264 6 328v268l-323 532l-156 248h168q19 -38 105 -188l282 -469l275 463q13 21 53 93.5t57 100.5h162q-12 -22 -67 -107t-83 -132l-329 -543v-268q0 -44 6 -326h-156z" glyph-name="Upsilon" horiz-adv-x="1200" unicode="Υ"/><glyph d="M123 686q0 253 167.5 417.5t438.5 186.5q0 78 -6 133h141q-2 -19 -2 -133q272 -22 440 -187t168 -417q0 -251 -166.5 -413.5t-441.5 -184.5q0 -49 4 -135h-143q6 61 6 135q-275 22 -440.5 185t-165.5 413zM268 686q0 -199 123.5 -328.5t337.5 -152.5v971 q-209 -22 -335 -153.5t-126 -336.5zM1323 686q0 204 -126 336t-335 154v-971q212 20 336.5 151.5t124.5 329.5z" glyph-name="Phi" horiz-adv-x="1593" unicode="Φ"/><glyph d="M53 0q111 152 193 279l266 411l-254 404q-20 32 -186 282h176q50 -90 121 -207l229 -368l244 387q59 101 116 188h164q-78 -103 -192 -278l-256 -398l256 -411q42 -69 196 -289h-174q-99 169 -116 195l-248 391l-269 -426q-97 -156 -100 -160h-166z" glyph-name="Chi" horiz-adv-x="1179" unicode="Χ"/><glyph d="M268 1376q0 -8 2 -81.5t2 -108.5q0 -309 85.5 -441.5t297.5 -154.5v465q0 237 -4 321h152q-4 -176 -4 -321v-465q212 22 297.5 154.5t85.5 441.5q0 20 2 95t2 95h149q-10 -127 -10 -190q0 -241 -56.5 -392t-170 -228t-299.5 -99v-135q0 -156 4 -332h-152q4 98 4 332v133 q-186 23 -299.5 100.5t-170 228.5t-56.5 392q0 15 -10 190h149z" glyph-name="Psi" horiz-adv-x="1454" unicode="Ψ"/><glyph d="M78 -4v115q96 -7 266 -7h156q-162 107 -260.5 267.5t-98.5 345.5q0 120 36.5 227t102 187.5t152.5 139.5t190.5 89.5t213.5 30.5q151 0 281.5 -53.5t221.5 -144.5t143 -214.5t52 -261.5q0 -185 -98.5 -345.5t-261.5 -267.5h135q193 0 286 7v-115q-63 4 -323 4h-246v125 q168 85 267.5 244t99.5 342q0 159 -73 289.5t-201 204t-283 73.5q-247 0 -400 -160.5t-153 -406.5q0 -183 98.5 -342t265.5 -244v-125h-264q-242 0 -305 -4z" glyph-name="uni03A9" horiz-adv-x="1673" unicode="Ω"/><glyph d="M-20 1645q0 37 26.5 63.5t63.5 26.5t64.5 -26.5t27.5 -63.5q0 -38 -27.5 -64.5t-64.5 -26.5t-63.5 26.5t-26.5 64.5zM342 1645q0 37 26.5 63.5t63.5 26.5t64.5 -26.5t27.5 -63.5q0 -38 -27.5 -64.5t-64.5 -26.5t-63.5 26.5t-26.5 64.5zM205 0q6 282 6 324v688 q0 46 -6 364h153q-4 -114 -4 -364v-690q0 -222 4 -322h-153z" glyph-name="Iotadieresis" horiz-adv-x="563" unicode="Ϊ"/><glyph d="M334 1645q0 37 26.5 63.5t63.5 26.5t64.5 -26.5t27.5 -63.5q0 -38 -27.5 -64.5t-64.5 -26.5t-63.5 26.5t-26.5 64.5zM696 1645q0 37 26.5 63.5t63.5 26.5t65 -27t28 -63q0 -38 -28 -64.5t-65 -26.5t-63.5 26.5t-26.5 64.5zM522 0q6 264 6 328v268l-323 532l-156 248h168 q19 -38 105 -188l282 -469l275 463q13 21 53 93.5t57 100.5h162q-12 -22 -67 -107t-83 -132l-329 -543v-268q0 -44 6 -326h-156z" glyph-name="Upsilondieresis" horiz-adv-x="1200" unicode="Ϋ"/><glyph d="M768 1376l-190 -278h-109l149 278h150zM111 465q0 209 108 348t277 139q109 0 198 -70t135 -200q17 101 62 258l123 -29q-70 -214 -99 -399q50 -414 152 -414q23 0 35 4l16 -100q-52 -18 -92 -18q-82 0 -122 66t-77 241q-52 -165 -137 -238t-205 -73q-162 0 -268 140 t-106 345zM254 465q0 -158 73 -266.5t185 -108.5q95 0 155.5 90t129.5 291q-81 369 -277 369q-114 0 -190 -106.5t-76 -268.5z" glyph-name="alphatonos" horiz-adv-x="1165" unicode="ά"/><glyph d="M645 1376l-190 -278h-109l150 278h149zM733 37q-117 -57 -266 -57q-174 0 -273.5 81t-99.5 201q0 172 215 230q-92 29 -143 86t-51 131q0 114 99 184t241 70q152 0 280 -64l-41 -115q-110 58 -225 58q-91 0 -144 -40t-53 -110q0 -149 234 -155q82 0 98 2v-113 q-20 2 -84 2q-268 0 -268 -160q0 -168 225 -168q127 0 256 60v-123z" glyph-name="epsilontonos" horiz-adv-x="847" unicode="έ"/><glyph d="M764 1376l-191 -278h-108l149 278h150zM90 848l37 90h164l12 -147q51 72 138.5 117.5t209.5 45.5q162 0 261.5 -100.5t99.5 -292.5v-866q0 -154 4 -217h-142q3 132 3 227v870q0 134 -73.5 198.5t-193.5 64.5q-96 0 -177.5 -53t-129.5 -142v-416q0 -153 2 -227h-141 q4 152 4 227v621h-78z" glyph-name="etatonos" horiz-adv-x="1167" unicode="ή"/><glyph d="M420 1376l-191 -278h-108l149 278h150zM213 0q6 45 6 201v534q0 160 -6 203h147q-6 -47 -6 -203v-534q0 -160 6 -201h-147z" glyph-name="iotatonos" horiz-adv-x="571" unicode="ί"/><glyph d="M684 1376l-190 -278h-109l150 278h149zM215 1221q0 28 21 49.5t51 21.5q29 0 52 -21.5t23 -49.5q0 -29 -22 -51.5t-53 -22.5q-29 0 -50.5 20.5t-21.5 53.5zM686 1221q0 29 21 50t53 21q28 0 51 -22t23 -49q0 -29 -22.5 -51.5t-51.5 -22.5q-30 0 -52 20.5t-22 53.5z M160 399q0 35 9 150.5t9 142.5q0 74 -22 104.5t-68 30.5q-31 0 -37 -2l-31 109q56 22 119 22q193 0 193 -237q0 -26 -9.5 -146.5t-9.5 -144.5q0 -165 63 -249.5t185 -84.5q139 0 212 110.5t73 309.5q0 99 -30 216.5t-81 205.5h156q113 -191 113 -428q0 -243 -116 -385.5 t-327 -142.5q-194 0 -297.5 108.5t-103.5 310.5z" glyph-name="upsilondieresistonos" horiz-adv-x="1114" unicode="ΰ"/><glyph d="M111 465q0 209 108 348t277 139q109 0 198 -70t135 -200q17 101 62 258l123 -29q-70 -214 -99 -399q50 -414 152 -414q23 0 35 4l16 -100q-52 -18 -92 -18q-82 0 -122 66t-77 241q-52 -165 -137 -238t-205 -73q-162 0 -268 140t-106 345zM254 465q0 -158 73 -266.5 t185 -108.5q95 0 155.5 90t129.5 291q-81 369 -277 369q-114 0 -190 -106.5t-76 -268.5z" glyph-name="alpha" horiz-adv-x="1165" unicode="α"/><glyph d="M1073 401q0 -184 -124 -302.5t-318 -118.5q-149 0 -279 81v-292q0 -199 4 -289h-143q0 48 2 145.5t2 145.5v1280q0 204 107.5 315t281.5 111q166 0 267.5 -101.5t101.5 -245.5q0 -112 -73 -219t-177 -139q159 -19 253.5 -119t94.5 -252zM928 401q0 139 -96 221.5 t-261 82.5h-69v110q9 0 26 -1t25 -1q119 0 202 91t83 212q0 109 -65.5 179.5t-168.5 70.5q-113 0 -182.5 -83.5t-69.5 -233.5v-865q118 -92 269 -92q137 0 222 84.5t85 224.5z" glyph-name="beta" horiz-adv-x="1183" unicode="β"/><glyph d="M422 -522l20 512q-3 26 -9 88.5t-11.5 110t-15 118t-21 125t-27 117t-36.5 107.5t-46.5 84t-59.5 59t-73 20q-43 0 -75 -12l-31 106q55 19 106 19q74 0 136 -38t101 -98.5t68.5 -133.5t44.5 -146t24 -133.5t11 -98.5l2 -38q19 111 51.5 207t80.5 183.5t95 156t117 157.5 l91 -67q-156 -211 -240 -396q-109 -242 -158 -503l-22 -506h-123z" glyph-name="gamma" horiz-adv-x="1073" unicode="γ"/><glyph d="M111 399q0 169 115 292.5t302 172.5q-156 105 -233.5 205.5t-77.5 183.5q0 75 52 127.5t134 76.5t187 24q187 0 385 -95l-23 -124q-197 114 -387 114q-95 0 -149 -34t-54 -99q0 -56 68.5 -133.5t183.5 -159.5q58 -41 93 -67t81 -64t73 -66.5t56.5 -67.5t45 -76t26 -83 t10.5 -96q0 -188 -125.5 -317t-316.5 -129q-194 0 -320 115.5t-126 299.5zM256 389q5 -126 87 -209.5t214 -83.5q130 0 213.5 93.5t83.5 238.5q0 116 -62.5 200.5t-181.5 162.5q-63 -17 -121.5 -47.5t-114.5 -78t-88.5 -119.5t-29.5 -157z" glyph-name="delta" horiz-adv-x="1089" unicode="δ"/><glyph d="M733 37q-117 -57 -266 -57q-174 0 -273.5 81t-99.5 201q0 172 215 230q-92 29 -143 86t-51 131q0 114 99 184t241 70q152 0 280 -64l-41 -115q-110 58 -225 58q-91 0 -144 -40t-53 -110q0 -149 234 -155q82 0 98 2v-113q-20 2 -84 2q-268 0 -268 -160q0 -168 225 -168 q127 0 256 60v-123z" glyph-name="epsilon" horiz-adv-x="847" unicode="ε"/><glyph d="M100 463q0 223 148.5 452t386.5 426q-263 -24 -455 -24l-14 110q59 -6 194 -6q265 0 439 45l4 -94q-273 -221 -417 -447.5t-144 -445.5q0 -140 61 -215.5t199 -122.5q180 -63 252.5 -126.5t72.5 -149.5q0 -129 -116 -268l-107 26q13 28 33.5 68t27.5 55t13 39t6 51 q0 55 -54 96t-165 78q-174 58 -269.5 166t-95.5 287z" glyph-name="zeta" horiz-adv-x="856" unicode="ζ"/><glyph d="M90 848l37 90h164l12 -147q51 72 138.5 117.5t209.5 45.5q162 0 261.5 -100.5t99.5 -292.5v-866q0 -154 4 -217h-142q3 132 3 227v870q0 134 -73.5 198.5t-193.5 64.5q-96 0 -177.5 -53t-129.5 -142v-416q0 -153 2 -227h-141q4 152 4 227v621h-78z" glyph-name="eta" horiz-adv-x="1167" unicode="η"/><glyph d="M111 723q0 344 115.5 543.5t318.5 199.5q204 0 319 -199t115 -544q0 -342 -114.5 -540.5t-319.5 -198.5q-203 0 -318.5 197.5t-115.5 541.5zM252 782h584q-3 269 -79 419.5t-212 150.5q-135 0 -209.5 -149t-83.5 -421zM252 678q9 -279 82.5 -430.5t210.5 -151.5 q138 0 211.5 150t81.5 432h-586z" glyph-name="theta" horiz-adv-x="1089" unicode="θ"/><glyph d="M213 0q6 45 6 201v534q0 160 -6 203h147q-6 -47 -6 -203v-534q0 -160 6 -201h-147z" glyph-name="iota" horiz-adv-x="571" unicode="ι"/><glyph d="M213 0q0 26 2 81t2 81v571q0 34 -2 102.5t-2 102.5h143q0 -33 -2 -99.5t-2 -99.5v-278q266 323 662 510l51 -125q-225 -97 -455 -297l279 -344q96 -118 176 -205h-191q-73 104 -118 160l-246 309q-109 -109 -158 -176v-293h-139z" glyph-name="kappa" horiz-adv-x="1130" unicode="κ"/><glyph d="M45 0q24 53 65 148.5t48 111.5l282 655l-90 242q-39 104 -87.5 135t-158.5 31l-18 94h57q115 0 190 -51.5t126 -173.5l409 -987l88 -205h-149q-32 109 -68 197l-235 583l-230 -594q-12 -30 -35 -92.5t-36 -93.5h-158z" glyph-name="lambda" horiz-adv-x="1001" unicode="λ"/><glyph d="M90 848l39 88h178q0 -34 -2 -100.5t-2 -100.5v-194q0 -445 293 -445q96 0 181 63.5t102 153.5v392q0 155 -2 231h141q-4 -72 -4 -223v-527q0 -101 10 -186h-106l-37 139q-61 -83 -133.5 -119t-165.5 -36q-114 0 -182.5 40t-131.5 144q15 -138 15 -244v-258q0 -68 6 -188 h-125q4 47 4 200v1170h-78z" glyph-name="uni03BC" horiz-adv-x="1234" unicode="μ"/><glyph d="M209 938q11 -30 32 -93t33 -93l209 -588q244 296 244 559q0 107 -33 215h148q24 -108 24 -209q0 -313 -387 -745h-59l-264 682q-99 246 -111 272h164z" glyph-name="nu" horiz-adv-x="960" unicode="ν"/><glyph d="M98 395q0 115 86.5 194t231.5 111q-232 72 -232 234q0 97 92 198.5t263 196.5q-247 -38 -379 -43l-33 119q100 0 149 2q312 6 553 41l13 -80q-252 -93 -377 -193.5t-125 -213.5q0 -199 305 -199q64 0 84 2v-109q-25 2 -84 2q-102 0 -192.5 -29.5t-149.5 -88t-59 -133.5 q0 -86 56 -137.5t194 -98.5q79 -27 127 -45.5t97.5 -45t75 -53.5t42 -65t16.5 -86q0 -55 -28.5 -114t-94.5 -144l-117 68q80 109 80 180q0 61 -60 101.5t-163 70.5q-371 109 -371 358z" glyph-name="xi" horiz-adv-x="880" unicode="ξ"/><glyph d="M111 465q0 204 133.5 346.5t326.5 142.5q195 0 328 -142.5t133 -346.5q0 -202 -132 -341.5t-329 -139.5t-328.5 139.5t-131.5 341.5zM252 465q0 -156 90 -262.5t229 -106.5q144 0 232 105.5t88 263.5q0 162 -91 267.5t-229 105.5q-72 0 -134 -34.5t-101.5 -89t-61.5 -120 t-22 -129.5z" glyph-name="omicron" horiz-adv-x="1142" unicode="ο"/><glyph d="M90 823v115h895q133 0 172 4v-123q-23 0 -68 2t-67 2h-84v-528q0 -155 31 -295h-146q-20 128 -20 295v528h-322v-823h-135v823h-256z" glyph-name="pi" horiz-adv-x="1224" unicode="π"/><glyph d="M213 506q0 232 99.5 354.5t291.5 122.5q205 0 324 -133t119 -365q0 -223 -121 -364t-326 -141q-128 0 -252 83v-585h-135v1028zM889 489q0 175 -78.5 275t-202.5 100q-130 0 -195 -96t-65 -264v-314q117 -88 238 -88q147 0 225 105t78 282z" glyph-name="rho" horiz-adv-x="1157" unicode="ρ"/><glyph d="M111 465q0 143 63 256t171.5 174t240.5 61q97 0 202 -24v-129q-84 35 -202 35q-146 0 -241 -104t-95 -271q0 -135 66.5 -213t224.5 -125q149 -44 205.5 -100.5t56.5 -159.5q0 -55 -21.5 -112t-70.5 -144h-136q51 89 75 142.5t24 92.5q0 61 -39.5 100t-136.5 64 q-184 47 -285.5 161.5t-101.5 295.5z" glyph-name="uni03C2" horiz-adv-x="831" unicode="ς"/><glyph d="M111 453q0 228 141.5 356.5t390.5 128.5h531l-44 -123h-309q75 -90 111.5 -179t36.5 -192q0 -91 -29.5 -174.5t-83.5 -148t-136.5 -103t-180.5 -38.5q-200 0 -314 132t-114 341zM815 457q0 106 -35 190.5t-108 169.5h-39q-182 0 -275.5 -93.5t-93.5 -272.5 q0 -162 72.5 -257.5t202.5 -95.5q126 0 201 99.5t75 259.5z" glyph-name="sigma" horiz-adv-x="1185" unicode="σ"/><glyph d="M885 938l-21 -115q-29 0 -74.5 2t-54.5 2h-219l-8 -600q0 -145 108 -145q38 0 84 16l21 -84q-61 -34 -146 -34q-205 0 -202 251l8 596h-82q-147 0 -229 -6v105q66 12 229 12h586z" glyph-name="tau" horiz-adv-x="974" unicode="τ"/><glyph d="M160 399q0 35 9 150.5t9 142.5q0 74 -22 104.5t-68 30.5q-31 0 -37 -2l-31 109q56 22 119 22q193 0 193 -237q0 -26 -9.5 -146.5t-9.5 -144.5q0 -165 63 -249.5t185 -84.5q139 0 212 110.5t73 309.5q0 99 -30 216.5t-81 205.5h156q113 -191 113 -428q0 -243 -116 -385.5 t-327 -142.5q-194 0 -297.5 108.5t-103.5 310.5z" glyph-name="upsilon" horiz-adv-x="1114" unicode="υ"/><glyph d="M111 469q0 200 140.5 335t358.5 152v213q0 47 -3.5 134t-4.5 114h150q0 -9 -3.5 -106t-3.5 -142v-213q240 -20 369 -150.5t129 -334.5q0 -205 -129.5 -337t-368.5 -152v-213q0 -45 3.5 -142t3.5 -106h-150q1 27 4.5 114t3.5 134v213q-218 17 -358.5 152t-140.5 335z M242 469q0 -159 99 -257t269 -110v734q-170 -12 -269 -110t-99 -257zM1114 469q0 159 -99.5 257t-269.5 110v-734q170 12 269.5 110t99.5 257z" glyph-name="phi" horiz-adv-x="1353" unicode="φ"/><glyph d="M166 -494h-158l404 758l-148 416q-29 84 -66 117.5t-87 33.5q-17 0 -41 -4l-31 115q43 14 100 14q68 0 133.5 -51.5t104.5 -163.5l125 -350l286 545h156l-373 -700l160 -482q26 -77 63.5 -105t88.5 -28q15 0 43 4l28 -112q-56 -17 -94 -17q-68 0 -129.5 44.5t-95.5 137.5 l-156 426z" glyph-name="chi" horiz-adv-x="958" unicode="χ"/><glyph d="M602 -522q0 39 2 116.5t2 116.5v262q-238 12 -366.5 135t-128.5 336q0 54 14 136t14 131q0 103 -47 225h141q46 -107 46 -225q0 -46 -14.5 -136.5t-14.5 -123.5q0 -165 92.5 -258t263.5 -107v1022q0 43 -2 154.5t-2 154.5h143q0 -45 -2 -154.5t-2 -154.5v-1020 q186 14 296 128.5t110 305.5q0 240 -119 414h146q112 -179 112 -420q0 -240 -144 -385t-401 -158v-266q0 -38 2 -114.5t2 -114.5h-143z" glyph-name="psi" horiz-adv-x="1396" unicode="ψ"/><glyph d="M111 422q0 268 198 518l144 -14q-201 -236 -201 -494q0 -151 63 -243.5t168 -92.5q78 0 129 52.5t72 135t21 193.5q0 147 -5 211h142q-8 -65 -8 -170q0 -98 11 -172.5t36 -132t68.5 -87.5t105.5 -30q110 0 170.5 95.5t60.5 240.5q0 262 -201 494l148 14 q194 -253 194 -516q0 -186 -95 -313t-255 -127q-109 0 -193.5 66.5t-115.5 176.5q-29 -114 -110 -179.5t-193 -65.5q-161 0 -257.5 123t-96.5 317z" glyph-name="omega" horiz-adv-x="1538" unicode="ω"/><glyph d="M-43 1255q0 37 26.5 64t63.5 27t64.5 -27t27.5 -64q0 -38 -27.5 -64t-64.5 -26t-63.5 26t-26.5 64zM319 1255q0 37 27 64t64 27t64.5 -27t27.5 -64q0 -38 -27.5 -64t-64.5 -26t-64 26t-27 64zM213 0q6 45 6 201v534q0 160 -6 203h147q-6 -47 -6 -203v-534q0 -160 6 -201 h-147z" glyph-name="iotadieresis" horiz-adv-x="571" unicode="ϊ"/><glyph d="M229 1255q0 37 26.5 64t63.5 27t65 -27t28 -64q0 -38 -28 -64t-65 -26t-63.5 26t-26.5 64zM592 1255q0 37 26.5 64t63.5 27t64.5 -27t27.5 -64q0 -38 -27.5 -64t-64.5 -26t-63.5 26t-26.5 64zM160 399q0 35 9 150.5t9 142.5q0 74 -22 104.5t-68 30.5q-31 0 -37 -2 l-31 109q56 22 119 22q193 0 193 -237q0 -26 -9.5 -146.5t-9.5 -144.5q0 -165 63 -249.5t185 -84.5q139 0 212 110.5t73 309.5q0 99 -30 216.5t-81 205.5h156q113 -191 113 -428q0 -243 -116 -385.5t-327 -142.5q-194 0 -297.5 108.5t-103.5 310.5z" glyph-name="upsilondieresis" horiz-adv-x="1114" unicode="ϋ"/><glyph d="M756 1376l-191 -278h-108l149 278h150zM111 465q0 204 133.5 346.5t326.5 142.5q195 0 328 -142.5t133 -346.5q0 -202 -132 -341.5t-329 -139.5t-328.5 139.5t-131.5 341.5zM252 465q0 -156 90 -262.5t229 -106.5q144 0 232 105.5t88 263.5q0 162 -91 267.5t-229 105.5 q-72 0 -134 -34.5t-101.5 -89t-61.5 -120t-22 -129.5z" glyph-name="omicrontonos" horiz-adv-x="1142" unicode="ό"/><glyph d="M692 1376l-190 -278h-109l150 278h149zM160 399q0 35 9 150.5t9 142.5q0 74 -22 104.5t-68 30.5q-31 0 -37 -2l-31 109q56 22 119 22q193 0 193 -237q0 -26 -9.5 -146.5t-9.5 -144.5q0 -165 63 -249.5t185 -84.5q139 0 212 110.5t73 309.5q0 99 -30 216.5t-81 205.5h156 q113 -191 113 -428q0 -243 -116 -385.5t-327 -142.5q-194 0 -297.5 108.5t-103.5 310.5z" glyph-name="upsilontonos" horiz-adv-x="1114" unicode="ύ"/><glyph d="M961 1376l-191 -278h-108l149 278h150zM111 422q0 268 198 518l144 -14q-201 -236 -201 -494q0 -151 63 -243.5t168 -92.5q78 0 129 52.5t72 135t21 193.5q0 147 -5 211h142q-8 -65 -8 -170q0 -98 11 -172.5t36 -132t68.5 -87.5t105.5 -30q110 0 170.5 95.5t60.5 240.5 q0 262 -201 494l148 14q194 -253 194 -516q0 -186 -95 -313t-255 -127q-109 0 -193.5 66.5t-115.5 176.5q-29 -114 -110 -179.5t-193 -65.5q-161 0 -257.5 123t-96.5 317z" glyph-name="omegatonos" horiz-adv-x="1538" unicode="ώ"/><glyph d="M203 1645q0 37 26.5 63.5t63.5 26.5t64.5 -26.5t27.5 -63.5q0 -38 -27.5 -64.5t-64.5 -26.5t-63.5 26.5t-26.5 64.5zM565 1645q0 37 26.5 63.5t63.5 26.5t65 -27t28 -63q0 -38 -28 -64.5t-65 -26.5t-63.5 26.5t-26.5 64.5zM205 0q0 96 2 201t2 127v716q0 140 -4 332h305 q248 0 352 4l-20 -127q-104 4 -348 4h-142v-481h156q227 0 315 2v-125q-180 4 -315 4h-156v-538h211q236 0 316 2v-123q-80 2 -310 2h-364z" glyph-name="uni0401" horiz-adv-x="1017" unicode="Ё"/><glyph d="M524 0q2 92 2 348v909h-159q-213 0 -297 -4v127q47 0 141 -2t141 -2h482q225 0 305 2l-21 -125q-180 4 -293 4h-155v-477q78 4 184 4q245 0 378.5 -108t133.5 -307q0 -159 -111 -270t-270 -111q-84 0 -151 22l30 117q63 -14 119 -14q105 0 177.5 74t72.5 190 q0 127 -97.5 199.5t-287.5 72.5q-139 0 -178 -6v-295q0 -260 4 -348h-150z" glyph-name="uni0402" horiz-adv-x="1521" unicode="Ђ"/><glyph d="M748 1765l-191 -278h-108l149 278h150zM205 0q4 208 4 354v664q0 150 -4 358h336q227 0 323 4l-20 -127q-74 4 -293 4h-199v-911q0 -225 2 -346h-149z" glyph-name="uni0403" horiz-adv-x="927" unicode="Ѓ"/><glyph d="M842 98q80 0 175.5 25.5t170.5 62.5v-139q-168 -67 -363 -67q-202 0 -362 89.5t-250 249.5t-90 361q0 144 53.5 275t146.5 228t227.5 154.5t289.5 57.5q172 0 346 -64v-143q-144 84 -338 84q-227 0 -382 -139.5t-185 -356.5h321q228 0 316 2v-121q-225 5 -316 5h-328 q5 -158 78 -286.5t201.5 -203t288.5 -74.5z" glyph-name="uni0404" horiz-adv-x="1304" unicode="Є"/><glyph d="M131 45l31 150q56 -50 137 -78.5t170 -28.5q124 0 198 64t74 178q0 52 -20.5 98.5t-58 83.5t-74.5 64t-84 53q-41 23 -67 38.5t-64.5 42t-63 48.5t-53 54t-44.5 63.5t-27 72t-11 84.5q0 166 109.5 265.5t287.5 99.5q65 0 147 -15.5t124 -33.5v-144q-93 78 -269 78 q-110 0 -179.5 -59.5t-69.5 -165.5q0 -86 58 -154.5t175 -132.5q134 -78 205 -137.5t104 -126.5t33 -158q0 -165 -119.5 -269t-310.5 -104q-169 0 -338 70z" glyph-name="uni0405" horiz-adv-x="1034" unicode="Ѕ"/><glyph d="M205 0q6 282 6 324v688q0 46 -6 364h153q-4 -114 -4 -364v-690q0 -222 4 -322h-153z" glyph-name="uni0406" horiz-adv-x="563" unicode="І"/><glyph d="M10 1645q0 37 26.5 63.5t63.5 26.5t65 -27t28 -63q0 -38 -28 -64.5t-65 -26.5t-63.5 26.5t-26.5 64.5zM373 1645q0 37 26.5 63.5t63.5 26.5t64.5 -26.5t27.5 -63.5q0 -38 -27.5 -64.5t-64.5 -26.5t-63.5 26.5t-26.5 64.5zM205 0q6 282 6 324v688q0 46 -6 364h153 q-4 -114 -4 -364v-690q0 -222 4 -322h-153z" glyph-name="uni0407" horiz-adv-x="563" unicode="Ї"/><glyph d="M356 -37q0 -169 -91.5 -265.5t-256.5 -96.5q-67 0 -149 22v125q55 -27 141 -27q103 0 158 68.5t55 190.5v1050q0 246 -4 346h149q-2 -186 -2 -346v-1067z" glyph-name="uni0408" horiz-adv-x="563" unicode="Ј"/><glyph d="M1137 809q245 0 393.5 -104t148.5 -295q0 -190 -140 -300t-378 -110h-287q0 64 2.5 191t2.5 190v885h-281q-23 -312 -92 -635q-73 -351 -166.5 -496t-267.5 -145q-29 0 -41 2v151q10 -2 30 -2q118 0 192 149t134 453q63 325 88 633h553q-6 -171 -6 -364v-203h115z M1167 119q172 0 268.5 75t96.5 209q0 144 -104.5 215.5t-284.5 71.5h-121v-571h145z" glyph-name="uni0409" horiz-adv-x="1835" unicode="Љ"/><glyph d="M1204 780q162 0 282 -41t190.5 -128.5t70.5 -215.5q0 -188 -138.5 -291.5t-379.5 -103.5h-287q0 64 2 191t2 190v281h-594v-371q0 -203 4 -291h-151q4 172 4 307v723q0 170 -4 346h151q-4 -139 -4 -471v-127h594v234q0 152 -4 364h154q-6 -171 -6 -364v-232h114z M1235 119q174 0 269 69t95 201q0 273 -389 273h-120v-543h145z" glyph-name="uni040A" horiz-adv-x="1902" unicode="Њ"/><glyph d="M524 0q2 92 2 348v909h-258q-116 0 -198 -4v127q33 0 99 -2t99 -2l652 2q37 0 109.5 2t109.5 2l-21 -129q-176 4 -198 4h-250v-419q46 51 125.5 83.5t173.5 32.5q199 0 303 -104.5t104 -282.5v-381q0 -160 2 -186h-147q4 135 4 401v193q0 122 -77.5 187t-201.5 65 q-90 0 -166 -36.5t-120 -115.5v-346q0 -260 4 -348h-150z" glyph-name="uni040B" horiz-adv-x="1484" unicode="Ћ"/><glyph d="M829 1765l-190 -278h-109l150 278h149zM205 0q0 47 2 141.5t2 141.5v819q0 46 -2 137t-2 137h151q0 -44 -2 -131t-2 -131v-375h203q63 0 112 43.5t93 132.5q132 268 225 461h168q-34 -49 -99 -165t-113 -207l-48 -91q-49 -99 -92 -153.5t-94 -73.5q110 -46 198 -223 q152 -332 234 -463h-160l-213 436q-88 185 -203 185h-211v-332q0 -48 2 -144.5t2 -144.5h-151z" glyph-name="uni040C" horiz-adv-x="1234" unicode="Ќ"/><glyph d="M313 1774h131q2 -80 44.5 -126t127.5 -46q86 0 127 45.5t43 126.5h132q-2 -130 -82 -207.5t-220 -77.5q-142 0 -221.5 77.5t-81.5 207.5zM199 -8v137h63q67 0 106.5 14.5t77.5 60.5t84 140l-364 784q-13 29 -36 79.5t-42.5 92t-36.5 76.5h139q17 -62 91 -217l329 -680 l305 658q68 167 91 239h135l-129 -291l-342 -770q-76 -168 -171 -245.5t-220 -77.5h-80z" glyph-name="uni040E" horiz-adv-x="1189" unicode="Ў"/><glyph d="M205 1376h157q-6 -246 -6 -327v-912h711v916q0 223 -4 323h156l-5 -133q-4 -133 -4 -192v-1051h-415v-70q0 -133 4 -313h-156q4 188 4 326v57h-434v1053q0 190 -8 323z" glyph-name="uni040F" horiz-adv-x="1423" unicode="Џ"/><glyph d="M49 0q30 66 135 324l434 1067h68l465 -1129q28 -68 123 -262h-172l-170 424h-565l-164 -424h-154zM408 537h481l-240 626z" glyph-name="uni0410" horiz-adv-x="1323" unicode="А"/><glyph d="M205 0v1376h332q227 0 323 4l-20 -127q-74 4 -293 4h-199v-448h115q245 0 394 -104t149 -295q0 -190 -140 -300t-379 -110h-282zM858 403q0 144 -104.5 215.5t-284.5 71.5h-121v-571h146q172 0 268 75t96 209z" glyph-name="uni0411" horiz-adv-x="1161" unicode="Б"/><glyph d="M205 0q6 147 6 360v641q0 187 -4 375h313q186 0 292 -93.5t106 -238.5q0 -94 -58 -172t-155 -120q142 -37 227.5 -134t85.5 -223q0 -185 -129.5 -290t-335.5 -105h-348zM774 1024q0 109 -72 172.5t-198 63.5h-150v-474h170q114 0 182 65t68 173zM870 395 q0 126 -84.5 200.5t-222.5 74.5h-209v-553h189q153 0 240 73.5t87 204.5z" glyph-name="uni0412" horiz-adv-x="1124" unicode="В"/><glyph d="M205 0q4 208 4 354v664q0 150 -4 358h336q227 0 323 4l-20 -127q-74 4 -293 4h-199v-911q0 -225 2 -346h-149z" glyph-name="uni0413" horiz-adv-x="927" unicode="Г"/><glyph d="M70 -383q1 13 6 217v287l65 -6q292 394 418 1265h584v-1265h143v-250q0 -40 2.5 -127t1.5 -121h-131v379l-948 4v-383h-141zM999 115v1153h-331q-73 -721 -363 -1149z" glyph-name="uni0414" horiz-adv-x="1388" unicode="Д"/><glyph d="M205 0q0 96 2 201t2 127v716q0 140 -4 332h305q248 0 352 4l-20 -127q-104 4 -348 4h-142v-481h156q227 0 315 2v-125q-180 4 -315 4h-156v-538h211q236 0 316 2v-123q-80 2 -310 2h-364z" glyph-name="uni0415" horiz-adv-x="1017" unicode="Е"/><glyph d="M86 0q98 138 233 463q36 88 88 142.5t109 76.5q-122 54 -205 221q-36 71 -84 173.5t-83.5 173t-71.5 126.5h161l228 -461q87 -176 227 -176h121v455q0 30 -2 91t-2 91h151q0 -30 -2 -89t-2 -89v-459h121q140 0 227 176l228 461h162q-37 -57 -72 -125t-86 -176.5 t-82 -171.5q-83 -167 -205 -221q57 -22 109 -76.5t88 -142.5q128 -314 233 -463h-176l-196 416q-97 205 -222 205h-129v-398q0 -37 2 -111.5t2 -111.5h-151q0 35 2 111.5t2 111.5v398h-129q-140 0 -231 -205l-187 -416h-176z" glyph-name="uni0416" horiz-adv-x="1761" unicode="Ж"/><glyph d="M180 23v129q108 -54 248 -54q150 0 238 75t88 208q0 123 -93.5 191.5t-244.5 68.5q-55 0 -90 -2v113q14 0 39 -1t38 -1q149 0 232.5 70.5t83.5 189.5q0 111 -70.5 178t-189.5 67q-155 0 -279 -86v136q158 69 289 69q184 0 290.5 -93.5t106.5 -252.5q0 -108 -73.5 -192.5 t-206.5 -128.5q144 -34 232.5 -124t88.5 -208q0 -175 -126.5 -284t-338.5 -109q-141 0 -262 41z" glyph-name="uni0417" horiz-adv-x="1013" unicode="З"/><glyph d="M1339 0h-147q6 126 6 279v831l-895 -1110h-92q2 86 2 276v773q0 229 -8 327h151q-6 -101 -6 -340v-751l903 1106h86q-4 -238 -4 -342v-760q0 -109 4 -289z" glyph-name="uni0418" horiz-adv-x="1544" unicode="И"/><glyph d="M449 1774h131q2 -80 44.5 -126t127.5 -46q86 0 127 45.5t43 126.5h131q-2 -130 -81.5 -207.5t-219.5 -77.5q-142 0 -221.5 77.5t-81.5 207.5zM1339 0h-147q6 126 6 279v831l-895 -1110h-92q2 86 2 276v773q0 229 -8 327h151q-6 -101 -6 -340v-751l903 1106h86 q-4 -238 -4 -342v-760q0 -109 4 -289z" glyph-name="uni0419" horiz-adv-x="1544" unicode="Й"/><glyph d="M205 0q0 47 2 141.5t2 141.5v819q0 46 -2 137t-2 137h151q0 -44 -2 -131t-2 -131v-375h203q63 0 112 43.5t93 132.5q132 268 225 461h168q-34 -49 -99 -165t-113 -207l-48 -91q-49 -99 -92 -153.5t-94 -73.5q110 -46 198 -223q152 -332 234 -463h-160l-213 436 q-88 185 -203 185h-211v-332q0 -48 2 -144.5t2 -144.5h-151z" glyph-name="uni041A" horiz-adv-x="1234" unicode="К"/><glyph d="M31 -8v151q10 -2 30 -2q118 0 192 149t134 453q63 325 88 633h633v-1128q0 -41 2 -124t2 -124h-151q0 41 2 124t2 124v1018h-367q-23 -312 -92 -635q-73 -351 -166.5 -496t-267.5 -145q-29 0 -41 2z" glyph-name="uni041B" horiz-adv-x="1316" unicode="Л"/><glyph d="M143 0q1 13 14 160.5t15 183.5l76 1045h84l530 -992l522 992h86l62 -1067q10 -211 22 -322h-157q0 144 -8 295l-37 805l-469 -910h-49l-474 910l-51 -795q-10 -155 -14 -305h-152z" glyph-name="uni041C" horiz-adv-x="1697" unicode="М"/><glyph d="M205 0q4 172 4 307v723q0 170 -4 346h151q-4 -139 -4 -471v-127h791v275q0 159 -4 323h151q-4 -121 -4 -346v-780q0 -98 4 -250h-151q4 164 4 291v371h-791v-371q0 -203 4 -291h-151z" glyph-name="uni041D" horiz-adv-x="1495" unicode="Н"/><glyph d="M123 686q0 198 91 360.5t250 255.5t353 93q193 0 352.5 -94t250.5 -256.5t91 -358.5q0 -198 -91.5 -361t-250.5 -255.5t-352 -92.5q-146 0 -274.5 54t-221 147.5t-145.5 225t-53 282.5zM274 686q0 -257 153.5 -423.5t389.5 -166.5q234 0 387.5 168t153.5 422 q0 250 -154 419t-387 169q-151 0 -275 -75t-196 -210t-72 -303z" glyph-name="uni041E" horiz-adv-x="1634" unicode="О"/><glyph d="M205 0q0 5 2 66.5t4 138.5t2 119v1052h1008l-2 -1054q0 -222 4 -322h-154q0 5 2 66.5t4 138.5t2 119v927h-725v-929q0 -222 6 -322h-153z" glyph-name="uni041F" horiz-adv-x="1427" unicode="П"/><glyph d="M967 950q0 -187 -129 -308.5t-359 -121.5h-127v-184q0 -240 4 -336h-151q4 188 4 354v733q0 129 -4 289h284q228 0 353 -116.5t125 -309.5zM815 952q0 141 -90 223t-246 82h-127v-618h127q151 0 243.5 83t92.5 230z" glyph-name="uni0420" horiz-adv-x="1062" unicode="Р"/><glyph d="M123 680q0 144 53.5 275t146.5 228t227.5 154.5t289.5 57.5q172 0 346 -64v-143q-144 84 -338 84q-167 0 -298.5 -78t-203.5 -212t-72 -298t71.5 -297.5t202 -211t294.5 -77.5q80 0 175.5 25.5t170.5 62.5v-139q-168 -67 -363 -67q-202 0 -362 89.5t-250 249.5t-90 361z" glyph-name="uni0421" horiz-adv-x="1304" unicode="С"/><glyph d="M520 0q2 92 2 348v649q0 186 -2 260h-155q-211 0 -295 -4v125q51 0 154.5 -1t154.5 -1h452q226 0 306 2l-21 -125q-180 4 -293 4h-155q-2 -76 -2 -260v-649q0 -260 4 -348h-150z" glyph-name="uni0422" horiz-adv-x="1193" unicode="Т"/><glyph d="M199 -8v137h63q67 0 106.5 14.5t77.5 60.5t84 140l-364 784q-13 29 -36 79.5t-42.5 92t-36.5 76.5h139q17 -62 91 -217l329 -680l305 658q68 167 91 239h135l-129 -291l-342 -770q-76 -168 -171 -245.5t-220 -77.5h-80z" glyph-name="uni0423" horiz-adv-x="1189" unicode="У"/><glyph d="M123 672q0 155 78 273.5t205.5 182.5t287.5 76q2 98 -4 172h154q-2 -36 -2 -77.5t1 -64.5l1 -24q157 -13 282.5 -78t202 -184.5t76.5 -275.5t-77 -271.5t-203 -176t-287 -72.5q0 -115 4 -189h-154q4 43 4.5 89t-0.5 70l-2 25q-163 12 -289 73.5t-202 178t-76 273.5z M272 672q0 -180 111.5 -291t310.5 -121v840q-199 -13 -310.5 -128.5t-111.5 -299.5zM1255 672q0 184 -110 298.5t-307 127.5v-838q196 10 306.5 121t110.5 291z" glyph-name="uni0424" horiz-adv-x="1527" unicode="Ф"/><glyph d="M53 0q111 152 193 279l266 411l-254 404q-20 32 -186 282h176q50 -90 121 -207l229 -368l244 387q59 101 116 188h164q-78 -103 -192 -278l-256 -398l256 -411q42 -69 196 -289h-174q-99 169 -116 195l-248 391l-269 -426q-97 -156 -100 -160h-166z" glyph-name="uni0425" horiz-adv-x="1179" unicode="Х"/><glyph d="M209 0v1053q0 223 -4 323h151q-4 -188 -4 -325v-928h713v930q0 223 -4 323h151q-4 -188 -4 -325v-928h148v-182q0 -224 4 -324h-152q4 188 4 326v57h-1003z" glyph-name="uni0426" horiz-adv-x="1458" unicode="Ц"/><glyph d="M170 1376h154q-5 -112 -5 -186l-2 -160q0 -103 20 -169.5t66.5 -105t112 -53t166.5 -14.5q83 0 213 17v356q0 217 -4 315h151q-4 -188 -4 -315v-739q0 -222 4 -322h-151q4 188 4 324v241q-117 -16 -209 -16q-266 0 -389 116.5t-123 383.5v120q0 75 -4 207z" glyph-name="uni0427" horiz-adv-x="1247" unicode="Ч"/><glyph d="M1671 0h-1462v1051q0 225 -4 325h151q-6 -216 -6 -327v-912h514v912q0 229 -2 327h154q-8 -188 -8 -329v-910h522v914q0 125 -8 325h151q-2 -94 -2 -327v-1049z" glyph-name="uni0428" horiz-adv-x="1878" unicode="Ш"/><glyph d="M209 0v1055q0 223 -4 321h153q0 -2 -1.5 -63t-3 -139t-1.5 -121v-916h514v916q0 225 -2 323h152q-6 -141 -6 -325v-914h520v918q0 80 -2.5 156.5t-5 120t-2.5 44.5h155q-2 -94 -2 -323v-916h162v-196q0 -224 4 -324h-151q4 188 4 326v57h-1483z" glyph-name="uni0429" horiz-adv-x="1937" unicode="Щ"/><glyph d="M469 0q0 64 2 191t2 190v879h-242q-125 0 -180 -9l-39 131q29 0 110.5 -2t110.5 -2h383v-569h115q245 0 394 -104t149 -295q0 -190 -140 -300t-378 -110h-287zM1126 403q0 144 -104.5 215.5t-284.5 71.5h-121v-571h146q172 0 268 75t96 209z" glyph-name="uni042A" horiz-adv-x="1429" unicode="Ъ"/><glyph d="M205 0q0 64 2 191t2 190v631q0 152 -4 364h153q-6 -171 -6 -364v-203h115q245 0 394 -104t149 -295q0 -190 -140 -300t-378 -110h-287zM1370 0q6 282 6 324v688q0 46 -6 364h154q-4 -114 -4 -364v-690q0 -222 4 -322h-154zM862 403q0 144 -104.5 215.5t-284.5 71.5h-121 v-571h146q172 0 268 75t96 209z" glyph-name="uni042B" horiz-adv-x="1728" unicode="Ы"/><glyph d="M205 0q0 64 2 191t2 190v631q0 152 -4 364h153q-6 -171 -6 -364v-203h115q245 0 394 -104t149 -295q0 -190 -140 -300t-378 -110h-287zM862 403q0 144 -104.5 215.5t-284.5 71.5h-121v-571h146q172 0 268 75t96 209z" glyph-name="uni042C" horiz-adv-x="1165" unicode="Ь"/><glyph d="M465 1395q155 0 289.5 -57.5t227.5 -154.5t146.5 -228t53.5 -275q0 -201 -90 -361t-250.5 -249.5t-362.5 -89.5q-194 0 -362 67v139q75 -37 170.5 -62.5t175.5 -25.5q160 0 288.5 74.5t201 202.5t77.5 287h-328q-90 0 -315 -5v121q88 -2 315 -2h322q-30 217 -185 356.5 t-382 139.5q-194 0 -338 -84v143q174 64 346 64z" glyph-name="uni042D" horiz-adv-x="1304" unicode="Э"/><glyph d="M205 0q4 188 4 324v688q0 152 -4 364h151q-4 -114 -4 -364v-244h322q15 133 66.5 248.5t130.5 198.5t187 130.5t230 47.5q135 0 252 -58t196.5 -156t125 -230.5t45.5 -278.5q0 -305 -173.5 -497.5t-445.5 -192.5q-171 0 -308.5 85t-217.5 235.5t-90 340.5h-320v-319 q0 -222 4 -322h-151zM823 670q0 -247 129 -400t336 -153q209 0 337 152.5t128 400.5q0 160 -57 292.5t-164 212.5t-244 80q-134 0 -240.5 -77t-165.5 -210.5t-59 -297.5z" glyph-name="uni042E" horiz-adv-x="2029" unicode="Ю"/><glyph d="M231 991q0 97 37.5 172t103 120.5t149.5 69t181 23.5h285q-4 -80 -4 -321v-693q0 -268 4 -362h-149q4 184 4 354v228h-187l-409 -582h-191q180 214 269 342l198 285q-139 44 -215 135.5t-76 228.5zM381 979q0 -129 92.5 -204t222.5 -75h146v557h-137q-141 0 -232.5 -72.5 t-91.5 -205.5z" glyph-name="uni042F" horiz-adv-x="1191" unicode="Я"/><glyph d="M102 272q0 140 105.5 216t296.5 85q154 7 237 7v47q0 103 -75 162t-183 59q-145 0 -264 -74l-47 100q146 87 328 87q161 0 267.5 -94.5t106.5 -256.5v-317q0 -179 31 -293h-143l-12 113q-143 -133 -330 -133q-134 0 -226 81.5t-92 210.5zM244 274q0 -85 49 -134.5 t135 -49.5q84 0 168.5 34.5t144.5 94.5v256l-215 -6q-143 -5 -212.5 -49t-69.5 -146z" glyph-name="uni0430" horiz-adv-x="1069" unicode="а"/><glyph d="M90 610q0 320 121.5 501t370.5 259q27 9 50 16.5t46.5 16.5t38.5 14.5t40.5 16t36.5 15.5t42.5 18.5t44.5 19.5v-129q-107 -48 -299 -105q-147 -44 -233.5 -148t-108.5 -259q53 41 142.5 69.5t188.5 28.5q191 0 303.5 -137t112.5 -344q0 -214 -125 -348.5t-323 -134.5 q-210 0 -329.5 156.5t-119.5 473.5zM850 455q0 177 -79.5 279t-246.5 102q-67 0 -148 -33t-147 -82q-2 -18 -2 -127q0 -251 84.5 -377.5t227.5 -126.5q134 0 222.5 104.5t88.5 260.5z" glyph-name="uni0431" horiz-adv-x="1097" unicode="б"/><glyph d="M213 0q0 16 2 59t2 68v682q0 19 -2 65t-2 64h281q178 0 268 -69t90 -179q0 -136 -158 -198q108 -15 176 -81.5t68 -148.5q0 -117 -90.5 -189.5t-272.5 -72.5h-362zM715 676q0 155 -221 155h-142v-303h160q93 0 148 38.5t55 109.5zM801 268q0 73 -57.5 114.5t-149.5 41.5 h-242v-318h228q221 0 221 162z" glyph-name="uni0432" horiz-adv-x="1024" unicode="в"/><glyph d="M213 0q0 30 2 89t2 89v623q0 23 -2 69t-2 68h377q38 0 112.5 2t112.5 2l-47 -119q-30 0 -93 2t-93 2h-230v-649q0 -30 2 -89t2 -89h-143z" glyph-name="uni0433" horiz-adv-x="854" unicode="г"/><glyph d="M31 -340q4 94 4 137v291h59q138 134 201 322.5t106 527.5h494v-850h137v-291q0 -59 4 -137h-114q2 59 2 141v193h-781v-193q0 -84 2 -141h-114zM760 88v737h-260q-34 -243 -94.5 -425t-161.5 -312h516z" glyph-name="uni0434" horiz-adv-x="1099" unicode="д"/><glyph d="M111 481q0 127 52.5 235.5t154 176.5t231.5 68q112 0 196.5 -37.5t131.5 -101t69.5 -135.5t22.5 -152q0 -48 -4 -84h-713q15 -351 346 -351q144 0 320 103v-119q-53 -41 -138.5 -69.5t-187.5 -28.5q-215 0 -348 128.5t-133 366.5zM553 850q-62 0 -112.5 -17.5 t-83.5 -45.5t-56.5 -67t-34.5 -79t-14 -84h586q-7 293 -285 293z" glyph-name="uni0435" horiz-adv-x="1067" unicode="е"/><glyph d="M90 0q35 55 98 188l60 123q58 116 143 156q-87 25 -147 149l-76 158q-58 118 -86 164h151q48 -97 70 -145l76 -172q54 -121 147 -121h82v270q0 22 -2 84t-2 84h144q0 -21 -2.5 -82.5t-2.5 -83.5v-272h82q94 0 148 121l82 180q45 92 65 137h150q-21 -31 -86 -162l-76 -160 q-57 -120 -147 -153q93 -40 143 -152l55 -114q62 -128 103 -197h-156l-74 150l-71 147q-31 63 -61.5 92t-74.5 29h-82v-223q0 -33 2.5 -97.5t2.5 -97.5h-144q0 30 2 99t2 98v221h-82q-43 0 -72.5 -28.5t-60.5 -92.5l-65 -133q-16 -31 -44 -87.5t-38 -76.5h-156z" glyph-name="uni0436" horiz-adv-x="1351" unicode="ж"/><glyph d="M115 37v123q129 -60 256 -60q225 0 225 168q0 160 -268 160q-64 0 -84 -2v113q17 -2 98 -2q233 6 233 155q0 70 -52.5 110t-143.5 40q-115 0 -225 -58l-41 115q128 64 280 64q142 0 241 -70t99 -184q0 -74 -51 -131t-143 -86q215 -58 215 -230q0 -120 -99.5 -201 t-273.5 -81q-149 0 -266 57z" glyph-name="uni0437" horiz-adv-x="847" unicode="з"/><glyph d="M219 0q2 88 2 270v346q0 224 -8 320h152q-9 -154 -9 -332v-379l639 715h84q-4 -238 -4 -334v-325q0 -109 4 -281h-143q4 84 4 272v443l-633 -715h-88z" glyph-name="uni0438" horiz-adv-x="1290" unicode="и"/><glyph d="M344 1384h131q2 -80 44.5 -126t127.5 -46q86 0 127 45.5t43 126.5h131q-2 -130 -81.5 -207t-219.5 -77q-142 0 -221.5 77t-81.5 207zM219 0q2 88 2 270v346q0 224 -8 320h152q-9 -154 -9 -332v-379l639 715h84q-4 -238 -4 -334v-325q0 -109 4 -281h-143q4 84 4 272v443 l-633 -715h-88z" glyph-name="uni0439" horiz-adv-x="1290" unicode="й"/><glyph d="M213 0q0 24 2 73.5t2 73.5v654q0 23 -2 69t-2 68h143q0 -20 -2 -60t-2 -59v-305h70q54 0 86.5 24t62.5 83l156 317h154q-24 -38 -72 -133l-86 -189q-61 -122 -152 -151q88 -37 148 -154l80 -172q68 -128 75 -139h-157l-146 297q-29 59 -62.5 82.5t-86.5 23.5h-70v-264 q0 -23 2 -69t2 -70h-143z" glyph-name="uni043A" horiz-adv-x="978" unicode="к"/><glyph d="M27 -12v129q3 0 12 -2t12 -2q53 0 99.5 43.5t90.5 137.5t81.5 257t64.5 387h494q-4 -117 -4 -338v-356q0 -104 4 -244h-150q10 63 10 242v581h-235q-31 -236 -77 -403.5t-105 -260.5t-123 -134t-140 -41q-18 0 -34 4z" glyph-name="uni043B" horiz-adv-x="1091" unicode="л"/><glyph d="M213 0q4 168 4 299v301q0 166 -4 338h172l309 -510l299 510h172q-4 -117 -4 -338v-356q0 -104 4 -244h-141q2 49 2 303v449l-303 -484h-68l-303 484v-449q0 -215 4 -303h-143z" glyph-name="uni043C" horiz-adv-x="1376" unicode="м"/><glyph d="M213 0q4 168 4 248v512q0 40 -1 81.5t-2 67.5t-1 29h143q-4 -78 -4 -178v-215h506v215q0 102 -2 178h141q0 -6 -2 -82t-2 -96v-516q0 -104 4 -244h-141q2 80 2 248v186h-506v-182q0 -166 4 -252h-143z" glyph-name="uni043D" horiz-adv-x="1208" unicode="н"/><glyph d="M111 465q0 204 133.5 346.5t326.5 142.5q195 0 328 -142.5t133 -346.5q0 -202 -132 -341.5t-329 -139.5t-328.5 139.5t-131.5 341.5zM252 465q0 -156 90 -262.5t229 -106.5q144 0 232 105.5t88 263.5q0 162 -91 267.5t-229 105.5q-72 0 -134 -34.5t-101.5 -89t-61.5 -120 t-22 -129.5z" glyph-name="uni043E" horiz-adv-x="1142" unicode="о"/><glyph d="M213 0q6 264 6 315v623h768v-625q0 -215 4 -313h-143q4 184 4 315v502h-498v-504q0 -215 4 -313h-145z" glyph-name="uni043F" horiz-adv-x="1202" unicode="п"/><glyph d="M213 -479v1384q165 58 319 58q233 0 361.5 -129.5t128.5 -360.5q0 -212 -136.5 -352.5t-342.5 -140.5q-83 0 -195 34v-493h-135zM899 475q0 172 -107.5 274.5t-265.5 102.5q-53 0 -178 -27v-698q92 -35 187 -35q157 0 260.5 108t103.5 275z" glyph-name="uni0440" horiz-adv-x="1132" unicode="р"/><glyph d="M111 463q0 212 143.5 353.5t370.5 141.5q156 0 290 -69v-135q-119 86 -278 86q-177 0 -280 -105.5t-103 -271.5q0 -167 101 -264t284 -97q82 0 155.5 27.5t120.5 63.5v-134q-41 -31 -117.5 -53t-172.5 -22q-227 0 -370.5 136t-143.5 343z" glyph-name="uni0441" horiz-adv-x="1062" unicode="с"/><glyph d="M387 0q2 90 2 340v483h-131q-127 0 -207 -4v123q72 -4 215 -4h445q71 0 147 2l-20 -121q-17 0 -80 2t-72 2h-162v-483q0 -254 4 -340h-141z" glyph-name="uni0442" horiz-adv-x="888" unicode="т"/><glyph d="M45 938h158q13 -31 36 -93.5t35 -92.5l228 -596l237 585q36 88 68 197h149l-88 -205l-395 -905q-53 -122 -126.5 -173.5t-188.5 -51.5h-58l19 94q73 0 113.5 13.5t69.5 47t63 105.5l75 160l-282 655q-7 16 -48 111.5t-65 148.5z" glyph-name="uni0443" horiz-adv-x="1001" unicode="у"/><glyph d="M111 469q0 200 140.5 335t358.5 152v213q0 47 -3.5 134t-4.5 114h150q0 -9 -3.5 -106t-3.5 -142v-213q240 -20 369 -150.5t129 -334.5q0 -205 -129.5 -337t-368.5 -152v-213q0 -45 3.5 -142t3.5 -106h-150q1 27 4.5 114t3.5 134v213q-218 17 -358.5 152t-140.5 335z M242 469q0 -159 99 -257t269 -110v734q-170 -12 -269 -110t-99 -257zM1114 469q0 159 -99.5 257t-269.5 110v-734q170 12 269.5 110t99.5 257z" glyph-name="uni0444" horiz-adv-x="1353" unicode="ф"/><glyph d="M49 0q61 82 137 195l189 272l-185 276q-88 137 -139 195h162l244 -381l237 381h156q-20 -26 -41 -57t-48 -72.5t-44 -65.5l-185 -274l218 -322q10 -14 46.5 -67.5t55.5 -79.5h-150l-253 377l-246 -377h-154z" glyph-name="uni0445" horiz-adv-x="901" unicode="х"/><glyph d="M217 0v623q0 217 -4 315h145q-6 -240 -6 -317v-508h469v510q0 217 -4 315h144q-5 -230 -5 -317v-508h142v-125q0 -215 6 -314h-143q4 180 4 326h-748z" glyph-name="uni0446" horiz-adv-x="1167" unicode="ц"/><glyph d="M111 938h149q-10 -123 -10 -150v-135q0 -178 219 -178q134 0 250 25v215q0 112 -6 223h145q0 -38 -2 -114.5t-2 -114.5v-396q0 -217 2 -313h-141q4 184 4 289v92q-105 -21 -246 -21q-175 0 -266.5 78t-91.5 215v138q0 49 -4 147z" glyph-name="uni0447" horiz-adv-x="1069" unicode="ч"/><glyph d="M217 0v625q0 123 -4 315h143q-4 -184 -4 -317v-498h353v498q0 171 -3 315h144q-6 -276 -6 -317v-496h381v500q0 108 -9 315h148q-4 -184 -4 -317v-623h-1139z" glyph-name="uni0448" horiz-adv-x="1570" unicode="ш"/><glyph d="M215 0v625q0 219 -2 315h141q-4 -184 -4 -317v-500h352v500q0 219 -2 315h144q-6 -216 -6 -317v-498h381v502q0 143 -7 315h144q-2 -92 -2 -317v-502h108v-219q0 -173 4 -234h-145q4 45 4 332h-1110z" glyph-name="uni0449" horiz-adv-x="1529" unicode="щ"/><glyph d="M444 0q0 33 2.5 99.5t2.5 99.5v651h-183q-92 0 -147 -4l-35 96q118 -4 178 -4h328q-6 -99 -6 -186v-172h161q159 0 263 -79t104 -212q0 -132 -104 -210.5t-263 -78.5h-301zM977 291q0 86 -62.5 132t-173.5 46h-157v-358h157q111 0 173.5 46.5t62.5 133.5z" glyph-name="uni044A" horiz-adv-x="1234" unicode="ъ"/><glyph d="M213 0q0 33 2 99.5t2 99.5v454q0 77 -4 285h145q-6 -99 -6 -186v-172h162q159 0 263 -79t104 -212q0 -132 -104 -210.5t-263 -78.5h-301zM1217 0q6 45 6 201v534q0 160 -6 203h147q-6 -47 -6 -203v-534q0 -160 6 -201h-147zM745 291q0 86 -62 132t-173 46h-158v-358h158 q111 0 173 46.5t62 133.5z" glyph-name="uni044B" horiz-adv-x="1574" unicode="ы"/><glyph d="M213 0q0 33 2 99.5t2 99.5v454q0 77 -4 285h145q-6 -99 -6 -186v-172h162q159 0 263 -79t104 -212q0 -132 -104 -210.5t-263 -78.5h-301zM745 291q0 86 -62 132t-173 46h-158v-358h158q111 0 173 46.5t62 133.5z" glyph-name="uni044C" horiz-adv-x="1003" unicode="ь"/><glyph d="M952 463q0 -207 -143.5 -343t-370.5 -136q-96 0 -173 22t-118 53v123q46 -35 120.5 -62.5t156.5 -27.5q174 0 279.5 94t117.5 252h-223q-40 0 -121 -2t-121 -2v119q41 0 124 -2t124 -2h211q-33 130 -136.5 209.5t-252.5 79.5q-79 0 -152 -23.5t-127 -62.5v129 q134 69 291 69q228 0 371 -138t143 -349z" glyph-name="uni044D" horiz-adv-x="1062" unicode="э"/><glyph d="M1423 469q0 -73 -17 -143.5t-52.5 -133t-84.5 -110t-118.5 -75t-149.5 -27.5q-173 0 -283.5 127t-131.5 319h-234v-113q0 -215 4 -313h-143q4 184 4 315v353q0 62 -4 270h143q-4 -74 -4 -242v-151h236q25 187 135.5 302.5t277.5 115.5q128 0 225.5 -70t147 -181 t49.5 -243zM1276 469q0 168 -74 267.5t-201 99.5q-126 0 -201 -100t-75 -267q0 -163 75.5 -263t200.5 -100t200 99.5t75 263.5z" glyph-name="uni044E" horiz-adv-x="1533" unicode="ю"/><glyph d="M137 653q0 125 95 205t257 80h340q0 -33 -2 -129t-2 -129v-496q0 -118 4 -184h-147q8 76 8 172v193h-235l-226 -365h-155q63 70 135 195q52 90 133 198q-205 76 -205 260zM260 651q0 -85 58.5 -127.5t158.5 -42.5h213v355h-201q-111 0 -170 -46.5t-59 -138.5z" glyph-name="uni044F" horiz-adv-x="1040" unicode="я"/><glyph d="M264 1255q0 37 26.5 64t63.5 27t64.5 -27t27.5 -64q0 -38 -27.5 -64t-64.5 -26t-63.5 26t-26.5 64zM627 1255q0 37 26.5 64t63.5 27t64.5 -27t27.5 -64q0 -38 -27.5 -64t-64.5 -26t-63.5 26t-26.5 64zM111 481q0 127 52.5 235.5t154 176.5t231.5 68q112 0 196.5 -37.5 t131.5 -101t69.5 -135.5t22.5 -152q0 -48 -4 -84h-713q15 -351 346 -351q144 0 320 103v-119q-53 -41 -138.5 -69.5t-187.5 -28.5q-215 0 -348 128.5t-133 366.5zM553 850q-62 0 -112.5 -17.5t-83.5 -45.5t-56.5 -67t-34.5 -79t-14 -84h586q-7 293 -285 293z" glyph-name="uni0451" horiz-adv-x="1067" unicode="ё"/><glyph d="M164 0q8 78 8 229v928h-127v121h127q0 125 -4 172h147q-8 -70 -8 -172h303v-121h-303v-344q61 67 148.5 102t171.5 35q161 0 255.5 -140.5t94.5 -401.5q0 -497 -389 -705l-70 109q159 90 242.5 242t83.5 358q0 194 -64.5 305.5t-179.5 111.5q-66 0 -144.5 -36 t-148.5 -103v-442q0 -191 2 -248h-145z" glyph-name="uni0452" horiz-adv-x="1067" unicode="ђ"/><glyph d="M674 1376l-191 -278h-108l149 278h150zM213 0q0 30 2 89t2 89v623q0 23 -2 69t-2 68h377q38 0 112.5 2t112.5 2l-47 -119q-30 0 -93 2t-93 2h-230v-649q0 -30 2 -89t2 -89h-143z" glyph-name="uni0453" horiz-adv-x="854" unicode="ѓ"/><glyph d="M111 463q0 211 143 349t371 138q156 0 290 -69v-129q-119 86 -278 86q-149 0 -252.5 -79.5t-136.5 -209.5h211q41 0 124 2t124 2v-119q-40 0 -121 2t-121 2h-223q12 -158 117.5 -252t279.5 -94q82 0 156 27.5t120 62.5v-123q-41 -31 -117.5 -53t-172.5 -22 q-227 0 -370.5 136t-143.5 343z" glyph-name="uni0454" horiz-adv-x="1062" unicode="є"/><glyph d="M102 39l23 131q111 -90 244 -90q87 0 142.5 41.5t55.5 114.5q0 26 -12.5 50t-28 40.5t-47 37.5t-50 30.5t-56.5 29.5q-47 24 -82 47t-73.5 57t-59.5 78.5t-21 95.5q0 112 82.5 182t222.5 70q96 0 220 -36v-127q-101 61 -213 61q-84 0 -133.5 -37t-49.5 -102 q0 -25 12.5 -49t27.5 -40t46 -36t49.5 -30t55.5 -28q38 -19 65.5 -35.5t62.5 -44t57.5 -56t38 -68.5t15.5 -84q0 -123 -88 -194t-233 -71q-71 0 -147.5 18t-125.5 44z" glyph-name="uni0455" horiz-adv-x="806" unicode="ѕ"/><glyph d="M213 1255q0 37 26.5 64t63.5 27t64.5 -27t27.5 -64q0 -38 -27.5 -64t-64.5 -26t-63.5 26t-26.5 64zM268 0q6 45 6 201v534q0 160 -6 203h148q-6 -47 -6 -203v-534q0 -160 6 -201h-148z" glyph-name="uni0456" horiz-adv-x="550" unicode="і"/><glyph d="M14 1255q0 37 26.5 64t63.5 27t65 -27t28 -64q0 -38 -28 -64t-65 -26t-63.5 26t-26.5 64zM377 1255q0 37 26.5 64t63.5 27t64.5 -27t27.5 -64q0 -38 -27.5 -64t-64.5 -26t-63.5 26t-26.5 64zM213 0q6 45 6 201v534q0 160 -6 203h147q-6 -47 -6 -203v-534q0 -160 6 -201 h-147z" glyph-name="uni0457" horiz-adv-x="571" unicode="ї"/><glyph d="M246 1346q37 0 64.5 -27t27.5 -64q0 -38 -27.5 -64t-64.5 -26t-63.5 26t-26.5 64q0 37 26.5 64t63.5 27zM-76 -510v107h119q178 0 178 282v856q0 160 -4 203h143q-4 -47 -4 -203v-862q0 -383 -313 -383h-119z" glyph-name="uni0458" horiz-adv-x="473" unicode="ј"/><glyph d="M956 580q159 0 263 -79t104 -212q0 -132 -104 -210.5t-263 -78.5h-260q0 33 2 99.5t2 99.5v624h-194q-31 -236 -77 -403.5t-105 -260.5t-123 -134t-140 -41q-18 0 -34 4v129q3 0 12 -2t12 -2q53 0 99.5 43.5t90.5 137.5t81.5 257t64.5 387h455q-6 -99 -6 -186v-172h120z M952 111q111 0 173.5 46.5t62.5 133.5q0 86 -62.5 132t-173.5 46h-116v-358h116z" glyph-name="uni0459" horiz-adv-x="1445" unicode="љ"/><glyph d="M1006 545q162 0 264 -71.5t102 -203.5q0 -130 -102 -200t-264 -70h-281q0 33 2 99.5t2 99.5v235h-377v-182q0 -166 4 -252h-143q4 168 4 248v512q0 40 -1 81.5t-2 67.5t-1 29h143q-4 -78 -4 -178v-215h377v108q0 77 -4 285h145q-6 -99 -6 -186v-207h142zM1001 111 q236 0 236 161q0 162 -236 162h-137v-323h137z" glyph-name="uni045A" horiz-adv-x="1495" unicode="њ"/><glyph d="M901 0q4 135 4 324v251q0 271 -278 271q-91 0 -175.5 -62.5t-127.5 -160.5v-443q0 -82 4 -180h-144q4 106 4 184v953h-98v98h98v53q0 37 -4 104t-4 85h148q-4 -47 -4 -199v-43h354v-98h-354v-367q156 184 358 184q174 0 269.5 -109.5t95.5 -305.5v-353q0 -160 2 -186 h-148z" glyph-name="uni045B" horiz-adv-x="1200" unicode="ћ"/><glyph d="M715 1376l-191 -278h-108l149 278h150zM213 0q0 24 2 73.5t2 73.5v654q0 23 -2 69t-2 68h143q0 -20 -2 -60t-2 -59v-305h70q54 0 86.5 24t62.5 83l156 317h154q-24 -38 -72 -133l-86 -189q-61 -122 -152 -151q88 -37 148 -154l80 -172q68 -128 75 -139h-157l-146 297 q-29 59 -62.5 82.5t-86.5 23.5h-70v-264q0 -23 2 -69t2 -70h-143z" glyph-name="uni045C" horiz-adv-x="978" unicode="ќ"/><glyph d="M172 1384h131q2 -80 44.5 -126t127.5 -46q86 0 127 45.5t43 126.5h131q-2 -130 -81.5 -207t-219.5 -77q-142 0 -221.5 77t-81.5 207zM45 938h158q13 -31 36 -93.5t35 -92.5l228 -596l237 585q36 88 68 197h149l-88 -205l-395 -905q-53 -122 -126.5 -173.5t-188.5 -51.5 h-58l19 94q73 0 113.5 13.5t69.5 47t63 105.5l75 160l-282 655q-7 16 -48 111.5t-65 148.5z" glyph-name="uni045E" horiz-adv-x="1001" unicode="ў"/><glyph d="M213 938h143q-4 -188 -4 -242v-581h471v581q0 74 -4 242h144q-5 -235 -5 -242v-696h-282v-55q0 -236 4 -328h-148q5 235 5 326v57h-320v696q0 74 -4 242z" glyph-name="uni045F" horiz-adv-x="1173" unicode="џ"/><glyph d="M164 0q4 106 4 184v1207h-78l37 86h180q-4 -47 -4 -199v-487q51 72 138.5 117.5t209.5 45.5q163 0 263 -100.5t100 -292.5v-344q0 -166 4 -217h-141q2 37 2 227v348q0 134 -74 198.5t-195 64.5q-93 0 -176 -53.5t-131 -141.5v-463q0 -82 4 -180h-143z" glyph-name="uni04BB" horiz-adv-x="1169" unicode="һ"/><glyph d="M205 0q6 282 6 324v688q0 46 -6 364h153q-4 -114 -4 -364v-690q0 -222 4 -322h-153z" glyph-name="uni04C0" horiz-adv-x="563" unicode="Ӏ"/><glyph d="M213 0q6 45 6 201v534q0 160 -6 203h147q-6 -47 -6 -203v-534q0 -160 6 -201h-147z" glyph-name="uni04CF" horiz-adv-x="571" unicode="ӏ"/><glyph d="M504 1561v98h495v-98h-495zM1339 0h-147q6 126 6 279v831l-895 -1110h-92q2 86 2 276v773q0 229 -8 327h151q-6 -101 -6 -340v-751l903 1106h86q-4 -238 -4 -342v-760q0 -109 4 -289z" glyph-name="uni04E2" horiz-adv-x="1544" unicode="Ӣ"/><glyph d="M399 1171v99h496v-99h-496zM219 0q2 88 2 270v346q0 224 -8 320h152q-9 -154 -9 -332v-379l639 715h84q-4 -238 -4 -334v-325q0 -109 4 -281h-143q4 84 4 272v443l-633 -715h-88z" glyph-name="uni04E3" horiz-adv-x="1290" unicode="ӣ"/><glyph d="M227 1171v99h496v-99h-496zM45 938h158q13 -31 36 -93.5t35 -92.5l228 -596l237 585q36 88 68 197h149l-88 -205l-395 -905q-53 -122 -126.5 -173.5t-188.5 -51.5h-58l19 94q73 0 113.5 13.5t69.5 47t63 105.5l75 160l-282 655q-7 16 -48 111.5t-65 148.5z" glyph-name="uni04EF" horiz-adv-x="1001" unicode="ӯ"/><glyph d="M778 1765h150l149 -278h-108zM49 1376h164l457 -1165l227 580l-248 585h154l182 -413l164 413h145l-241 -581l215 -584l456 1165h156q-28 -66 -57 -132t-62 -142l-467 -1102h-61l-268 645l-269 -645h-61l-465 1090q-23 53 -64.5 152t-56.5 134z" glyph-name="Wgrave" horiz-adv-x="1929" unicode="Ẁ"/><glyph d="M541 1376h149l150 -278h-109zM41 938h152q22 -91 65 -211l184 -526l240 737h90l254 -754l201 627q30 93 37 127h141q-11 -27 -28 -76.5t-29 -79.5l-287 -800h-68l-268 780l-262 -780h-74l-270 745q-12 36 -40.5 109t-37.5 102z" glyph-name="wgrave" horiz-adv-x="1445" unicode="ẁ"/><glyph d="M1159 1765l-190 -278h-109l150 278h149zM49 1376h164l457 -1165l227 580l-248 585h154l182 -413l164 413h145l-241 -581l215 -584l456 1165h156q-28 -66 -57 -132t-62 -142l-467 -1102h-61l-268 645l-269 -645h-61l-465 1090q-23 53 -64.5 152t-56.5 134z" glyph-name="Wacute" horiz-adv-x="1929" unicode="Ẃ"/><glyph d="M922 1376l-191 -278h-108l149 278h150zM41 938h152q22 -91 65 -211l184 -526l240 737h90l254 -754l201 627q30 93 37 127h141q-11 -27 -28 -76.5t-29 -79.5l-287 -800h-68l-268 780l-262 -780h-74l-270 745q-12 36 -40.5 109t-37.5 102z" glyph-name="wacute" horiz-adv-x="1445" unicode="ẃ"/><glyph d="M696 1645q0 37 26.5 63.5t63.5 26.5t65 -27t28 -63q0 -38 -28 -64.5t-65 -26.5t-63.5 26.5t-26.5 64.5zM1059 1645q0 37 26.5 63.5t63.5 26.5t64.5 -26.5t27.5 -63.5q0 -38 -27.5 -64.5t-64.5 -26.5t-63.5 26.5t-26.5 64.5zM49 1376h164l457 -1165l227 580l-248 585h154 l182 -413l164 413h145l-241 -581l215 -584l456 1165h156q-28 -66 -57 -132t-62 -142l-467 -1102h-61l-268 645l-269 -645h-61l-465 1090q-23 53 -64.5 152t-56.5 134z" glyph-name="Wdieresis" horiz-adv-x="1929" unicode="Ẅ"/><glyph d="M459 1255q0 37 26.5 64t63.5 27t64.5 -27t27.5 -64q0 -38 -27.5 -64t-64.5 -26t-63.5 26t-26.5 64zM821 1255q0 37 26.5 64t63.5 27t65 -27t28 -64q0 -38 -28 -64t-65 -26t-63.5 26t-26.5 64zM41 938h152q22 -91 65 -211l184 -526l240 737h90l254 -754l201 627 q30 93 37 127h141q-11 -27 -28 -76.5t-29 -79.5l-287 -800h-68l-268 780l-262 -780h-74l-270 745q-12 36 -40.5 109t-37.5 102z" glyph-name="wdieresis" horiz-adv-x="1445" unicode="ẅ"/><glyph d="M406 1765h149l150 -278h-109zM522 0q6 264 6 328v268l-323 532l-156 248h168q19 -38 105 -188l282 -469l275 463q13 21 53 93.5t57 100.5h162q-12 -22 -67 -107t-83 -132l-329 -543v-268q0 -44 6 -326h-156z" glyph-name="Ygrave" horiz-adv-x="1200" unicode="Ỳ"/><glyph d="M297 1376h149l150 -278h-109zM45 938h158q13 -31 36 -93.5t35 -92.5l228 -596l237 585q36 88 68 197h149l-88 -205l-395 -905q-53 -122 -126.5 -173.5t-188.5 -51.5h-58l19 94q73 0 113.5 13.5t69.5 47t63 105.5l75 160l-282 655q-7 16 -48 111.5t-65 148.5z" glyph-name="ygrave" horiz-adv-x="1001" unicode="ỳ"/><glyph d="M98 442v105h910v-105h-910z" glyph-name="endash" horiz-adv-x="1105" unicode="–"/><glyph d="M98 442v105h1860v-105h-1860z" glyph-name="emdash" horiz-adv-x="2056" unicode="—"/><glyph d="M18 442v105h1629v-105h-1629z" glyph-name="uni2015" horiz-adv-x="1730" unicode="―"/><glyph d="M131 1182q0 130 74 274l88 -8q-37 -107 -37 -238q0 -100 23 -206l-125 -31q-23 113 -23 209z" glyph-name="quoteleft" horiz-adv-x="423" unicode="‘"/><glyph d="M258 1247q0 -130 -74 -274l-88 8q37 107 37 238q0 104 -22 206l125 31q22 -108 22 -209z" glyph-name="quoteright" horiz-adv-x="376" unicode="’"/><glyph d="M258 -63q0 -131 -74 -275l-88 8q37 107 37 238q0 105 -22 207l125 30q22 -108 22 -208z" glyph-name="quotesinglbase" horiz-adv-x="376" unicode="‚"/><glyph d="M131 1182q0 130 74 274l88 -8q-37 -107 -37 -238q0 -100 23 -206l-125 -31q-23 113 -23 209zM520 1182q0 130 74 274l88 -8q-37 -107 -37 -238q0 -100 23 -206l-125 -31q-23 113 -23 209z" glyph-name="quotedblleft" horiz-adv-x="813" unicode="“"/><glyph d="M258 1247q0 -130 -74 -274l-88 8q37 107 37 238q0 104 -22 206l125 31q22 -108 22 -209zM647 1247q0 -130 -74 -274l-88 8q37 107 37 238q0 104 -22 206l125 31q22 -108 22 -209z" glyph-name="quotedblright" horiz-adv-x="765" unicode="”"/><glyph d="M258 -63q0 -131 -74 -275l-88 8q37 107 37 238q0 105 -22 207l125 30q22 -108 22 -208zM647 -63q0 -131 -74 -275l-88 8q37 107 37 238q0 105 -22 207l125 30q22 -108 22 -208z" glyph-name="quotedblbase" horiz-adv-x="765" unicode="„"/><glyph d="M115 895v117q191 -15 291 -15q0 39 -15 324h129q-14 -252 -14 -324q141 0 291 15v-117q-185 14 -291 14q0 -37 4 -259t4 -267q0 -220 2 -277h-121q2 59 2 277q0 39 4.5 261t4.5 265q-53 0 -291 -14z" glyph-name="dagger" horiz-adv-x="911" unicode="†"/><glyph d="M115 907v117q147 -14 282 -14q-10 285 -10 311h125q0 -26 -10 -311q135 0 282 14v-117q-187 13 -282 13q0 -4 1 -39t2 -82t1 -80q0 -44 -2 -108t-2 -103l282 12v-117q-158 15 -282 15l10 -312h-125l10 312q-125 0 -282 -15v119q201 -14 282 -14q-4 140 -4 211q0 33 1 80 t2 82t1 39q-37 0 -155.5 -5.5t-126.5 -7.5z" glyph-name="daggerdbl" horiz-adv-x="899" unicode="‡"/><glyph d="M164 567q0 83 56 141t136 58q82 0 139.5 -58t57.5 -141q0 -82 -57.5 -139t-139.5 -57q-80 0 -136 57t-56 139z" glyph-name="bullet" horiz-adv-x="716" unicode="•"/><glyph d="M145 80q0 40 30.5 70t68.5 30q39 0 67.5 -28.5t28.5 -67.5q0 -38 -30 -67t-70 -31q-37 0 -66 28t-29 66zM760 80q0 40 30 70t68 30q39 0 67.5 -28.5t28.5 -67.5q0 -38 -30 -67t-70 -31q-37 0 -65.5 28t-28.5 66zM1374 80q0 40 30.5 70t68.5 30q39 0 67.5 -28.5 t28.5 -67.5q0 -38 -30.5 -67t-70.5 -31q-37 0 -65.5 28t-28.5 66z" glyph-name="ellipsis" horiz-adv-x="1714" unicode="…"/><glyph d="M98 1040q0 150 88 245t220 95q130 0 215.5 -92.5t85.5 -240.5q0 -147 -87 -241.5t-217 -94.5q-132 0 -218.5 93.5t-86.5 235.5zM279 0l948 1370h114l-954 -1370h-108zM207 1051q0 -117 53.5 -185.5t145.5 -68.5q87 0 140.5 73t53.5 183q0 103 -58.5 170t-142.5 67 q-81 0 -136.5 -67t-55.5 -172zM913 315q0 152 87.5 246t216.5 94q127 0 214 -92.5t87 -240.5q0 -144 -87 -239t-217 -95q-128 0 -214.5 92t-86.5 235zM1661 315q0 152 87.5 246t215.5 94q130 0 217.5 -93t87.5 -240q0 -144 -88 -239t-219 -95q-128 0 -214.5 92.5 t-86.5 234.5zM1020 317q0 -107 53.5 -175t143.5 -68q88 0 142 69t54 179q0 108 -54.5 175.5t-144.5 67.5q-87 0 -140.5 -68.5t-53.5 -179.5zM1767 317q0 -103 54.5 -173t142.5 -70q89 0 143 69t54 179q0 108 -54.5 175.5t-144.5 67.5q-85 0 -140 -69t-55 -179z" glyph-name="perthousand" horiz-adv-x="2367" unicode="‰"/><glyph d="M565 66l-463 380v15l459 381v-117l-321 -272l325 -267v-120z" glyph-name="guilsinglleft" horiz-adv-x="688" unicode="‹"/><glyph d="M123 842l463 -381v-15l-459 -380v116l322 273l-326 266v121z" glyph-name="guilsinglright" horiz-adv-x="688" unicode="›"/><glyph d="M625 1358l-871 -1358h-98l870 1358h99z" glyph-name="fraction" horiz-adv-x="286" unicode="⁄"/><glyph d="M981 170l31 -129q-124 -57 -279 -57q-147 0 -256.5 68t-170.5 180.5t-83 263.5h-147v77h139q-4 62 -4 95q0 36 4 102h-139v78h149q39 237 173.5 381.5t338.5 144.5q114 0 248 -53v-139q-95 71 -235 71q-149 0 -247.5 -106.5t-129.5 -298.5h508l-19 -78h-500 q-4 -62 -4 -98q0 -37 4 -99h488l-16 -77h-461q32 -185 130 -291.5t238 -106.5q147 0 240 72z" glyph-name="Euro" horiz-adv-x="1073" unicode="€"/><glyph d="M205 0q4 180 4 289v760q0 104 -4 342h86l903 -1106v751q0 239 -6 340h151q-8 -98 -8 -327v-773q0 -190 2 -276h-92l-895 1110v-831q0 -153 6 -279h-147zM1462 887q0 150 103 254t252 104t250.5 -104.5t101.5 -253.5q0 -150 -100.5 -252.5t-251.5 -102.5 q-152 0 -253.5 102.5t-101.5 252.5zM1571 887q0 -116 69.5 -194.5t176.5 -78.5q110 0 176.5 77.5t66.5 195.5t-68.5 195t-174.5 77q-73 0 -131 -43t-86.5 -104t-28.5 -125zM2138 385v-100h-635v100h635z" glyph-name="uni2116" horiz-adv-x="2287" unicode="№"/><glyph d="M123 657q-1 125 47.5 244.5t133 211t208 147t262.5 55.5q173 0 323 -86.5t240 -239t90 -332.5q0 -131 -50 -251.5t-135.5 -211t-208 -144.5t-259.5 -54q-131 0 -251 51.5t-207.5 139.5t-139.5 211t-53 259zM205 657q-1 -113 40 -221t114 -191.5t182 -134.5t233 -51 q157 0 288.5 79.5t207.5 217.5t76 301q0 112 -42.5 219t-116 189t-182 132t-231.5 50q-159 0 -289 -79.5t-203.5 -214t-76.5 -296.5zM588 289q0 23 0.5 41t1 27t0.5 12v452q0 8 -1 74t-1 117h194q126 0 195.5 -62.5t69.5 -169.5q0 -105 -70.5 -167t-198.5 -62h-104v-131 q0 -92 2 -131h-88zM961 780q0 77 -48 123.5t-135 46.5h-104v-334h100q90 0 138.5 43.5t48.5 120.5z" glyph-name="uni2117" horiz-adv-x="1550" unicode="℗"/><glyph d="M657 752q3 43 7 147l16 481h84l242 -422l237 422h84l19 -481q6 -124 8 -147h-97q0 96 -2 137l-16 328l-219 -351h-31l-221 385l-10 -362q0 -4 -0.5 -21t-1 -47.5t-0.5 -68.5h-99zM256 752q4 92 4 149v397h-201v78h500v-78h-205v-395q0 -108 2 -151h-100z" glyph-name="trademark" horiz-adv-x="1484" unicode="™"/><glyph d="M78 -4v115q96 -7 266 -7h156q-162 107 -260.5 267.5t-98.5 345.5q0 120 36.5 227t102 187.5t152.5 139.5t190.5 89.5t213.5 30.5q151 0 281.5 -53.5t221.5 -144.5t143 -214.5t52 -261.5q0 -185 -98.5 -345.5t-261.5 -267.5h135q193 0 286 7v-115q-63 4 -323 4h-246v125 q168 85 267.5 244t99.5 342q0 159 -73 289.5t-201 204t-283 73.5q-247 0 -400 -160.5t-153 -406.5q0 -183 98.5 -342t265.5 -244v-125h-264q-242 0 -305 -4z" glyph-name="uni2126" horiz-adv-x="1673" unicode="Ω"/><glyph d="M340 256q43 -78 126.5 -135.5t178.5 -85t189 -27.5q294 0 485 219h115q-214 -243 -607 -243q-113 0 -223 29.5t-206.5 87.5t-169.5 138t-115.5 188t-42.5 230q0 146 63 273.5t168 215t243 137.5t287 50q198 0 365.5 -82t273.5 -240t115 -362h-1245v-393zM1321 1061 q-40 106 -185.5 174t-304.5 68q-67 0 -139 -15.5t-140.5 -45t-125.5 -79t-86 -110.5v-377h981v385z" glyph-name="estimated" horiz-adv-x="1658" unicode="℮"/><glyph d="M424 760q0 -146 2 -166h-113q0 26 2 108t2 107v459l-206 -82l-19 74q181 75 273 118h63q0 -20 -2 -82t-2 -82v-454zM1239 1358l-870 -1358h-99l871 1358h98zM1083 641l-14 86q73 43 178 43q121 0 191.5 -49t70.5 -143q0 -66 -54 -124.5t-142 -68.5q95 -6 158 -63.5 t63 -128.5q0 -98 -76.5 -159t-208.5 -61q-105 0 -196 35l14 84q63 -37 172 -37q84 0 132 39t48 109q0 66 -52 104.5t-148 38.5l-54 -2v78l39 -2q89 0 141 39t52 106q0 59 -40.5 90t-107.5 31q-96 0 -166 -45z" glyph-name="uni2153" horiz-adv-x="1650" unicode="⅓"/><glyph d="M76 602v100q12 13 211 199q162 158 162 248q0 66 -40.5 107.5t-111.5 41.5q-96 0 -180 -61l-21 94q104 58 205 58q124 0 195 -59t71 -165q0 -139 -207 -321q-23 -22 -90.5 -77t-91.5 -79h240q68 0 166 4v-90h-508zM1341 1358l-870 -1358h-98l870 1358h98zM1149 653 l-14 86q73 43 178 43q121 0 191.5 -49t70.5 -143q0 -66 -54.5 -124.5t-142.5 -68.5q95 -6 158 -63.5t63 -128.5q0 -98 -76 -158.5t-208 -60.5q-108 0 -197 34l15 84q61 -36 172 -36q84 0 132 38.5t48 108.5q0 66 -52.5 104.5t-148.5 38.5l-53 -2v78l39 -2q89 0 140.5 39 t51.5 107q0 59 -40 89.5t-107 30.5q-96 0 -166 -45z" glyph-name="uni2154" horiz-adv-x="1716" unicode="⅔"/><glyph d="M78 395q0 129 64 238t172 170.5t233 58.5q200 -6 297 -123q4 32 4 60q0 144 -43 266.5t-132.5 201.5t-209.5 79q-159 0 -277 -76l-20 114q137 78 313 78q234 0 372 -189t138 -511q0 -392 -133.5 -585t-363.5 -193q-175 0 -294.5 117t-119.5 294zM217 395q0 -131 80 -216 t195 -85q315 0 350 490q-42 67 -123 114t-172 47q-144 0 -237 -96.5t-93 -253.5z" glyph-name="partialdiff" horiz-adv-x="1103" unicode="∂"/><glyph d="M49 0q57 123 131 307l438 1090h70l459 -1131q89 -210 117 -266h-1215zM649 1184l-403 -1065h809z" glyph-name="uni2206" horiz-adv-x="1312" unicode="∆"/><glyph d="M231 -274q5 307 5 389v1138h-152l-2 123h1282l-53 -123h-121v-1136q0 -183 4 -391h-154q4 102 4 389v1138h-661v-1138q0 -291 4 -389h-156z" glyph-name="product" horiz-adv-x="1421" unicode="∏"/><glyph d="M600 565l-526 811h624q279 0 398 4l-47 -125q-26 0 -160.5 3.5t-163.5 3.5h-403l440 -691l-471 -735h635q31 0 88.5 2t85.5 2v-123q-12 1 -53.5 3.5t-74.5 4t-44 1.5h-879z" glyph-name="summation" horiz-adv-x="1171" unicode="∑"/><glyph d="M96 457v110h883v-110h-883z" glyph-name="minus" horiz-adv-x="1075" unicode="−"/><glyph d="M117 569l-25 109l303 113l326 -941l436 1827h131l-481 -1953h-162l-346 911z" glyph-name="radical" horiz-adv-x="1325" unicode="√"/><glyph d="M82 614q0 135 90.5 229.5t228.5 94.5q101 0 189 -59.5t188 -180.5q47 55 82 90t83.5 73.5t100.5 57.5t109 19q134 0 223.5 -94.5t89.5 -225.5q0 -133 -90 -229t-229 -96q-99 0 -183.5 57t-191.5 182q-106 -123 -192.5 -181t-186.5 -58q-135 0 -223 92.5t-88 228.5z M1331 614q0 93 -57 152.5t-144 58.5q-65 -1 -118 -40.5t-176 -168.5q96 -113 160 -161.5t141 -48.5q85 0 139.5 58.5t54.5 149.5zM211 612q0 -90 56 -148t141 -58q76 0 156 56.5t141 151.5q-51 59 -79.5 88.5t-68 62.5t-76 46.5t-78.5 13.5q-83 0 -137.5 -60.5t-54.5 -152.5 z" glyph-name="infinity" horiz-adv-x="1548" unicode="∞"/><glyph d="M0 -391l14 112q41 -16 90 -16q33 0 58.5 10.5t42.5 25.5t29 44.5t18 55.5t9.5 71.5t4 78.5t0.5 89q0 81 -7 499t-7 506q0 258 64 375t223 117q56 0 114 -23l-16 -108q-38 14 -82 14q-100 0 -133 -90.5t-33 -290.5q0 -75 8.5 -489t8.5 -502q0 -261 -62 -381.5t-221 -120.5 q-67 0 -123 23z" glyph-name="integral" horiz-adv-x="692" unicode="∫"/><glyph d="M135 618q3 71 46 123t122 52q55 0 160 -49.5t139 -49.5q42 0 61.5 22.5t24.5 65.5h82q-3 -72 -43.5 -123t-120.5 -51q-54 0 -162 47t-141 47q-72 0 -82 -84h-86zM135 332q3 71 46 122.5t122 51.5q55 0 160 -49t139 -49q42 0 61.5 22.5t24.5 65.5h82q-3 -72 -43.5 -123 t-120.5 -51q-54 0 -162 47t-141 47q-72 0 -82 -84h-86z" glyph-name="approxequal" horiz-adv-x="905" unicode="≈"/><glyph d="M979 635h-303l-137 -242h440v-112h-506l-117 -205h-112l116 205h-264v112h328l137 242h-465v108h529l114 203h115l-117 -203h242v-108z" glyph-name="notequal" horiz-adv-x="1089" unicode="≠"/><glyph d="M948 1112v-123l-708 -313l708 -311v-123l-852 395v78zM973 0h-883v111h883v-111z" glyph-name="lessequal" horiz-adv-x="1075" unicode="≤"/><glyph d="M115 1112l852 -397v-78l-852 -395v123l708 311l-708 313v123zM90 0v111h883v-111h-883z" glyph-name="greaterequal" horiz-adv-x="1075" unicode="≥"/><glyph d="M1276 1374q92 0 148.5 -56.5t56.5 -148.5v-970q0 -88 -56.5 -143.5t-148.5 -55.5h-971q-88 0 -143.5 55.5t-55.5 143.5v970q0 92 55.5 148.5t143.5 56.5h971zM268 279q0 -57 46.5 -87t111.5 -30h811l-446 522v528h-365q-64 0 -111 -32.5t-47 -89.5v-811z" glyph-name="filledbox" horiz-adv-x="1984" unicode="■"/><glyph d="M92 1124q0 3 2 10.5t2 10.5q8 25 24 32t38 -6q25 -20 28 -22q16 -18 48 -49t45 -45q0 -2 4 -2q2 1 4 3.5t4 2.5q91 115 237 176q79 30 148 41q71 11 125 6q125 -7 221 -49q125 -56 201 -137q91 -97 137 -209q19 -50 -6.5 -96t-79.5 -56q-37 -5 -72 13.5t-47 52.5 q-33 71 -61 106q-75 89 -189 133q-75 29 -153 23q-129 -6 -232 -90q-35 -24 -76 -76q-2 -4 -2 -6q2 0 2 -4q11 -11 47 -45.5t54 -53.5q8 -7 26 -38q5 -23 -18 -39q-4 -4 -10 -6t-13 -4t-10 -3h-28h-267q-40 0 -67 19q-54 34 -66 98v2v307zM1464 180q-4 -6 -4 -20 q-8 -23 -23.5 -29.5t-37.5 6.5q-16 6 -29 23q-15 13 -30 28t-34 35t-30 31q0 2 -2 2q-8 -4 -8 -10q-96 -110 -238 -172q-48 -24 -147 -43q-86 -8 -127 -8q-110 6 -219 51q-111 45 -201 135q-88 94 -137 213q-19 50 6 95t76 52q38 7 72.5 -11t49.5 -52q20 -53 62 -105 q73 -94 184 -133q77 -28 154 -22q129 6 235 86q42 33 74 80q0 4 4 4q-4 2 -6 2q-16 16 -48.5 50.5t-49.5 51.5q-21 21 -25 39q-7 24 14 39q20 8 37 8q10 4 29 4h266q32 0 68 -18q54 -39 65 -98v-2v-312z" glyph-name="H22073" horiz-adv-x="1705" unicode="□"/><glyph d="M915 1540l-213 -747h504l-966 -1031l272 764h-463z" glyph-name="uni25A2" horiz-adv-x="1280" unicode="▢"/><glyph d="M1487 1176l-25 22l-123 -156q80 -104 109 -194l-84 -33q-6 14 -16.5 35.5t-12.5 26.5l-256 -232l359 -401l49 -213l-227 32l-408 373l-412 -373l-223 -32l43 213l361 401l-256 232q-18 -32 -25 -62l-88 33q40 107 113 194l-127 156l-25 -22l-47 51l119 119l51 -48 l-23 -24l156 -123q92 76 195 109l36 -84q-11 -5 -32 -14.5t-33 -14.5l217 -242l213 242q-21 11 -61 29l32 84q98 -31 199 -109l156 123l-23 24l51 48l119 -119z" glyph-name="uni25A3" horiz-adv-x="1705" unicode="▣"/><glyph d="M1249 1333q19 -88 83 -149.5t153 -73.5l-129 -782l-502 -281l-502 281l-133 782q90 12 154.5 73t83.5 150h792z" glyph-name="uni25A4" horiz-adv-x="1705" unicode="▤"/><glyph d="M1585 946q0 -48 -6 -98q-28 -131 -117 -217q-391 -391 -588 -586q-10 -13 -26 -13t-29 13q-337 341 -583 584q-102 105 -119 235q-10 75 2 140q31 146 139 235q138 121 330 96q132 -19 221 -108q6 -5 13 -12t15 -15.5t13 -13.5v4q31 34 70 65q137 104 311 80 q133 -18 231 -116q97 -101 117 -232q1 -7 3 -20.5t3 -20.5z" glyph-name="uni25A5" horiz-adv-x="1705" unicode="▥"/><glyph d="M948 985q162 -25 281 -168t119 -325q0 -134 -73.5 -248t-194.5 -179t-259 -65q-136 0 -255.5 65t-192 179t-72.5 248q0 182 118.5 325t280.5 168v248q-23 0 -41 18.5t-18 40.5q0 24 18 43t41 19h248q23 0 41.5 -19.5t18.5 -42.5q0 -22 -18.5 -40.5t-41.5 -18.5v-248z" glyph-name="uni25A6" horiz-adv-x="1703" unicode="▦"/><glyph d="M868 1401q132 0 246.5 -70t184 -193.5t69.5 -269.5v-532l-367 -334l64 602l168 68v196q-113 0 -297 -67v-266l-68 -66l-67 66v266q-191 67 -299 67v-196l166 -68l65 -602l-399 334v532q0 148 70 270t192.5 192.5t271.5 70.5z" glyph-name="uni25A7" horiz-adv-x="1699" unicode="▧"/><glyph d="M1200 1389q176 -112 281.5 -314t105.5 -444q-38 -34 -103 -82t-121 -87t-118 -93.5t-105.5 -106.5t-72.5 -120t-29 -140h-360q0 72 -35 147.5t-85 134.5t-119 119.5t-123.5 99t-112 78t-72.5 50.5q0 242 104 444t279 314q22 -73 46 -134.5t43.5 -104.5t48.5 -85.5 t46.5 -65.5t52.5 -56t50.5 -46t56.5 -47q100 94 136 136q111 131 196 373q5 14 10 30zM543 455q88 0 149.5 50.5t61.5 125.5q0 45 -109 89q-115 47 -223 49q-94 2 -94 -40q0 -80 66.5 -177t148.5 -97zM1171 455q57 0 109.5 49.5t80.5 112.5t28 112q0 46 -109 40 q-114 -7 -223 -55q-94 -42 -94 -83q0 -75 60.5 -125.5t147.5 -50.5z" glyph-name="uni25A8" horiz-adv-x="1697" unicode="▨"/><glyph d="M1096 1323h219v-1128q-231 -138 -467 -138q-234 0 -465 138v1128h192v-219h162v219h221v-219h138v219z" glyph-name="uni25A9" horiz-adv-x="1701" unicode="▩"/><glyph d="M602 573l-532 156l532 168l248 621l248 -621l532 -168l-532 -156l-248 -628z" glyph-name="H18543" horiz-adv-x="1701" unicode="▪"/><glyph d="M106 647l406 674h76l405 -674l-405 -676h-76zM248 649l301 -524l301 526l-299 512z" glyph-name="lozenge" horiz-adv-x="1099" unicode="◊"/><glyph d="M-76 -510v107h119q178 0 178 282v856q0 160 -4 203h143q-4 -47 -4 -203v-862q0 -383 -313 -383h-119z" glyph-name="uniF6BE" horiz-adv-x="571" unicode=""/><glyph d="M49 0q30 65 135 324l394 968l-70 99h178l465 -1129q28 -68 123 -262h-172l-170 424h-565l-164 -424h-154zM649 1163l-241 -626h481z" glyph-name="A.alt" horiz-adv-x="1323"/><glyph d="M123 678q0 147 51 277.5t143.5 228t231.5 154.5t305 57q190 0 360 -66v-143q-141 86 -352 86q-262 0 -425 -161.5t-163 -424.5q0 -120 39.5 -227t111.5 -187.5t181.5 -128t241.5 -47.5q157 0 264 56v434h-369l27 114h479v-643q-198 -80 -409 -80q-206 0 -368.5 85 t-255.5 245.5t-93 370.5z" glyph-name="G.alt" horiz-adv-x="1421"/><glyph d="M356 -37q0 -169 -91.5 -265.5t-256.5 -96.5q-67 0 -149 22v125q55 -27 141 -27q103 0 158 68.5t55 190.5v1050q0 246 -4 346h149q-2 -186 -2 -346v-1067z" glyph-name="J.alt" horiz-adv-x="563"/><glyph d="M1190 82q141 -151 240 -248h-183q-83 105 -164 195q-129 -52 -266 -52q-146 0 -274.5 54t-221 147.5t-145.5 225t-53 282.5q0 198 91 360.5t250 255.5t353 93q193 0 352.5 -94t250.5 -256.5t91 -358.5q0 -192 -86 -351t-235 -253zM817 96q87 0 176 29q-108 111 -205 203 h179l135 -150q120 76 188 209t68 299q0 250 -154 419t-387 169q-151 0 -275 -75t-196 -210t-72 -303q0 -257 153.5 -423.5t389.5 -166.5z" glyph-name="Q.alt" horiz-adv-x="1634"/><glyph d="M49 1376h162l352 -1124l352 1124h46l354 -1124l336 1124h157q-28 -85 -149 -461l-303 -923h-99l-319 1040l-332 -1040h-92l-235 696q-46 135 -128.5 382.5t-101.5 305.5z" glyph-name="W.alt" horiz-adv-x="1857"/><glyph d="M49 1376h164l352 -1124h8l301 899q-16 43 -41.5 119.5t-35.5 105.5h159l369 -1124h8l336 1124h158q-11 -33 -54 -166t-67 -204l-332 -1014h-106l-322 973l-330 -973h-100l-362 1077q-20 58 -58 170t-47 137z" glyph-name="W.alt2" horiz-adv-x="1875"/><glyph d="M197 1255q0 37 26.5 64t63.5 27t64.5 -27t27.5 -64q0 -38 -27.5 -64t-64.5 -26t-63.5 26t-26.5 64zM213 0q6 45 6 201v534q0 160 -6 203h147q-6 -47 -6 -203v-534q0 -160 6 -201h-147z" glyph-name="i.loclTRK" horiz-adv-x="571"/><glyph d="M-94 -500l14 117q54 -25 115 -25q52 0 89 21.5t57 59.5t29 82.5t9 99.5v972h-139v111h139v166q0 173 79 276t228 103q50 0 154 -23l-14 -117q-53 27 -115 27q-100 0 -148.5 -74.5t-48.5 -187.5v-170h238l-19 -111h-219v-968q0 -176 -73.5 -278.5t-221.5 -102.5 q-54 0 -153 22z" glyph-name="f.alt" horiz-adv-x="659"/><glyph d="M152 1255q0 37 26 64t62 27q38 0 65 -27t27 -64q0 -38 -27 -64t-65 -26q-37 0 -62.5 26t-25.5 64zM166 0q4 45 4 201v647h-80l37 90h182q-4 -51 -4 -227v-510q0 -160 4 -201h-143z" glyph-name="i.alt" horiz-adv-x="466"/><glyph d="M145 1255q0 37 27 64t64 27t64.5 -27t27.5 -64q0 -38 -27.5 -64t-64.5 -26t-64 26t-27 64zM-125 -510l53 107h56q178 0 178 282v969h-78l37 90h180q-4 -51 -4 -227v-910q0 -155 -89 -233t-224 -78h-109z" glyph-name="j.alt" horiz-adv-x="462"/><glyph d="M223 0q0 44 2 133t2 133v559h-157v111h157v80q0 106 -2 151l140 25q-3 -88 -3 -178v-78h275l-21 -111h-254v-569q0 -43 2.5 -128t2.5 -128h-144z" glyph-name="t.alt" horiz-adv-x="727"/><glyph d="M90 850l41 88h180q-6 -45 -6 -213v-328q0 -157 57.5 -229t172.5 -72q77 0 147.5 52.5t110.5 144.5v412q0 157 -2 233h141q-4 -72 -4 -225v-527q0 -120 16 -186h-115l-34 123q-94 -139 -285 -139q-168 0 -254 98.5t-86 308.5v459h-80z" glyph-name="u.alt" horiz-adv-x="1155"/><glyph d="M41 936h145q16 -41 54 -113l323 -630l90 235l-217 508h156l129 -336l123 336h145l-211 -490l99 -253l323 626l62 117h143q-18 -32 -62 -117l-432 -835h-69l-127 299l-125 -299h-68l-411 821q-15 29 -39 73t-31 58z" glyph-name="w.alt" horiz-adv-x="1445"/><glyph d="M195 -483q71 132 147 297l98 211l-286 661q-13 30 -50.5 117t-58.5 133h158l73 -188l228 -588l225 575q11 28 37 96.5t41 104.5h149l-108 -244l-529 -1177z" glyph-name="y.alt" horiz-adv-x="1001"/><glyph d="M102 678q0 324 119 511t328 187t329.5 -190t120.5 -508q0 -317 -120 -506.5t-330 -189.5t-328.5 188t-118.5 508zM254 678q0 -273 77.5 -426.5t217.5 -153.5q141 0 220 155.5t79 424.5q0 267 -79.5 422t-219.5 155t-217.5 -153.5t-77.5 -423.5z" glyph-name="zero.non" horiz-adv-x="1101"/><glyph d="M500 0q2 84 2 205v1016q-209 -90 -297 -138l-27 109q196 87 383 184h84q0 -26 -2 -129t-2 -129v-915q0 -97 4 -203h-145z" glyph-name="one.non" horiz-adv-x="960"/><glyph d="M127 0v102q625 534 625 856q0 141 -80 222.5t-217 81.5q-92 0 -171.5 -27.5t-129.5 -79.5v148q48 35 134 60.5t185 25.5q196 0 311 -109t115 -301q0 -97 -34.5 -191t-130 -217.5t-156 -190.5t-218.5 -231q-20 -21 -30 -32h323q191 0 289 8v-125h-815z" glyph-name="two.non" horiz-adv-x="1056"/><glyph d="M180 -182v129q106 -53 248 -53q150 0 238 74.5t88 207.5q0 123 -93.5 191.5t-244.5 68.5q-55 0 -90 -2v113q14 0 39 -1t38 -1q149 0 232.5 70.5t83.5 189.5q0 120 -70 189t-190 69q-155 0 -279 -86v135q160 70 289 70q185 0 291 -96t106 -263q0 -108 -73.5 -192.5 t-206.5 -128.5q144 -34 232.5 -124t88.5 -208q0 -175 -126.5 -284t-338.5 -109q-141 0 -262 41z" glyph-name="three.non" horiz-adv-x="1079"/><glyph d="M672 -180q6 62 6 153v244h-610v78l680 899h73v-870q111 0 221 4v-113q-49 2 -221 2v-240q0 -85 8 -161zM678 324l4 637l-463 -637h459z" glyph-name="four.non" horiz-adv-x="1103"/><glyph d="M143 -190v129q114 -68 254 -68q155 0 256 85t101 224q0 132 -92.5 215.5t-278.5 83.5q-118 0 -188 -22l16 141l55 561q105 -6 213 -6h207q106 0 188 6v-127q-122 4 -204 4h-285l-51 -465q66 17 115 17q213 0 336.5 -108.5t123.5 -295.5q0 -186 -135 -309t-358 -123 q-69 0 -145 17.5t-128 40.5z" glyph-name="five.non" horiz-adv-x="1054"/><glyph d="M94 432q0 138 47.5 276.5t131.5 259.5t194.5 227t241.5 189l186 -2q-199 -111 -377.5 -291.5t-243.5 -363.5q127 131 308 131q75 0 151 -34.5t135.5 -91.5t97.5 -138.5t38 -169.5q0 -112 -61 -212.5t-167.5 -163t-230.5 -62.5q-122 0 -226 59t-164.5 161.5t-60.5 225.5z M240 428q0 -137 89 -234.5t224 -97.5q141 0 225 95t84 231q0 132 -93.5 223.5t-221.5 91.5q-126 0 -216.5 -88.5t-90.5 -220.5z" glyph-name="six.non" horiz-adv-x="1087"/><glyph d="M111 1047l-17 127q89 -3 217 -3h367q42 0 127 2.5t127 2.5q-89 -194 -156 -353l-330 -743q-69 -152 -118 -285h-166q2 6 41 76.5t61 118.5l471 1061h-471q-75 0 -153 -4z" glyph-name="seven.non" horiz-adv-x="1019"/><glyph d="M111 356q0 116 79 211t205 142q-115 52 -180 134t-65 181q0 152 113 251t284 99q170 0 281.5 -100.5t111.5 -241.5q0 -103 -66 -186t-182 -133q136 -50 213.5 -141t77.5 -207q0 -166 -122.5 -273.5t-319.5 -107.5q-193 0 -311.5 102.5t-118.5 269.5zM297 1026 q0 -105 73 -172.5t199 -89.5q101 22 162.5 92.5t61.5 161.5q0 103 -70 171t-178 68t-178 -65t-70 -166zM260 375q0 -125 81 -201t204 -76q125 0 208 75t83 189q0 119 -87.5 192.5t-226.5 98.5q-110 -18 -186 -96t-76 -182z" glyph-name="eight.non" horiz-adv-x="1101"/><glyph d="M993 766q0 -183 -83 -364.5t-219 -328.5t-312 -259l-186 2q199 111 377 291.5t243 363.5q-127 -131 -307 -131q-75 0 -151 34.5t-135.5 91.5t-97.5 138.5t-38 169.5q0 112 61 212.5t167.5 163t230.5 62.5q122 0 225.5 -59t164 -161.5t60.5 -225.5zM848 770 q0 137 -89 234.5t-224 97.5q-141 0 -225.5 -95t-84.5 -231q0 -132 94 -223.5t222 -91.5q126 0 216.5 88.5t90.5 220.5z" glyph-name="nine.non" horiz-adv-x="1087"/><glyph d="M100 678q0 324 119 511t328 187t329.5 -190t120.5 -508q0 -317 -120 -506.5t-330 -189.5t-328.5 188t-118.5 508zM252 678q0 -273 77.5 -426.5t217.5 -153.5q141 0 220 155.5t79 424.5q0 267 -79.5 422t-219.5 155t-217.5 -153.5t-77.5 -423.5z" glyph-name="zero.tf" horiz-adv-x="1097"/><glyph d="M547 0q2 84 2 205v1016q-209 -90 -297 -138l-27 109q196 87 383 184h84q0 -26 -2 -129t-2 -129v-915q0 -97 4 -203h-145z" glyph-name="one.tf" horiz-adv-x="1097"/><glyph d="M139 0v102q625 534 625 856q0 141 -80 222.5t-217 81.5q-92 0 -171.5 -27.5t-129.5 -79.5v148q48 35 134 60.5t185 25.5q196 0 311 -109t115 -301q0 -97 -34.5 -191t-130 -217.5t-156 -190.5t-218.5 -231q-20 -21 -30 -32h324q190 0 288 8v-125h-815z" glyph-name="two.tf" horiz-adv-x="1097"/><glyph d="M201 23v129q108 -54 248 -54q150 0 237.5 75t87.5 208q0 123 -93.5 191.5t-244.5 68.5q-55 0 -90 -2v113q14 0 39 -1t39 -1q149 0 232 70.5t83 189.5q0 120 -70 189t-190 69q-154 0 -278 -86v135q158 69 288 69q185 0 291.5 -95.5t106.5 -262.5q0 -108 -74 -192.5 t-207 -128.5q145 -34 233.5 -124t88.5 -208q0 -175 -126.5 -284t-338.5 -109q-141 0 -262 41z" glyph-name="three.tf" horiz-adv-x="1097"/><glyph d="M666 4q6 61 6 154v243h-611v78l680 899h74v-870q111 0 221 4v-113q-49 2 -221 2v-239q0 -86 8 -162zM672 508l4 637l-463 -637h459z" glyph-name="four.tf" horiz-adv-x="1097"/><glyph d="M184 35v129q114 -68 254 -68q155 0 256 85.5t101 224.5q0 132 -92.5 215.5t-278.5 83.5q-115 0 -188 -23l16 141l55 561q105 -6 213 -6h207q106 0 188 6v-127q-153 5 -204 5h-285l-51 -465q62 16 114 16q213 0 337 -108t124 -295q0 -186 -135.5 -309.5t-357.5 -123.5 q-69 0 -145 17.5t-128 40.5z" glyph-name="five.tf" horiz-adv-x="1097"/><glyph d="M82 432q0 183 83 364.5t219 328.5t312 259l187 -2q-199 -111 -377.5 -291.5t-243.5 -363.5q127 131 307 131q75 0 151 -34.5t135.5 -91.5t97.5 -138.5t38 -169.5q0 -112 -61 -212.5t-167.5 -163t-230.5 -62.5q-122 0 -225.5 59t-164 161.5t-60.5 225.5zM227 428 q0 -136 89.5 -234t224.5 -98q141 0 225 95t84 231q0 132 -93.5 223.5t-221.5 91.5q-127 0 -217.5 -88.5t-90.5 -220.5z" glyph-name="six.tf" horiz-adv-x="1097"/><glyph d="M176 1251l-16 127q59 -2 217 -2h366q42 0 127 2t127 2q-83 -180 -155 -352l-330 -743q-74 -163 -119 -285h-166q2 5 41.5 76t61.5 119l471 1060h-471q-76 0 -154 -4z" glyph-name="seven.tf" horiz-adv-x="1097"/><glyph d="M113 356q0 116 79 211t205 142q-115 52 -180 134t-65 181q0 152 113 251t284 99q170 0 281.5 -100.5t111.5 -241.5q0 -103 -66 -186t-182 -133q136 -50 213.5 -141t77.5 -207q0 -166 -122.5 -273.5t-319.5 -107.5q-193 0 -311.5 102.5t-118.5 269.5zM299 1026 q0 -105 73 -172.5t199 -89.5q101 22 162.5 92.5t61.5 161.5q0 103 -70 171t-178 68t-178 -65t-70 -166zM262 375q0 -125 81 -201t204 -76q125 0 208 75t83 189q0 119 -87.5 192.5t-226.5 98.5q-110 -18 -186 -96t-76 -182z" glyph-name="eight.tf" horiz-adv-x="1097"/><glyph d="M993 950q0 -183 -83 -364.5t-219 -328.5t-312 -259l-186 2q199 111 377 291.5t243 363.5q-127 -131 -307 -131q-75 0 -151 34.5t-135.5 91.5t-97.5 138.5t-38 169.5q0 83 36.5 163t97.5 141t146.5 98t178.5 37q122 0 225.5 -59t164 -162t60.5 -226zM848 954 q0 137 -89 234.5t-224 97.5q-141 0 -225.5 -94.5t-84.5 -230.5q0 -132 94 -224t222 -92q126 0 216.5 88.5t90.5 220.5z" glyph-name="nine.tf" horiz-adv-x="1097"/><glyph glyph-name="CR" horiz-adv-x="450"/><glyph d="M-707 1384h132q2 -80 44.5 -126t127.5 -46q86 0 127 45.5t43 126.5h131q-2 -130 -81.5 -207t-219.5 -77q-142 0 -222 77t-82 207z" glyph-name="brevecombcy"/></font>
</defs>
</svg>
