<svg xmlns="http://www.w3.org/2000/svg" xmlns:xlink="http://www.w3.org/1999/xlink" version="1.1"><metadata>Created by FontForge 20170731 at Tue Mar 23 16:28:44 2021 By Aleksey,,, Copyright 2013 Valve Corporation. See license metadata for details.</metadata><defs><font id="Radiance-RegularCondensed" horiz-adv-x="0"><font-face x-height="946" ascent="1526" bbox="-690 -522 1739 1868" cap-height="1376" descent="-522" font-family="Radiance Condensed" font-stretch="condensed" font-weight="400" panose-1="0 0 5 6 0 0 0 0 0 0" underline-position="-307" underline-thickness="102" unicode-range="U+0020-FB02" units-per-em="2048"/><glyph glyph-name=".notdef" horiz-adv-x="337"/><glyph glyph-name=".null"/><glyph glyph-name="nonmarkingreturn" horiz-adv-x="682"/><glyph glyph-name="space" horiz-adv-x="378"/><glyph d="M135 1376h168q-2 -49 -2 -229v-500q0 -180 2 -231h-168q6 68 6 231v500q0 172 -6 229zM111 102q0 54 32 87.5t76 33.5t75.5 -33t31.5 -86q0 -54 -31 -86t-78 -34q-45 0 -75.5 32.5t-30.5 85.5z" glyph-name="exclam" horiz-adv-x="436" unicode="!"/><glyph d="M109 977l-25 489h156l-27 -489h-104zM367 977l-25 489h156l-27 -489h-104z" glyph-name="quotedbl" horiz-adv-x="581" unicode="&quot;"/><glyph d="M51 399l10 121h160l43 332h-155l8 121h166l49 366h112l-49 -366h185l49 366h114l-51 -366h148l-11 -121h-155l-43 -332h153l-6 -121h-166l-53 -381h-113l52 381h-185l-51 -381h-115l56 381h-152zM563 852h-186l-45 -332h186z" glyph-name="numbersign" horiz-adv-x="886" unicode="#"/><glyph d="M135 94l15 164q73 -84 210 -84q71 0 112.5 47t41.5 139q0 129 -152 269q-51 49 -84.5 88.5t-64 87.5t-45 101.5t-14.5 113.5q0 112 54.5 188t153.5 105v149h105v-141q82 -6 172 -39v-156q-80 64 -180 64q-64 0 -103 -41.5t-39 -120.5q0 -70 37.5 -133t132.5 -154 q94 -92 145.5 -177.5t51.5 -188.5q0 -130 -59 -214t-166 -112v-160h-105v150q-129 6 -219 55z" glyph-name="dollar" horiz-adv-x="808" unicode="$"/><glyph d="M63 1038q0 148 68.5 246t169.5 98t169.5 -94.5t68.5 -243.5q0 -148 -68.5 -245t-169.5 -97t-169.5 95.5t-68.5 240.5zM193 0l716 1370h129l-721 -1370h-124zM178 1047q0 -108 34 -170t89 -62q54 0 88.5 64t34.5 163q0 98 -35 162t-90 64q-51 0 -86 -62.5t-35 -158.5z M690 319q0 152 69.5 248.5t170.5 96.5q99 0 167 -95t68 -243q0 -146 -68.5 -243t-168.5 -97q-101 0 -169.5 94.5t-68.5 238.5zM805 322q0 -99 34 -161.5t91 -62.5q54 0 87.5 64t33.5 164q0 99 -34 161t-89 62t-89 -62.5t-34 -164.5z" glyph-name="percent" horiz-adv-x="1228" unicode="%"/><glyph d="M80 332q0 120 63 234.5t176 199.5q-40 63 -59 98.5t-36 90t-17 110.5q0 122 73 204.5t181 82.5q103 0 174.5 -76t71.5 -203q0 -182 -195 -321q121 -188 213 -342q116 196 162 319h157q-87 -178 -237 -424q103 -161 201 -170l16 -145q-71 1 -121.5 20.5t-90 57.5 t-95.5 112q-67 -96 -151 -147t-175 -51q-140 0 -225.5 93.5t-85.5 256.5zM346 1069q0 -90 94 -227q138 103 138 231q0 75 -32.5 117.5t-86.5 42.5q-50 0 -81.5 -46.5t-31.5 -117.5zM233 342q0 -108 49.5 -164.5t129.5 -56.5q116 0 221 166q-64 111 -242 385 q-72 -54 -115 -147t-43 -183z" glyph-name="ampersand" horiz-adv-x="1087" unicode="&amp;"/><glyph d="M109 977l-25 489h156l-27 -489h-104z" glyph-name="quotesingle" horiz-adv-x="323" unicode="'"/><glyph d="M86 551q0 314 74 557.5t239 460.5l95 -72q-248 -417 -248 -944t246 -946l-93 -70q-165 217 -239 459t-74 555z" glyph-name="parenleft" horiz-adv-x="518" unicode="("/><glyph d="M432 559q0 -314 -74 -557.5t-239 -460.5l-94 72q247 415 247 944q0 528 -245 946l92 70q165 -217 239 -459t74 -555z" glyph-name="parenright" horiz-adv-x="518" unicode=")"/><glyph d="M176 817q12 21 131 240q-73 -2 -215 -25v131q135 -19 217 -24q-12 24 -62 113t-69 132l103 64q5 -24 33.5 -110t58.5 -162q13 31 46.5 134.5t41.5 137.5l104 -66q-8 -15 -30.5 -52t-47 -81.5t-55.5 -109.5q191 15 219 22v-129q-115 18 -217 25q66 -142 133 -244l-104 -61 q-13 54 -41.5 141.5t-46.5 130.5q-28 -71 -59 -165.5t-33 -108.5z" glyph-name="asterisk" horiz-adv-x="741" unicode="*"/><glyph d="M72 449v137h262v334h137v-334h262v-137h-262v-334h-137v334h-262z" glyph-name="plus" horiz-adv-x="804" unicode="+"/><glyph d="M285 231q8 -49 8 -118q0 -217 -135 -435l-99 46q70 181 70 337q0 64 -10 136z" glyph-name="comma" horiz-adv-x="391" unicode=","/><glyph d="M66 424v147h397v-147h-397z" glyph-name="hyphen" horiz-adv-x="530" unicode="-"/><glyph d="M92 102q0 54 32.5 87.5t76.5 33.5t75 -33t31 -86q0 -54 -30.5 -86t-77.5 -34q-45 0 -76 32.5t-31 85.5z" glyph-name="period" horiz-adv-x="391" unicode="."/><glyph d="M496 1434l-326 -1508h-147l315 1508h158z" glyph-name="slash" horiz-adv-x="518" unicode="/"/><glyph d="M102 686q0 337 91.5 521t257.5 184q167 0 258.5 -185t91.5 -520q0 -337 -91.5 -520.5t-258.5 -183.5t-258 183.5t-91 520.5zM268 686q0 -267 48 -412t135 -145q88 0 136 144.5t48 412.5q0 267 -48 412t-136 145q-87 0 -135 -145.5t-48 -411.5z" glyph-name="zero" horiz-adv-x="903" unicode="0"/><glyph d="M305 0v207v973q-122 -70 -178 -107l-37 127q188 101 301 176h76l-2 -258v-913q0 -154 2 -205h-162z" glyph-name="one" horiz-adv-x="694" unicode="1"/><glyph d="M100 0v113q185 212 305.5 444.5t120.5 423.5q0 131 -56.5 200.5t-147.5 69.5q-130 0 -207 -86v166q89 72 231 72q159 0 253.5 -106.5t94.5 -303.5q0 -104 -30.5 -215.5t-88 -221.5t-122 -207.5t-148.5 -205.5h227q112 0 191 7v-150h-623z" glyph-name="two" horiz-adv-x="833" unicode="2"/><glyph d="M119 25v157q74 -55 182 -55q94 0 152.5 64.5t58.5 185.5q0 122 -68 192t-172 70q-7 0 -57 -4v141q10 0 26.5 -1t26.5 -1q99 0 159 71t60 183q0 105 -48 166t-130 61q-109 0 -186 -77v161q89 62 205 62q144 0 233.5 -93t89.5 -257q0 -116 -53.5 -202.5t-146.5 -133.5 q104 -43 165.5 -134.5t61.5 -218.5q0 -183 -97.5 -281.5t-258.5 -98.5q-115 0 -203 43z" glyph-name="three" horiz-adv-x="808" unicode="3"/><glyph d="M481 4q6 58 6 154v200h-421v97l509 931h68v-897q60 0 162 5v-138q-35 2 -162 2v-198q0 -78 6 -160zM494 489l4 525l-281 -525h277z" glyph-name="four" horiz-adv-x="872" unicode="4"/><glyph d="M106 37v162q78 -72 189 -72q108 0 174 71t66 205q0 137 -65 211t-187 74q-79 0 -144 -20q0 7 15 155l49 561q61 -6 137 -6h197q73 0 135 6v-155q-86 4 -137 4h-203l-41 -418q27 6 53 6q162 0 260 -108t98 -303q0 -197 -106 -313.5t-277 -116.5q-123 0 -213 57z" glyph-name="five" horiz-adv-x="827" unicode="5"/><glyph d="M98 440q0 269 117 517.5t299 424.5h195q-121 -108 -239.5 -278t-162.5 -324q72 86 180 86q128 0 218 -119t90 -321q0 -205 -98.5 -324.5t-250.5 -119.5t-250 126t-98 332zM260 426q0 -139 51.5 -219t137.5 -80q88 0 138 79t50 218q0 138 -53.5 217.5t-137.5 79.5 q-82 0 -134 -78.5t-52 -216.5z" glyph-name="six" horiz-adv-x="884" unicode="6"/><glyph d="M90 1221l-8 157q39 -2 172 -2h307q35 0 97.5 2t84.5 2q-5 -15 -50.5 -148.5t-63.5 -201.5l-244 -760q-61 -203 -78 -270h-176q10 29 34.5 96.5t37.5 106.5l329 1022h-301q-104 0 -141 -4z" glyph-name="seven" horiz-adv-x="811" unicode="7"/><glyph d="M111 352q0 110 56.5 208.5t149.5 156.5q-83 54 -130.5 143.5t-47.5 190.5q0 150 86.5 245t218.5 95q133 0 217 -95t84 -241q0 -96 -48 -186t-128 -146q207 -132 207 -369q0 -161 -93.5 -265.5t-240.5 -104.5q-145 0 -238 103.5t-93 264.5zM295 1044q0 -93 40.5 -154.5 t119.5 -101.5q61 38 99 106t38 150q0 96 -39.5 148.5t-110.5 52.5q-69 0 -108 -52.5t-39 -148.5zM268 360q0 -99 49 -166t125 -67q77 0 126.5 66.5t49.5 164.5q0 93 -48 166t-138 121q-72 -41 -118 -118.5t-46 -166.5z" glyph-name="eight" horiz-adv-x="888" unicode="8"/><glyph d="M786 942q0 -269 -116.5 -517.5t-298.5 -424.5h-195q121 108 239.5 278t162.5 324q-72 -86 -181 -86q-128 0 -217.5 119t-89.5 321q0 206 98 325.5t250 119.5t250 -126.5t98 -332.5zM625 956q0 139 -51.5 219t-137.5 80q-88 0 -138 -79t-50 -218q0 -138 53 -217t137 -79 q82 0 134.5 78.5t52.5 215.5z" glyph-name="nine" horiz-adv-x="884" unicode="9"/><glyph d="M92 881q0 54 32 87t77 33q44 0 75 -32.5t31 -85.5q0 -54 -30.5 -86.5t-77.5 -34.5q-45 0 -76 33t-31 86zM92 102q0 54 32.5 87.5t76.5 33.5t75 -33t31 -86q0 -54 -30.5 -86t-77.5 -34q-45 0 -76 32.5t-31 85.5z" glyph-name="colon" horiz-adv-x="391" unicode=":"/><glyph d="M92 881q0 54 32 87t77 33q44 0 75 -32.5t31 -85.5q0 -54 -30.5 -86.5t-77.5 -34.5q-45 0 -76 33t-31 86zM285 231q8 -49 8 -118q0 -217 -135 -435l-99 46q70 181 70 337q0 64 -10 136z" glyph-name="semicolon" horiz-adv-x="391" unicode=";"/><glyph d="M715 47l-609 428v100l609 435v-156l-463 -322l463 -325v-160z" glyph-name="less" horiz-adv-x="835" unicode="&lt;"/><glyph d="M733 766v-133h-661v133h661zM733 393v-137h-661v137h661z" glyph-name="equal" horiz-adv-x="804" unicode="="/><glyph d="M121 1012l608 -428v-101l-608 -434v156l463 321l-463 326v160z" glyph-name="greater" horiz-adv-x="835" unicode="&gt;"/><glyph d="M229 401q0 110 23.5 184t97.5 203q99 172 99 277q0 83 -39 128.5t-111 45.5q-105 0 -178 -113v166q76 99 201 99q130 0 208 -88.5t78 -219.5q0 -90 -33.5 -176.5t-99.5 -195.5q-55 -90 -76 -154t-22 -156h-148zM205 102q0 54 32 87.5t76 33.5t75.5 -33t31.5 -86 q0 -54 -31 -86t-78 -34q-45 0 -75.5 32.5t-30.5 85.5z" glyph-name="question" horiz-adv-x="684" unicode="?"/><glyph d="M381 389q0 174 76.5 299t199.5 125q43 0 85 -27t59 -71l8 88l123 -21l-53 -465q-12 -153 71 -153q73 0 119.5 104.5t46.5 270.5q0 259 -113.5 410t-316.5 151q-98 0 -185.5 -49.5t-153 -139t-104 -224.5t-38.5 -296q0 -284 125.5 -445t320.5 -161q123 0 203 51l2 -115 q-36 -15 -96 -27.5t-109 -12.5q-118 0 -221.5 47.5t-181.5 135.5t-123 223t-45 300q0 182 49 337.5t132 259.5t191.5 163t227.5 59q246 0 401.5 -179t155.5 -480q0 -225 -82.5 -357.5t-210.5 -132.5q-74 0 -120 45.5t-50 135.5q-72 -172 -194 -172q-87 0 -143 89t-56 234z M508 406q0 -100 31.5 -160t85.5 -60q71 0 139 138l22 321q-17 29 -48.5 48.5t-59.5 19.5q-70 0 -120 -88.5t-50 -218.5z" glyph-name="at" horiz-adv-x="1316" unicode="@"/><glyph d="M37 0q69 182 98 276l342 1117h66l350 -1121q40 -121 102 -272h-190l-109 387h-383l-108 -387h-168zM352 528h305l-153 564z" glyph-name="A" horiz-adv-x="1032" unicode="A"/><glyph d="M162 0q4 94 4 360v633q0 295 -2 383h260q152 0 241 -89.5t89 -246.5q0 -96 -45.5 -177t-122.5 -120q108 -37 168.5 -129.5t60.5 -226.5q0 -185 -103.5 -286t-269.5 -101h-280zM592 1018q0 111 -45.5 169t-132.5 58h-84v-450h80q81 0 131.5 58t50.5 165zM647 397 q0 127 -60 197t-155 70h-102v-531h104q97 0 155 68.5t58 195.5z" glyph-name="B" horiz-adv-x="913" unicode="B"/><glyph d="M106 684q0 207 69 370t189.5 253t270.5 90q125 0 246 -54v-174q-95 74 -232 74q-164 0 -267 -155t-103 -402t103.5 -402t264.5 -155q121 0 238 80v-170q-118 -62 -256 -62q-229 0 -376 196.5t-147 510.5z" glyph-name="C" horiz-adv-x="989" unicode="C"/><glyph d="M162 0q4 200 4 377v680q0 155 -4 319h295q115 0 213 -47t169 -133.5t111.5 -217t40.5 -290.5q0 -320 -149 -504t-385 -184h-295zM330 143h116q167 0 270 145.5t103 399.5q0 252 -104 398.5t-269 146.5h-116v-1090z" glyph-name="D" horiz-adv-x="1097" unicode="D"/><glyph d="M162 0l4 332v708q0 148 -4 336h289q167 0 249 4l-24 -151q-66 4 -248 4h-100v-445h104q135 0 234 3v-150q-132 4 -234 4h-104v-502h141q174 0 233 2v-147q-59 2 -229 2h-311z" glyph-name="E" horiz-adv-x="813" unicode="E"/><glyph d="M162 0q4 200 4 354v664q0 158 -4 358h297q175 0 241 4l-24 -151q-49 4 -227 4h-119v-471h112q148 0 207 4v-152q-98 4 -207 4h-112v-270q0 -233 2 -348h-170z" glyph-name="F" horiz-adv-x="786" unicode="F"/><glyph d="M106 684q0 315 153 514t390 199q135 0 258 -60v-170q-123 76 -245 76q-171 0 -277 -153.5t-106 -403.5q0 -249 97.5 -403t264.5 -154q78 0 137 35v221q0 130 -6 256h172q-4 -100 -4 -383v-203q-138 -78 -299 -78q-234 0 -384.5 194.5t-150.5 512.5z" glyph-name="G" horiz-adv-x="1075" unicode="G"/><glyph d="M162 0q2 84 2 305v723q0 262 -2 348h170q-4 -129 -4 -405v-176h497v252q0 161 -4 329h172q-4 -125 -4 -348v-772q0 -178 4 -256h-172q4 160 4 291v358h-497v-358q0 -205 4 -291h-170z" glyph-name="H" horiz-adv-x="1155" unicode="H"/><glyph d="M162 0q4 184 4 336v670q0 166 -4 370h172q-4 -61 -4 -370v-672q0 -236 4 -334h-172z" glyph-name="I" horiz-adv-x="495" unicode="I"/><glyph d="M55 4v152q50 -21 105 -21q149 0 149 217v676q0 250 -4 348h170q-2 -170 -2 -348v-688q0 -171 -79.5 -263.5t-217.5 -92.5q-59 0 -121 20z" glyph-name="J" horiz-adv-x="622" unicode="J"/><glyph d="M162 0q2 94 2 332v710q0 215 -2 334h170q-2 -111 -2 -332v-339l252 444q18 32 41 74.5t47.5 88t34.5 64.5h182q-18 -31 -53.5 -95.5t-55.5 -100.5l-282 -469l327 -529q72 -111 123 -182h-215q-29 59 -92 164l-309 512v-342q0 -211 2 -334h-170z" glyph-name="K" horiz-adv-x="978" unicode="K"/><glyph d="M162 0q2 29 2 377v620q0 273 -2 379h170q-4 -152 -4 -168v-1058h172q172 0 223 4v-158q-63 4 -229 4h-332z" glyph-name="L" horiz-adv-x="765" unicode="L"/><glyph d="M109 0q1 26 5 94t9 148.5t6 101.5l53 1042h117l358 -911l353 911h114l45 -1064q5 -156 19 -322h-166q-5 225 -8 295l-27 676l-313 -811h-41l-318 811l-30 -666l-11 -305h-165z" glyph-name="M" horiz-adv-x="1294" unicode="M"/><glyph d="M162 0q2 88 2 289v753q0 228 -2 351h65l619 -969v610q0 211 -4 342h168q-6 -104 -6 -332v-763q0 -197 4 -285h-70l-614 960v-675q0 -199 4 -281h-166z" glyph-name="N" horiz-adv-x="1171" unicode="N"/><glyph d="M106 686q0 316 142 513.5t368 197.5q150 0 266 -89.5t180 -251.5t64 -370q0 -316 -141.5 -512.5t-368.5 -196.5q-226 0 -368 196t-142 513zM279 686q0 -251 92.5 -405t244.5 -154q153 0 246.5 154.5t93.5 404.5t-93.5 404.5t-246.5 154.5q-151 0 -244 -154.5t-93 -404.5z" glyph-name="O" horiz-adv-x="1234" unicode="O"/><glyph d="M788 942q0 -205 -100.5 -321.5t-279.5 -116.5h-80v-168q0 -198 6 -336h-172q4 180 4 354v723q0 143 -4 299h246q174 0 277 -115.5t103 -318.5zM618 944q0 136 -60 211.5t-159 75.5h-71v-582h73q95 0 156 79t61 216z" glyph-name="P" horiz-adv-x="870" unicode="P"/><glyph d="M1204 -158l21 -135q-71 -22 -146 -22q-144 0 -255 68t-216 224q-224 5 -363 200t-139 509q0 316 142 513.5t368 197.5q150 0 266 -89.5t180 -251.5t64 -370q0 -252 -92 -431.5t-250 -244.5q135 -184 312 -184q58 0 108 16zM279 686q0 -251 92.5 -405t244.5 -154 q153 0 246.5 154.5t93.5 404.5t-93.5 404.5t-246.5 154.5q-151 0 -244 -154.5t-93 -404.5z" glyph-name="Q" horiz-adv-x="1234" unicode="Q"/><glyph d="M786 981q0 -137 -53 -227t-145 -133l151 -312q86 -170 170 -309h-198l-275 563h-108v-207q0 -268 4 -356h-170q4 180 4 362v687q0 171 -4 327h250q166 0 270 -100.5t104 -294.5zM616 969q0 129 -57 195.5t-153 66.5h-78v-524h80q93 0 150.5 67.5t57.5 194.5z" glyph-name="R" horiz-adv-x="962" unicode="R"/><glyph d="M90 43l37 170q39 -45 96.5 -68.5t120.5 -23.5q79 0 128.5 52.5t49.5 141.5q0 82 -46 154.5t-136 167.5q-111 116 -164 207.5t-53 210.5q0 159 85.5 250.5t229.5 91.5q128 0 209 -51v-166q-78 69 -190 69q-72 0 -117 -50t-45 -136q0 -75 38.5 -145.5t121.5 -151.5 q127 -121 184 -221t57 -221q0 -159 -95.5 -255t-248.5 -96q-149 0 -262 70z" glyph-name="S" horiz-adv-x="786" unicode="S"/><glyph d="M391 0q6 141 6 350v617q0 116 -4 264h-88q-165 0 -231 -4v151q32 0 112 -1t127 -1h338q185 0 240 2l-10 -151q-136 4 -232 4h-88q0 -33 -1 -124t-1 -140v-617q0 -221 6 -350h-174z" glyph-name="T" horiz-adv-x="960" unicode="T"/><glyph d="M319 1376q-4 -94 -4 -346v-575q0 -162 62.5 -242t173.5 -80q110 0 171.5 81t61.5 243v573q0 258 -2 346h168q-2 -100 -2 -346v-571q0 -234 -107 -356.5t-290 -122.5q-187 0 -293 123.5t-106 355.5v571q0 121 -5 346h172z" glyph-name="U" horiz-adv-x="1097" unicode="U"/><glyph d="M39 1376h186l297 -1071l297 1071h172q-72 -190 -86 -241l-360 -1160h-58l-354 1135q-42 127 -94 266z" glyph-name="V" horiz-adv-x="1030" unicode="V"/><glyph d="M39 1376h174l309 -1077l146 500l-187 577h154l115 -405l106 405h154l-187 -575l140 -502l307 1077h170l-92 -278l-357 -1100h-55l-197 627l-196 -627h-58l-348 1089z" glyph-name="W" horiz-adv-x="1478" unicode="W"/><glyph d="M43 0q110 221 139 285l187 403l-181 404q-42 97 -131 284h197q23 -80 74 -200l145 -342l152 356q13 30 36 92t37 94h185q-59 -107 -140 -280l-184 -389l201 -439q52 -116 137 -268h-195q-16 48 -71 174l-170 375l-170 -387q-9 -23 -35.5 -90.5t-28.5 -71.5h-184z" glyph-name="X" horiz-adv-x="937" unicode="X"/><glyph d="M395 0q4 188 4 324v260l-241 542q-44 98 -119 250h197q34 -100 69 -182l180 -442l179 436q7 16 33.5 87.5t39.5 100.5h183q-92 -188 -119 -248l-240 -546v-260q0 -46 6 -322h-172z" glyph-name="Y" horiz-adv-x="958" unicode="Y"/><glyph d="M70 0q48 105 114 274l381 957h-227q-160 0 -236 -6l-10 153q70 -2 260 -2h459l-500 -1231h275q84 0 227 5v-152q-57 2 -227 2h-516z" glyph-name="Z" horiz-adv-x="886" unicode="Z"/><glyph d="M119 -424q2 61 2 223v1522q0 164 -2 225h252q75 0 104 4v-135q-29 2 -100 2h-113v-1712h115q71 0 98 2v-133q-20 2 -94 2h-262z" glyph-name="bracketleft" horiz-adv-x="528" unicode="["/><glyph d="M176 1434l322 -1510h-154l-324 1510h156z" glyph-name="backslash" horiz-adv-x="516" unicode="\"/><glyph d="M410 -424h-263q-74 0 -94 -2v133q27 -2 99 -2h114v1712h-112q-72 0 -101 -2v135q29 -4 105 -4h252q-2 -61 -2 -225v-1522q0 -162 2 -223z" glyph-name="bracketright" horiz-adv-x="528" unicode="]"/><glyph d="M571 815l-180 449l-176 -449h-145l288 600h72l291 -600h-150z" glyph-name="asciicircum" horiz-adv-x="788" unicode="^"/><glyph d="M465 -190v-19h-236v19h236z" glyph-name="underscore" horiz-adv-x="694" unicode="_"/><glyph d="M84 274q0 138 77.5 216.5t207.5 89.5q91 6 153 6v69q0 86 -44 132.5t-122 46.5q-94 0 -182 -68l-49 121q47 38 114.5 60t139.5 22q139 0 218 -82.5t79 -241.5v-344q0 -191 26 -301h-153l-12 104q-80 -122 -220 -122q-99 0 -166 80.5t-67 211.5zM240 276q0 -75 31 -116 t83 -41q48 0 94.5 33t75.5 92v219l-110 -4q-174 -7 -174 -183z" glyph-name="a" horiz-adv-x="821" unicode="a"/><glyph d="M199 0h-45v1389h-78l37 104h198q-4 -66 -4 -174v-445q32 41 87 69t122 28q156 0 251 -130t95 -358q0 -236 -96.5 -365.5t-255.5 -129.5q-134 0 -223 106zM307 240q30 -50 77 -78.5t97 -28.5q108 0 166 89t58 259q0 166 -57 255t-161 89q-59 0 -106.5 -31.5t-73.5 -88.5 v-465z" glyph-name="b" horiz-adv-x="954" unicode="b"/><glyph d="M92 471q0 229 108 362.5t281 133.5q113 0 189 -60v-162q-76 76 -174 76q-117 0 -181.5 -92t-64.5 -258t64 -256t184 -90q94 0 174 76v-158q-66 -63 -189 -63q-175 0 -283 131.5t-108 359.5z" glyph-name="c" horiz-adv-x="782" unicode="c"/><glyph d="M92 475q0 236 95.5 365t254.5 129q126 0 205 -82v454h-78l39 107h197q-4 -110 -4 -186v-1026q0 -168 2 -236h-88l-56 98q-38 -51 -97 -81.5t-126 -30.5q-156 0 -250 130t-94 359zM250 475q0 -167 55 -255.5t158 -88.5q58 0 107.5 32.5t76.5 90.5v463q-64 106 -176 106 q-107 0 -164 -89t-57 -259z" glyph-name="d" horiz-adv-x="960" unicode="d"/><glyph d="M92 475q0 130 39 241.5t116.5 182t178.5 70.5q84 0 147.5 -38t100 -102t54 -137.5t17.5 -154.5q0 -55 -4 -91h-491q4 -170 61 -247.5t164 -77.5q116 0 232 96v-149q-95 -88 -240 -88q-173 0 -274 128.5t-101 366.5zM426 834q-58 0 -99 -41t-59 -100t-20 -130h346 q-3 271 -168 271z" glyph-name="e" horiz-adv-x="831" unicode="e"/><glyph d="M186 0q2 88 2 199v610h-116v137h116v213q0 156 69 239t194 83q65 0 133 -27l-25 -137q-37 24 -90 24q-127 0 -127 -178v-217h176l-22 -137h-154v-610q0 -144 2 -199h-158z" glyph-name="f" horiz-adv-x="569" unicode="f"/><glyph d="M92 473q0 236 95 366t253 130q65 0 119 -23.5t88 -60.5l21 61h133q-4 -90 -4 -139v-860q0 -422 -400 -422q-68 0 -141.5 14t-118.5 35l37 131q115 -39 225 -39q121 0 183.5 64t62.5 209v143q-35 -42 -90 -69t-121 -27q-155 0 -248.5 129.5t-93.5 357.5zM250 475 q0 -167 55 -255.5t158 -88.5q57 0 105.5 32t76.5 89v465q-64 106 -174 106q-108 0 -164.5 -88.5t-56.5 -259.5z" glyph-name="g" horiz-adv-x="950" unicode="g"/><glyph d="M137 0q2 53 2 195v1171h-63l37 107h184q-4 -98 -4 -201v-428q31 53 90 87t135 34q123 0 195.5 -83.5t72.5 -240.5v-420q0 -157 5 -221h-160q2 72 2 231v406q0 92 -43 138t-117 46q-57 0 -104.5 -40t-75.5 -109v-482q0 -92 4 -190h-160z" glyph-name="h" horiz-adv-x="894" unicode="h"/><glyph d="M156 1257q0 43 27 75t65 32t65 -32t27 -75q0 -44 -27 -75t-65 -31t-65 31t-27 75zM180 0q6 70 6 201v542q0 156 -6 203h164q-4 -47 -4 -203v-542q0 -158 4 -201h-164z" glyph-name="i" horiz-adv-x="468" unicode="i"/><glyph d="M215 1364q37 0 64.5 -32t27.5 -75q0 -44 -27.5 -75t-64.5 -31q-38 0 -65 31t-27 75q0 43 27 75t65 32zM-47 -498v140h82q129 0 129 215v884q0 160 -6 205h164q-5 -59 -5 -203v-890q0 -172 -68 -261.5t-202 -89.5h-94z" glyph-name="j" horiz-adv-x="438" unicode="j"/><glyph d="M141 0q4 55 4 205v1161h-69l35 107h192q-4 -55 -4 -199v-748l301 420h184q-38 -38 -133 -164l-198 -262l258 -373q52 -82 102 -147h-197l-317 477v-287q0 -131 2 -190h-160z" glyph-name="k" horiz-adv-x="849" unicode="k"/><glyph d="M141 0q4 86 4 201v1165h-69l37 107h190q-4 -39 -4 -177v-1095q0 -158 4 -201h-162z" glyph-name="l" horiz-adv-x="458" unicode="l"/><glyph d="M80 838l37 108h170l10 -110q32 57 87.5 93t119.5 36q73 0 125.5 -38t77.5 -106q38 68 97.5 106t125.5 38q108 0 170.5 -79.5t62.5 -226.5v-469q0 -135 2 -190h-161q2 76 2 221v430q0 170 -117 170q-51 0 -92.5 -39t-67.5 -110v-482q0 -133 2 -190h-158q5 88 5 221v430 q0 170 -117 170q-105 0 -160 -149v-447q0 -162 2 -225h-160q2 86 2 193v645h-65z" glyph-name="m" horiz-adv-x="1271" unicode="m"/><glyph d="M80 838l37 108h170l10 -110q32 59 90.5 94t136.5 35q123 0 196 -83.5t73 -240.5v-420q0 -160 2 -221h-160q4 84 4 231v406q0 92 -43 138t-117 46q-58 0 -105 -39t-75 -110v-441q0 -159 4 -231h-162q4 74 4 231v607h-65z" glyph-name="n" horiz-adv-x="899" unicode="n"/><glyph d="M92 471q0 226 101 361t253 135q154 0 255.5 -135.5t101.5 -360.5t-101 -358t-256 -133q-153 0 -253.5 133.5t-100.5 357.5zM250 471q0 -161 53.5 -254.5t142.5 -93.5q92 0 145.5 92.5t53.5 255.5q0 165 -54 257.5t-145 92.5q-90 0 -143 -95.5t-53 -254.5z" glyph-name="o" horiz-adv-x="894" unicode="o"/><glyph d="M80 840l37 106h196l-2 -78q32 44 87.5 73.5t123.5 29.5q155 0 249.5 -130t94.5 -358q0 -236 -95.5 -365.5t-254.5 -129.5q-128 0 -205 84v-537l-155 -35q0 32 1 100t1 103v1137h-78zM709 481q0 166 -56.5 255t-158.5 89q-62 0 -109 -33.5t-74 -91.5v-460q32 -51 78 -79 t96 -28q108 0 166 89t58 259z" glyph-name="p" horiz-adv-x="958" unicode="p"/><glyph d="M92 475q0 236 95 365t253 129q64 0 118 -23t89 -59l21 59h137q-4 -57 -4 -188v-1010q0 -162 6 -248h-162q2 74 2 246v338q-36 -44 -90.5 -71t-120.5 -27q-156 0 -250 130t-94 359zM250 475q0 -167 55 -255.5t158 -88.5q58 0 107.5 32.5t76.5 90.5v463q-64 106 -176 106 q-108 0 -164.5 -88.5t-56.5 -259.5z" glyph-name="q" horiz-adv-x="960" unicode="q"/><glyph d="M80 840l37 106h157l17 -137q28 69 86.5 113.5t124.5 44.5q43 0 73 -15l-28 -153q-36 12 -68 12q-55 0 -103 -37t-75 -104v-467q0 -26 6 -203h-164q4 148 4 219v621h-67z" glyph-name="r" horiz-adv-x="614" unicode="r"/><glyph d="M84 39l29 156q73 -86 174 -86q54 0 88.5 30t34.5 84q0 49 -31 92t-100 105q-86 79 -128 144t-42 149q0 114 67 184t182 70q95 0 179 -41v-152q-81 62 -164 62q-50 0 -80.5 -28.5t-30.5 -80.5q0 -44 30.5 -84.5t100.5 -103.5q85 -77 128.5 -147t43.5 -156q0 -117 -74 -188 t-192 -71q-59 0 -117.5 16.5t-97.5 45.5z" glyph-name="s" horiz-adv-x="653" unicode="s"/><glyph d="M63 809v137h113v84q0 25 -1 75t-1 71l160 28q-4 -114 -4 -178v-80h198l-22 -137h-176v-541q0 -74 25 -108.5t77 -34.5q46 0 76 27l22 -129q-57 -41 -135 -41q-104 0 -161.5 66t-57.5 198v563h-113z" glyph-name="t" horiz-adv-x="606" unicode="t"/><glyph d="M80 840l39 106h186q-4 -47 -4 -211v-413q0 -99 37 -148t104 -49q53 0 98 39.5t68 109.5v443q0 157 -2 229h162q-4 -68 -4 -221v-532q0 -123 12 -193h-133l-29 106q-32 -56 -86.5 -89t-126.5 -33q-118 0 -186 82t-68 241v533h-67z" glyph-name="u" horiz-adv-x="929" unicode="u"/><glyph d="M223 946q6 -29 43 -174l135 -532l138 551q4 16 11 51t13 62.5t10 41.5h166q-49 -130 -67 -194l-238 -770h-80l-248 774q-20 69 -67 190h184z" glyph-name="v" horiz-adv-x="778" unicode="v"/><glyph d="M35 946h178q16 -89 43 -203l113 -481l147 684h98l166 -688l113 539q4 20 16 74t15 75h159q-39 -122 -53 -184l-196 -780h-89l-180 692l-168 -692h-90l-207 747q-13 54 -65 217z" glyph-name="w" horiz-adv-x="1118" unicode="w"/><glyph d="M41 0q59 105 104 197l136 278l-136 289q-54 114 -98 182h182l152 -356l156 356h165q-27 -45 -96 -192l-135 -281l145 -301q8 -15 25.5 -53.5t32 -67t28.5 -51.5h-172l-157 356l-160 -356h-172z" glyph-name="x" horiz-adv-x="745" unicode="x"/><glyph d="M39 946h182q8 -33 26 -99t21 -79l148 -559l143 551q20 79 43 186h170q-44 -117 -70 -207l-276 -911q-39 -124 -101.5 -175.5t-160.5 -51.5h-68l8 127q86 0 119 23.5t60 105.5l55 161l-215 678q-4 11 -35 104.5t-49 145.5z" glyph-name="y" horiz-adv-x="808" unicode="y"/><glyph d="M49 0l354 805h-200q-53 0 -123 -4l-2 149q74 -4 133 -4h418l-348 -805h217q76 0 131 6v-149q-31 2 -105 2h-475z" glyph-name="z" horiz-adv-x="679" unicode="z"/><glyph d="M53 500v129q140 16 140 227q0 28 -3.5 170t-3.5 168q0 180 80.5 263t243.5 91l4 -137q-94 -6 -137 -60.5t-43 -185.5q0 -24 3 -171.5t3 -174.5q0 -192 -133 -254q133 -65 133 -256q0 -25 -3 -173t-3 -173q0 -132 42.5 -186t137.5 -60l-4 -137q-163 6 -243.5 90t-80.5 264 q0 31 3.5 172.5t3.5 167.5q0 103 -36.5 160.5t-103.5 65.5z" glyph-name="braceleft" horiz-adv-x="555" unicode="{"/><glyph d="M246 1561v-2003h-125v2003h125z" glyph-name="bar" horiz-adv-x="366" unicode="|"/><glyph d="M502 629v-129q-140 -16 -140 -228q0 -28 3.5 -170t3.5 -168q0 -180 -80.5 -263t-243.5 -91l-4 137q94 6 137 60.5t43 185.5q0 24 -3 171.5t-3 174.5q0 192 133 254q-133 65 -133 256q0 25 3 173t3 173q0 132 -42.5 186t-137.5 60l4 137q163 -6 243.5 -90t80.5 -264 q0 -32 -3.5 -173t-3.5 -167q0 -103 36.5 -160t103.5 -65z" glyph-name="braceright" horiz-adv-x="555" unicode="}"/><glyph d="M127 512q8 90 47 142.5t100 52.5q44 0 82 -21.5t69 -43t56 -21.5q50 0 56 77h104q-8 -90 -46 -142t-99 -52q-44 0 -82.5 21t-70 42t-56.5 21q-47 0 -56 -76h-104z" glyph-name="asciitilde" horiz-adv-x="704" unicode="~"/><glyph d="M326 858q0 -54 -32.5 -87.5t-76.5 -33.5t-75 33t-31 86q0 54 30.5 86.5t77.5 34.5q45 0 76 -33t31 -86zM301 -416h-168q2 49 2 230v499q0 181 -2 232h168q-6 -68 -6 -232v-499q0 -173 6 -230z" glyph-name="exclamdown" horiz-adv-x="436" unicode="¡"/><glyph d="M649 147q-56 -32 -135 -38v-177h-96v181q-132 27 -210.5 156t-78.5 302q0 183 80.5 313t208.5 158v191h96v-184q30 -1 67.5 -11.5t55.5 -21.5v-156q-53 44 -125 47q-96 2 -159.5 -87t-63.5 -242q0 -149 61 -238.5t160 -87.5q78 0 129 45z" glyph-name="cent" horiz-adv-x="802" unicode="¢"/><glyph d="M57 0v131q91 21 137.5 142.5t47.5 371.5h-123v117h129q3 138 21.5 243.5t48.5 175t74 113t94.5 62t113.5 18.5q49 0 145 -31l-18 -145q-42 33 -115 33q-188 0 -202 -352l-4 -117h231l-21 -117h-217q-3 -183 -37.5 -315t-91.5 -195q45 2 181 2h116q76 0 154 4v-143 q-43 2 -143 2h-521z" glyph-name="sterling" horiz-adv-x="802" unicode="£"/><glyph d="M88 664q0 133 59 251l-110 150l78 86l108 -150q82 91 180 91q80 0 175 -88l104 145l78 -90l-103 -144q58 -128 58 -251q0 -138 -60 -252l107 -146l-78 -90l-109 148q-86 -86 -174 -86q-99 0 -176 86l-102 -144l-82 86l106 148q-59 115 -59 250zM219 666 q0 -124 53.5 -209.5t128.5 -85.5q76 0 129.5 86.5t53.5 208.5q0 117 -53.5 204.5t-129.5 87.5q-77 0 -129.5 -86.5t-52.5 -205.5z" glyph-name="currency" horiz-adv-x="802" unicode="¤"/><glyph d="M313 0q4 152 4 213v106h-200v93h200v157h-200v93h215l-226 516q-37 74 -75 180h182q36 -112 55 -156l135 -399l140 389q49 127 61 166h168q-75 -175 -92 -209l-209 -487h211v-93h-203v-157h203v-93h-203v-104q0 -79 4 -215h-170z" glyph-name="yen" horiz-adv-x="802" unicode="¥"/><glyph d="M246 1561v-732h-125v732h125zM246 289v-731h-125v731h125z" glyph-name="brokenbar" horiz-adv-x="366" unicode="¦"/><glyph d="M92 653q0 83 37.5 154t106.5 121q-38 39 -63.5 100t-25.5 125q0 139 72 220t203 81q122 0 223 -55v-142q-73 68 -201 68q-63 0 -100 -45t-37 -121q0 -71 39 -120.5t113 -96.5q45 -28 73 -47.5t67 -54.5t61 -69.5t38.5 -85t16.5 -107.5q0 -153 -121 -271q80 -100 80 -225 q0 -154 -81.5 -236t-225.5 -82q-134 0 -252 74l26 148q81 -90 217 -90q77 0 118.5 44t41.5 132q0 129 -164 231q-110 68 -148 100q-113 101 -114 250zM229 692q0 -38 12.5 -73.5t28 -60t45 -52.5t47.5 -42t52 -38q72 -39 98 -57q61 79 61 180q0 41 -12.5 77.5t-26.5 60 t-46.5 53.5t-49 42.5t-57.5 42.5q-49 25 -74 43q-36 -26 -57 -73.5t-21 -102.5z" glyph-name="section" horiz-adv-x="800" unicode="§"/><glyph d="M106 662q0 180 65 333t178 242.5t247 89.5q135 0 248 -89.5t178 -242.5t65 -333q0 -183 -64.5 -336.5t-177.5 -242.5t-249 -89t-248.5 89t-177 242.5t-64.5 336.5zM190 662q0 -161 54 -296t147 -212.5t205 -77.5q113 0 206.5 77.5t147.5 212t54 296.5q0 160 -54.5 294 t-148 210.5t-205.5 76.5q-169 0 -287.5 -168t-118.5 -413zM356 657q0 158 79.5 270.5t195.5 112.5q44 0 119 -30v-113q-42 37 -111 37q-73 0 -121.5 -78t-48.5 -194q0 -120 47.5 -197.5t118.5 -77.5q60 0 115 41l8 -113q-70 -34 -133 -34q-115 0 -192 108t-77 268z" glyph-name="copyright" horiz-adv-x="1193" unicode="©"/><glyph d="M37 147q0 81 41 120t112 42l93 6v27q0 59 -27.5 90t-69.5 31q-58 0 -102 -35l-21 57q70 45 136 45q174 0 174 -196v-172q0 -92 8 -162h-78l-14 68q-59 -82 -125 -82q-57 0 -92 44t-35 117zM123 152q0 -45 18.5 -73t48.5 -28q23 0 50 17.5t45 48.5v143l-70 -4 q-44 -3 -68 -25t-24 -79z" glyph-name="ordfeminine" horiz-adv-x="421" unicode="ª"/><glyph d="M442 59l-372 394v22l372 393v-166l-221 -239l221 -236v-168zM840 59l-373 394v22l373 393v-166l-222 -239l222 -236v-168z" glyph-name="guillemotleft" horiz-adv-x="917" unicode="«"/><glyph d="M43 535v141h682v-518h-160v377h-522z" glyph-name="logicalnot" horiz-adv-x="804" unicode="¬"/><glyph d="M133 1065q0 159 110 270t267 111q156 0 267.5 -111.5t111.5 -269.5q0 -157 -110 -268t-269 -111q-160 0 -268.5 110t-108.5 269zM190 1065q0 -139 92.5 -234.5t227.5 -95.5q137 0 228 96t91 234q0 141 -91 237.5t-228 96.5q-136 0 -228 -96.5t-92 -237.5zM635 1161 q0 -49 -29.5 -79t-73.5 -35l127 -175h-63l-109 170h-47v-170h-55q2 31 2 82v228q0 11 0.5 29.5t0.5 33t-1 25.5h107q68 0 104.5 -29.5t36.5 -79.5zM586 1157q0 37 -23.5 54.5t-75.5 17.5h-47v-150h47q46 0 72.5 20.5t26.5 57.5z" glyph-name="registered" horiz-adv-x="1021" unicode="®"/><glyph d="M260 1378q86 0 145.5 -79t59.5 -193q0 -112 -61.5 -196.5t-149.5 -84.5q-86 0 -143.5 80.5t-57.5 196.5q0 115 60.5 195.5t146.5 80.5zM256 924q51 0 84 52.5t33 129.5q0 70 -33.5 121t-79.5 51q-47 0 -82 -50.5t-35 -125.5q0 -76 32.5 -127t80.5 -51z" glyph-name="degree" horiz-adv-x="518" unicode="°"/><glyph d="M72 637v137h262v334h137v-334h262v-137h-262v-334h-137v334h-262zM72 -2v141h661v-141h-661z" glyph-name="plusminus" horiz-adv-x="804" unicode="±"/><glyph d="M63 887v106q31 33 80.5 97.5t77.5 113.5q88 140 88 232q0 61 -26.5 95t-73.5 34q-61 0 -121 -60l-12 117q75 55 151 55q96 0 152.5 -62t56.5 -171q0 -137 -119 -299q-17 -24 -56.5 -75t-55.5 -75h137q60 0 109 6v-114h-388z" glyph-name="uni00B2" horiz-adv-x="524" unicode="²"/><glyph d="M90 1530l-6 108q55 41 135 41q93 0 148 -50t55 -144q0 -72 -35.5 -125.5t-97.5 -65.5q63 -7 107 -64t44 -128q0 -98 -60 -159.5t-157 -61.5q-85 0 -151 34l8 107q44 -39 125 -39q52 0 81 34.5t29 98.5q0 60 -30.5 94.5t-89.5 34.5l-37 -2v94l28 -2q52 0 82.5 35.5 t30.5 95.5q0 54 -24.5 81.5t-65.5 27.5q-69 0 -119 -45z" glyph-name="uni00B3" horiz-adv-x="524" unicode="³"/><glyph d="M80 840l39 106h186q-4 -136 -4 -209v-379q0 -233 172 -233q59 0 107 41.5t65 112.5v438q0 157 -6 229h164q-4 -140 -4 -221v-532q0 -111 12 -193h-133l-25 111q-68 -127 -204 -127q-111 0 -168 94q14 -161 14 -266v-144q0 -76 6 -190h-160q4 49 4 200v1162h-65z" glyph-name="uni00B5" horiz-adv-x="964" unicode="µ"/><glyph d="M74 907q0 204 104 336.5t262 132.5h383v-1618h-114v1502h-113v-1156q0 -237 2 -348h-164q2 53 2 158v526q-166 9 -264 133t-98 334z" glyph-name="paragraph" horiz-adv-x="923" unicode="¶"/><glyph d="M92 502q0 54 32.5 87.5t76.5 33.5t75 -33t31 -86q0 -54 -30.5 -86.5t-77.5 -34.5q-45 0 -76 33t-31 86z" glyph-name="periodcentered" horiz-adv-x="399" unicode="·"/><glyph d="M336 1049q0 -142 2 -162h-123l2 203v446l-139 -80l-17 94q158 88 215 123h62l-2 -164v-460z" glyph-name="uni00B9" horiz-adv-x="466" unicode="¹"/><glyph d="M252 565q90 0 151.5 -84t61.5 -205t-61.5 -204.5t-151.5 -83.5q-92 0 -153.5 83.5t-61.5 204.5t61.5 205t153.5 84zM152 262q9 -83 43.5 -135.5t78.5 -48.5q42 6 62.5 67t11.5 146t-43.5 136t-77.5 46q-43 -6 -64 -73t-11 -138z" glyph-name="ordmasculine" horiz-adv-x="714" unicode="º"/><glyph d="M84 868l373 -393v-22l-373 -394v166l221 240l-221 235v168zM481 868l373 -393v-22l-373 -394v166l221 240l-221 235v168z" glyph-name="guillemotright" horiz-adv-x="923" unicode="»"/><glyph d="M336 750q0 -142 2 -162h-123l2 203v446l-139 -80l-17 94q158 88 215 123h62l-2 -164v-460zM1006 1372l-680 -1372h-121l678 1372h123zM948 0v88v94h-270v72l309 532h80v-512q66 0 82 2v-94h-82v-88v-94h-119zM952 274l4 301l-168 -301h164z" glyph-name="onequarter" horiz-adv-x="1218" unicode="¼"/><glyph d="M336 752q0 -142 2 -162h-123l2 203v446l-139 -80l-17 94q158 88 215 123h62l-2 -164v-460zM987 1372l-680 -1372h-121l678 1372h123zM791 0v106q31 32 80 97t77 114q88 140 88 232q0 61 -26.5 95t-73.5 34q-61 0 -121 -60l-12 117q77 56 151 56q96 0 152.5 -62.5 t56.5 -171.5q0 -137 -119 -299q-17 -24 -57 -74.5t-55 -74.5h137q59 0 109 6v-115h-387z" glyph-name="onehalf" horiz-adv-x="1251" unicode="½"/><glyph d="M90 1243l-6 109q55 41 135 41q93 0 148 -50.5t55 -144.5q0 -72 -35.5 -125t-97.5 -65q63 -7 107 -64.5t44 -128.5q0 -98 -60 -159.5t-157 -61.5q-83 0 -151 35l8 106q44 -39 125 -39q52 0 81 34.5t29 98.5q0 60 -30.5 94.5t-89.5 34.5l-37 -2v95l28 -2q52 0 82.5 35.5 t30.5 95.5q0 54 -24.5 81t-65.5 27q-69 0 -119 -45zM1001 1372l-679 -1372h-121l678 1372h122zM913 0q2 25 2 92v90h-270v72l309 532h78v-512q68 0 84 2v-94h-84v-88q0 -59 2 -94h-121zM920 274l4 301l-170 -301h166z" glyph-name="threequarters" horiz-adv-x="1185" unicode="¾"/><glyph d="M524 854q0 -54 -32 -87.5t-76 -33.5t-75.5 33t-31.5 86q0 54 31 86.5t78 34.5q45 0 75.5 -33t30.5 -86zM500 555q0 -110 -23.5 -184t-97.5 -203q-98 -170 -98 -277q0 -83 38.5 -128.5t110.5 -45.5q105 0 178 113v-166q-76 -98 -200 -98q-130 0 -208.5 88t-78.5 219 q0 90 33.5 177t99.5 196q55 90 76 153.5t22 155.5h148z" glyph-name="questiondown" horiz-adv-x="684" unicode="¿"/><glyph d="M315 1776h164l133 -289h-135zM37 0q69 182 98 276l342 1117h66l350 -1121q40 -121 102 -272h-190l-109 387h-383l-108 -387h-168zM352 528h305l-153 564z" glyph-name="Agrave" horiz-adv-x="1032" unicode="À"/><glyph d="M700 1776l-161 -289h-136l134 289h163zM37 0q69 182 98 276l342 1117h66l350 -1121q40 -121 102 -272h-190l-109 387h-383l-108 -387h-168zM352 528h305l-153 564z" glyph-name="Aacute" horiz-adv-x="1032" unicode="Á"/><glyph d="M287 1470l182 291h78l178 -291h-127l-92 164l-92 -164h-127zM37 0q69 182 98 276l342 1117h66l350 -1121q40 -121 102 -272h-190l-109 387h-383l-108 -387h-168zM352 528h305l-153 564z" glyph-name="Acircumflex" horiz-adv-x="1032" unicode="Â"/><glyph d="M252 1511q8 90 47 142.5t100 52.5q44 0 82 -21.5t69 -43t56 -21.5q50 0 56 78h104q-8 -90 -46 -142.5t-99 -52.5q-44 0 -82.5 21t-70 42t-56.5 21q-47 0 -56 -76h-104zM37 0q69 182 98 276l342 1117h66l350 -1121q40 -121 102 -272h-190l-109 387h-383l-108 -387h-168z M352 528h305l-153 564z" glyph-name="Atilde" horiz-adv-x="1032" unicode="Ã"/><glyph d="M258 1647q0 43 27.5 74.5t64.5 31.5q38 0 66 -31.5t28 -74.5q0 -44 -28 -75.5t-66 -31.5q-37 0 -64.5 31.5t-27.5 75.5zM571 1647q0 43 28 74.5t65 31.5q38 0 66 -31.5t28 -74.5q0 -44 -28 -75.5t-66 -31.5q-37 0 -65 31.5t-28 75.5zM37 0q69 182 98 276l342 1117h66 l350 -1121q40 -121 102 -272h-190l-109 387h-383l-108 -387h-168zM352 528h305l-153 564z" glyph-name="Adieresis" horiz-adv-x="1032" unicode="Ä"/><glyph d="M354 1632q0 85 43.5 132.5t110.5 47.5t111.5 -47.5t44.5 -132.5t-44 -132.5t-112 -47.5q-67 0 -110.5 47.5t-43.5 132.5zM442 1632q0 -48 17 -76t49 -28q31 0 48 26.5t17 75.5q0 51 -17 78t-48 27q-30 0 -48 -26.5t-18 -76.5zM37 0q69 182 98 276l342 1117h66l350 -1121 q40 -121 102 -272h-190l-109 387h-383l-108 -387h-168zM352 528h305l-153 564z" glyph-name="Aring" horiz-adv-x="1032" unicode="Å"/><glyph d="M37 0q59 127 151 367l375 1009h324q159 0 243 4l-10 -151q-59 4 -233 4h-158l55 -455h158q91 0 205 4v-149q-55 2 -197 2h-139l53 -492h148q145 0 205 9v-156q-27 0 -86 2t-91 2h-299l-43 395h-354l-129 -395h-178zM397 530h281l-76 613z" glyph-name="AE" horiz-adv-x="1323" unicode="Æ"/><glyph d="M885 39q-112 -59 -242 -62l-22 -59q56 -12 88 -56.5t32 -115.5q0 -83 -45 -134.5t-127 -51.5q-58 0 -100 22l6 92q43 -18 74 -18q38 0 60 24t22 64q0 92 -94 92q-23 0 -37 -4l55 152q-200 31 -324.5 222t-124.5 478q0 207 69 370t189.5 253t270.5 90q125 0 246 -54v-174 q-95 74 -232 74q-164 0 -267 -155t-103 -402t103.5 -402t264.5 -155q121 0 238 80v-170z" glyph-name="Ccedilla" horiz-adv-x="989" unicode="Ç"/><glyph d="M231 1776h164l133 -289h-135zM162 0l4 332v708q0 148 -4 336h289q167 0 249 4l-24 -151q-66 4 -248 4h-100v-445h104q135 0 234 3v-150q-132 4 -234 4h-104v-502h141q174 0 233 2v-147q-59 2 -229 2h-311z" glyph-name="Egrave" horiz-adv-x="813" unicode="È"/><glyph d="M616 1776l-161 -289h-136l134 289h163zM162 0l4 332v708q0 148 -4 336h289q167 0 249 4l-24 -151q-66 4 -248 4h-100v-445h104q135 0 234 3v-150q-132 4 -234 4h-104v-502h141q174 0 233 2v-147q-59 2 -229 2h-311z" glyph-name="Eacute" horiz-adv-x="813" unicode="É"/><glyph d="M203 1470l182 291h78l178 -291h-127l-92 164l-92 -164h-127zM162 0l4 332v708q0 148 -4 336h289q167 0 249 4l-24 -151q-66 4 -248 4h-100v-445h104q135 0 234 3v-150q-132 4 -234 4h-104v-502h141q174 0 233 2v-147q-59 2 -229 2h-311z" glyph-name="Ecircumflex" horiz-adv-x="813" unicode="Ê"/><glyph d="M174 1647q0 43 27.5 74.5t64.5 31.5q38 0 66 -31.5t28 -74.5q0 -44 -28 -75.5t-66 -31.5q-37 0 -64.5 31.5t-27.5 75.5zM487 1647q0 43 28 74.5t65 31.5q38 0 66 -31.5t28 -74.5q0 -44 -28 -75.5t-66 -31.5q-37 0 -65 31.5t-28 75.5zM162 0l4 332v708q0 148 -4 336h289 q167 0 249 4l-24 -151q-66 4 -248 4h-100v-445h104q135 0 234 3v-150q-132 4 -234 4h-104v-502h141q174 0 233 2v-147q-59 2 -229 2h-311z" glyph-name="Edieresis" horiz-adv-x="813" unicode="Ë"/><glyph d="M55 1776h164l133 -289h-135zM162 0q4 184 4 336v670q0 166 -4 370h172q-4 -61 -4 -370v-672q0 -236 4 -334h-172z" glyph-name="Igrave" horiz-adv-x="495" unicode="Ì"/><glyph d="M440 1776l-161 -289h-136l133 289h164zM162 0q4 184 4 336v670q0 166 -4 370h172q-4 -61 -4 -370v-672q0 -236 4 -334h-172z" glyph-name="Iacute" horiz-adv-x="495" unicode="Í"/><glyph d="M27 1470l182 291h78l178 -291h-127l-92 164l-92 -164h-127zM162 0q4 184 4 336v670q0 166 -4 370h172q-4 -61 -4 -370v-672q0 -236 4 -334h-172z" glyph-name="Icircumflex" horiz-adv-x="495" unicode="Î"/><glyph d="M-2 1647q0 43 27.5 74.5t64.5 31.5q38 0 66 -31.5t28 -74.5q0 -44 -28 -75.5t-66 -31.5q-37 0 -64.5 31.5t-27.5 75.5zM311 1647q0 43 27.5 74.5t64.5 31.5q38 0 66.5 -31.5t28.5 -74.5q0 -44 -28.5 -75.5t-66.5 -31.5q-37 0 -64.5 31.5t-27.5 75.5zM162 0q4 184 4 336 v670q0 166 -4 370h172q-4 -61 -4 -370v-672q0 -236 4 -334h-172z" glyph-name="Idieresis" horiz-adv-x="495" unicode="Ï"/><glyph d="M457 1376q115 0 213 -47t169 -133.5t111.5 -217t40.5 -290.5q0 -320 -149 -504t-385 -184h-295q4 200 4 377v241h-143v138h143v301q0 155 -4 319h295zM446 143q167 0 270 145.5t103 399.5q0 252 -104 398.5t-269 146.5h-116v-477h190v-138h-190v-475h116z" glyph-name="Eth" horiz-adv-x="1097" unicode="Ð"/><glyph d="M309 1511q8 90 47.5 142.5t100.5 52.5q44 0 82 -21.5t69 -43t56 -21.5q49 0 55 78h104q-8 -90 -46 -142.5t-99 -52.5q-44 0 -82.5 21t-70 42t-56.5 21q-46 0 -55 -76h-105zM162 0q2 88 2 289v753q0 228 -2 351h65l619 -969v610q0 211 -4 342h168q-6 -104 -6 -332v-763 q0 -197 4 -285h-70l-614 960v-675q0 -199 4 -281h-166z" glyph-name="Ntilde" horiz-adv-x="1171" unicode="Ñ"/><glyph d="M424 1776h164l133 -289h-135zM106 686q0 316 142 513.5t368 197.5q150 0 266 -89.5t180 -251.5t64 -370q0 -316 -141.5 -512.5t-368.5 -196.5q-226 0 -368 196t-142 513zM279 686q0 -251 92.5 -405t244.5 -154q153 0 246.5 154.5t93.5 404.5t-93.5 404.5t-246.5 154.5 q-151 0 -244 -154.5t-93 -404.5z" glyph-name="Ograve" horiz-adv-x="1234" unicode="Ò"/><glyph d="M809 1776l-162 -289h-135l133 289h164zM106 686q0 316 142 513.5t368 197.5q150 0 266 -89.5t180 -251.5t64 -370q0 -316 -141.5 -512.5t-368.5 -196.5q-226 0 -368 196t-142 513zM279 686q0 -251 92.5 -405t244.5 -154q153 0 246.5 154.5t93.5 404.5t-93.5 404.5 t-246.5 154.5q-151 0 -244 -154.5t-93 -404.5z" glyph-name="Oacute" horiz-adv-x="1234" unicode="Ó"/><glyph d="M395 1470l183 291h77l179 -291h-127l-93 164l-92 -164h-127zM106 686q0 316 142 513.5t368 197.5q150 0 266 -89.5t180 -251.5t64 -370q0 -316 -141.5 -512.5t-368.5 -196.5q-226 0 -368 196t-142 513zM279 686q0 -251 92.5 -405t244.5 -154q153 0 246.5 154.5 t93.5 404.5t-93.5 404.5t-246.5 154.5q-151 0 -244 -154.5t-93 -404.5z" glyph-name="Ocircumflex" horiz-adv-x="1234" unicode="Ô"/><glyph d="M360 1511q8 90 47.5 142.5t100.5 52.5q44 0 82 -21.5t69 -43t56 -21.5q49 0 55 78h104q-8 -90 -46 -142.5t-99 -52.5q-44 0 -82.5 21t-70 42t-56.5 21q-46 0 -55 -76h-105zM106 686q0 316 142 513.5t368 197.5q150 0 266 -89.5t180 -251.5t64 -370q0 -316 -141.5 -512.5 t-368.5 -196.5q-226 0 -368 196t-142 513zM279 686q0 -251 92.5 -405t244.5 -154q153 0 246.5 154.5t93.5 404.5t-93.5 404.5t-246.5 154.5q-151 0 -244 -154.5t-93 -404.5z" glyph-name="Otilde" horiz-adv-x="1234" unicode="Õ"/><glyph d="M367 1647q0 43 27.5 74.5t64.5 31.5q38 0 66 -31.5t28 -74.5q0 -44 -28 -75.5t-66 -31.5q-37 0 -64.5 31.5t-27.5 75.5zM680 1647q0 43 27.5 74.5t64.5 31.5q38 0 66 -31.5t28 -74.5q0 -44 -28 -75.5t-66 -31.5q-37 0 -64.5 31.5t-27.5 75.5zM106 686q0 316 142 513.5 t368 197.5q150 0 266 -89.5t180 -251.5t64 -370q0 -316 -141.5 -512.5t-368.5 -196.5q-226 0 -368 196t-142 513zM279 686q0 -251 92.5 -405t244.5 -154q153 0 246.5 154.5t93.5 404.5t-93.5 404.5t-246.5 154.5q-151 0 -244 -154.5t-93 -404.5z" glyph-name="Odieresis" horiz-adv-x="1234" unicode="Ö"/><glyph d="M330 520l-207 271l90 88l199 -263l198 261l90 -89l-202 -270l209 -270l-95 -84l-196 262l-199 -262l-90 88z" glyph-name="multiply" horiz-adv-x="829" unicode="×"/><glyph d="M1008 1204q145 -197 145 -518q0 -316 -141.5 -512.5t-368.5 -196.5q-184 0 -315 134l-82 -129h-140l144 229q-117 191 -117 475q0 316 142 513.5t368 197.5q159 0 281 -103l63 101h139zM305 686q0 -179 47 -309l488 780q-82 88 -197 88q-151 0 -244.5 -154.5 t-93.5 -404.5zM643 127q153 0 246.5 154.5t93.5 404.5q0 211 -72 365l-495 -797q88 -127 227 -127z" glyph-name="Oslash" horiz-adv-x="1259" unicode="Ø"/><glyph d="M358 1776h164l133 -289h-135zM319 1376q-4 -94 -4 -346v-575q0 -162 62.5 -242t173.5 -80q110 0 171.5 81t61.5 243v573q0 258 -2 346h168q-2 -100 -2 -346v-571q0 -234 -107 -356.5t-290 -122.5q-187 0 -293 123.5t-106 355.5v571q0 121 -5 346h172z" glyph-name="Ugrave" horiz-adv-x="1097" unicode="Ù"/><glyph d="M743 1776l-161 -289h-136l134 289h163zM319 1376q-4 -94 -4 -346v-575q0 -162 62.5 -242t173.5 -80q110 0 171.5 81t61.5 243v573q0 258 -2 346h168q-2 -100 -2 -346v-571q0 -234 -107 -356.5t-290 -122.5q-187 0 -293 123.5t-106 355.5v571q0 121 -5 346h172z" glyph-name="Uacute" horiz-adv-x="1097" unicode="Ú"/><glyph d="M330 1470l182 291h78l178 -291h-127l-92 164l-92 -164h-127zM319 1376q-4 -94 -4 -346v-575q0 -162 62.5 -242t173.5 -80q110 0 171.5 81t61.5 243v573q0 258 -2 346h168q-2 -100 -2 -346v-571q0 -234 -107 -356.5t-290 -122.5q-187 0 -293 123.5t-106 355.5v571 q0 121 -5 346h172z" glyph-name="Ucircumflex" horiz-adv-x="1097" unicode="Û"/><glyph d="M301 1647q0 43 27.5 74.5t64.5 31.5q38 0 66 -31.5t28 -74.5q0 -44 -28 -75.5t-66 -31.5q-37 0 -64.5 31.5t-27.5 75.5zM614 1647q0 43 28 74.5t65 31.5q38 0 66 -31.5t28 -74.5q0 -44 -28 -75.5t-66 -31.5q-37 0 -65 31.5t-28 75.5zM319 1376q-4 -94 -4 -346v-575 q0 -162 62.5 -242t173.5 -80q110 0 171.5 81t61.5 243v573q0 258 -2 346h168q-2 -100 -2 -346v-571q0 -234 -107 -356.5t-290 -122.5q-187 0 -293 123.5t-106 355.5v571q0 121 -5 346h172z" glyph-name="Udieresis" horiz-adv-x="1097" unicode="Ü"/><glyph d="M674 1776l-162 -289h-135l133 289h164zM395 0q4 188 4 324v260l-241 542q-44 98 -119 250h197q34 -100 69 -182l180 -442l179 436q7 16 33.5 87.5t39.5 100.5h183q-92 -188 -119 -248l-240 -546v-260q0 -46 6 -322h-172z" glyph-name="Yacute" horiz-adv-x="958" unicode="Ý"/><glyph d="M784 700q0 -206 -104 -320t-277 -114h-75v-59q0 -89 4 -207h-170q4 168 4 317v711q0 180 -4 348h170q-4 -122 -4 -190v-51h75q169 0 275 -114t106 -321zM614 702q0 131 -61.5 210t-155.5 79h-69v-581h71q93 0 154 78t61 214z" glyph-name="Thorn" horiz-adv-x="866" unicode="Þ"/><glyph d="M430 805q12 -2 35 -2q86 0 142.5 82t56.5 205q0 122 -48.5 185.5t-128.5 63.5q-82 0 -128.5 -58.5t-45.5 -178.5v-895q0 -152 4 -209h-161q2 66 2 207v897q0 177 93 280t236 103q154 0 245 -104t91 -281q0 -120 -53.5 -216t-134.5 -134q116 -37 184 -145t68 -255 q0 -179 -91 -276t-229 -97q-90 0 -155 43v158q61 -55 143 -55q75 0 123.5 62.5t48.5 176.5q0 137 -72 225.5t-180 88.5q-31 0 -45 -2v131z" glyph-name="germandbls" horiz-adv-x="980" unicode="ß"/><glyph d="M186 1386h164l133 -288h-135zM84 274q0 138 77.5 216.5t207.5 89.5q91 6 153 6v69q0 86 -44 132.5t-122 46.5q-94 0 -182 -68l-49 121q47 38 114.5 60t139.5 22q139 0 218 -82.5t79 -241.5v-344q0 -191 26 -301h-153l-12 104q-80 -122 -220 -122q-99 0 -166 80.5 t-67 211.5zM240 276q0 -75 31 -116t83 -41q48 0 94.5 33t75.5 92v219l-110 -4q-174 -7 -174 -183z" glyph-name="agrave" horiz-adv-x="821" unicode="à"/><glyph d="M571 1386l-161 -288h-136l134 288h163zM84 274q0 138 77.5 216.5t207.5 89.5q91 6 153 6v69q0 86 -44 132.5t-122 46.5q-94 0 -182 -68l-49 121q47 38 114.5 60t139.5 22q139 0 218 -82.5t79 -241.5v-344q0 -191 26 -301h-153l-12 104q-80 -122 -220 -122 q-99 0 -166 80.5t-67 211.5zM240 276q0 -75 31 -116t83 -41q48 0 94.5 33t75.5 92v219l-110 -4q-174 -7 -174 -183z" glyph-name="aacute" horiz-adv-x="821" unicode="á"/><glyph d="M158 1081l182 291h78l178 -291h-127l-92 164l-92 -164h-127zM84 274q0 138 77.5 216.5t207.5 89.5q91 6 153 6v69q0 86 -44 132.5t-122 46.5q-94 0 -182 -68l-49 121q47 38 114.5 60t139.5 22q139 0 218 -82.5t79 -241.5v-344q0 -191 26 -301h-153l-12 104 q-80 -122 -220 -122q-99 0 -166 80.5t-67 211.5zM240 276q0 -75 31 -116t83 -41q48 0 94.5 33t75.5 92v219l-110 -4q-174 -7 -174 -183z" glyph-name="acircumflex" horiz-adv-x="821" unicode="â"/><glyph d="M123 1122q8 90 47 142.5t100 52.5q44 0 82 -21.5t69 -43t56 -21.5q49 0 55 78h105q-8 -90 -46 -142.5t-99 -52.5q-44 0 -82.5 21t-70 42t-56.5 21q-47 0 -56 -76h-104zM84 274q0 138 77.5 216.5t207.5 89.5q91 6 153 6v69q0 86 -44 132.5t-122 46.5q-94 0 -182 -68 l-49 121q47 38 114.5 60t139.5 22q139 0 218 -82.5t79 -241.5v-344q0 -191 26 -301h-153l-12 104q-80 -122 -220 -122q-99 0 -166 80.5t-67 211.5zM240 276q0 -75 31 -116t83 -41q48 0 94.5 33t75.5 92v219l-110 -4q-174 -7 -174 -183z" glyph-name="atilde" horiz-adv-x="821" unicode="ã"/><glyph d="M129 1257q0 43 27.5 75t64.5 32q38 0 66 -32t28 -75q0 -44 -28 -75t-66 -31q-37 0 -64.5 31t-27.5 75zM442 1257q0 43 28 75t65 32q38 0 66 -32t28 -75q0 -44 -28 -75t-66 -31q-37 0 -65 31t-28 75zM84 274q0 138 77.5 216.5t207.5 89.5q91 6 153 6v69q0 86 -44 132.5 t-122 46.5q-94 0 -182 -68l-49 121q47 38 114.5 60t139.5 22q139 0 218 -82.5t79 -241.5v-344q0 -191 26 -301h-153l-12 104q-80 -122 -220 -122q-99 0 -166 80.5t-67 211.5zM240 276q0 -75 31 -116t83 -41q48 0 94.5 33t75.5 92v219l-110 -4q-174 -7 -174 -183z" glyph-name="adieresis" horiz-adv-x="821" unicode="ä"/><glyph d="M225 1243q0 85 43.5 132.5t110.5 47.5t111.5 -47.5t44.5 -132.5t-44 -132.5t-112 -47.5q-67 0 -110.5 47.5t-43.5 132.5zM313 1243q0 -48 17 -76t49 -28q31 0 48 26.5t17 75.5q0 51 -17 78t-48 27q-30 0 -48 -26.5t-18 -76.5zM84 274q0 138 77.5 216.5t207.5 89.5 q91 6 153 6v69q0 86 -44 132.5t-122 46.5q-94 0 -182 -68l-49 121q47 38 114.5 60t139.5 22q139 0 218 -82.5t79 -241.5v-344q0 -191 26 -301h-153l-12 104q-80 -122 -220 -122q-99 0 -166 80.5t-67 211.5zM240 276q0 -75 31 -116t83 -41q48 0 94.5 33t75.5 92v219l-110 -4 q-174 -7 -174 -183z" glyph-name="aring" horiz-adv-x="821" unicode="å"/><glyph d="M84 274q0 139 76 217t209 89q88 6 153 6v69q0 86 -44 132.5t-122 46.5q-94 0 -182 -68l-49 119q101 84 248 84q80 0 142 -36.5t89 -103.5q81 140 236 140q84 0 147.5 -38t100 -102t54 -137.5t17.5 -154.5q0 -55 -4 -91h-493q4 -170 61.5 -247.5t163.5 -77.5q118 0 231 96 v-149q-95 -88 -239 -88q-98 0 -176.5 46.5t-116.5 129.5q-65 -93 -128.5 -133.5t-140.5 -40.5q-99 0 -166 80.5t-67 211.5zM659 563h349q-2 126 -42.5 198.5t-125.5 72.5q-59 0 -100.5 -41.5t-59.5 -99.5t-21 -130zM240 279q0 -75 31 -117.5t83 -42.5q106 0 191 135 q-25 89 -25 209l-106 -4q-174 -7 -174 -180z" glyph-name="ae" horiz-adv-x="1245" unicode="æ"/><glyph d="M672 43q-60 -57 -166 -63l-25 -62q57 -12 89 -56.5t32 -115.5q0 -83 -45 -134.5t-127 -51.5q-58 0 -100 22l6 92q44 -18 74 -18q38 0 60 24t22 64q0 92 -95 92q-23 0 -37 -4l58 154q-149 24 -237.5 151.5t-88.5 333.5q0 229 108 362.5t281 133.5q113 0 189 -60v-162 q-76 76 -174 76q-117 0 -181.5 -92t-64.5 -258t64 -256t184 -90q94 0 174 76v-158z" glyph-name="ccedilla" horiz-adv-x="782" unicode="ç"/><glyph d="M236 1386h163l133 -288h-135zM92 475q0 130 39 241.5t116.5 182t178.5 70.5q84 0 147.5 -38t100 -102t54 -137.5t17.5 -154.5q0 -55 -4 -91h-491q4 -170 61 -247.5t164 -77.5q116 0 232 96v-149q-95 -88 -240 -88q-173 0 -274 128.5t-101 366.5zM426 834q-58 0 -99 -41 t-59 -100t-20 -130h346q-3 271 -168 271z" glyph-name="egrave" horiz-adv-x="831" unicode="è"/><glyph d="M621 1386l-162 -288h-135l133 288h164zM92 475q0 130 39 241.5t116.5 182t178.5 70.5q84 0 147.5 -38t100 -102t54 -137.5t17.5 -154.5q0 -55 -4 -91h-491q4 -170 61 -247.5t164 -77.5q116 0 232 96v-149q-95 -88 -240 -88q-173 0 -274 128.5t-101 366.5zM426 834 q-58 0 -99 -41t-59 -100t-20 -130h346q-3 271 -168 271z" glyph-name="eacute" horiz-adv-x="831" unicode="é"/><glyph d="M207 1081l182 291h78l178 -291h-127l-92 164l-92 -164h-127zM92 475q0 130 39 241.5t116.5 182t178.5 70.5q84 0 147.5 -38t100 -102t54 -137.5t17.5 -154.5q0 -55 -4 -91h-491q4 -170 61 -247.5t164 -77.5q116 0 232 96v-149q-95 -88 -240 -88q-173 0 -274 128.5 t-101 366.5zM426 834q-58 0 -99 -41t-59 -100t-20 -130h346q-3 271 -168 271z" glyph-name="ecircumflex" horiz-adv-x="831" unicode="ê"/><glyph d="M178 1257q0 43 27.5 75t64.5 32q38 0 66.5 -32t28.5 -75q0 -44 -28 -75t-67 -31q-37 0 -64.5 31t-27.5 75zM492 1257q0 43 27.5 75t64.5 32q38 0 66 -32t28 -75q0 -44 -28 -75t-66 -31q-37 0 -64.5 31t-27.5 75zM92 475q0 130 39 241.5t116.5 182t178.5 70.5 q84 0 147.5 -38t100 -102t54 -137.5t17.5 -154.5q0 -55 -4 -91h-491q4 -170 61 -247.5t164 -77.5q116 0 232 96v-149q-95 -88 -240 -88q-173 0 -274 128.5t-101 366.5zM426 834q-58 0 -99 -41t-59 -100t-20 -130h346q-3 271 -168 271z" glyph-name="edieresis" horiz-adv-x="831" unicode="ë"/><glyph d="M45 1386h164l133 -288h-135zM156 0q6 70 6 201v542q0 156 -6 203h163q-4 -47 -4 -203v-542q0 -158 4 -201h-163z" glyph-name="igrave" horiz-adv-x="475" unicode="ì"/><glyph d="M430 1386l-162 -288h-135l133 288h164zM156 0q6 70 6 201v542q0 156 -6 203h163q-4 -47 -4 -203v-542q0 -158 4 -201h-163z" glyph-name="iacute" horiz-adv-x="475" unicode="í"/><glyph d="M16 1081l183 291h77l179 -291h-127l-92 164l-93 -164h-127zM156 0q6 70 6 201v542q0 156 -6 203h163q-4 -47 -4 -203v-542q0 -158 4 -201h-163z" glyph-name="icircumflex" horiz-adv-x="475" unicode="î"/><glyph d="M-12 1257q0 43 27.5 75t64.5 32q38 0 66 -32t28 -75q0 -44 -28 -75t-66 -31q-37 0 -64.5 31t-27.5 75zM301 1257q0 43 27.5 75t64.5 32q38 0 66 -32t28 -75q0 -44 -28 -75t-66 -31q-37 0 -64.5 31t-27.5 75zM156 0q6 70 6 201v542q0 156 -6 203h163q-4 -47 -4 -203v-542 q0 -158 4 -201h-163z" glyph-name="idieresis" horiz-adv-x="475" unicode="ï"/><glyph d="M598 1264q207 -245 207 -693q0 -151 -28 -266.5t-77.5 -185t-114 -104.5t-141.5 -35q-152 0 -252 131t-100 354q0 219 91 349t231 130q69 0 127 -30t92 -78q-27 208 -154 348l-170 -117l-53 74l156 106q-105 78 -219 101l16 135q191 -35 326 -154l161 111l56 -70z M446 123q89 0 144 91.5t55 256.5q0 161 -55 249.5t-144 88.5q-88 0 -142 -90t-54 -254q0 -162 54.5 -252t141.5 -90z" glyph-name="eth" horiz-adv-x="897" unicode="ð"/><glyph d="M217 1122q8 90 47.5 142.5t100.5 52.5q34 0 66 -13.5t51.5 -29.5t43.5 -29.5t45 -13.5q50 0 56 78h104q-8 -90 -46 -142.5t-99 -52.5q-44 0 -82.5 21t-70 42t-56.5 21q-46 0 -55 -76h-105zM80 838l37 108h170l10 -110q32 59 90.5 94t136.5 35q123 0 196 -83.5t73 -240.5 v-420q0 -160 2 -221h-160q4 84 4 231v406q0 92 -43 138t-117 46q-58 0 -105 -39t-75 -110v-441q0 -159 4 -231h-162q4 74 4 231v607h-65z" glyph-name="ntilde" horiz-adv-x="899" unicode="ñ"/><glyph d="M252 1386h164l133 -288h-135zM92 471q0 226 101 361t253 135q154 0 255.5 -135.5t101.5 -360.5t-101 -358t-256 -133q-153 0 -253.5 133.5t-100.5 357.5zM250 471q0 -161 53.5 -254.5t142.5 -93.5q92 0 145.5 92.5t53.5 255.5q0 165 -54 257.5t-145 92.5 q-90 0 -143 -95.5t-53 -254.5z" glyph-name="ograve" horiz-adv-x="894" unicode="ò"/><glyph d="M637 1386l-162 -288h-135l133 288h164zM92 471q0 226 101 361t253 135q154 0 255.5 -135.5t101.5 -360.5t-101 -358t-256 -133q-153 0 -253.5 133.5t-100.5 357.5zM250 471q0 -161 53.5 -254.5t142.5 -93.5q92 0 145.5 92.5t53.5 255.5q0 165 -54 257.5t-145 92.5 q-90 0 -143 -95.5t-53 -254.5z" glyph-name="oacute" horiz-adv-x="894" unicode="ó"/><glyph d="M223 1081l183 291h77l179 -291h-127l-93 164l-92 -164h-127zM92 471q0 226 101 361t253 135q154 0 255.5 -135.5t101.5 -360.5t-101 -358t-256 -133q-153 0 -253.5 133.5t-100.5 357.5zM250 471q0 -161 53.5 -254.5t142.5 -93.5q92 0 145.5 92.5t53.5 255.5 q0 165 -54 257.5t-145 92.5q-90 0 -143 -95.5t-53 -254.5z" glyph-name="ocircumflex" horiz-adv-x="894" unicode="ô"/><glyph d="M188 1122q8 90 47.5 142.5t100.5 52.5q44 0 82 -21.5t69 -43t56 -21.5q49 0 55 78h104q-8 -90 -46 -142.5t-99 -52.5q-44 0 -82.5 21t-70 42t-56.5 21q-46 0 -55 -76h-105zM92 471q0 226 101 361t253 135q154 0 255.5 -135.5t101.5 -360.5t-101 -358t-256 -133 q-153 0 -253.5 133.5t-100.5 357.5zM250 471q0 -161 53.5 -254.5t142.5 -93.5q92 0 145.5 92.5t53.5 255.5q0 165 -54 257.5t-145 92.5q-90 0 -143 -95.5t-53 -254.5z" glyph-name="otilde" horiz-adv-x="894" unicode="õ"/><glyph d="M195 1257q0 43 27.5 75t64.5 32q38 0 66 -32t28 -75q0 -44 -28 -75t-66 -31q-37 0 -64.5 31t-27.5 75zM508 1257q0 43 27.5 75t64.5 32q38 0 66 -32t28 -75q0 -44 -28 -75t-66 -31q-37 0 -64.5 31t-27.5 75zM92 471q0 226 101 361t253 135q154 0 255.5 -135.5 t101.5 -360.5t-101 -358t-256 -133q-153 0 -253.5 133.5t-100.5 357.5zM250 471q0 -161 53.5 -254.5t142.5 -93.5q92 0 145.5 92.5t53.5 255.5q0 165 -54 257.5t-145 92.5q-90 0 -143 -95.5t-53 -254.5z" glyph-name="odieresis" horiz-adv-x="894" unicode="ö"/><glyph d="M313 870q0 44 28 74.5t67 30.5t67.5 -30.5t28.5 -74.5q0 -45 -28.5 -77.5t-67.5 -32.5t-67 32.5t-28 77.5zM741 604v-137h-667v137h667zM313 207q0 45 28 76.5t67 31.5t67.5 -31.5t28.5 -76.5q0 -43 -29 -75t-67 -32t-66.5 32t-28.5 75z" glyph-name="divide" horiz-adv-x="817" unicode="÷"/><glyph d="M725 836q104 -132 104 -365q0 -225 -100.5 -358t-255.5 -133q-131 0 -223 98l-62 -96h-96l105 165q-78 131 -78 324q0 226 101 361t253 135q111 0 195 -72l41 66h94zM276 471q0 -92 19 -166l293 465q-48 51 -115 51q-90 0 -143.5 -95.5t-53.5 -254.5zM473 123 q92 0 145.5 92.5t53.5 255.5q0 140 -37 221l-301 -479q50 -90 139 -90z" glyph-name="oslash" horiz-adv-x="921" unicode="ø"/><glyph d="M238 1386h163l134 -288h-136zM80 840l39 106h186q-4 -47 -4 -211v-413q0 -99 37 -148t104 -49q53 0 98 39.5t68 109.5v443q0 157 -2 229h162q-4 -68 -4 -221v-532q0 -123 12 -193h-133l-29 106q-32 -56 -86.5 -89t-126.5 -33q-118 0 -186 82t-68 241v533h-67z" glyph-name="ugrave" horiz-adv-x="929" unicode="ù"/><glyph d="M623 1386l-162 -288h-135l133 288h164zM80 840l39 106h186q-4 -47 -4 -211v-413q0 -99 37 -148t104 -49q53 0 98 39.5t68 109.5v443q0 157 -2 229h162q-4 -68 -4 -221v-532q0 -123 12 -193h-133l-29 106q-32 -56 -86.5 -89t-126.5 -33q-118 0 -186 82t-68 241v533h-67z" glyph-name="uacute" horiz-adv-x="929" unicode="ú"/><glyph d="M209 1081l182 291h78l178 -291h-127l-92 164l-92 -164h-127zM80 840l39 106h186q-4 -47 -4 -211v-413q0 -99 37 -148t104 -49q53 0 98 39.5t68 109.5v443q0 157 -2 229h162q-4 -68 -4 -221v-532q0 -123 12 -193h-133l-29 106q-32 -56 -86.5 -89t-126.5 -33 q-118 0 -186 82t-68 241v533h-67z" glyph-name="ucircumflex" horiz-adv-x="929" unicode="û"/><glyph d="M180 1257q0 43 27.5 75t64.5 32q38 0 66.5 -32t28.5 -75q0 -44 -28 -75t-67 -31q-37 0 -64.5 31t-27.5 75zM494 1257q0 43 27.5 75t64.5 32q38 0 66 -32t28 -75q0 -44 -28 -75t-66 -31q-37 0 -64.5 31t-27.5 75zM80 840l39 106h186q-4 -47 -4 -211v-413q0 -99 37 -148 t104 -49q53 0 98 39.5t68 109.5v443q0 157 -2 229h162q-4 -68 -4 -221v-532q0 -123 12 -193h-133l-29 106q-32 -56 -86.5 -89t-126.5 -33q-118 0 -186 82t-68 241v533h-67z" glyph-name="udieresis" horiz-adv-x="929" unicode="ü"/><glyph d="M600 1386l-162 -288h-135l133 288h164zM39 946h182q8 -33 26 -99t21 -79l148 -559l143 551q20 79 43 186h170q-44 -117 -70 -207l-276 -911q-39 -124 -101.5 -175.5t-160.5 -51.5h-68l8 127q86 0 119 23.5t60 105.5l55 161l-215 678q-4 11 -35 104.5t-49 145.5z" glyph-name="yacute" horiz-adv-x="808" unicode="ý"/><glyph d="M868 483q0 -236 -95.5 -365.5t-254.5 -129.5q-125 0 -205 84v-369q0 -69 4 -201h-159q0 34 1 102t1 103v1573q0 129 -4 199h161q-4 -136 -4 -197v-414q33 45 88 74t123 29q155 0 249.5 -130t94.5 -358zM711 481q0 166 -56.5 255t-158.5 89q-121 0 -183 -127v-458 q32 -51 78.5 -79t97.5 -28q107 0 164.5 89t57.5 259z" glyph-name="thorn" horiz-adv-x="960" unicode="þ"/><glyph d="M158 1257q0 43 27.5 75t64.5 32q38 0 66 -32t28 -75q0 -44 -28 -75t-66 -31q-37 0 -64.5 31t-27.5 75zM471 1257q0 43 27.5 75t64.5 32q38 0 66 -32t28 -75q0 -44 -28 -75t-66 -31q-37 0 -64.5 31t-27.5 75zM39 946h182q8 -33 26 -99t21 -79l148 -559l143 551 q20 79 43 186h170q-44 -117 -70 -207l-276 -911q-39 -124 -101.5 -175.5t-160.5 -51.5h-68l8 127q86 0 119 23.5t60 105.5l55 161l-215 678q-4 11 -35 104.5t-49 145.5z" glyph-name="ydieresis" horiz-adv-x="808" unicode="ÿ"/><glyph d="M307 1556v123h404v-123h-404zM37 0q69 182 98 276l342 1117h66l350 -1121q40 -121 102 -272h-190l-109 387h-383l-108 -387h-168zM352 528h305l-153 564z" glyph-name="Amacron" horiz-adv-x="1032" unicode="Ā"/><glyph d="M178 1167v123h404v-123h-404zM84 274q0 138 77.5 216.5t207.5 89.5q91 6 153 6v69q0 86 -44 132.5t-122 46.5q-94 0 -182 -68l-49 121q47 38 114.5 60t139.5 22q139 0 218 -82.5t79 -241.5v-344q0 -191 26 -301h-153l-12 104q-80 -122 -220 -122q-99 0 -166 80.5 t-67 211.5zM240 276q0 -75 31 -116t83 -41q48 0 94.5 33t75.5 92v219l-110 -4q-174 -7 -174 -183z" glyph-name="amacron" horiz-adv-x="821" unicode="ā"/><glyph d="M410 1733q9 -131 98 -131q40 0 66 33t32 98h111q-6 -115 -64 -177.5t-145 -62.5q-86 0 -144.5 63.5t-64.5 176.5h111zM37 0q69 182 98 276l342 1117h66l350 -1121q40 -121 102 -272h-190l-109 387h-383l-108 -387h-168zM352 528h305l-153 564z" glyph-name="Abreve" horiz-adv-x="1032" unicode="Ă"/><glyph d="M281 1343q9 -131 98 -131q40 0 66 33t32 98h111q-6 -114 -64 -176.5t-145 -62.5q-86 0 -144.5 63t-64.5 176h111zM84 274q0 138 77.5 216.5t207.5 89.5q91 6 153 6v69q0 86 -44 132.5t-122 46.5q-94 0 -182 -68l-49 121q47 38 114.5 60t139.5 22q139 0 218 -82.5 t79 -241.5v-344q0 -191 26 -301h-153l-12 104q-80 -122 -220 -122q-99 0 -166 80.5t-67 211.5zM240 276q0 -75 31 -116t83 -41q48 0 94.5 33t75.5 92v219l-110 -4q-174 -7 -174 -183z" glyph-name="abreve" horiz-adv-x="821" unicode="ă"/><glyph d="M993 0q-159 -140 -159 -276q0 -52 21.5 -80.5t57.5 -28.5q37 0 68 25l12 -105q-56 -33 -125 -33q-74 0 -121 51.5t-47 139.5q0 76 37 156t107 151h-39l-109 387h-383l-108 -387h-168q69 182 98 276l342 1117h66l350 -1121q40 -121 102 -272h-2zM352 528h305l-153 564z" glyph-name="Aogonek" horiz-adv-x="1032" unicode="Ą"/><glyph d="M623 -385q36 0 67 25l12 -105q-56 -33 -124 -33q-74 0 -121 51.5t-47 139.5q0 76 36.5 156t106.5 151h-4l-12 104q-80 -122 -220 -122q-99 0 -166 80.5t-67 211.5q0 138 77.5 216.5t207.5 89.5q91 6 153 6v69q0 86 -44 132.5t-122 46.5q-94 0 -182 -68l-49 121 q47 38 114.5 60t139.5 22q139 0 218 -82.5t79 -241.5v-344q0 -191 26 -301q-159 -140 -159 -276q0 -51 22 -80t58 -29zM524 244v219l-110 -4q-174 -7 -174 -183q0 -75 31 -116t83 -41q48 0 94.5 33t75.5 92z" glyph-name="aogonek" horiz-adv-x="821" unicode="ą"/><glyph d="M760 1776l-162 -289h-135l133 289h164zM106 684q0 207 69 370t189.5 253t270.5 90q125 0 246 -54v-174q-95 74 -232 74q-164 0 -267 -155t-103 -402t103.5 -402t264.5 -155q121 0 238 80v-170q-118 -62 -256 -62q-229 0 -376 196.5t-147 510.5z" glyph-name="Cacute" horiz-adv-x="989" unicode="Ć"/><glyph d="M629 1386l-162 -288h-135l133 288h164zM92 471q0 229 108 362.5t281 133.5q113 0 189 -60v-162q-76 76 -174 76q-117 0 -181.5 -92t-64.5 -258t64 -256t184 -90q94 0 174 76v-158q-66 -63 -189 -63q-175 0 -283 131.5t-108 359.5z" glyph-name="cacute" horiz-adv-x="782" unicode="ć"/><glyph d="M475 1647q0 43 27.5 74.5t64.5 31.5q38 0 66.5 -31.5t28.5 -74.5q0 -44 -28.5 -75.5t-66.5 -31.5q-37 0 -64.5 31.5t-27.5 75.5zM106 684q0 207 69 370t189.5 253t270.5 90q125 0 246 -54v-174q-95 74 -232 74q-164 0 -267 -155t-103 -402t103.5 -402t264.5 -155 q121 0 238 80v-170q-118 -62 -256 -62q-229 0 -376 196.5t-147 510.5z" glyph-name="Cdotaccent" horiz-adv-x="989" unicode="Ċ"/><glyph d="M344 1257q0 43 27.5 75t64.5 32q38 0 66 -32t28 -75q0 -44 -28 -75t-66 -31q-37 0 -64.5 31t-27.5 75zM92 471q0 229 108 362.5t281 133.5q113 0 189 -60v-162q-76 76 -174 76q-117 0 -181.5 -92t-64.5 -258t64 -256t184 -90q94 0 174 76v-158q-66 -63 -189 -63 q-175 0 -283 131.5t-108 359.5z" glyph-name="cdotaccent" horiz-adv-x="782" unicode="ċ"/><glyph d="M784 1761l-182 -291h-78l-178 291h127l92 -164l92 164h127zM106 684q0 207 69 370t189.5 253t270.5 90q125 0 246 -54v-174q-95 74 -232 74q-164 0 -267 -155t-103 -402t103.5 -402t264.5 -155q121 0 238 80v-170q-118 -62 -256 -62q-229 0 -376 196.5t-147 510.5z" glyph-name="Ccaron" horiz-adv-x="989" unicode="Č"/><glyph d="M653 1372l-182 -291h-78l-178 291h127l92 -164l92 164h127zM92 471q0 229 108 362.5t281 133.5q113 0 189 -60v-162q-76 76 -174 76q-117 0 -181.5 -92t-64.5 -258t64 -256t184 -90q94 0 174 76v-158q-66 -63 -189 -63q-175 0 -283 131.5t-108 359.5z" glyph-name="ccaron" horiz-adv-x="782" unicode="č"/><glyph d="M715 1761l-183 -291h-77l-179 291h127l93 -164l92 164h127zM162 0q4 200 4 377v680q0 155 -4 319h295q115 0 213 -47t169 -133.5t111.5 -217t40.5 -290.5q0 -320 -149 -504t-385 -184h-295zM330 143h116q167 0 270 145.5t103 399.5q0 252 -104 398.5t-269 146.5h-116 v-1090z" glyph-name="Dcaron" horiz-adv-x="1097" unicode="Ď"/><glyph d="M956 1122h-114l26 353h138zM92 475q0 236 95.5 365t254.5 129q126 0 205 -82v454h-78l39 107h197q-4 -110 -4 -186v-1026q0 -168 2 -236h-88l-56 98q-38 -51 -97 -81.5t-126 -30.5q-156 0 -250 130t-94 359zM250 475q0 -167 55 -255.5t158 -88.5q58 0 107.5 32.5 t76.5 90.5v463q-64 106 -176 106q-107 0 -164 -89t-57 -259z" glyph-name="dcaron" horiz-adv-x="960" unicode="ď"/><glyph d="M457 1376q115 0 213 -47t169 -133.5t111.5 -217t40.5 -290.5q0 -320 -149 -504t-385 -184h-295q4 200 4 377v241h-143v138h143v301q0 155 -4 319h295zM446 143q167 0 270 145.5t103 399.5q0 252 -104 398.5t-269 146.5h-116v-477h190v-138h-190v-475h116z" glyph-name="Dcroat" horiz-adv-x="1097" unicode="Đ"/><glyph d="M850 1149h-49v-913q0 -168 2 -236h-88l-56 98q-38 -51 -97 -81.5t-126 -30.5q-156 0 -250 130t-94 359q0 236 95.5 365t254.5 129q126 0 205 -82v262h-223v111h223v81h-78l39 107h197q-4 -110 -4 -186v-2h49v-111zM647 254v463q-64 106 -176 106q-107 0 -164 -89 t-57 -259q0 -167 55 -255.5t158 -88.5q58 0 107.5 32.5t76.5 90.5z" glyph-name="dslash" horiz-adv-x="960" unicode="đ"/><glyph d="M223 1556v123h404v-123h-404zM162 0l4 332v708q0 148 -4 336h289q167 0 249 4l-24 -151q-66 4 -248 4h-100v-445h104q135 0 234 3v-150q-132 4 -234 4h-104v-502h141q174 0 233 2v-147q-59 2 -229 2h-311z" glyph-name="Emacron" horiz-adv-x="813" unicode="Ē"/><glyph d="M227 1167v123h404v-123h-404zM92 475q0 130 39 241.5t116.5 182t178.5 70.5q84 0 147.5 -38t100 -102t54 -137.5t17.5 -154.5q0 -55 -4 -91h-491q4 -170 61 -247.5t164 -77.5q116 0 232 96v-149q-95 -88 -240 -88q-173 0 -274 128.5t-101 366.5zM426 834q-58 0 -99 -41 t-59 -100t-20 -130h346q-3 271 -168 271z" glyph-name="emacron" horiz-adv-x="831" unicode="ē"/><glyph d="M332 1647q0 43 27.5 74.5t64.5 31.5q38 0 66 -31.5t28 -74.5q0 -44 -28 -75.5t-66 -31.5q-37 0 -64.5 31.5t-27.5 75.5zM162 0l4 332v708q0 148 -4 336h289q167 0 249 4l-24 -151q-66 4 -248 4h-100v-445h104q135 0 234 3v-150q-132 4 -234 4h-104v-502h141q174 0 233 2 v-147q-59 2 -229 2h-311z" glyph-name="Edotaccent" horiz-adv-x="813" unicode="Ė"/><glyph d="M336 1257q0 43 27.5 75t64.5 32q38 0 66 -32t28 -75q0 -44 -28 -75t-66 -31q-37 0 -64.5 31t-27.5 75zM92 475q0 130 39 241.5t116.5 182t178.5 70.5q84 0 147.5 -38t100 -102t54 -137.5t17.5 -154.5q0 -55 -4 -91h-491q4 -170 61 -247.5t164 -77.5q116 0 232 96v-149 q-95 -88 -240 -88q-173 0 -274 128.5t-101 366.5zM426 834q-58 0 -99 -41t-59 -100t-20 -130h346q-3 271 -168 271z" glyph-name="edotaccent" horiz-adv-x="831" unicode="ė"/><glyph d="M469 143q174 0 233 2v-147h-2q-157 -141 -157 -274q0 -51 22 -80t58 -29t67 25l12 -105q-56 -33 -124 -33q-74 0 -121 51.5t-47 139.5q0 76 36.5 156t106.5 151h-80h-311l4 332v708q0 148 -4 336h289q167 0 249 4l-24 -151q-66 4 -248 4h-100v-445h104q135 0 234 3v-150 q-132 4 -234 4h-104v-502h141z" glyph-name="Eogonek" horiz-adv-x="813" unicode="Ę"/><glyph d="M745 537q0 -55 -4 -91h-491q4 -170 61 -247.5t164 -77.5q116 0 232 96v-149q-24 -21 -54 -41q-125 -161 -125 -303q0 -51 22 -80t58 -29q37 0 68 25l12 -105q-59 -33 -127 -33q-72 0 -120 52t-48 139q0 143 99 287h-25q-173 0 -274 128.5t-101 366.5q0 130 39 241.5 t116.5 182t178.5 70.5q84 0 147.5 -38t100 -102t54 -137.5t17.5 -154.5zM248 563h346q-3 271 -168 271q-58 0 -99 -41t-59 -100t-20 -130z" glyph-name="eogonek" horiz-adv-x="831" unicode="ę"/><glyph d="M641 1761l-182 -291h-78l-178 291h127l92 -164l92 164h127zM162 0l4 332v708q0 148 -4 336h289q167 0 249 4l-24 -151q-66 4 -248 4h-100v-445h104q135 0 234 3v-150q-132 4 -234 4h-104v-502h141q174 0 233 2v-147q-59 2 -229 2h-311z" glyph-name="Ecaron" horiz-adv-x="813" unicode="Ě"/><glyph d="M645 1372l-182 -291h-78l-178 291h127l92 -164l92 164h127zM92 475q0 130 39 241.5t116.5 182t178.5 70.5q84 0 147.5 -38t100 -102t54 -137.5t17.5 -154.5q0 -55 -4 -91h-491q4 -170 61 -247.5t164 -77.5q116 0 232 96v-149q-95 -88 -240 -88q-173 0 -274 128.5 t-101 366.5zM426 834q-58 0 -99 -41t-59 -100t-20 -130h346q-3 271 -168 271z" glyph-name="ecaron" horiz-adv-x="831" unicode="ě"/><glyph d="M489 1733q4 -66 30.5 -98.5t68.5 -32.5q40 0 66 33t32 98h111q-6 -115 -64 -177.5t-145 -62.5q-86 0 -144.5 63.5t-64.5 176.5h110zM106 684q0 315 153 514t390 199q135 0 258 -60v-170q-123 76 -245 76q-171 0 -277 -153.5t-106 -403.5q0 -249 97.5 -403t264.5 -154 q78 0 137 35v221q0 130 -6 256h172q-4 -100 -4 -383v-203q-138 -78 -299 -78q-234 0 -384.5 194.5t-150.5 512.5z" glyph-name="Gbreve" horiz-adv-x="1075" unicode="Ğ"/><glyph d="M348 1343q9 -131 98 -131q40 0 66.5 33t32.5 98h110q-6 -114 -64 -176.5t-145 -62.5q-86 0 -144 63t-64 176h110zM92 473q0 236 95 366t253 130q65 0 119 -23.5t88 -60.5l21 61h133q-4 -90 -4 -139v-860q0 -422 -400 -422q-68 0 -141.5 14t-118.5 35l37 131 q115 -39 225 -39q121 0 183.5 64t62.5 209v143q-35 -42 -90 -69t-121 -27q-155 0 -248.5 129.5t-93.5 357.5zM250 475q0 -167 55 -255.5t158 -88.5q57 0 105.5 32t76.5 89v465q-64 106 -174 106q-108 0 -164.5 -88.5t-56.5 -259.5z" glyph-name="gbreve" horiz-adv-x="950" unicode="ğ"/><glyph d="M496 1647q0 43 27.5 74.5t64.5 31.5q38 0 66 -31.5t28 -74.5q0 -44 -28 -75.5t-66 -31.5q-37 0 -64.5 31.5t-27.5 75.5zM106 684q0 315 153 514t390 199q135 0 258 -60v-170q-123 76 -245 76q-171 0 -277 -153.5t-106 -403.5q0 -249 97.5 -403t264.5 -154q78 0 137 35 v221q0 130 -6 256h172q-4 -100 -4 -383v-203q-138 -78 -299 -78q-234 0 -384.5 194.5t-150.5 512.5z" glyph-name="Gdotaccent" horiz-adv-x="1075" unicode="Ġ"/><glyph d="M354 1257q0 43 27.5 75t64.5 32q38 0 66.5 -32t28.5 -75q0 -44 -28 -75t-67 -31q-37 0 -64.5 31t-27.5 75zM92 473q0 236 95 366t253 130q65 0 119 -23.5t88 -60.5l21 61h133q-4 -90 -4 -139v-860q0 -422 -400 -422q-68 0 -141.5 14t-118.5 35l37 131q115 -39 225 -39 q121 0 183.5 64t62.5 209v143q-35 -42 -90 -69t-121 -27q-155 0 -248.5 129.5t-93.5 357.5zM250 475q0 -167 55 -255.5t158 -88.5q57 0 105.5 32t76.5 89v465q-64 106 -174 106q-108 0 -164.5 -88.5t-56.5 -259.5z" glyph-name="gdotaccent" horiz-adv-x="950" unicode="ġ"/><glyph d="M106 684q0 315 153 514t390 199q135 0 258 -60v-170q-123 76 -245 76q-171 0 -277 -153.5t-106 -403.5q0 -249 97.5 -403t264.5 -154q78 0 137 35v221q0 130 -6 256h172q-4 -100 -4 -383v-203q-138 -78 -299 -78q-234 0 -384.5 194.5t-150.5 512.5zM694 -109 q8 -44 8 -110q0 -61 -30.5 -137.5t-79.5 -130.5l-107 36q58 116 58 193q0 45 -8 119z" glyph-name="Gcommaaccent" horiz-adv-x="1075" unicode="Ģ"/><glyph d="M350 1049q-8 44 -8 110q0 61 31 137.5t80 130.5l106 -36q-57 -114 -57 -193q0 -45 8 -119zM92 473q0 236 95 366t253 130q65 0 119 -23.5t88 -60.5l21 61h133q-4 -90 -4 -139v-860q0 -422 -400 -422q-68 0 -141.5 14t-118.5 35l37 131q115 -39 225 -39q121 0 183.5 64 t62.5 209v143q-35 -42 -90 -69t-121 -27q-155 0 -248.5 129.5t-93.5 357.5zM250 475q0 -167 55 -255.5t158 -88.5q57 0 105.5 32t76.5 89v465q-64 106 -174 106q-108 0 -164.5 -88.5t-56.5 -259.5z" glyph-name="gcommaaccent" horiz-adv-x="950" unicode="ģ"/><glyph d="M1038 1018h-49v-762q0 -178 4 -256h-172q4 160 4 291v358h-497v-358q0 -205 4 -291h-170q2 84 2 305v713h-123v117h123q0 178 -2 241h170q-4 -168 -4 -241h497q0 109 -4 241h172q-4 -172 -4 -241h49v-117zM825 795v223h-497v-47v-176h497z" glyph-name="Hbar" horiz-adv-x="1079" unicode="Ħ"/><glyph d="M631 0q2 72 2 231v406q0 92 -43 138t-117 46q-57 0 -104.5 -40t-75.5 -109v-482q0 -92 4 -190h-160q2 53 2 195v923h-108v115h108v133h-63l37 107h184q-4 -98 -4 -201v-39h215v-115h-215v-274q31 53 90 87t135 34q123 0 195.5 -83.5t72.5 -240.5v-420q0 -157 5 -221h-160 z" glyph-name="hbar" horiz-adv-x="894" unicode="ħ"/><glyph d="M47 1556v123h404v-123h-404zM162 0q4 184 4 336v670q0 166 -4 370h172q-4 -61 -4 -370v-672q0 -236 4 -334h-172z" glyph-name="Imacron" horiz-adv-x="495" unicode="Ī"/><glyph d="M37 1167v123h403v-123h-403zM156 0q6 70 6 201v542q0 156 -6 203h163q-4 -47 -4 -203v-542q0 -158 4 -201h-163z" glyph-name="imacron" horiz-adv-x="475" unicode="ī"/><glyph d="M334 0q-160 -141 -160 -276q0 -51 22 -80t58 -29q37 0 68 25l12 -105q-56 -33 -125 -33q-74 0 -121 51.5t-47 139.5q0 76 36.5 156t106.5 151h-22q4 184 4 336v670q0 166 -4 370h172q-4 -61 -4 -370v-672q0 -236 4 -334z" glyph-name="Iogonek" horiz-adv-x="495" unicode="Į"/><glyph d="M238 1151q-37 0 -65 31t-28 75q0 43 28 75t65 32q38 0 66 -32t28 -75q0 -44 -28 -75t-66 -31zM324 0q-160 -141 -160 -276q0 -51 22 -80t58 -29t67 25l13 -105q-56 -33 -125 -33q-74 0 -121 51.5t-47 139.5q0 76 36.5 156t106.5 151h-18q6 70 6 201v542q0 156 -6 203h163 q-4 -47 -4 -203v-542q0 -152 4 -195z" glyph-name="iogonek" horiz-adv-x="471" unicode="į"/><glyph d="M156 1647q0 43 27.5 74.5t64.5 31.5q38 0 66 -31.5t28 -74.5q0 -44 -28 -75.5t-66 -31.5q-37 0 -64.5 31.5t-27.5 75.5zM162 0q4 184 4 336v670q0 166 -4 370h172q-4 -61 -4 -370v-672q0 -236 4 -334h-172z" glyph-name="Idotaccent" horiz-adv-x="495" unicode="İ"/><glyph d="M156 0q6 70 6 201v542q0 156 -6 203h163q-4 -47 -4 -203v-542q0 -158 4 -201h-163z" glyph-name="dotlessi" horiz-adv-x="475" unicode="ı"/><glyph d="M162 0q2 94 2 332v710q0 215 -2 334h170q-2 -111 -2 -332v-339l252 444q18 32 41 74.5t47.5 88t34.5 64.5h182q-18 -31 -53.5 -95.5t-55.5 -100.5l-282 -469l327 -529q72 -111 123 -182h-215q-29 59 -92 164l-309 512v-342q0 -211 2 -334h-170zM612 -109q9 -50 9 -110 q0 -61 -31 -137.5t-80 -130.5l-107 36q58 116 58 193q0 45 -8 119z" glyph-name="Kcommaaccent" horiz-adv-x="978" unicode="Ķ"/><glyph d="M141 0q4 55 4 205v1161h-69l35 107h192q-4 -55 -4 -199v-748l301 420h184q-38 -38 -133 -164l-198 -262l258 -373q52 -82 102 -147h-197l-317 477v-287q0 -131 2 -190h-160zM537 -109q8 -44 8 -110q0 -61 -31 -137.5t-80 -130.5l-106 36q57 114 57 193q0 45 -8 119z" glyph-name="kcommaaccent" horiz-adv-x="849" unicode="ķ"/><glyph d="M444 1776l-161 -289h-136l134 289h163zM162 0q2 29 2 377v620q0 273 -2 379h170q-4 -152 -4 -168v-1058h172q172 0 223 4v-158q-63 4 -229 4h-332z" glyph-name="Lacute" horiz-adv-x="765" unicode="Ĺ"/><glyph d="M416 1868l-162 -289h-135l133 289h164zM141 0q4 86 4 201v1165h-69l37 107h190q-4 -39 -4 -177v-1095q0 -158 4 -201h-162z" glyph-name="lacute" horiz-adv-x="458" unicode="ĺ"/><glyph d="M162 0q2 29 2 377v620q0 273 -2 379h170q-4 -152 -4 -168v-1058h172q172 0 223 4v-158q-63 4 -229 4h-332zM528 -109q9 -49 9 -110t-31 -137.5t-80 -130.5l-107 36q58 116 58 193q0 45 -8 119z" glyph-name="Lcommaaccent" horiz-adv-x="765" unicode="Ļ"/><glyph d="M141 0q4 86 4 201v1165h-69l37 107h190q-4 -39 -4 -177v-1095q0 -158 4 -201h-162zM315 -109q9 -49 9 -110t-31 -137.5t-80 -130.5l-107 36q58 116 58 193q0 45 -8 119z" glyph-name="lcommaaccent" horiz-adv-x="458" unicode="ļ"/><glyph d="M508 1038l27 355h135l-49 -355h-113zM162 0q2 29 2 377v620q0 273 -2 379h170q-4 -152 -4 -168v-1058h172q172 0 223 4v-158q-63 4 -229 4h-332z" glyph-name="Lcaron" horiz-adv-x="765" unicode="Ľ"/><glyph d="M354 1122l27 353h137l-51 -353h-113zM141 0q4 86 4 201v1165h-69l37 107h190q-4 -39 -4 -177v-1095q0 -158 4 -201h-162z" glyph-name="lcaron" horiz-adv-x="391" unicode="ľ"/><glyph d="M162 0q2 29 2 377v620q0 273 -2 379h170q-4 -152 -4 -168v-1058h172q172 0 223 4v-158q-63 4 -229 4h-332zM455 760q0 49 28.5 78.5t69.5 29.5t68.5 -29t27.5 -79t-27.5 -79.5t-68.5 -29.5q-42 0 -70 29.5t-28 79.5z" glyph-name="Ldot" horiz-adv-x="768" unicode="Ŀ"/><glyph d="M141 0q4 86 4 201v1165h-69l37 107h190q-4 -39 -4 -177v-1095q0 -158 4 -201h-162zM375 758q0 50 28.5 79t71.5 29q40 0 68 -29.5t28 -78.5q0 -50 -28 -79.5t-70 -29.5t-70 29.5t-28 79.5z" glyph-name="ldot" horiz-adv-x="532" unicode="ŀ"/><glyph d="M518 150q172 0 223 4v-158q-63 4 -229 4h-332q2 29 2 377v207l-155 -115v158l155 114v256q0 273 -2 379h170q-4 -152 -4 -168v-346l209 156v-160l-209 -153v-555h172z" glyph-name="Lslash" horiz-adv-x="765" unicode="Ł"/><glyph d="M416 743l-103 -75v-467q0 -158 4 -201h-161q4 86 4 201v356l-111 -82v152l111 82v657h-70l37 107h190q-4 -39 -4 -177v-475l103 76v-154z" glyph-name="lslash" horiz-adv-x="483" unicode="ł"/><glyph d="M758 1776l-162 -289h-135l133 289h164zM162 0q2 88 2 289v753q0 228 -2 351h65l619 -969v610q0 211 -4 342h168q-6 -104 -6 -332v-763q0 -197 4 -285h-70l-614 960v-675q0 -199 4 -281h-166z" glyph-name="Nacute" horiz-adv-x="1171" unicode="Ń"/><glyph d="M666 1386l-162 -288h-135l133 288h164zM80 838l37 108h170l10 -110q32 59 90.5 94t136.5 35q123 0 196 -83.5t73 -240.5v-420q0 -160 2 -221h-160q4 84 4 231v406q0 92 -43 138t-117 46q-58 0 -105 -39t-75 -110v-441q0 -159 4 -231h-162q4 74 4 231v607h-65z" glyph-name="nacute" horiz-adv-x="899" unicode="ń"/><glyph d="M162 0q2 88 2 289v753q0 228 -2 351h65l619 -969v610q0 211 -4 342h168q-6 -104 -6 -332v-763q0 -197 4 -285h-70l-614 960v-675q0 -199 4 -281h-166zM692 -109q8 -44 8 -110q0 -61 -30.5 -137.5t-79.5 -130.5l-107 36q58 116 58 193q0 36 -9 119z" glyph-name="Ncommaaccent" horiz-adv-x="1171" unicode="Ņ"/><glyph d="M80 838l37 108h170l10 -110q32 59 90.5 94t136.5 35q123 0 196 -83.5t73 -240.5v-420q0 -160 2 -221h-160q4 84 4 231v406q0 92 -43 138t-117 46q-58 0 -105 -39t-75 -110v-441q0 -159 4 -231h-162q4 74 4 231v607h-65zM590 -109q8 -44 8 -110q0 -61 -31 -137.5 t-80 -130.5l-106 36q57 114 57 193q0 45 -8 119z" glyph-name="ncommaaccent" horiz-adv-x="899" unicode="ņ"/><glyph d="M782 1761l-182 -291h-78l-178 291h127l92 -164l92 164h127zM162 0q2 88 2 289v753q0 228 -2 351h65l619 -969v610q0 211 -4 342h168q-6 -104 -6 -332v-763q0 -197 4 -285h-70l-614 960v-675q0 -199 4 -281h-166z" glyph-name="Ncaron" horiz-adv-x="1171" unicode="Ň"/><glyph d="M690 1372l-182 -291h-78l-178 291h127l92 -164l92 164h127zM80 838l37 108h170l10 -110q32 59 90.5 94t136.5 35q123 0 196 -83.5t73 -240.5v-420q0 -160 2 -221h-160q4 84 4 231v406q0 92 -43 138t-117 46q-58 0 -105 -39t-75 -110v-441q0 -159 4 -231h-162q4 74 4 231 v607h-65z" glyph-name="ncaron" horiz-adv-x="899" unicode="ň"/><glyph d="M1004 1044v-763q0 -197 4 -285h-31q0 -176 -85 -290t-212 -114q-79 0 -133 25v141q57 -26 123 -26q69 0 109 71.5t40 190.5v180l17 -20l-512 802v-675q0 -199 4 -281h-166q2 88 2 289v753q0 228 -2 351h65l619 -969v610q0 211 -4 342h168q-6 -104 -6 -332z" glyph-name="Eng" horiz-adv-x="1171" unicode="Ŋ"/><glyph d="M141 0q4 74 4 231v607h-65l37 108h170l10 -110q32 59 90.5 94t136.5 35q123 0 196 -83.5t73 -240.5v-788q0 -171 -68.5 -261t-202.5 -90h-94v140h82q129 0 129 215v780q0 92 -43 138t-117 46q-58 0 -105 -39t-75 -110v-441q0 -159 4 -231h-162z" glyph-name="eng" horiz-adv-x="897" unicode="ŋ"/><glyph d="M416 1556v123h403v-123h-403zM106 686q0 316 142 513.5t368 197.5q150 0 266 -89.5t180 -251.5t64 -370q0 -316 -141.5 -512.5t-368.5 -196.5q-226 0 -368 196t-142 513zM279 686q0 -251 92.5 -405t244.5 -154q153 0 246.5 154.5t93.5 404.5t-93.5 404.5t-246.5 154.5 q-151 0 -244 -154.5t-93 -404.5z" glyph-name="Omacron" horiz-adv-x="1234" unicode="Ō"/><glyph d="M244 1167v123h403v-123h-403zM92 471q0 226 101 361t253 135q154 0 255.5 -135.5t101.5 -360.5t-101 -358t-256 -133q-153 0 -253.5 133.5t-100.5 357.5zM250 471q0 -161 53.5 -254.5t142.5 -93.5q92 0 145.5 92.5t53.5 255.5q0 165 -54 257.5t-145 92.5 q-90 0 -143 -95.5t-53 -254.5z" glyph-name="omacron" horiz-adv-x="894" unicode="ō"/><glyph d="M655 1776l-161 -289h-136l134 289h163zM989 1776l-162 -289h-135l133 289h164zM106 686q0 316 142 513.5t368 197.5q150 0 266 -89.5t180 -251.5t64 -370q0 -316 -141.5 -512.5t-368.5 -196.5q-226 0 -368 196t-142 513zM279 686q0 -251 92.5 -405t244.5 -154 q153 0 246.5 154.5t93.5 404.5t-93.5 404.5t-246.5 154.5q-151 0 -244 -154.5t-93 -404.5z" glyph-name="Ohungarumlaut" horiz-adv-x="1234" unicode="Ő"/><glyph d="M483 1386l-161 -288h-136l133 288h164zM817 1386l-162 -288h-135l133 288h164zM92 471q0 226 101 361t253 135q154 0 255.5 -135.5t101.5 -360.5t-101 -358t-256 -133q-153 0 -253.5 133.5t-100.5 357.5zM250 471q0 -161 53.5 -254.5t142.5 -93.5q92 0 145.5 92.5 t53.5 255.5q0 165 -54 257.5t-145 92.5q-90 0 -143 -95.5t-53 -254.5z" glyph-name="ohungarumlaut" horiz-adv-x="894" unicode="ő"/><glyph d="M106 686q0 313 151.5 501.5t391.5 188.5h269q167 0 251 4l-10 -151q-29 0 -106 2t-127 2h-119v-445h102q139 0 234 3v-150q-66 4 -234 4h-102v-502h143q173 0 230 2v-147q-57 2 -228 2h-303q-241 0 -392 186.5t-151 499.5zM279 686q0 -252 98.5 -397.5t263.5 -145.5 l2 1090q-167 0 -265.5 -146.5t-98.5 -400.5z" glyph-name="OE" horiz-adv-x="1288" unicode="Œ"/><glyph d="M92 471q0 226 100.5 361t249.5 135q83 0 154 -47t115 -132q41 85 105.5 133t146.5 48t145 -38t99 -101.5t53.5 -137.5t17.5 -155q0 -37 -6 -91h-481q8 -325 219 -325q111 0 227 96v-149q-95 -88 -236 -88q-198 0 -290 176q-44 -84 -114.5 -130t-154.5 -46 q-150 0 -250 134t-100 357zM788 563h338q-3 271 -163 271q-56 0 -96 -41t-58 -100t-21 -130zM250 471q0 -161 53 -254.5t139 -93.5t138.5 93t52.5 255q0 164 -53 257t-138 93q-88 0 -140 -95.5t-52 -254.5z" glyph-name="oe" horiz-adv-x="1363" unicode="œ"/><glyph d="M627 1776l-162 -289h-135l133 289h164zM786 981q0 -137 -53 -227t-145 -133l151 -312q86 -170 170 -309h-198l-275 563h-108v-207q0 -268 4 -356h-170q4 180 4 362v687q0 171 -4 327h250q166 0 270 -100.5t104 -294.5zM616 969q0 129 -57 195.5t-153 66.5h-78v-524h80 q93 0 150.5 67.5t57.5 194.5z" glyph-name="Racute" horiz-adv-x="962" unicode="Ŕ"/><glyph d="M498 1386l-162 -288h-135l133 288h164zM80 840l37 106h157l17 -137q28 69 86.5 113.5t124.5 44.5q43 0 73 -15l-28 -153q-36 12 -68 12q-55 0 -103 -37t-75 -104v-467q0 -26 6 -203h-164q4 148 4 219v621h-67z" glyph-name="racute" horiz-adv-x="614" unicode="ŕ"/><glyph d="M786 981q0 -137 -53 -227t-145 -133l151 -312q86 -170 170 -309h-198l-275 563h-108v-207q0 -268 4 -356h-170q4 180 4 362v687q0 171 -4 327h250q166 0 270 -100.5t104 -294.5zM616 969q0 129 -57 195.5t-153 66.5h-78v-524h80q93 0 150.5 67.5t57.5 194.5zM586 -109 q8 -44 8 -110q0 -61 -31 -137.5t-80 -130.5l-106 36q57 114 57 193q0 45 -8 119z" glyph-name="Rcommaaccent" horiz-adv-x="962" unicode="Ŗ"/><glyph d="M80 840l37 106h157l17 -137q28 69 86.5 113.5t124.5 44.5q43 0 73 -15l-28 -153q-36 12 -68 12q-55 0 -103 -37t-75 -104v-467q0 -26 6 -203h-164q4 148 4 219v621h-67zM416 -109q8 -44 8 -110q0 -61 -31 -137.5t-80 -130.5l-106 36q57 114 57 193q0 45 -8 119z" glyph-name="rcommaaccent" horiz-adv-x="614" unicode="ŗ"/><glyph d="M651 1761l-182 -291h-78l-178 291h127l92 -164l92 164h127zM786 981q0 -137 -53 -227t-145 -133l151 -312q86 -170 170 -309h-198l-275 563h-108v-207q0 -268 4 -356h-170q4 180 4 362v687q0 171 -4 327h250q166 0 270 -100.5t104 -294.5zM616 969q0 129 -57 195.5 t-153 66.5h-78v-524h80q93 0 150.5 67.5t57.5 194.5z" glyph-name="Rcaron" horiz-adv-x="962" unicode="Ř"/><glyph d="M522 1372l-182 -291h-78l-178 291h127l92 -164l92 164h127zM80 840l37 106h157l17 -137q28 69 86.5 113.5t124.5 44.5q43 0 73 -15l-28 -153q-36 12 -68 12q-55 0 -103 -37t-75 -104v-467q0 -26 6 -203h-164q4 148 4 219v621h-67z" glyph-name="rcaron" horiz-adv-x="614" unicode="ř"/><glyph d="M567 1776l-161 -289h-136l133 289h164zM90 43l37 170q39 -45 96.5 -68.5t120.5 -23.5q79 0 128.5 52.5t49.5 141.5q0 82 -46 154.5t-136 167.5q-111 116 -164 207.5t-53 210.5q0 159 85.5 250.5t229.5 91.5q128 0 209 -51v-166q-78 69 -190 69q-72 0 -117 -50t-45 -136 q0 -75 38.5 -145.5t121.5 -151.5q127 -121 184 -221t57 -221q0 -159 -95.5 -255t-248.5 -96q-149 0 -262 70z" glyph-name="Sacute" horiz-adv-x="786" unicode="Ś"/><glyph d="M522 1386l-162 -288h-135l133 288h164zM84 39l29 156q73 -86 174 -86q54 0 88.5 30t34.5 84q0 49 -31 92t-100 105q-86 79 -128 144t-42 149q0 114 67 184t182 70q95 0 179 -41v-152q-81 62 -164 62q-50 0 -80.5 -28.5t-30.5 -80.5q0 -44 30.5 -84.5t100.5 -103.5 q85 -77 128.5 -147t43.5 -156q0 -117 -74 -188t-192 -71q-59 0 -117.5 16.5t-97.5 45.5z" glyph-name="sacute" horiz-adv-x="653" unicode="ś"/><glyph d="M696 324q0 -137 -72.5 -228.5t-193.5 -115.5l-24 -62q56 -12 88 -56.5t32 -115.5q0 -83 -45 -134.5t-127 -51.5q-58 0 -100 22l6 92q44 -18 74 -18q38 0 60 24t22 64q0 92 -94 92q-23 0 -37 -4l53 141q-143 3 -248 70l37 170q39 -45 96.5 -68.5t120.5 -23.5 q79 0 128.5 52.5t49.5 141.5q0 82 -46 154.5t-136 167.5q-111 116 -164 207.5t-53 210.5q0 159 85.5 250.5t229.5 91.5q128 0 209 -51v-166q-78 69 -190 69q-72 0 -117 -50t-45 -136q0 -75 38.5 -145.5t121.5 -151.5q127 -121 184 -221t57 -221z" glyph-name="Scedilla" horiz-adv-x="786" unicode="Ş"/><glyph d="M565 236q0 -97 -51.5 -163t-138.5 -87l-27 -68q57 -12 89 -56.5t32 -115.5q0 -83 -45 -134.5t-127 -51.5q-58 0 -100 22l6 92q43 -18 73 -18q38 0 60 24t22 64q0 92 -94 92q-23 0 -37 -4l56 145q-126 7 -199 62l29 156q73 -86 174 -86q54 0 88.5 30t34.5 84q0 49 -31 92 t-100 105q-86 79 -128 144t-42 149q0 114 67 184t182 70q95 0 179 -41v-152q-81 62 -164 62q-50 0 -80.5 -28.5t-30.5 -80.5q0 -44 30.5 -84.5t100.5 -103.5q85 -77 128.5 -147t43.5 -156z" glyph-name="scedilla" horiz-adv-x="653" unicode="ş"/><glyph d="M592 1761l-182 -291h-78l-178 291h127l92 -164l92 164h127zM90 43l37 170q39 -45 96.5 -68.5t120.5 -23.5q79 0 128.5 52.5t49.5 141.5q0 82 -46 154.5t-136 167.5q-111 116 -164 207.5t-53 210.5q0 159 85.5 250.5t229.5 91.5q128 0 209 -51v-166q-78 69 -190 69 q-72 0 -117 -50t-45 -136q0 -75 38.5 -145.5t121.5 -151.5q127 -121 184 -221t57 -221q0 -159 -95.5 -255t-248.5 -96q-149 0 -262 70z" glyph-name="Scaron" horiz-adv-x="786" unicode="Š"/><glyph d="M547 1372l-182 -291h-78l-178 291h127l92 -164l92 164h127zM84 39l29 156q73 -86 174 -86q54 0 88.5 30t34.5 84q0 49 -31 92t-100 105q-86 79 -128 144t-42 149q0 114 67 184t182 70q95 0 179 -41v-152q-81 62 -164 62q-50 0 -80.5 -28.5t-30.5 -80.5q0 -44 30.5 -84.5 t100.5 -103.5q85 -77 128.5 -147t43.5 -156q0 -117 -74 -188t-192 -71q-59 0 -117.5 16.5t-97.5 45.5z" glyph-name="scaron" horiz-adv-x="653" unicode="š"/><glyph d="M651 1376q185 0 240 2l-10 -151q-136 4 -232 4h-88q0 -33 -1 -124t-1 -140v-617q0 -221 6 -350h-33l-30 -82q57 -12 89 -56.5t32 -115.5q0 -83 -45 -134.5t-127 -51.5q-59 0 -101 22l6 92q43 -18 74 -18q38 0 60 24t22 64q0 92 -94 92q-23 0 -37 -4l63 168h-53 q6 141 6 350v617q0 116 -4 264h-88q-165 0 -231 -4v151q32 0 112 -1t127 -1h338z" glyph-name="uni0162" horiz-adv-x="960" unicode="Ţ"/><glyph d="M354 -82q57 -12 89 -56.5t32 -115.5q0 -83 -45 -134.5t-127 -51.5q-58 0 -100 22l6 92q43 -18 74 -18q38 0 60 24t22 64q0 92 -95 92q-23 0 -37 -4l64 168q-121 56 -121 246v563h-113v137h113v84q0 25 -1 75t-1 71l160 28q-4 -114 -4 -178v-80h198l-22 -137h-176v-541 q0 -74 25 -108.5t77 -34.5q46 0 76 27l22 -129q-57 -41 -135 -41h-16z" glyph-name="uni0163" horiz-adv-x="606" unicode="ţ"/><glyph d="M696 1761l-182 -291h-78l-178 291h127l92 -164l92 164h127zM391 0q6 141 6 350v617q0 116 -4 264h-88q-165 0 -231 -4v151q32 0 112 -1t127 -1h338q185 0 240 2l-10 -151q-136 4 -232 4h-88q0 -33 -1 -124t-1 -140v-617q0 -221 6 -350h-174z" glyph-name="Tcaron" horiz-adv-x="960" unicode="Ť"/><glyph d="M520 1079h-112l26 353h137zM63 809v137h113v84q0 25 -1 75t-1 71l160 28q-4 -114 -4 -178v-80h198l-22 -137h-176v-541q0 -74 25 -108.5t77 -34.5q46 0 76 27l22 -129q-57 -41 -135 -41q-104 0 -161.5 66t-57.5 198v563h-113z" glyph-name="tcaron" horiz-adv-x="557" unicode="ť"/><glyph d="M561 1231q0 -33 -1 -124t-1 -140v-199h158v-139h-158v-279q0 -221 6 -350h-174q6 141 6 350v279h-192v139h192v199q0 116 -4 264h-88q-165 0 -231 -4v151q32 0 112 -1t127 -1h338q185 0 240 2l-10 -151q-136 4 -232 4h-88z" glyph-name="Tbar" horiz-adv-x="960" unicode="Ŧ"/><glyph d="M524 152l23 -129q-57 -41 -135 -41q-104 0 -161.5 66t-57.5 198v168h-130v131h130v264h-113v137h113v84q0 25 -1.5 75t-1.5 71l160 28q-4 -114 -4 -178v-80h199l-23 -137h-176v-264h150v-131h-150v-146q0 -143 103 -143q45 0 75 27z" glyph-name="tbar" horiz-adv-x="624" unicode="ŧ"/><glyph d="M350 1556v123h404v-123h-404zM319 1376q-4 -94 -4 -346v-575q0 -162 62.5 -242t173.5 -80q110 0 171.5 81t61.5 243v573q0 258 -2 346h168q-2 -100 -2 -346v-571q0 -234 -107 -356.5t-290 -122.5q-187 0 -293 123.5t-106 355.5v571q0 121 -5 346h172z" glyph-name="Umacron" horiz-adv-x="1097" unicode="Ū"/><glyph d="M229 1167v123h404v-123h-404zM80 840l39 106h186q-4 -47 -4 -211v-413q0 -99 37 -148t104 -49q53 0 98 39.5t68 109.5v443q0 157 -2 229h162q-4 -68 -4 -221v-532q0 -123 12 -193h-133l-29 106q-32 -56 -86.5 -89t-126.5 -33q-118 0 -186 82t-68 241v533h-67z" glyph-name="umacron" horiz-adv-x="929" unicode="ū"/><glyph d="M397 1632q0 85 43.5 132.5t110.5 47.5t111.5 -47.5t44.5 -132.5t-44 -132.5t-112 -47.5q-67 0 -110.5 47.5t-43.5 132.5zM485 1632q0 -48 17 -76t49 -28q31 0 48 26.5t17 75.5q0 51 -17 78t-48 27q-30 0 -48 -26.5t-18 -76.5zM319 1376q-4 -94 -4 -346v-575 q0 -162 62.5 -242t173.5 -80q110 0 171.5 81t61.5 243v573q0 258 -2 346h168q-2 -100 -2 -346v-571q0 -234 -107 -356.5t-290 -122.5q-187 0 -293 123.5t-106 355.5v571q0 121 -5 346h172z" glyph-name="Uring" horiz-adv-x="1097" unicode="Ů"/><glyph d="M276 1243q0 85 43.5 132.5t110.5 47.5t111.5 -47.5t44.5 -132.5t-44 -132.5t-112 -47.5q-67 0 -110.5 47.5t-43.5 132.5zM365 1243q0 -48 16.5 -76t48.5 -28q31 0 48.5 26.5t17.5 75.5q0 50 -17.5 77.5t-48.5 27.5q-30 0 -47.5 -26.5t-17.5 -76.5zM80 840l39 106h186 q-4 -47 -4 -211v-413q0 -99 37 -148t104 -49q53 0 98 39.5t68 109.5v443q0 157 -2 229h162q-4 -68 -4 -221v-532q0 -123 12 -193h-133l-29 106q-32 -56 -86.5 -89t-126.5 -33q-118 0 -186 82t-68 241v533h-67z" glyph-name="uring" horiz-adv-x="929" unicode="ů"/><glyph d="M590 1776l-162 -289h-135l133 289h164zM924 1776l-162 -289h-135l133 289h164zM319 1376q-4 -94 -4 -346v-575q0 -162 62.5 -242t173.5 -80q110 0 171.5 81t61.5 243v573q0 258 -2 346h168q-2 -100 -2 -346v-571q0 -234 -107 -356.5t-290 -122.5q-187 0 -293 123.5 t-106 355.5v571q0 121 -5 346h172z" glyph-name="Uhungarumlaut" horiz-adv-x="1097" unicode="Ű"/><glyph d="M469 1386l-162 -288h-135l133 288h164zM803 1386l-162 -288h-135l133 288h164zM80 840l39 106h186q-4 -47 -4 -211v-413q0 -99 37 -148t104 -49q53 0 98 39.5t68 109.5v443q0 157 -2 229h162q-4 -68 -4 -221v-532q0 -123 12 -193h-133l-29 106q-32 -56 -86.5 -89 t-126.5 -33q-118 0 -186 82t-68 241v533h-67z" glyph-name="uhungarumlaut" horiz-adv-x="929" unicode="ű"/><glyph d="M782 1376h168q-2 -100 -2 -346v-571q0 -170 -58 -282.5t-163 -160.5q-133 -162 -133 -292q0 -51 22 -80t58 -29t67 25l15 -105q-59 -33 -127 -33q-72 0 -120 52t-48 139q0 135 112 287h-22q-187 0 -293 123.5t-106 355.5v571q0 121 -5 346h172q-4 -94 -4 -346v-575 q0 -162 62.5 -242t173.5 -80q110 0 171.5 81t61.5 243v573q0 258 -2 346z" glyph-name="Uogonek" horiz-adv-x="1097" unicode="Ų"/><glyph d="M696 -385q37 0 68 25l12 -105q-56 -33 -125 -33q-74 0 -121 51.5t-47 139.5q0 78 40.5 162t115.5 157l-25 94q-32 -56 -86.5 -89t-126.5 -33q-118 0 -186 82t-68 241v533h-67l39 106h186q-4 -47 -4 -211v-413q0 -99 37 -148t104 -49q53 0 98 39.5t68 109.5v443 q0 157 -2 229h162q-4 -68 -4 -221v-532q0 -123 12 -193q-160 -141 -160 -276q0 -51 22 -80t58 -29z" glyph-name="uogonek" horiz-adv-x="929" unicode="ų"/><glyph d="M522 1470l183 291h77l179 -291h-127l-93 164l-92 -164h-127zM39 1376h174l309 -1077l146 500l-187 577h154l115 -405l106 405h154l-187 -575l140 -502l307 1077h170l-92 -278l-357 -1100h-55l-197 627l-196 -627h-58l-348 1089z" glyph-name="Wcircumflex" horiz-adv-x="1478" unicode="Ŵ"/><glyph d="M350 1081l182 291h78l178 -291h-126l-93 164l-92 -164h-127zM35 946h178q16 -89 43 -203l113 -481l147 684h98l166 -688l113 539q4 20 16 74t15 75h159q-39 -122 -53 -184l-196 -780h-89l-180 692l-168 -692h-90l-207 747q-13 54 -65 217z" glyph-name="wcircumflex" horiz-adv-x="1118" unicode="ŵ"/><glyph d="M260 1470l182 291h78l178 -291h-127l-92 164l-92 -164h-127zM395 0q4 188 4 324v260l-241 542q-44 98 -119 250h197q34 -100 69 -182l180 -442l179 436q7 16 33.5 87.5t39.5 100.5h183q-92 -188 -119 -248l-240 -546v-260q0 -46 6 -322h-172z" glyph-name="Ycircumflex" horiz-adv-x="958" unicode="Ŷ"/><glyph d="M186 1081l183 291h77l179 -291h-127l-92 164l-93 -164h-127zM39 946h182q8 -33 26 -99t21 -79l148 -559l143 551q20 79 43 186h170q-44 -117 -70 -207l-276 -911q-39 -124 -101.5 -175.5t-160.5 -51.5h-68l8 127q86 0 119 23.5t60 105.5l55 161l-215 678q-4 11 -35 104.5 t-49 145.5z" glyph-name="ycircumflex" horiz-adv-x="808" unicode="ŷ"/><glyph d="M231 1647q0 43 28 74.5t65 31.5q38 0 66 -31.5t28 -74.5q0 -44 -28 -75.5t-66 -31.5q-37 0 -65 31.5t-28 75.5zM545 1647q0 43 27.5 74.5t64.5 31.5q38 0 66 -31.5t28 -74.5q0 -44 -28 -75.5t-66 -31.5q-37 0 -64.5 31.5t-27.5 75.5zM395 0q4 188 4 324v260l-241 542 q-44 98 -119 250h197q34 -100 69 -182l180 -442l179 436q7 16 33.5 87.5t39.5 100.5h183q-92 -188 -119 -248l-240 -546v-260q0 -46 6 -322h-172z" glyph-name="Ydieresis" horiz-adv-x="958" unicode="Ÿ"/><glyph d="M643 1776l-162 -289h-135l133 289h164zM70 0q48 105 114 274l381 957h-227q-160 0 -236 -6l-10 153q70 -2 260 -2h459l-500 -1231h275q84 0 227 5v-152q-57 2 -227 2h-516z" glyph-name="Zacute" horiz-adv-x="886" unicode="Ź"/><glyph d="M528 1386l-161 -288h-136l134 288h163zM49 0l354 805h-200q-53 0 -123 -4l-2 149q74 -4 133 -4h418l-348 -805h217q76 0 131 6v-149q-31 2 -105 2h-475z" glyph-name="zacute" horiz-adv-x="679" unicode="ź"/><glyph d="M358 1647q0 43 28 74.5t65 31.5q38 0 66 -31.5t28 -74.5q0 -44 -28 -75.5t-66 -31.5q-37 0 -65 31.5t-28 75.5zM70 0q48 105 114 274l381 957h-227q-160 0 -236 -6l-10 153q70 -2 260 -2h459l-500 -1231h275q84 0 227 5v-152q-57 2 -227 2h-516z" glyph-name="Zdotaccent" horiz-adv-x="886" unicode="Ż"/><glyph d="M244 1257q0 43 27.5 75t64.5 32q38 0 66 -32t28 -75q0 -44 -28 -75t-66 -31q-37 0 -64.5 31t-27.5 75zM49 0l354 805h-200q-53 0 -123 -4l-2 149q74 -4 133 -4h418l-348 -805h217q76 0 131 6v-149q-31 2 -105 2h-475z" glyph-name="zdotaccent" horiz-adv-x="679" unicode="ż"/><glyph d="M668 1761l-183 -291h-77l-179 291h127l93 -164l92 164h127zM70 0q48 105 114 274l381 957h-227q-160 0 -236 -6l-10 153q70 -2 260 -2h459l-500 -1231h275q84 0 227 5v-152q-57 2 -227 2h-516z" glyph-name="Zcaron" horiz-adv-x="886" unicode="Ž"/><glyph d="M553 1372l-182 -291h-78l-178 291h127l92 -164l92 164h127zM49 0l354 805h-200q-53 0 -123 -4l-2 149q74 -4 133 -4h418l-348 -805h217q76 0 131 6v-149q-31 2 -105 2h-475z" glyph-name="zcaron" horiz-adv-x="679" unicode="ž"/><glyph d="M-127 -373v152q51 -51 129 -51q37 0 65.5 24t56 83t50 169t39.5 272l39 379h-133v123h147l15 144q16 179 57 285.5t100.5 149t149.5 42.5q79 0 131 -31v-149q-51 41 -113 41q-76 0 -119.5 -79.5t-56.5 -279.5l-10 -123h176v-123h-193l-38 -385q-25 -253 -72 -403.5 t-117 -215.5t-174 -65q-78 0 -129 41z" glyph-name="florin" horiz-adv-x="798" unicode="ƒ"/><glyph d="M90 43l37 170q39 -45 96.5 -68.5t120.5 -23.5q79 0 128.5 52.5t49.5 141.5q0 82 -46 154.5t-136 167.5q-111 116 -164 207.5t-53 210.5q0 159 85.5 250.5t229.5 91.5q128 0 209 -51v-166q-78 69 -190 69q-72 0 -117 -50t-45 -136q0 -75 38.5 -145.5t121.5 -151.5 q127 -121 184 -221t57 -221q0 -159 -95.5 -255t-248.5 -96q-149 0 -262 70zM473 -109q8 -44 8 -110q0 -61 -30.5 -137.5t-79.5 -130.5l-107 36q58 116 58 193q0 36 -9 119z" glyph-name="Scommaaccent" horiz-adv-x="786" unicode="Ș"/><glyph d="M84 39l29 156q73 -86 174 -86q54 0 88.5 30t34.5 84q0 49 -31 92t-100 105q-86 79 -128 144t-42 149q0 114 67 184t182 70q95 0 179 -41v-152q-81 62 -164 62q-50 0 -80.5 -28.5t-30.5 -80.5q0 -44 30.5 -84.5t100.5 -103.5q85 -77 128.5 -147t43.5 -156q0 -117 -74 -188 t-192 -71q-59 0 -117.5 16.5t-97.5 45.5zM416 -109q8 -44 8 -110q0 -61 -31 -137.5t-80 -130.5l-106 36q57 114 57 193q0 45 -8 119z" glyph-name="scommaaccent" horiz-adv-x="653" unicode="ș"/><glyph d="M391 0q6 141 6 350v617q0 116 -4 264h-88q-165 0 -231 -4v151q32 0 112 -1t127 -1h338q185 0 240 2l-10 -151q-136 4 -232 4h-88q0 -33 -1 -124t-1 -140v-617q0 -221 6 -350h-174zM569 -109q9 -50 9 -110q0 -61 -31 -137.5t-80 -130.5l-107 36q58 116 58 193q0 45 -8 119 z" glyph-name="uni021A" horiz-adv-x="960" unicode="Ț"/><glyph d="M63 809v137h113v84q0 25 -1 75t-1 71l160 28q-4 -114 -4 -178v-80h198l-22 -137h-176v-541q0 -74 25 -108.5t77 -34.5q46 0 76 27l22 -129q-57 -41 -135 -41q-104 0 -161.5 66t-57.5 198v563h-113zM422 -109q8 -44 8 -110q0 -61 -31 -137.5t-80 -130.5l-106 36 q57 114 57 193q0 45 -8 119z" glyph-name="uni021B" horiz-adv-x="606" unicode="ț"/><glyph d="M-47 -498v140h82q129 0 129 215v884q0 160 -6 205h164q-5 -59 -5 -203v-890q0 -172 -68 -261.5t-202 -89.5h-94z" glyph-name="uni0237" horiz-adv-x="475" unicode="ȷ"/><glyph d="M-358 1386h163l134 -288h-136z" glyph-name="gravecomb" unicode="̀"/><glyph d="M-59 1386l-162 -288h-135l133 288h164z" glyph-name="acutecomb" unicode="́"/><glyph d="M-541 1081l183 291h77l179 -291h-127l-93 164l-92 -164h-127z" glyph-name="uni0302" unicode="̂"/><glyph d="M-608 1122q8 90 47 142.5t100 52.5q44 0 82 -21.5t69 -43t56 -21.5q49 0 55 78h105q-8 -90 -46.5 -142.5t-99.5 -52.5q-44 0 -82.5 21t-70 42t-56.5 21q-46 0 -55 -76h-104z" glyph-name="tildecomb" unicode="̃"/><glyph d="M-522 1167v123h403v-123h-403z" glyph-name="uni0304" unicode="̄"/><glyph d="M-410 1343q4 -66 30.5 -98.5t68.5 -32.5q40 0 66 33t32 98h111q-6 -114 -64 -176.5t-145 -62.5q-86 0 -144.5 63t-64.5 176h110z" glyph-name="uni0306" unicode="̆"/><glyph d="M-293 1257q0 43 27.5 75t64.5 32q38 0 66.5 -32t28.5 -75q0 -44 -28 -75t-67 -31q-37 0 -64.5 31t-27.5 75z" glyph-name="uni0307" unicode="̇"/><glyph d="M-602 1257q0 43 27.5 75t64.5 32q38 0 66 -32t28 -75q0 -44 -28 -75t-66 -31q-37 0 -64.5 31t-27.5 75zM-289 1257q0 43 27.5 75t64.5 32q38 0 66.5 -32t28.5 -75q0 -44 -28 -75t-67 -31q-37 0 -64.5 31t-27.5 75z" glyph-name="uni0308" unicode="̈"/><glyph d="M-461 1243q0 85 43.5 132.5t110.5 47.5t111 -47.5t44 -132.5t-43.5 -132.5t-111.5 -47.5q-67 0 -110.5 47.5t-43.5 132.5zM-373 1243q0 -48 17 -76t49 -28q31 0 48 26.5t17 75.5q0 51 -17 78t-48 27q-30 0 -48 -26.5t-18 -76.5z" glyph-name="uni030A" unicode="̊"/><glyph d="M-393 1386l-162 -288h-135l133 288h164zM-59 1386l-162 -288h-135l133 288h164z" glyph-name="uni030B" unicode="̋"/><glyph d="M-102 1372l-183 -291h-77l-179 291h127l92 -164l93 164h127z" glyph-name="uni030C" unicode="̌"/><glyph d="M-338 1049q-8 44 -8 110q0 61 30.5 137.5t79.5 130.5l107 -36q-57 -114 -57 -193q0 -45 8 -119z" glyph-name="uni0312" unicode="̒"/><glyph d="M-137 -109q8 -44 8 -110q0 -61 -31 -137.5t-80 -130.5l-106 36q57 114 57 193q0 45 -8 119z" glyph-name="uni0326" unicode="̦"/><glyph d="M-281 41h91l-48 -123q57 -12 89 -56.5t32 -115.5q0 -83 -45 -134.5t-127 -51.5q-58 0 -100 22l6 92q43 -18 74 -18q38 0 60 24t22 64q0 92 -95 92q-22 0 -36 -4z" glyph-name="uni0327" unicode="̧"/><glyph d="M-123 78l62 -78q-160 -141 -160 -276q0 -51 22 -80t58 -29t67 25l13 -105q-56 -33 -125 -33q-74 0 -121 51.5t-47 139.5q0 98 60 199.5t171 185.5z" glyph-name="uni0328" unicode="̨"/><glyph d="M358 1386l-161 -288h-136l134 288h163z" glyph-name="tonos" horiz-adv-x="417" unicode="΄"/><glyph d="M549 1386l-162 -288h-135l133 288h164zM82 1229q0 34 22 60t54 26q30 0 52.5 -26t22.5 -60q0 -35 -22 -61.5t-53 -26.5q-32 0 -54 24.5t-22 63.5zM549 1229q0 35 22.5 60.5t55.5 25.5q29 0 51 -26t22 -60q0 -36 -21.5 -62t-51.5 -26q-33 0 -55.5 24.5t-22.5 63.5z" glyph-name="dieresistonos" horiz-adv-x="774" unicode="΅"/><glyph d="M37 0q69 182 98 276l342 1117h66l350 -1121q40 -121 102 -272h-190l-109 387h-383l-108 -387h-168zM322 1376l-162 -289h-135l133 289h164zM352 528h305l-153 564z" glyph-name="Alphatonos" horiz-adv-x="1032" unicode="Ά"/><glyph d="M190 887q43 0 75 -35t32 -84t-32 -83t-75 -34t-73.5 34t-30.5 83t30.5 84t73.5 35z" glyph-name="anoteleia" horiz-adv-x="382" unicode="·"/><glyph d="M479 0l4 332v708q0 148 -4 336h289q168 0 250 4l-25 -151q-66 4 -248 4h-100v-445h105q134 0 233 3v-150q-132 4 -233 4h-105v-502h141q175 0 234 2v-147q-59 2 -229 2h-312zM338 1376l-162 -289h-135l133 289h164z" glyph-name="Epsilontonos" horiz-adv-x="1130" unicode="Έ"/><glyph d="M338 1376l-162 -289h-135l133 289h164zM487 0q2 84 2 305v723q0 262 -2 348h170q-4 -129 -4 -405v-176h498v252q0 161 -4 329h172q-4 -125 -4 -348v-772q0 -178 4 -256h-172q4 160 4 291v358h-498v-358q0 -205 4 -291h-170z" glyph-name="Etatonos" horiz-adv-x="1478" unicode="Ή"/><glyph d="M338 1376l-162 -289h-135l133 289h164zM479 0q4 184 4 336v670q0 166 -4 370h172q-4 -61 -4 -370v-672q0 -236 4 -334h-172z" glyph-name="Iotatonos" horiz-adv-x="811" unicode="Ί"/><glyph d="M307 686q0 316 142 513.5t368 197.5q150 0 266 -89.5t180 -251.5t64 -370q0 -316 -141.5 -512.5t-368.5 -196.5q-226 0 -368 196t-142 513zM328 1376l-162 -289h-135l133 289h164zM479 686q0 -251 93 -405t245 -154q153 0 246.5 154.5t93.5 404.5t-93.5 404.5 t-246.5 154.5q-151 0 -244.5 -154.5t-93.5 -404.5z" glyph-name="Omicrontonos" horiz-adv-x="1435" unicode="Ό"/><glyph d="M338 1376l-162 -289h-135l133 289h164zM786 0q5 235 5 324v260l-242 542q-44 98 -119 250h197q34 -100 69 -182l181 -442l178 436q7 16 33.5 87.5t39.5 100.5h183q-92 -188 -119 -248l-240 -546v-260q0 -46 6 -322h-172z" glyph-name="Upsilontonos" horiz-adv-x="1351" unicode="Ύ"/><glyph d="M221 -4v154q69 -7 191 -7h84q-109 113 -170.5 265.5t-61.5 332.5q0 148 40 271t110 205.5t165 128t205 45.5q229 0 375 -179.5t146 -470.5q0 -181 -62.5 -333.5t-171.5 -264.5h78q128 0 199 7v-154q-51 4 -248 4h-195v141q111 115 171.5 265.5t60.5 322.5 q0 239 -98.5 377.5t-254.5 138.5q-159 0 -255.5 -137.5t-96.5 -378.5q0 -171 60 -322.5t170 -265.5v-141h-207q-183 0 -234 -4zM328 1376l-162 -289h-135l133 289h164z" glyph-name="Omegatonos" horiz-adv-x="1427" unicode="Ώ"/><glyph d="M365 1386l-162 -288h-135l133 288h164zM-102 1229q0 35 21.5 60.5t53.5 25.5q31 0 53.5 -26t22.5 -60q0 -35 -22.5 -61.5t-53.5 -26.5t-53 24.5t-22 63.5zM365 1229q0 35 22 60.5t55 25.5q29 0 51.5 -26t22.5 -60q0 -36 -22 -62t-52 -26q-33 0 -55 24.5t-22 63.5zM156 0 q6 70 6 201v542q0 156 -6 203h163q-4 -47 -4 -203v-542q0 -158 4 -201h-163z" glyph-name="iotadieresistonos" horiz-adv-x="475" unicode="ΐ"/><glyph d="M37 0q69 182 98 276l342 1117h66l350 -1121q40 -121 102 -272h-190l-109 387h-383l-108 -387h-168zM352 528h305l-153 564z" glyph-name="Alpha" horiz-adv-x="1032" unicode="Α"/><glyph d="M162 0q4 94 4 360v633q0 295 -2 383h260q152 0 241 -89.5t89 -246.5q0 -96 -45.5 -177t-122.5 -120q108 -37 168.5 -129.5t60.5 -226.5q0 -185 -103.5 -286t-269.5 -101h-280zM592 1018q0 111 -45.5 169t-132.5 58h-84v-450h80q81 0 131.5 58t50.5 165zM647 397 q0 127 -60 197t-155 70h-102v-531h104q97 0 155 68.5t58 195.5z" glyph-name="Beta" horiz-adv-x="913" unicode="Β"/><glyph d="M162 0q2 100 2 354v664q0 247 -2 358h301q176 0 244 4l-11 -159q-51 4 -229 4h-139v-877q0 -233 4 -348h-170z" glyph-name="Gamma" horiz-adv-x="772" unicode="Γ"/><glyph d="M37 0q47 127 104 309l328 1088h76l342 -1123q54 -168 94 -274h-944zM502 1059l-250 -914h500z" glyph-name="uni0394" horiz-adv-x="1019" unicode="Δ"/><glyph d="M162 0l4 332v708q0 148 -4 336h289q167 0 249 4l-24 -151q-66 4 -248 4h-100v-445h104q135 0 234 3v-150q-132 4 -234 4h-104v-502h141q174 0 233 2v-147q-59 2 -229 2h-311z" glyph-name="Epsilon" horiz-adv-x="813" unicode="Ε"/><glyph d="M70 0q48 105 114 274l381 957h-227q-160 0 -236 -6l-10 153q70 -2 260 -2h459l-500 -1231h275q84 0 227 5v-152q-57 2 -227 2h-516z" glyph-name="Zeta" horiz-adv-x="886" unicode="Ζ"/><glyph d="M162 0q2 84 2 305v723q0 262 -2 348h170q-4 -129 -4 -405v-176h497v252q0 161 -4 329h172q-4 -125 -4 -348v-772q0 -178 4 -256h-172q4 160 4 291v358h-497v-358q0 -205 4 -291h-170z" glyph-name="Eta" horiz-adv-x="1155" unicode="Η"/><glyph d="M106 686q0 316 142 513.5t368 197.5q150 0 266 -89.5t180 -251.5t64 -370q0 -316 -141.5 -512.5t-368.5 -196.5q-226 0 -368 196t-142 513zM279 686q0 -251 92.5 -405t244.5 -154q153 0 246.5 154.5t93.5 404.5t-93.5 404.5t-246.5 154.5q-151 0 -244 -154.5t-93 -404.5z M690 760q110 0 133 2v-139q-82 4 -135 4h-182q-53 0 -131 -4v141q70 -4 131 -4h184z" glyph-name="Theta" horiz-adv-x="1234" unicode="Θ"/><glyph d="M162 0q4 184 4 336v670q0 166 -4 370h172q-4 -61 -4 -370v-672q0 -236 4 -334h-172z" glyph-name="Iota" horiz-adv-x="495" unicode="Ι"/><glyph d="M162 0q2 94 2 332v710q0 215 -2 334h170q-2 -111 -2 -332v-339l252 444q18 32 41 74.5t47.5 88t34.5 64.5h182q-18 -31 -53.5 -95.5t-55.5 -100.5l-282 -469l327 -529q72 -111 123 -182h-215q-29 59 -92 164l-309 512v-342q0 -211 2 -334h-170z" glyph-name="Kappa" horiz-adv-x="978" unicode="Κ"/><glyph d="M991 0h-186l-297 1071l-297 -1071h-172q71 187 86 242l360 1159h58l354 -1135q42 -127 94 -266z" glyph-name="Lambda" horiz-adv-x="1030" unicode="Λ"/><glyph d="M109 0q1 26 5 94t9 148.5t6 101.5l53 1042h117l358 -911l353 911h114l45 -1064q5 -156 19 -322h-166q-5 225 -8 295l-27 676l-313 -811h-41l-318 811l-30 -666l-11 -305h-165z" glyph-name="Mu" horiz-adv-x="1294" unicode="Μ"/><glyph d="M162 0q2 88 2 289v753q0 228 -2 351h65l619 -969v610q0 211 -4 342h168q-6 -104 -6 -332v-763q0 -197 4 -285h-70l-614 960v-675q0 -199 4 -281h-166z" glyph-name="Nu" horiz-adv-x="1171" unicode="Ν"/><glyph d="M100 1380q53 -4 166 -4h322q14 0 72.5 2t103.5 2v-161q-118 4 -176 4h-322q-72 0 -166 -4v161zM150 797q47 -4 155 -4h240q94 0 168 4v-162q-57 4 -168 4h-240q-73 0 -155 -4v162zM96 158q51 -4 207 -4h246q87 0 219 4v-162q-68 4 -219 4h-248q-144 0 -205 -4v162z" glyph-name="Xi" horiz-adv-x="864" unicode="Ξ"/><glyph d="M106 686q0 316 142 513.5t368 197.5q150 0 266 -89.5t180 -251.5t64 -370q0 -316 -141.5 -512.5t-368.5 -196.5q-226 0 -368 196t-142 513zM279 686q0 -251 92.5 -405t244.5 -154q153 0 246.5 154.5t93.5 404.5t-93.5 404.5t-246.5 154.5q-151 0 -244 -154.5t-93 -404.5z" glyph-name="Omicron" horiz-adv-x="1234" unicode="Ο"/><glyph d="M162 0q6 93 6 330v1046h786v-1050q0 -232 4 -326h-174q7 102 7 328v901h-461v-901q0 -184 6 -328h-174z" glyph-name="Pi" horiz-adv-x="1120" unicode="Π"/><glyph d="M788 942q0 -205 -100.5 -321.5t-279.5 -116.5h-80v-168q0 -198 6 -336h-172q4 180 4 354v723q0 143 -4 299h246q174 0 277 -115.5t103 -318.5zM618 944q0 136 -60 211.5t-159 75.5h-71v-582h73q95 0 156 79t61 216z" glyph-name="Rho" horiz-adv-x="870" unicode="Ρ"/><glyph d="M49 0l359 709l-351 667h549q148 0 197 2l-10 -151q-68 4 -201 4h-283l269 -518l-285 -568h311q141 0 207 2v-149q-37 2 -143 2h-619z" glyph-name="Sigma" horiz-adv-x="919" unicode="Σ"/><glyph d="M391 0q6 141 6 350v617q0 116 -4 264h-88q-165 0 -231 -4v151q32 0 112 -1t127 -1h338q185 0 240 2l-10 -151q-136 4 -232 4h-88q0 -33 -1 -124t-1 -140v-617q0 -221 6 -350h-174z" glyph-name="Tau" horiz-adv-x="960" unicode="Τ"/><glyph d="M395 0q4 188 4 324v260l-241 542q-44 98 -119 250h197q34 -100 69 -182l180 -442l179 436q7 16 33.5 87.5t39.5 100.5h183q-92 -188 -119 -248l-240 -546v-260q0 -46 6 -322h-172z" glyph-name="Upsilon" horiz-adv-x="958" unicode="Υ"/><glyph d="M106 682q0 247 123.5 416.5t311.5 199.5q0 93 -4 140h165q-4 -102 -4 -138q188 -31 311.5 -201t123.5 -417q0 -243 -122.5 -405.5t-312.5 -192.5q0 -102 4 -139h-163q2 47 2 139q-190 30 -312.5 193.5t-122.5 404.5zM272 682q0 -183 74 -304.5t195 -146.5v922 q-120 -25 -194.5 -153.5t-74.5 -317.5zM967 682q0 189 -74.5 317.5t-194.5 153.5v-922q121 25 195 146.5t74 304.5z" glyph-name="Phi" horiz-adv-x="1239" unicode="Φ"/><glyph d="M43 0q110 221 139 285l187 403l-181 404q-42 97 -131 284h197q23 -80 74 -200l145 -342l152 356q13 30 36 92t37 94h185q-59 -107 -140 -280l-184 -389l201 -439q52 -116 137 -268h-195q-16 48 -71 174l-170 375l-170 -387q-9 -23 -35.5 -90.5t-28.5 -71.5h-184z" glyph-name="Chi" horiz-adv-x="937" unicode="Χ"/><glyph d="M262 1376q6 -47 6 -221q0 -278 53.5 -400.5t178.5 -144.5v453q0 233 -4 313h172q-4 -168 -4 -313v-453q127 23 179 145t52 400q0 147 6 221h168q-12 -85 -12 -219q0 -230 -42 -376t-126.5 -223t-224.5 -103v-129q0 -158 4 -326h-172q4 96 4 326v127q-209 40 -301 201 t-93 503q0 149 -12 219h168z" glyph-name="Psi" horiz-adv-x="1163" unicode="Ψ"/><glyph d="M80 -4v154q69 -7 190 -7h84q-108 113 -169.5 265.5t-61.5 332.5q0 148 40 271t110 205.5t165 128t205 45.5q229 0 374.5 -179.5t145.5 -470.5q0 -181 -62 -333.5t-171 -264.5h78q127 0 198 7v-154q-51 4 -248 4h-194v141q110 114 170.5 265t60.5 323q0 240 -98 378 t-254 138q-159 0 -255.5 -137.5t-96.5 -378.5q0 -172 59.5 -323t169.5 -265v-141h-207q-182 0 -233 -4z" glyph-name="uni03A9" horiz-adv-x="1286" unicode="Ω"/><glyph d="M-43 1647q0 43 27.5 74.5t64.5 31.5q38 0 66 -31.5t28 -74.5q0 -44 -28 -75.5t-66 -31.5q-37 0 -64.5 31.5t-27.5 75.5zM270 1647q0 43 27.5 74.5t64.5 31.5q38 0 66.5 -31.5t28.5 -74.5q0 -44 -28.5 -75.5t-66.5 -31.5q-37 0 -64.5 31.5t-27.5 75.5zM162 0q4 184 4 336 v670q0 166 -4 370h172q-4 -61 -4 -370v-672q0 -236 4 -334h-172z" glyph-name="Iotadieresis" horiz-adv-x="495" unicode="Ϊ"/><glyph d="M217 1647q0 43 27.5 74.5t64.5 31.5q38 0 66 -31.5t28 -74.5q0 -44 -28 -75.5t-66 -31.5q-37 0 -64.5 31.5t-27.5 75.5zM530 1647q0 43 28 74.5t65 31.5q38 0 66 -31.5t28 -74.5q0 -44 -28 -75.5t-66 -31.5q-37 0 -65 31.5t-28 75.5zM395 0q4 188 4 324v260l-241 542 q-44 98 -119 250h197q34 -100 69 -182l180 -442l179 436q7 16 33.5 87.5t39.5 100.5h183q-92 -188 -119 -248l-240 -546v-260q0 -46 6 -322h-172z" glyph-name="Upsilondieresis" horiz-adv-x="958" unicode="Ϋ"/><glyph d="M653 1386l-161 -288h-136l133 288h164zM92 469q0 212 80.5 353t212.5 141q76 0 138.5 -64.5t90.5 -185.5q16 115 39 235l144 -24q-47 -192 -70 -404q34 -393 100 -393q19 0 27 6l18 -127q-53 -24 -94 -24q-60 0 -94 65t-59 221q-39 -153 -99 -220.5t-149 -67.5 q-127 0 -206 142t-79 347zM252 469q0 -146 43.5 -247t112.5 -101q61 0 98.5 84.5t77.5 269.5q-58 342 -174 342q-70 0 -114 -97.5t-44 -250.5z" glyph-name="alphatonos" horiz-adv-x="923" unicode="ά"/><glyph d="M545 1386l-162 -288h-135l133 288h164zM598 33q-88 -56 -211 -56q-136 0 -217.5 78.5t-81.5 198.5q0 85 44 148t120 90q-65 30 -105.5 89.5t-40.5 131.5q0 117 79 186.5t204 69.5q117 0 205 -58l-21 -139q-66 57 -161 57q-67 0 -105.5 -34t-38.5 -97t41 -106t113 -43 q58 0 76 2v-133q-14 4 -70 4q-84 0 -131 -41.5t-47 -114.5q0 -71 43.5 -110t116.5 -39q103 0 188 63v-147z" glyph-name="epsilontonos" horiz-adv-x="692" unicode="έ"/><glyph d="M631 1386l-162 -288h-135l133 288h164zM80 838l37 108h170l10 -110q32 59 90.5 94t136.5 35q123 0 196 -83.5t73 -240.5v-942q0 -160 2 -221h-160q4 84 4 231v928q0 92 -43 138t-117 46q-58 0 -105 -39t-75 -110v-441q0 -159 4 -231h-162q4 74 4 231v607h-65z" glyph-name="etatonos" horiz-adv-x="899" unicode="ή"/><glyph d="M385 1386l-162 -288h-135l133 288h164zM156 0q6 70 6 201v542q0 156 -6 203h163q-4 -47 -4 -203v-542q0 -158 4 -201h-163z" glyph-name="iotatonos" horiz-adv-x="475" unicode="ί"/><glyph d="M582 1386l-162 -288h-135l133 288h164zM115 1229q0 35 21.5 60.5t53.5 25.5q31 0 53.5 -26t22.5 -60q0 -35 -22.5 -61.5t-53.5 -26.5t-53 24.5t-22 63.5zM582 1229q0 35 22 60.5t55 25.5q29 0 51.5 -26t22.5 -60q0 -36 -22 -62t-52 -26q-33 0 -55 24.5t-22 63.5zM143 403 q0 38 8.5 157t8.5 147q0 64 -13 86t-43 22q-16 0 -28 -6l-23 129q56 29 103 29q85 0 122 -56t37 -180q0 -25 -7 -152.5t-7 -168.5q0 -291 152 -291q85 0 131.5 97.5t46.5 283.5q0 103 -23 230.5t-59 215.5h160q86 -198 86 -452q0 -247 -90.5 -380.5t-251.5 -133.5 q-149 0 -229.5 107t-80.5 316z" glyph-name="upsilondieresistonos" horiz-adv-x="886" unicode="ΰ"/><glyph d="M92 469q0 212 80.5 353t212.5 141q76 0 138.5 -64.5t90.5 -185.5q16 115 39 235l144 -24q-47 -192 -70 -404q34 -393 100 -393q19 0 27 6l18 -127q-53 -24 -94 -24q-60 0 -94 65t-59 221q-39 -153 -99 -220.5t-149 -67.5q-127 0 -206 142t-79 347zM252 469 q0 -146 43.5 -247t112.5 -101q61 0 98.5 84.5t77.5 269.5q-58 342 -174 342q-70 0 -114 -97.5t-44 -250.5z" glyph-name="alpha" horiz-adv-x="923" unicode="α"/><glyph d="M854 401q0 -184 -99.5 -302.5t-250.5 -118.5q-105 0 -191 53v-256q0 -197 4 -281h-161q4 180 4 283v1372q0 166 84 255t227 89q140 0 227.5 -103t87.5 -255q0 -109 -48 -206t-124 -149q109 -35 174.5 -134t65.5 -247zM688 408q0 137 -68.5 215.5t-168.5 78.5 q-34 0 -52 -2v136q6 0 21 -1t22 -1q76 0 132.5 81t56.5 205q0 112 -44.5 173t-117.5 61t-114.5 -51t-41.5 -152v-965q69 -63 168 -63q94 0 150.5 77.5t56.5 207.5z" glyph-name="beta" horiz-adv-x="948" unicode="β"/><glyph d="M328 -516l16 508q-2 20 -6 65q-5 58 -8 90.5t-10 96t-12.5 103t-14 99.5t-18 98.5t-21 86.5t-25.5 77.5t-30 57t-35.5 40.5t-40.5 13q-23 0 -51 -12l-35 125q44 24 110 24q55 0 99.5 -31.5t74.5 -88t52 -122.5t35.5 -148.5t20.5 -150.5t11 -143q23 214 80.5 371 t161.5 330l119 -94q-125 -192 -193 -396q-69 -193 -110 -495l-13 -504h-157z" glyph-name="gamma" horiz-adv-x="884" unicode="γ"/><glyph d="M92 424q0 165 75 290t198 177q-209 206 -209 366q0 103 80.5 164.5t209.5 61.5q156 0 310 -101l-13 -157q-70 56 -150.5 89.5t-150.5 33.5q-127 0 -127 -107q0 -50 44.5 -112.5t154.5 -178.5q52 -52 87 -91t71 -89.5t57 -98t34 -107.5t13 -126q0 -203 -99 -328.5 t-245 -125.5q-149 0 -244.5 120.5t-95.5 319.5zM252 414q2 -130 49.5 -206.5t128.5 -76.5q80 0 133 84.5t53 218.5q0 210 -159 359q-38 -16 -73 -46.5t-66 -76t-49 -112t-17 -144.5z" glyph-name="delta" horiz-adv-x="862" unicode="δ"/><glyph d="M598 33q-88 -56 -211 -56q-136 0 -217.5 78.5t-81.5 198.5q0 85 44 148t120 90q-65 30 -105.5 89.5t-40.5 131.5q0 117 79 186.5t204 69.5q117 0 205 -58l-21 -139q-66 57 -161 57q-67 0 -105.5 -34t-38.5 -97t41 -106t113 -43q58 0 76 2v-133q-14 4 -70 4 q-84 0 -131 -41.5t-47 -114.5q0 -71 43.5 -110t116.5 -39q103 0 188 63v-147z" glyph-name="epsilon" horiz-adv-x="692" unicode="ε"/><glyph d="M88 461q0 220 99 447.5t274 437.5q-171 -27 -318 -27l-6 137q35 -6 144 -6q185 0 350 47l2 -127q-387 -456 -387 -878q0 -132 47.5 -209t146.5 -127q124 -65 171.5 -124.5t47.5 -142.5q0 -135 -84 -284l-122 35q8 26 20.5 62.5t17.5 52.5t9 40.5t4 50.5q0 52 -32.5 89.5 t-104.5 74.5q-67 35 -115 72.5t-87 90t-58 124.5t-19 164z" glyph-name="zeta" horiz-adv-x="702" unicode="ζ"/><glyph d="M80 838l37 108h170l10 -110q32 59 90.5 94t136.5 35q123 0 196 -83.5t73 -240.5v-942q0 -160 2 -221h-160q4 84 4 231v928q0 92 -43 138t-117 46q-58 0 -105 -39t-75 -110v-441q0 -159 4 -231h-162q4 74 4 231v607h-65z" glyph-name="eta" horiz-adv-x="899" unicode="η"/><glyph d="M92 737q0 357 93 555.5t255 198.5t255 -199t93 -555q0 -357 -93 -555t-255 -198t-255 198t-93 555zM248 805h385q-1 258 -54 401.5t-139 143.5t-137.5 -143t-54.5 -402zM248 676q3 -263 54.5 -408t137.5 -145t138 144.5t55 408.5h-385z" glyph-name="theta" horiz-adv-x="880" unicode="θ"/><glyph d="M156 0q6 70 6 201v542q0 156 -6 203h163q-4 -47 -4 -203v-542q0 -158 4 -201h-163z" glyph-name="iota" horiz-adv-x="475" unicode="ι"/><glyph d="M156 0q0 24 1 81t1 87v567q0 38 -1 108.5t-1 102.5h161q-4 -126 -4 -205v-256q188 327 455 494l70 -141q-182 -107 -310 -285l191 -348q60 -107 123 -205h-197q-43 96 -76 158l-149 282q-90 -137 -107 -168v-272h-157z" glyph-name="kappa" horiz-adv-x="876" unicode="κ"/><glyph d="M39 0q16 45 41.5 125t38.5 117l227 682l-63 252q-25 98 -64 127.5t-127 29.5l-10 127h80q95 0 158 -55t102 -182l291 -1016q16 -57 67 -207h-176q-14 77 -43 188l-145 549l-152 -557q-45 -171 -47 -180h-178z" glyph-name="lambda" horiz-adv-x="819" unicode="λ"/><glyph d="M80 840l39 106h186q-4 -136 -4 -209v-379q0 -233 172 -233q59 0 107 41.5t65 112.5v438q0 157 -6 229h164q-4 -140 -4 -221v-532q0 -111 12 -193h-133l-25 111q-68 -127 -204 -127q-111 0 -168 94q14 -161 14 -266v-144q0 -76 6 -190h-160q4 49 4 200v1162h-65z" glyph-name="uni03BC" horiz-adv-x="964" unicode="μ"/><glyph d="M227 946q8 -33 22.5 -95t18.5 -79l146 -557q145 275 145 516q0 104 -35 215h158q25 -131 25 -215q0 -339 -293 -749h-70l-223 702q-47 164 -82 262h188z" glyph-name="nu" horiz-adv-x="780" unicode="ν"/><glyph d="M98 391q0 243 228 342q-170 64 -170 223q0 100 65 199.5t189 185.5q-170 -38 -275 -41l-16 142q72 0 121 2q252 7 405 43l6 -113q-334 -177 -334 -389q0 -88 52 -136t137 -48q49 0 67 4v-133h-69q-102 -2 -175 -73.5t-73 -188.5q0 -155 176 -238q124 -56 181 -122 t57 -165q0 -59 -21 -117t-69 -147l-121 76q49 115 49 174q0 102 -143 168q-267 126 -267 352z" glyph-name="xi" horiz-adv-x="714" unicode="ξ"/><glyph d="M92 471q0 226 101 361t253 135q154 0 255.5 -135.5t101.5 -360.5t-101 -358t-256 -133q-153 0 -253.5 133.5t-100.5 357.5zM250 471q0 -161 53.5 -254.5t142.5 -93.5q92 0 145.5 92.5t53.5 255.5q0 165 -54 257.5t-145 92.5q-90 0 -143 -95.5t-53 -254.5z" glyph-name="omicron" horiz-adv-x="894" unicode="ο"/><glyph d="M80 805v141h725q63 0 125 4v-149q-66 4 -107 4h-53v-488q0 -167 25 -317h-164q-15 99 -15 307v498h-198v-805h-154v805h-184z" glyph-name="pi" horiz-adv-x="1005" unicode="π"/><glyph d="M156 524q0 213 85.5 333t233.5 120q166 0 255 -128t89 -360q0 -224 -90.5 -366.5t-239.5 -142.5q-108 0 -180 69v-555h-153v1030zM657 492q0 163 -49 251t-131 88q-86 0 -127 -75.5t-41 -231.5v-317q60 -80 156 -80q93 0 142.5 100t49.5 265z" glyph-name="rho" horiz-adv-x="911" unicode="ρ"/><glyph d="M92 479q0 227 102.5 357.5t266.5 130.5q84 0 155 -29v-154q-64 37 -143 37q-96 0 -159.5 -90.5t-63.5 -253.5q0 -118 43.5 -193.5t142.5 -131.5q107 -65 153 -129.5t46 -159.5q0 -63 -21 -123.5t-63 -136.5l-137 22q73 149 73 215q0 57 -31.5 99.5t-103.5 83.5 q-83 48 -138 105.5t-88.5 146.5t-33.5 204z" glyph-name="uni03C2" horiz-adv-x="679" unicode="ς"/><glyph d="M92 461q0 228 107 356.5t299 128.5h385l-39 -143l-189 2q90 -162 90 -359q0 -130 -37.5 -235t-112 -168t-175.5 -63q-150 0 -239 134t-89 347zM586 461q0 189 -86 342h-21q-106 0 -166.5 -90.5t-60.5 -255.5q0 -150 45.5 -240t120.5 -90q76 0 122 92.5t46 241.5z" glyph-name="sigma" horiz-adv-x="911" unicode="σ"/><glyph d="M700 946l-20 -143q-13 1 -50 3.5t-52 2.5h-144l-4 -588q0 -108 86 -108q31 0 59 16l23 -113q-48 -39 -121 -39q-95 0 -148.5 61t-52.5 177l5 594h-66q-93 0 -152 -6v131q41 12 164 12h473z" glyph-name="tau" horiz-adv-x="778" unicode="τ"/><glyph d="M143 403q0 38 8.5 157t8.5 147q0 64 -13 86t-43 22q-16 0 -28 -6l-23 129q56 29 103 29q85 0 122 -56t37 -180q0 -25 -7 -152.5t-7 -168.5q0 -291 152 -291q85 0 131.5 97.5t46.5 283.5q0 103 -23 230.5t-59 215.5h160q86 -198 86 -452q0 -247 -90.5 -380.5 t-251.5 -133.5q-149 0 -229.5 107t-80.5 316z" glyph-name="upsilon" horiz-adv-x="886" unicode="υ"/><glyph d="M92 473q0 205 104.5 340t270.5 154v213q0 89 -8 241h159q-4 -136 -4 -241v-213q173 -22 273 -154.5t100 -337.5t-100.5 -338t-272.5 -155v-209q0 -116 7 -242h-160q6 228 6 242v209q-166 19 -270.5 153.5t-104.5 337.5zM248 473q0 -149 59 -238.5t160 -101.5v680 q-101 -11 -160 -101t-59 -239zM834 473q0 149 -59.5 239t-160.5 101v-680q101 12 160.5 102t59.5 238z" glyph-name="phi" horiz-adv-x="1079" unicode="φ"/><glyph d="M209 -481h-170l285 741l-99 395q-25 88 -51 123t-61 35q-19 0 -31 -6l-25 137q41 23 101 23t109.5 -51.5t78.5 -161.5l78 -322l180 514h168l-278 -708l98 -441q23 -78 50 -107.5t60 -29.5q11 0 35 4l23 -135q-48 -23 -98 -23q-55 0 -104 44.5t-75 134.5l-90 378z" glyph-name="chi" horiz-adv-x="811" unicode="χ"/><glyph d="M481 -522q0 35 1 111t1 118v268q-180 15 -280.5 134t-100.5 331q0 56 10.5 149.5t10.5 139.5q0 102 -27 217h156q27 -100 27 -219q0 -45 -9.5 -142.5t-9.5 -131.5q0 -298 223 -330v1005q0 45 -1 150t-1 143h158q-4 -172 -4 -293v-1003q121 19 184.5 120.5t63.5 286.5 q0 109 -21 220.5t-53 193.5h162q69 -194 69 -422q0 -250 -104 -392t-301 -157v-270q0 -83 4 -227h-158z" glyph-name="psi" horiz-adv-x="1132" unicode="ψ"/><glyph d="M92 442q0 282 131 519l168 -23q-139 -235 -139 -489q0 -163 35.5 -240.5t97.5 -77.5q69 0 100 89t31 288q0 145 -6 192h160q-6 -74 -6 -182q0 -207 30.5 -297t100.5 -90q63 0 98 78t35 240q0 261 -137 489l167 23q129 -236 129 -519q0 -221 -74.5 -339.5t-201.5 -118.5 q-83 0 -145 56t-76 161q-17 -107 -76.5 -162t-144.5 -55q-127 0 -202 117.5t-75 340.5z" glyph-name="omega" horiz-adv-x="1179" unicode="ω"/><glyph d="M-57 1257q0 43 27.5 75t64.5 32q38 0 66 -32t28 -75q0 -44 -28 -75t-66 -31q-37 0 -64.5 31t-27.5 75zM256 1257q0 43 27.5 75t64.5 32q38 0 66 -32t28 -75q0 -44 -28 -75t-66 -31q-37 0 -64.5 31t-27.5 75zM156 0q6 70 6 201v542q0 156 -6 203h163q-4 -47 -4 -203v-542 q0 -158 4 -201h-163z" glyph-name="iotadieresis" horiz-adv-x="475" unicode="ϊ"/><glyph d="M160 1257q0 43 27.5 75t64.5 32q38 0 66 -32t28 -75q0 -44 -28 -75t-66 -31q-37 0 -64.5 31t-27.5 75zM473 1257q0 43 27.5 75t64.5 32q38 0 66 -32t28 -75q0 -44 -28 -75t-66 -31q-37 0 -64.5 31t-27.5 75zM143 403q0 38 8.5 157t8.5 147q0 64 -13 86t-43 22 q-16 0 -28 -6l-23 129q56 29 103 29q85 0 122 -56t37 -180q0 -25 -7 -152.5t-7 -168.5q0 -291 152 -291q85 0 131.5 97.5t46.5 283.5q0 103 -23 230.5t-59 215.5h160q86 -198 86 -452q0 -247 -90.5 -380.5t-251.5 -133.5q-149 0 -229.5 107t-80.5 316z" glyph-name="upsilondieresis" horiz-adv-x="886" unicode="ϋ"/><glyph d="M637 1386l-162 -288h-135l133 288h164zM92 471q0 226 101 361t253 135q154 0 255.5 -135.5t101.5 -360.5t-101 -358t-256 -133q-153 0 -253.5 133.5t-100.5 357.5zM250 471q0 -161 53.5 -254.5t142.5 -93.5q92 0 145.5 92.5t53.5 255.5q0 165 -54 257.5t-145 92.5 q-90 0 -143 -95.5t-53 -254.5z" glyph-name="omicrontonos" horiz-adv-x="894" unicode="ό"/><glyph d="M602 1386l-162 -288h-135l133 288h164zM143 403q0 38 8.5 157t8.5 147q0 64 -13 86t-43 22q-16 0 -28 -6l-23 129q56 29 103 29q85 0 122 -56t37 -180q0 -25 -7 -152.5t-7 -168.5q0 -291 152 -291q85 0 131.5 97.5t46.5 283.5q0 103 -23 230.5t-59 215.5h160 q86 -198 86 -452q0 -247 -90.5 -380.5t-251.5 -133.5q-149 0 -229.5 107t-80.5 316z" glyph-name="upsilontonos" horiz-adv-x="886" unicode="ύ"/><glyph d="M778 1386l-162 -288h-135l133 288h164zM92 442q0 282 131 519l168 -23q-139 -235 -139 -489q0 -163 35.5 -240.5t97.5 -77.5q69 0 100 89t31 288q0 145 -6 192h160q-6 -74 -6 -182q0 -207 30.5 -297t100.5 -90q63 0 98 78t35 240q0 261 -137 489l167 23 q129 -236 129 -519q0 -221 -74.5 -339.5t-201.5 -118.5q-83 0 -145 56t-76 161q-17 -107 -76.5 -162t-144.5 -55q-127 0 -202 117.5t-75 340.5z" glyph-name="omegatonos" horiz-adv-x="1179" unicode="ώ"/><glyph d="M117 1647q0 43 27.5 74.5t64.5 31.5q38 0 66 -31.5t28 -74.5q0 -44 -28 -75.5t-66 -31.5q-37 0 -64.5 31.5t-27.5 75.5zM430 1647q0 43 27.5 74.5t64.5 31.5q38 0 66 -31.5t28 -74.5q0 -44 -28 -75.5t-66 -31.5q-37 0 -64.5 31.5t-27.5 75.5zM162 0l4 332v708 q0 148 -4 336h289q167 0 249 4l-24 -151q-66 4 -248 4h-100v-445h104q135 0 234 3v-150q-132 4 -234 4h-104v-502h141q174 0 233 2v-147q-59 2 -229 2h-311z" glyph-name="uni0401" horiz-adv-x="813" unicode="Ё"/><glyph d="M387 0q6 141 6 352v877h-92q-161 0 -227 -4v155q32 0 105 -2t116 -2h403q171 0 230 2l-10 -153q-140 4 -224 4h-137v-438q44 8 125 8q188 0 292.5 -111.5t104.5 -310.5q0 -179 -85 -285t-212 -106q-63 0 -118 22l16 148q34 -17 78 -17q66 0 109.5 65t43.5 179 q0 123 -63.5 189.5t-181.5 66.5q-62 0 -109 -12v-281q0 -258 2 -346h-172z" glyph-name="uni0402" horiz-adv-x="1187" unicode="Ђ"/><glyph d="M633 1776l-162 -289h-135l133 289h164zM162 0q2 100 2 354v664q0 247 -2 358h301q176 0 244 4l-11 -159q-51 4 -229 4h-139v-877q0 -233 4 -348h-170z" glyph-name="uni0403" horiz-adv-x="772" unicode="Ѓ"/><glyph d="M647 129q121 0 238 80v-170q-118 -62 -256 -62q-229 0 -376 196.5t-147 510.5q0 207 69 370t189.5 253t270.5 90q125 0 246 -54v-174q-95 74 -232 74q-147 0 -245.5 -124t-118.5 -331h170q150 0 229 5v-154q-66 4 -229 4h-176q10 -230 112.5 -372t255.5 -142z" glyph-name="uni0404" horiz-adv-x="989" unicode="Є"/><glyph d="M90 43l37 170q39 -45 96.5 -68.5t120.5 -23.5q79 0 128.5 52.5t49.5 141.5q0 82 -46 154.5t-136 167.5q-111 116 -164 207.5t-53 210.5q0 159 85.5 250.5t229.5 91.5q128 0 209 -51v-166q-78 69 -190 69q-72 0 -117 -50t-45 -136q0 -75 38.5 -145.5t121.5 -151.5 q127 -121 184 -221t57 -221q0 -159 -95.5 -255t-248.5 -96q-149 0 -262 70z" glyph-name="uni0405" horiz-adv-x="786" unicode="Ѕ"/><glyph d="M162 0q4 184 4 336v670q0 166 -4 370h172q-4 -61 -4 -370v-672q0 -236 4 -334h-172z" glyph-name="uni0406" horiz-adv-x="495" unicode="І"/><glyph d="M-2 1647q0 43 27.5 74.5t64.5 31.5q38 0 66 -31.5t28 -74.5q0 -44 -28 -75.5t-66 -31.5q-37 0 -64.5 31.5t-27.5 75.5zM311 1647q0 43 27.5 74.5t64.5 31.5q38 0 66.5 -31.5t28.5 -74.5q0 -44 -28.5 -75.5t-66.5 -31.5q-37 0 -64.5 31.5t-27.5 75.5zM162 0q4 184 4 336 v670q0 166 -4 370h172q-4 -61 -4 -370v-672q0 -236 4 -334h-172z" glyph-name="uni0407" horiz-adv-x="495" unicode="Ї"/><glyph d="M330 -55q0 -172 -83 -269.5t-220 -97.5q-71 0 -129 21v151q47 -20 110 -20q76 0 117 59.5t41 173.5v1065q0 250 -4 348h170q-2 -170 -2 -348v-1083z" glyph-name="uni0408" horiz-adv-x="493" unicode="Ј"/><glyph d="M911 827q180 0 295 -109t115 -302t-111 -304.5t-288 -111.5h-250q4 238 4 379v854h-187q-22 -333 -69 -621q-53 -338 -126 -481t-210 -143q-29 0 -47 6v156q13 -5 33 -5q73 0 121.5 123t91.5 408q59 370 79 700h482q-4 -118 -4 -364v-185h71zM915 145q108 0 172 70 t64 199q0 132 -67 201t-177 69h-67v-539h75z" glyph-name="uni0409" horiz-adv-x="1427" unicode="Љ"/><glyph d="M913 797q179 0 293.5 -109t114.5 -295q0 -185 -109.5 -289t-287.5 -104h-248q4 238 4 379v270h-352v-358q0 -205 4 -291h-170q2 84 2 305v723q0 262 -2 348h170q-4 -129 -4 -454v-129h352v219q0 264 -4 364h172q-4 -118 -4 -364v-215h69zM918 145q108 0 170.5 63 t62.5 183q0 125 -66.5 192.5t-175.5 67.5h-65v-506h74z" glyph-name="uni040A" horiz-adv-x="1427" unicode="Њ"/><glyph d="M395 0q4 88 4 334v903h-141q-90 0 -184 -6v149q23 0 85 -2t99 -2l440 2q41 0 106.5 2t90.5 2l-12 -151q-99 6 -185 6h-137v-379q29 44 81 70t118 26q144 0 221.5 -85t77.5 -242v-432q0 -169 2 -195h-168q2 123 2 379v254q0 91 -45 136.5t-119 45.5q-57 0 -102.5 -30.5 t-67.5 -92.5v-358q0 -250 4 -334h-170z" glyph-name="uni040B" horiz-adv-x="1157" unicode="Ћ"/><glyph d="M709 1776l-162 -289h-135l133 289h164zM162 0q2 92 2 295v795q0 196 -2 286h170q-4 -172 -4 -276v-346h90q60 0 96 36t74 136q58 155 160 450h184q-112 -243 -178 -444q-39 -110 -73.5 -164t-84.5 -78q50 -28 91 -83t77 -156q96 -298 172 -451h-195q-32 89 -81.5 232 t-71.5 204q-34 102 -68 138t-96 36h-96v-311q0 -111 4 -299h-170z" glyph-name="uni040C" horiz-adv-x="989" unicode="Ќ"/><glyph d="M236 1763h120q6 -151 103 -151q96 0 102 151h119q-3 -131 -63 -198.5t-158 -67.5q-97 0 -158 68t-65 198zM129 -6v151h66q67 0 104.5 40.5t77.5 166.5l-266 783q-39 125 -84 241h178q18 -85 57 -205l197 -636l176 616q29 97 55 225h168q-18 -54 -50.5 -157t-39.5 -123 l-246 -774q-62 -175 -133.5 -251.5t-175.5 -76.5h-84z" glyph-name="uni040E" horiz-adv-x="897" unicode="Ў"/><glyph d="M162 1376h176q-6 -240 -6 -332v-892h465v897q0 180 -6 327h174q0 -2 -3.5 -132.5t-3.5 -196.5v-1047h-313v-70q0 -137 4 -317h-164q2 96 2 330v57h-319v1047q0 179 -6 329z" glyph-name="uni040F" horiz-adv-x="1126" unicode="Џ"/><glyph d="M37 0q69 182 98 276l342 1117h66l350 -1121q40 -121 102 -272h-190l-109 387h-383l-108 -387h-168zM352 528h305l-153 564z" glyph-name="uni0410" horiz-adv-x="1032" unicode="А"/><glyph d="M162 0v1376h297q178 0 246 4l-11 -155q-51 4 -229 4h-139v-402h73q180 0 295 -109t115 -302t-111 -304.5t-288 -111.5h-248zM639 414q0 132 -67 201t-177 69h-69v-539h77q108 0 172 70t64 199z" glyph-name="uni0411" horiz-adv-x="915" unicode="Б"/><glyph d="M162 0q4 94 4 360v633q0 295 -2 383h260q152 0 241 -89.5t89 -246.5q0 -96 -45.5 -177t-122.5 -120q108 -37 168.5 -129.5t60.5 -226.5q0 -185 -103.5 -286t-269.5 -101h-280zM592 1018q0 111 -45.5 169t-132.5 58h-84v-450h80q81 0 131.5 58t50.5 165zM647 397 q0 127 -60 197t-155 70h-102v-531h104q97 0 155 68.5t58 195.5z" glyph-name="uni0412" horiz-adv-x="913" unicode="В"/><glyph d="M162 0q2 100 2 354v664q0 247 -2 358h301q176 0 244 4l-11 -159q-51 4 -229 4h-139v-877q0 -233 4 -348h-170z" glyph-name="uni0413" horiz-adv-x="772" unicode="Г"/><glyph d="M82 -387q4 132 4 235v299l70 -2q210 394 290 1233h496v-1233h111v-268q0 -50 2 -141t2 -123h-156v385l-661 2v-387h-158zM780 145v1088h-207q-52 -674 -237 -1086z" glyph-name="uni0414" horiz-adv-x="1146" unicode="Д"/><glyph d="M162 0l4 332v708q0 148 -4 336h289q167 0 249 4l-24 -151q-66 4 -248 4h-100v-445h104q135 0 234 3v-150q-132 4 -234 4h-104v-502h141q174 0 233 2v-147q-59 2 -229 2h-311z" glyph-name="uni0415" horiz-adv-x="813" unicode="Е"/><glyph d="M53 0q69 138 168 451q58 179 160 235q-93 63 -158 234q-35 89 -86.5 241.5t-79.5 214.5h183l151 -448q30 -90 68 -131t88 -41h65v411q0 40 -1 109.5t-1 99.5h170q-4 -136 -4 -205v-415h68q48 0 84.5 41t68.5 131l152 448h182q-28 -62 -79.5 -214.5t-86.5 -241.5 q-66 -175 -157 -234q101 -55 159 -235q95 -311 168 -451h-200l-136 412q-34 104 -71 153t-82 49h-70v-370q0 -80 4 -244h-170q0 34 1 117t1 127v370h-69q-93 0 -156 -202l-133 -412h-201z" glyph-name="uni0416" horiz-adv-x="1388" unicode="Ж"/><glyph d="M137 25v157q71 -53 174 -53q96 0 154.5 69t58.5 191q0 112 -65.5 182t-159.5 70q-38 0 -63 -4v141q40 -4 61 -4q88 0 145.5 69.5t57.5 176.5t-48 163t-126 56q-111 0 -185 -74v164q100 62 211 62q143 0 229.5 -94.5t86.5 -262.5q0 -103 -51.5 -186t-143.5 -127 q101 -41 162 -131t61 -215q0 -182 -98 -288.5t-258 -106.5q-115 0 -203 45z" glyph-name="uni0417" horiz-adv-x="792" unicode="З"/><glyph d="M1010 0h-166q4 82 4 281v675l-615 -960h-69q4 88 4 285v763q0 228 -6 332h168q-4 -131 -4 -342v-610l618 969h66q-2 -123 -2 -351v-753q0 -201 2 -289z" glyph-name="uni0418" horiz-adv-x="1171" unicode="И"/><glyph d="M334 1759h121q6 -151 102 -151t102 151h119q-3 -131 -63 -198.5t-158 -67.5q-97 0 -158 68t-65 198zM1010 0h-166q4 82 4 281v675l-615 -960h-69q4 88 4 285v763q0 228 -6 332h168q-4 -131 -4 -342v-610l618 969h66q-2 -123 -2 -351v-753q0 -201 2 -289z" glyph-name="uni0419" horiz-adv-x="1171" unicode="Й"/><glyph d="M162 0q2 92 2 295v795q0 196 -2 286h170q-4 -172 -4 -276v-346h90q60 0 96 36t74 136q58 155 160 450h184q-112 -243 -178 -444q-39 -110 -73.5 -164t-84.5 -78q50 -28 91 -83t77 -156q96 -298 172 -451h-195q-32 89 -81.5 232t-71.5 204q-34 102 -68 138t-96 36h-96 v-311q0 -111 4 -299h-170z" glyph-name="uni041A" horiz-adv-x="989" unicode="К"/><glyph d="M37 -6v156q13 -5 33 -5q73 0 121.5 123t91.5 408q59 370 79 700h529v-1112q0 -61 2 -147.5t2 -116.5h-172q6 135 6 264v969h-240q-21 -329 -69 -621q-53 -338 -126 -481t-210 -143q-29 0 -47 6z" glyph-name="uni041B" horiz-adv-x="1056" unicode="Л"/><glyph d="M109 0q1 26 5 94t9 148.5t6 101.5l53 1042h117l358 -911l353 911h114l45 -1064q5 -156 19 -322h-166q-5 225 -8 295l-27 676l-313 -811h-41l-318 811l-30 -666l-11 -305h-165z" glyph-name="uni041C" horiz-adv-x="1294" unicode="М"/><glyph d="M162 0q2 84 2 305v723q0 262 -2 348h170q-4 -129 -4 -405v-176h497v252q0 161 -4 329h172q-4 -125 -4 -348v-772q0 -178 4 -256h-172q4 160 4 291v358h-497v-358q0 -205 4 -291h-170z" glyph-name="uni041D" horiz-adv-x="1155" unicode="Н"/><glyph d="M106 686q0 316 142 513.5t368 197.5q150 0 266 -89.5t180 -251.5t64 -370q0 -316 -141.5 -512.5t-368.5 -196.5q-226 0 -368 196t-142 513zM279 686q0 -251 92.5 -405t244.5 -154q153 0 246.5 154.5t93.5 404.5t-93.5 404.5t-246.5 154.5q-151 0 -244 -154.5t-93 -404.5z" glyph-name="uni041E" horiz-adv-x="1234" unicode="О"/><glyph d="M162 0q6 93 6 330v1046h786v-1050q0 -232 4 -326h-174q7 102 7 328v901h-461v-901q0 -184 6 -328h-174z" glyph-name="uni041F" horiz-adv-x="1120" unicode="П"/><glyph d="M788 942q0 -205 -100.5 -321.5t-279.5 -116.5h-80v-168q0 -198 6 -336h-172q4 180 4 354v723q0 143 -4 299h246q174 0 277 -115.5t103 -318.5zM618 944q0 136 -60 211.5t-159 75.5h-71v-582h73q95 0 156 79t61 216z" glyph-name="uni0420" horiz-adv-x="870" unicode="Р"/><glyph d="M106 684q0 207 69 370t189.5 253t270.5 90q125 0 246 -54v-174q-95 74 -232 74q-164 0 -267 -155t-103 -402t103.5 -402t264.5 -155q121 0 238 80v-170q-118 -62 -256 -62q-229 0 -376 196.5t-147 510.5z" glyph-name="uni0421" horiz-adv-x="989" unicode="С"/><glyph d="M391 0q6 141 6 350v617q0 116 -4 264h-88q-165 0 -231 -4v151q32 0 112 -1t127 -1h338q185 0 240 2l-10 -151q-136 4 -232 4h-88q0 -33 -1 -124t-1 -140v-617q0 -221 6 -350h-174z" glyph-name="uni0422" horiz-adv-x="960" unicode="Т"/><glyph d="M129 -6v151h66q67 0 104.5 40.5t77.5 166.5l-266 783q-39 125 -84 241h178q18 -85 57 -205l197 -636l176 616q29 97 55 225h168q-18 -54 -50.5 -157t-39.5 -123l-246 -774q-62 -175 -133.5 -251.5t-175.5 -76.5h-84z" glyph-name="uni0423" horiz-adv-x="897" unicode="У"/><glyph d="M106 678q0 237 119.5 377.5t306.5 161.5q0 91 -4 159h168q-2 -76 -2 -157q184 -21 303 -162.5t119 -378.5q0 -235 -119 -373.5t-305 -159.5q0 -108 4 -176h-168q2 42 2 176q-90 10 -166 49t-134 104t-91 162.5t-33 217.5zM274 678q0 -176 69 -274.5t189 -112.5v780 q-120 -12 -189 -112.5t-69 -280.5zM948 678q0 180 -68 279.5t-188 113.5v-780q120 14 188 112.5t68 274.5z" glyph-name="uni0424" horiz-adv-x="1222" unicode="Ф"/><glyph d="M43 0q110 221 139 285l187 403l-181 404q-42 97 -131 284h197q23 -80 74 -200l145 -342l152 356q13 30 36 92t37 94h185q-59 -107 -140 -280l-184 -389l201 -439q52 -116 137 -268h-195q-16 48 -71 174l-170 375l-170 -387q-9 -23 -35.5 -90.5t-28.5 -71.5h-184z" glyph-name="uni0425" horiz-adv-x="937" unicode="Х"/><glyph d="M166 0v1047q0 129 -4 329h172q-4 -180 -4 -329v-900h454v902q0 229 -4 327h172q-4 -176 -4 -329v-900h113v-204q0 -228 2 -330h-162q4 192 4 330v57h-739z" glyph-name="uni0426" horiz-adv-x="1153" unicode="Ц"/><glyph d="M109 1376h174q-7 -82 -7 -194v-248q0 -142 52 -195t170 -53q54 0 143 25v360q0 213 -4 305h172q-4 -88 -4 -305v-766q0 -47 6 -305h-174q4 176 4 305v246q-88 -23 -170 -23q-179 0 -268.5 96.5t-89.5 305.5v233q0 87 -4 213z" glyph-name="uni0427" horiz-adv-x="972" unicode="Ч"/><glyph d="M1325 0h-1159v1047q0 129 -4 329h172q-6 -216 -6 -332v-892h338v892q0 236 -4 332h169q-4 -176 -4 -334v-890h336v895q0 35 -6 329h172q-4 -176 -4 -332v-1044z" glyph-name="uni0428" horiz-adv-x="1490" unicode="Ш"/><glyph d="M166 0v1049q0 131 -4 327h172q0 -5 -1 -65t-2 -138t-1 -126v-895h336v897q0 231 -4 327h169q-4 -88 -4 -329v-895h336v897q0 227 -8 327h174q-4 -88 -4 -327v-897h119v-209q0 -228 4 -330h-164q4 188 4 319v68h-1122z" glyph-name="uni0429" horiz-adv-x="1536" unicode="Щ"/><glyph d="M350 0q4 238 4 379v848h-137q-125 0 -174 -6l-18 161q22 0 90 -2t104 -2h299v-551h74q180 0 293.5 -109t113.5 -302t-111 -304.5t-288 -111.5h-250zM829 414q0 132 -66.5 201t-176.5 69h-68v-539h76q108 0 171.5 70t63.5 199z" glyph-name="uni042A" horiz-adv-x="1105" unicode="Ъ"/><glyph d="M162 0q4 238 4 379v633q0 164 -4 364h172q-6 -177 -6 -364v-185h73q180 0 295 -109t115 -302t-111 -304.5t-288 -111.5h-250zM1079 0q4 184 4 336v670q0 166 -4 370h172q-4 -61 -4 -370v-672q0 -236 4 -334h-172zM641 414q0 132 -67 201t-177 69h-69v-539h75 q110 0 174 70t64 199z" glyph-name="uni042B" horiz-adv-x="1413" unicode="Ы"/><glyph d="M162 0q4 238 4 379v633q0 164 -4 364h172q-6 -177 -6 -364v-185h73q180 0 295 -109t115 -302t-111 -304.5t-288 -111.5h-250zM641 414q0 132 -67 201t-177 69h-69v-539h75q110 0 174 70t64 199z" glyph-name="uni042C" horiz-adv-x="917" unicode="Ь"/><glyph d="M354 1397q150 0 270.5 -90t189.5 -253t69 -370q0 -314 -147 -510.5t-376 -196.5q-138 0 -256 62v170q117 -80 238 -80q153 0 256 142.5t113 371.5h-176q-164 0 -230 -4v154q79 -5 230 -5h170q-20 207 -119 331t-246 124q-136 0 -231 -74v174q121 54 245 54z" glyph-name="uni042D" horiz-adv-x="989" unicode="Э"/><glyph d="M162 0q2 92 2 319v693q0 262 -2 364h170q-4 -118 -4 -364v-228h200q11 173 75.5 313t166.5 219t221 79q136 0 242.5 -90t166.5 -253t60 -370q0 -315 -131.5 -510t-337.5 -195q-126 0 -230 83t-166.5 234.5t-68.5 342.5h-198v-320q0 -221 4 -317h-170zM694 682 q0 -248 81 -398.5t216 -150.5q137 0 217 150t80 399t-81 404t-216 155q-134 0 -215.5 -155t-81.5 -404z" glyph-name="uni042E" horiz-adv-x="1566" unicode="Ю"/><glyph d="M176 981q0 194 104.5 294.5t270.5 100.5h250q-4 -156 -4 -327v-687q0 -182 4 -362h-170q4 88 4 356v207h-109l-274 -563h-199q84 139 170 309l152 312q-93 44 -146 133.5t-53 226.5zM346 969q0 -127 58 -194.5t151 -67.5h80v524h-78q-96 0 -153.5 -66.5t-57.5 -195.5z" glyph-name="uni042F" horiz-adv-x="962" unicode="Я"/><glyph d="M84 274q0 138 77.5 216.5t207.5 89.5q91 6 153 6v69q0 86 -44 132.5t-122 46.5q-94 0 -182 -68l-49 121q47 38 114.5 60t139.5 22q139 0 218 -82.5t79 -241.5v-344q0 -191 26 -301h-153l-12 104q-80 -122 -220 -122q-99 0 -166 80.5t-67 211.5zM240 276q0 -75 31 -116 t83 -41q48 0 94.5 33t75.5 92v219l-110 -4q-174 -7 -174 -183z" glyph-name="uni0430" horiz-adv-x="821" unicode="а"/><glyph d="M88 610q0 319 88 491t295 265q138 61 240 121v-164q-75 -46 -226 -109q-116 -50 -175 -134t-72 -220q34 37 91 60.5t126 23.5q150 0 239.5 -127.5t89.5 -357.5q0 -231 -95.5 -356.5t-250.5 -125.5q-165 0 -257.5 155.5t-92.5 477.5zM629 453q0 180 -51.5 266t-155.5 86 q-45 0 -91 -25.5t-81 -66.5q-4 -90 -4 -138q0 -232 52 -342t140 -110q86 0 138.5 86t52.5 244z" glyph-name="uni0431" horiz-adv-x="876" unicode="б"/><glyph d="M158 0q0 17 2 66.5t2 80.5v654q0 28 -6 145h229q143 0 223 -68.5t80 -179.5q0 -64 -35 -119t-90 -83q82 -25 129 -85.5t47 -144.5q0 -118 -79.5 -192t-225.5 -74h-276zM532 682q0 68 -40 102.5t-113 34.5h-64v-278h76q63 0 102 37.5t39 103.5zM582 274q0 69 -42 107.5 t-112 38.5h-113v-293h113q74 0 114 38.5t40 108.5z" glyph-name="uni0432" horiz-adv-x="829" unicode="в"/><glyph d="M156 0q4 126 4 209v569q0 29 -2 85.5t-2 82.5h297q45 0 180 6l-25 -153q-129 6 -157 6h-136v-596q0 -41 1 -110t1 -99h-161z" glyph-name="uni0433" horiz-adv-x="684" unicode="г"/><glyph d="M55 -350q4 53 4 157v326h54q92 137 140 322.5t77 490.5h422v-813h94v-326q0 -112 2 -157h-139q0 30 1 76t1 86v186h-516v-188q0 -38 4 -160h-144zM602 133v674h-160q-41 -427 -163 -674h323z" glyph-name="uni0434" horiz-adv-x="913" unicode="д"/><glyph d="M92 475q0 130 39 241.5t116.5 182t178.5 70.5q84 0 147.5 -38t100 -102t54 -137.5t17.5 -154.5q0 -55 -4 -91h-491q4 -170 61 -247.5t164 -77.5q116 0 232 96v-149q-95 -88 -240 -88q-173 0 -274 128.5t-101 366.5zM426 834q-58 0 -99 -41t-59 -100t-20 -130h346 q-3 271 -168 271z" glyph-name="uni0435" horiz-adv-x="831" unicode="е"/><glyph d="M61 0q9 21 38.5 86t45.5 102l60 138q53 119 104 149q-61 25 -108 146l-60 161q-55 135 -71 164h166q4 -15 49 -137l75 -207q31 -80 84 -80h35v244q0 137 -2 180h160q-4 -86 -4 -178v-246h35q57 0 84 80l77 209q37 91 50 135h163q-23 -40 -69 -162l-62 -161 q-44 -120 -106 -152q55 -28 102 -143l60 -138q14 -32 44 -99t40 -91h-177q-46 124 -53 143l-71 183q-20 52 -37.5 71t-44.5 19h-35v-211q0 -79 4 -205h-160q2 63 2 207v209h-35q-25 0 -42 -18.5t-37 -69.5l-72 -181l-55 -147h-177z" glyph-name="uni0436" horiz-adv-x="1112" unicode="ж"/><glyph d="M94 33v147q85 -63 189 -63q73 0 116 39t43 110q0 73 -47 114.5t-131 41.5q-55 0 -69 -4v133q18 -2 75 -2q72 0 113 43t41 106q0 64 -38 97.5t-105 33.5q-96 0 -162 -57l-21 139q88 58 205 58q125 0 204 -69.5t79 -186.5q0 -72 -40.5 -131.5t-105.5 -89.5q76 -27 120 -90 t44 -148q0 -120 -81.5 -198.5t-217.5 -78.5q-123 0 -211 56z" glyph-name="uni0437" horiz-adv-x="692" unicode="з"/><glyph d="M160 -2v262v379q0 215 -4 307h163q-6 -127 -6 -321v-306l435 633h73q-4 -226 -4 -327v-355q0 -110 4 -270h-159q4 80 4 262v344l-426 -608h-80z" glyph-name="uni0438" horiz-adv-x="974" unicode="и"/><glyph d="M281 1370h120q6 -151 103 -151q96 0 102 151h119q-3 -131 -63 -198.5t-158 -67.5q-97 0 -158 68t-65 198zM160 -2v262v379q0 215 -4 307h163q-6 -127 -6 -321v-306l435 633h73q-4 -226 -4 -327v-355q0 -110 4 -270h-159q4 80 4 262v344l-426 -608h-80z" glyph-name="uni0439" horiz-adv-x="974" unicode="й"/><glyph d="M156 0q4 102 4 166v627q0 29 -2 78.5t-2 74.5h161q-2 -39 -2 -139v-277h37q30 0 48.5 15.5t35.5 54.5l135 346h166q-13 -21 -65 -137l-76 -195q-44 -112 -113 -139q70 -37 115 -145l80 -187q47 -103 72 -143h-175l-139 340q-17 37 -36 52.5t-48 15.5h-37v-248 q0 -113 2 -160h-161z" glyph-name="uni043A" horiz-adv-x="806" unicode="к"/><glyph d="M47 -10v143q24 -6 27 -6q168 0 233 819h436q-4 -234 -4 -338v-344q0 -150 6 -264h-165q6 72 6 262v545h-148q-22 -237 -55 -401t-77 -254.5t-93 -129t-111 -38.5q-37 0 -55 6z" glyph-name="uni043B" horiz-adv-x="899" unicode="л"/><glyph d="M156 0l6 291l2 317v338h147l232 -471l225 471h154q-2 -113 -2 -332l2 -370l6 -244h-156v289l-4 362l-201 -395h-53l-197 395l-2 -362q0 -203 2 -289h-161z" glyph-name="uni043C" horiz-adv-x="1083" unicode="м"/><glyph d="M156 0q4 156 4 242v516q0 152 -4 188h159q-2 -74 -2 -188v-197h318v197q0 36 -4 188h159l-2 -188v-520q0 -168 2 -238h-159q4 152 4 242v182h-318v-178q0 -164 2 -246h-159z" glyph-name="uni043D" horiz-adv-x="942" unicode="н"/><glyph d="M92 471q0 226 101 361t253 135q154 0 255.5 -135.5t101.5 -360.5t-101 -358t-256 -133q-153 0 -253.5 133.5t-100.5 357.5zM250 471q0 -161 53.5 -254.5t142.5 -93.5q92 0 145.5 92.5t53.5 255.5q0 165 -54 257.5t-145 92.5q-90 0 -143 -95.5t-53 -254.5z" glyph-name="uni043E" horiz-adv-x="894" unicode="о"/><glyph d="M156 0q4 176 4 307v639h614v-641q0 -125 4 -305h-164q4 192 4 307v498h-303v-500q0 -205 4 -305h-163z" glyph-name="uni043F" horiz-adv-x="933" unicode="п"/><glyph d="M156 -471v1362q138 80 286 80q185 0 290.5 -125t105.5 -365q0 -227 -109 -362t-274 -135q-74 0 -146 34v-489h-153zM684 481q0 172 -70 259t-184 87q-60 0 -121 -28v-635q55 -35 131 -35q105 0 174.5 92t69.5 260z" glyph-name="uni0440" horiz-adv-x="929" unicode="р"/><glyph d="M92 471q0 229 108 362.5t281 133.5q113 0 189 -60v-162q-76 76 -174 76q-117 0 -181.5 -92t-64.5 -258t64 -256t184 -90q94 0 174 76v-158q-66 -63 -189 -63q-175 0 -283 131.5t-108 359.5z" glyph-name="uni0441" horiz-adv-x="782" unicode="с"/><glyph d="M281 0v328v475h-72q-113 0 -166 -4v151q98 -4 170 -4h322q49 0 139 4l-12 -151q-13 0 -66 2t-74 2h-86v-475q0 -248 4 -328h-159z" glyph-name="uni0442" horiz-adv-x="710" unicode="т"/><glyph d="M39 946h182q8 -33 26 -99t21 -79l148 -559l143 551q20 79 43 186h170q-44 -117 -70 -207l-276 -911q-39 -124 -101.5 -175.5t-160.5 -51.5h-68l8 127q86 0 119 23.5t60 105.5l55 161l-215 678q-4 11 -35 104.5t-49 145.5z" glyph-name="uni0443" horiz-adv-x="808" unicode="у"/><glyph d="M92 473q0 205 104.5 340t270.5 154v213q0 89 -8 241h159q-4 -136 -4 -241v-213q173 -22 273 -154.5t100 -337.5t-100.5 -338t-272.5 -155v-209q0 -116 7 -242h-160q6 228 6 242v209q-166 19 -270.5 153.5t-104.5 337.5zM248 473q0 -149 59 -238.5t160 -101.5v680 q-101 -11 -160 -101t-59 -239zM834 473q0 149 -59.5 239t-160.5 101v-680q101 12 160.5 102t59.5 238z" glyph-name="uni0444" horiz-adv-x="1079" unicode="ф"/><glyph d="M41 0q59 105 104 197l136 278l-136 289q-54 114 -98 182h182l152 -356l156 356h165q-27 -45 -96 -192l-135 -281l145 -301q8 -15 25.5 -53.5t32 -67t28.5 -51.5h-172l-157 356l-160 -356h-172z" glyph-name="uni0445" horiz-adv-x="745" unicode="х"/><glyph d="M160 0v641q0 117 -4 305h163q-4 -304 -4 -307v-498h283v500q0 205 -4 305h162q-4 -168 -4 -305v-504h94v-168q0 -225 4 -307h-154q0 43 1 153.5t1 184.5h-538z" glyph-name="uni0446" horiz-adv-x="913" unicode="ц"/><glyph d="M88 946h164q-6 -71 -6 -155v-154q0 -78 34 -114t103 -36q83 0 145 29v211q0 79 -4 219h162q0 -34 -1 -110t-1 -113v-432q0 -68 1 -161.5t1 -129.5h-162q4 172 4 270v97q-76 -29 -161 -29q-132 0 -204.5 73.5t-72.5 211.5v170q0 26 -1 78t-1 75z" glyph-name="uni0447" horiz-adv-x="841" unicode="ч"/><glyph d="M160 0v643q0 117 -4 305h161q-4 -188 -4 -307v-498h228v498q0 207 -2 305h161q-6 -252 -6 -305v-498h236v500q0 164 -6 305h163q-4 -168 -4 -307v-641h-923z" glyph-name="uni0448" horiz-adv-x="1243" unicode="ш"/><glyph d="M158 0v643q0 211 -2 305h157q-2 -94 -2 -307v-498h228v498q0 63 -1 161t-1 144h159q-4 -136 -4 -305v-498h236v500q0 205 -4 305h159q-2 -84 -2 -307v-502h76v-241q0 -176 4 -242h-155q4 59 4 344h-852z" glyph-name="uni0449" horiz-adv-x="1224" unicode="щ"/><glyph d="M309 0q4 122 4 203v610h-104q-84 0 -131 -4l-17 141q114 -4 177 -4h235q-4 -70 -4 -188v-152h86q131 0 217 -82t86 -223q0 -137 -85 -219t-220 -82h-244zM702 303q0 81 -43.5 125.5t-117.5 44.5h-74v-340h76q75 0 117 44t42 126z" glyph-name="uni044A" horiz-adv-x="946" unicode="ъ"/><glyph d="M156 0q0 29 1 97.5t1 105.5v467q0 182 -2 276h159q-4 -70 -4 -192v-148h86q132 0 218.5 -81t86.5 -224q0 -136 -85.5 -218.5t-219.5 -82.5h-241zM944 0q6 70 6 201v542q0 156 -6 203h164q-4 -47 -4 -203v-542q0 -158 4 -201h-164zM545 303q0 81 -43.5 125.5t-116.5 44.5 h-74v-340h76q74 0 116 44t42 126z" glyph-name="uni044B" horiz-adv-x="1263" unicode="ы"/><glyph d="M156 0q0 29 1 97.5t1 105.5v467q0 182 -2 276h159q-4 -70 -4 -192v-148h86q132 0 218.5 -81t86.5 -224q0 -136 -85.5 -218.5t-219.5 -82.5h-241zM545 303q0 81 -43.5 125.5t-116.5 44.5h-74v-340h76q74 0 116 44t42 126z" glyph-name="uni044C" horiz-adv-x="788" unicode="ь"/><glyph d="M705 469q0 -221 -106 -355t-273 -134q-143 0 -215 75v150q36 -38 87.5 -63t108.5 -25q108 0 171.5 81.5t70.5 231.5h-131q-74 0 -172 -4v137q94 -4 174 -4h127q-15 126 -79.5 196t-160.5 70q-114 0 -194 -80v156q88 64 213 64q168 0 273.5 -137t105.5 -359z" glyph-name="uni044D" horiz-adv-x="796" unicode="э"/><glyph d="M1122 473q0 -226 -89.5 -361t-241.5 -135q-134 0 -226.5 120t-101.5 317h-150v-113q0 -207 2 -301h-159q2 90 2 303v379q0 162 -2 264h159q-2 -41 -2 -239v-154h150q17 189 107.5 302.5t220.5 113.5q150 0 240.5 -134t90.5 -362zM963 473q0 165 -46.5 256.5t-125.5 91.5 t-126 -91.5t-47 -256.5t47 -256.5t126 -91.5t125.5 91.5t46.5 256.5z" glyph-name="uni044E" horiz-adv-x="1214" unicode="ю"/><glyph d="M98 655q0 132 81.5 211.5t226.5 79.5h262q-4 -118 -4 -256v-500q0 -124 4 -190h-164q6 57 6 178v180h-127l-147 -358h-185q34 52 99 193q67 142 102 202q-154 77 -154 260zM248 647q0 -77 44 -117.5t109 -40.5h109v328h-107q-69 0 -112 -43.5t-43 -126.5z" glyph-name="uni044F" horiz-adv-x="823" unicode="я"/><glyph d="M152 1257q0 43 27.5 75t64.5 32q38 0 66 -32t28 -75q0 -44 -28 -75t-66 -31q-37 0 -64.5 31t-27.5 75zM465 1257q0 43 27.5 75t64.5 32q38 0 66 -32t28 -75q0 -44 -28 -75t-66 -31q-37 0 -64.5 31t-27.5 75zM92 475q0 130 39 241.5t116.5 182t178.5 70.5q84 0 147.5 -38 t100 -102t54 -137.5t17.5 -154.5q0 -55 -4 -91h-491q4 -170 61 -247.5t164 -77.5q116 0 232 96v-149q-95 -88 -240 -88q-173 0 -274 128.5t-101 366.5zM426 834q-58 0 -99 -41t-59 -100t-20 -130h346q-3 271 -168 271z" glyph-name="uni0451" horiz-adv-x="831" unicode="ё"/><glyph d="M111 0q6 62 6 231v918h-88v129h88q0 96 -6 172h168q-9 -88 -9 -172h226v-129h-226v-289q76 101 201 101q128 0 202.5 -130t74.5 -409q0 -251 -77 -437t-204 -290l-94 121q107 94 163 249t56 359q0 387 -158 387q-42 0 -85.5 -25.5t-78.5 -74.5v-463q0 -191 4 -248h-163z" glyph-name="uni0452" horiz-adv-x="825" unicode="ђ"/><glyph d="M565 1386l-162 -288h-135l133 288h164zM156 0q4 126 4 209v569q0 29 -2 85.5t-2 82.5h297q45 0 180 6l-25 -153q-129 6 -157 6h-136v-596q0 -41 1 -110t1 -99h-161z" glyph-name="uni0453" horiz-adv-x="684" unicode="ѓ"/><glyph d="M92 469q0 222 105.5 359t273.5 137q125 0 213 -64v-156q-80 80 -195 80q-96 0 -160 -70t-79 -196h127q80 0 174 4v-137q-98 4 -172 4h-131q7 -150 70 -231.5t171 -81.5q57 0 109 25.5t88 62.5v-150q-72 -75 -215 -75q-167 0 -273 134t-106 355z" glyph-name="uni0454" horiz-adv-x="796" unicode="є"/><glyph d="M84 39l29 156q73 -86 174 -86q54 0 88.5 30t34.5 84q0 49 -31 92t-100 105q-86 79 -128 144t-42 149q0 114 67 184t182 70q95 0 179 -41v-152q-81 62 -164 62q-50 0 -80.5 -28.5t-30.5 -80.5q0 -44 30.5 -84.5t100.5 -103.5q85 -77 128.5 -147t43.5 -156q0 -117 -74 -188 t-192 -71q-59 0 -117.5 16.5t-97.5 45.5z" glyph-name="uni0455" horiz-adv-x="653" unicode="ѕ"/><glyph d="M156 1257q0 43 27 75t65 32t65 -32t27 -75q0 -44 -27 -75t-65 -31t-65 31t-27 75zM180 0q6 70 6 201v542q0 156 -6 203h164q-4 -47 -4 -203v-542q0 -158 4 -201h-164z" glyph-name="uni0456" horiz-adv-x="468" unicode="і"/><glyph d="M-12 1257q0 43 27.5 75t64.5 32q38 0 66 -32t28 -75q0 -44 -28 -75t-66 -31q-37 0 -64.5 31t-27.5 75zM301 1257q0 43 27.5 75t64.5 32q38 0 66 -32t28 -75q0 -44 -28 -75t-66 -31q-37 0 -64.5 31t-27.5 75zM156 0q6 70 6 201v542q0 156 -6 203h163q-4 -47 -4 -203v-542 q0 -158 4 -201h-163z" glyph-name="uni0457" horiz-adv-x="475" unicode="ї"/><glyph d="M215 1364q37 0 64.5 -32t27.5 -75q0 -44 -27.5 -75t-64.5 -31q-38 0 -65 31t-27 75q0 43 27 75t65 32zM-47 -498v140h82q129 0 129 215v884q0 160 -6 205h164q-5 -59 -5 -203v-890q0 -172 -68 -261.5t-202 -89.5h-94z" glyph-name="uni0458" horiz-adv-x="438" unicode="ј"/><glyph d="M782 606q132 0 217.5 -81t85.5 -224q0 -136 -85.5 -218.5t-219.5 -82.5h-223q4 148 4 225v582h-123q-22 -237 -55 -401t-77 -254.5t-93 -129t-111 -38.5q-37 0 -55 6v143q24 -6 27 -6q168 0 233 819h414q-6 -129 -6 -194v-146h67zM770 133q75 0 117.5 44t42.5 126 q0 81 -43.5 126.5t-116.5 43.5l-55 -2v-338h55z" glyph-name="uni0459" horiz-adv-x="1171" unicode="љ"/><glyph d="M780 573q132 0 218.5 -76.5t86.5 -211.5q0 -130 -85.5 -207.5t-221.5 -77.5h-227q0 29 1 97.5t1 105.5v223h-240v-180q0 -164 2 -246h-159q4 156 4 242v516q0 152 -4 188h159q-2 -74 -2 -188v-197h240v109q0 182 -2 276h160q-4 -70 -4 -192v-181h73zM768 133q76 0 118 40 t42 114t-43 113.5t-117 39.5h-61v-307h61z" glyph-name="uni045A" horiz-adv-x="1171" unicode="њ"/><glyph d="M641 0q4 86 4 254v383q0 92 -42.5 139t-121.5 47q-56 0 -104 -41.5t-74 -113.5v-478q0 -116 6 -190h-162q3 80 3 195v931h-74v103h74v45q0 90 -9 196h168q-6 -71 -6 -198v-43h252v-103h-252v-288q85 127 227 127q126 0 198.5 -86t72.5 -242v-422q0 -189 2 -215h-162z" glyph-name="uni045B" horiz-adv-x="907" unicode="ћ"/><glyph d="M621 1386l-162 -288h-135l133 288h164zM156 0q4 102 4 166v627q0 29 -2 78.5t-2 74.5h161q-2 -39 -2 -139v-277h37q30 0 48.5 15.5t35.5 54.5l135 346h166q-13 -21 -65 -137l-76 -195q-44 -112 -113 -139q70 -37 115 -145l80 -187q47 -103 72 -143h-175l-139 340 q-17 37 -36 52.5t-48 15.5h-37v-248q0 -113 2 -160h-161z" glyph-name="uni045C" horiz-adv-x="806" unicode="ќ"/><glyph d="M166 1370h121q6 -151 102 -151q97 0 103 151h118q-3 -131 -63 -198.5t-158 -67.5q-97 0 -158 68t-65 198zM39 946h182q8 -33 26 -99t21 -79l148 -559l143 551q20 79 43 186h170q-44 -117 -70 -207l-276 -911q-39 -124 -101.5 -175.5t-160.5 -51.5h-68l8 127 q86 0 119 23.5t60 105.5l55 161l-215 678q-4 11 -35 104.5t-49 145.5z" glyph-name="uni045E" horiz-adv-x="808" unicode="ў"/><glyph d="M156 946h161q-2 -96 -2 -244v-559h289v559q0 68 -4 244h162q-4 -172 -4 -241v-705h-215v-70q0 -129 4 -317h-164q6 138 6 315v72h-229v702q0 76 -4 244z" glyph-name="uni045F" horiz-adv-x="917" unicode="џ"/><glyph d="M137 0q2 53 2 195v1171h-63l37 107h184q-4 -98 -4 -201v-428q31 53 90 87t135 34q123 0 195.5 -83.5t72.5 -240.5v-420q0 -157 5 -221h-160q2 72 2 231v406q0 92 -43 138t-117 46q-57 0 -104.5 -40t-75.5 -109v-482q0 -92 4 -190h-160z" glyph-name="uni04BB" horiz-adv-x="894" unicode="һ"/><glyph d="M162 0q4 184 4 336v670q0 166 -4 370h172q-4 -61 -4 -370v-672q0 -236 4 -334h-172z" glyph-name="uni04C0" horiz-adv-x="495" unicode="Ӏ"/><glyph d="M156 0q6 70 6 201v542q0 156 -6 203h163q-4 -47 -4 -203v-542q0 -158 4 -201h-163z" glyph-name="uni04CF" horiz-adv-x="475" unicode="ӏ"/><glyph d="M348 1556v123h404v-123h-404zM1010 0h-166q4 82 4 281v675l-615 -960h-69q4 88 4 285v763q0 228 -6 332h168q-4 -131 -4 -342v-610l618 969h66q-2 -123 -2 -351v-753q0 -201 2 -289z" glyph-name="uni04E2" horiz-adv-x="1171" unicode="Ӣ"/><glyph d="M295 1167v123h403v-123h-403zM160 -2v262v379q0 215 -4 307h163q-6 -127 -6 -321v-306l435 633h73q-4 -226 -4 -327v-355q0 -110 4 -270h-159q4 80 4 262v344l-426 -608h-80z" glyph-name="uni04E3" horiz-adv-x="974" unicode="ӣ"/><glyph d="M180 1167v123h404v-123h-404zM39 946h182q8 -33 26 -99t21 -79l148 -559l143 551q20 79 43 186h170q-44 -117 -70 -207l-276 -911q-39 -124 -101.5 -175.5t-160.5 -51.5h-68l8 127q86 0 119 23.5t60 105.5l55 161l-215 678q-4 11 -35 104.5t-49 145.5z" glyph-name="uni04EF" horiz-adv-x="808" unicode="ӯ"/><glyph d="M551 1776h164l133 -289h-135zM39 1376h174l309 -1077l146 500l-187 577h154l115 -405l106 405h154l-187 -575l140 -502l307 1077h170l-92 -278l-357 -1100h-55l-197 627l-196 -627h-58l-348 1089z" glyph-name="Wgrave" horiz-adv-x="1478" unicode="Ẁ"/><glyph d="M379 1386h164l133 -288h-135zM35 946h178q16 -89 43 -203l113 -481l147 684h98l166 -688l113 539q4 20 16 74t15 75h159q-39 -122 -53 -184l-196 -780h-89l-180 692l-168 -692h-90l-207 747q-13 54 -65 217z" glyph-name="wgrave" horiz-adv-x="1118" unicode="ẁ"/><glyph d="M936 1776l-162 -289h-135l133 289h164zM39 1376h174l309 -1077l146 500l-187 577h154l115 -405l106 405h154l-187 -575l140 -502l307 1077h170l-92 -278l-357 -1100h-55l-197 627l-196 -627h-58l-348 1089z" glyph-name="Wacute" horiz-adv-x="1478" unicode="Ẃ"/><glyph d="M764 1386l-162 -288h-135l133 288h164zM35 946h178q16 -89 43 -203l113 -481l147 684h98l166 -688l113 539q4 20 16 74t15 75h159q-39 -122 -53 -184l-196 -780h-89l-180 692l-168 -692h-90l-207 747q-13 54 -65 217z" glyph-name="wacute" horiz-adv-x="1118" unicode="ẃ"/><glyph d="M494 1647q0 43 27.5 74.5t64.5 31.5q38 0 66 -31.5t28 -74.5q0 -44 -28 -75.5t-66 -31.5q-37 0 -64.5 31.5t-27.5 75.5zM807 1647q0 43 27.5 74.5t64.5 31.5q38 0 66 -31.5t28 -74.5q0 -44 -28 -75.5t-66 -31.5q-37 0 -64.5 31.5t-27.5 75.5zM39 1376h174l309 -1077 l146 500l-187 577h154l115 -405l106 405h154l-187 -575l140 -502l307 1077h170l-92 -278l-357 -1100h-55l-197 627l-196 -627h-58l-348 1089z" glyph-name="Wdieresis" horiz-adv-x="1478" unicode="Ẅ"/><glyph d="M322 1257q0 43 27.5 75t64.5 32q38 0 66 -32t28 -75q0 -44 -28 -75t-66 -31q-37 0 -64.5 31t-27.5 75zM635 1257q0 43 27.5 75t64.5 32q38 0 66 -32t28 -75q0 -44 -28 -75t-66 -31q-37 0 -64.5 31t-27.5 75zM35 946h178q16 -89 43 -203l113 -481l147 684h98l166 -688 l113 539q4 20 16 74t15 75h159q-39 -122 -53 -184l-196 -780h-89l-180 692l-168 -692h-90l-207 747q-13 54 -65 217z" glyph-name="wdieresis" horiz-adv-x="1118" unicode="ẅ"/><glyph d="M289 1776h164l133 -289h-135zM395 0q4 188 4 324v260l-241 542q-44 98 -119 250h197q34 -100 69 -182l180 -442l179 436q7 16 33.5 87.5t39.5 100.5h183q-92 -188 -119 -248l-240 -546v-260q0 -46 6 -322h-172z" glyph-name="Ygrave" horiz-adv-x="958" unicode="Ỳ"/><glyph d="M215 1386h164l133 -288h-135zM39 946h182q8 -33 26 -99t21 -79l148 -559l143 551q20 79 43 186h170q-44 -117 -70 -207l-276 -911q-39 -124 -101.5 -175.5t-160.5 -51.5h-68l8 127q86 0 119 23.5t60 105.5l55 161l-215 678q-4 11 -35 104.5t-49 145.5z" glyph-name="ygrave" horiz-adv-x="808" unicode="ỳ"/><glyph d="M66 428v141h684v-141h-684z" glyph-name="endash" horiz-adv-x="815" unicode="–"/><glyph d="M61 428v141h1412v-141h-1412z" glyph-name="emdash" horiz-adv-x="1536" unicode="—"/><glyph d="M6 428v135h1297v-135h-1297z" glyph-name="uni2015" horiz-adv-x="1341" unicode="―"/><glyph d="M100 1055q0 183 115 403l100 -39q-55 -163 -55 -317q0 -95 12 -156l-157 -35q-15 81 -15 144z" glyph-name="quoteleft" horiz-adv-x="380" unicode="‘"/><glyph d="M274 1315q0 -186 -114 -404l-101 39q56 166 56 318q0 89 -13 155l158 35q14 -75 14 -143z" glyph-name="quoteright" horiz-adv-x="370" unicode="’"/><glyph d="M274 61q0 -185 -114 -403l-101 39q56 166 56 317q0 90 -13 156l158 35q14 -75 14 -144z" glyph-name="quotesinglbase" horiz-adv-x="370" unicode="‚"/><glyph d="M100 1055q0 183 115 403l100 -39q-55 -163 -55 -317q0 -95 12 -156l-157 -35q-15 81 -15 144zM424 1055q0 183 115 403l100 -39q-55 -163 -55 -317q0 -95 12 -156l-158 -35q-14 75 -14 144z" glyph-name="quotedblleft" horiz-adv-x="704" unicode="“"/><glyph d="M274 1315q0 -186 -114 -404l-101 39q56 166 56 318q0 89 -13 155l158 35q14 -75 14 -143zM598 1315q0 -184 -115 -404l-100 39q55 163 55 318q0 94 -12 155l158 35q14 -75 14 -143z" glyph-name="quotedblright" horiz-adv-x="694" unicode="”"/><glyph d="M274 63q0 -185 -114 -403l-101 39q56 166 56 317q0 90 -13 156l158 35q14 -75 14 -144zM598 63q0 -183 -115 -403l-100 39q55 163 55 317q0 95 -12 156l158 35q14 -75 14 -144z" glyph-name="quotedblbase" horiz-adv-x="694" unicode="„"/><glyph d="M61 883v137q110 -14 199 -14q0 35 -4.5 163.5t-5.5 151.5h133q-3 -53 -10 -315q103 0 198 14v-137q-99 12 -198 12q0 -30 2 -249.5t2 -280.5q0 -149 4 -259h-129q2 57 2 259q0 63 3 281t3 249q-88 0 -199 -12z" glyph-name="dagger" horiz-adv-x="632" unicode="†"/><glyph d="M72 897v139q86 -14 194 -14l-8 299h131q-1 -22 -2 -89t-2.5 -123.5t-3.5 -86.5q95 0 197 12v-135q-117 10 -197 10q0 -3 1 -36t2 -78t1 -78q0 -41 -2 -104t-2 -95q33 2 98.5 5t98.5 5v-137q-103 15 -197 15l8 -300h-131l8 300q-83 0 -194 -15v139q110 -12 194 -12 q-4 118 -4 201q0 33 1 77.5t2 77t1 35.5q-44 0 -194 -12z" glyph-name="daggerdbl" horiz-adv-x="647" unicode="‡"/><glyph d="M121 557q0 91 50 154t122 63t123 -63t51 -154q0 -89 -51 -152t-123 -63t-122 63t-50 152z" glyph-name="bullet" horiz-adv-x="587" unicode="•"/><glyph d="M92 102q0 54 32.5 87.5t76.5 33.5t75 -33t31 -86q0 -54 -30.5 -86t-77.5 -34q-45 0 -76 32.5t-31 85.5zM543 102q0 54 32 87.5t76 33.5t75.5 -33t31.5 -86q0 -54 -31 -86t-78 -34q-45 0 -75.5 32.5t-30.5 85.5zM991 102q0 54 32.5 87.5t76.5 33.5t75 -33t31 -86 q0 -54 -30.5 -86t-77.5 -34q-45 0 -76 32.5t-31 85.5z" glyph-name="ellipsis" horiz-adv-x="1300" unicode="…"/><glyph d="M63 1038q0 149 69 246.5t171 97.5q100 0 168 -95t68 -243t-68.5 -245t-169.5 -97q-100 0 -169 96t-69 240zM193 0l716 1370h131l-721 -1370h-126zM180 1047q0 -108 33.5 -170t89.5 -62q54 0 87.5 65t33.5 164q0 97 -35.5 159.5t-89.5 62.5q-50 0 -84.5 -62t-34.5 -157z M690 319q0 152 69.5 248.5t170.5 96.5q99 0 167 -95t68 -243q0 -146 -68.5 -243t-168.5 -97q-99 0 -168.5 95t-69.5 238zM1264 319q0 152 69.5 248.5t169.5 96.5q99 0 167.5 -95t68.5 -243q0 -145 -69 -242.5t-169 -97.5q-101 0 -169 94.5t-68 238.5zM811 317 q2 -95 36 -155.5t87 -57.5q52 1 83.5 64.5t29.5 161.5q-3 97 -37 155.5t-88 57.5q-51 -2 -82.5 -65t-28.5 -161zM1384 315q2 -94 36 -154t87 -57q52 1 83 65t28 161q-2 97 -35.5 155.5t-87.5 57.5q-51 -2 -82.5 -65.5t-28.5 -162.5z" glyph-name="perthousand" horiz-adv-x="1802" unicode="‰"/><glyph d="M442 59l-372 394v22l372 393v-166l-221 -239l221 -236v-168z" glyph-name="guilsinglleft" horiz-adv-x="522" unicode="‹"/><glyph d="M84 868l373 -393v-22l-373 -394v166l221 240l-221 235v168z" glyph-name="guilsinglright" horiz-adv-x="526" unicode="›"/><glyph d="M539 1372l-680 -1372h-121l678 1372h123z" glyph-name="fraction" horiz-adv-x="276" unicode="⁄"/><glyph d="M741 197l17 -160q-91 -53 -205 -53q-171 0 -269 135t-124 368h-111v97h103q-2 29 -2 86q0 61 2 92h-103v96h111q30 238 131 377t264 139q36 0 90.5 -15.5t95.5 -35.5v-168q-72 72 -172 72q-102 0 -166 -95.5t-84 -273.5h334l-8 -96h-334q-2 -29 -2 -90q0 -59 2 -88h326 l-6 -97h-312q23 -172 87 -266t159 -94q58 0 99 17t77 53z" glyph-name="Euro" horiz-adv-x="802" unicode="€"/><glyph d="M162 0q2 88 2 289v753q0 228 -2 351h65l619 -969v610q0 211 -4 342h168q-6 -104 -6 -332v-763q0 -197 4 -285h-70l-614 960v-675q0 -199 4 -281h-166zM1081 887q0 151 74.5 254.5t183.5 103.5q108 0 183 -104t75 -254q0 -151 -74 -253t-184 -102q-112 0 -185 101.5 t-73 253.5zM1184 887q0 -111 43.5 -184.5t111.5 -73.5q70 0 112 72t42 186t-43 186t-111 72t-111.5 -79.5t-43.5 -178.5zM1575 385v-123h-465v123h465z" glyph-name="uni2116" horiz-adv-x="1679" unicode="№"/><glyph d="M106 662q0 177 63.5 329.5t177 244t249.5 91.5q133 0 246 -89t179 -242.5t66 -333.5q0 -181 -64.5 -334.5t-178 -243.5t-248.5 -90q-134 0 -246.5 89t-178 242.5t-65.5 336.5zM190 662q0 -158 52.5 -292.5t146 -214t207.5 -79.5q113 0 206.5 77.5t147.5 212t54 296.5 q0 158 -53.5 291t-147.5 211.5t-207 78.5q-111 0 -204 -76.5t-147 -210.5t-55 -294zM440 279q2 55 2 172v409q0 125 -2 182h160q103 0 164 -67.5t61 -188.5t-60.5 -189.5t-164.5 -68.5h-53v-75q0 -123 2 -174h-109zM719 788q0 78 -34 122t-91 44h-47v-336h47q57 0 91 45 t34 125z" glyph-name="uni2117" horiz-adv-x="1193" unicode="℗"/><glyph d="M563 750q1 18 6 149l17 481h94l192 -399l187 399h96l19 -481q6 -128 8 -149h-109q0 94 -2 135l-14 262l-168 -311h-33l-168 340l-10 -293q0 -1 -1 -44t-1 -89h-113zM201 750q4 92 4 151v379h-150v96h414v-96h-152v-377q0 -110 2 -153h-118z" glyph-name="trademark" horiz-adv-x="1290" unicode="™"/><glyph d="M80 -4v154q69 -7 190 -7h84q-108 113 -169.5 265.5t-61.5 332.5q0 148 40 271t110 205.5t165 128t205 45.5q229 0 374.5 -179.5t145.5 -470.5q0 -181 -62 -333.5t-171 -264.5h78q127 0 198 7v-154q-51 4 -248 4h-194v141q110 114 170.5 265t60.5 323q0 240 -98 378 t-254 138q-159 0 -255.5 -137.5t-96.5 -378.5q0 -172 59.5 -323t169.5 -265v-141h-207q-182 0 -233 -4z" glyph-name="uni2126" horiz-adv-x="1286" unicode="Ω"/><glyph d="M340 256q43 -78 126.5 -135t178 -84t189.5 -27q295 0 485 217h115q-214 -243 -607 -243q-113 0 -223 29.5t-206.5 87.5t-169.5 138t-115.5 188t-42.5 230q0 146 63 273.5t168 215t243 137.5t287 50q198 0 365.5 -82t273.5 -240t115 -362h-1245v-393zM1321 1061 q-40 106 -185.5 174t-304.5 68q-67 0 -139 -15.5t-140.5 -45t-125.5 -79t-86 -110.5v-377h981v385z" glyph-name="estimated" horiz-adv-x="1658" unicode="℮"/><glyph d="M336 752q0 -142 2 -162h-123l2 203v446l-139 -80l-17 94q158 88 215 123h62l-2 -164v-460zM1020 1372l-680 -1372h-121l678 1372h123zM856 637l-6 108q55 41 135 41q93 0 148 -50t55 -144q0 -72 -35.5 -125.5t-97.5 -65.5q63 -7 107 -64t44 -128q0 -98 -60 -159.5 t-157 -61.5q-83 0 -151 35l8 106q44 -39 125 -39q52 0 81 34.5t29 98.5q0 60 -30.5 94.5t-89.5 34.5l-37 -2v94l28 -2q52 0 82.5 35.5t30.5 95.5q0 54 -24.5 81.5t-65.5 27.5q-69 0 -119 -45z" glyph-name="uni2153" horiz-adv-x="1290" unicode="⅓"/><glyph d="M63 614v107q31 33 80.5 97.5t77.5 113.5q88 140 88 231q0 61 -26.5 95t-73.5 34q-62 0 -121 -59l-12 117q75 55 151 55q96 0 152.5 -62.5t56.5 -171.5q0 -137 -119 -299q-17 -24 -57 -74.5t-55 -74.5h137q60 0 109 6v-115h-388zM1096 1372l-680 -1372h-121l678 1372h123z M926 625l-6 108q55 41 135 41q93 0 147.5 -50t54.5 -144q0 -72 -35.5 -125.5t-97.5 -65.5q63 -7 107.5 -64t44.5 -128q0 -98 -60 -160t-157 -62q-84 0 -152 35l8 107q44 -39 125 -39q52 0 81.5 34.5t29.5 98.5q0 60 -31 94.5t-90 34.5l-37 -2v94l29 -2q52 0 82.5 35.5 t30.5 95.5q0 54 -25 81.5t-66 27.5q-68 0 -118 -45z" glyph-name="uni2154" horiz-adv-x="1361" unicode="⅔"/><glyph d="M55 408q0 131 49.5 240t131.5 169t176 57q147 -3 227 -120l2 55q0 135 -33.5 249.5t-97 185.5t-143.5 71q-130 0 -215 -76l-33 143q127 82 264 82q196 0 309 -189t113 -511q0 -385 -114 -582.5t-302 -197.5q-145 0 -239.5 121t-94.5 303zM207 408q0 -122 53.5 -202.5 t130.5 -80.5q101 0 161.5 116t70.5 334q-31 65 -87 109.5t-116 44.5q-92 0 -152.5 -88.5t-60.5 -232.5z" glyph-name="partialdiff" horiz-adv-x="888" unicode="∂"/><glyph d="M37 0q47 127 104 309l328 1088h76l342 -1123q54 -168 94 -274h-944zM502 1059l-250 -914h500z" glyph-name="uni2206" horiz-adv-x="1019" unicode="∆"/><glyph d="M143 -258q4 238 4 385v1083h-96v166h996l-46 -166h-79v-1083q0 -291 4 -385h-174q4 98 4 383v1085h-443v-1083q0 -291 4 -385h-174z" glyph-name="product" horiz-adv-x="1079" unicode="∏"/><glyph d="M410 559l-369 817h506q204 0 282 4l-22 -151q-27 0 -122 3t-124 3h-256l283 -668l-303 -710h372q30 0 87.5 2t84.5 2v-152q-74 8 -170 8h-630z" glyph-name="summation" horiz-adv-x="892" unicode="∑"/><glyph d="M72 438v142h661v-142h-661z" glyph-name="minus" horiz-adv-x="804" unicode="−"/><glyph d="M96 537l-37 137l265 125l231 -905l311 1777h146l-363 -1945h-184l-244 874z" glyph-name="radical" horiz-adv-x="1030" unicode="√"/><glyph d="M61 618q0 139 73 235.5t179 96.5q80 0 144.5 -57t134.5 -176q34 54 60.5 90t60.5 72t71 53.5t78 17.5q104 0 174 -96.5t70 -230.5q0 -138 -71 -237t-179 -99q-76 0 -140.5 57.5t-133.5 175.5q-71 -119 -135.5 -176t-141.5 -57q-107 0 -175.5 95.5t-68.5 235.5zM967 618 q0 87 -35.5 143.5t-89.5 55.5q-45 -1 -83 -42.5t-106 -156.5q58 -104 100 -151t91 -47q55 0 89 56t34 142zM190 614q0 -84 36 -139t89 -55q50 0 102 53.5t89 142.5q-60 106 -100.5 153.5t-90.5 47.5q-54 0 -89.5 -57.5t-35.5 -145.5z" glyph-name="infinity" horiz-adv-x="1167" unicode="∞"/><glyph d="M16 -383l9 137q35 -18 75 -18q20 0 36 6.5t27.5 22t19.5 32t13.5 45.5t8.5 51.5t4 62t1.5 66t0.5 72.5q0 94 -8 500t-8 504q0 252 58.5 374.5t190.5 122.5q49 0 88 -22l-8 -131q-25 14 -63 14q-72 0 -95.5 -88.5t-23.5 -275.5q0 -87 9 -484.5t9 -492.5q0 -105 -6 -182 t-22 -144t-43 -108t-69.5 -64t-100.5 -23q-65 0 -103 23z" glyph-name="integral" horiz-adv-x="573" unicode="∫"/><glyph d="M78 621q2 82 46.5 143t119.5 61q38 0 83.5 -25t84.5 -50t63 -25q58 0 68 90h100q-2 -81 -46 -144t-118 -63q-44 0 -89 25t-83 49.5t-63 24.5q-59 0 -66 -86h-100zM78 301q2 82 46.5 143.5t119.5 61.5q38 0 82.5 -25t84 -50t64.5 -25q58 0 68 90h100q-2 -81 -46 -143 t-118 -62q-41 0 -87.5 24.5t-85.5 49t-62 24.5q-28 0 -45.5 -24t-20.5 -64h-100z" glyph-name="approxequal" horiz-adv-x="720" unicode="≈"/><glyph d="M733 637h-217l-102 -240h319v-137h-377l-82 -194h-108l82 194h-176v137h233l101 240h-334v133h389l84 199h110l-84 -199h162v-133z" glyph-name="notequal" horiz-adv-x="811" unicode="≠"/><glyph d="M717 1163v-155l-463 -301l463 -297v-156l-647 414v80zM731 0h-661v137h661v-137z" glyph-name="lessequal" horiz-adv-x="804" unicode="≤"/><glyph d="M82 1163l647 -415v-80l-647 -414v156l463 297l-463 301v155zM68 0v137h661v-137h-661z" glyph-name="greaterequal" horiz-adv-x="804" unicode="≥"/><glyph d="M1266 1374q92 0 148 -56.5t56 -148.5v-970q0 -88 -56 -143.5t-148 -55.5h-971q-88 0 -143.5 55.5t-55.5 143.5v970q0 92 55.5 148.5t143.5 56.5h971zM258 279q0 -57 46.5 -87t111.5 -30h811l-447 522v528h-364q-64 0 -111 -32.5t-47 -89.5v-811z" glyph-name="filledbox" horiz-adv-x="1986" unicode="■"/><glyph d="M92 1124q0 3 2 10.5t2 10.5q8 25 24 32t38 -6q25 -20 28 -22q16 -18 48 -49t45 -45q0 -2 4 -2q2 1 4 3.5t4 2.5q91 115 237 176q79 30 148 41q71 11 125 6q125 -7 221 -49q125 -56 201 -137q91 -97 137 -209q19 -50 -6.5 -96t-79.5 -56q-37 -5 -72 13.5t-47 52.5 q-33 71 -61 106q-75 89 -189 133q-75 29 -153 23q-129 -6 -232 -90q-35 -24 -76 -76q-2 -4 -2 -6q2 0 2 -4q11 -11 47 -45.5t54 -53.5q8 -7 26 -38q5 -23 -18 -39q-4 -4 -10 -6t-13 -4t-10 -3h-28h-267q-40 0 -67 19q-54 34 -66 98v2v307zM1464 180q-4 -6 -4 -20 q-8 -23 -23.5 -29.5t-37.5 6.5q-16 6 -29 23q-15 13 -30 28t-34 35t-30 31q0 2 -2 2q-8 -4 -8 -10q-96 -110 -238 -172q-48 -24 -147 -43q-86 -8 -127 -8q-110 6 -219 51q-111 45 -201 135q-88 94 -137 213q-19 50 6 95t76 52q38 7 72.5 -11t49.5 -52q20 -53 62 -105 q73 -94 184 -133q77 -28 154 -22q129 6 235 86q42 33 74 80q0 4 4 4q-4 2 -6 2q-16 16 -48.5 50.5t-49.5 51.5q-21 21 -25 39q-7 24 14 39q20 8 37 8q10 4 29 4h266q32 0 68 -18q54 -39 65 -98v-2v-312z" glyph-name="H22073" horiz-adv-x="1705" unicode="□"/><glyph d="M915 1540l-213 -747h504l-966 -1031l272 764h-463z" glyph-name="uni25A2" horiz-adv-x="1286" unicode="▢"/><glyph d="M1487 1176l-25 22l-123 -156q80 -104 109 -194l-84 -33q-6 14 -16.5 35.5t-12.5 26.5l-256 -232l359 -401l49 -213l-227 32l-408 373l-412 -373l-223 -32l43 213l361 401l-256 232q-18 -32 -25 -62l-88 33q40 107 113 194l-127 156l-25 -22l-47 51l119 119l51 -48 l-23 -24l156 -123q92 76 195 109l36 -84q-11 -5 -32 -14.5t-33 -14.5l217 -242l213 242q-21 11 -61 29l32 84q98 -31 199 -109l156 123l-23 24l51 48l119 -119z" glyph-name="uni25A3" horiz-adv-x="1705" unicode="▣"/><glyph d="M1249 1333q19 -88 83 -149.5t153 -73.5l-129 -782l-502 -281l-502 281l-133 782q90 12 154.5 73t83.5 150h792z" glyph-name="uni25A4" horiz-adv-x="1705" unicode="▤"/><glyph d="M1585 946q0 -48 -6 -98q-28 -131 -117 -217q-391 -391 -588 -586q-10 -13 -26 -13t-29 13q-337 341 -583 584q-102 105 -119 235q-10 75 2 140q31 146 139 235q138 121 330 96q132 -19 221 -108q6 -5 13 -12t15 -15.5t13 -13.5v4q31 34 70 65q137 104 311 80 q133 -18 231 -116q97 -101 117 -232q1 -7 3 -20.5t3 -20.5z" glyph-name="uni25A5" horiz-adv-x="1705" unicode="▥"/><glyph d="M948 985q162 -25 281 -168t119 -325q0 -134 -73.5 -248t-194.5 -179t-259 -65q-136 0 -255.5 65t-192 179t-72.5 248q0 182 118.5 325t280.5 168v248q-23 0 -41 18.5t-18 40.5q0 24 18 43t41 19h248q23 0 41.5 -19.5t18.5 -42.5q0 -22 -18.5 -40.5t-41.5 -18.5v-248z" glyph-name="uni25A6" horiz-adv-x="1697" unicode="▦"/><glyph d="M868 1401q132 0 246.5 -70t184 -193.5t69.5 -269.5v-532l-367 -334l64 602l168 68v196q-113 0 -297 -67v-266l-68 -66l-67 66v266q-191 67 -299 67v-196l166 -68l65 -602l-399 334v532q0 148 70 270t192.5 192.5t271.5 70.5z" glyph-name="uni25A7" horiz-adv-x="1695" unicode="▧"/><glyph d="M1200 1389q176 -112 281.5 -314t105.5 -444q-38 -34 -103 -82t-121 -87t-118 -93.5t-105.5 -106.5t-72.5 -120t-29 -140h-360q0 72 -35 147.5t-85 134.5t-119 119.5t-123.5 99t-112 78t-72.5 50.5q0 242 104 444t279 314q22 -73 46 -134.5t43.5 -104.5t48.5 -85.5 t46.5 -65.5t52.5 -56t50.5 -46t56.5 -47q100 94 136 136q111 131 196 373q5 14 10 30zM543 455q88 0 149.5 50.5t61.5 125.5q0 45 -109 89q-115 47 -223 49q-94 2 -94 -40q0 -80 66.5 -177t148.5 -97zM1171 455q57 0 109.5 49.5t80.5 112.5t28 112q0 46 -109 40 q-114 -7 -223 -55q-94 -42 -94 -83q0 -75 60.5 -125.5t147.5 -50.5z" glyph-name="uni25A8" horiz-adv-x="1699" unicode="▨"/><glyph d="M1096 1323h219v-1128q-231 -138 -467 -138q-234 0 -465 138v1128h192v-219h162v219h221v-219h138v219z" glyph-name="uni25A9" horiz-adv-x="1697" unicode="▩"/><glyph d="M602 573l-532 156l532 168l248 621l248 -621l532 -168l-532 -156l-248 -628z" glyph-name="H18543" horiz-adv-x="1695" unicode="▪"/><glyph d="M61 657l330 684h51l328 -684l-328 -682h-51zM229 659l187 -479l186 482l-186 471z" glyph-name="lozenge" horiz-adv-x="833" unicode="◊"/><glyph d="M-47 -498v140h82q129 0 129 215v884q0 160 -6 205h164q-5 -59 -5 -203v-890q0 -172 -68 -261.5t-202 -89.5h-94z" glyph-name="uniF6BE" horiz-adv-x="475" unicode=""/><glyph d="M811 743v-542q0 -158 6 -201h-166q6 47 6 201v608h-315v-610q0 -144 2 -199h-158q2 88 2 199v610h-116v137h116v213q0 156 69 239t194 83q65 0 133 -27l-25 -137q-37 24 -90 24q-127 0 -127 -178v-217h475q-6 -47 -6 -203zM649 1257q0 43 27 75t65 32q37 0 65 -32t28 -75 q0 -44 -28 -75t-65 -31q-38 0 -65 31t-27 75z" glyph-name="fi" horiz-adv-x="956" unicode="ﬁ"/><glyph d="M186 0q2 88 2 199v610h-116v137h116v213q0 156 69 239t194 83q65 0 133 -27l-25 -137q-37 24 -90 24q-127 0 -127 -178v-217h176l-22 -137h-154v-610q0 -144 2 -199h-158zM625 0q4 90 4 201v1079q0 111 -4 193h161q-4 -39 -4 -177v-1095q0 -158 4 -201h-161z" glyph-name="fl" horiz-adv-x="942" unicode="ﬂ"/><glyph d="M37 0q60 155 100 281l293 983l-41 116h160l342 -1099q52 -155 104 -281h-190l-109 387h-383l-108 -387h-168zM504 1094l-152 -566h305z" glyph-name="A.alt" horiz-adv-x="1032"/><glyph d="M106 684q0 208 70 371t193.5 252.5t277.5 89.5q137 0 260 -60v-170q-123 76 -248 76q-168 0 -274 -153.5t-106 -403.5q0 -249 97.5 -403t264.5 -154q80 0 137 35v405h-213l13 142h362v-656q-135 -78 -299 -78q-234 0 -384.5 194.5t-150.5 512.5z" glyph-name="G.alt" horiz-adv-x="1073"/><glyph d="M330 -55q0 -172 -83 -269.5t-220 -97.5q-71 0 -129 21v151q47 -20 110 -20q76 0 117 59.5t41 173.5v1065q0 250 -4 348h170q-2 -170 -2 -348v-1083z" glyph-name="J.alt" horiz-adv-x="493"/><glyph d="M1126 686q0 -199 -59 -355.5t-164 -246.5q83 -122 178 -250h-190q-28 47 -105 176q-87 -33 -170 -33q-226 0 -368 196t-142 513q0 316 142 513.5t368 197.5q150 0 266 -89.5t180 -251.5t64 -370zM616 127q46 0 84 14q-102 148 -159 224h180q67 -109 94 -148 q67 71 104 193t37 276q0 250 -93.5 404.5t-246.5 154.5q-151 0 -244 -154.5t-93 -404.5q0 -251 92.5 -405t244.5 -154z" glyph-name="Q.alt" horiz-adv-x="1234"/><glyph d="M39 1376h172l250 -1057l233 1057h66l246 -1057l235 1057h162q-18 -74 -53 -218t-54 -218l-252 -946h-102l-219 919l-221 -919h-99l-237 919q-18 71 -127 463z" glyph-name="W.alt" horiz-adv-x="1441"/><glyph d="M39 1376h174l250 -1050h6l186 782q-4 13 -29.5 114.5t-43.5 153.5h172l260 -1050h4l235 1050h162q-71 -263 -94 -356l-266 -1026h-103l-219 862l-227 -862h-98l-285 1075q-16 55 -43 157t-41 150z" glyph-name="W.alt2" horiz-adv-x="1454"/><glyph d="M145 1257q0 43 28 75t65 32q38 0 66 -32t28 -75q0 -44 -28 -75t-66 -31q-37 0 -65 31t-28 75zM156 0q6 70 6 201v542q0 156 -6 203h163q-4 -47 -4 -203v-542q0 -158 4 -201h-163z" glyph-name="i.loclTRK" horiz-adv-x="475"/><glyph d="M-51 -430l22 137q39 -26 92 -26q123 0 123 178v950h-116v137h116v213q0 157 69.5 239.5t195.5 82.5q65 0 133 -27l-25 -139q-39 26 -92 26q-61 0 -93 -46.5t-32 -131.5v-217h176l-24 -137h-152v-944q0 -157 -68 -240.5t-192 -83.5q-70 0 -133 29z" glyph-name="f.alt" horiz-adv-x="569"/><glyph d="M135 1257q0 43 27 75t65 32t65 -32t27 -75q0 -44 -27 -75t-65 -31t-65 31t-27 75zM143 0q4 47 4 201v637h-67l37 108h188q-4 -106 -4 -213v-532q0 -115 4 -201h-162z" glyph-name="i.alt" horiz-adv-x="442"/><glyph d="M135 1257q0 43 26 75t64 32t66 -32t28 -75q0 -44 -28 -75t-66 -31t-64 31t-26 75zM-59 -498l26 140h53q127 0 127 278v918h-65l37 108h190q-4 -102 -4 -223v-873q0 -167 -68 -257.5t-184 -90.5h-112z" glyph-name="j.alt" horiz-adv-x="446"/><glyph d="M170 0q0 44 2 133t2 133v541h-111v139h111v76q0 27 -1 80t-1 76l162 26q-4 -114 -4 -180v-78h198l-22 -139h-176v-549q0 -44 2 -129.5t2 -128.5h-164z" glyph-name="t.alt" horiz-adv-x="604"/><glyph d="M80 840l39 106h186q-4 -47 -4 -211v-413q0 -99 37 -148t104 -49q53 0 98 39.5t68 109.5v443q0 157 -2 229h162q-4 -68 -4 -221v-532q0 -123 12 -193h-133l-29 106q-32 -56 -86.5 -89t-126.5 -33q-118 0 -186 82t-68 241v533h-67z" glyph-name="u.alt" horiz-adv-x="929"/><glyph d="M35 946h166l37 -115l194 -571l66 205l-144 481h131l76 -305l74 305h125l-139 -465l69 -221l197 569q6 19 19.5 58t19.5 59h166q-28 -55 -60 -133l-305 -831h-59l-109 305l-110 -305h-58l-295 819q-23 63 -61 145z" glyph-name="w.alt" horiz-adv-x="1126"/><glyph d="M170 -473q11 32 44.5 129.5t51.5 150.5l78 222l-227 673q-36 125 -78 244h184q7 -31 23.5 -90t23.5 -90l150 -553l139 541q8 35 25 104t22 88h174q-11 -33 -36.5 -114.5t-41.5 -126.5l-380 -1180z" glyph-name="y.alt" horiz-adv-x="819"/><glyph d="M102 686q0 337 91.5 521t257.5 184q167 0 258.5 -185t91.5 -520q0 -337 -91.5 -520.5t-258.5 -183.5t-258 183.5t-91 520.5zM268 686q0 -267 48 -412t135 -145q88 0 136 144.5t48 412.5q0 267 -48 412t-136 145q-87 0 -135 -145.5t-48 -411.5z" glyph-name="zero.non" horiz-adv-x="903"/><glyph d="M305 0v207v973q-122 -70 -178 -107l-37 127q188 101 301 176h76l-2 -258v-913q0 -154 2 -205h-162z" glyph-name="one.non" horiz-adv-x="694"/><glyph d="M100 0v113q185 212 305.5 444.5t120.5 423.5q0 131 -56.5 200.5t-147.5 69.5q-130 0 -207 -86v166q89 72 231 72q159 0 253.5 -106.5t94.5 -303.5q0 -104 -30.5 -215.5t-88 -221.5t-122 -207.5t-148.5 -205.5h227q112 0 191 7v-150h-623z" glyph-name="two.non" horiz-adv-x="833"/><glyph d="M119 -180v157q74 -55 182 -55q94 0 152.5 64.5t58.5 185.5q0 122 -68 192t-172 70q-7 0 -57 -4v141q10 0 26.5 -1t26.5 -1q99 0 159 71t60 183q0 106 -48 167t-130 61q-108 0 -186 -78v162q87 61 205 61q144 0 233.5 -93t89.5 -257q0 -116 -53.5 -202.5t-146.5 -133.5 q104 -43 165.5 -134t61.5 -218q0 -183 -97.5 -282t-258.5 -99q-115 0 -203 43z" glyph-name="three.non" horiz-adv-x="808"/><glyph d="M481 -182q6 58 6 153v201h-421v96l509 932h68v-897q80 0 162 4v-137q-35 2 -162 2v-199q0 -77 6 -159zM494 303l4 524l-281 -524h277z" glyph-name="four.non" horiz-adv-x="872"/><glyph d="M106 -188v161q77 -71 189 -71q108 0 174 71t66 205q0 137 -65 211t-187 74q-76 0 -144 -21q1 10 15 156l49 561q61 -6 137 -6h197q73 0 135 6v-155q-86 4 -137 4h-203l-41 -418q27 6 53 6q162 0 260 -108.5t98 -303.5q0 -197 -106 -313.5t-277 -116.5q-121 0 -213 58z" glyph-name="five.non" horiz-adv-x="827"/><glyph d="M98 440q0 269 117 517.5t299 424.5h195q-121 -108 -239.5 -278t-162.5 -324q72 86 180 86q128 0 218 -119t90 -321q0 -205 -98.5 -324.5t-250.5 -119.5t-250 126t-98 332zM260 426q0 -139 51.5 -219t137.5 -80q88 0 138 79t50 218q0 138 -53.5 217.5t-137.5 79.5 q-82 0 -134 -78.5t-52 -216.5z" glyph-name="six.non" horiz-adv-x="884"/><glyph d="M90 1016l-8 158q58 -3 172 -3h307q35 0 97.5 2.5t84.5 2.5q-4 -12 -50 -147.5t-64 -203.5l-244 -759q-59 -197 -78 -271h-176q10 29 34.5 96.5t37.5 106.5l329 1022h-301q-104 0 -141 -4z" glyph-name="seven.non" horiz-adv-x="811"/><glyph d="M111 352q0 110 56.5 208.5t149.5 156.5q-83 54 -130.5 143.5t-47.5 190.5q0 150 86.5 245t218.5 95q133 0 217 -95t84 -241q0 -96 -48 -186t-128 -146q207 -132 207 -369q0 -161 -93.5 -265.5t-240.5 -104.5q-145 0 -238 103.5t-93 264.5zM295 1044q0 -93 40.5 -154.5 t119.5 -101.5q61 38 99 106t38 150q0 96 -39.5 148.5t-110.5 52.5q-69 0 -108 -52.5t-39 -148.5zM268 360q0 -99 49 -166t125 -67q77 0 126.5 66.5t49.5 164.5q0 93 -48 166t-138 121q-72 -41 -118 -118.5t-46 -166.5z" glyph-name="eight.non" horiz-adv-x="888"/><glyph d="M786 758q0 -269 -116.5 -517.5t-298.5 -424.5h-195q121 108 239.5 278t162.5 324q-72 -86 -181 -86q-128 0 -217.5 119t-89.5 321q0 206 98 325.5t250 119.5t250 -126.5t98 -332.5zM625 772q0 139 -51.5 219t-137.5 80q-88 0 -138 -79t-50 -218q0 -138 53 -217.5 t137 -79.5q82 0 134.5 79t52.5 216z" glyph-name="nine.non" horiz-adv-x="884"/><glyph d="M102 686q0 337 91.5 521t257.5 184q167 0 258.5 -185t91.5 -520q0 -337 -91.5 -520.5t-258.5 -183.5t-258 183.5t-91 520.5zM268 686q0 -267 48 -412t135 -145q88 0 136 144.5t48 412.5q0 267 -48 412t-136 145q-87 0 -135 -145.5t-48 -411.5z" glyph-name="zero.tf" horiz-adv-x="878"/><glyph d="M401 0v207v973q-122 -70 -178 -107l-37 127q188 101 301 176h76l-2 -258v-913q0 -154 2 -205h-162z" glyph-name="one.tf" horiz-adv-x="878"/><glyph d="M137 0v113q185 212 305.5 444.5t120.5 423.5q0 130 -57 200t-148 70q-129 0 -206 -86v166q89 72 231 72q159 0 253.5 -106.5t94.5 -303.5q0 -104 -30.5 -215.5t-88 -221.5t-122 -207.5t-148.5 -205.5h227q112 0 191 7v-150h-623z" glyph-name="two.tf" horiz-adv-x="878"/><glyph d="M174 25v157q74 -55 182 -55q94 0 152.5 64.5t58.5 185.5q0 122 -68 192t-171 70q-8 0 -58 -4v141q10 0 27 -1t27 -1q99 0 159 71t60 183q0 105 -48 166t-130 61q-110 0 -187 -77v161q89 62 205 62q144 0 234 -93t90 -257q0 -116 -54 -202.5t-147 -133.5 q104 -43 165.5 -134.5t61.5 -218.5q0 -183 -97.5 -281.5t-258.5 -98.5q-115 0 -203 43z" glyph-name="three.tf" horiz-adv-x="878"/><glyph d="M496 4q6 58 6 154v200h-422v97l510 931h67v-897q59 0 162 5v-138q-35 2 -162 2v-198q0 -64 7 -160zM508 489l4 525l-281 -525h277z" glyph-name="four.tf" horiz-adv-x="878"/><glyph d="M158 37v162q78 -72 188 -72q108 0 174 71t66 205q0 137 -65 211t-187 74q-79 0 -144 -20q0 7 15 155l49 561q61 -6 137 -6h197q74 0 135 6v-155q-86 4 -137 4h-203l-41 -418q27 6 53 6q162 0 260.5 -108t98.5 -303q0 -197 -106 -313.5t-277 -116.5q-123 0 -213 57z" glyph-name="five.tf" horiz-adv-x="878"/><glyph d="M100 440q0 269 117 517.5t299 424.5h195q-121 -108 -239.5 -278t-162.5 -324q72 86 180 86q128 0 218 -119t90 -321q0 -206 -98 -325t-250 -119t-250.5 126t-98.5 332zM262 426q0 -139 51.5 -219t137.5 -80q88 0 138 79t50 218q0 138 -53 217.5t-137 79.5 q-82 0 -134.5 -79t-52.5 -216z" glyph-name="six.tf" horiz-adv-x="878"/><glyph d="M141 1221l-8 157q39 -2 172 -2h307q35 0 98 2t85 2q-7 -22 -52 -152t-63 -198l-244 -760q-61 -203 -78 -270h-176q10 29 34.5 96.5t37.5 106.5l330 1022h-301q-105 0 -142 -4z" glyph-name="seven.tf" horiz-adv-x="878"/><glyph d="M119 352q0 110 57 208.5t150 156.5q-83 54 -131 143.5t-48 190.5q0 149 87 244.5t219 95.5q133 0 217 -95t84 -241q0 -96 -48 -186t-128 -146q206 -132 206 -369q0 -161 -93 -265.5t-240 -104.5q-145 0 -238.5 103.5t-93.5 264.5zM303 1044q0 -93 40.5 -154.5 t119.5 -101.5q61 38 99 106t38 150q0 96 -39 148.5t-110 52.5q-70 0 -109 -52.5t-39 -148.5zM276 360q0 -99 49.5 -166t125.5 -67q77 0 126.5 66.5t49.5 164.5q0 188 -187 287q-72 -41 -118 -118.5t-46 -166.5z" glyph-name="eight.tf" horiz-adv-x="878"/><glyph d="M797 942q0 -269 -117 -517.5t-299 -424.5h-195q121 108 239.5 278t162.5 324q-72 -86 -180 -86q-128 0 -218 119t-90 321q0 206 98.5 325.5t250.5 119.5q151 0 249.5 -126.5t98.5 -332.5zM635 956q0 139 -51.5 219t-137.5 80q-88 0 -138 -79t-50 -218q0 -138 53.5 -217 t137.5 -79q82 0 134 78.5t52 215.5z" glyph-name="nine.tf" horiz-adv-x="878"/><glyph glyph-name="CR" horiz-adv-x="337"/><glyph d="M-530 1370h120q6 -151 103 -151q96 0 102 151h119q-3 -131 -63 -198.5t-158 -67.5q-97 0 -158 68t-65 198z" glyph-name="brevecombcy"/></font>
</defs>
</svg>
