<svg xmlns="http://www.w3.org/2000/svg" xmlns:xlink="http://www.w3.org/1999/xlink" version="1.1"><metadata>Created by FontForge 20170731 at Tue Mar 23 16:28:45 2021 By Aleksey,,, Copyright 2013 Valve Corporation. See license metadata for details.</metadata><defs><font id="Radiance-Bold" horiz-adv-x="1087"><font-face x-height="981" ascent="1556" bbox="-1126 -522 2451 1909" cap-height="1376" descent="-492" font-family="Radiance" font-stretch="normal" font-weight="700" panose-1="0 0 8 0 0 0 0 0 0 0" underline-position="-307" underline-thickness="102" unicode-range="U+0020-FB02" units-per-em="2048"/><glyph d="M1249 776v-573q0 -156 6 -203h-313q8 71 8 203v547h-415v-545q0 -103 4 -205h-308q1 35 3 107t2 98v545h-168v231h168v78q0 204 101 309t290 105q121 0 239 -33l-45 -226q-55 27 -127 27q-81 0 -120 -46t-39 -124v-90h720q-6 -55 -6 -205zM942 1266q0 67 47 114t115 47 t116 -47t48 -114q0 -69 -48 -116.5t-116 -47.5t-115 47.5t-47 116.5z" glyph-name="fi" horiz-adv-x="1386" unicode="fi"/><glyph d="M231 0q1 35 3 107t2 98v545h-168v231h168v78q0 204 101 309t290 105q121 0 239 -33l-45 -226q-55 27 -127 27q-81 0 -120 -46t-39 -124v-90h245l-47 -231h-198v-545q0 -103 4 -205h-308zM934 0q4 41 4 205v1044q0 91 -4 209h303q-6 -39 -6 -196v-1057q0 -164 6 -205h-303 z" glyph-name="fl" horiz-adv-x="1388" unicode="fl"/><glyph glyph-name=".notdef" horiz-adv-x="475"/><glyph glyph-name=".null" horiz-adv-x="0"/><glyph glyph-name="nonmarkingreturn" horiz-adv-x="682"/><glyph glyph-name="space" horiz-adv-x="475"/><glyph d="M174 1376h313q-4 -49 -4 -229v-406q0 -180 4 -231h-313q6 68 6 231v406q0 172 -6 229zM137 176q0 81 59.5 140t139.5 59q82 0 140.5 -58t58.5 -141q0 -80 -59.5 -138t-141.5 -58q-80 0 -138.5 57.5t-58.5 138.5z" glyph-name="exclam" horiz-adv-x="667" unicode="!"/><glyph d="M143 922l-45 565h291l-47 -565h-199zM588 922l-45 565h291l-48 -565h-198z" glyph-name="quotedbl" horiz-adv-x="931" unicode="&quot;"/><glyph d="M57 369l25 198h192l54 252h-195l25 193h198l62 331h198l-61 -331h213l63 331h201l-63 -331h178l-25 -193h-184l-51 -252h186l-22 -198h-197l-70 -351h-198l69 351h-215l-67 -351h-201l68 351h-183zM737 819h-213l-51 -252h215z" glyph-name="numbersign" horiz-adv-x="1191" unicode="#"/><glyph d="M190 90l9 258q118 -82 297 -82q72 0 111.5 33t39.5 94q0 48 -43.5 92.5t-128.5 96.5q-53 31 -93.5 63.5t-78 78t-58 106t-20.5 131.5q0 254 271 331l4 154h190v-137q124 -4 230 -31v-242q-114 62 -242 62q-62 0 -97.5 -29.5t-35.5 -83.5q0 -45 41.5 -86t138.5 -102 q50 -32 88.5 -64t79.5 -79t63.5 -108t22.5 -130q0 -133 -76.5 -220t-218.5 -124v-156h-195v135q-177 3 -299 39z" glyph-name="dollar" horiz-adv-x="1138" unicode="$"/><glyph d="M76 1032q0 150 101.5 254.5t246.5 104.5q144 0 245 -103t101 -254q0 -150 -101.5 -254t-246.5 -104q-143 0 -244.5 103.5t-101.5 252.5zM246 0l1016 1374h241l-1018 -1374h-239zM285 1034q0 -70 39 -113.5t100 -43.5q60 0 99.5 44.5t39.5 110.5t-40.5 111t-100.5 45 q-59 0 -98 -44t-39 -110zM977 338q0 151 101 254.5t247 103.5q142 0 244 -103.5t102 -252.5q0 -150 -101.5 -254t-246.5 -104q-143 0 -244.5 103t-101.5 253zM1184 336q0 -67 39.5 -110.5t101.5 -43.5q60 0 98.5 44t38.5 112q0 67 -39 111.5t-100 44.5q-60 0 -99.5 -45 t-39.5 -113z" glyph-name="percent" horiz-adv-x="1746" unicode="%"/><glyph d="M102 379q0 204 287 373q-73 71 -112 137t-39 145q0 141 108.5 231.5t267.5 90.5q147 0 249 -91t102 -227q0 -82 -50.5 -155t-148.5 -146q133 -126 213 -217q143 158 192 252h289q-138 -202 -330 -416q105 -123 254 -133l37 -237q-175 0 -270 34.5t-203 131.5 q-182 -170 -405 -170q-191 0 -316 111t-125 286zM485 1042q0 -40 29 -79t88 -89q133 71 133 166q0 49 -34.5 85t-86.5 36q-56 0 -92.5 -33.5t-36.5 -85.5zM383 393q0 -74 55 -125t142 -51q99 0 211 109q-120 147 -265 282q-143 -96 -143 -215z" glyph-name="ampersand" horiz-adv-x="1511" unicode="&amp;"/><glyph d="M143 922l-45 565h291l-47 -565h-199z" glyph-name="quotesingle" horiz-adv-x="487" unicode="'"/><glyph d="M104 578q0 319 135.5 578.5t378.5 414.5l101 -211q-160 -135 -246 -336t-86 -438q0 -233 84.5 -443.5t245.5 -349.5l-101 -205q-246 159 -379 417.5t-133 572.5z" glyph-name="parenleft" horiz-adv-x="788" unicode="("/><glyph d="M684 582q0 -319 -135.5 -579t-378.5 -415l-100 211q159 135 245 336t86 438q0 234 -84 444.5t-245 348.5l100 205q246 -160 379 -417.5t133 -571.5z" glyph-name="parenright" horiz-adv-x="788" unicode=")"/><glyph d="M231 745q19 18 47 53t71 91.5t73 93.5q-74 -5 -166.5 -18t-134.5 -27v231q110 -25 303 -41q-106 143 -191 238l199 117q2 -9 7 -24t16.5 -42.5t22 -53.5t31.5 -75.5t38 -89.5q102 244 110 285l199 -117q-55 -52 -190 -240q234 20 303 43v-231q-111 26 -301 45 q140 -194 190 -242l-199 -110q-45 133 -112 282q-21 -53 -51.5 -123t-46 -108t-17.5 -51z" glyph-name="asterisk" unicode="*"/><glyph d="M100 422v223h334v346h254v-346h336v-223h-336v-344h-254v344h-334z" glyph-name="plus" horiz-adv-x="1124" unicode="+"/><glyph d="M477 365q15 -81 15 -138q0 -149 -58 -305.5t-141 -275.5l-195 80q99 222 99 424q0 76 -17 163z" glyph-name="comma" horiz-adv-x="598" unicode=","/><glyph d="M76 379v278h600v-278h-600z" glyph-name="hyphen" horiz-adv-x="751" unicode="-"/><glyph d="M109 176q0 81 59 140t139 59q82 0 140.5 -58t58.5 -141q0 -80 -59.5 -138t-141.5 -58q-80 0 -138 57.5t-58 138.5z" glyph-name="period" horiz-adv-x="598" unicode="."/><glyph d="M725 1438l-422 -1514h-280l395 1514h307z" glyph-name="slash" horiz-adv-x="747" unicode="/"/><glyph d="M90 684q0 112 19.5 214t60.5 190t99.5 152t141.5 101t181 37q101 0 185.5 -39t142.5 -105.5t98.5 -156.5t59 -190.5t18.5 -208.5q0 -110 -19.5 -211t-60.5 -189.5t-99.5 -153.5t-142 -102.5t-182.5 -37.5q-101 0 -185.5 38.5t-142 105t-97.5 156.5t-58.5 190.5 t-18.5 209.5zM399 680q0 -219 50 -337t143 -118q96 0 145 118t49 337t-50 338t-144 119q-93 0 -143 -119t-50 -338z" glyph-name="zero" horiz-adv-x="1187" unicode="0"/><glyph d="M483 0q4 86 4 211v833q-187 -76 -260 -110l-39 240q243 92 471 204h136q-4 -39 -4 -260v-909q0 -164 4 -209h-312z" glyph-name="one" horiz-adv-x="1077" unicode="1"/><glyph d="M143 0v207q100 72 190 156.5t163 174.5t116 182.5t43 170.5q0 101 -61 161t-160 60q-105 0 -169 -25t-107 -81v307q133 76 360 76q234 0 355.5 -120.5t121.5 -328.5q0 -121 -58 -243t-146.5 -223t-219.5 -214h228q123 0 233 10v-270h-889z" glyph-name="two" horiz-adv-x="1122" unicode="2"/><glyph d="M170 35v262q49 -29 119.5 -47.5t138.5 -18.5q107 0 173.5 49t66.5 136q0 74 -71.5 121t-166.5 47q-46 0 -98 -6v237q70 -4 90 -4q90 0 152.5 48.5t62.5 119.5t-57 117.5t-142 46.5q-140 0 -256 -70v258q57 26 142 43t172 17q201 0 323.5 -97t122.5 -262 q0 -107 -68 -190.5t-188 -124.5q137 -42 213 -126.5t76 -201.5q0 -185 -133.5 -297t-354.5 -112q-172 0 -317 55z" glyph-name="three" horiz-adv-x="1130" unicode="3"/><glyph d="M569 2q4 37 4 154v190h-538v133l727 899h94v-823q162 0 221 4v-215q-47 2 -221 2v-190q0 -80 6 -156zM573 555l2 346l-266 -346h264z" glyph-name="four" horiz-adv-x="1105" unicode="4"/><glyph d="M119 45v281q138 -88 278 -88q112 0 182 52.5t70 141.5q0 88 -73 143.5t-199 55.5q-132 0 -207 -21q4 45 12 106.5t11 104.5l43 561q90 -4 159 -4h334q17 0 182 6v-264q-110 4 -170 4h-276l-23 -280q45 10 101 10q194 0 313 -112t119 -293q0 -146 -71 -254.5 t-184.5 -161.5t-252.5 -53q-186 0 -348 65z" glyph-name="five" horiz-adv-x="1122" unicode="5"/><glyph d="M74 457q0 137 41 271t114.5 249.5t162.5 214t198 186.5h350q-114 -73 -261.5 -237t-215.5 -310q81 58 186 58q120 0 216.5 -62t149 -164.5t52.5 -222.5q0 -131 -68 -236.5t-182.5 -163.5t-251.5 -58q-131 0 -244 63.5t-180 173.5t-67 238zM371 449q0 -89 58.5 -153.5 t150.5 -64.5q95 0 148.5 61t53.5 148q0 86 -59.5 147.5t-147.5 61.5t-146 -58.5t-58 -141.5z" glyph-name="six" horiz-adv-x="1132" unicode="6"/><glyph d="M104 1106l-4 274q47 -4 256 -4h500q119 0 213 4q-95 -200 -154 -344l-337 -819q-74 -168 -91 -217h-342q52 85 109 205l422 907h-336q-189 0 -236 -6z" glyph-name="seven" horiz-adv-x="1110" unicode="7"/><glyph d="M104 371q0 113 70 212.5t186 133.5q-105 39 -159 115t-54 178q0 161 125 263.5t306 102.5q188 0 307 -104t119 -248q0 -92 -58.5 -175t-152.5 -128q119 -34 187.5 -128t68.5 -210q0 -117 -65.5 -208.5t-173 -140t-235.5 -48.5q-127 0 -234 47.5t-172 136.5t-65 201z M412 991q0 -64 55.5 -113.5t128.5 -60.5q145 45 145 170q0 69 -47.5 116.5t-118.5 47.5t-117 -47t-46 -113zM377 414q0 -76 58 -131.5t140 -55.5q84 0 140.5 55t56.5 128q0 156 -223 204q-172 -50 -172 -200z" glyph-name="eight" horiz-adv-x="1136" unicode="8"/><glyph d="M1059 922q0 -137 -41 -271t-114.5 -250t-162.5 -214.5t-198 -186.5h-350q114 73 261.5 237t215.5 310q-81 -58 -187 -58q-90 0 -168.5 36.5t-132.5 98t-85 143.5t-31 171q0 198 145.5 328.5t355.5 130.5q131 0 244.5 -63.5t180.5 -173.5t67 -238zM762 930q0 89 -58.5 153 t-150.5 64q-95 0 -149 -61t-54 -148q0 -86 59.5 -147.5t147.5 -61.5t146.5 59t58.5 142z" glyph-name="nine" horiz-adv-x="1132" unicode="9"/><glyph d="M109 942q0 81 59 140t139 59q82 0 140.5 -58t58.5 -141q0 -80 -59.5 -138.5t-141.5 -58.5q-80 0 -138 58t-58 139zM109 176q0 81 59 140t139 59q82 0 140.5 -58t58.5 -141q0 -80 -59.5 -138t-141.5 -58q-80 0 -138 57.5t-58 138.5z" glyph-name="colon" horiz-adv-x="598" unicode=":"/><glyph d="M115 942q0 81 59 140t139 59q82 0 140.5 -58t58.5 -141q0 -80 -59.5 -138.5t-141.5 -58.5q-80 0 -138 58t-58 139zM483 365q15 -81 15 -138q0 -149 -58 -305.5t-141 -275.5l-195 80q99 222 99 424q0 76 -17 163z" glyph-name="semicolon" horiz-adv-x="604" unicode=";"/><glyph d="M981 20l-838 426v170l838 461v-270l-567 -260l567 -256v-271z" glyph-name="less" horiz-adv-x="1144" unicode="&lt;"/><glyph d="M1024 844v-221h-924v221h924zM1024 397v-223h-924v223h924z" glyph-name="equal" horiz-adv-x="1124" unicode="="/><glyph d="M164 1075l837 -426v-170l-837 -461v271l567 260l-567 256v270z" glyph-name="greater" horiz-adv-x="1144" unicode="&gt;"/><glyph d="M291 475q0 70 28 131.5t101 153.5q119 147 119 229q0 70 -43.5 109t-130.5 39q-61 0 -124.5 -26t-101.5 -64v253q56 41 138 68t161 27q188 0 300 -100t112 -244q0 -87 -41.5 -166t-120.5 -168q-63 -74 -87 -123t-28 -119h-282zM240 176q0 81 59 140t139 59 q82 0 140.5 -58t58.5 -141q0 -80 -59.5 -138t-141.5 -58q-80 0 -138 57.5t-58 138.5z" glyph-name="question" horiz-adv-x="931" unicode="?"/><glyph d="M522 412q0 112 44.5 213.5t132 169t198.5 67.5q64 0 115.5 -33t74.5 -94l11 117l219 -8l-82 -449q-22 -155 88 -155q95 0 154 88.5t59 240.5q0 245 -165 389t-447 144q-174 0 -314.5 -84.5t-218.5 -229.5t-78 -319q0 -277 168 -453t422 -176q154 0 275 47l-7 -200 q-13 -2 -55 -10.5t-69 -13t-68.5 -9t-75.5 -4.5q-170 0 -324 62.5t-266 169t-177.5 257t-65.5 318.5q0 178 67.5 334t181 265t266 171.5t320.5 62.5q133 0 257.5 -31.5t230.5 -93t186 -147t125 -200t45 -245.5q0 -224 -119 -364.5t-323 -140.5q-111 0 -179 43.5t-81 128.5 q-90 -154 -252 -154q-122 0 -197.5 96.5t-75.5 229.5zM754 446q0 -72 34 -112.5t93 -40.5q81 0 149 86l27 203q-15 34 -49.5 58t-69.5 24q-77 0 -130.5 -63t-53.5 -155z" glyph-name="at" horiz-adv-x="1824" unicode="@"/><glyph d="M20 0q20 36 36.5 68t35 70.5t30.5 64.5t37 81.5t40 88.5l463 1024h92l485 -1045q106 -222 180 -352h-354l-111 272h-520l-110 -272h-304zM524 498h338l-172 422z" glyph-name="A" horiz-adv-x="1439" unicode="A"/><glyph d="M166 0q8 107 8 360v607q0 341 -6 409h448q85 0 164 -20.5t144 -60.5t104 -106.5t39 -150.5q0 -92 -51 -166t-135 -106q114 -35 188 -127.5t74 -216.5q0 -86 -29 -157t-78 -119.5t-115.5 -81.5t-141 -48.5t-154.5 -15.5h-459zM768 1001q0 75 -48.5 125t-131.5 50h-105 v-351h111q76 0 125 48t49 128zM829 418q0 92 -57 149.5t-154 57.5h-135v-416h125q104 0 162.5 54.5t58.5 154.5z" glyph-name="B" horiz-adv-x="1245" unicode="B"/><glyph d="M96 686q0 203 96.5 367.5t262.5 256t368 91.5q173 0 338 -51v-312q-55 43 -139 69t-174 26q-189 0 -314.5 -129.5t-125.5 -315.5q0 -125 58.5 -227t159 -159.5t222.5 -57.5q170 0 326 80v-301q-146 -46 -355 -46q-155 0 -289.5 54t-229.5 148t-149.5 225.5t-54.5 281.5z" glyph-name="C" horiz-adv-x="1298" unicode="C"/><glyph d="M166 0q8 109 8 367v665q0 248 -8 344h504q191 0 347.5 -86.5t247.5 -243t91 -352.5q0 -152 -57 -283.5t-152 -220.5t-219.5 -139.5t-259.5 -50.5h-502zM483 254h148q185 0 299 122t114 312q0 191 -117 312.5t-298 121.5h-146v-868z" glyph-name="D" horiz-adv-x="1452" unicode="D"/><glyph d="M166 0q6 231 6 350v676q0 264 -6 350h487q213 0 330 6l-47 -264q-72 6 -330 6h-125v-290h127q232 0 316 4v-260q-84 6 -316 6h-127v-330h174q236 0 316 4v-262q-80 4 -314 4h-491z" glyph-name="E" horiz-adv-x="1101" unicode="E"/><glyph d="M166 0q6 90 6 358v658q0 272 -6 360h477q254 0 342 6l-49 -264q-61 6 -330 6h-125v-338h113q202 0 305 5v-263q-61 4 -305 4h-113v-176q0 -262 6 -356h-321z" glyph-name="F" horiz-adv-x="1062" unicode="F"/><glyph d="M96 688q0 205 95 367.5t268.5 254t396.5 91.5q190 0 336 -49v-293q-163 78 -324 78q-111 0 -200.5 -37.5t-144.5 -101.5t-84 -143t-29 -167q0 -186 122.5 -318t305.5 -132q64 0 108 18v170q0 180 -6 262h305q-6 -111 -6 -321v-322q-184 -70 -397 -70t-382.5 88.5 t-266.5 252t-97 372.5z" glyph-name="G" horiz-adv-x="1400" unicode="G"/><glyph d="M166 0q6 78 6 297v723q0 278 -6 356h319q-4 -94 -4 -397v-135h566v184q0 213 -9 348h324q-8 -185 -8 -356v-744q0 -159 8 -276h-324q9 102 9 291v303h-566v-305q0 -211 4 -289h-319z" glyph-name="H" horiz-adv-x="1527" unicode="H"/><glyph d="M166 0q6 86 6 375v612q0 301 -6 389h321q-6 -72 -6 -389v-612q0 -287 6 -375h-321z" glyph-name="I" horiz-adv-x="653" unicode="I"/><glyph d="M70 4v277q77 -41 176 -41q162 0 162 227v553q0 256 -7 356h320q-4 -115 -4 -356v-582q0 -207 -117 -332.5t-330 -125.5q-78 0 -200 24z" glyph-name="J" horiz-adv-x="874" unicode="J"/><glyph d="M166 0q6 86 6 350v676q0 209 -6 350h321q-4 -92 -4 -350v-291l295 402q116 166 162 239h342q-9 -12 -147 -200l-347 -455l379 -471q14 -16 48 -58t75.5 -91.5t85.5 -100.5h-413q-22 36 -132 184l-348 445v-279q0 -252 4 -350h-321z" glyph-name="K" horiz-adv-x="1394" unicode="K"/><glyph d="M166 0q6 150 6 367v643q0 276 -6 366h321q-6 -117 -6 -284v-832h203q200 0 332 4v-270q-84 6 -336 6h-514z" glyph-name="L" horiz-adv-x="1071" unicode="L"/><glyph d="M94 0q3 45 14.5 170.5t14.5 177.5l72 1032h241l441 -782l440 782h235l60 -1054q9 -180 24 -326h-305q-2 120 -14 299l-31 520l-381 -657h-63l-385 657l-33 -516q-2 -45 -12 -303h-318z" glyph-name="M" horiz-adv-x="1728" unicode="M"/><glyph d="M166 0q6 80 6 291v727q0 244 -6 381h96l782 -809v432q0 233 -6 354h308q-9 -196 -9 -350v-733q0 -171 6 -309h-94l-782 817v-516q0 -168 6 -285h-307z" glyph-name="N" horiz-adv-x="1513" unicode="N"/><glyph d="M96 692q0 200 95.5 362.5t262.5 254.5t371 92q155 0 292 -55.5t234 -150.5t153.5 -228t56.5 -283q0 -201 -96 -363.5t-263 -254t-371 -91.5q-155 0 -291.5 55t-234 149.5t-153.5 228t-56 284.5zM412 688q0 -199 117.5 -329t301.5 -130q181 0 297.5 130t116.5 327 t-118.5 329t-299.5 132t-298 -130t-117 -329z" glyph-name="O" horiz-adv-x="1656" unicode="O"/><glyph d="M1118 920q0 -201 -135.5 -321t-382.5 -120h-119v-127q0 -248 8 -352h-323q8 104 8 358v682q0 243 -8 336h434q236 0 377 -122t141 -334zM805 926q0 92 -62.5 153.5t-167.5 61.5h-94v-430h94q103 0 166.5 61t63.5 154z" glyph-name="P" horiz-adv-x="1200" unicode="P"/><glyph d="M1800 -80l39 -219q-116 -35 -235 -35q-202 0 -358.5 79t-311.5 237q-58 -7 -103 -7q-155 0 -291.5 55t-234 149.5t-153.5 228t-56 284.5q0 200 95.5 362.5t262.5 254.5t371 92q155 0 292 -55.5t234 -150.5t153.5 -228t56.5 -283q0 -192 -88.5 -349t-241.5 -251 q94 -85 207.5 -132.5t226.5 -47.5q65 0 135 16zM412 688q0 -199 117.5 -329t301.5 -130q181 0 297.5 130t116.5 327t-118.5 329t-299.5 132t-298 -130t-117 -329z" glyph-name="Q" horiz-adv-x="1656" unicode="Q"/><glyph d="M1118 952q0 -259 -237 -348l190 -305q19 -29 38.5 -56.5t43.5 -59.5t40 -53t50 -64.5t51 -65.5h-376l-314 522h-123v-162q0 -243 6 -360h-321q8 104 8 362v666q0 255 -8 348h452q107 0 197.5 -27t158.5 -78.5t106 -133t38 -185.5zM807 936q0 95 -59 146t-146 51h-121 v-392h113q89 0 151 50t62 145z" glyph-name="R" horiz-adv-x="1333" unicode="R"/><glyph d="M96 55l68 256q124 -100 285 -100q92 0 147 38t55 105q0 61 -50.5 110.5t-143.5 106.5q-51 31 -86 55t-80 64.5t-71.5 80.5t-46 98.5t-19.5 123.5q0 184 126 297t338 113q169 0 300 -62v-249q-125 75 -269 75q-83 0 -129.5 -35.5t-46.5 -93.5q0 -24 11.5 -47t26 -40 t46 -41t51 -36.5t62.5 -39.5q71 -44 124 -87.5t98 -97.5t68 -119.5t23 -140.5q0 -182 -139.5 -301t-368.5 -119q-108 0 -210.5 25.5t-168.5 60.5z" glyph-name="S" horiz-adv-x="1097" unicode="S"/><glyph d="M481 0q6 150 6 356v506q0 184 -4 258h-84q-212 0 -340 -8v268q90 -4 347 -4h481q194 0 346 4l-8 -268q-128 8 -342 8h-82q-2 -57 -2 -258v-506q0 -204 8 -356h-326z" glyph-name="T" horiz-adv-x="1288" unicode="T"/><glyph d="M475 1376q-6 -92 -6 -379v-462q0 -142 67.5 -216.5t188.5 -74.5q122 0 190 76t68 217v460q0 277 -6 379h319q-4 -92 -4 -381v-454q0 -265 -152.5 -414.5t-412.5 -149.5q-265 0 -417 153.5t-152 410.5v454q0 301 -4 381h321z" glyph-name="U" horiz-adv-x="1447" unicode="U"/><glyph d="M16 1376h349l352 -846l354 846h322q-22 -38 -142 -278l-516 -1125h-61l-510 1114q-98 208 -148 289z" glyph-name="V" horiz-adv-x="1409" unicode="V"/><glyph d="M16 1376h312l413 -893l150 353l-266 540h264l133 -284l127 284h274l-274 -549l143 -344l414 893h307q-9 -20 -135 -293l-500 -1095h-63l-297 602l-301 -602h-66l-506 1091q-33 69 -73 165t-56 132z" glyph-name="W" horiz-adv-x="2029" unicode="W"/><glyph d="M18 0q98 126 215 305l248 387l-241 381q-117 184 -203 303h369q53 -100 100 -178l147 -250l156 260q22 38 53.5 95t40.5 73h342q-76 -95 -203 -289l-237 -370l248 -385q139 -215 227 -332h-371q-16 35 -100 170l-174 287l-191 -314l-82 -143h-344z" glyph-name="X" horiz-adv-x="1298" unicode="X"/><glyph d="M512 0q4 226 4 309v287l-330 526q-130 203 -170 254h369q19 -46 86 -164l211 -352l207 346q30 49 94 170h342q-52 -71 -184 -278l-316 -500v-291q0 -221 6 -307h-319z" glyph-name="Y" horiz-adv-x="1341" unicode="Y"/><glyph d="M51 0q4 6 160 293l457 827h-232q-264 0 -327 -4l-7 264q176 -4 344 -4h682l-620 -1120h287q202 0 319 6v-266q-156 4 -319 4h-744z" glyph-name="Z" horiz-adv-x="1200" unicode="Z"/><glyph d="M158 -389q4 51 4 219v1509q0 167 -4 220h415q113 0 158 2v-224q-43 4 -156 4h-165v-1513h168q110 0 153 4v-225q-37 4 -151 4h-422z" glyph-name="bracketleft" horiz-adv-x="815" unicode="["/><glyph d="M317 1446l408 -1532h-295l-418 1532h305z" glyph-name="backslash" horiz-adv-x="739" unicode="\"/><glyph d="M657 -389h-421q-115 0 -152 -4v225q43 -4 154 -4h168v1513h-166q-113 0 -156 -4v224q45 -2 158 -2h415q-4 -53 -4 -220v-1509q0 -168 4 -219z" glyph-name="bracketright" horiz-adv-x="815" unicode="]"/><glyph d="M758 815l-221 371l-211 -371h-277l434 651h125l434 -651h-284z" glyph-name="asciicircum" horiz-adv-x="1091" unicode="^"/><glyph d="M324 -242v111h299v-111h-299z" glyph-name="underscore" horiz-adv-x="946" unicode="_"/><glyph d="M80 279q0 140 96 222t246 95q105 12 219 12v29q0 66 -52.5 103.5t-139.5 37.5q-125 0 -236 -57l-88 192q63 41 159 64.5t203 23.5q221 0 333 -108.5t112 -312.5v-252q0 -203 41 -328h-291l-14 104q-100 -127 -273 -127q-135 0 -225 84.5t-90 217.5zM373 285q0 -49 30 -78 t80 -29q46 0 89 22t73 58v158l-125 -6q-68 -2 -107.5 -34t-39.5 -91z" glyph-name="a" unicode="a"/><glyph d="M229 0h-82v1292h-106l63 174h342q-6 -111 -6 -194v-359q115 88 279 88q204 0 332.5 -141.5t128.5 -355.5q0 -220 -132 -368t-341 -148q-95 0 -176 34.5t-130 79.5zM440 332q81 -96 209 -96q112 0 175 73t63 185q0 113 -63.5 186.5t-170.5 73.5q-62 0 -120 -24t-93 -62 v-336z" glyph-name="b" horiz-adv-x="1261" unicode="b"/><glyph d="M82 489q0 148 75 266t200 182t274 64q100 0 229 -38v-279q-90 57 -198 57q-136 0 -211.5 -74t-75.5 -182q0 -107 75.5 -175t211.5 -68q100 0 204 53v-270q-95 -39 -225 -39q-243 0 -401 142t-158 361z" glyph-name="c" horiz-adv-x="991" unicode="c"/><glyph d="M82 506q0 216 128.5 355.5t338.5 139.5q156 0 274 -90v363h-110l65 174h342q-6 -68 -6 -199v-1030q0 -125 6 -219h-202l-87 94q-112 -106 -282 -106q-139 0 -246.5 70t-164 187.5t-56.5 260.5zM373 494q0 -113 61.5 -187t171.5 -74q61 0 120 26t97 71v332 q-37 40 -95.5 65t-119.5 25q-108 0 -171.5 -72.5t-63.5 -185.5z" glyph-name="d" horiz-adv-x="1271" unicode="d"/><glyph d="M82 494q0 138 54.5 251.5t163.5 183.5t255 70q94 0 172 -27t130 -72t87.5 -104.5t51.5 -123t16 -129.5q0 -59 -13 -113h-626q17 -211 258 -211q155 0 321 76v-223q-151 -88 -340 -88q-248 0 -389 138.5t-141 371.5zM553 778q-87 0 -135 -55.5t-53 -132.5h360 q0 82 -42.5 135t-129.5 53z" glyph-name="e" unicode="e"/><glyph d="M231 0q1 35 3 107t2 98v545h-168v231h168v78q0 204 101 309t290 105q121 0 239 -33l-45 -226q-55 27 -127 27q-81 0 -120 -46t-39 -124v-90h245l-47 -231h-198v-545q0 -103 4 -205h-308z" glyph-name="f" horiz-adv-x="815" unicode="f"/><glyph d="M82 489q0 141 57.5 258t162 185.5t233.5 68.5q91 0 164 -32.5t120 -77.5v90h256q-6 -147 -6 -150v-765q0 -143 -39.5 -244.5t-116 -160.5t-176 -85.5t-231.5 -26.5q-96 0 -201.5 15.5t-163.5 34.5l78 215q56 -12 145 -22.5t152 -10.5q148 0 218.5 61t70.5 199v41 q-109 -94 -260 -94q-205 0 -334 142.5t-129 358.5zM373 494q0 -112 60 -186.5t163 -74.5q58 0 114.5 25.5t92.5 65.5v333q-82 97 -201 97q-106 0 -167.5 -73.5t-61.5 -186.5z" glyph-name="g" horiz-adv-x="1218" unicode="g"/><glyph d="M133 0q6 55 6 227v1057h-98l63 174h342q-8 -71 -8 -205v-381q109 125 291 125q171 0 263.5 -114.5t92.5 -325.5v-317q0 -160 9 -240h-312q4 42 4 242v344q0 78 -45 122t-116 44q-57 0 -106 -34.5t-81 -92.5v-398q0 -147 6 -227h-311z" glyph-name="h" horiz-adv-x="1216" unicode="h"/><glyph d="M152 1266q0 68 47 114.5t114 46.5q68 0 116 -47t48 -114q0 -69 -48 -116.5t-116 -47.5t-114.5 47.5t-46.5 116.5zM172 0q8 71 8 203v567q0 143 -10 211h317q-8 -73 -8 -205v-573q0 -140 8 -203h-315z" glyph-name="i" horiz-adv-x="606" unicode="i"/><glyph d="M295 1427q68 0 116 -47t48 -114q0 -69 -48 -116.5t-116 -47.5t-115 47.5t-47 116.5q0 67 47 114t115 47zM-111 -449v246h115q162 0 162 264v705q0 134 -8 215h317q-6 -77 -6 -209v-727q0 -99 -21.5 -185t-65 -156.5t-118 -111.5t-172.5 -41h-203z" glyph-name="j" horiz-adv-x="589" unicode="j"/><glyph d="M137 0q4 45 4 207v1077h-100l61 174h338q-6 -67 -6 -205v-678l379 406h334q-61 -57 -180 -176l-260 -273l335 -387q59 -70 134 -145h-383l-359 414v-211q0 -142 6 -203h-303z" glyph-name="k" horiz-adv-x="1196" unicode="k"/><glyph d="M137 0q6 62 6 205v1079h-102l63 174h336q-6 -39 -6 -196v-1057q0 -164 6 -205h-303z" glyph-name="l" horiz-adv-x="591" unicode="l"/><glyph d="M45 803l64 178h331l4 -129q48 68 122.5 106.5t164.5 38.5q196 0 268 -151q52 73 128.5 112t166.5 39q160 0 254 -108t94 -305v-383q0 -101 7 -201h-310q4 88 4 213v373q0 80 -33 124t-98 44q-97 0 -168 -129v-424q0 -113 5 -201h-308q4 72 4 213v371q0 80 -33.5 125 t-99.5 45q-96 0 -170 -129v-410q0 -160 4 -215h-303q2 74 2 203v600h-100z" glyph-name="m" horiz-adv-x="1771" unicode="m"/><glyph d="M45 803l64 178h323l4 -119q98 135 295 135q344 0 344 -446v-311q0 -183 4 -240h-301q4 66 4 242v344q0 79 -45 123.5t-116 44.5q-112 0 -185 -129v-383q0 -183 4 -242h-301q6 99 6 242v561h-100z" glyph-name="n" horiz-adv-x="1202" unicode="n"/><glyph d="M82 489q0 142 69.5 260t185.5 184t251 66q140 0 257 -68.5t184 -185.5t67 -256q0 -107 -41 -201t-110 -160t-162 -104t-195 -38q-140 0 -256.5 67t-183 182.5t-66.5 253.5zM369 489q0 -103 62.5 -177t156.5 -74q95 0 158 74t63 177q0 106 -63.5 179t-157.5 73 q-95 0 -157 -77t-62 -175z" glyph-name="o" horiz-adv-x="1177" unicode="o"/><glyph d="M45 807l64 174h337l-4 -94q104 114 283 114q202 0 329.5 -142t127.5 -355q0 -144 -58.5 -261.5t-166.5 -186t-246 -68.5q-149 0 -267 82v-494l-297 -43q7 110 7 207v1067h-109zM891 492q0 114 -64.5 188t-171.5 74q-64 0 -120 -27t-91 -68v-327q81 -96 209 -96 q112 0 175 72.5t63 183.5z" glyph-name="p" horiz-adv-x="1263" unicode="p"/><glyph d="M82 504q0 218 128 357.5t337 139.5q150 0 276 -90v70h297q-6 -95 -6 -260v-930q0 -167 8 -240h-303q6 99 6 250v287q-118 -100 -278 -100q-137 0 -244 69t-164 186.5t-57 260.5zM373 492q0 -113 61 -186t170 -73q62 0 121.5 26t97.5 71v332q-37 40 -96.5 65t-120.5 25 q-107 0 -170 -72.5t-63 -187.5z" glyph-name="q" horiz-adv-x="1271" unicode="q"/><glyph d="M45 805l64 176h282l25 -190q61 96 138.5 153t156.5 57q59 0 112 -30l-57 -277q-55 19 -107 19q-57 0 -122 -41.5t-93 -96.5v-368q0 -70 9 -207h-314q6 108 6 209v596h-100z" glyph-name="r" horiz-adv-x="837" unicode="r"/><glyph d="M86 41l53 235q115 -83 246 -83q59 0 91 19t32 54q0 8 -2 16t-8 15.5t-11.5 13.5t-16.5 14t-19 13t-24 13.5t-26 14t-30 15.5t-31 16q-48 25 -82.5 49t-69.5 60t-53 85t-18 109q0 144 99.5 221.5t277.5 77.5q120 0 270 -47v-233q-128 74 -240 74q-110 0 -110 -70 q0 -16 8.5 -30t30 -28.5t36 -23.5t51 -27t50.5 -26q44 -23 77.5 -47.5t67.5 -60.5t53 -85.5t19 -107.5q0 -143 -105.5 -227.5t-300.5 -84.5q-81 0 -170.5 17t-144.5 49z" glyph-name="s" horiz-adv-x="897" unicode="s"/><glyph d="M63 750v231h142v88q0 59 -4 141l305 37q-4 -102 -4 -184v-82h264l-39 -231h-225v-326q0 -97 33.5 -144t107.5 -47q42 0 84 21l43 -213q-40 -24 -105 -40.5t-112 -16.5q-163 0 -255.5 96.5t-92.5 277.5v392h-142z" glyph-name="t" horiz-adv-x="849" unicode="t"/><glyph d="M45 803l64 178h342q-9 -92 -9 -213v-332q0 -109 43.5 -160t116.5 -51q53 0 95.5 35.5t66.5 97.5v404q0 156 -4 219h309q-6 -61 -6 -217v-551q0 -128 18 -213h-260l-30 137q-92 -155 -283 -155q-168 0 -266.5 108t-98.5 311v402h-98z" glyph-name="u" horiz-adv-x="1230" unicode="u"/><glyph d="M367 981q9 -28 51 -139l145 -377l148 395q33 84 41 121h313q-80 -147 -109 -211l-366 -793h-103l-364 793q-41 93 -109 211h353z" glyph-name="v" horiz-adv-x="1081" unicode="v"/><glyph d="M14 981h334q14 -67 53 -168l129 -360l187 528h141l191 -520l114 344q40 113 58 176h301q-76 -156 -101 -227l-272 -770h-131l-246 581l-227 -581h-137l-293 766q-22 60 -57.5 135.5t-43.5 95.5z" glyph-name="w" horiz-adv-x="1533" unicode="w"/><glyph d="M18 0q56 70 158 225l180 264l-188 306q-61 97 -133 186h338l170 -279l182 279h305q-19 -22 -38 -48t-31 -43.5t-33.5 -49.5t-30.5 -45l-192 -295l180 -289q51 -85 139 -211h-324l-180 285l-184 -285h-318z" glyph-name="x" horiz-adv-x="1058" unicode="x"/><glyph d="M14 981h355q23 -80 55 -154l178 -436l156 426q28 87 47 164h332q-34 -64 -97 -217l-352 -823q-81 -193 -172.5 -273t-216.5 -80h-184l6 242q133 0 181.5 19t88.5 94l55 116l-321 695q-41 93 -111 227z" glyph-name="y" horiz-adv-x="1150" unicode="y"/><glyph d="M47 0l453 717h-234q-119 0 -166 -4l-2 272q49 -4 191 -4h659l-422 -719h242q78 0 172 4v-270q-43 4 -154 4h-739z" glyph-name="z" horiz-adv-x="1005" unicode="z"/><glyph d="M57 473v225q197 6 197 205q0 32 -4 135t-4 131q0 199 131 295t389 99l4 -220q-260 3 -260 -219q0 -36 3 -128t3 -117q0 -121 -46.5 -192.5t-143.5 -100.5q97 -29 143.5 -99.5t46.5 -191.5q0 -40 -3 -131t-3 -117q0 -219 260 -219l-4 -217q-259 3 -389.5 98t-130.5 295 q0 43 4 142t4 126q0 97 -51.5 147.5t-145.5 53.5z" glyph-name="braceleft" horiz-adv-x="835" unicode="{"/><glyph d="M383 1559v-1999h-233v1999h233z" glyph-name="bar" horiz-adv-x="530" unicode="|"/><glyph d="M778 698v-225q-196 -6 -196 -205q0 -32 4 -135t4 -131q0 -199 -131 -294.5t-389 -98.5l-4 219q260 -3 260 219q0 36 -3.5 128.5t-3.5 117.5q0 121 47 192.5t144 100.5q-97 29 -144 99.5t-47 191.5q0 40 3.5 130.5t3.5 116.5q0 219 -260 219l4 218q259 -3 389.5 -98.5 t130.5 -295.5q0 -43 -4 -142t-4 -126q0 -97 51 -147.5t145 -53.5z" glyph-name="braceright" horiz-adv-x="835" unicode="}"/><glyph d="M156 440q3 102 64.5 180t160.5 78q48 0 94.5 -21.5t83 -43t59.5 -21.5q59 0 62 74h172q-2 -48 -15.5 -93.5t-39 -83t-66.5 -60.5t-92 -23q-52 0 -100 21.5t-83 43t-55 21.5q-58 0 -61 -72h-184z" glyph-name="asciitilde" horiz-adv-x="1009" unicode="~"/><glyph d="M535 823q0 -81 -59.5 -139.5t-139.5 -58.5q-82 0 -140.5 57.5t-58.5 140.5q0 80 59.5 138.5t141.5 58.5q80 0 138.5 -58t58.5 -139zM498 -377h-314q4 49 4 230v405q0 180 -4 231h314q-6 -68 -6 -231v-405q0 -173 6 -230z" glyph-name="exclamdown" horiz-adv-x="667" unicode="¡"/><glyph d="M903 74q-66 -23 -147 -25v-180h-178v186q-187 32 -293.5 156t-106.5 315q0 194 108 322.5t287 161.5v194h185v-188q31 -1 74 -10t59 -15v-266q-69 38 -168 41q-104 0 -175 -64t-71 -174q0 -106 68.5 -167.5t175.5 -61.5q105 0 176 33z" glyph-name="cent" horiz-adv-x="1124" unicode="¢"/><glyph d="M57 0v244q88 7 141.5 41t83 111t33.5 208h-180v189h193q21 305 156 444t378 139q73 0 209 -37l-35 -237q-90 35 -155 35q-111 0 -177.5 -69t-76.5 -200l-4 -75h292l-32 -189h-275q-14 -266 -153 -366q47 2 207 2h157q166 0 211 4v-248q-57 4 -209 4h-764z" glyph-name="sterling" horiz-adv-x="1124" unicode="£"/><glyph d="M141 637q0 109 66 215l-150 147l142 142l149 -150q96 58 215 58q93 0 209 -58l139 139l142 -143l-133 -135q63 -114 63 -215q0 -109 -65 -207l145 -145l-141 -142l-152 148q-103 -58 -207 -58q-122 0 -211 56l-139 -139l-145 141l139 139q-66 92 -66 207zM387 641 q0 -75 51.5 -127.5t124.5 -52.5q72 0 123 53t51 127q0 72 -51 125t-123 53q-74 0 -125 -52.5t-51 -125.5z" glyph-name="currency" horiz-adv-x="1124" unicode="¤"/><glyph d="M395 0q1 28 3.5 98.5t2.5 104.5v88h-245v135h245v102h-245v152h282l-319 514q-22 36 -53 90.5t-43 71.5h337q8 -20 66 -137l141 -285l146 278q73 140 75 144h312q-10 -16 -53 -91t-76 -128l-285 -457h275v-152h-252v-102h252v-135h-252v-86q0 -88 6 -205h-320z" glyph-name="yen" horiz-adv-x="1124" unicode="¥"/><glyph d="M383 1559v-736h-233v736h233zM383 297v-737h-233v737h233z" glyph-name="brokenbar" horiz-adv-x="530" unicode="¦"/><glyph d="M121 627q0 92 52 163t146 111q-48 36 -83 100.5t-35 131.5q0 153 102.5 238t302.5 85q183 0 328 -55v-227q-117 63 -281 63q-69 0 -107 -29t-38 -80q0 -53 49 -90.5t143 -74.5q54 -21 94.5 -40t89 -51.5t80 -68t53 -87.5t21.5 -112q0 -82 -43 -149.5t-121 -114.5 q52 -37 81.5 -97t29.5 -134q0 -165 -118.5 -253.5t-334.5 -88.5q-98 0 -198.5 17t-165.5 42l43 235q59 -33 142.5 -55t160.5 -22q182 0 182 116q0 53 -56.5 93t-156.5 77q-50 18 -85 33t-81 39t-77.5 50.5t-60.5 61t-43.5 78.5t-14.5 95zM383 686q0 -59 48 -99t130 -75 q116 -47 156 -68q61 52 61 119q0 23 -8.5 44t-17 35t-31.5 31.5t-33 25t-42 22.5t-38.5 18t-40.5 17q-74 29 -110 49q-74 -39 -74 -119z" glyph-name="section" horiz-adv-x="1153" unicode="§"/><glyph d="M96 678q0 188 92 347t250.5 252t345.5 93q141 0 269 -55t220.5 -148t147 -221t54.5 -268q0 -141 -54.5 -269t-146.5 -221t-220 -147.5t-270 -54.5q-188 0 -346.5 92.5t-250 251.5t-91.5 348zM248 680q0 -113 42 -214.5t113.5 -175t171.5 -116.5t211 -43q148 0 272.5 73 t196.5 199.5t72 276.5q0 149 -72.5 274.5t-197 198t-271.5 72.5t-271 -72.5t-195.5 -198t-71.5 -274.5zM455 678q0 160 113 270.5t274 110.5q59 0 157 -23v-205q-58 31 -139 31q-82 0 -135 -53t-53 -129q0 -79 51 -130.5t127 -51.5q88 0 154 34l6 -208q-89 -25 -176 -25 q-159 0 -269 110t-110 269z" glyph-name="copyright" horiz-adv-x="1572" unicode="©"/><glyph d="M47 158q0 82 56.5 126t150.5 50l123 8v14q0 41 -36 63.5t-87 22.5q-79 0 -137 -28l-35 121q92 36 192 36q291 0 291 -256v-135q0 -112 21 -180h-176l-17 57q-66 -75 -160 -75q-82 0 -134 49t-52 127zM229 164q0 -27 17 -45.5t47 -18.5q54 0 86 37v94l-68 -4 q-82 -3 -82 -63z" glyph-name="ordfeminine" horiz-adv-x="632" unicode="ª"/><glyph d="M651 37l-563 438v45l561 441v-273l-243 -190l245 -187v-274zM1280 37l-563 438v45l561 441v-273l-244 -190l246 -187v-274z" glyph-name="guillemotleft" horiz-adv-x="1388" unicode="«"/><glyph d="M57 520v246h959v-594h-305v348h-654z" glyph-name="logicalnot" horiz-adv-x="1124" unicode="¬"/><glyph d="M129 1141q0 146 101.5 248t246.5 102t247.5 -102t102.5 -248q0 -145 -102 -246.5t-248 -101.5t-247 101.5t-101 246.5zM211 1141q0 -114 77 -193.5t189 -79.5q113 0 190.5 80t77.5 193q0 115 -77.5 194.5t-190.5 79.5q-112 0 -189 -79t-77 -195zM596 1219 q0 -43 -22.5 -70t-55.5 -33l111 -145h-97l-73 135h-33v-135h-82q2 23 2 78v192q0 62 -2 82h113q68 0 103.5 -29t35.5 -75zM526 1212q0 52 -63 52h-37v-105h35q65 0 65 53z" glyph-name="registered" horiz-adv-x="956" unicode="®"/><glyph d="M348 1389q121 0 206 -84.5t85 -204.5t-86 -206.5t-207 -86.5q-122 0 -205.5 85t-83.5 206q0 122 84.5 206.5t206.5 84.5zM346 965q55 0 93 40t38 97q0 54 -38.5 93.5t-90.5 39.5q-56 0 -95.5 -39t-39.5 -96t38.5 -96t94.5 -39z" glyph-name="degree" horiz-adv-x="698" unicode="°"/><glyph d="M100 694v224h334v346h254v-346h336v-224h-336v-344h-254v344h-334zM100 0v244h924v-244h-924z" glyph-name="plusminus" horiz-adv-x="1124" unicode="±"/><glyph d="M98 877v124q143 120 205 203q86 99 86 166q0 51 -31.5 82t-83.5 31q-84 0 -155 -47l-6 194q41 19 101 32t114 13q137 0 213.5 -71t76.5 -195q0 -100 -108 -221q-17 -20 -39.5 -42.5t-49 -47.5t-38.5 -37h133q49 0 131 4v-188h-549z" glyph-name="uni00B2" horiz-adv-x="753" unicode="²"/><glyph d="M133 1456l-6 184q87 35 197 35q133 0 210.5 -54t77.5 -151q0 -66 -41 -115t-116 -71q73 -13 127.5 -64.5t54.5 -125.5q0 -103 -87 -165.5t-218 -62.5q-128 0 -217 39l6 176q71 -43 178 -43q54 0 83.5 22.5t29.5 63.5q0 35 -31 57.5t-88 22.5q-19 0 -47 -4v156l41 -2 q49 0 75.5 20t26.5 56q0 69 -94 69q-87 0 -162 -43z" glyph-name="uni00B3" horiz-adv-x="753" unicode="³"/><glyph d="M45 803l64 176h340q-7 -119 -7 -207v-287q0 -131 49 -195.5t132 -64.5q59 0 107 39.5t63 100.5v397q0 141 -5 217h310q-6 -59 -6 -215v-551q0 -120 16 -213h-258l-31 141q-83 -155 -227 -155q-62 0 -102 26.5t-72 81.5q18 -93 18 -192v-226q0 -106 6 -198h-305 q6 80 6 203v1122h-98z" glyph-name="uni00B5" horiz-adv-x="1257" unicode="µ"/><glyph d="M88 911q0 139 70 246t187.5 163t260.5 56h627v-1569h-172v1414h-170v-1061q0 -226 6 -355h-305q6 91 6 281v365q-240 5 -375 126t-135 334z" glyph-name="paragraph" horiz-adv-x="1374" unicode="¶"/><glyph d="M109 526q0 81 59 140t139 59q82 0 140.5 -58t58.5 -141q0 -80 -59.5 -138t-141.5 -58q-80 0 -138 57.5t-58 138.5z" glyph-name="periodcentered" horiz-adv-x="612" unicode="·"/><glyph d="M494 1024q0 -113 2 -150h-222q0 17 1 75t1 89v406l-176 -70l-26 160q119 44 319 137h103q0 -7 -1 -62.5t-1 -97.5v-487z" glyph-name="uni00B9" horiz-adv-x="663" unicode="¹"/><glyph d="M356 584q133 0 222.5 -88t89.5 -215t-89 -215.5t-223 -88.5q-132 0 -221.5 88.5t-89.5 215.5t89 215t222 88zM289 217q26 -32 63 -36t66 22q30 26 30.5 66.5t-26.5 72.5q-26 33 -63 37t-66 -23q-30 -24 -30.5 -68.5t26.5 -70.5z" glyph-name="ordmasculine" horiz-adv-x="856" unicode="º"/><glyph d="M109 961l563 -439v-45l-561 -440v272l243 191l-245 186v275zM737 961l563 -439v-45l-561 -440v272l244 191l-246 186v275z" glyph-name="guillemotright" horiz-adv-x="1388" unicode="»"/><glyph d="M494 729q0 -112 2 -149h-222q0 17 1 74.5t1 88.5v406l-176 -70l-26 160q119 44 319 137h103q0 -7 -1 -62t-1 -97v-488zM1440 1370l-989 -1370h-236l987 1370h238zM1270 0q2 25 2 84v84h-373v104l457 516h135v-477q86 0 123 2v-145h-123v-78q0 -49 2 -90h-223zM1272 313 l2 240l-205 -240h203z" glyph-name="onequarter" horiz-adv-x="1693" unicode="¼"/><glyph d="M494 729q0 -112 2 -149h-222q0 17 1 74.5t1 88.5v406l-176 -70l-26 160q119 44 319 137h103q0 -7 -1 -62t-1 -97v-488zM1464 1370l-989 -1370h-235l987 1370h237zM1167 0v125q143 120 205 203q86 99 86 166q0 51 -31.5 81.5t-83.5 30.5q-84 0 -155 -47l-6 195 q41 19 101 32t114 13q137 0 214 -71.5t77 -195.5q0 -99 -109 -221q-17 -20 -39.5 -42.5t-49 -47.5t-38.5 -37h133q49 0 131 4v-188h-549z" glyph-name="onehalf" horiz-adv-x="1822" unicode="½"/><glyph d="M133 1163l-6 185q84 34 197 34q134 0 211 -53.5t77 -150.5q0 -66 -41 -115.5t-116 -71.5q73 -13 127.5 -64.5t54.5 -125.5q0 -103 -87 -165.5t-218 -62.5q-128 0 -217 39l6 176q71 -43 178 -43q54 0 83.5 22.5t29.5 63.5q0 35 -31 57.5t-88 22.5q-19 0 -47 -4v156l41 -2 q49 0 75.5 20t26.5 56q0 69 -94 69q-87 0 -162 -43zM1495 1370l-989 -1370h-236l987 1370h238zM1309 0v88v80h-371v104l457 516h133v-477q86 0 123 2v-145q-16 1 -33.5 1t-44 -0.5t-45.5 -0.5v-78q0 -49 2 -90h-221zM1309 313l2 240l-205 -240h203z" glyph-name="threequarters" horiz-adv-x="1730" unicode="¾"/><glyph d="M750 817q0 -81 -59.5 -140t-139.5 -59q-82 0 -140.5 58t-58.5 141q0 80 59.5 138.5t141.5 58.5q80 0 138.5 -58t58.5 -139zM698 518q0 -70 -28 -131.5t-101 -153.5q-118 -146 -118 -229q0 -70 43.5 -108.5t130.5 -38.5q61 0 124 26t101 64v-254q-56 -41 -137.5 -67.5 t-161.5 -26.5q-188 0 -300 100t-112 244q0 87 41.5 165.5t120.5 167.5q63 74 87 123t28 119h282z" glyph-name="questiondown" horiz-adv-x="931" unicode="¿"/><glyph d="M373 1817h297l219 -332h-268zM20 0q20 36 36.5 68t35 70.5t30.5 64.5t37 81.5t40 88.5l463 1024h92l485 -1045q106 -222 180 -352h-354l-111 272h-520l-110 -272h-304zM524 498h338l-172 422z" glyph-name="Agrave" horiz-adv-x="1439" unicode="À"/><glyph d="M1040 1817l-247 -332h-269l219 332h297zM20 0q20 36 36.5 68t35 70.5t30.5 64.5t37 81.5t40 88.5l463 1024h92l485 -1045q106 -222 180 -352h-354l-111 272h-520l-110 -272h-304zM524 498h338l-172 422z" glyph-name="Aacute" horiz-adv-x="1439" unicode="Á"/><glyph d="M375 1466l291 340h77l287 -340h-223l-102 140l-99 -140h-231zM20 0q20 36 36.5 68t35 70.5t30.5 64.5t37 81.5t40 88.5l463 1024h92l485 -1045q106 -222 180 -352h-354l-111 272h-520l-110 -272h-304zM524 498h338l-172 422z" glyph-name="Acircumflex" horiz-adv-x="1439" unicode="Â"/><glyph d="M358 1493q3 102 65 180t161 78q48 0 94.5 -21.5t83 -43t59.5 -21.5q59 0 62 74h172q-2 -48 -15.5 -93.5t-39 -83t-66.5 -60.5t-92 -23q-52 0 -100 21.5t-83 43t-55 21.5q-58 0 -61 -72h-185zM20 0q20 36 36.5 68t35 70.5t30.5 64.5t37 81.5t40 88.5l463 1024h92 l485 -1045q106 -222 180 -352h-354l-111 272h-520l-110 -272h-304zM524 498h338l-172 422z" glyph-name="Atilde" horiz-adv-x="1439" unicode="Ã"/><glyph d="M328 1649q0 67 47 114t114 47q68 0 116 -47t48 -114q0 -69 -48 -116.5t-116 -47.5t-114.5 47.5t-46.5 116.5zM766 1649q0 67 47 114t115 47t116 -47t48 -114q0 -69 -48 -116.5t-116 -47.5t-115 47.5t-47 116.5zM20 0q20 36 36.5 68t35 70.5t30.5 64.5t37 81.5t40 88.5 l463 1024h92l485 -1045q106 -222 180 -352h-354l-111 272h-520l-110 -272h-304zM524 498h338l-172 422z" glyph-name="Adieresis" horiz-adv-x="1439" unicode="Ä"/><glyph d="M487 1645q0 86 63.5 143t156.5 57q94 0 157.5 -57.5t63.5 -142.5q0 -84 -63.5 -142.5t-157.5 -58.5q-92 0 -156 58t-64 143zM633 1642q0 -31 21 -54t53 -23q34 0 54.5 21.5t20.5 55.5q0 33 -21 54.5t-54 21.5q-31 0 -52.5 -21.5t-21.5 -54.5zM20 0q20 36 36.5 68t35 70.5 t30.5 64.5t37 81.5t40 88.5l463 1024h92l485 -1045q106 -222 180 -352h-354l-111 272h-520l-110 -272h-304zM524 498h338l-172 422z" glyph-name="Aring" horiz-adv-x="1439" unicode="Å"/><glyph d="M20 0q89 154 205 385l488 991h497q207 0 326 6l-6 -264q-68 6 -320 6h-174l58 -305h192q219 0 301 6v-260q-80 4 -295 4h-149l55 -315h180q221 0 299 6v-266q-102 6 -227 6h-457l-51 274h-483l-129 -274h-310zM555 500h342l-100 544z" glyph-name="AE" horiz-adv-x="1787" unicode="Æ"/><glyph d="M1174 23q-143 -46 -345 -46l-28 -57q172 -35 172 -201q0 -99 -69.5 -158t-198.5 -59q-87 0 -158 27l4 141q68 -22 117 -22q51 0 79.5 18.5t28.5 50.5q0 36 -34 54t-87 18q-42 0 -69 -8l102 207q-263 41 -427.5 234t-164.5 464q0 203 96.5 367.5t262.5 256t368 91.5 q173 0 338 -51v-312q-55 43 -139 69t-174 26q-189 0 -314.5 -129.5t-125.5 -315.5q0 -125 58.5 -227t159 -159.5t222.5 -57.5q170 0 326 80v-301z" glyph-name="Ccedilla" horiz-adv-x="1298" unicode="Ç"/><glyph d="M184 1817h297l219 -332h-268zM166 0q6 231 6 350v676q0 264 -6 350h487q213 0 330 6l-47 -264q-72 6 -330 6h-125v-290h127q232 0 316 4v-260q-84 6 -316 6h-127v-330h174q236 0 316 4v-262q-80 4 -314 4h-491z" glyph-name="Egrave" horiz-adv-x="1101" unicode="È"/><glyph d="M852 1817l-248 -332h-268l219 332h297zM166 0q6 231 6 350v676q0 264 -6 350h487q213 0 330 6l-47 -264q-72 6 -330 6h-125v-290h127q232 0 316 4v-260q-84 6 -316 6h-127v-330h174q236 0 316 4v-262q-80 4 -314 4h-491z" glyph-name="Eacute" horiz-adv-x="1101" unicode="É"/><glyph d="M186 1466l291 340h78l287 -340h-224l-102 140l-98 -140h-232zM166 0q6 231 6 350v676q0 264 -6 350h487q213 0 330 6l-47 -264q-72 6 -330 6h-125v-290h127q232 0 316 4v-260q-84 6 -316 6h-127v-330h174q236 0 316 4v-262q-80 4 -314 4h-491z" glyph-name="Ecircumflex" horiz-adv-x="1101" unicode="Ê"/><glyph d="M139 1649q0 67 47 114t115 47t116 -47t48 -114q0 -69 -48 -116.5t-116 -47.5t-115 47.5t-47 116.5zM578 1649q0 67 47 114t114 47q68 0 116 -47t48 -114q0 -69 -48 -116.5t-116 -47.5t-114.5 47.5t-46.5 116.5zM166 0q6 231 6 350v676q0 264 -6 350h487q213 0 330 6 l-47 -264q-72 6 -330 6h-125v-290h127q232 0 316 4v-260q-84 6 -316 6h-127v-330h174q236 0 316 4v-262q-80 4 -314 4h-491z" glyph-name="Edieresis" horiz-adv-x="1101" unicode="Ë"/><glyph d="M-8 1817h297l219 -332h-268zM166 0q6 86 6 375v612q0 301 -6 389h321q-6 -72 -6 -389v-612q0 -287 6 -375h-321z" glyph-name="Igrave" horiz-adv-x="653" unicode="Ì"/><glyph d="M659 1817l-247 -332h-269l219 332h297zM166 0q6 86 6 375v612q0 301 -6 389h321q-6 -72 -6 -389v-612q0 -287 6 -375h-321z" glyph-name="Iacute" horiz-adv-x="653" unicode="Í"/><glyph d="M-6 1466l291 340h77l287 -340h-223l-102 140l-99 -140h-231zM166 0q6 86 6 375v612q0 301 -6 389h321q-6 -72 -6 -389v-612q0 -287 6 -375h-321z" glyph-name="Icircumflex" horiz-adv-x="653" unicode="Î"/><glyph d="M-53 1649q0 67 47 114t115 47t115.5 -47t47.5 -114q0 -69 -47.5 -116.5t-115.5 -47.5t-115 47.5t-47 116.5zM385 1649q0 67 47 114t115 47t116 -47t48 -114q0 -69 -48 -116.5t-116 -47.5t-115 47.5t-47 116.5zM166 0q6 86 6 375v612q0 301 -6 389h321q-6 -72 -6 -389 v-612q0 -287 6 -375h-321z" glyph-name="Idieresis" horiz-adv-x="653" unicode="Ï"/><glyph d="M670 1376q191 0 347.5 -86.5t247.5 -243t91 -352.5q0 -152 -57 -283.5t-152 -220.5t-219.5 -139.5t-259.5 -50.5h-502q8 109 8 367v213h-147v227h147v225q0 248 -8 344h504zM631 254q185 0 299 122t114 312q0 191 -117 312.5t-298 121.5h-146v-315h248v-227h-248v-326 h148z" glyph-name="Eth" horiz-adv-x="1452" unicode="Ð"/><glyph d="M432 1493q3 102 64.5 180t160.5 78q48 0 94.5 -21.5t83.5 -43t60 -21.5q58 0 61 74h172q-2 -48 -15.5 -93.5t-39 -83t-66.5 -60.5t-92 -23q-52 0 -100 21.5t-82.5 43t-54.5 21.5q-59 0 -62 -72h-184zM166 0q6 80 6 291v727q0 244 -6 381h96l782 -809v432q0 233 -6 354 h308q-9 -196 -9 -350v-733q0 -171 6 -309h-94l-782 817v-516q0 -168 6 -285h-307z" glyph-name="Ntilde" horiz-adv-x="1513" unicode="Ñ"/><glyph d="M492 1817h296l220 -332h-269zM96 692q0 200 95.5 362.5t262.5 254.5t371 92q155 0 292 -55.5t234 -150.5t153.5 -228t56.5 -283q0 -201 -96 -363.5t-263 -254t-371 -91.5q-155 0 -291.5 55t-234 149.5t-153.5 228t-56 284.5zM412 688q0 -199 117.5 -329t301.5 -130 q181 0 297.5 130t116.5 327t-118.5 329t-299.5 132t-298 -130t-117 -329z" glyph-name="Ograve" horiz-adv-x="1656" unicode="Ò"/><glyph d="M1159 1817l-248 -332h-268l219 332h297zM96 692q0 200 95.5 362.5t262.5 254.5t371 92q155 0 292 -55.5t234 -150.5t153.5 -228t56.5 -283q0 -201 -96 -363.5t-263 -254t-371 -91.5q-155 0 -291.5 55t-234 149.5t-153.5 228t-56 284.5zM412 688q0 -199 117.5 -329 t301.5 -130q181 0 297.5 130t116.5 327t-118.5 329t-299.5 132t-298 -130t-117 -329z" glyph-name="Oacute" horiz-adv-x="1656" unicode="Ó"/><glyph d="M494 1466l290 340h78l287 -340h-223l-103 140l-98 -140h-231zM96 692q0 200 95.5 362.5t262.5 254.5t371 92q155 0 292 -55.5t234 -150.5t153.5 -228t56.5 -283q0 -201 -96 -363.5t-263 -254t-371 -91.5q-155 0 -291.5 55t-234 149.5t-153.5 228t-56 284.5zM412 688 q0 -199 117.5 -329t301.5 -130q181 0 297.5 130t116.5 327t-118.5 329t-299.5 132t-298 -130t-117 -329z" glyph-name="Ocircumflex" horiz-adv-x="1656" unicode="Ô"/><glyph d="M477 1493q3 102 64.5 180t160.5 78q48 0 94.5 -21.5t83.5 -43t60 -21.5q58 0 61 74h173q-2 -48 -15.5 -93.5t-39 -83t-66.5 -60.5t-92 -23q-52 0 -100 21.5t-83 43t-55 21.5q-58 0 -61 -72h-185zM96 692q0 200 95.5 362.5t262.5 254.5t371 92q155 0 292 -55.5t234 -150.5 t153.5 -228t56.5 -283q0 -201 -96 -363.5t-263 -254t-371 -91.5q-155 0 -291.5 55t-234 149.5t-153.5 228t-56 284.5zM412 688q0 -199 117.5 -329t301.5 -130q181 0 297.5 130t116.5 327t-118.5 329t-299.5 132t-298 -130t-117 -329z" glyph-name="Otilde" horiz-adv-x="1656" unicode="Õ"/><glyph d="M446 1649q0 67 47 114t115 47t116 -47t48 -114q0 -69 -48 -116.5t-116 -47.5t-115 47.5t-47 116.5zM885 1649q0 67 47 114t115 47t115.5 -47t47.5 -114q0 -69 -47.5 -116.5t-115.5 -47.5t-115 47.5t-47 116.5zM96 692q0 200 95.5 362.5t262.5 254.5t371 92 q155 0 292 -55.5t234 -150.5t153.5 -228t56.5 -283q0 -201 -96 -363.5t-263 -254t-371 -91.5q-155 0 -291.5 55t-234 149.5t-153.5 228t-56 284.5zM412 688q0 -199 117.5 -329t301.5 -130q181 0 297.5 130t116.5 327t-118.5 329t-299.5 132t-298 -130t-117 -329z" glyph-name="Odieresis" horiz-adv-x="1656" unicode="Ö"/><glyph d="M428 547l-299 295l156 155l295 -295l290 287l158 -153l-291 -291l299 -297l-157 -154l-295 295l-289 -287l-156 156z" glyph-name="multiply" horiz-adv-x="1167" unicode="×"/><glyph d="M1378 1176q91 -97 141 -223.5t50 -268.5q0 -201 -96 -363.5t-262.5 -254t-370.5 -91.5q-231 0 -410 115l-86 -98h-248l191 217q-183 202 -183 483q0 200 95.5 362.5t263 254.5t371.5 92q220 0 399 -109l80 92h248zM420 688q0 -143 63 -254l568 651q-97 62 -215 62 q-181 0 -298.5 -130t-117.5 -329zM840 229q181 0 297 129.5t116 327.5q0 146 -71 266l-572 -655q104 -68 230 -68z" glyph-name="Oslash" horiz-adv-x="1665" unicode="Ø"/><glyph d="M393 1817h297l219 -332h-268zM475 1376q-6 -92 -6 -379v-462q0 -142 67.5 -216.5t188.5 -74.5q122 0 190 76t68 217v460q0 277 -6 379h319q-4 -92 -4 -381v-454q0 -265 -152.5 -414.5t-412.5 -149.5q-265 0 -417 153.5t-152 410.5v454q0 301 -4 381h321z" glyph-name="Ugrave" horiz-adv-x="1447" unicode="Ù"/><glyph d="M1061 1817l-248 -332h-268l219 332h297zM475 1376q-6 -92 -6 -379v-462q0 -142 67.5 -216.5t188.5 -74.5q122 0 190 76t68 217v460q0 277 -6 379h319q-4 -92 -4 -381v-454q0 -265 -152.5 -414.5t-412.5 -149.5q-265 0 -417 153.5t-152 410.5v454q0 301 -4 381h321z" glyph-name="Uacute" horiz-adv-x="1447" unicode="Ú"/><glyph d="M395 1466l291 340h78l287 -340h-224l-102 140l-98 -140h-232zM475 1376q-6 -92 -6 -379v-462q0 -142 67.5 -216.5t188.5 -74.5q122 0 190 76t68 217v460q0 277 -6 379h319q-4 -92 -4 -381v-454q0 -265 -152.5 -414.5t-412.5 -149.5q-265 0 -417 153.5t-152 410.5v454 q0 301 -4 381h321z" glyph-name="Ucircumflex" horiz-adv-x="1447" unicode="Û"/><glyph d="M348 1649q0 67 47 114t115 47t116 -47t48 -114q0 -69 -48 -116.5t-116 -47.5t-115 47.5t-47 116.5zM786 1649q0 67 47 114t115 47t116 -47t48 -114q0 -69 -48 -116.5t-116 -47.5t-115 47.5t-47 116.5zM475 1376q-6 -92 -6 -379v-462q0 -142 67.5 -216.5t188.5 -74.5 q122 0 190 76t68 217v460q0 277 -6 379h319q-4 -92 -4 -381v-454q0 -265 -152.5 -414.5t-412.5 -149.5q-265 0 -417 153.5t-152 410.5v454q0 301 -4 381h321z" glyph-name="Udieresis" horiz-adv-x="1447" unicode="Ü"/><glyph d="M1010 1817l-248 -332h-268l219 332h297zM512 0q4 226 4 309v287l-330 526q-130 203 -170 254h369q19 -46 86 -164l211 -352l207 346q30 49 94 170h342q-52 -71 -184 -278l-316 -500v-291q0 -221 6 -307h-319z" glyph-name="Yacute" horiz-adv-x="1341" unicode="Ý"/><glyph d="M1087 694q0 -207 -139 -322.5t-379 -115.5h-88v-45q0 -112 6 -211h-321q8 101 8 344v676q0 260 -8 356h321l-6 -182v-47h90q148 0 263.5 -51.5t184 -155t68.5 -246.5zM791 698q0 92 -64.5 153.5t-165.5 61.5h-80v-430h78q101 0 166.5 61t65.5 154z" glyph-name="Thorn" horiz-adv-x="1169" unicode="Þ"/><glyph d="M582 860q28 -4 61 -4q91 0 147 58.5t56 148.5q0 85 -51.5 133.5t-130.5 48.5q-100 0 -155 -62.5t-54 -185.5l6 -770q0 -172 4 -229h-313q4 63 4 229v768q0 149 67 264.5t180 176.5t250 61q206 0 338.5 -108.5t132.5 -294.5q0 -114 -54 -200.5t-138 -119.5 q135 -29 221 -129t86 -256q0 -125 -65.5 -221.5t-170.5 -145.5t-229 -49q-108 0 -205 33v270q82 -45 183 -45q78 0 133 53t55 132q0 94 -74 162.5t-174 68.5q-77 0 -110 -10v223z" glyph-name="germandbls" horiz-adv-x="1316" unicode="ß"/><glyph d="M166 1427h297l219 -331h-268zM80 279q0 140 96 222t246 95q105 12 219 12v29q0 66 -52.5 103.5t-139.5 37.5q-125 0 -236 -57l-88 192q63 41 159 64.5t203 23.5q221 0 333 -108.5t112 -312.5v-252q0 -203 41 -328h-291l-14 104q-100 -127 -273 -127q-135 0 -225 84.5 t-90 217.5zM373 285q0 -49 30 -78t80 -29q46 0 89 22t73 58v158l-125 -6q-68 -2 -107.5 -34t-39.5 -91z" glyph-name="agrave" unicode="à"/><glyph d="M834 1427l-248 -331h-269l220 331h297zM80 279q0 140 96 222t246 95q105 12 219 12v29q0 66 -52.5 103.5t-139.5 37.5q-125 0 -236 -57l-88 192q63 41 159 64.5t203 23.5q221 0 333 -108.5t112 -312.5v-252q0 -203 41 -328h-291l-14 104q-100 -127 -273 -127 q-135 0 -225 84.5t-90 217.5zM373 285q0 -49 30 -78t80 -29q46 0 89 22t73 58v158l-125 -6q-68 -2 -107.5 -34t-39.5 -91z" glyph-name="aacute" unicode="á"/><glyph d="M168 1077l291 340h78l286 -340h-223l-102 140l-99 -140h-231zM80 279q0 140 96 222t246 95q105 12 219 12v29q0 66 -52.5 103.5t-139.5 37.5q-125 0 -236 -57l-88 192q63 41 159 64.5t203 23.5q221 0 333 -108.5t112 -312.5v-252q0 -203 41 -328h-291l-14 104 q-100 -127 -273 -127q-135 0 -225 84.5t-90 217.5zM373 285q0 -49 30 -78t80 -29q46 0 89 22t73 58v158l-125 -6q-68 -2 -107.5 -34t-39.5 -91z" glyph-name="acircumflex" unicode="â"/><glyph d="M152 1104q3 102 64.5 180t160.5 78q48 0 94.5 -21.5t83 -43t59.5 -21.5q59 0 62 74h172q-2 -48 -15.5 -93.5t-39 -83t-66.5 -60.5t-92 -23q-52 0 -100 21.5t-83 43t-55 21.5q-58 0 -61 -72h-184zM80 279q0 140 96 222t246 95q105 12 219 12v29q0 66 -52.5 103.5 t-139.5 37.5q-125 0 -236 -57l-88 192q63 41 159 64.5t203 23.5q221 0 333 -108.5t112 -312.5v-252q0 -203 41 -328h-291l-14 104q-100 -127 -273 -127q-135 0 -225 84.5t-90 217.5zM373 285q0 -49 30 -78t80 -29q46 0 89 22t73 58v158l-125 -6q-68 -2 -107.5 -34t-39.5 -91 z" glyph-name="atilde" unicode="ã"/><glyph d="M121 1260q0 67 47 114t115 47t115.5 -47t47.5 -114q0 -69 -47.5 -116.5t-115.5 -47.5t-115 47.5t-47 116.5zM559 1260q0 67 47 114t115 47t116 -47t48 -114q0 -69 -48 -116.5t-116 -47.5t-115 47.5t-47 116.5zM80 279q0 140 96 222t246 95q105 12 219 12v29 q0 66 -52.5 103.5t-139.5 37.5q-125 0 -236 -57l-88 192q63 41 159 64.5t203 23.5q221 0 333 -108.5t112 -312.5v-252q0 -203 41 -328h-291l-14 104q-100 -127 -273 -127q-135 0 -225 84.5t-90 217.5zM373 285q0 -49 30 -78t80 -29q46 0 89 22t73 58v158l-125 -6 q-68 -2 -107.5 -34t-39.5 -91z" glyph-name="adieresis" unicode="ä"/><glyph d="M281 1255q0 86 63 143.5t156 57.5q94 0 157.5 -58t63.5 -143q0 -84 -63.5 -142t-157.5 -58q-92 0 -155.5 57.5t-63.5 142.5zM426 1253q0 -31 21 -54t53 -23q34 0 54.5 21.5t20.5 55.5q0 33 -21 54.5t-54 21.5q-31 0 -52.5 -21.5t-21.5 -54.5zM80 279q0 140 96 222t246 95 q105 12 219 12v29q0 66 -52.5 103.5t-139.5 37.5q-125 0 -236 -57l-88 192q63 41 159 64.5t203 23.5q221 0 333 -108.5t112 -312.5v-252q0 -203 41 -328h-291l-14 104q-100 -127 -273 -127q-135 0 -225 84.5t-90 217.5zM373 285q0 -49 30 -78t80 -29q46 0 89 22t73 58v158 l-125 -6q-68 -2 -107.5 -34t-39.5 -91z" glyph-name="aring" unicode="å"/><glyph d="M80 279q0 143 94.5 223.5t247.5 93.5q105 12 219 12v29q0 66 -52.5 103.5t-139.5 37.5q-125 0 -236 -57l-88 190q139 90 346 90q200 0 291 -116q117 114 309 114q93 0 170.5 -27t129 -71.5t87.5 -104t52 -123.5t16 -130q0 -59 -13 -113h-626q17 -211 258 -211 q151 0 321 76v-223q-154 -88 -340 -88q-134 0 -238 41.5t-161 113.5q-130 -162 -326 -162q-142 0 -231.5 84t-89.5 218zM881 590h358q-2 82 -43.5 135t-128.5 53q-86 0 -134.5 -56t-51.5 -132zM373 285q0 -49 30 -78t80 -29q105 0 181 94q-29 71 -29 144l-115 -6 q-68 -2 -107.5 -34t-39.5 -91z" glyph-name="ae" horiz-adv-x="1601" unicode="æ"/><glyph d="M866 25q-88 -36 -209 -39l-32 -66q172 -35 172 -201q0 -99 -70 -158t-199 -59q-86 0 -157 27l4 141q68 -22 117 -22q51 0 79.5 18.5t28.5 50.5q0 36 -34 54t-87 18q-42 0 -69 -8l106 215q-195 36 -314.5 170t-119.5 323q0 148 75 266t200 182t274 64q100 0 229 -38v-279 q-90 57 -198 57q-136 0 -211.5 -74t-75.5 -182q0 -107 75.5 -175t211.5 -68q100 0 204 53v-270z" glyph-name="ccedilla" horiz-adv-x="991" unicode="ç"/><glyph d="M221 1427h297l219 -331h-268zM82 494q0 138 54.5 251.5t163.5 183.5t255 70q94 0 172 -27t130 -72t87.5 -104.5t51.5 -123t16 -129.5q0 -59 -13 -113h-626q17 -211 258 -211q155 0 321 76v-223q-151 -88 -340 -88q-248 0 -389 138.5t-141 371.5zM553 778 q-87 0 -135 -55.5t-53 -132.5h360q0 82 -42.5 135t-129.5 53z" glyph-name="egrave" unicode="è"/><glyph d="M889 1427l-248 -331h-268l219 331h297zM82 494q0 138 54.5 251.5t163.5 183.5t255 70q94 0 172 -27t130 -72t87.5 -104.5t51.5 -123t16 -129.5q0 -59 -13 -113h-626q17 -211 258 -211q155 0 321 76v-223q-151 -88 -340 -88q-248 0 -389 138.5t-141 371.5zM553 778 q-87 0 -135 -55.5t-53 -132.5h360q0 82 -42.5 135t-129.5 53z" glyph-name="eacute" unicode="é"/><glyph d="M223 1077l291 340h78l287 -340h-224l-102 140l-98 -140h-232zM82 494q0 138 54.5 251.5t163.5 183.5t255 70q94 0 172 -27t130 -72t87.5 -104.5t51.5 -123t16 -129.5q0 -59 -13 -113h-626q17 -211 258 -211q155 0 321 76v-223q-151 -88 -340 -88q-248 0 -389 138.5 t-141 371.5zM553 778q-87 0 -135 -55.5t-53 -132.5h360q0 82 -42.5 135t-129.5 53z" glyph-name="ecircumflex" unicode="ê"/><glyph d="M176 1260q0 67 47 114t115 47t116 -47t48 -114q0 -69 -48 -116.5t-116 -47.5t-115 47.5t-47 116.5zM614 1260q0 67 47 114t115 47t116 -47t48 -114q0 -69 -48 -116.5t-116 -47.5t-115 47.5t-47 116.5zM82 494q0 138 54.5 251.5t163.5 183.5t255 70q94 0 172 -27t130 -72 t87.5 -104.5t51.5 -123t16 -129.5q0 -59 -13 -113h-626q17 -211 258 -211q155 0 321 76v-223q-151 -88 -340 -88q-248 0 -389 138.5t-141 371.5zM553 778q-87 0 -135 -55.5t-53 -132.5h360q0 82 -42.5 135t-129.5 53z" glyph-name="edieresis" unicode="ë"/><glyph d="M-12 1427h297l219 -331h-268zM154 0q8 71 8 203v567q0 143 -10 211h317q-8 -73 -8 -205v-573q0 -140 8 -203h-315z" glyph-name="igrave" horiz-adv-x="618" unicode="ì"/><glyph d="M655 1427l-247 -331h-269l219 331h297zM154 0q8 71 8 203v567q0 143 -10 211h317q-8 -73 -8 -205v-573q0 -140 8 -203h-315z" glyph-name="iacute" horiz-adv-x="618" unicode="í"/><glyph d="M-10 1077l291 340h77l287 -340h-223l-103 140l-98 -140h-231zM154 0q8 71 8 203v567q0 143 -10 211h317q-8 -73 -8 -205v-573q0 -140 8 -203h-315z" glyph-name="icircumflex" horiz-adv-x="618" unicode="î"/><glyph d="M-57 1260q0 68 46.5 114.5t114.5 46.5t116 -47t48 -114q0 -69 -48 -116.5t-116 -47.5t-114.5 47.5t-46.5 116.5zM381 1260q0 67 47 114t115 47t116 -47t48 -114q0 -69 -48 -116.5t-116 -47.5t-115 47.5t-47 116.5zM154 0q8 71 8 203v567q0 143 -10 211h317 q-8 -73 -8 -205v-573q0 -140 8 -203h-315z" glyph-name="idieresis" horiz-adv-x="618" unicode="ï"/><glyph d="M836 1257q127 -122 194.5 -295t67.5 -382q0 -141 -40.5 -255t-110 -187t-162 -112.5t-197.5 -39.5q-214 0 -360 145.5t-146 357.5q0 196 123.5 323.5t308.5 127.5q151 0 250 -88q-29 164 -172 281l-238 -125l-63 114l174 90q-120 55 -248 64l31 227q273 -21 475 -155 l213 110l65 -112zM588 238q95 0 158 76t63 182q0 102 -62.5 172.5t-158.5 70.5q-93 0 -156 -72.5t-63 -177.5q0 -104 62.5 -177.5t156.5 -73.5z" glyph-name="eth" horiz-adv-x="1179" unicode="ð"/><glyph d="M242 1104q3 102 64.5 180t160.5 78q48 0 94.5 -21.5t83.5 -43t60 -21.5q58 0 61 74h172q-2 -48 -15.5 -93.5t-39 -83t-66.5 -60.5t-92 -23q-52 0 -100 21.5t-83 43t-55 21.5q-58 0 -61 -72h-184zM45 803l64 178h323l4 -119q98 135 295 135q344 0 344 -446v-311 q0 -183 4 -240h-301q4 66 4 242v344q0 79 -45 123.5t-116 44.5q-112 0 -185 -129v-383q0 -183 4 -242h-301q6 99 6 242v561h-100z" glyph-name="ntilde" horiz-adv-x="1202" unicode="ñ"/><glyph d="M248 1425h297l219 -331h-268zM82 489q0 142 69.5 260t185.5 184t251 66q140 0 257 -68.5t184 -185.5t67 -256q0 -107 -41 -201t-110 -160t-162 -104t-195 -38q-140 0 -256.5 67t-183 182.5t-66.5 253.5zM369 489q0 -103 62.5 -177t156.5 -74q95 0 158 74t63 177 q0 106 -63.5 179t-157.5 73q-95 0 -157 -77t-62 -175z" glyph-name="ograve" horiz-adv-x="1177" unicode="ò"/><glyph d="M915 1425l-247 -331h-269l219 331h297zM82 489q0 142 69.5 260t185.5 184t251 66q140 0 257 -68.5t184 -185.5t67 -256q0 -107 -41 -201t-110 -160t-162 -104t-195 -38q-140 0 -256.5 67t-183 182.5t-66.5 253.5zM369 489q0 -103 62.5 -177t156.5 -74q95 0 158 74t63 177 q0 106 -63.5 179t-157.5 73q-95 0 -157 -77t-62 -175z" glyph-name="oacute" horiz-adv-x="1177" unicode="ó"/><glyph d="M250 1075l291 340h77l287 -340h-223l-102 139l-99 -139h-231zM82 489q0 142 69.5 260t185.5 184t251 66q140 0 257 -68.5t184 -185.5t67 -256q0 -107 -41 -201t-110 -160t-162 -104t-195 -38q-140 0 -256.5 67t-183 182.5t-66.5 253.5zM369 489q0 -103 62.5 -177 t156.5 -74q95 0 158 74t63 177q0 106 -63.5 179t-157.5 73q-95 0 -157 -77t-62 -175z" glyph-name="ocircumflex" horiz-adv-x="1177" unicode="ô"/><glyph d="M233 1102q3 102 65 180t161 78q48 0 94.5 -21.5t83 -43t59.5 -21.5q59 0 62 74h172q-2 -66 -25 -123.5t-72 -97.5t-116 -40q-41 0 -80.5 13.5t-64 30t-50.5 30t-43 13.5q-58 0 -61 -72h-185zM82 489q0 142 69.5 260t185.5 184t251 66q140 0 257 -68.5t184 -185.5t67 -256 q0 -107 -41 -201t-110 -160t-162 -104t-195 -38q-140 0 -256.5 67t-183 182.5t-66.5 253.5zM369 489q0 -103 62.5 -177t156.5 -74q95 0 158 74t63 177q0 106 -63.5 179t-157.5 73q-95 0 -157 -77t-62 -175z" glyph-name="otilde" horiz-adv-x="1177" unicode="õ"/><glyph d="M203 1257q0 67 47.5 114.5t114.5 47.5q68 0 115.5 -47.5t47.5 -114.5q0 -69 -47.5 -116t-115.5 -47t-115 47t-47 116zM641 1257q0 67 47.5 114.5t114.5 47.5q68 0 116 -47.5t48 -114.5q0 -69 -48 -116t-116 -47t-115 47t-47 116zM82 489q0 142 69.5 260t185.5 184t251 66 q140 0 257 -68.5t184 -185.5t67 -256q0 -107 -41 -201t-110 -160t-162 -104t-195 -38q-140 0 -256.5 67t-183 182.5t-66.5 253.5zM369 489q0 -103 62.5 -177t156.5 -74q95 0 158 74t63 177q0 106 -63.5 179t-157.5 73q-95 0 -157 -77t-62 -175z" glyph-name="odieresis" horiz-adv-x="1177" unicode="ö"/><glyph d="M406 1034q0 72 50.5 122t121.5 50t122.5 -50.5t51.5 -121.5q0 -72 -51.5 -123t-122.5 -51t-121.5 51t-50.5 123zM1061 737v-229h-965v229h965zM406 221q0 72 50.5 123t121.5 51t122.5 -51t51.5 -123q0 -70 -51.5 -121t-122.5 -51q-70 0 -121 50.5t-51 121.5z" glyph-name="divide" horiz-adv-x="1159" unicode="÷"/><glyph d="M965 842q139 -149 139 -353q0 -107 -41 -201t-110 -160t-162 -104t-195 -38q-172 0 -305 100l-82 -94h-127l139 155q-131 144 -131 342q0 142 69.5 260t185.5 184t251 66q162 0 299 -96l74 82h123zM377 489q0 -67 33 -131l307 344q-55 39 -121 39q-95 0 -157 -77 t-62 -175zM596 238q95 0 158 74t63 177q0 80 -39 144l-309 -348q53 -47 127 -47z" glyph-name="oslash" horiz-adv-x="1185" unicode="ø"/><glyph d="M252 1427h297l219 -331h-268zM45 803l64 178h342q-9 -92 -9 -213v-332q0 -109 43.5 -160t116.5 -51q53 0 95.5 35.5t66.5 97.5v404q0 156 -4 219h309q-6 -61 -6 -217v-551q0 -128 18 -213h-260l-30 137q-92 -155 -283 -155q-168 0 -266.5 108t-98.5 311v402h-98z" glyph-name="ugrave" horiz-adv-x="1230" unicode="ù"/><glyph d="M920 1427l-248 -331h-269l220 331h297zM45 803l64 178h342q-9 -92 -9 -213v-332q0 -109 43.5 -160t116.5 -51q53 0 95.5 35.5t66.5 97.5v404q0 156 -4 219h309q-6 -61 -6 -217v-551q0 -128 18 -213h-260l-30 137q-92 -155 -283 -155q-168 0 -266.5 108t-98.5 311v402h-98 z" glyph-name="uacute" horiz-adv-x="1230" unicode="ú"/><glyph d="M254 1077l291 340h78l286 -340h-223l-102 140l-99 -140h-231zM45 803l64 178h342q-9 -92 -9 -213v-332q0 -109 43.5 -160t116.5 -51q53 0 95.5 35.5t66.5 97.5v404q0 156 -4 219h309q-6 -61 -6 -217v-551q0 -128 18 -213h-260l-30 137q-92 -155 -283 -155 q-168 0 -266.5 108t-98.5 311v402h-98z" glyph-name="ucircumflex" horiz-adv-x="1230" unicode="û"/><glyph d="M207 1260q0 67 47 114t115 47t115.5 -47t47.5 -114q0 -69 -47.5 -116.5t-115.5 -47.5t-115 47.5t-47 116.5zM645 1260q0 67 47 114t115 47t116 -47t48 -114q0 -69 -48 -116.5t-116 -47.5t-115 47.5t-47 116.5zM45 803l64 178h342q-9 -92 -9 -213v-332q0 -109 43.5 -160 t116.5 -51q53 0 95.5 35.5t66.5 97.5v404q0 156 -4 219h309q-6 -61 -6 -217v-551q0 -128 18 -213h-260l-30 137q-92 -155 -283 -155q-168 0 -266.5 108t-98.5 311v402h-98z" glyph-name="udieresis" horiz-adv-x="1230" unicode="ü"/><glyph d="M918 1427l-248 -331h-269l220 331h297zM14 981h355q23 -80 55 -154l178 -436l156 426q28 87 47 164h332q-34 -64 -97 -217l-352 -823q-81 -193 -172.5 -273t-216.5 -80h-184l6 242q133 0 181.5 19t88.5 94l55 116l-321 695q-41 93 -111 227z" glyph-name="yacute" horiz-adv-x="1150" unicode="ý"/><glyph d="M1190 504q0 -144 -58.5 -261.5t-166.5 -186t-246 -68.5q-148 0 -266 82v-316q0 -121 6 -203h-303q6 92 6 207v1524q0 135 -10 211h307q-6 -95 -6 -203v-403q100 114 280 114q202 0 329.5 -142t127.5 -355zM899 492q0 115 -64 188.5t-171 73.5q-63 0 -119.5 -27.5 t-91.5 -67.5v-327q81 -96 209 -96q112 0 174.5 72t62.5 184z" glyph-name="thorn" horiz-adv-x="1271" unicode="þ"/><glyph d="M205 1260q0 67 47 114t115 47t115.5 -47t47.5 -114q0 -69 -47.5 -116.5t-115.5 -47.5t-115 47.5t-47 116.5zM643 1260q0 67 47 114t115 47t116 -47t48 -114q0 -69 -48 -116.5t-116 -47.5t-115 47.5t-47 116.5zM14 981h355q23 -80 55 -154l178 -436l156 426q28 87 47 164 h332q-34 -64 -97 -217l-352 -823q-81 -193 -172.5 -273t-216.5 -80h-184l6 242q133 0 181.5 19t88.5 94l55 116l-321 695q-41 93 -111 227z" glyph-name="ydieresis" horiz-adv-x="1150" unicode="ÿ"/><glyph d="M401 1538v193h611v-193h-611zM20 0q20 36 36.5 68t35 70.5t30.5 64.5t37 81.5t40 88.5l463 1024h92l485 -1045q106 -222 180 -352h-354l-111 272h-520l-110 -272h-304zM524 498h338l-172 422z" glyph-name="Amacron" horiz-adv-x="1439" unicode="Ā"/><glyph d="M195 1149v192h610v-192h-610zM80 279q0 140 96 222t246 95q105 12 219 12v29q0 66 -52.5 103.5t-139.5 37.5q-125 0 -236 -57l-88 192q63 41 159 64.5t203 23.5q221 0 333 -108.5t112 -312.5v-252q0 -203 41 -328h-291l-14 104q-100 -127 -273 -127q-135 0 -225 84.5 t-90 217.5zM373 285q0 -49 30 -78t80 -29q46 0 89 22t73 58v158l-125 -6q-68 -2 -107.5 -34t-39.5 -91z" glyph-name="amacron" unicode="ā"/><glyph d="M596 1788q1 -50 32.5 -78.5t76.5 -28.5q44 0 76 28.5t36 78.5h199q-6 -128 -95 -213.5t-216 -85.5q-126 0 -215.5 88t-94.5 211h201zM20 0q20 36 36.5 68t35 70.5t30.5 64.5t37 81.5t40 88.5l463 1024h92l485 -1045q106 -222 180 -352h-354l-111 272h-520l-110 -272h-304 zM524 498h338l-172 422z" glyph-name="Abreve" horiz-adv-x="1439" unicode="Ă"/><glyph d="M389 1399q1 -50 32.5 -78.5t76.5 -28.5q44 0 76 28.5t36 78.5h199q-6 -128 -95 -213.5t-216 -85.5q-126 0 -215.5 88t-94.5 211h201zM80 279q0 140 96 222t246 95q105 12 219 12v29q0 66 -52.5 103.5t-139.5 37.5q-125 0 -236 -57l-88 192q63 41 159 64.5t203 23.5 q221 0 333 -108.5t112 -312.5v-252q0 -203 41 -328h-291l-14 104q-100 -127 -273 -127q-135 0 -225 84.5t-90 217.5zM373 285q0 -49 30 -78t80 -29q46 0 89 22t73 58v158l-125 -6q-68 -2 -107.5 -34t-39.5 -91z" glyph-name="abreve" unicode="ă"/><glyph d="M1417 0q-223 -102 -223 -233q0 -89 94 -89q52 0 107 25l22 -164q-86 -51 -223 -51q-113 0 -181.5 56.5t-68.5 152.5q0 174 186 303h-65l-111 272h-520l-110 -272h-304q20 36 36.5 68t35 70.5t30.5 64.5t37 81.5t40 88.5l463 1024h92l485 -1045q106 -222 180 -352h-2z M524 498h338l-172 422z" glyph-name="Aogonek" horiz-adv-x="1439" unicode="Ą"/><glyph d="M844 -322q51 0 106 25l23 -164q-86 -51 -223 -51q-113 0 -181.5 56.5t-68.5 152.5q0 174 186 303h-4l-14 104q-100 -127 -273 -127q-135 0 -225 84.5t-90 217.5q0 140 96 222t246 95q105 12 219 12v29q0 66 -52.5 103.5t-139.5 37.5q-125 0 -236 -57l-88 192 q63 41 159 64.5t203 23.5q221 0 333 -108.5t112 -312.5v-252q0 -203 41 -328q-223 -102 -223 -233q0 -89 94 -89zM645 258v158l-125 -6q-68 -2 -107.5 -34t-39.5 -91q0 -49 30 -78t80 -29q46 0 89 22t73 58z" glyph-name="aogonek" unicode="ą"/><glyph d="M1059 1817l-248 -332h-268l219 332h297zM96 686q0 203 96.5 367.5t262.5 256t368 91.5q173 0 338 -51v-312q-55 43 -139 69t-174 26q-189 0 -314.5 -129.5t-125.5 -315.5q0 -125 58.5 -227t159 -159.5t222.5 -57.5q170 0 326 80v-301q-146 -46 -355 -46q-155 0 -289.5 54 t-229.5 148t-149.5 225.5t-54.5 281.5z" glyph-name="Cacute" horiz-adv-x="1298" unicode="Ć"/><glyph d="M856 1427l-248 -331h-268l219 331h297zM82 489q0 148 75 266t200 182t274 64q100 0 229 -38v-279q-90 57 -198 57q-136 0 -211.5 -74t-75.5 -182q0 -107 75.5 -175t211.5 -68q100 0 204 53v-270q-95 -39 -225 -39q-243 0 -401 142t-158 361z" glyph-name="cacute" horiz-adv-x="991" unicode="ć"/><glyph d="M563 1655q0 67 47.5 114.5t114.5 47.5q68 0 116 -47.5t48 -114.5q0 -69 -48 -116.5t-116 -47.5t-115 47.5t-47 116.5zM96 686q0 203 96.5 367.5t262.5 256t368 91.5q173 0 338 -51v-312q-55 43 -139 69t-174 26q-189 0 -314.5 -129.5t-125.5 -315.5q0 -125 58.5 -227 t159 -159.5t222.5 -57.5q170 0 326 80v-301q-146 -46 -355 -46q-155 0 -289.5 54t-229.5 148t-149.5 225.5t-54.5 281.5z" glyph-name="Cdotaccent" horiz-adv-x="1298" unicode="Ċ"/><glyph d="M360 1266q0 67 47 114t115 47t116 -47t48 -114q0 -69 -48 -116.5t-116 -47.5t-115 47.5t-47 116.5zM82 489q0 148 75 266t200 182t274 64q100 0 229 -38v-279q-90 57 -198 57q-136 0 -211.5 -74t-75.5 -182q0 -107 75.5 -175t211.5 -68q100 0 204 53v-270 q-95 -39 -225 -39q-243 0 -401 142t-158 361z" glyph-name="cdotaccent" horiz-adv-x="991" unicode="ċ"/><glyph d="M1055 1808l-291 -340h-78l-287 340h224l102 -139l98 139h232zM96 686q0 203 96.5 367.5t262.5 256t368 91.5q173 0 338 -51v-312q-55 43 -139 69t-174 26q-189 0 -314.5 -129.5t-125.5 -315.5q0 -125 58.5 -227t159 -159.5t222.5 -57.5q170 0 326 80v-301 q-146 -46 -355 -46q-155 0 -289.5 54t-229.5 148t-149.5 225.5t-54.5 281.5z" glyph-name="Ccaron" horiz-adv-x="1298" unicode="Č"/><glyph d="M852 1419l-291 -340h-78l-286 340h223l102 -139l99 139h231zM82 489q0 148 75 266t200 182t274 64q100 0 229 -38v-279q-90 57 -198 57q-136 0 -211.5 -74t-75.5 -182q0 -107 75.5 -175t211.5 -68q100 0 204 53v-270q-95 -39 -225 -39q-243 0 -401 142t-158 361z" glyph-name="ccaron" horiz-adv-x="991" unicode="č"/><glyph d="M971 1808l-291 -340h-78l-287 340h224l102 -139l98 139h232zM166 0q8 109 8 367v665q0 248 -8 344h504q191 0 347.5 -86.5t247.5 -243t91 -352.5q0 -152 -57 -283.5t-152 -220.5t-219.5 -139.5t-259.5 -50.5h-502zM483 254h148q185 0 299 122t114 312q0 191 -117 312.5 t-298 121.5h-146v-868z" glyph-name="Dcaron" horiz-adv-x="1452" unicode="Ď"/><glyph d="M1425 1079h-215l33 394h248zM82 506q0 216 128.5 355.5t338.5 139.5q156 0 274 -90v363h-110l65 174h342q-6 -68 -6 -199v-1030q0 -125 6 -219h-202l-87 94q-112 -106 -282 -106q-139 0 -246.5 70t-164 187.5t-56.5 260.5zM373 494q0 -113 61.5 -187t171.5 -74 q61 0 120 26t97 71v332q-37 40 -95.5 65t-119.5 25q-108 0 -171.5 -72.5t-63.5 -185.5z" glyph-name="dcaron" horiz-adv-x="1271" unicode="ď"/><glyph d="M670 1376q191 0 347.5 -86.5t247.5 -243t91 -352.5q0 -152 -57 -283.5t-152 -220.5t-219.5 -139.5t-259.5 -50.5h-502q8 109 8 367v213h-147v227h147v225q0 248 -8 344h504zM631 254q185 0 299 122t114 312q0 191 -117 312.5t-298 121.5h-146v-315h248v-227h-248v-326 h148z" glyph-name="Dcroat" horiz-adv-x="1452" unicode="Đ"/><glyph d="M1202 1098h-88v-879q0 -125 6 -219h-202l-87 94q-112 -106 -282 -106q-139 0 -246.5 70t-164 187.5t-56.5 260.5q0 216 128.5 355.5t338.5 139.5q156 0 274 -90v187h-303v125h303v51h-110l65 174h342q-6 -68 -6 -199v-26h88v-125zM823 330v332q-37 40 -95.5 65t-119.5 25 q-108 0 -171.5 -72.5t-63.5 -185.5t61.5 -187t171.5 -74q61 0 120 26t97 71z" glyph-name="dslash" horiz-adv-x="1271" unicode="đ"/><glyph d="M213 1538v193h610v-193h-610zM166 0q6 231 6 350v676q0 264 -6 350h487q213 0 330 6l-47 -264q-72 6 -330 6h-125v-290h127q232 0 316 4v-260q-84 6 -316 6h-127v-330h174q236 0 316 4v-262q-80 4 -314 4h-491z" glyph-name="Emacron" horiz-adv-x="1101" unicode="Ē"/><glyph d="M250 1149v192h610v-192h-610zM82 494q0 138 54.5 251.5t163.5 183.5t255 70q94 0 172 -27t130 -72t87.5 -104.5t51.5 -123t16 -129.5q0 -59 -13 -113h-626q17 -211 258 -211q155 0 321 76v-223q-151 -88 -340 -88q-248 0 -389 138.5t-141 371.5zM553 778 q-87 0 -135 -55.5t-53 -132.5h360q0 82 -42.5 135t-129.5 53z" glyph-name="emacron" unicode="ē"/><glyph d="M356 1655q0 67 47 114.5t115 47.5t116 -47.5t48 -114.5q0 -69 -48 -116.5t-116 -47.5t-115 47.5t-47 116.5zM166 0q6 231 6 350v676q0 264 -6 350h487q213 0 330 6l-47 -264q-72 6 -330 6h-125v-290h127q232 0 316 4v-260q-84 6 -316 6h-127v-330h174q236 0 316 4v-262 q-80 4 -314 4h-491z" glyph-name="Edotaccent" horiz-adv-x="1101" unicode="Ė"/><glyph d="M393 1266q0 67 47 114t115 47t116 -47t48 -114q0 -69 -48 -116.5t-116 -47.5t-115 47.5t-47 116.5zM82 494q0 138 54.5 251.5t163.5 183.5t255 70q94 0 172 -27t130 -72t87.5 -104.5t51.5 -123t16 -129.5q0 -59 -13 -113h-626q17 -211 258 -211q155 0 321 76v-223 q-151 -88 -340 -88q-248 0 -389 138.5t-141 371.5zM553 778q-87 0 -135 -55.5t-53 -132.5h360q0 82 -42.5 135t-129.5 53z" glyph-name="edotaccent" unicode="ė"/><glyph d="M967 -4q-111 -51 -163 -110.5t-52 -118.5q0 -89 94 -89q51 0 106 25l23 -164q-86 -51 -223 -51q-113 0 -181.5 56.5t-68.5 152.5q0 174 186 303h-31h-491q6 231 6 350v676q0 264 -6 350h487q213 0 330 6l-47 -264q-72 6 -330 6h-125v-290h127q232 0 316 4v-260 q-84 6 -316 6h-127v-330h174q236 0 316 4v-252l4 -6q-1 0 -2 -1t-2 -1v-2h-4z" glyph-name="Eogonek" horiz-adv-x="1101" unicode="Ę"/><glyph d="M1012 543q0 -59 -13 -113h-626q17 -211 258 -211q155 0 321 76v-223q-7 -5 -22.5 -13t-18.5 -10q-192 -130 -192 -270q0 -50 27.5 -75.5t74.5 -25.5q44 0 99 25l22 -164q-86 -51 -223 -51q-113 0 -181.5 59.5t-68.5 157.5q0 147 117 279q-236 9 -370 146.5t-134 363.5 q0 138 54.5 251.5t163.5 183.5t255 70q94 0 172 -27t130 -72t87.5 -104.5t51.5 -123t16 -129.5zM365 590h360q0 82 -42.5 135t-129.5 53t-135 -55.5t-53 -132.5z" glyph-name="eogonek" unicode="ę"/><glyph d="M848 1808l-291 -340h-78l-286 340h223l102 -139l98 139h232zM166 0q6 231 6 350v676q0 264 -6 350h487q213 0 330 6l-47 -264q-72 6 -330 6h-125v-290h127q232 0 316 4v-260q-84 6 -316 6h-127v-330h174q236 0 316 4v-262q-80 4 -314 4h-491z" glyph-name="Ecaron" horiz-adv-x="1101" unicode="Ě"/><glyph d="M885 1419l-291 -340h-78l-287 340h224l102 -139l98 139h232zM82 494q0 138 54.5 251.5t163.5 183.5t255 70q94 0 172 -27t130 -72t87.5 -104.5t51.5 -123t16 -129.5q0 -59 -13 -113h-626q17 -211 258 -211q155 0 321 76v-223q-151 -88 -340 -88q-248 0 -389 138.5 t-141 371.5zM553 778q-87 0 -135 -55.5t-53 -132.5h360q0 82 -42.5 135t-129.5 53z" glyph-name="ecaron" unicode="ě"/><glyph d="M653 1788q1 -50 32.5 -78.5t76.5 -28.5q44 0 76 28.5t36 78.5h199q-6 -128 -95 -213.5t-216 -85.5q-126 0 -215 88t-94 211h200zM96 688q0 205 95 367.5t268.5 254t396.5 91.5q190 0 336 -49v-293q-163 78 -324 78q-111 0 -200.5 -37.5t-144.5 -101.5t-84 -143t-29 -167 q0 -186 122.5 -318t305.5 -132q64 0 108 18v170q0 180 -6 262h305q-6 -111 -6 -321v-322q-184 -70 -397 -70t-382.5 88.5t-266.5 252t-97 372.5z" glyph-name="Gbreve" horiz-adv-x="1400" unicode="Ğ"/><glyph d="M463 1399q1 -50 32 -78.5t76 -28.5q44 0 76.5 29t36.5 78h199q-6 -128 -95.5 -213.5t-216.5 -85.5q-126 0 -215 88t-94 211h201zM82 489q0 141 57.5 258t162 185.5t233.5 68.5q91 0 164 -32.5t120 -77.5v90h256q-6 -147 -6 -150v-765q0 -143 -39.5 -244.5t-116 -160.5 t-176 -85.5t-231.5 -26.5q-96 0 -201.5 15.5t-163.5 34.5l78 215q56 -12 145 -22.5t152 -10.5q148 0 218.5 61t70.5 199v41q-109 -94 -260 -94q-205 0 -334 142.5t-129 358.5zM373 494q0 -112 60 -186.5t163 -74.5q58 0 114.5 25.5t92.5 65.5v333q-82 97 -201 97 q-106 0 -167.5 -73.5t-61.5 -186.5z" glyph-name="gbreve" horiz-adv-x="1218" unicode="ğ"/><glyph d="M602 1655q0 67 47 114.5t115 47.5t116 -47.5t48 -114.5q0 -69 -48 -116.5t-116 -47.5t-115 47.5t-47 116.5zM96 688q0 205 95 367.5t268.5 254t396.5 91.5q190 0 336 -49v-293q-163 78 -324 78q-111 0 -200.5 -37.5t-144.5 -101.5t-84 -143t-29 -167q0 -186 122.5 -318 t305.5 -132q64 0 108 18v170q0 180 -6 262h305q-6 -111 -6 -321v-322q-184 -70 -397 -70t-382.5 88.5t-266.5 252t-97 372.5z" glyph-name="Gdotaccent" horiz-adv-x="1400" unicode="Ġ"/><glyph d="M412 1266q0 68 47 114.5t114 46.5q68 0 116 -47t48 -114q0 -69 -48 -116.5t-116 -47.5t-114.5 47.5t-46.5 116.5zM82 489q0 141 57.5 258t162 185.5t233.5 68.5q91 0 164 -32.5t120 -77.5v90h256q-6 -147 -6 -150v-765q0 -143 -39.5 -244.5t-116 -160.5t-176 -85.5 t-231.5 -26.5q-96 0 -201.5 15.5t-163.5 34.5l78 215q56 -12 145 -22.5t152 -10.5q148 0 218.5 61t70.5 199v41q-109 -94 -260 -94q-205 0 -334 142.5t-129 358.5zM373 494q0 -112 60 -186.5t163 -74.5q58 0 114.5 25.5t92.5 65.5v333q-82 97 -201 97q-106 0 -167.5 -73.5 t-61.5 -186.5z" glyph-name="gdotaccent" horiz-adv-x="1218" unicode="ġ"/><glyph d="M96 688q0 205 95 367.5t268.5 254t396.5 91.5q190 0 336 -49v-293q-163 78 -324 78q-111 0 -200.5 -37.5t-144.5 -101.5t-84 -143t-29 -167q0 -186 122.5 -318t305.5 -132q64 0 108 18v170q0 180 -6 262h305q-6 -111 -6 -321v-322q-184 -70 -397 -70t-382.5 88.5 t-266.5 252t-97 372.5zM946 -86q12 -37 12 -86q0 -67 -46 -145t-115 -140l-226 43q91 109 91 205q0 49 -15 96z" glyph-name="Gcommaaccent" horiz-adv-x="1400" unicode="Ģ"/><glyph d="M397 1053q-12 37 -12 86q0 67 46.5 144t115.5 140l225 -43q-90 -108 -90 -204q0 -54 14 -97zM82 489q0 141 57.5 258t162 185.5t233.5 68.5q91 0 164 -32.5t120 -77.5v90h256q-6 -147 -6 -150v-765q0 -143 -39.5 -244.5t-116 -160.5t-176 -85.5t-231.5 -26.5 q-96 0 -201.5 15.5t-163.5 34.5l78 215q56 -12 145 -22.5t152 -10.5q148 0 218.5 61t70.5 199v41q-109 -94 -260 -94q-205 0 -334 142.5t-129 358.5zM373 494q0 -112 60 -186.5t163 -74.5q58 0 114.5 25.5t92.5 65.5v333q-82 97 -201 97q-106 0 -167.5 -73.5t-61.5 -186.5z" glyph-name="gcommaaccent" horiz-adv-x="1218" unicode="ģ"/><glyph d="M1462 1008h-108v-732q0 -159 8 -276h-324q9 102 9 291v303h-566v-305q0 -211 4 -289h-319q6 78 6 297v711h-125v184h125q0 114 -6 184h319q-4 -102 -4 -184h563q0 104 -6 184h324l-6 -184h106v-184zM1047 844v164h-566v-29v-135h566z" glyph-name="Hbar" horiz-adv-x="1509" unicode="Ħ"/><glyph d="M1094 0h-312q4 42 4 242v344q0 78 -45 122t-116 44q-57 0 -106 -34.5t-81 -92.5v-398q0 -147 6 -227h-311q6 55 6 227v858h-102v125h102v74h-98l63 174h342q-8 -71 -8 -205v-43h320v-125h-320v-213q109 125 291 125q171 0 263.5 -114.5t92.5 -325.5v-317q0 -160 9 -240z" glyph-name="hbar" horiz-adv-x="1216" unicode="ħ"/><glyph d="M20 1538v193h611v-193h-611zM166 0q6 86 6 375v612q0 301 -6 389h321q-6 -72 -6 -389v-612q0 -287 6 -375h-321z" glyph-name="Imacron" horiz-adv-x="653" unicode="Ī"/><glyph d="M16 1149v192h611v-192h-611zM154 0q8 71 8 203v567q0 143 -10 211h317q-8 -73 -8 -205v-573q0 -140 8 -203h-315z" glyph-name="imacron" horiz-adv-x="618" unicode="ī"/><glyph d="M487 0q-223 -102 -223 -233q0 -89 94 -89q52 0 107 25l22 -164q-86 -51 -223 -51q-113 0 -181.5 56.5t-68.5 152.5q0 173 187 303h-35q6 86 6 375v612q0 301 -6 389h321q-6 -72 -6 -389v-612q0 -287 6 -375z" glyph-name="Iogonek" horiz-adv-x="653" unicode="Į"/><glyph d="M322 1102q-68 0 -115 47.5t-47 116.5q0 67 47 114t115 47t115.5 -47t47.5 -114q0 -69 -47.5 -116.5t-115.5 -47.5zM473 0q-223 -102 -223 -233q0 -89 94 -89q52 0 107 25l22 -164q-86 -51 -223 -51q-113 0 -181.5 56.5t-68.5 152.5q0 174 186 303h-32q8 71 8 203v567 q0 143 -10 211h317q-8 -73 -8 -205v-573q0 -134 8 -197z" glyph-name="iogonek" horiz-adv-x="614" unicode="į"/><glyph d="M164 1655q0 67 47 114.5t115 47.5t115.5 -47.5t47.5 -114.5q0 -69 -47.5 -116.5t-115.5 -47.5t-115 47.5t-47 116.5zM166 0q6 86 6 375v612q0 301 -6 389h321q-6 -72 -6 -389v-612q0 -287 6 -375h-321z" glyph-name="Idotaccent" horiz-adv-x="653" unicode="İ"/><glyph d="M154 0q8 71 8 203v567q0 143 -10 211h317q-8 -73 -8 -205v-573q0 -140 8 -203h-315z" glyph-name="dotlessi" horiz-adv-x="618" unicode="ı"/><glyph d="M166 0q6 86 6 350v676q0 209 -6 350h321q-4 -92 -4 -350v-291l295 402q116 166 162 239h342q-9 -12 -147 -200l-347 -455l379 -471q14 -16 48 -58t75.5 -91.5t85.5 -100.5h-413q-22 36 -132 184l-348 445v-279q0 -252 4 -350h-321zM877 -86q12 -37 12 -86 q0 -67 -46.5 -144.5t-115.5 -140.5l-225 43q90 108 90 205q0 53 -14 96z" glyph-name="Kcommaaccent" horiz-adv-x="1394" unicode="Ķ"/><glyph d="M137 0q4 45 4 207v1077h-100l61 174h338q-6 -67 -6 -205v-678l379 406h334q-61 -57 -180 -176l-260 -273l335 -387q59 -70 134 -145h-383l-359 414v-211q0 -142 6 -203h-303zM782 -86q13 -41 13 -86q0 -67 -46.5 -144.5t-115.5 -140.5l-225 43q90 108 90 205q0 49 -15 96 z" glyph-name="kcommaaccent" horiz-adv-x="1196" unicode="ķ"/><glyph d="M678 1817l-248 -332h-268l219 332h297zM166 0q6 150 6 367v643q0 276 -6 366h321q-6 -117 -6 -284v-832h203q200 0 332 4v-270q-84 6 -336 6h-514z" glyph-name="Lacute" horiz-adv-x="1071" unicode="Ĺ"/><glyph d="M631 1909l-248 -332h-268l219 332h297zM137 0q6 62 6 205v1079h-102l63 174h336q-6 -39 -6 -196v-1057q0 -164 6 -205h-303z" glyph-name="lacute" horiz-adv-x="591" unicode="ĺ"/><glyph d="M166 0q6 150 6 367v643q0 276 -6 366h321q-6 -117 -6 -284v-832h203q200 0 332 4v-270q-84 6 -336 6h-514zM745 -86q13 -41 13 -86q0 -67 -46.5 -144.5t-115.5 -140.5l-225 43q90 108 90 205q0 49 -15 96z" glyph-name="Lcommaaccent" horiz-adv-x="1071" unicode="Ļ"/><glyph d="M137 0q6 62 6 205v1079h-102l63 174h336q-6 -39 -6 -196v-1057q0 -164 6 -205h-303zM461 -86q12 -37 12 -86q0 -67 -46.5 -144.5t-115.5 -140.5l-225 43q90 108 90 205q0 53 -14 96z" glyph-name="lcommaaccent" horiz-adv-x="591" unicode="ļ"/><glyph d="M696 1047l33 393h248l-66 -393h-215zM166 0q6 150 6 367v643q0 276 -6 366h321q-6 -117 -6 -284v-832h203q200 0 332 4v-270q-84 6 -336 6h-514z" glyph-name="Lcaron" horiz-adv-x="1071" unicode="Ľ"/><glyph d="M547 1079l33 394h249l-67 -394h-215zM137 0q6 62 6 205v1079h-102l63 174h336q-6 -39 -6 -196v-1057q0 -164 6 -205h-303z" glyph-name="lcaron" horiz-adv-x="577" unicode="ľ"/><glyph d="M166 0q6 150 6 367v643q0 276 -6 366h321q-6 -117 -6 -284v-832h203q200 0 332 4v-270q-84 6 -336 6h-514zM635 866q0 64 45.5 110t110.5 46t111 -46t46 -110t-46 -110.5t-111 -46.5q-64 0 -110 46t-46 111z" glyph-name="Ldot" horiz-adv-x="1071" unicode="Ŀ"/><glyph d="M137 0q6 62 6 205v1079h-102l63 174h336q-6 -39 -6 -196v-1057q0 -164 6 -205h-303zM561 795q0 64 45.5 109.5t110.5 45.5t111 -45.5t46 -109.5q0 -65 -46.5 -111.5t-110.5 -46.5t-110 46.5t-46 111.5z" glyph-name="ldot" horiz-adv-x="874" unicode="ŀ"/><glyph d="M692 260q200 0 332 4v-270q-84 6 -336 6h-514q6 150 6 367v100l-123 -59v266l123 59v277q0 276 -6 366h322q-7 -137 -7 -284v-207l367 180v-266l-367 -181v-358h203z" glyph-name="Lslash" horiz-adv-x="1071" unicode="Ł"/><glyph d="M604 707l-129 -62v-440q0 -164 6 -205h-303q6 62 6 205v299l-145 -70v244l145 70v536h-102l63 174h336q-6 -39 -6 -196v-373l129 63v-245z" glyph-name="lslash" horiz-adv-x="667" unicode="ł"/><glyph d="M1114 1817l-248 -332h-268l219 332h297zM166 0q6 80 6 291v727q0 244 -6 381h96l782 -809v432q0 233 -6 354h308q-9 -196 -9 -350v-733q0 -171 6 -309h-94l-782 817v-516q0 -168 6 -285h-307z" glyph-name="Nacute" horiz-adv-x="1513" unicode="Ń"/><glyph d="M924 1427l-248 -331h-268l219 331h297zM45 803l64 178h323l4 -119q98 135 295 135q344 0 344 -446v-311q0 -183 4 -240h-301q4 66 4 242v344q0 79 -45 123.5t-116 44.5q-112 0 -185 -129v-383q0 -183 4 -242h-301q6 99 6 242v561h-100z" glyph-name="nacute" horiz-adv-x="1202" unicode="ń"/><glyph d="M166 0q6 80 6 291v727q0 244 -6 381h96l782 -809v432q0 233 -6 354h308q-9 -196 -9 -350v-733q0 -171 6 -309h-94l-782 817v-516q0 -168 6 -285h-307zM958 -86q13 -41 13 -86q0 -67 -46.5 -144.5t-115.5 -140.5l-225 43q90 108 90 205q0 49 -15 96z" glyph-name="Ncommaaccent" horiz-adv-x="1513" unicode="Ņ"/><glyph d="M45 803l64 178h323l4 -119q98 135 295 135q344 0 344 -446v-311q0 -183 4 -240h-301q4 66 4 242v344q0 79 -45 123.5t-116 44.5q-112 0 -185 -129v-383q0 -183 4 -242h-301q6 99 6 242v561h-100zM793 -86q12 -37 12 -86q0 -67 -46.5 -144.5t-115.5 -140.5l-225 43 q90 108 90 205q0 53 -14 96z" glyph-name="ncommaaccent" horiz-adv-x="1202" unicode="ņ"/><glyph d="M1110 1808l-291 -340h-78l-286 340h223l102 -139l99 139h231zM166 0q6 80 6 291v727q0 244 -6 381h96l782 -809v432q0 233 -6 354h308q-9 -196 -9 -350v-733q0 -171 6 -309h-94l-782 817v-516q0 -168 6 -285h-307z" glyph-name="Ncaron" horiz-adv-x="1513" unicode="Ň"/><glyph d="M920 1419l-291 -340h-78l-287 340h223l103 -139l98 139h232zM45 803l64 178h323l4 -119q98 135 295 135q344 0 344 -446v-311q0 -183 4 -240h-301q4 66 4 242v344q0 79 -45 123.5t-116 44.5q-112 0 -185 -129v-383q0 -183 4 -242h-301q6 99 6 242v561h-100z" glyph-name="ncaron" horiz-adv-x="1202" unicode="ň"/><glyph d="M1337 1026v-733q0 -171 6 -309h-10q0 -133 -65.5 -245t-175 -175.5t-236.5 -63.5q-113 0 -213 27v268q80 -39 180 -39q94 0 153.5 65.5t59.5 168.5v217l-569 594v-516q0 -168 6 -285h-307q6 80 6 291v727q0 244 -6 381h96l782 -809v432q0 233 -6 354h308q-9 -196 -9 -350 z" glyph-name="Eng" horiz-adv-x="1513" unicode="Ŋ"/><glyph d="M139 0q6 99 6 242v561h-100l64 178h323l4 -119q98 135 295 135q344 0 344 -446v-506q0 -79 -11.5 -149t-39 -134t-69 -110.5t-104.5 -73.5t-142 -27h-203v246h115q161 0 161 264v525q0 79 -45 123.5t-116 44.5q-112 0 -185 -129v-383q0 -183 4 -242h-301z" glyph-name="eng" horiz-adv-x="1198" unicode="ŋ"/><glyph d="M520 1538v193h610v-193h-610zM96 692q0 200 95.5 362.5t262.5 254.5t371 92q155 0 292 -55.5t234 -150.5t153.5 -228t56.5 -283q0 -201 -96 -363.5t-263 -254t-371 -91.5q-155 0 -291.5 55t-234 149.5t-153.5 228t-56 284.5zM412 688q0 -199 117.5 -329t301.5 -130 q181 0 297.5 130t116.5 327t-118.5 329t-299.5 132t-298 -130t-117 -329z" glyph-name="Omacron" horiz-adv-x="1656" unicode="Ō"/><glyph d="M276 1147v192h611v-192h-611zM82 489q0 142 69.5 260t185.5 184t251 66q140 0 257 -68.5t184 -185.5t67 -256q0 -107 -41 -201t-110 -160t-162 -104t-195 -38q-140 0 -256.5 67t-183 182.5t-66.5 253.5zM369 489q0 -103 62.5 -177t156.5 -74q95 0 158 74t63 177 q0 106 -63.5 179t-157.5 73q-95 0 -157 -77t-62 -175z" glyph-name="omacron" horiz-adv-x="1177" unicode="ō"/><glyph d="M901 1817l-248 -332h-268l219 332h297zM1397 1817l-248 -332h-268l219 332h297zM96 692q0 200 95.5 362.5t262.5 254.5t371 92q155 0 292 -55.5t234 -150.5t153.5 -228t56.5 -283q0 -201 -96 -363.5t-263 -254t-371 -91.5q-155 0 -291.5 55t-234 149.5t-153.5 228 t-56 284.5zM412 688q0 -199 117.5 -329t301.5 -130q181 0 297.5 130t116.5 327t-118.5 329t-299.5 132t-298 -130t-117 -329z" glyph-name="Ohungarumlaut" horiz-adv-x="1656" unicode="Ő"/><glyph d="M657 1425l-247 -331h-269l219 331h297zM1153 1425l-248 -331h-268l219 331h297zM82 489q0 142 69.5 260t185.5 184t251 66q140 0 257 -68.5t184 -185.5t67 -256q0 -107 -41 -201t-110 -160t-162 -104t-195 -38q-140 0 -256.5 67t-183 182.5t-66.5 253.5zM369 489 q0 -103 62.5 -177t156.5 -74q95 0 158 74t63 177q0 106 -63.5 179t-157.5 73q-95 0 -157 -77t-62 -175z" glyph-name="ohungarumlaut" horiz-adv-x="1177" unicode="ő"/><glyph d="M96 688q0 202 96 360t262 243t373 85h465q211 0 332 6l-8 -264q-72 4 -320 4h-147v-288h125q233 0 317 4v-258q-129 6 -317 6h-125v-332h172q237 0 317 4v-262q-80 4 -315 4h-496q-154 0 -289.5 51.5t-232.5 141t-153 218t-56 277.5zM412 688q0 -192 121.5 -314 t302.5 -122v870q-197 0 -310.5 -117.5t-113.5 -316.5z" glyph-name="OE" horiz-adv-x="1751" unicode="Œ"/><glyph d="M82 489q0 142 69.5 260t185.5 184t251 66q108 0 199 -43.5t155 -121.5q119 165 342 165q94 0 171.5 -27t129.5 -72t88 -104.5t52 -123t16 -129.5q0 -50 -15 -113h-624q17 -211 258 -211q151 0 321 76v-223q-154 -88 -340 -88q-265 0 -395 168q-64 -78 -157 -122t-201 -44 q-140 0 -256.5 67t-183 182.5t-66.5 253.5zM1094 590h360q-2 82 -44.5 135t-127.5 53q-87 0 -135 -55.5t-53 -132.5zM369 489q0 -103 62.5 -177t156.5 -74q95 0 158 74t63 177q0 106 -63.5 179t-157.5 73q-95 0 -157 -77t-62 -175z" glyph-name="oe" horiz-adv-x="1816" unicode="œ"/><glyph d="M922 1817l-248 -332h-268l219 332h297zM1118 952q0 -259 -237 -348l190 -305q19 -29 38.5 -56.5t43.5 -59.5t40 -53t50 -64.5t51 -65.5h-376l-314 522h-123v-162q0 -243 6 -360h-321q8 104 8 362v666q0 255 -8 348h452q107 0 197.5 -27t158.5 -78.5t106 -133t38 -185.5z M807 936q0 95 -59 146t-146 51h-121v-392h113q89 0 151 50t62 145z" glyph-name="Racute" horiz-adv-x="1333" unicode="Ŕ"/><glyph d="M727 1427l-248 -331h-268l219 331h297zM45 805l64 176h282l25 -190q61 96 138.5 153t156.5 57q59 0 112 -30l-57 -277q-55 19 -107 19q-57 0 -122 -41.5t-93 -96.5v-368q0 -70 9 -207h-314q6 108 6 209v596h-100z" glyph-name="racute" horiz-adv-x="837" unicode="ŕ"/><glyph d="M1118 952q0 -259 -237 -348l190 -305q19 -29 38.5 -56.5t43.5 -59.5t40 -53t50 -64.5t51 -65.5h-376l-314 522h-123v-162q0 -243 6 -360h-321q8 104 8 362v666q0 255 -8 348h452q107 0 197.5 -27t158.5 -78.5t106 -133t38 -185.5zM807 936q0 95 -59 146t-146 51h-121 v-392h113q89 0 151 50t62 145zM827 -86q13 -41 13 -86q0 -67 -46.5 -144.5t-115.5 -140.5l-225 43q90 108 90 205q0 49 -15 96z" glyph-name="Rcommaaccent" horiz-adv-x="1333" unicode="Ŗ"/><glyph d="M45 805l64 176h282l25 -190q61 96 138.5 153t156.5 57q59 0 112 -30l-57 -277q-55 19 -107 19q-57 0 -122 -41.5t-93 -96.5v-368q0 -70 9 -207h-314q6 108 6 209v596h-100zM571 -86q13 -41 13 -86q0 -67 -46.5 -144.5t-115.5 -140.5l-225 43q90 108 90 205q0 49 -15 96z" glyph-name="rcommaaccent" horiz-adv-x="837" unicode="ŗ"/><glyph d="M918 1808l-291 -340h-78l-287 340h223l103 -139l98 139h232zM1118 952q0 -259 -237 -348l190 -305q19 -29 38.5 -56.5t43.5 -59.5t40 -53t50 -64.5t51 -65.5h-376l-314 522h-123v-162q0 -243 6 -360h-321q8 104 8 362v666q0 255 -8 348h452q107 0 197.5 -27t158.5 -78.5 t106 -133t38 -185.5zM807 936q0 95 -59 146t-146 51h-121v-392h113q89 0 151 50t62 145z" glyph-name="Rcaron" horiz-adv-x="1333" unicode="Ř"/><glyph d="M723 1419l-291 -340h-78l-286 340h223l102 -139l99 139h231zM45 805l64 176h282l25 -190q61 96 138.5 153t156.5 57q59 0 112 -30l-57 -277q-55 19 -107 19q-57 0 -122 -41.5t-93 -96.5v-368q0 -70 9 -207h-314q6 108 6 209v596h-100z" glyph-name="rcaron" horiz-adv-x="837" unicode="ř"/><glyph d="M844 1817l-248 -332h-268l219 332h297zM96 55l68 256q124 -100 285 -100q92 0 147 38t55 105q0 61 -50.5 110.5t-143.5 106.5q-51 31 -86 55t-80 64.5t-71.5 80.5t-46 98.5t-19.5 123.5q0 184 126 297t338 113q169 0 300 -62v-249q-125 75 -269 75q-83 0 -129.5 -35.5 t-46.5 -93.5q0 -24 11.5 -47t26 -40t46 -41t51 -36.5t62.5 -39.5q71 -44 124 -87.5t98 -97.5t68 -119.5t23 -140.5q0 -182 -139.5 -301t-368.5 -119q-108 0 -210.5 25.5t-168.5 60.5z" glyph-name="Sacute" horiz-adv-x="1097" unicode="Ś"/><glyph d="M786 1427l-247 -331h-269l219 331h297zM86 41l53 235q115 -83 246 -83q59 0 91 19t32 54q0 8 -2 16t-8 15.5t-11.5 13.5t-16.5 14t-19 13t-24 13.5t-26 14t-30 15.5t-31 16q-48 25 -82.5 49t-69.5 60t-53 85t-18 109q0 144 99.5 221.5t277.5 77.5q120 0 270 -47v-233 q-128 74 -240 74q-110 0 -110 -70q0 -16 8.5 -30t30 -28.5t36 -23.5t51 -27t50.5 -26q44 -23 77.5 -47.5t67.5 -60.5t53 -85.5t19 -107.5q0 -143 -105.5 -227.5t-300.5 -84.5q-81 0 -170.5 17t-144.5 49z" glyph-name="sacute" horiz-adv-x="897" unicode="ś"/><glyph d="M983 389q0 -157 -104.5 -268.5t-284.5 -140.5l-31 -60q172 -35 172 -201q0 -99 -69.5 -158t-198.5 -59q-87 0 -158 27l4 141q68 -22 117 -22q51 0 80 18.5t29 50.5q0 36 -34 54t-87 18q-43 0 -70 -8l94 188q-100 4 -193 29t-153 57l68 256q124 -100 285 -100q92 0 147 38 t55 105q0 61 -50.5 110.5t-143.5 106.5q-51 31 -86 55t-80 64.5t-71.5 80.5t-46 98.5t-19.5 123.5q0 184 126 297t338 113q169 0 300 -62v-249q-125 75 -269 75q-83 0 -129.5 -35.5t-46.5 -93.5q0 -24 11.5 -47t26 -40t46 -41t51 -36.5t62.5 -39.5q71 -44 124 -87.5 t98 -97.5t68 -119.5t23 -140.5z" glyph-name="Scedilla" horiz-adv-x="1097" unicode="Ş"/><glyph d="M807 287q0 -122 -75.5 -201t-219.5 -102l-33 -64q172 -35 172 -201q0 -99 -69.5 -158t-198.5 -59q-87 0 -158 27l4 141q68 -22 117 -22q51 0 80 18.5t29 50.5q0 36 -34 54t-87 18q-43 0 -70 -8l96 196q-176 8 -274 64l53 235q115 -83 246 -83q59 0 91 19t32 54q0 8 -2 16 t-8 15.5t-11.5 13.5t-16.5 14t-19 13t-24 13.5t-26 14t-30 15.5t-31 16q-48 25 -82.5 49t-69.5 60t-53 85t-18 109q0 144 99.5 221.5t277.5 77.5q120 0 270 -47v-233q-128 74 -240 74q-110 0 -110 -70q0 -16 8.5 -30t30 -28.5t36 -23.5t51 -27t50.5 -26q44 -23 77.5 -47.5 t67.5 -60.5t53 -85.5t19 -107.5z" glyph-name="scedilla" horiz-adv-x="897" unicode="ş"/><glyph d="M840 1808l-291 -340h-78l-287 340h224l102 -139l98 139h232zM96 55l68 256q124 -100 285 -100q92 0 147 38t55 105q0 61 -50.5 110.5t-143.5 106.5q-51 31 -86 55t-80 64.5t-71.5 80.5t-46 98.5t-19.5 123.5q0 184 126 297t338 113q169 0 300 -62v-249q-125 75 -269 75 q-83 0 -129.5 -35.5t-46.5 -93.5q0 -24 11.5 -47t26 -40t46 -41t51 -36.5t62.5 -39.5q71 -44 124 -87.5t98 -97.5t68 -119.5t23 -140.5q0 -182 -139.5 -301t-368.5 -119q-108 0 -210.5 25.5t-168.5 60.5z" glyph-name="Scaron" horiz-adv-x="1097" unicode="Š"/><glyph d="M782 1419l-290 -340h-78l-287 340h223l103 -139l98 139h231zM86 41l53 235q115 -83 246 -83q59 0 91 19t32 54q0 8 -2 16t-8 15.5t-11.5 13.5t-16.5 14t-19 13t-24 13.5t-26 14t-30 15.5t-31 16q-48 25 -82.5 49t-69.5 60t-53 85t-18 109q0 144 99.5 221.5t277.5 77.5 q120 0 270 -47v-233q-128 74 -240 74q-110 0 -110 -70q0 -16 8.5 -30t30 -28.5t36 -23.5t51 -27t50.5 -26q44 -23 77.5 -47.5t67.5 -60.5t53 -85.5t19 -107.5q0 -143 -105.5 -227.5t-300.5 -84.5q-81 0 -170.5 17t-144.5 49z" glyph-name="scaron" horiz-adv-x="897" unicode="š"/><glyph d="M887 1376q194 0 346 4l-8 -268q-128 8 -342 8h-82q-2 -57 -2 -258v-506q0 -204 8 -356h-76l-41 -80q172 -35 172 -201q0 -99 -69.5 -158t-198.5 -59q-87 0 -158 27l4 141q68 -22 117 -22q51 0 80 18.5t29 50.5q0 36 -34 54t-87 18q-43 0 -70 -8l109 219h-103q6 150 6 356 v506q0 184 -4 258h-84q-212 0 -340 -8v268q90 -4 347 -4h481z" glyph-name="uni0162" horiz-adv-x="1288" unicode="Ţ"/><glyph d="M504 -80q172 -35 172 -201q0 -99 -69.5 -158t-198.5 -59q-87 0 -158 27l4 141q68 -22 117 -22q51 0 79.5 18.5t28.5 50.5q0 36 -34 54t-87 18q-42 0 -69 -8l114 229q-95 37 -146.5 125.5t-51.5 222.5v392h-142v231h142v88q0 59 -4 141l305 37q-4 -102 -4 -184v-82h264 l-39 -231h-225v-326q0 -97 33.5 -144t107.5 -47q42 0 84 21l43 -213q-40 -24 -105 -40.5t-112 -16.5h-16z" glyph-name="uni0163" horiz-adv-x="849" unicode="ţ"/><glyph d="M977 1808l-291 -340h-78l-286 340h223l102 -139l98 139h232zM481 0q6 150 6 356v506q0 184 -4 258h-84q-212 0 -340 -8v268q90 -4 347 -4h481q194 0 346 4l-8 -268q-128 8 -342 8h-82q-2 -57 -2 -258v-506q0 -204 8 -356h-326z" glyph-name="Tcaron" horiz-adv-x="1288" unicode="Ť"/><glyph d="M840 1063h-215l30 393h250zM63 750v231h142v88q0 59 -4 141l305 37q-4 -102 -4 -184v-82h264l-39 -231h-225v-326q0 -97 33.5 -144t107.5 -47q42 0 84 21l43 -213q-40 -24 -105 -40.5t-112 -16.5q-163 0 -255.5 96.5t-92.5 277.5v392h-142z" glyph-name="tcaron" horiz-adv-x="835" unicode="ť"/><glyph d="M801 1120q-2 -57 -2 -258v-90h254v-217h-254v-199q0 -204 8 -356h-326q6 150 6 356v199h-266v217h266v90q0 184 -4 258h-84q-212 0 -340 -8v268q90 -4 347 -4h481q194 0 346 4l-8 -268q-128 8 -342 8h-82z" glyph-name="Tbar" horiz-adv-x="1288" unicode="Ŧ"/><glyph d="M733 254l43 -213q-40 -24 -105 -40.5t-112 -16.5q-163 0 -255.5 96.5t-92.5 277.5v50h-148v190h148v152h-141v231h141v88q0 59 -4 141l305 37q-4 -102 -4 -184v-82h264l-39 -231h-225v-152h209v-190h-209q3 -89 36.5 -132t104.5 -43q42 0 84 21z" glyph-name="tbar" horiz-adv-x="856" unicode="ŧ"/><glyph d="M422 1538v193h610v-193h-610zM475 1376q-6 -92 -6 -379v-462q0 -142 67.5 -216.5t188.5 -74.5q122 0 190 76t68 217v460q0 277 -6 379h319q-4 -92 -4 -381v-454q0 -265 -152.5 -414.5t-412.5 -149.5q-265 0 -417 153.5t-152 410.5v454q0 301 -4 381h321z" glyph-name="Umacron" horiz-adv-x="1447" unicode="Ū"/><glyph d="M281 1149v192h610v-192h-610zM45 803l64 178h342q-9 -92 -9 -213v-332q0 -109 43.5 -160t116.5 -51q53 0 95.5 35.5t66.5 97.5v404q0 156 -4 219h309q-6 -61 -6 -217v-551q0 -128 18 -213h-260l-30 137q-92 -155 -283 -155q-168 0 -266.5 108t-98.5 311v402h-98z" glyph-name="umacron" horiz-adv-x="1230" unicode="ū"/><glyph d="M508 1645q0 86 63 143t156 57q94 0 157.5 -57.5t63.5 -142.5q0 -84 -63.5 -142.5t-157.5 -58.5q-92 0 -155.5 58t-63.5 143zM653 1642q0 -31 21 -54t53 -23q34 0 55 21.5t21 55.5q0 33 -21.5 54.5t-54.5 21.5q-31 0 -52.5 -21.5t-21.5 -54.5zM475 1376q-6 -92 -6 -379 v-462q0 -142 67.5 -216.5t188.5 -74.5q122 0 190 76t68 217v460q0 277 -6 379h319q-4 -92 -4 -381v-454q0 -265 -152.5 -414.5t-412.5 -149.5q-265 0 -417 153.5t-152 410.5v454q0 301 -4 381h321z" glyph-name="Uring" horiz-adv-x="1447" unicode="Ů"/><glyph d="M367 1255q0 86 63 143.5t156 57.5q94 0 157.5 -58t63.5 -143q0 -84 -63.5 -142t-157.5 -58q-92 0 -155.5 57.5t-63.5 142.5zM512 1253q0 -31 21 -54t53 -23q34 0 55 21.5t21 55.5q0 33 -21.5 54.5t-54.5 21.5q-31 0 -52.5 -21.5t-21.5 -54.5zM45 803l64 178h342 q-9 -92 -9 -213v-332q0 -109 43.5 -160t116.5 -51q53 0 95.5 35.5t66.5 97.5v404q0 156 -4 219h309q-6 -61 -6 -217v-551q0 -128 18 -213h-260l-30 137q-92 -155 -283 -155q-168 0 -266.5 108t-98.5 311v402h-98z" glyph-name="uring" horiz-adv-x="1230" unicode="ů"/><glyph d="M803 1817l-248 -332h-268l219 332h297zM1298 1817l-247 -332h-269l219 332h297zM475 1376q-6 -92 -6 -379v-462q0 -142 67.5 -216.5t188.5 -74.5q122 0 190 76t68 217v460q0 277 -6 379h319q-4 -92 -4 -381v-454q0 -265 -152.5 -414.5t-412.5 -149.5q-265 0 -417 153.5 t-152 410.5v454q0 301 -4 381h321z" glyph-name="Uhungarumlaut" horiz-adv-x="1447" unicode="Ű"/><glyph d="M662 1427l-248 -331h-269l220 331h297zM1157 1427l-248 -331h-268l219 331h297zM45 803l64 178h342q-9 -92 -9 -213v-332q0 -109 43.5 -160t116.5 -51q53 0 95.5 35.5t66.5 97.5v404q0 156 -4 219h309q-6 -61 -6 -217v-551q0 -128 18 -213h-260l-30 137 q-92 -155 -283 -155q-168 0 -266.5 108t-98.5 311v402h-98z" glyph-name="uhungarumlaut" horiz-adv-x="1230" unicode="ű"/><glyph d="M977 1376h319q-4 -92 -4 -381v-454q0 -167 -62 -290.5t-177 -191.5q-98 -81 -144.5 -157.5t-46.5 -134.5q0 -89 96 -89q50 0 105 25l24 -164q-89 -51 -223 -51q-113 0 -181.5 56.5t-68.5 152.5q0 142 123 280h-10q-265 0 -417 153.5t-152 410.5v454q0 301 -4 381h321 q-6 -92 -6 -379v-462q0 -142 67.5 -216.5t188.5 -74.5q122 0 190 76t68 217v460q0 277 -6 379z" glyph-name="Uogonek" horiz-adv-x="1447" unicode="Ų"/><glyph d="M952 -322q52 0 107 25l22 -164q-86 -51 -223 -51q-113 0 -181.5 56.5t-68.5 152.5q0 183 209 319l-26 121q-92 -155 -283 -155q-168 0 -266.5 108t-98.5 311v402h-98l64 178h342q-9 -92 -9 -213v-332q0 -109 43.5 -160t116.5 -51q53 0 95.5 35.5t66.5 97.5v404 q0 156 -4 219h309q-6 -61 -6 -217v-551q0 -128 18 -213q-223 -102 -223 -233q0 -89 94 -89z" glyph-name="uogonek" horiz-adv-x="1230" unicode="ų"/><glyph d="M692 1466l291 340h78l287 -340h-224l-102 140l-98 -140h-232zM16 1376h312l413 -893l150 353l-266 540h264l133 -284l127 284h274l-274 -549l143 -344l414 893h307q-9 -20 -135 -293l-500 -1095h-63l-297 602l-301 -602h-66l-506 1091q-33 69 -73 165t-56 132z" glyph-name="Wcircumflex" horiz-adv-x="2029" unicode="Ŵ"/><glyph d="M459 1077l291 340h77l287 -340h-223l-103 140l-98 -140h-231zM14 981h334q14 -67 53 -168l129 -360l187 528h141l191 -520l114 344q40 113 58 176h301q-76 -156 -101 -227l-272 -770h-131l-246 581l-227 -581h-137l-293 766q-22 60 -57.5 135.5t-43.5 95.5z" glyph-name="wcircumflex" horiz-adv-x="1533" unicode="ŵ"/><glyph d="M344 1466l291 340h78l286 -340h-223l-102 140l-99 -140h-231zM512 0q4 226 4 309v287l-330 526q-130 203 -170 254h369q19 -46 86 -164l211 -352l207 346q30 49 94 170h342q-52 -71 -184 -278l-316 -500v-291q0 -221 6 -307h-319z" glyph-name="Ycircumflex" horiz-adv-x="1341" unicode="Ŷ"/><glyph d="M252 1077l291 340h78l286 -340h-223l-102 140l-99 -140h-231zM14 981h355q23 -80 55 -154l178 -436l156 426q28 87 47 164h332q-34 -64 -97 -217l-352 -823q-81 -193 -172.5 -273t-216.5 -80h-184l6 242q133 0 181.5 19t88.5 94l55 116l-321 695q-41 93 -111 227z" glyph-name="ycircumflex" horiz-adv-x="1150" unicode="ŷ"/><glyph d="M297 1649q0 67 47 114t115 47t116 -47t48 -114q0 -69 -48 -116.5t-116 -47.5t-115 47.5t-47 116.5zM735 1649q0 67 47 114t115 47t116 -47t48 -114q0 -69 -48 -116.5t-116 -47.5t-115 47.5t-47 116.5zM512 0q4 226 4 309v287l-330 526q-130 203 -170 254h369 q19 -46 86 -164l211 -352l207 346q30 49 94 170h342q-52 -71 -184 -278l-316 -500v-291q0 -221 6 -307h-319z" glyph-name="Ydieresis" horiz-adv-x="1341" unicode="Ÿ"/><glyph d="M934 1817l-248 -332h-268l219 332h297zM51 0q4 6 160 293l457 827h-232q-264 0 -327 -4l-7 264q176 -4 344 -4h682l-620 -1120h287q202 0 319 6v-266q-156 4 -319 4h-744z" glyph-name="Zacute" horiz-adv-x="1200" unicode="Ź"/><glyph d="M842 1427l-248 -331h-268l219 331h297zM47 0l453 717h-234q-119 0 -166 -4l-2 272q49 -4 191 -4h659l-422 -719h242q78 0 172 4v-270q-43 4 -154 4h-739z" glyph-name="zacute" horiz-adv-x="1005" unicode="ź"/><glyph d="M438 1655q0 67 47 114.5t115 47.5t116 -47.5t48 -114.5q0 -69 -48 -116.5t-116 -47.5t-115 47.5t-47 116.5zM51 0q4 6 160 293l457 827h-232q-264 0 -327 -4l-7 264q176 -4 344 -4h682l-620 -1120h287q202 0 319 6v-266q-156 4 -319 4h-744z" glyph-name="Zdotaccent" horiz-adv-x="1200" unicode="Ż"/><glyph d="M346 1266q0 67 47 114t115 47t116 -47t48 -114q0 -69 -48 -116.5t-116 -47.5t-115 47.5t-47 116.5zM47 0l453 717h-234q-119 0 -166 -4l-2 272q49 -4 191 -4h659l-422 -719h242q78 0 172 4v-270q-43 4 -154 4h-739z" glyph-name="zdotaccent" horiz-adv-x="1005" unicode="ż"/><glyph d="M930 1808l-291 -340h-78l-287 340h224l102 -139l98 139h232zM51 0q4 6 160 293l457 827h-232q-264 0 -327 -4l-7 264q176 -4 344 -4h682l-620 -1120h287q202 0 319 6v-266q-156 4 -319 4h-744z" glyph-name="Zcaron" horiz-adv-x="1200" unicode="Ž"/><glyph d="M838 1419l-291 -340h-78l-287 340h224l102 -139l98 139h232zM47 0l453 717h-234q-119 0 -166 -4l-2 272q49 -4 191 -4h659l-422 -719h242q78 0 172 4v-270q-43 4 -154 4h-739z" glyph-name="zcaron" horiz-adv-x="1005" unicode="ž"/><glyph d="M-178 -389v252q62 -43 174 -43q52 0 88 16.5t70.5 63.5t60.5 137t47 231l47 305h-172v213h201l12 86q43 270 156 397.5t313 127.5q105 0 193 -25v-256q-67 39 -156 39q-185 0 -219 -307l-8 -62h227v-213h-256l-49 -319q-54 -356 -185 -518t-364 -162q-114 0 -180 37z" glyph-name="florin" horiz-adv-x="1120" unicode="ƒ"/><glyph d="M96 55l68 256q124 -100 285 -100q92 0 147 38t55 105q0 61 -50.5 110.5t-143.5 106.5q-51 31 -86 55t-80 64.5t-71.5 80.5t-46 98.5t-19.5 123.5q0 184 126 297t338 113q169 0 300 -62v-249q-125 75 -269 75q-83 0 -129.5 -35.5t-46.5 -93.5q0 -24 11.5 -47t26 -40 t46 -41t51 -36.5t62.5 -39.5q71 -44 124 -87.5t98 -97.5t68 -119.5t23 -140.5q0 -182 -139.5 -301t-368.5 -119q-108 0 -210.5 25.5t-168.5 60.5zM688 -86q12 -37 12 -86q0 -67 -46 -145t-115 -140l-226 43q90 108 90 205q0 53 -14 96z" glyph-name="Scommaaccent" horiz-adv-x="1097" unicode="Ș"/><glyph d="M86 41l53 235q115 -83 246 -83q59 0 91 19t32 54q0 8 -2 16t-8 15.5t-11.5 13.5t-16.5 14t-19 13t-24 13.5t-26 14t-30 15.5t-31 16q-48 25 -82.5 49t-69.5 60t-53 85t-18 109q0 144 99.5 221.5t277.5 77.5q120 0 270 -47v-233q-128 74 -240 74q-110 0 -110 -70 q0 -16 8.5 -30t30 -28.5t36 -23.5t51 -27t50.5 -26q44 -23 77.5 -47.5t67.5 -60.5t53 -85.5t19 -107.5q0 -143 -105.5 -227.5t-300.5 -84.5q-81 0 -170.5 17t-144.5 49zM604 -86q12 -37 12 -86q0 -67 -46 -145t-115 -140l-226 43q90 108 90 205q0 53 -14 96z" glyph-name="scommaaccent" horiz-adv-x="897" unicode="ș"/><glyph d="M481 0q6 150 6 356v506q0 184 -4 258h-84q-212 0 -340 -8v268q90 -4 347 -4h481q194 0 346 4l-8 -268q-128 8 -342 8h-82q-2 -57 -2 -258v-506q0 -204 8 -356h-326zM815 -86q12 -37 12 -86q0 -67 -46 -145t-115 -140l-226 43q90 108 90 205q0 53 -14 96z" glyph-name="uni021A" horiz-adv-x="1288" unicode="Ț"/><glyph d="M63 750v231h142v88q0 59 -4 141l305 37q-4 -102 -4 -184v-82h264l-39 -231h-225v-326q0 -97 33.5 -144t107.5 -47q42 0 84 21l43 -213q-40 -24 -105 -40.5t-112 -16.5q-163 0 -255.5 96.5t-92.5 277.5v392h-142zM629 -86q12 -37 12 -86q0 -67 -46.5 -144.5t-115.5 -140.5 l-225 43q90 108 90 205q0 53 -14 96z" glyph-name="uni021B" horiz-adv-x="849" unicode="ț"/><glyph d="M-111 -449v246h115q162 0 162 264v705q0 134 -8 215h317q-6 -77 -6 -209v-727q0 -99 -21.5 -185t-65 -156.5t-118 -111.5t-172.5 -41h-203z" glyph-name="uni0237" horiz-adv-x="626" unicode="ȷ"/><glyph d="M-631 1427h297l219 -331h-268z" glyph-name="gravecomb" horiz-adv-x="0" unicode="̀"/><glyph d="M-115 1427l-247 -331h-269l219 331h297z" glyph-name="acutecomb" horiz-adv-x="0" unicode="́"/><glyph d="M-778 1077l291 340h77l287 -340h-223l-103 140l-98 -140h-231z" glyph-name="uni0302" horiz-adv-x="0" unicode="̂"/><glyph d="M-801 1104q3 102 65 180t161 78q48 0 94.5 -21.5t83 -43t59.5 -21.5q59 0 62 74h172q-2 -48 -15.5 -93.5t-39 -83t-66.5 -60.5t-92 -23q-52 0 -100 21.5t-83 43t-55 21.5q-58 0 -61 -72h-185z" glyph-name="tildecomb" horiz-adv-x="0" unicode="̃"/><glyph d="M-762 1149v192h610v-192h-610z" glyph-name="uni0304" horiz-adv-x="0" unicode="̄"/><glyph d="M-541 1399q1 -50 32.5 -78.5t76.5 -28.5q44 0 76.5 29t36.5 78h198q-6 -128 -95 -213.5t-216 -85.5q-126 0 -215 88t-94 211h200z" glyph-name="uni0306" horiz-adv-x="0" unicode="̆"/><glyph d="M-459 1266q0 67 47 114t115 47t116 -47t48 -114q0 -69 -48 -116.5t-116 -47.5t-115 47.5t-47 116.5z" glyph-name="uni0307" horiz-adv-x="0" unicode="̇"/><glyph d="M-881 1266q0 67 47 114t115 47t116 -47t48 -114q0 -69 -48 -116.5t-116 -47.5t-115 47.5t-47 116.5zM-442 1266q0 68 47 114.5t114 46.5q68 0 116 -47t48 -114q0 -69 -48 -116.5t-116 -47.5t-114.5 47.5t-46.5 116.5z" glyph-name="uni0308" horiz-adv-x="0" unicode="̈"/><glyph d="M-635 1255q0 86 63 143.5t156 57.5q94 0 157.5 -58t63.5 -143q0 -84 -63.5 -142t-157.5 -58q-92 0 -155.5 57.5t-63.5 142.5zM-489 1253q0 -31 20.5 -54t52.5 -23q34 0 55 21.5t21 55.5q0 33 -21.5 54.5t-54.5 21.5q-31 0 -52 -21.5t-21 -54.5z" glyph-name="uni030A" horiz-adv-x="0" unicode="̊"/><glyph d="M-610 1427l-248 -331h-268l219 331h297zM-115 1427l-247 -331h-269l219 331h297z" glyph-name="uni030B" horiz-adv-x="0" unicode="̋"/><glyph d="M-125 1419l-291 -340h-78l-286 340h223l102 -139l99 139h231z" glyph-name="uni030C" horiz-adv-x="0" unicode="̌"/><glyph d="M-561 1053q-12 37 -12 86q0 67 46 144t115 140l226 -43q-90 -108 -90 -204q0 -54 14 -97z" glyph-name="uni0312" horiz-adv-x="0" unicode="̒"/><glyph d="M-199 -86q13 -41 13 -86q0 -67 -46.5 -144.5t-115.5 -140.5l-225 43q90 108 90 205q0 49 -15 96z" glyph-name="uni0326" horiz-adv-x="0" unicode="̦"/><glyph d="M-408 41h148l-62 -121q172 -35 172 -201q0 -99 -69.5 -158t-198.5 -59q-86 0 -157 27l4 141q68 -22 116 -22q51 0 80 18.5t29 50.5q0 36 -34 54t-87 18q-43 0 -70 -8z" glyph-name="uni0327" horiz-adv-x="0" unicode="̧"/><glyph d="M-170 111l84 -111q-223 -102 -223 -233q0 -89 94 -89q51 0 106 25l23 -164q-86 -51 -223 -51q-113 0 -181.5 56.5t-68.5 152.5q0 126 94 225t295 189z" glyph-name="uni0328" horiz-adv-x="0" unicode="̨"/><glyph d="M631 1427l-248 -331h-268l219 331h297z" glyph-name="tonos" horiz-adv-x="745" unicode="΄"/><glyph d="M885 1427l-248 -331h-268l219 331h297zM76 1255q0 56 39 96t96 40q55 0 95 -40t40 -96t-39 -95.5t-96 -39.5q-56 0 -95.5 39t-39.5 96zM889 1255q0 56 39 96t96 40q55 0 95 -40t40 -96q0 -55 -39.5 -95t-95.5 -40t-95.5 39t-39.5 96z" glyph-name="dieresistonos" horiz-adv-x="1228" unicode="΅"/><glyph d="M20 0q20 36 36.5 68t35 70.5t30.5 64.5t37 81.5t40 88.5l463 1024h92l485 -1045q106 -222 180 -352h-354l-111 272h-520l-110 -272h-304zM494 1376l-248 -332h-269l220 332h297zM524 498h338l-172 422z" glyph-name="Alphatonos" horiz-adv-x="1439" unicode="Ά"/><glyph d="M297 885q78 0 134 -55.5t56 -133.5t-56 -134t-134 -56q-77 0 -132.5 56t-55.5 134t55.5 133.5t132.5 55.5z" glyph-name="anoteleia" horiz-adv-x="595" unicode="·"/><glyph d="M649 0q6 231 6 350v676q0 264 -6 350h488q212 0 329 6l-47 -264q-72 6 -329 6h-125v-290h127q231 0 315 4v-260q-84 6 -315 6h-127v-330h174q235 0 315 4v-262q-80 4 -313 4h-492zM557 1378l-248 -331h-268l219 331h297z" glyph-name="Epsilontonos" horiz-adv-x="1585" unicode="Έ"/><glyph d="M557 1376l-248 -332h-268l219 332h297zM653 0q6 78 6 297v723q0 278 -6 356h320q-4 -94 -4 -397v-135h565v184q0 228 -8 348h323q-8 -185 -8 -356v-744q0 -159 8 -276h-323q8 91 8 291v303h-565v-305q0 -211 4 -289h-320z" glyph-name="Etatonos" horiz-adv-x="2015" unicode="Ή"/><glyph d="M557 1378l-248 -331h-268l219 331h297zM621 0q6 86 6 375v612q0 301 -6 389h321q-6 -72 -6 -389v-612q0 -287 6 -375h-321z" glyph-name="Iotatonos" horiz-adv-x="1107" unicode="Ί"/><glyph d="M451 692q0 200 95.5 362.5t262.5 254.5t371 92q207 0 375.5 -94t264 -258.5t95.5 -364.5q0 -201 -96 -363.5t-262.5 -254t-370.5 -91.5q-155 0 -291.5 55t-234 149.5t-153.5 228t-56 284.5zM557 1376l-248 -332h-268l219 332h297zM766 688q0 -199 118 -329t302 -130 q181 0 297 129.5t116 327.5q0 197 -118 329t-299 132t-298.5 -130t-117.5 -329z" glyph-name="Omicrontonos" horiz-adv-x="2011" unicode="Ό"/><glyph d="M557 1376l-248 -332h-268l219 332h297zM1161 0q4 226 4 309v287l-329 526q-130 203 -170 254h368q19 -46 86 -164l211 -352l207 346q30 49 94 170h342q-52 -71 -184 -278l-315 -500v-291q0 -221 6 -307h-320z" glyph-name="Upsilontonos" horiz-adv-x="1990" unicode="Ύ"/><glyph d="M416 -6v264q84 -6 239 -6h88q-268 202 -268 508q0 147 58 268t157 200t230 122t278 43q208 0 374.5 -81.5t259.5 -226.5t93 -327q0 -162 -75.5 -291t-198.5 -215h75q168 0 254 6v-264q-80 6 -352 6h-285v274q120 79 189.5 193t69.5 254q0 181 -112 294t-292 113 q-184 0 -292.5 -111t-108.5 -296q0 -136 67 -252.5t189 -194.5v-274h-303q-256 0 -334 -6zM557 1378l-248 -331h-268l219 331h297z" glyph-name="Omegatonos" horiz-adv-x="2060" unicode="Ώ"/><glyph d="M582 1427l-248 -331h-268l219 331h297zM-227 1255q0 56 39 96t96 40q55 0 95 -40t40 -96t-39 -95.5t-96 -39.5q-56 0 -95.5 39t-39.5 96zM586 1255q0 56 39 96t96 40q55 0 95 -40t40 -96q0 -55 -40 -95t-95 -40q-56 0 -95.5 39t-39.5 96zM154 0q8 71 8 203v567 q0 143 -10 211h317q-8 -73 -8 -205v-573q0 -140 8 -203h-315z" glyph-name="iotadieresistonos" horiz-adv-x="618" unicode="ΐ"/><glyph d="M20 0q20 36 36.5 68t35 70.5t30.5 64.5t37 81.5t40 88.5l463 1024h92l485 -1045q106 -222 180 -352h-354l-111 272h-520l-110 -272h-304zM524 498h338l-172 422z" glyph-name="Alpha" horiz-adv-x="1439" unicode="Α"/><glyph d="M166 0q8 107 8 360v607q0 341 -6 409h448q85 0 164 -20.5t144 -60.5t104 -106.5t39 -150.5q0 -92 -51 -166t-135 -106q114 -35 188 -127.5t74 -216.5q0 -86 -29 -157t-78 -119.5t-115.5 -81.5t-141 -48.5t-154.5 -15.5h-459zM768 1001q0 75 -48.5 125t-131.5 50h-105 v-351h111q76 0 125 48t49 128zM829 418q0 92 -57 149.5t-154 57.5h-135v-416h125q104 0 162.5 54.5t58.5 154.5z" glyph-name="Beta" horiz-adv-x="1245" unicode="Β"/><glyph d="M166 0q6 88 6 358v658q0 227 -6 360h491q261 0 349 6l-9 -270q-66 4 -335 4h-181v-760q0 -262 6 -356h-321z" glyph-name="Gamma" horiz-adv-x="1062" unicode="Γ"/><glyph d="M20 0q64 116 154 313l483 1084h93l493 -1096q104 -221 150 -301h-1373zM692 920l-264 -672h528z" glyph-name="uni0394" horiz-adv-x="1413" unicode="Δ"/><glyph d="M166 0q6 231 6 350v676q0 264 -6 350h487q213 0 330 6l-47 -264q-72 6 -330 6h-125v-290h127q232 0 316 4v-260q-84 6 -316 6h-127v-330h174q236 0 316 4v-262q-80 4 -314 4h-491z" glyph-name="Epsilon" horiz-adv-x="1101" unicode="Ε"/><glyph d="M51 0q4 6 160 293l457 827h-232q-264 0 -327 -4l-7 264q176 -4 344 -4h682l-620 -1120h287q202 0 319 6v-266q-156 4 -319 4h-744z" glyph-name="Zeta" horiz-adv-x="1200" unicode="Ζ"/><glyph d="M166 0q6 78 6 297v723q0 278 -6 356h319q-4 -94 -4 -397v-135h566v184q0 213 -9 348h324q-8 -185 -8 -356v-744q0 -159 8 -276h-324q9 102 9 291v303h-566v-305q0 -211 4 -289h-319z" glyph-name="Eta" horiz-adv-x="1527" unicode="Η"/><glyph d="M96 692q0 200 95.5 362.5t262.5 254.5t371 92q155 0 292 -55.5t234 -150.5t153.5 -228t56.5 -283q0 -201 -96 -363.5t-263 -254t-371 -91.5q-155 0 -291.5 55t-234 149.5t-153.5 228t-56 284.5zM412 688q0 -199 117.5 -329t301.5 -130q181 0 297.5 130t116.5 327 t-118.5 329t-299.5 132t-298 -130t-117 -329zM936 797q119 0 182 4v-215q-106 4 -186 4h-221q-79 0 -185 -4v215q18 0 90 -2t93 -2h227z" glyph-name="Theta" horiz-adv-x="1656" unicode="Θ"/><glyph d="M166 0q6 86 6 375v612q0 301 -6 389h321q-6 -72 -6 -389v-612q0 -287 6 -375h-321z" glyph-name="Iota" horiz-adv-x="653" unicode="Ι"/><glyph d="M166 0q6 86 6 350v676q0 209 -6 350h321q-4 -92 -4 -350v-291l295 402q116 166 162 239h342q-9 -12 -147 -200l-347 -455l379 -471q14 -16 48 -58t75.5 -91.5t85.5 -100.5h-413q-22 36 -132 184l-348 445v-279q0 -252 4 -350h-321z" glyph-name="Kappa" horiz-adv-x="1394" unicode="Κ"/><glyph d="M1393 0h-349l-352 846l-354 -846h-322q18 32 142 279l516 1124h61l510 -1114q98 -208 148 -289z" glyph-name="Lambda" horiz-adv-x="1409" unicode="Λ"/><glyph d="M94 0q3 45 14.5 170.5t14.5 177.5l72 1032h241l441 -782l440 782h235l60 -1054q9 -180 24 -326h-305q-2 120 -14 299l-31 520l-381 -657h-63l-385 657l-33 -516q-2 -45 -12 -303h-318z" glyph-name="Mu" horiz-adv-x="1728" unicode="Μ"/><glyph d="M166 0q6 80 6 291v727q0 244 -6 381h96l782 -809v432q0 233 -6 354h308q-9 -196 -9 -350v-733q0 -171 6 -309h-94l-782 817v-516q0 -168 6 -285h-307z" glyph-name="Nu" horiz-adv-x="1513" unicode="Ν"/><glyph d="M125 1380q66 -4 244 -4h409q78 0 269 6v-278q-160 4 -269 4h-409q-118 0 -244 -4v276zM158 842q59 -2 227 -2h375q17 0 49.5 0.5t93 1.5t109.5 2v-277q-80 4 -252 4h-375q-174 0 -227 -4v275zM113 274q57 -4 288 -4h349q137 0 309 4v-278q-176 4 -309 4h-351 q-126 0 -286 -4v278z" glyph-name="Xi" horiz-adv-x="1173" unicode="Ξ"/><glyph d="M96 692q0 200 95.5 362.5t262.5 254.5t371 92q155 0 292 -55.5t234 -150.5t153.5 -228t56.5 -283q0 -201 -96 -363.5t-263 -254t-371 -91.5q-155 0 -291.5 55t-234 149.5t-153.5 228t-56 284.5zM412 688q0 -199 117.5 -329t301.5 -130q181 0 297.5 130t116.5 327 t-118.5 329t-299.5 132t-298 -130t-117 -329z" glyph-name="Omicron" horiz-adv-x="1656" unicode="Ο"/><glyph d="M166 0q10 190 10 348v1028h1149v-1032q0 -242 6 -344h-325q10 165 10 346v772h-531v-770q0 -228 9 -348h-328z" glyph-name="Pi" horiz-adv-x="1499" unicode="Π"/><glyph d="M1118 920q0 -201 -135.5 -321t-382.5 -120h-119v-127q0 -248 8 -352h-323q8 104 8 358v682q0 243 -8 336h434q236 0 377 -122t141 -334zM805 926q0 92 -62.5 153.5t-167.5 61.5h-94v-430h94q103 0 166.5 61t63.5 154z" glyph-name="Rho" horiz-adv-x="1200" unicode="Ρ"/><glyph d="M29 0l475 698l-469 678h790q242 0 318 4l-8 -243q-106 2 -318 2h-303l307 -441l-317 -460h317q218 0 322 2v-244q-63 4 -279 4h-835z" glyph-name="Sigma" horiz-adv-x="1259" unicode="Σ"/><glyph d="M481 0q6 150 6 356v506q0 184 -4 258h-84q-212 0 -340 -8v268q90 -4 347 -4h481q194 0 346 4l-8 -268q-128 8 -342 8h-82q-2 -57 -2 -258v-506q0 -204 8 -356h-326z" glyph-name="Tau" horiz-adv-x="1288" unicode="Τ"/><glyph d="M512 0q4 226 4 309v287l-330 526q-130 203 -170 254h369q19 -46 86 -164l211 -352l207 346q30 49 94 170h342q-52 -71 -184 -278l-316 -500v-291q0 -221 6 -307h-319z" glyph-name="Upsilon" horiz-adv-x="1341" unicode="Υ"/><glyph d="M96 688q0 264 167.5 436t428.5 197q0 90 -4 125h291q-2 -35 -2 -125q170 -17 304.5 -98t213 -220.5t78.5 -314.5q0 -255 -167.5 -424t-428.5 -194q0 -90 2 -127h-289q2 25 2 127q-261 25 -428.5 194t-167.5 424zM1270 688q0 152 -80.5 258t-214.5 121v-741 q135 13 215 116.5t80 245.5zM399 688q0 -141 80 -244t215 -118v739q-134 -13 -214.5 -119t-80.5 -258z" glyph-name="Phi" horiz-adv-x="1669" unicode="Φ"/><glyph d="M18 0q98 126 215 305l248 387l-241 381q-117 184 -203 303h369q53 -100 100 -178l147 -250l156 260q22 38 53.5 95t40.5 73h342q-76 -95 -203 -289l-237 -370l248 -385q139 -215 227 -332h-371q-16 35 -100 170l-174 287l-191 -314l-82 -143h-344z" glyph-name="Chi" horiz-adv-x="1298" unicode="Χ"/><glyph d="M393 1376q7 -68 10 -303q0 -352 250 -401v422q0 219 -4 282h305q-4 -70 -4 -282v-424q130 34 190 130t60 273q0 166 10 303h308q-23 -105 -23 -301q-3 -283 -149 -457t-396 -210v-109q0 -229 4 -299h-305q4 88 4 299v107q-255 40 -399 215t-145 454q-3 202 -21 301h305z" glyph-name="Psi" horiz-adv-x="1603" unicode="Ψ"/><glyph d="M80 -6v264q84 -6 239 -6h89q-269 203 -269 508q0 147 58 268t157 200t230 122t278 43q208 0 374.5 -81.5t259.5 -226.5t93 -327q0 -162 -75.5 -291t-198.5 -215h76q168 0 254 6v-264q-80 6 -353 6h-284v274q120 79 189 192.5t69 254.5q0 181 -112 294t-292 113 q-184 0 -292.5 -111t-108.5 -296q0 -136 67 -252.5t189 -194.5v-274h-303q-256 0 -334 -6z" glyph-name="uni03A9" horiz-adv-x="1724" unicode="Ω"/><glyph d="M-59 1649q0 67 46.5 114t114.5 47t116 -47t48 -114q0 -69 -48 -116.5t-116 -47.5t-114.5 47.5t-46.5 116.5zM379 1649q0 67 47 114t115 47t116 -47t48 -114q0 -69 -48 -116.5t-116 -47.5t-115 47.5t-47 116.5zM166 0q6 86 6 375v612q0 301 -6 389h321q-6 -72 -6 -389 v-612q0 -287 6 -375h-321z" glyph-name="Iotadieresis" horiz-adv-x="653" unicode="Ϊ"/><glyph d="M293 1649q0 67 47 114t115 47t115.5 -47t47.5 -114q0 -69 -47.5 -116.5t-115.5 -47.5t-115 47.5t-47 116.5zM731 1649q0 67 47 114t115 47t116 -47t48 -114q0 -69 -48 -116.5t-116 -47.5t-115 47.5t-47 116.5zM512 0q4 226 4 309v287l-330 526q-130 203 -170 254h369 q19 -46 86 -164l211 -352l207 346q30 49 94 170h342q-52 -71 -184 -278l-316 -500v-291q0 -221 6 -307h-319z" glyph-name="Upsilondieresis" horiz-adv-x="1341" unicode="Ϋ"/><glyph d="M965 1427l-248 -331h-268l219 331h297zM82 483q0 137 50.5 254t148.5 189.5t225 72.5q98 0 175 -46t124 -136q12 73 37 164l276 -10q-69 -252 -92 -424q45 -324 123 -324q16 0 39 13l31 -211q-85 -48 -162 -48q-163 0 -223 218q-58 -110 -137.5 -164t-198.5 -54 q-94 0 -174 43t-132 114.5t-81 162t-29 186.5zM387 487q0 -106 56.5 -182t134.5 -76q70 0 119 67t89 193q-77 256 -211 256q-79 0 -133.5 -74t-54.5 -184z" glyph-name="alphatonos" horiz-adv-x="1255" unicode="ά"/><glyph d="M844 1427l-248 -331h-268l219 331h297zM850 35q-158 -51 -324 -51q-200 0 -320 83.5t-120 213.5q0 90 57.5 151t149.5 82q-79 25 -126.5 78t-47.5 133q0 125 109.5 200.5t301.5 75.5q183 0 304 -51l-13 -221q-109 53 -256 53q-153 0 -153 -92q0 -45 38 -71t109 -27 q127 0 143 2v-203q-18 6 -116 6q-109 0 -158 -21.5t-49 -70.5q0 -104 168 -104q73 0 162.5 18.5t140.5 48.5v-233z" glyph-name="epsilontonos" horiz-adv-x="960" unicode="έ"/><glyph d="M920 1427l-248 -331h-269l220 331h297zM45 803l64 178h323l4 -119q98 135 295 135q344 0 344 -446v-834q0 -182 4 -239h-301q4 66 4 241v867q0 79 -45 123.5t-116 44.5q-112 0 -185 -129v-383q0 -183 4 -242h-301q6 99 6 242v561h-100z" glyph-name="etatonos" horiz-adv-x="1202" unicode="ή"/><glyph d="M631 1427l-248 -331h-268l219 331h297zM154 0q8 71 8 203v567q0 143 -10 211h317q-8 -73 -8 -205v-573q0 -140 8 -203h-315z" glyph-name="iotatonos" horiz-adv-x="618" unicode="ί"/><glyph d="M842 1427l-248 -331h-268l219 331h297zM33 1255q0 56 39 96t96 40q55 0 95 -40t40 -96t-39 -95.5t-96 -39.5q-56 0 -95.5 39t-39.5 96zM846 1255q0 56 39 96t96 40q55 0 95 -40t40 -96q0 -55 -40 -95t-95 -40q-56 0 -95.5 39t-39.5 96zM145 418q0 47 13.5 140t13.5 112 q0 80 -61 80q-22 0 -41 -11l-35 213q81 47 188 47q128 0 188 -75t60 -203q0 -38 -10 -140t-10 -132q0 -112 47.5 -169t126.5 -57q192 0 192 334q0 252 -108 422h307q114 -214 114 -430q0 -266 -137.5 -416.5t-367.5 -150.5q-211 0 -345.5 118.5t-134.5 317.5z" glyph-name="upsilondieresistonos" horiz-adv-x="1212" unicode="ΰ"/><glyph d="M82 483q0 137 50.5 254t148.5 189.5t225 72.5q98 0 175 -46t124 -136q12 73 37 164l276 -10q-69 -252 -92 -424q45 -324 123 -324q16 0 39 13l31 -211q-85 -48 -162 -48q-163 0 -223 218q-58 -110 -137.5 -164t-198.5 -54q-94 0 -174 43t-132 114.5t-81 162t-29 186.5z M387 487q0 -106 56.5 -182t134.5 -76q70 0 119 67t89 193q-77 256 -211 256q-79 0 -133.5 -74t-54.5 -184z" glyph-name="alpha" horiz-adv-x="1255" unicode="α"/><glyph d="M1217 412q0 -193 -143.5 -315t-362.5 -122q-150 0 -250 35v-203q0 -190 4 -258h-313q4 148 4 261v1202q0 224 137 359.5t356 135.5q196 0 326.5 -106.5t130.5 -286.5q0 -110 -53.5 -198.5t-137.5 -124.5q132 -26 217 -124.5t85 -254.5zM905 440q0 94 -63 155.5t-166 61.5 q-61 0 -90 -8v225q28 -4 51 -4q78 0 131 63.5t53 149.5q0 78 -48 126t-126 48q-88 0 -137 -63t-49 -184v-738q85 -43 209 -43q112 0 173.5 58t61.5 153z" glyph-name="beta" horiz-adv-x="1294" unicode="β"/><glyph d="M416 -492l37 494q-5 34 -11 98.5t-11 118t-15.5 123.5t-23 125t-34 111t-48 93.5t-66 61t-86.5 23.5q-45 0 -84 -13l-68 189q64 49 207 49q74 0 134.5 -22.5t101.5 -58.5t72 -90t48 -109t27.5 -123t14 -124.5t3.5 -121.5q5 63 12.5 114.5t20.5 98.5t22.5 80t32 73.5 t34.5 62t44.5 63t47.5 59.5t58 68q19 22 29 34l234 -184q-187 -178 -268 -330q-54 -96 -88.5 -203t-67.5 -266l-2 -494h-307z" glyph-name="gamma" horiz-adv-x="1239" unicode="γ"/><glyph d="M82 455q0 149 90 263t242 171q-264 152 -264 313q0 128 121.5 200.5t328.5 72.5q117 0 236.5 -28t214.5 -77l-9 -274q-223 151 -434 151q-139 0 -139 -88q0 -16 16 -35t49 -42.5t67.5 -45t87.5 -54.5t93 -60q152 -103 234 -211t82 -246q0 -136 -72 -247.5t-187.5 -171.5 t-246.5 -60q-140 0 -256 59t-185 167t-69 243zM391 457q2 -87 59 -148t142 -61q82 0 138 63.5t56 157.5q0 83 -53.5 145.5t-136.5 102.5q-87 -26 -146.5 -93.5t-58.5 -166.5z" glyph-name="delta" horiz-adv-x="1169" unicode="δ"/><glyph d="M850 35q-158 -51 -324 -51q-200 0 -320 83.5t-120 213.5q0 90 57.5 151t149.5 82q-79 25 -126.5 78t-47.5 133q0 125 109.5 200.5t301.5 75.5q183 0 304 -51l-13 -221q-109 53 -256 53q-153 0 -153 -92q0 -45 38 -71t109 -27q127 0 143 2v-203q-18 6 -116 6 q-109 0 -158 -21.5t-49 -70.5q0 -104 168 -104q73 0 162.5 18.5t140.5 48.5v-233z" glyph-name="epsilon" horiz-adv-x="960" unicode="ε"/><glyph d="M86 453q0 189 127 396.5t346 403.5q-216 -28 -399 -28l-4 221q58 -4 194 -4q337 0 520 59l2 -241q-491 -385 -491 -730q0 -61 15.5 -104.5t49.5 -72t72.5 -45.5t99.5 -34q159 -43 231.5 -114.5t72.5 -190.5q0 -155 -113 -338l-231 64q1 3 9 19t9.5 19.5t8 18t8 19t6.5 17 t6.5 19t4.5 17.5t4 19t2 18t1 20q0 84 -141 119q-196 42 -303 156.5t-107 296.5z" glyph-name="zeta" horiz-adv-x="944" unicode="ζ"/><glyph d="M45 803l64 178h323l4 -119q98 135 295 135q344 0 344 -446v-834q0 -182 4 -239h-301q4 66 4 241v867q0 79 -45 123.5t-116 44.5q-112 0 -185 -129v-383q0 -183 4 -242h-301q6 99 6 242v561h-100z" glyph-name="eta" horiz-adv-x="1202" unicode="η"/><glyph d="M82 723q0 145 33 276.5t95 237.5t163 168.5t227 62.5q105 0 192 -42.5t147 -114.5t101.5 -168t60.5 -202t19 -218q0 -114 -20.5 -221t-63 -201t-103 -164.5t-146.5 -111.5t-187 -41q-104 0 -191 42.5t-146.5 114t-101 167t-60.5 200.5t-19 215zM379 831h444 q-14 179 -72.5 287.5t-150.5 108.5q-90 0 -148 -108t-73 -288zM379 614q18 -183 74.5 -291t146.5 -108q91 0 148 107.5t75 291.5h-444z" glyph-name="theta" horiz-adv-x="1202" unicode="θ"/><glyph d="M154 0q8 71 8 203v567q0 143 -10 211h317q-8 -73 -8 -205v-573q0 -140 8 -203h-315z" glyph-name="iota" horiz-adv-x="618" unicode="ι"/><glyph d="M154 0q4 94 4 193v555q0 138 -6 233h315q-6 -189 -6 -231v-185q90 117 257 250.5t322 190.5l142 -195q-101 -38 -212.5 -109.5t-187.5 -146.5l250 -352q72 -97 162 -203h-383q-48 86 -92 150l-141 198q-69 -72 -117 -145v-203h-307z" glyph-name="kappa" horiz-adv-x="1216" unicode="κ"/><glyph d="M14 0q53 99 111 225l321 697l-67 155q-14 34 -31 55t-34.5 33.5t-50.5 18t-63 7t-89 1.5l-7 240h183q126 0 217 -79t174 -272l362 -866q67 -159 97 -215h-332q-20 84 -47 162l-156 426l-178 -434q-32 -74 -55 -154h-355z" glyph-name="lambda" horiz-adv-x="1150" unicode="λ"/><glyph d="M45 803l64 176h340q-7 -119 -7 -207v-287q0 -131 49 -195.5t132 -64.5q59 0 107 39.5t63 100.5v397q0 141 -5 217h310q-6 -59 -6 -215v-551q0 -120 16 -213h-258l-31 141q-83 -155 -227 -155q-62 0 -102 26.5t-72 81.5q18 -93 18 -192v-226q0 -106 6 -198h-305 q6 80 6 203v1122h-98z" glyph-name="uni03BC" horiz-adv-x="1257" unicode="μ"/><glyph d="M371 981q28 -89 49 -139l180 -451q154 182 154 367q0 51 -16.5 113.5t-39.5 109.5h283q39 -161 39 -254q0 -193 -109 -369.5t-333 -380.5h-101l-346 764q-71 156 -117 240h357z" glyph-name="nu" horiz-adv-x="1081" unicode="ν"/><glyph d="M113 367q0 116 77.5 197t215.5 120q-101 27 -160.5 84.5t-59.5 138.5q0 101 100 191t240 151q-176 -30 -372 -35l-13 226q8 0 40.5 -1t63 -1.5t79.5 0.5q347 0 557 57l4 -235q-406 -135 -406 -312q0 -64 54.5 -105.5t146.5 -41.5q67 0 108 10v-223q-64 3 -110 -2 q-117 -9 -194.5 -55.5t-77.5 -116.5q0 -57 46 -89.5t152 -58.5q316 -63 316 -323q0 -88 -28 -155t-91 -155l-215 107q55 104 55 149q0 43 -40.5 76.5t-113.5 46.5q-178 31 -276 128.5t-98 226.5z" glyph-name="xi" horiz-adv-x="972" unicode="ξ"/><glyph d="M82 489q0 142 69.5 260t185.5 184t251 66q140 0 257 -68.5t184 -185.5t67 -256q0 -107 -41 -201t-110 -160t-162 -104t-195 -38q-140 0 -256.5 67t-183 182.5t-66.5 253.5zM369 489q0 -103 62.5 -177t156.5 -74q95 0 158 74t63 177q0 106 -63.5 179t-157.5 73 q-95 0 -157 -77t-62 -175z" glyph-name="omicron" horiz-adv-x="1177" unicode="ο"/><glyph d="M45 727v254h1102q121 0 168 4v-262q-49 4 -156 4h-61v-336q0 -219 35 -391h-316q-20 95 -20 348v379h-219v-727h-287v727h-246z" glyph-name="pi" horiz-adv-x="1353" unicode="π"/><glyph d="M152 483q0 246 137 386.5t352 140.5q166 0 283 -65.5t173 -177.5t56 -261q0 -143 -55.5 -261.5t-160 -189.5t-237.5 -71q-148 0 -258 82v-517h-290v934zM856 498q0 116 -58.5 189t-154.5 73q-99 0 -150 -73t-51 -204v-159q79 -91 197 -91q103 0 160 74t57 191z" glyph-name="rho" horiz-adv-x="1234" unicode="ρ"/><glyph d="M82 487q0 150 74.5 268.5t195.5 181t262 62.5q84 0 205 -22v-277q-47 23 -85 32t-101 9q-109 0 -183.5 -73.5t-74.5 -180.5q0 -94 56 -157t177 -109q147 -58 206.5 -130.5t59.5 -186.5q0 -94 -37.5 -170t-105.5 -156l-246 31q113 155 113 221q0 22 -3.5 39.5t-17 46 t-48 55t-87.5 47.5q-73 27 -133 65t-113.5 93.5t-83.5 135t-30 175.5z" glyph-name="uni03C2" horiz-adv-x="913" unicode="ς"/><glyph d="M82 487q0 225 148.5 359.5t396.5 134.5h555l-62 -256h-198q44 -54 70 -127.5t26 -146.5q0 -94 -31.5 -178.5t-89 -149t-145.5 -102t-195 -37.5q-140 0 -249 66.5t-167.5 181t-58.5 255.5zM725 467q0 159 -84 258h-35q-98 0 -164.5 -62.5t-66.5 -181.5q0 -108 50 -174.5 t124 -66.5q81 0 128.5 65t47.5 162z" glyph-name="sigma" horiz-adv-x="1191" unicode="σ"/><glyph d="M999 981l-38 -240q-67 9 -136 9h-186l-2 -355q0 -164 127 -164q36 0 78 17l41 -207q-41 -26 -101 -42.5t-110 -16.5q-154 0 -244 93.5t-90 268.5l4 406h-94q-75 0 -185 -9v224q75 16 218 16h718z" glyph-name="tau" horiz-adv-x="1079" unicode="τ"/><glyph d="M145 418q0 47 13.5 140t13.5 112q0 80 -61 80q-22 0 -41 -11l-35 213q81 47 188 47q128 0 188 -75t60 -203q0 -38 -10 -140t-10 -132q0 -112 47.5 -169t126.5 -57q192 0 192 334q0 252 -108 422h307q114 -214 114 -430q0 -266 -137.5 -416.5t-367.5 -150.5 q-211 0 -345.5 118.5t-134.5 317.5z" glyph-name="upsilon" horiz-adv-x="1212" unicode="υ"/><glyph d="M82 492q0 212 140 349.5t376 157.5v213q0 116 -8 226h280q-8 -148 -8 -224v-215q233 -22 374.5 -156.5t141.5 -348.5q0 -146 -67.5 -258.5t-182.5 -175.5t-264 -76v-197q0 -147 8 -223h-280q6 86 6 223v197q-234 19 -375 159t-141 349zM371 492q0 -106 62.5 -176 t164.5 -76v499q-102 -3 -164.5 -71t-62.5 -176zM1090 492q0 107 -62.5 175.5t-165.5 71.5v-499q102 6 165 76.5t63 175.5z" glyph-name="phi" horiz-adv-x="1460" unicode="φ"/><glyph d="M352 -442h-307l371 684l-117 329q-39 99 -75.5 140t-80.5 41q-21 0 -47 -13l-35 215q29 22 79.5 33.5t99.5 11.5q91 0 163 -53.5t113 -152.5l86 -213l205 399h307l-389 -731l111 -301q36 -86 72 -121t75 -35q33 0 53 10l35 -213q-74 -47 -176 -47q-81 0 -153.5 46 t-108.5 124l-90 211z" glyph-name="chi" horiz-adv-x="1140" unicode="χ"/><glyph d="M649 -522q0 17 2 89.5t2 129.5v285q-239 27 -391.5 167t-152.5 361q0 58 12 149t12 129q0 100 -24 191h286q31 -81 31 -195q0 -41 -10 -124.5t-10 -124.5q0 -118 68.5 -193t178.5 -98v952q0 56 -2 140t-2 102h275q-4 -70 -4 -242v-952q71 19 124 62t83.5 102t45.5 126 t15 142q0 168 -55 303h301q55 -128 55 -322q0 -125 -36.5 -239.5t-106 -208t-179.5 -154.5t-247 -73v-287q0 -156 4 -217h-275z" glyph-name="psi" horiz-adv-x="1570" unicode="ψ"/><glyph d="M82 479q0 130 42.5 251t121.5 251l325 -4q-85 -106 -133.5 -231.5t-48.5 -243.5q0 -120 35 -186t98 -66q62 0 92.5 89t30.5 230q0 139 -6 174h289q-6 -67 -6 -161q0 -149 30 -240.5t95 -91.5q62 0 96.5 67.5t34.5 184.5q0 126 -45 250.5t-129 224.5l329 4 q154 -243 154 -496q0 -107 -27 -197.5t-78 -159t-132 -107.5t-183 -39q-100 0 -177 53t-108 143q-33 -90 -112 -143t-187 -53q-101 0 -179.5 40.5t-126 110.5t-71.5 157.5t-24 188.5z" glyph-name="omega" horiz-adv-x="1568" unicode="ω"/><glyph d="M-82 1260q0 67 47 114t115 47t116 -47t48 -114q0 -69 -48 -116.5t-116 -47.5t-115 47.5t-47 116.5zM356 1260q0 67 47 114t115 47t116 -47t48 -114q0 -69 -48 -116.5t-116 -47.5t-115 47.5t-47 116.5zM154 0q8 71 8 203v567q0 143 -10 211h317q-8 -73 -8 -205v-573 q0 -140 8 -203h-315z" glyph-name="iotadieresis" horiz-adv-x="618" unicode="ϊ"/><glyph d="M178 1260q0 67 47 114t115 47t116 -47t48 -114q0 -69 -48 -116.5t-116 -47.5t-115 47.5t-47 116.5zM616 1260q0 67 47 114t115 47t116 -47t48 -114q0 -69 -48 -116.5t-116 -47.5t-115 47.5t-47 116.5zM145 418q0 47 13.5 140t13.5 112q0 80 -61 80q-22 0 -41 -11l-35 213 q81 47 188 47q128 0 188 -75t60 -203q0 -38 -10 -140t-10 -132q0 -112 47.5 -169t126.5 -57q192 0 192 334q0 252 -108 422h307q114 -214 114 -430q0 -266 -137.5 -416.5t-367.5 -150.5q-211 0 -345.5 118.5t-134.5 317.5z" glyph-name="upsilondieresis" horiz-adv-x="1212" unicode="ϋ"/><glyph d="M915 1425l-247 -331h-269l219 331h297zM82 489q0 142 69.5 260t185.5 184t251 66q140 0 257 -68.5t184 -185.5t67 -256q0 -107 -41 -201t-110 -160t-162 -104t-195 -38q-140 0 -256.5 67t-183 182.5t-66.5 253.5zM369 489q0 -103 62.5 -177t156.5 -74q95 0 158 74t63 177 q0 106 -63.5 179t-157.5 73q-95 0 -157 -77t-62 -175z" glyph-name="omicrontonos" horiz-adv-x="1177" unicode="ό"/><glyph d="M891 1427l-248 -331h-268l219 331h297zM145 418q0 47 13.5 140t13.5 112q0 80 -61 80q-22 0 -41 -11l-35 213q81 47 188 47q128 0 188 -75t60 -203q0 -38 -10 -140t-10 -132q0 -112 47.5 -169t126.5 -57q192 0 192 334q0 252 -108 422h307q114 -214 114 -430 q0 -266 -137.5 -416.5t-367.5 -150.5q-211 0 -345.5 118.5t-134.5 317.5z" glyph-name="upsilontonos" horiz-adv-x="1212" unicode="ύ"/><glyph d="M1106 1427l-248 -331h-268l219 331h297zM82 479q0 130 42.5 251t121.5 251l325 -4q-85 -106 -133.5 -231.5t-48.5 -243.5q0 -120 35 -186t98 -66q62 0 92.5 89t30.5 230q0 139 -6 174h289q-6 -67 -6 -161q0 -149 30 -240.5t95 -91.5q62 0 96.5 67.5t34.5 184.5 q0 126 -45 250.5t-129 224.5l329 4q154 -243 154 -496q0 -107 -27 -197.5t-78 -159t-132 -107.5t-183 -39q-100 0 -177 53t-108 143q-33 -90 -112 -143t-187 -53q-101 0 -179.5 40.5t-126 110.5t-71.5 157.5t-24 188.5z" glyph-name="omegatonos" horiz-adv-x="1568" unicode="ώ"/><glyph d="M147 1649q0 67 47 114t115 47t116 -47t48 -114q0 -69 -48 -116.5t-116 -47.5t-115 47.5t-47 116.5zM586 1649q0 67 47 114t115 47t115.5 -47t47.5 -114q0 -69 -47.5 -116.5t-115.5 -47.5t-115 47.5t-47 116.5zM166 0q6 231 6 350v676q0 264 -6 350h487q213 0 330 6 l-47 -264q-72 6 -330 6h-125v-290h127q232 0 316 4v-260q-84 6 -316 6h-127v-330h174q236 0 316 4v-262q-80 4 -314 4h-491z" glyph-name="uni0401" horiz-adv-x="1101" unicode="Ё"/><glyph d="M465 0q6 153 6 367v745h-86q-195 0 -326 -8v278q132 -6 322 -6h635q241 0 325 4l-8 -276q-131 8 -319 8h-219v-276q80 22 196 22q107 0 196.5 -27.5t150.5 -73.5t103 -107.5t61.5 -128.5t19.5 -138q0 -171 -122 -286t-296 -115q-114 0 -178 22l10 256q32 -14 96 -14 q67 0 116.5 42.5t49.5 108.5q0 84 -68.5 136.5t-189.5 52.5q-93 0 -145 -17v-231q0 -252 6 -338h-336z" glyph-name="uni0402" horiz-adv-x="1622" unicode="Ђ"/><glyph d="M913 1817l-247 -332h-269l219 332h297zM166 0q6 88 6 358v658q0 227 -6 360h491q261 0 349 6l-9 -270q-66 4 -335 4h-181v-760q0 -262 6 -356h-321z" glyph-name="uni0403" horiz-adv-x="1062" unicode="Ѓ"/><glyph d="M848 244q170 0 326 80v-301q-146 -46 -355 -46q-155 0 -289.5 54t-229.5 148t-149.5 225.5t-54.5 281.5q0 203 96.5 367.5t262.5 256t368 91.5q173 0 338 -51v-312q-55 43 -139 69t-174 26q-149 0 -260.5 -82.5t-155.5 -214.5h207q187 0 313 6v-264q-86 4 -313 4h-219 q34 -150 152 -244t276 -94z" glyph-name="uni0404" horiz-adv-x="1298" unicode="Є"/><glyph d="M96 55l68 256q124 -100 285 -100q92 0 147 38t55 105q0 61 -50.5 110.5t-143.5 106.5q-51 31 -86 55t-80 64.5t-71.5 80.5t-46 98.5t-19.5 123.5q0 184 126 297t338 113q169 0 300 -62v-249q-125 75 -269 75q-83 0 -129.5 -35.5t-46.5 -93.5q0 -24 11.5 -47t26 -40 t46 -41t51 -36.5t62.5 -39.5q71 -44 124 -87.5t98 -97.5t68 -119.5t23 -140.5q0 -182 -139.5 -301t-368.5 -119q-108 0 -210.5 25.5t-168.5 60.5z" glyph-name="uni0405" horiz-adv-x="1097" unicode="Ѕ"/><glyph d="M166 0q6 86 6 375v612q0 301 -6 389h321q-6 -72 -6 -389v-612q0 -287 6 -375h-321z" glyph-name="uni0406" horiz-adv-x="653" unicode="І"/><glyph d="M-53 1649q0 67 47 114t115 47t115.5 -47t47.5 -114q0 -69 -47.5 -116.5t-115.5 -47.5t-115 47.5t-47 116.5zM385 1649q0 67 47 114t115 47t116 -47t48 -114q0 -69 -48 -116.5t-116 -47.5t-115 47.5t-47 116.5zM166 0q6 86 6 375v612q0 301 -6 389h321q-6 -72 -6 -389 v-612q0 -287 6 -375h-321z" glyph-name="uni0407" horiz-adv-x="653" unicode="Ї"/><glyph d="M481 -47q0 -200 -138 -329.5t-345 -129.5q-78 0 -205 25v276q77 -41 172 -41q99 0 152 62t53 166v1038q0 270 -4 356h319q-4 -115 -4 -356v-1067z" glyph-name="uni0408" horiz-adv-x="651" unicode="Ј"/><glyph d="M1366 881q253 0 395 -113.5t142 -318.5q0 -209 -147 -329t-386 -120h-434q6 129 6 367v763h-223q-5 -30 -19 -121.5t-22.5 -145t-23.5 -135.5t-31 -150q-26 -111 -55 -196t-70.5 -162.5t-91.5 -127.5t-118.5 -79t-152.5 -29q-61 0 -90 16v256q18 -6 64 -6t86 34 t73.5 100.5t61.5 150.5t55 196q62 266 109 645h766q-9 -99 -9 -362v-133h115zM1352 236q110 0 174.5 58.5t64.5 147.5q0 94 -68 151.5t-180 57.5h-92v-415h101z" glyph-name="uni0409" horiz-adv-x="2002" unicode="Љ"/><glyph d="M1251 858q254 0 395.5 -109t141.5 -313q0 -206 -146.5 -321t-386.5 -115h-419q6 129 6 367v239h-361v-317q0 -211 4 -289h-319q6 78 6 297v723q0 278 -6 356h319q-4 -94 -4 -397v-125h361v160q0 239 -6 362h323q-8 -88 -8 -362v-156h100zM1237 236q112 0 176 53.5 t64 142.5q0 92 -66.5 143.5t-181.5 51.5h-78v-391h86z" glyph-name="uni040A" horiz-adv-x="1888" unicode="Њ"/><glyph d="M485 0q4 70 4 283v866h-120q-118 0 -310 -8v239q156 -4 310 -4h546q76 0 182.5 2t135.5 2l-6 -239q-192 8 -312 8h-124v-275q89 82 235 82q188 0 300 -118.5t112 -319.5v-289q0 -176 6 -229h-314q7 98 7 301v250q0 74 -46.5 118t-121.5 44q-124 0 -178 -99v-331 q0 -195 8 -283h-314z" glyph-name="uni040B" horiz-adv-x="1544" unicode="Ћ"/><glyph d="M1036 1817l-248 -332h-268l219 332h297zM166 0q6 132 6 334v710q0 206 -6 332h319q-4 -82 -4 -327v-242h105q58 0 104.5 51t91.5 137q62 114 115 226t76 155h358q-23 -31 -55 -85t-89.5 -156t-82.5 -146q-3 -6 -19.5 -35t-22 -37.5t-21 -34t-23.5 -36t-23.5 -31.5 t-28 -32.5t-29 -26.5t-33.5 -25.5t-36 -19.5q72 -37 126.5 -106t125.5 -197q12 -21 51.5 -94t62.5 -114t60 -100t68 -100h-406q-78 158 -190 403q-38 83 -75 129t-89 46h-121v-242q0 -248 4 -336h-319z" glyph-name="uni040C" horiz-adv-x="1396" unicode="Ќ"/><glyph d="M289 1806h213q1 -56 31.5 -86t82.5 -30q53 0 84.5 30t32.5 86h213q-5 -138 -98 -228.5t-232 -90.5t-232 92.5t-95 226.5zM147 -2v254h117q85 0 126 28t87 123l-350 752q-40 87 -111 223h349q14 -57 61 -164l211 -493l178 479q29 73 57 178h326q-31 -61 -111 -245 l-333 -766q-89 -205 -186.5 -287t-229.5 -82h-191z" glyph-name="uni040E" horiz-adv-x="1214" unicode="Ў"/><glyph d="M166 1376h330q-11 -136 -11 -350v-764h555v768q0 158 -8 346h326q-8 -82 -8 -344v-1032h-445v-70q0 -60 6 -336h-290l6 345v61h-451v1028q0 178 -10 348z" glyph-name="uni040F" horiz-adv-x="1523" unicode="Џ"/><glyph d="M20 0q20 36 36.5 68t35 70.5t30.5 64.5t37 81.5t40 88.5l463 1024h92l485 -1045q106 -222 180 -352h-354l-111 272h-520l-110 -272h-304zM524 498h338l-172 422z" glyph-name="uni0410" horiz-adv-x="1439" unicode="А"/><glyph d="M166 0v1376h483q260 0 348 6l-8 -270q-66 4 -336 4h-178v-235h115q253 0 394.5 -113.5t141.5 -318.5q0 -209 -146.5 -329t-385.5 -120h-428zM815 442q0 94 -68 151.5t-180 57.5h-92v-415h100q110 0 175 58.5t65 147.5z" glyph-name="uni0411" horiz-adv-x="1226" unicode="Б"/><glyph d="M166 0q8 107 8 360v607q0 341 -6 409h448q85 0 164 -20.5t144 -60.5t104 -106.5t39 -150.5q0 -92 -51 -166t-135 -106q114 -35 188 -127.5t74 -216.5q0 -86 -29 -157t-78 -119.5t-115.5 -81.5t-141 -48.5t-154.5 -15.5h-459zM768 1001q0 75 -48.5 125t-131.5 50h-105 v-351h111q76 0 125 48t49 128zM829 418q0 92 -57 149.5t-154 57.5h-135v-416h125q104 0 162.5 54.5t58.5 154.5z" glyph-name="uni0412" horiz-adv-x="1245" unicode="В"/><glyph d="M166 0q6 88 6 358v658q0 227 -6 360h491q261 0 349 6l-9 -270q-66 4 -335 4h-181v-760q0 -262 6 -356h-321z" glyph-name="uni0413" horiz-adv-x="1062" unicode="Г"/><glyph d="M82 -406q4 98 4 308v346l131 -2q142 191 233 455.5t140 676.5h772v-1132h158v-326q0 -38 6 -326h-283l4 404l-887 2l5 -406h-283zM1063 246v884h-254q-68 -555 -264 -882z" glyph-name="uni0414" horiz-adv-x="1595" unicode="Д"/><glyph d="M166 0q6 231 6 350v676q0 264 -6 350h487q213 0 330 6l-47 -264q-72 6 -330 6h-125v-290h127q232 0 316 4v-260q-84 6 -316 6h-127v-330h174q236 0 316 4v-262q-80 4 -314 4h-491z" glyph-name="uni0415" horiz-adv-x="1101" unicode="Е"/><glyph d="M29 0q31 39 72 110.5t67 122.5t88 175q123 236 238 297q-104 55 -218 294q-105 220 -219 377h355l161 -327q74 -152 112 -197t95 -45h60v268q0 135 -9 301h322q-1 -33 -2.5 -94.5t-2.5 -111t-1 -93.5v-270h59q57 0 95 45t112 197l162 327h354q-114 -157 -219 -377 q-114 -239 -217 -294q115 -61 238 -297q154 -315 227 -408h-395l-144 330q-68 158 -111.5 211t-101.5 53h-59v-279q0 -45 1 -97t2.5 -116t2.5 -102h-322q9 176 9 315v279h-60q-59 0 -104.5 -53t-110.5 -211l-141 -330h-395z" glyph-name="uni0416" horiz-adv-x="1986" unicode="Ж"/><glyph d="M170 35v262q49 -29 119.5 -47.5t138.5 -18.5q105 0 165 48.5t60 136.5q0 76 -59 122t-152 46q-44 0 -96 -6v237q66 -4 90 -4q87 0 137 42.5t50 113.5t-50.5 115t-134.5 44q-139 0 -256 -67v258q56 26 141 42.5t173 16.5q199 0 316.5 -96t117.5 -258q0 -221 -244 -305 q135 -41 209 -130.5t74 -209.5q0 -183 -130.5 -290t-351.5 -107q-172 0 -317 55z" glyph-name="uni0417" horiz-adv-x="1069" unicode="З"/><glyph d="M1348 0h-308q7 136 7 285v516l-783 -817h-94q6 138 6 309v733q0 175 -8 350h307q-6 -121 -6 -354v-432l782 809h97q-7 -160 -7 -381v-727q0 -198 7 -291z" glyph-name="uni0418" horiz-adv-x="1513" unicode="И"/><glyph d="M424 1806h213q1 -56 32 -86t83 -30q53 0 84 30t32 86h213q-5 -138 -97.5 -228.5t-231.5 -90.5t-232.5 92.5t-95.5 226.5zM1348 0h-308q7 136 7 285v516l-783 -817h-94q6 138 6 309v733q0 175 -8 350h307q-6 -121 -6 -354v-432l782 809h97q-7 -160 -7 -381v-727 q0 -198 7 -291z" glyph-name="uni0419" horiz-adv-x="1513" unicode="Й"/><glyph d="M166 0q6 132 6 334v710q0 206 -6 332h319q-4 -82 -4 -327v-242h105q58 0 104.5 51t91.5 137q62 114 115 226t76 155h358q-23 -31 -55 -85t-89.5 -156t-82.5 -146q-3 -6 -19.5 -35t-22 -37.5t-21 -34t-23.5 -36t-23.5 -31.5t-28 -32.5t-29 -26.5t-33.5 -25.5t-36 -19.5 q72 -37 126.5 -106t125.5 -197q12 -21 51.5 -94t62.5 -114t60 -100t68 -100h-406q-78 158 -190 403q-38 83 -75 129t-89 46h-121v-242q0 -248 4 -336h-319z" glyph-name="uni041A" horiz-adv-x="1396" unicode="К"/><glyph d="M45 0v256q18 -6 64 -6t86 34t73.5 100.5t61.5 150.5t55 196q62 266 109 645h815v-1057q0 -94 1.5 -167t3 -109.5t1.5 -42.5h-326q10 146 10 324v806h-280q-5 -30 -19 -121.5t-22.5 -145t-23.5 -135.5t-31 -150q-26 -111 -55 -196t-70.5 -162.5t-91.5 -127.5t-118.5 -79 t-152.5 -29q-61 0 -90 16z" glyph-name="uni041B" horiz-adv-x="1482" unicode="Л"/><glyph d="M94 0q3 45 14.5 170.5t14.5 177.5l72 1032h241l441 -782l440 782h235l60 -1054q9 -180 24 -326h-305q-2 120 -14 299l-31 520l-381 -657h-63l-385 657l-33 -516q-2 -45 -12 -303h-318z" glyph-name="uni041C" horiz-adv-x="1728" unicode="М"/><glyph d="M166 0q6 78 6 297v723q0 278 -6 356h319q-4 -94 -4 -397v-135h566v184q0 213 -9 348h324q-8 -185 -8 -356v-744q0 -159 8 -276h-324q9 102 9 291v303h-566v-305q0 -211 4 -289h-319z" glyph-name="uni041D" horiz-adv-x="1527" unicode="Н"/><glyph d="M96 692q0 200 95.5 362.5t262.5 254.5t371 92q155 0 292 -55.5t234 -150.5t153.5 -228t56.5 -283q0 -201 -96 -363.5t-263 -254t-371 -91.5q-155 0 -291.5 55t-234 149.5t-153.5 228t-56 284.5zM412 688q0 -199 117.5 -329t301.5 -130q181 0 297.5 130t116.5 327 t-118.5 329t-299.5 132t-298 -130t-117 -329z" glyph-name="uni041E" horiz-adv-x="1656" unicode="О"/><glyph d="M166 0q10 190 10 348v1028h1149v-1032q0 -242 6 -344h-325q10 165 10 346v772h-531v-770q0 -228 9 -348h-328z" glyph-name="uni041F" horiz-adv-x="1499" unicode="П"/><glyph d="M1118 920q0 -201 -135.5 -321t-382.5 -120h-119v-127q0 -248 8 -352h-323q8 104 8 358v682q0 243 -8 336h434q236 0 377 -122t141 -334zM805 926q0 92 -62.5 153.5t-167.5 61.5h-94v-430h94q103 0 166.5 61t63.5 154z" glyph-name="uni0420" horiz-adv-x="1200" unicode="Р"/><glyph d="M96 686q0 203 96.5 367.5t262.5 256t368 91.5q173 0 338 -51v-312q-55 43 -139 69t-174 26q-189 0 -314.5 -129.5t-125.5 -315.5q0 -125 58.5 -227t159 -159.5t222.5 -57.5q170 0 326 80v-301q-146 -46 -355 -46q-155 0 -289.5 54t-229.5 148t-149.5 225.5t-54.5 281.5z" glyph-name="uni0421" horiz-adv-x="1298" unicode="С"/><glyph d="M481 0q6 150 6 356v506q0 184 -4 258h-84q-212 0 -340 -8v268q90 -4 347 -4h481q194 0 346 4l-8 -268q-128 8 -342 8h-82q-2 -57 -2 -258v-506q0 -204 8 -356h-326z" glyph-name="uni0422" horiz-adv-x="1288" unicode="Т"/><glyph d="M147 -2v254h117q85 0 126 28t87 123l-350 752q-40 87 -111 223h349q14 -57 61 -164l211 -493l178 479q29 73 57 178h326q-31 -61 -111 -245l-333 -766q-89 -205 -186.5 -287t-229.5 -82h-191z" glyph-name="uni0423" horiz-adv-x="1214" unicode="У"/><glyph d="M96 676q0 129 45 232t126 170.5t185 107t228 51.5q0 115 -2 139h295q-2 -26 -2 -135q124 -13 227.5 -53t183 -108t124 -171.5t44.5 -232.5q0 -124 -44.5 -223.5t-124 -164.5t-183.5 -104t-229 -51q0 -98 2 -145h-293q2 21 2 143q-126 12 -230 51t-184.5 104.5t-125 165 t-44.5 224.5zM401 678q0 -132 73 -207t210 -86v600q-137 -12 -210 -90t-73 -217zM1247 678q0 138 -72.5 216.5t-207.5 90.5v-600q134 11 207 86.5t73 206.5z" glyph-name="uni0424" horiz-adv-x="1648" unicode="Ф"/><glyph d="M18 0q98 126 215 305l248 387l-241 381q-117 184 -203 303h369q53 -100 100 -178l147 -250l156 260q22 38 53.5 95t40.5 73h342q-76 -95 -203 -289l-237 -370l248 -385q139 -215 227 -332h-371q-16 35 -100 170l-174 287l-191 -314l-82 -143h-344z" glyph-name="uni0425" horiz-adv-x="1298" unicode="Х"/><glyph d="M174 0v1028q0 212 -8 348h328q-9 -117 -9 -348v-770h527v772q0 221 -8 346h325q-8 -88 -8 -344v-784h160v-301q0 -208 8 -353h-291q6 333 6 349v57h-1030z" glyph-name="uni0426" horiz-adv-x="1556" unicode="Ц"/><glyph d="M106 1378h322q-6 -53 -6 -229v-215q0 -149 52.5 -203.5t180.5 -54.5q77 0 185 53v377q0 167 -9 272h322q-6 -105 -6 -272v-854q0 -54 12 -252h-328q9 153 9 246v227q-132 -51 -258 -51q-245 0 -357 119t-112 358v244q0 132 -7 235z" glyph-name="uni0427" horiz-adv-x="1325" unicode="Ч"/><glyph d="M1870 0h-1696v1028q0 212 -8 348h313q-8 -140 -8 -350v-764h420v766q0 164 -8 348h305q-8 -88 -8 -346v-768h395v766q0 191 -10 348h311q-6 -99 -6 -346v-1030z" glyph-name="uni0428" horiz-adv-x="2043" unicode="Ш"/><glyph d="M174 0v1028q0 212 -8 348h313q-8 -98 -8 -348v-766h420v768q0 223 -8 346h305q-8 -88 -8 -344v-770h395v768q0 181 -10 346h313q-6 -66 -6 -344v-778h164v-307q0 -190 6 -353h-289q1 50 2 149.5t2 152.5l2 104h-1585z" glyph-name="uni0429" horiz-adv-x="2111" unicode="Щ"/><glyph d="M467 0q6 129 6 367v749h-129q-246 0 -299 -6l-14 272q114 -6 313 -6h438v-495h115q251 0 393 -113.5t142 -318.5q0 -209 -146 -329t-385 -120h-434zM1120 442q0 94 -67 151.5t-179 57.5h-92v-415h101q109 0 173 58.5t64 147.5z" glyph-name="uni042A" horiz-adv-x="1533" unicode="Ъ"/><glyph d="M166 0q8 172 8 367v647q0 253 -8 362h323q-8 -132 -8 -362v-133h115q253 0 395 -113.5t142 -318.5q0 -209 -147 -329t-386 -120h-434zM1399 0q6 86 6 375v612q0 301 -6 389h321q-6 -72 -6 -389v-612q0 -287 6 -375h-321zM821 442q0 94 -67.5 151.5t-180.5 57.5h-92v-415 h101q111 0 175 58.5t64 147.5z" glyph-name="uni042B" horiz-adv-x="1886" unicode="Ы"/><glyph d="M166 0q8 172 8 367v647q0 253 -8 362h323q-8 -132 -8 -362v-133h115q253 0 395 -113.5t142 -318.5q0 -209 -147 -329t-386 -120h-434zM821 442q0 94 -67.5 151.5t-180.5 57.5h-92v-415h101q111 0 175 58.5t64 147.5z" glyph-name="uni042C" horiz-adv-x="1232" unicode="Ь"/><glyph d="M475 1401q202 0 368 -91.5t262.5 -256t96.5 -367.5q0 -150 -54.5 -281.5t-149.5 -225.5t-229.5 -148t-289.5 -54q-208 0 -354 46v301q156 -80 326 -80q158 0 276 94t152 244h-220q-227 0 -313 -4v264q126 -6 313 -6h207q-44 132 -155 214.5t-260 82.5q-90 0 -174.5 -26 t-139.5 -69v312q165 51 338 51z" glyph-name="uni042D" horiz-adv-x="1298" unicode="Э"/><glyph d="M166 0q6 80 6 301v713q0 278 -6 362h319q-4 -68 -4 -362v-174h228q46 249 222.5 404t420.5 155q187 0 338 -96t235 -260t84 -361q0 -206 -85 -367.5t-234.5 -250.5t-337.5 -89q-258 0 -438.5 173t-211.5 440h-221v-289q0 -217 4 -299h-319zM1006 682q0 -198 93.5 -322 t252.5 -124q162 0 254 123t92 323q0 197 -94.5 328t-251.5 131q-160 0 -253 -129t-93 -330z" glyph-name="uni042E" horiz-adv-x="2105" unicode="Ю"/><glyph d="M215 952q0 104 38 185.5t106 133t158.5 78.5t197.5 27h452q-8 -93 -8 -348v-666q0 -258 8 -362h-321q6 117 6 360v162h-123l-313 -522h-377q17 22 51 65.5t50 64.5t40 53t43.5 59.5t38.5 56.5l191 305q-238 90 -238 348zM526 936q0 -95 62 -145t151 -50h113v392h-121 q-87 0 -146 -51t-59 -146z" glyph-name="uni042F" horiz-adv-x="1333" unicode="Я"/><glyph d="M80 279q0 140 96 222t246 95q105 12 219 12v29q0 66 -52.5 103.5t-139.5 37.5q-125 0 -236 -57l-88 192q63 41 159 64.5t203 23.5q221 0 333 -108.5t112 -312.5v-252q0 -203 41 -328h-291l-14 104q-100 -127 -273 -127q-135 0 -225 84.5t-90 217.5zM373 285q0 -49 30 -78 t80 -29q46 0 89 22t73 58v158l-125 -6q-68 -2 -107.5 -34t-39.5 -91z" glyph-name="uni0430" unicode="а"/><glyph d="M82 641q0 302 130.5 485t408.5 246q123 29 376 117v-283q-64 -30 -139 -52.5t-209 -49.5q-157 -30 -226.5 -86t-86.5 -178q46 48 123 75t168 27q201 0 324.5 -136.5t123.5 -340.5q0 -142 -64 -252t-174 -169.5t-247 -59.5q-128 0 -226 48t-159 136.5t-92 207.5t-31 265z M801 465q0 100 -57.5 164.5t-157.5 64.5q-49 0 -104.5 -24t-92.5 -58q-6 -35 -6 -98q0 -126 59 -198t152 -72q89 0 148 63.5t59 157.5z" glyph-name="uni0431" horiz-adv-x="1157" unicode="б"/><glyph d="M158 0q6 86 6 213v561q0 109 -12 207h426q197 0 298 -67.5t101 -184.5q0 -75 -42 -130t-112 -77q99 -23 155 -83t56 -146q0 -128 -107 -210.5t-317 -82.5h-452zM688 676q0 110 -143 110h-88v-219h92q67 0 103 29t36 80zM737 299q0 51 -39.5 79t-107.5 28h-133v-211h133 q147 0 147 104z" glyph-name="uni0432" horiz-adv-x="1116" unicode="в"/><glyph d="M152 0q8 99 8 311v385q0 54 -4 149t-4 136h454q197 0 264 6l-16 -268q-86 6 -250 6h-139v-414q0 -200 6 -311h-319z" glyph-name="uni0433" horiz-adv-x="917" unicode="г"/><glyph d="M51 -391q4 78 4 231v387h86q113 135 181 319t104 435h664v-754h112v-379q0 -95 4 -239h-270q1 30 2.5 76t2.5 85t1 78v150h-629v-160l6 -229h-268zM811 227v518h-172q-48 -301 -188 -518h360z" glyph-name="uni0434" horiz-adv-x="1265" unicode="д"/><glyph d="M82 494q0 138 54.5 251.5t163.5 183.5t255 70q94 0 172 -27t130 -72t87.5 -104.5t51.5 -123t16 -129.5q0 -59 -13 -113h-626q17 -211 258 -211q155 0 321 76v-223q-151 -88 -340 -88q-248 0 -389 138.5t-141 371.5zM553 778q-87 0 -135 -55.5t-53 -132.5h360 q0 82 -42.5 135t-129.5 53z" glyph-name="uni0435" unicode="е"/><glyph d="M31 0q41 47 121 178l131 197q59 98 139 127q-77 25 -143 137l-93 158q-57 101 -118 184h307q12 -28 80 -150l90 -167q36 -68 82 -68h37v152q0 120 -5 233h299q-4 -45 -4 -231v-154h35q47 0 84 68l103 184q30 52 69 133h301q-25 -30 -106 -168l-101 -168q-28 -50 -68 -88 t-79 -51q83 -29 137 -123l131 -201q61 -100 121 -182h-334q-6 12 -26.5 57.5t-38.5 77.5l-113 203q-22 39 -39 56.5t-39 17.5h-37v-166q0 -195 4 -246h-299q5 195 5 246v166h-37q-38 0 -76 -72l-115 -199q-46 -76 -69 -141h-336z" glyph-name="uni0436" horiz-adv-x="1611" unicode="ж"/><glyph d="M111 35v233q51 -30 140.5 -48.5t162.5 -18.5q168 0 168 104q0 49 -49 70.5t-158 21.5q-99 0 -117 -6v203q16 -2 143 -2q71 1 109.5 27t38.5 71q0 92 -154 92q-147 0 -256 -53l-12 221q121 51 303 51q192 0 302 -75.5t110 -200.5q0 -80 -47.5 -133t-126.5 -78 q92 -21 149 -82t57 -151q0 -130 -120 -213.5t-320 -83.5q-165 0 -323 51z" glyph-name="uni0437" horiz-adv-x="960" unicode="з"/><glyph d="M156 -12q2 86 2 239v484q0 192 -6 268h297q-7 -154 -7 -285v-239l545 538h109q-4 -92 -4 -307v-455q0 -176 4 -231h-291q2 61 2 229v258l-520 -499h-131z" glyph-name="uni0438" horiz-adv-x="1247" unicode="и"/><glyph d="M313 1417h213q1 -56 32 -86.5t83 -30.5q53 0 84.5 30.5t32.5 86.5h213q-5 -138 -98 -228.5t-232 -90.5t-232.5 92.5t-95.5 226.5zM156 -12q2 86 2 239v484q0 192 -6 268h297q-7 -154 -7 -285v-239l545 538h109q-4 -92 -4 -307v-455q0 -176 4 -231h-291q2 61 2 229v258 l-520 -499h-131z" glyph-name="uni0439" horiz-adv-x="1247" unicode="й"/><glyph d="M152 0q6 55 6 229v529q0 60 -2 124t-2 99h313q-4 -86 -4 -217v-164h29q27 0 47 17t51 65l192 299h314q-64 -78 -117 -158l-111 -178q-57 -95 -153 -119q93 -29 151 -123l152 -241q57 -91 117 -162h-351l-206 332q-26 44 -43 60t-43 16h-29v-181q0 -137 4 -227h-315z" glyph-name="uni043A" horiz-adv-x="1173" unicode="к"/><glyph d="M53 -4v252q23 -10 53 -10q65 0 125.5 106t103 271.5t66.5 365.5h713q-4 -234 -4 -346v-307q0 -226 8 -328h-315q8 100 8 326v417h-170q-105 -761 -487 -761q-66 0 -101 14z" glyph-name="uni043B" horiz-adv-x="1269" unicode="л"/><glyph d="M152 0q7 90 10 262l12 381q1 62 1 174t1 164h238l327 -471l316 471h241q1 -53 1 -157.5t1 -157.5l15 -422q4 -158 10 -244h-289q5 92 0 236l-8 292l-252 -321h-76l-235 330l-4 -297q-3 -125 0 -240h-309z" glyph-name="uni043C" horiz-adv-x="1476" unicode="м"/><glyph d="M152 0q6 80 6 221v529q0 133 -4 231h299q-4 -132 -4 -231v-138h356v138q0 71 -4 231h301q-4 -98 -4 -231v-533q0 -69 4 -217h-301q4 122 4 221v174h-356v-174q0 -95 4 -221h-301z" glyph-name="uni043D" horiz-adv-x="1253" unicode="н"/><glyph d="M82 489q0 142 69.5 260t185.5 184t251 66q140 0 257 -68.5t184 -185.5t67 -256q0 -107 -41 -201t-110 -160t-162 -104t-195 -38q-140 0 -256.5 67t-183 182.5t-66.5 253.5zM369 489q0 -103 62.5 -177t156.5 -74q95 0 158 74t63 177q0 106 -63.5 179t-157.5 73 q-95 0 -157 -77t-62 -175z" glyph-name="uni043E" horiz-adv-x="1177" unicode="о"/><glyph d="M152 0q8 172 8 281v700h936v-707q0 -190 8 -274h-324q4 218 4 281v442h-315v-444q0 -120 6 -279h-323z" glyph-name="uni043F" horiz-adv-x="1253" unicode="п"/><glyph d="M152 -436v1329q218 108 481 108q229 0 370.5 -139.5t141.5 -359.5q0 -142 -59.5 -259.5t-174 -188t-262.5 -70.5q-123 0 -207 43v-463h-290zM860 494q0 115 -70 188.5t-186 73.5q-85 0 -162 -35v-440q79 -52 164 -52q114 0 184 76t70 189z" glyph-name="uni0440" horiz-adv-x="1226" unicode="р"/><glyph d="M82 489q0 148 75 266t200 182t274 64q100 0 229 -38v-279q-90 57 -198 57q-136 0 -211.5 -74t-75.5 -182q0 -107 75.5 -175t211.5 -68q100 0 204 53v-270q-95 -39 -225 -39q-243 0 -401 142t-158 361z" glyph-name="uni0441" horiz-adv-x="991" unicode="с"/><glyph d="M362 0q5 108 5 289v436h-66q-185 0 -248 -2v262q61 -4 252 -4h449q184 0 229 2l-6 -260q-20 0 -102 1t-130 1h-73v-436q0 -234 4 -289h-314z" glyph-name="uni0442" horiz-adv-x="1030" unicode="т"/><glyph d="M14 981h355q23 -80 55 -154l178 -436l156 426q28 87 47 164h332q-34 -64 -97 -217l-352 -823q-81 -193 -172.5 -273t-216.5 -80h-184l6 242q133 0 181.5 19t88.5 94l55 116l-321 695q-41 93 -111 227z" glyph-name="uni0443" horiz-adv-x="1150" unicode="у"/><glyph d="M82 492q0 212 140 349.5t376 157.5v213q0 116 -8 226h280q-8 -148 -8 -224v-215q233 -22 374.5 -156.5t141.5 -348.5q0 -146 -67.5 -258.5t-182.5 -175.5t-264 -76v-197q0 -147 8 -223h-280q6 86 6 223v197q-234 19 -375 159t-141 349zM371 492q0 -106 62.5 -176 t164.5 -76v499q-102 -3 -164.5 -71t-62.5 -176zM1090 492q0 107 -62.5 175.5t-165.5 71.5v-499q102 6 165 76.5t63 175.5z" glyph-name="uni0444" horiz-adv-x="1460" unicode="ф"/><glyph d="M18 0q56 70 158 225l180 264l-188 306q-61 97 -133 186h338l170 -279l182 279h305q-19 -22 -38 -48t-31 -43.5t-33.5 -49.5t-30.5 -45l-192 -295l180 -289q51 -85 139 -211h-324l-180 285l-184 -285h-318z" glyph-name="uni0445" horiz-adv-x="1058" unicode="х"/><glyph d="M158 0v700q0 191 -6 281h331q-8 -169 -8 -281v-446h299v446q0 115 -6 281h326q-9 -92 -9 -276v-469h113v-324q0 -87 6 -297h-276q1 63 2 190.5t2 194.5h-774z" glyph-name="uni0446" horiz-adv-x="1263" unicode="ц"/><glyph d="M86 981h317q-8 -63 -8 -182v-94q0 -94 38 -135.5t122 -41.5q92 0 158 47v199q0 124 -6 207h317q-4 -55 -4 -209v-553q0 -62 3 -137t3 -82h-319q6 88 6 205v100q-78 -43 -211 -43q-190 0 -300 95.5t-110 263.5v178q0 111 -6 182z" glyph-name="uni0447" horiz-adv-x="1177" unicode="ч"/><glyph d="M158 0v700q0 149 -6 281h305q-8 -139 -8 -281v-442h272v442q0 59 -4 281h303q-8 -122 -8 -276v-447h280v442q0 118 -6 281h305q-8 -122 -8 -274v-707h-1425z" glyph-name="uni0448" horiz-adv-x="1742" unicode="ш"/><glyph d="M158 0v700q0 149 -6 281h303q-6 -156 -6 -281v-442h272v442q0 115 -6 281h305q-8 -110 -8 -276v-447h280v442q0 115 -6 281h305q-8 -81 -8 -274v-469h103v-355q0 -153 6 -270h-279q4 106 4 387h-1259z" glyph-name="uni0449" horiz-adv-x="1748" unicode="щ"/><glyph d="M377 0q4 47 4 221v512h-94q-139 0 -211 -4l-10 256q100 -4 303 -4h319q-6 -70 -6 -203v-94h156q172 0 288.5 -94.5t116.5 -245.5q0 -156 -117 -250t-315 -94h-434zM946 340q0 63 -46 99t-136 36h-82v-270h90q174 0 174 135z" glyph-name="uni044A" horiz-adv-x="1310" unicode="ъ"/><glyph d="M152 0q4 94 4 221v504q0 184 -2 256h301q-6 -70 -6 -223v-74h116q89 0 163.5 -20.5t132.5 -60.5t91 -106.5t33 -152.5q0 -155 -117.5 -249.5t-310.5 -94.5h-405zM1206 0q8 71 8 203v567q0 143 -10 211h318q-9 -83 -9 -205v-573q0 -133 9 -203h-316zM688 342 q0 59 -44.5 96t-119.5 37h-75v-270h75q79 0 121.5 36.5t42.5 100.5z" glyph-name="uni044B" horiz-adv-x="1671" unicode="ы"/><glyph d="M152 0q4 94 4 221v504q0 184 -2 256h301q-6 -70 -6 -223v-74h116q89 0 163.5 -20.5t132.5 -60.5t91 -106.5t33 -152.5q0 -155 -117.5 -249.5t-310.5 -94.5h-405zM688 342q0 59 -44.5 96t-119.5 37h-75v-270h75q79 0 121.5 36.5t42.5 100.5z" glyph-name="uni044C" horiz-adv-x="1052" unicode="ь"/><glyph d="M946 489q0 -226 -153 -365.5t-383 -139.5q-81 0 -159.5 13.5t-125.5 33.5v241q44 -30 115 -49.5t147 -19.5q115 0 184.5 52.5t87.5 147.5h-143q-146 0 -231 -6v201q94 -4 233 -4h141q-25 81 -97 130.5t-173 49.5q-153 0 -258 -72v250q150 43 279 43q231 0 383.5 -143.5 t152.5 -362.5z" glyph-name="uni044D" horiz-adv-x="1028" unicode="э"/><glyph d="M1602 496q0 -138 -64 -255.5t-177.5 -187t-250.5 -69.5q-178 0 -304 109t-161 290h-182v-121q0 -136 6 -262h-315q4 172 4 262v473q0 102 -6 246h317q-6 -95 -6 -238v-147h178q34 184 162.5 294.5t306.5 110.5q138 0 252 -69.5t177 -185t63 -250.5zM1305 492 q0 113 -54 184.5t-141 71.5q-86 0 -140.5 -71.5t-54.5 -184.5t54.5 -184.5t140.5 -71.5q87 0 141 71.5t54 184.5z" glyph-name="uni044E" horiz-adv-x="1683" unicode="ю"/><glyph d="M113 664q0 145 115 231t335 86h420q-4 -86 -4 -250v-520q0 -149 4 -211h-307q8 79 8 201v137h-109l-180 -338h-350q50 57 133 180q80 123 158 195q-99 34 -161 106t-62 183zM406 655q0 -54 39 -86t108 -32h131v239h-127q-72 0 -111.5 -32t-39.5 -89z" glyph-name="uni044F" horiz-adv-x="1134" unicode="я"/><glyph d="M184 1260q0 67 47 114t115 47t116 -47t48 -114q0 -69 -48 -116.5t-116 -47.5t-115 47.5t-47 116.5zM623 1260q0 68 46.5 114.5t114.5 46.5t116 -47t48 -114q0 -69 -48 -116.5t-116 -47.5t-114.5 47.5t-46.5 116.5zM82 494q0 138 54.5 251.5t163.5 183.5t255 70 q94 0 172 -27t130 -72t87.5 -104.5t51.5 -123t16 -129.5q0 -59 -13 -113h-626q17 -211 258 -211q155 0 321 76v-223q-151 -88 -340 -88q-248 0 -389 138.5t-141 371.5zM553 778q-87 0 -135 -55.5t-53 -132.5h360q0 82 -42.5 135t-129.5 53z" glyph-name="uni0451" unicode="ё"/><glyph d="M123 0q6 51 6 244v850h-102v186h102q0 92 -12 168h321q-10 -78 -10 -168h311v-186h-311v-213q110 116 283 116q112 0 192.5 -68t120 -185.5t39.5 -272.5q0 -139 -33.5 -271.5t-89 -234t-121 -179t-135.5 -124.5l-186 178q131 107 198.5 269.5t67.5 359.5q0 281 -156 281 q-93 0 -180 -111v-389q0 -168 6 -250h-311z" glyph-name="uni0452" horiz-adv-x="1183" unicode="ђ"/><glyph d="M807 1427l-248 -331h-268l219 331h297zM152 0q8 99 8 311v385q0 54 -4 149t-4 136h454q197 0 264 6l-16 -268q-86 6 -250 6h-139v-414q0 -200 6 -311h-319z" glyph-name="uni0453" horiz-adv-x="917" unicode="ѓ"/><glyph d="M82 489q0 219 152.5 362.5t383.5 143.5q129 0 279 -43v-250q-105 72 -258 72q-101 0 -173 -49.5t-97 -130.5h141q139 0 233 4v-201q-85 6 -231 6h-143q18 -95 87.5 -147.5t184.5 -52.5q76 0 147 19.5t115 49.5v-241q-47 -20 -125.5 -33.5t-159.5 -13.5q-230 0 -383 139.5 t-153 365.5z" glyph-name="uni0454" horiz-adv-x="1028" unicode="є"/><glyph d="M86 41l53 235q115 -83 246 -83q59 0 91 19t32 54q0 8 -2 16t-8 15.5t-11.5 13.5t-16.5 14t-19 13t-24 13.5t-26 14t-30 15.5t-31 16q-48 25 -82.5 49t-69.5 60t-53 85t-18 109q0 144 99.5 221.5t277.5 77.5q120 0 270 -47v-233q-128 74 -240 74q-110 0 -110 -70 q0 -16 8.5 -30t30 -28.5t36 -23.5t51 -27t50.5 -26q44 -23 77.5 -47.5t67.5 -60.5t53 -85.5t19 -107.5q0 -143 -105.5 -227.5t-300.5 -84.5q-81 0 -170.5 17t-144.5 49z" glyph-name="uni0455" horiz-adv-x="897" unicode="ѕ"/><glyph d="M152 1266q0 68 47 114.5t114 46.5q68 0 116 -47t48 -114q0 -69 -48 -116.5t-116 -47.5t-114.5 47.5t-46.5 116.5zM172 0q8 71 8 203v567q0 143 -10 211h317q-8 -73 -8 -205v-573q0 -140 8 -203h-315z" glyph-name="uni0456" horiz-adv-x="606" unicode="і"/><glyph d="M-57 1260q0 68 46.5 114.5t114.5 46.5t116 -47t48 -114q0 -69 -48 -116.5t-116 -47.5t-114.5 47.5t-46.5 116.5zM381 1260q0 67 47 114t115 47t116 -47t48 -114q0 -69 -48 -116.5t-116 -47.5t-115 47.5t-47 116.5zM154 0q8 71 8 203v567q0 143 -10 211h317 q-8 -73 -8 -205v-573q0 -140 8 -203h-315z" glyph-name="uni0457" horiz-adv-x="618" unicode="ї"/><glyph d="M295 1427q68 0 116 -47t48 -114q0 -69 -48 -116.5t-116 -47.5t-115 47.5t-47 116.5q0 67 47 114t115 47zM-111 -449v246h115q162 0 162 264v705q0 134 -8 215h317q-6 -77 -6 -209v-727q0 -99 -21.5 -185t-65 -156.5t-118 -111.5t-172.5 -41h-203z" glyph-name="uni0458" horiz-adv-x="589" unicode="ј"/><glyph d="M1184 684q89 0 164 -20.5t133 -60.5t90.5 -106.5t32.5 -152.5q0 -155 -116.5 -249.5t-309.5 -94.5h-402q8 133 8 311v432h-143q-105 -761 -487 -761q-66 0 -101 14v252q23 -10 53 -10q65 0 125.5 106t103 271.5t66.5 365.5h686q0 -47 -2 -118t-2 -109v-70h101zM1145 205 q77 0 120.5 36.5t43.5 100.5q0 59 -44.5 96t-121.5 37h-60v-270h62z" glyph-name="uni0459" horiz-adv-x="1673" unicode="љ"/><glyph d="M1126 674q89 0 163.5 -19.5t132.5 -59.5t91 -105.5t33 -151.5q0 -155 -117 -246.5t-311 -91.5h-399q4 47 4 221v174h-274v-174q0 -95 4 -221h-301q6 80 6 221v529q0 133 -4 231h299q-4 -132 -4 -231v-138h274v113q0 184 -2 256h301q-4 -47 -4 -223v-84h108zM1085 205 q79 0 121.5 34t42.5 97q0 59 -44 94t-120 35h-67v-260h67z" glyph-name="uni045A" horiz-adv-x="1613" unicode="њ"/><glyph d="M780 0q4 84 4 274v312q0 79 -43 123.5t-120 44.5q-57 0 -107 -37.5t-80 -100.5v-389q0 -147 6 -227h-311q6 55 6 227v858h-94v125h94v13q0 109 -12 235h319q-8 -71 -8 -205v-43h328v-125h-328v-219q119 131 295 131t266 -117.5t90 -330.5v-320q0 -136 7 -229h-312z" glyph-name="uni045B" horiz-adv-x="1214" unicode="ћ"/><glyph d="M930 1427l-248 -331h-268l219 331h297zM152 0q6 55 6 229v529q0 60 -2 124t-2 99h313q-4 -86 -4 -217v-164h29q27 0 47 17t51 65l192 299h314q-64 -78 -117 -158l-111 -178q-57 -95 -153 -119q93 -29 151 -123l152 -241q57 -91 117 -162h-351l-206 332q-26 44 -43 60 t-43 16h-29v-181q0 -137 4 -227h-315z" glyph-name="uni045C" horiz-adv-x="1173" unicode="ќ"/><glyph d="M244 1417h213q1 -56 31.5 -86.5t82.5 -30.5q53 0 84.5 30.5t32.5 86.5h213q-5 -138 -98 -228.5t-232 -90.5t-232 92.5t-95 226.5zM14 981h355q23 -80 55 -154l178 -436l156 426q28 87 47 164h332q-34 -64 -97 -217l-352 -823q-81 -193 -172.5 -273t-216.5 -80h-184l6 242 q133 0 181.5 19t88.5 94l55 116l-321 695q-41 93 -111 227z" glyph-name="uni045E" horiz-adv-x="1150" unicode="ў"/><glyph d="M152 981h317q-6 -159 -6 -256v-469h317v469q0 44 -4 256h318q-9 -137 -9 -250v-731h-305v-119q0 -145 8 -284h-319q6 132 6 282v121h-317v725q0 130 -6 256z" glyph-name="uni045F" horiz-adv-x="1245" unicode="џ"/><glyph d="M133 0q6 55 6 227v1057h-98l63 174h342q-8 -71 -8 -205v-381q109 125 291 125q171 0 263.5 -114.5t92.5 -325.5v-317q0 -160 9 -240h-312q4 42 4 242v344q0 78 -45 122t-116 44q-57 0 -106 -34.5t-81 -92.5v-398q0 -147 6 -227h-311z" glyph-name="uni04BB" horiz-adv-x="1216" unicode="һ"/><glyph d="M166 0q6 86 6 375v612q0 301 -6 389h321q-6 -72 -6 -389v-612q0 -287 6 -375h-321z" glyph-name="uni04C0" horiz-adv-x="653" unicode="Ӏ"/><glyph d="M154 0q8 71 8 203v567q0 143 -10 211h317q-8 -73 -8 -205v-573q0 -140 8 -203h-315z" glyph-name="uni04CF" horiz-adv-x="618" unicode="ӏ"/><glyph d="M446 1538v193h611v-193h-611zM1348 0h-308q7 136 7 285v516l-783 -817h-94q6 138 6 309v733q0 175 -8 350h307q-6 -121 -6 -354v-432l782 809h97q-7 -160 -7 -381v-727q0 -198 7 -291z" glyph-name="uni04E2" horiz-adv-x="1513" unicode="Ӣ"/><glyph d="M336 1149v192h610v-192h-610zM156 -12q2 86 2 239v484q0 192 -6 268h297q-7 -154 -7 -285v-239l545 538h109q-4 -92 -4 -307v-455q0 -176 4 -231h-291q2 61 2 229v258l-520 -499h-131z" glyph-name="uni04E3" horiz-adv-x="1247" unicode="ӣ"/><glyph d="M266 1149v192h611v-192h-611zM14 981h355q23 -80 55 -154l178 -436l156 426q28 87 47 164h332q-34 -64 -97 -217l-352 -823q-81 -193 -172.5 -273t-216.5 -80h-184l6 242q133 0 181.5 19t88.5 94l55 116l-321 695q-41 93 -111 227z" glyph-name="uni04EF" horiz-adv-x="1150" unicode="ӯ"/><glyph d="M690 1817h297l219 -332h-268zM16 1376h312l413 -893l150 353l-266 540h264l133 -284l127 284h274l-274 -549l143 -344l414 893h307q-9 -20 -135 -293l-500 -1095h-63l-297 602l-301 -602h-66l-506 1091q-33 69 -73 165t-56 132z" glyph-name="Wgrave" horiz-adv-x="2029" unicode="Ẁ"/><glyph d="M457 1427h297l219 -331h-268zM14 981h334q14 -67 53 -168l129 -360l187 528h141l191 -520l114 344q40 113 58 176h301q-76 -156 -101 -227l-272 -770h-131l-246 581l-227 -581h-137l-293 766q-22 60 -57.5 135.5t-43.5 95.5z" glyph-name="wgrave" horiz-adv-x="1533" unicode="ẁ"/><glyph d="M1358 1817l-248 -332h-268l219 332h297zM16 1376h312l413 -893l150 353l-266 540h264l133 -284l127 284h274l-274 -549l143 -344l414 893h307q-9 -20 -135 -293l-500 -1095h-63l-297 602l-301 -602h-66l-506 1091q-33 69 -73 165t-56 132z" glyph-name="Wacute" horiz-adv-x="2029" unicode="Ẃ"/><glyph d="M1124 1427l-247 -331h-269l219 331h297zM14 981h334q14 -67 53 -168l129 -360l187 528h141l191 -520l114 344q40 113 58 176h301q-76 -156 -101 -227l-272 -770h-131l-246 581l-227 -581h-137l-293 766q-22 60 -57.5 135.5t-43.5 95.5z" glyph-name="wacute" horiz-adv-x="1533" unicode="ẃ"/><glyph d="M645 1649q0 67 47 114t115 47t116 -47t48 -114q0 -69 -48 -116.5t-116 -47.5t-115 47.5t-47 116.5zM1083 1649q0 67 47 114t115 47t116 -47t48 -114q0 -69 -48 -116.5t-116 -47.5t-115 47.5t-47 116.5zM16 1376h312l413 -893l150 353l-266 540h264l133 -284l127 284h274 l-274 -549l143 -344l414 893h307q-9 -20 -135 -293l-500 -1095h-63l-297 602l-301 -602h-66l-506 1091q-33 69 -73 165t-56 132z" glyph-name="Wdieresis" horiz-adv-x="2029" unicode="Ẅ"/><glyph d="M412 1260q0 68 47 114.5t114 46.5q68 0 116 -47t48 -114q0 -69 -48 -116.5t-116 -47.5t-114.5 47.5t-46.5 116.5zM850 1260q0 67 47 114t115 47t116 -47t48 -114q0 -69 -48 -116.5t-116 -47.5t-115 47.5t-47 116.5zM14 981h334q14 -67 53 -168l129 -360l187 528h141 l191 -520l114 344q40 113 58 176h301q-76 -156 -101 -227l-272 -770h-131l-246 581l-227 -581h-137l-293 766q-22 60 -57.5 135.5t-43.5 95.5z" glyph-name="wdieresis" horiz-adv-x="1533" unicode="ẅ"/><glyph d="M342 1817h297l219 -332h-268zM512 0q4 226 4 309v287l-330 526q-130 203 -170 254h369q19 -46 86 -164l211 -352l207 346q30 49 94 170h342q-52 -71 -184 -278l-316 -500v-291q0 -221 6 -307h-319z" glyph-name="Ygrave" horiz-adv-x="1341" unicode="Ỳ"/><glyph d="M250 1427h297l219 -331h-268zM14 981h355q23 -80 55 -154l178 -436l156 426q28 87 47 164h332q-34 -64 -97 -217l-352 -823q-81 -193 -172.5 -273t-216.5 -80h-184l6 242q133 0 181.5 19t88.5 94l55 116l-321 695q-41 93 -111 227z" glyph-name="ygrave" horiz-adv-x="1150" unicode="ỳ"/><glyph d="M72 375v268h958v-268h-958z" glyph-name="endash" horiz-adv-x="1099" unicode="–"/><glyph d="M27 375v268h1998v-268h-1998z" glyph-name="emdash" horiz-adv-x="2050" unicode="—"/><glyph d="M0 375v241h1921v-241h-1921z" glyph-name="uni2015" horiz-adv-x="1941" unicode="―"/><glyph d="M113 987q0 131 47.5 271.5t113.5 248.5l191 -65q-78 -208 -78 -383q0 -93 21 -187l-277 -47q-18 88 -18 162z" glyph-name="quoteleft" horiz-adv-x="557" unicode="‘"/><glyph d="M451 1346q0 -131 -48 -272t-114 -249l-191 66q78 208 78 383q0 96 -20 186l276 47q19 -93 19 -161z" glyph-name="quoteright" horiz-adv-x="555" unicode="’"/><glyph d="M451 123q0 -131 -48 -271t-114 -249l-191 65q78 208 78 383q0 97 -20 187l276 47q19 -93 19 -162z" glyph-name="quotesinglbase" horiz-adv-x="555" unicode="‚"/><glyph d="M113 987q0 131 47.5 271.5t113.5 248.5l191 -65q-78 -208 -78 -383q0 -93 21 -187l-277 -47q-18 88 -18 162zM610 987q0 131 48 271t114 249l191 -65q-78 -208 -78 -383q0 -97 20 -187l-276 -47q-19 93 -19 162z" glyph-name="quotedblleft" horiz-adv-x="1054" unicode="“"/><glyph d="M451 1346q0 -131 -48 -272t-114 -249l-191 66q78 208 78 383q0 96 -20 186l276 47q19 -93 19 -161zM948 1346q0 -131 -48 -272t-114 -249l-190 66q78 208 78 383q0 92 -21 186l277 47q18 -88 18 -161z" glyph-name="quotedblright" horiz-adv-x="1054" unicode="”"/><glyph d="M451 131q0 -131 -48 -271t-114 -249l-191 65q78 208 78 383q0 97 -20 187l276 47q19 -93 19 -162zM948 131q0 -131 -48 -271t-114 -249l-190 65q78 208 78 383q0 93 -21 187l277 47q18 -88 18 -162z" glyph-name="quotedblbase" horiz-adv-x="1054" unicode="„"/><glyph d="M51 840v207q123 -7 250 -7q0 37 -5 137t-5 144h233l-10 -281q103 0 250 7v-207q-99 6 -252 6q0 -7 4 -221t4 -322q0 -148 2 -201h-231q4 106 4 201q0 102 2 230.5t4 217.5t2 95q-153 0 -252 -6z" glyph-name="dagger" horiz-adv-x="815" unicode="†"/><glyph d="M80 864v211q76 -6 248 -6l-11 252h234q-4 -161 -10 -252q173 0 250 6v-211q-105 6 -250 6l1 -26q2 -27 3.5 -65t1.5 -66q0 -32 -3 -90t-3 -68q42 0 125.5 2t124.5 2v-207q-94 6 -250 6q0 -2 10 -254h-234q1 20 3.5 81t5 112t2.5 61q-8 0 -248 -6v209q99 -6 248 -6 q0 6 -3 66t-3 98q0 27 1.5 63.5t2.5 61.5l2 26q-29 -1 -123.5 -3t-124.5 -3z" glyph-name="daggerdbl" horiz-adv-x="870" unicode="‡"/><glyph d="M164 524q0 117 81.5 200t198.5 83q118 0 200.5 -83t82.5 -200q0 -118 -82 -200t-201 -82q-117 0 -198.5 82t-81.5 200z" glyph-name="bullet" horiz-adv-x="890" unicode="•"/><glyph d="M109 176q0 81 59 140t139 59q82 0 140.5 -58t58.5 -141q0 -80 -59.5 -138t-141.5 -58q-80 0 -138 57.5t-58 138.5zM723 176q0 81 59.5 140t139.5 59q82 0 140 -58t58 -141q0 -80 -59 -138t-141 -58q-80 0 -138.5 57.5t-58.5 138.5zM1337 176q0 81 59.5 140t139.5 59 q82 0 140.5 -58t58.5 -141q0 -80 -59.5 -138t-141.5 -58q-80 0 -138.5 57.5t-58.5 138.5z" glyph-name="ellipsis" horiz-adv-x="1843" unicode="…"/><glyph d="M76 1032q0 152 101.5 255.5t246.5 103.5t245.5 -102.5t100.5 -254.5q0 -151 -100.5 -254.5t-245.5 -103.5q-146 0 -247 103.5t-101 252.5zM233 0l1014 1374h271l-1018 -1374h-267zM291 1034q0 -66 37 -107.5t96 -41.5q57 0 94 43t37 106t-38.5 105.5t-94.5 42.5 q-54 0 -92.5 -42.5t-38.5 -105.5zM977 338q0 151 101 254.5t247 103.5q143 0 244.5 -103t101.5 -253t-101.5 -254t-246.5 -104q-143 0 -244.5 103t-101.5 253zM1757 338q0 151 102 254.5t246 103.5q143 0 244.5 -103t101.5 -253q0 -151 -101 -254.5t-247 -103.5 q-143 0 -244.5 103.5t-101.5 252.5zM1260 270q27 -35 64 -38.5t67 24.5q30 29 29 71.5t-29 78.5q-29 36 -67.5 39t-68.5 -25q-29 -28 -27 -70.5t32 -79.5zM2040 268q28 -34 65 -37.5t68 25.5q29 28 27.5 71t-29.5 79q-29 36 -67 39t-68 -25q-28 -29 -26.5 -72t30.5 -80z" glyph-name="perthousand" horiz-adv-x="2529" unicode="‰"/><glyph d="M651 37l-563 438v45l561 441v-273l-243 -190l245 -187v-274z" glyph-name="guilsinglleft" horiz-adv-x="759" unicode="‹"/><glyph d="M109 961l563 -439v-45l-561 -440v272l243 191l-245 186v275z" glyph-name="guilsinglright" horiz-adv-x="759" unicode="›"/><glyph d="M852 1370l-989 -1370h-236l987 1370h238z" glyph-name="fraction" horiz-adv-x="468" unicode="⁄"/><glyph d="M1049 291l10 -264q-115 -41 -279 -41q-488 0 -569 473h-152v159h136v56q0 41 2 59h-138v162h154q44 232 185.5 356.5t383.5 124.5q46 0 126 -12.5t136 -30.5v-272q-57 39 -108 55.5t-129 16.5q-123 0 -194.5 -57.5t-100.5 -180.5h393l-6 -162h-405q-2 -18 -2 -57 q0 -40 2 -58h401l-6 -159h-375q61 -234 291 -234q84 0 136 15.5t108 50.5z" glyph-name="Euro" horiz-adv-x="1124" unicode="€"/><glyph d="M166 0q6 80 6 291v727q0 244 -6 381h96l782 -809v432q0 233 -6 354h308q-9 -196 -9 -350v-733q0 -171 6 -309h-94l-782 817v-516q0 -168 6 -285h-307zM1489 887q0 157 101.5 257.5t252.5 100.5q152 0 252 -100.5t100 -257.5t-99.5 -256t-252.5 -99q-154 0 -254 99 t-100 256zM1667 887q0 -96 48.5 -152.5t127.5 -56.5q82 0 129 55.5t47 153.5q0 97 -48.5 153t-127.5 56q-81 0 -128.5 -58.5t-47.5 -150.5zM2165 385v-197h-635v197h635z" glyph-name="uni2116" horiz-adv-x="2306" unicode="№"/><glyph d="M96 678q0 184 90.5 343t249.5 254t348 95q140 0 267.5 -54.5t220.5 -147t148 -221t55 -269.5q0 -140 -54 -267.5t-146 -221t-220.5 -148.5t-270.5 -55q-140 0 -267 54.5t-219 147t-146.5 220.5t-55.5 270zM248 680q-1 -109 40.5 -210t112.5 -175.5t171.5 -119 t213.5 -44.5q147 0 271.5 73.5t197 200t72.5 275.5q0 145 -71 270t-196 200t-274 75q-148 0 -271.5 -73t-194.5 -198t-72 -274zM532 289q0 25 1.5 64t1.5 57v413q0 38 -1.5 105t-1.5 94h297q145 0 223 -68.5t78 -191.5q0 -117 -79 -183.5t-228 -66.5h-84v-94q0 -92 4 -129 h-211zM918 766q0 45 -32.5 74.5t-88.5 29.5h-58v-204h58q56 0 88.5 27.5t32.5 72.5z" glyph-name="uni2117" horiz-adv-x="1572" unicode="℗"/><glyph d="M649 745q5 57 8 152l17 483h125l205 -331l196 331h129l19 -483q5 -129 8 -152h-164q0 84 -2 127l-10 207l-158 -221h-39l-147 229l-11 -221q0 -15 -1 -53.5t-1 -67.5h-174zM217 745q6 88 6 154v326h-164v151h508v-151h-170v-324q0 -113 2 -156h-182z" glyph-name="trademark" horiz-adv-x="1466" unicode="™"/><glyph d="M80 -6v264q84 -6 239 -6h89q-269 203 -269 508q0 147 58 268t157 200t230 122t278 43q208 0 374.5 -81.5t259.5 -226.5t93 -327q0 -162 -75.5 -291t-198.5 -215h76q168 0 254 6v-264q-80 6 -353 6h-284v274q120 79 189 192.5t69 254.5q0 181 -112 294t-292 113 q-184 0 -292.5 -111t-108.5 -296q0 -136 67 -252.5t189 -194.5v-274h-303q-256 0 -334 -6z" glyph-name="uni2126" horiz-adv-x="1724" unicode="Ω"/><glyph d="M350 260q63 -111 200.5 -174t283.5 -63q288 0 479 215h131q-107 -124 -265 -189t-352 -65q-113 0 -222.5 29.5t-206 87.5t-170 138t-116 188t-42.5 230q0 146 63 274.5t168 216t243 137.5t287 50t283.5 -49t237 -137t165.5 -219.5t68 -286.5h-1235v-383zM1311 1055 q-40 103 -182 169t-298 66q-142 0 -283.5 -63t-197.5 -176v-369h961v373z" glyph-name="estimated" horiz-adv-x="1658" unicode="℮"/><glyph d="M494 729q0 -112 2 -149h-222q0 17 1 74.5t1 88.5v406l-176 -70l-26 160q119 44 319 137h103q0 -7 -1 -62t-1 -97v-488zM1466 1370l-989 -1370h-235l987 1370h237zM1210 569l-6 185q84 34 197 34q134 0 211.5 -53.5t77.5 -150.5q0 -66 -41.5 -115.5t-116.5 -71.5 q73 -13 127.5 -64.5t54.5 -125.5q0 -103 -87 -165t-218 -62q-130 0 -217 38l6 177q71 -43 178 -43q54 0 83.5 22.5t29.5 63.5q0 35 -31 57t-88 22q-19 0 -47 -4v156l41 -2q49 0 75.5 20t26.5 56q0 69 -94 69q-87 0 -162 -43z" glyph-name="uni2153" horiz-adv-x="1830" unicode="⅓"/><glyph d="M98 598v125q143 120 205 203q86 99 86 166q0 51 -31.5 81.5t-83.5 30.5q-84 0 -155 -47l-6 195q41 19 101 32t114 13q137 0 213.5 -71.5t76.5 -195.5q0 -100 -108 -221q-17 -20 -39.5 -42.5t-49 -47.5t-38.5 -37h133q49 0 131 4v-188h-549zM1624 1370l-989 -1370h-236 l987 1370h238zM1298 557l-6 184q87 35 197 35q134 0 211.5 -54t77.5 -151q0 -66 -41.5 -115t-116.5 -71q73 -13 127.5 -64.5t54.5 -125.5q0 -103 -87 -165.5t-218 -62.5q-128 0 -217 39l6 176q71 -43 178 -43q54 0 83.5 22.5t29.5 63.5q0 35 -31 57.5t-88 22.5q-19 0 -47 -4 v156l41 -2q49 0 75.5 19.5t26.5 55.5q0 34 -25 52t-69 18q-87 0 -162 -43z" glyph-name="uni2154" horiz-adv-x="1918" unicode="⅔"/><glyph d="M76 451q0 136 69.5 245t184 168t248.5 58q103 0 186.5 -31t136.5 -84q4 28 4 41q0 161 -104.5 261.5t-259.5 100.5q-85 0 -169.5 -20.5t-142.5 -52.5l-67 241q104 43 199.5 66.5t209.5 23.5q200 0 347 -87t223 -244.5t76 -368.5q0 -179 -49.5 -327.5t-136 -247.5 t-203.5 -153t-253 -54q-110 0 -204.5 37t-158.5 100t-100 148t-36 180zM354 453q0 -93 65 -157.5t161 -64.5q114 0 191.5 86.5t92.5 227.5q-42 57 -114.5 93t-149.5 36q-106 0 -176 -60.5t-70 -160.5z" glyph-name="partialdiff" horiz-adv-x="1331" unicode="∂"/><glyph d="M20 0q64 116 154 313l483 1084h93l493 -1096q104 -221 150 -301h-1373zM692 920l-264 -672h528z" glyph-name="uni2206" horiz-adv-x="1413" unicode="∆"/><glyph d="M160 -203q6 164 6 369v897h-111v313h1446l-69 -313h-101v-901q0 -270 6 -365h-323q6 123 6 367v899h-545v-897q0 -240 6 -369h-321z" glyph-name="product" horiz-adv-x="1533" unicode="∏"/><glyph d="M516 539l-481 837h766q281 0 373 6l-17 -245q-196 4 -348 4h-291l332 -584l-363 -633h385q199 0 299 4v-245q-102 6 -299 6h-845z" glyph-name="summation" horiz-adv-x="1271" unicode="∑"/><glyph d="M100 379v244h924v-244h-924z" glyph-name="minus" horiz-adv-x="1124" unicode="−"/><glyph d="M145 422l-75 233l424 170l305 -784l413 1610h267l-510 -1917h-342l-322 747z" glyph-name="radical" horiz-adv-x="1495" unicode="√"/><glyph d="M90 637q0 154 109 255t262 101q118 0 207.5 -51t177.5 -160q85 105 170 158t192 53q153 0 254 -104t101 -252q0 -158 -103.5 -266.5t-259.5 -108.5q-113 0 -204 54t-171 163q-89 -115 -178.5 -166t-202.5 -51q-157 0 -255.5 109t-98.5 266zM315 627q0 -66 42 -110 t104 -44q57 0 116.5 42.5t104.5 109.5q-33 40 -52.5 61t-49 47.5t-58.5 38.5t-61 12q-63 0 -104.5 -44.5t-41.5 -112.5zM1313 633q0 66 -41 108.5t-101 42.5q-16 0 -31.5 -3.5t-32.5 -14.5t-27.5 -17.5t-31.5 -27t-28 -27.5t-32.5 -34.5t-31.5 -34.5q63 -78 111.5 -115 t103.5 -37q64 0 103 47t39 113z" glyph-name="infinity" horiz-adv-x="1652" unicode="∞"/><glyph d="M47 -354l6 223q43 -25 117 -25q34 0 59 12t40 37t24.5 50t13.5 65t5 67t1 70q0 144 -15 503.5t-15 496.5q0 241 98.5 376.5t298.5 135.5q75 0 127 -19l-6 -211q-40 19 -92 19q-35 0 -61.5 -12.5t-43 -36t-28 -51t-16.5 -66t-7 -71t-2 -74.5q0 -131 14.5 -469t14.5 -465 q0 -105 -8.5 -185.5t-32.5 -157.5t-65 -127t-108.5 -80t-160.5 -30q-103 0 -158 25z" glyph-name="integral" horiz-adv-x="876" unicode="∫"/><glyph d="M74 627q5 131 84 221t207 90q62 0 125.5 -28t116.5 -55.5t89 -27.5q83 0 101 101h196q-3 -126 -82.5 -221t-203.5 -95q-60 0 -114.5 17.5t-87 39t-71.5 39t-72 17.5q-40 0 -66 -27.5t-32 -70.5h-190zM74 195q5 132 83.5 222.5t207.5 90.5q62 0 124 -28t114.5 -55.5 t92.5 -27.5q41 0 67 28t34 73h196q-3 -128 -82.5 -222t-203.5 -94q-55 0 -110 17.5t-91.5 39t-76 39t-67.5 17.5q-39 0 -65.5 -28t-32.5 -72h-190z" glyph-name="approxequal" horiz-adv-x="1067" unicode="≈"/><glyph d="M1024 643h-301l-119 -225h420v-223h-539l-90 -170h-188l90 170h-197v223h318l121 225h-439v221h555l99 183h184l-96 -183h182v-221z" glyph-name="notequal" horiz-adv-x="1128" unicode="≠"/><glyph d="M1014 1335v-270l-559 -252l559 -246v-272l-922 475v88zM1022 0h-924v227h924v-227z" glyph-name="lessequal" horiz-adv-x="1124" unicode="≤"/><glyph d="M106 1335l922 -477v-88l-922 -475v272l560 246l-560 252v270zM98 0v227h924v-227h-924z" glyph-name="greaterequal" horiz-adv-x="1124" unicode="≥"/><glyph d="M63 696l492 711h68l491 -711l-491 -706h-68zM381 696l207 -329l209 331l-209 326z" glyph-name="lozenge" horiz-adv-x="1177" unicode="◊"/><glyph d="M-111 -449v246h115q162 0 162 264v705q0 134 -8 215h317q-6 -77 -6 -209v-727q0 -99 -21.5 -185t-65 -156.5t-118 -111.5t-172.5 -41h-203z" glyph-name="uniF6BE" horiz-adv-x="626" unicode=""/><glyph d="M20 0q47 85 179 373l368 821l-90 186h285l477 -1028q106 -222 180 -352h-354l-111 272h-520l-110 -272h-304zM690 920l-166 -422h338z" glyph-name="A.alt" horiz-adv-x="1439"/><glyph d="M96 684q0 207 97 371.5t266.5 255t378.5 90.5q200 0 354 -49v-293q-92 44 -168.5 61t-171.5 17q-194 0 -318 -128t-124 -321q0 -122 54.5 -224.5t154 -164t223.5 -61.5q65 0 104 20v268h-209l8 226h494v-707q-181 -70 -401 -70q-210 0 -379 89t-266 251.5t-97 368.5z" glyph-name="G.alt" horiz-adv-x="1394"/><glyph d="M481 -47q0 -200 -138 -329.5t-345 -129.5q-78 0 -205 25v276q77 -41 172 -41q99 0 152 62t53 166v1038q0 270 -4 356h319q-4 -115 -4 -356v-1067z" glyph-name="J.alt" horiz-adv-x="651"/><glyph d="M1561 684q0 -170 -70.5 -314t-194.5 -241q70 -90 238 -293h-342q-53 83 -119 176q-112 -37 -242 -37q-155 0 -291.5 55t-234 149.5t-153.5 228t-56 284.5q0 200 95.5 362.5t262.5 254.5t371 92q155 0 292 -55.5t234 -150.5t153.5 -228t56.5 -283zM831 229q34 0 74 7 q-69 89 -211 262h318q15 -19 51.5 -68.5t58.5 -77.5q123 129 123 334q0 197 -118.5 329t-299.5 132t-298 -130t-117 -329t117.5 -329t301.5 -130z" glyph-name="Q.alt" horiz-adv-x="1656"/><glyph d="M16 1376h312l331 -891l318 891h80l338 -891l307 891h289q-55 -125 -142 -356l-399 -1022h-164l-289 780l-278 -780h-162l-375 946q-89 233 -166 432z" glyph-name="W.alt" horiz-adv-x="2007"/><glyph d="M16 1376h312l334 -891h8l209 580q-53 146 -127 311h309l342 -891h8l307 891h289q-32 -73 -131 -325l-410 -1053h-172l-280 743l-285 -743h-170l-420 1073q-90 229 -123 305z" glyph-name="W.alt2" horiz-adv-x="2023"/><glyph d="M160 1266q0 67 47 114t115 47t115.5 -47t47.5 -114q0 -69 -47.5 -116.5t-115.5 -47.5t-115 47.5t-47 116.5zM154 0q8 71 8 203v567q0 143 -10 211h317q-8 -73 -8 -205v-573q0 -140 8 -203h-315z" glyph-name="i.loclTRK" horiz-adv-x="618"/><glyph d="M-96 -432l43 211q59 -27 139 -27q69 0 108 48t39 122v828h-167v231h167v78q0 202 101.5 308t279.5 106q122 0 252 -33l-45 -226q-61 27 -139 27q-69 0 -109.5 -47.5t-40.5 -122.5v-90h246l-47 -231h-199v-799q0 -203 -99.5 -309.5t-276.5 -106.5q-122 0 -252 33z" glyph-name="f.alt" horiz-adv-x="815"/><glyph d="M133 1266q0 67 47 114t115 47q69 0 116.5 -46.5t47.5 -114.5q0 -69 -47.5 -116.5t-116.5 -47.5q-68 0 -115 47.5t-47 116.5zM139 0q6 80 6 203v600h-100l64 178h340q-5 -190 -5 -276v-502q0 -121 7 -203h-312z" glyph-name="i.alt" horiz-adv-x="577"/><glyph d="M129 1266q0 67 47 114t115 47t116 -47t48 -114q0 -69 -48 -116.5t-116 -47.5t-115 47.5t-47 116.5zM-127 -449l16 246h95q161 0 161 264v742h-100l66 178h344q-4 -51 -4 -217v-744q0 -128 -41 -232.5t-129 -170.5t-209 -66h-199z" glyph-name="j.alt" horiz-adv-x="585"/><glyph d="M201 0q0 44 2 133t2 133v484h-142v229h142v68q0 26 -2 82.5t-2 80.5l305 37q-4 -102 -4 -186v-82h264l-39 -229h-225v-488q0 -44 2 -131t2 -131h-305z" glyph-name="t.alt" horiz-adv-x="847"/><glyph d="M45 803l64 178h342q-9 -92 -9 -213v-332q0 -109 43.5 -160t116.5 -51q53 0 95.5 35.5t66.5 97.5v404q0 156 -4 219h309q-6 -61 -6 -217v-551q0 -128 18 -213h-260l-30 137q-92 -155 -283 -155q-168 0 -266.5 108t-98.5 311v402h-98z" glyph-name="u.alt" horiz-adv-x="1230"/><glyph d="M14 979h312q12 -42 45 -113l215 -483l90 209l-168 387h176l78 -191l76 191h174l-168 -379l94 -221l215 485q40 90 49 115h311q-32 -52 -98 -186l-391 -816h-78l-186 429l-191 -429h-75l-381 811q-49 106 -99 191z" glyph-name="w.alt" horiz-adv-x="1525"/><glyph d="M227 -438q76 141 113 227l113 258l-330 711q-36 81 -109 221h355q23 -80 55 -154l178 -432l152 422q20 57 51 164h332q-32 -60 -103 -227l-514 -1190h-293z" glyph-name="y.alt" horiz-adv-x="1150"/><glyph d="M90 684q0 112 19.5 214t60.5 190t99.5 152t141.5 101t181 37q101 0 185.5 -39t142.5 -105.5t98.5 -156.5t59 -190.5t18.5 -208.5q0 -110 -19.5 -211t-60.5 -189.5t-99.5 -153.5t-142 -102.5t-182.5 -37.5q-101 0 -185.5 38.5t-142 105t-97.5 156.5t-58.5 190.5 t-18.5 209.5zM399 680q0 -219 50 -337t143 -118q96 0 145 118t49 337t-50 338t-144 119q-93 0 -143 -119t-50 -338z" glyph-name="zero.non" horiz-adv-x="1187"/><glyph d="M483 0q4 86 4 211v833q-187 -76 -260 -110l-39 240q243 92 471 204h136q-4 -39 -4 -260v-909q0 -164 4 -209h-312z" glyph-name="one.non" horiz-adv-x="1077"/><glyph d="M143 0v207q100 72 190 156.5t163 174.5t116 182.5t43 170.5q0 101 -61 161t-160 60q-105 0 -169 -25t-107 -81v307q133 76 360 76q234 0 355.5 -120.5t121.5 -328.5q0 -121 -58 -243t-146.5 -223t-219.5 -214h228q123 0 233 10v-270h-889z" glyph-name="two.non" horiz-adv-x="1122"/><glyph d="M170 -170v262q49 -29 119 -47t139 -18q107 0 173.5 48.5t66.5 135.5q0 74 -71.5 121t-166.5 47q-46 0 -98 -6v237q70 -4 90 -4q90 0 152.5 48.5t62.5 119.5t-57 117.5t-142 46.5q-140 0 -256 -70v258q57 26 142 43t172 17q201 0 323.5 -97t122.5 -262q0 -107 -68 -190.5 t-188 -124.5q137 -42 213 -126.5t76 -201.5q0 -185 -133.5 -297t-354.5 -112q-172 0 -317 55z" glyph-name="three.non" horiz-adv-x="1130"/><glyph d="M569 -182q4 37 4 153v191h-538v133l727 899h94v-823q162 0 221 4v-215q-47 2 -221 2v-191q0 -79 6 -155zM573 371l2 346l-266 -346h264z" glyph-name="four.non" horiz-adv-x="1105"/><glyph d="M119 -180v280q138 -88 278 -88q112 0 182 53t70 142q0 88 -73 143.5t-199 55.5q-132 0 -207 -21q4 45 12 106.5t11 104.5l43 561q90 -4 159 -4h334q17 0 182 6v-264q-110 4 -170 4h-276l-23 -281q49 11 101 11q194 0 313 -112.5t119 -293.5q0 -146 -71 -254.5 t-184.5 -161.5t-252.5 -53q-184 0 -348 66z" glyph-name="five.non" horiz-adv-x="1122"/><glyph d="M74 457q0 137 41 271t114.5 249.5t162.5 214t198 186.5h350q-114 -73 -261.5 -237t-215.5 -310q81 58 186 58q120 0 216.5 -62t149 -164.5t52.5 -222.5q0 -131 -68 -236.5t-182.5 -163.5t-251.5 -58q-131 0 -244 63.5t-180 173.5t-67 238zM371 449q0 -89 58.5 -153.5 t150.5 -64.5q95 0 148.5 61t53.5 148q0 86 -59.5 147.5t-147.5 61.5t-146 -58.5t-58 -141.5z" glyph-name="six.non" horiz-adv-x="1132"/><glyph d="M104 901l-4 275q59 -5 256 -5h500q96 0 213 5q-92 -194 -154 -345l-337 -819q-74 -168 -91 -217h-342q52 85 109 205l422 907h-336q-189 0 -236 -6z" glyph-name="seven.non" horiz-adv-x="1110"/><glyph d="M104 371q0 113 70 212.5t186 133.5q-105 39 -159 115t-54 178q0 161 125 263.5t306 102.5q188 0 307 -104t119 -248q0 -92 -58.5 -175t-152.5 -128q119 -34 187.5 -128t68.5 -210q0 -117 -65.5 -208.5t-173 -140t-235.5 -48.5q-127 0 -234 47.5t-172 136.5t-65 201z M412 991q0 -64 55.5 -113.5t128.5 -60.5q145 45 145 170q0 69 -47.5 116.5t-118.5 47.5t-117 -47t-46 -113zM377 414q0 -76 58 -131.5t140 -55.5q84 0 140.5 55t56.5 128q0 156 -223 204q-172 -50 -172 -200z" glyph-name="eight.non" horiz-adv-x="1136"/><glyph d="M1059 737q0 -137 -41 -271t-114.5 -249.5t-162.5 -214t-198 -186.5h-350q114 73 261.5 236.5t215.5 309.5q-80 -57 -187 -57q-90 0 -168.5 36.5t-132.5 98t-85 143.5t-31 171q0 198 145.5 328t355.5 130q131 0 244.5 -63.5t180.5 -173.5t67 -238zM762 745 q0 89 -58.5 153.5t-150.5 64.5q-95 0 -149 -61t-54 -148q0 -86 59.5 -147.5t147.5 -61.5t146.5 58.5t58.5 141.5z" glyph-name="nine.non" horiz-adv-x="1132"/><glyph d="M90 684q0 112 19.5 214t60.5 190t99.5 152t141.5 101t181 37q101 0 185.5 -39t142.5 -105.5t98.5 -156.5t59 -190.5t18.5 -208.5q0 -110 -19.5 -211t-60.5 -189.5t-99.5 -153.5t-142 -102.5t-182.5 -37.5q-101 0 -185.5 38.5t-142 105t-97.5 156.5t-58.5 190.5 t-18.5 209.5zM399 680q0 -219 50 -337t143 -118q96 0 145 118t49 337t-50 338t-144 119q-93 0 -143 -119t-50 -338z" glyph-name="zero.tf" horiz-adv-x="1185"/><glyph d="M500 0q4 86 4 211v833q-187 -76 -260 -110l-39 240q243 92 471 204h135q-4 -39 -4 -260v-909q0 -164 4 -209h-311z" glyph-name="one.tf" horiz-adv-x="1185"/><glyph d="M147 0v207q100 72 190 156.5t163 174.5t116 182.5t43 170.5q0 101 -61 161t-160 60q-105 0 -169 -25t-107 -81v307q133 76 360 76q234 0 355.5 -120.5t121.5 -328.5q0 -121 -58 -243t-146.5 -223t-219.5 -214h228q123 0 233 10v-270h-889z" glyph-name="two.tf" horiz-adv-x="1185"/><glyph d="M197 35v262q49 -29 119.5 -47.5t138.5 -18.5q107 0 173 49t66 136q0 74 -71 121t-166 47q-47 0 -99 -6v237q70 -4 91 -4q90 0 152.5 48.5t62.5 119.5t-57 117.5t-142 46.5q-140 0 -256 -70v258q57 26 141.5 43t171.5 17q201 0 324 -97.5t123 -261.5q0 -107 -68 -190.5 t-188 -124.5q137 -42 212.5 -126.5t75.5 -201.5q0 -185 -133 -297t-354 -112q-172 0 -317 55z" glyph-name="three.tf" horiz-adv-x="1185"/><glyph d="M602 2q4 37 4 154v190h-538v133l727 899h94v-823q162 0 221 4v-215q-47 2 -221 2v-190q0 -80 6 -156zM606 555l2 346l-266 -346h264z" glyph-name="four.tf" horiz-adv-x="1185"/><glyph d="M172 45v281q138 -88 279 -88q112 0 181.5 52.5t69.5 141.5q0 88 -73 143.5t-199 55.5q-132 0 -207 -21q4 45 12 106.5t11 104.5l43 561q90 -4 160 -4h333q18 0 183 6v-264q-110 4 -170 4h-277l-22 -280q45 10 100 10q194 0 313 -112t119 -293q0 -146 -71 -254.5 t-184.5 -161.5t-252.5 -53q-186 0 -348 65z" glyph-name="five.tf" horiz-adv-x="1185"/><glyph d="M92 457q0 137 41 271t114.5 249.5t162.5 214t198 186.5h350q-114 -73 -261.5 -237t-215.5 -310q81 58 187 58q90 0 168.5 -36.5t132.5 -98t85 -143.5t31 -171q0 -198 -145.5 -328t-355.5 -130q-131 0 -244.5 63.5t-180.5 173.5t-67 238zM389 449q0 -89 58.5 -153.5 t150.5 -64.5q95 0 149 61t54 148q0 86 -59.5 147.5t-147.5 61.5t-146.5 -58.5t-58.5 -141.5z" glyph-name="six.tf" horiz-adv-x="1185"/><glyph d="M127 1106l-4 274q47 -4 256 -4h500q119 0 213 4q-95 -200 -154 -344l-338 -819q-70 -158 -90 -217h-342q47 77 108 205l422 907h-336q-188 0 -235 -6z" glyph-name="seven.tf" horiz-adv-x="1185"/><glyph d="M121 371q0 113 70 212.5t186 133.5q-105 39 -159 115t-54 178q0 161 124.5 263.5t305.5 102.5q188 0 307 -104t119 -248q0 -92 -58.5 -175t-152.5 -128q119 -34 187.5 -128t68.5 -210q0 -117 -65 -208.5t-172.5 -140t-235.5 -48.5q-127 0 -234 47.5t-172 136.5t-65 201z M428 991q0 -64 55.5 -113.5t128.5 -60.5q146 45 146 170q0 69 -47 116.5t-119 47.5q-71 0 -117.5 -47t-46.5 -113zM393 414q0 -76 58.5 -131.5t140.5 -55.5q84 0 140 55t56 128q0 156 -223 204q-172 -50 -172 -200z" glyph-name="eight.tf" horiz-adv-x="1185"/><glyph d="M1085 922q0 -137 -41 -271t-114.5 -250t-162.5 -214.5t-198 -186.5h-350q114 73 261.5 237t215.5 310q-81 -58 -186 -58q-120 0 -216.5 62t-149 164.5t-52.5 222.5q0 198 146 328.5t356 130.5q131 0 244 -63.5t180 -173.5t67 -238zM788 930q0 89 -58 153t-150 64 q-95 0 -149 -61t-54 -148q0 -86 59.5 -147.5t147.5 -61.5t146 59t58 142z" glyph-name="nine.tf" horiz-adv-x="1185"/><glyph glyph-name="CR" horiz-adv-x="475"/><glyph d="M-741 1417h213q1 -56 31.5 -86.5t82.5 -30.5q53 0 84.5 30.5t32.5 86.5h213q-5 -138 -98 -228.5t-232 -90.5t-232 92.5t-95 226.5z" glyph-name="brevecombcy" horiz-adv-x="0"/></font>
</defs>
</svg>
