<svg xmlns="http://www.w3.org/2000/svg" xmlns:xlink="http://www.w3.org/1999/xlink" version="1.1"><metadata>Created by FontForge 20170731 at Tue Mar 23 16:28:45 2021 By Aleksey,,, Copyright 2013 Valve Corporation. See license metadata for details.</metadata><defs><font id="Radiance-Black" horiz-adv-x="1097"><font-face x-height="1001" ascent="1573" bbox="-1354 -559 2544 1933" cap-height="1376" descent="-475" font-family="Radiance Black" font-stretch="normal" font-weight="900" panose-1="0 0 10 0 0 0 0 0 0 0" underline-position="-307" underline-thickness="102" unicode-range="U+0020-FB02" units-per-em="2048"/><glyph d="M1403 797v-592q0 -137 8 -205h-397q8 76 8 205v506h-399v-502q0 -135 6 -209h-393q6 144 6 209v502h-183v290h183v35q0 219 111.5 325.5t322.5 106.5q146 0 285 -38l-62 -281q-63 29 -133 29q-143 0 -143 -125v-52h788q-8 -79 -8 -204zM1014 1270q0 83 57.5 140.5 t140.5 57.5t141 -57.5t58 -140.5t-58 -141t-141 -58t-140.5 58t-57.5 141z" glyph-name="fi" horiz-adv-x="1521" unicode="fi"/><glyph d="M236 0q6 144 6 209v502h-183v290h183v35q0 219 111.5 325.5t322.5 106.5q146 0 285 -38l-62 -281q-63 29 -133 29q-143 0 -143 -125v-52h249l-61 -290h-188v-502q0 -135 6 -209h-393zM1012 0q6 39 6 209v1022q-1 36 -2 108.5t-2 108.5h381q-6 -39 -6 -207v-1032 q0 -170 6 -209h-383z" glyph-name="fl" horiz-adv-x="1515" unicode="fl"/><glyph glyph-name=".notdef" horiz-adv-x="487"/><glyph glyph-name=".null" horiz-adv-x="0"/><glyph glyph-name="nonmarkingreturn" horiz-adv-x="682"/><glyph glyph-name="space" horiz-adv-x="487"/><glyph d="M168 1376h395q-4 -49 -4 -229v-344q0 -181 4 -232h-395q6 68 6 232v344q0 172 -6 229zM127 223q0 103 73.5 176.5t174.5 73.5q103 0 176.5 -73.5t73.5 -176.5q0 -101 -73.5 -174.5t-176.5 -73.5q-101 0 -174.5 73.5t-73.5 174.5z" glyph-name="exclam" horiz-adv-x="745" unicode="!"/><glyph d="M139 887l-57 614h371l-62 -614h-252zM672 887l-58 614h371l-61 -614h-252z" glyph-name="quotedbl" horiz-adv-x="1067" unicode="&quot;"/><glyph d="M43 350l39 248h166l45 199h-174l37 241h172l57 308h242l-58 -308h176l60 308h244l-58 -308h156l-39 -241h-154l-43 -199h162l-33 -248h-168l-67 -332h-244l68 332h-178l-66 -332h-244l64 332h-162zM709 797h-177l-40 -199h176z" glyph-name="numbersign" horiz-adv-x="1171" unicode="#"/><glyph d="M195 88v322q124 -80 303 -80q100 0 100 76q0 34 -36.5 70.5t-112.5 82.5q-211 129 -211 387q0 130 65 211t193 123l6 156h239v-136q117 -2 226 -24v-301q-114 57 -236 57q-82 0 -82 -63q0 -57 131 -140q242 -160 242 -399q0 -258 -283 -344v-154h-243v125q-179 6 -301 31 z" glyph-name="dollar" horiz-adv-x="1171" unicode="$"/><glyph d="M66 1028q0 152 108 260.5t260 108.5t260.5 -108.5t108.5 -260.5t-108.5 -260.5t-260.5 -108.5t-260 108.5t-108 260.5zM231 0l1047 1376h307l-1048 -1376h-306zM324 1026q0 -46 32 -78.5t78 -32.5t78.5 32.5t32.5 78.5t-32.5 78.5t-78.5 32.5t-78 -32.5t-32 -78.5z M1010 348q0 152 108 260.5t260 108.5t260.5 -108.5t108.5 -260.5t-108.5 -260t-260.5 -108t-260 108t-108 260zM1268 346q0 -46 32 -78t78 -32t78.5 32t32.5 78t-32.5 78.5t-78.5 32.5t-78 -32.5t-32 -78.5z" glyph-name="percent" horiz-adv-x="1812" unicode="%"/><glyph d="M96 385q0 90 71 183t206 175q-146 134 -146 271q0 102 56 181.5t148.5 121t203.5 41.5q152 0 260.5 -96.5t108.5 -241.5q0 -150 -168 -291q94 -87 135 -137q115 119 164 207h358q-157 -223 -336 -414q46 -58 102 -78t136 -26l47 -299q-206 0 -306 28.5t-206 116.5 q-158 -145 -379 -145q-126 0 -229 48.5t-164.5 141.5t-61.5 213zM535 1026q0 -35 22 -60.5t74 -66.5q94 49 94 123q0 36 -26.5 65t-63.5 29q-42 0 -71 -25t-29 -65zM446 399q0 -49 40.5 -84.5t107.5 -35.5t143 69q-108 140 -194 215q-97 -72 -97 -164z" glyph-name="ampersand" horiz-adv-x="1536" unicode="&amp;"/><glyph d="M139 887l-57 614h371l-62 -614h-252z" glyph-name="quotesingle" horiz-adv-x="534" unicode="'"/><glyph d="M94 594q0 325 165.5 585.5t440.5 385.5l101 -279q-162 -91 -262.5 -279t-100.5 -401q0 -212 100 -412.5t263 -295.5l-103 -273q-279 134 -441.5 393.5t-162.5 575.5z" glyph-name="parenleft" horiz-adv-x="866" unicode="("/><glyph d="M772 596q0 -325 -165.5 -585.5t-440.5 -385.5l-100 279q162 91 262 279t100 401t-99.5 413.5t-262.5 294.5l102 273q279 -134 441.5 -393.5t162.5 -575.5z" glyph-name="parenright" horiz-adv-x="866" unicode=")"/><glyph d="M223 698q15 12 43 44.5t74.5 90.5t83.5 101q-195 -17 -309 -55v295q102 -27 309 -54q-57 78 -118.5 149.5t-80.5 86.5l254 149q5 -42 103 -293q92 220 100 291l256 -147q-19 -12 -75.5 -79t-123.5 -157q225 23 308 54v-295q-93 34 -308 55q3 -3 87.5 -110t113.5 -130 l-256 -141q-6 31 -36 120t-66 171q-22 -59 -50 -133.5t-40 -107.5t-15 -50z" glyph-name="asterisk" horiz-adv-x="1159" unicode="*"/><glyph d="M102 406v278h312v317h319v-317h314v-278h-314v-314h-319v314h-312z" glyph-name="plus" horiz-adv-x="1148" unicode="+"/><glyph d="M553 442q16 -75 16 -147q0 -169 -64.5 -353t-150.5 -325l-256 102q105 268 105 480q0 87 -23 184z" glyph-name="comma" horiz-adv-x="669" unicode=","/><glyph d="M66 354v359h653v-359h-653z" glyph-name="hyphen" horiz-adv-x="784" unicode="-"/><glyph d="M90 223q0 103 73.5 176.5t174.5 73.5q103 0 176.5 -73.5t73.5 -176.5q0 -101 -73.5 -174.5t-176.5 -73.5q-101 0 -174.5 73.5t-73.5 174.5z" glyph-name="period" horiz-adv-x="671" unicode="."/><glyph d="M770 1440l-397 -1516h-357l357 1516h397z" glyph-name="slash" horiz-adv-x="786" unicode="/"/><glyph d="M84 686q0 104 19.5 202t62 187.5t103 156.5t149.5 106.5t196 39.5q110 0 201 -42t151 -111.5t101.5 -161.5t59.5 -188.5t18 -196.5q0 -103 -19.5 -200.5t-61.5 -187t-103 -157t-150.5 -107.5t-196.5 -40q-110 0 -201 42t-151 111.5t-101 161.5t-59 188.5t-18 196.5z M471 682q0 -192 36.5 -292.5t106.5 -100.5q142 0 142 393q0 395 -142 395q-70 0 -106.5 -101t-36.5 -294z" glyph-name="zero" horiz-adv-x="1230" unicode="0"/><glyph d="M475 0q4 88 4 213v743q-70 -27 -239 -96l-47 303q248 88 516 215h159q-4 -33 -4 -260v-905q0 -172 4 -213h-393z" glyph-name="one" horiz-adv-x="1134" unicode="1"/><glyph d="M152 0v258q179 114 317.5 286.5t138.5 313.5q0 79 -52 129.5t-132 50.5q-111 0 -167 -23.5t-97 -82.5v387q137 70 381 70q128 0 225 -34t156.5 -97t89.5 -148t30 -190q0 -331 -350 -588h178q102 0 207 10v-342h-925z" glyph-name="two" horiz-adv-x="1155" unicode="2"/><glyph d="M164 41v328q49 -30 122.5 -51t141.5 -21q86 0 141.5 36t55.5 99q0 51 -60 87t-129 36q-53 0 -100 -8v301q56 -6 96 -6q59 0 111.5 36.5t52.5 84.5q0 49 -50.5 82.5t-117.5 33.5q-130 0 -246 -59v319q52 24 141 39t187 15q209 0 340 -98t131 -261q0 -106 -65.5 -188.5 t-180.5 -124.5q273 -92 273 -326q0 -188 -136.5 -301.5t-361.5 -113.5q-197 0 -346 61z" glyph-name="three" horiz-adv-x="1155" unicode="3"/><glyph d="M518 0q4 35 4 154v165h-504v160l752 899h104v-800q159 0 222 4v-267q-94 4 -222 4v-165q0 -95 5 -154h-361zM522 578v200l-168 -200h168z" glyph-name="four" horiz-adv-x="1105" unicode="4"/><glyph d="M106 49v357q158 -97 291 -97q91 0 145 36t54 101t-63 106.5t-158 41.5q-137 0 -217 -19q5 51 14 122t12 122l37 563q66 -4 133 -4h396q15 0 180 6v-333q-76 6 -152 6h-272l-10 -191q46 8 94 8q186 0 302 -114.5t116 -290.5q0 -121 -44 -216.5t-118 -154t-164.5 -88.5 t-189.5 -30q-205 0 -386 69z" glyph-name="five" horiz-adv-x="1155" unicode="5"/><glyph d="M63 469q0 469 467 907h433q-73 -55 -205 -211.5t-201 -281.5q61 20 127 20q128 0 224.5 -64.5t144 -166.5t47.5 -223q0 -141 -71 -249t-190 -164t-264 -56q-136 0 -254 66t-188 179t-70 244zM436 459q0 -66 43.5 -113t114.5 -47t110 44.5t39 107.5q0 62 -42.5 108.5 t-110.5 46.5t-111 -44.5t-43 -102.5z" glyph-name="six" horiz-adv-x="1155" unicode="6"/><glyph d="M102 1034v346q43 -4 277 -4h565q133 0 195 4q-14 -27 -78 -168.5t-76 -171.5l-342 -856q-7 -19 -40 -95t-36 -89h-430q38 60 111 211l399 829h-268q-226 0 -277 -6z" glyph-name="seven" horiz-adv-x="1155" unicode="7"/><glyph d="M100 379q0 111 65.5 212t178.5 130q-199 68 -199 280q0 110 62.5 197t163.5 132.5t221 45.5q198 0 321 -105t123 -251q0 -87 -54.5 -169.5t-137.5 -125.5q110 -27 173.5 -122.5t63.5 -211.5q0 -120 -70 -213.5t-180.5 -141.5t-238.5 -48q-127 0 -238.5 47.5t-182.5 138.5 t-71 205zM469 973q0 -43 47 -83.5t94 -45.5q2 1 18 8.5t21.5 10.5t18.5 11.5t19 16.5t14 20t11 27.5t3 34.5q0 53 -35 89t-88 36t-88 -38t-35 -87zM436 434q0 -53 46 -97t110 -44q63 0 106 43.5t43 97.5q0 64 -43.5 101.5t-134.5 58.5q-63 -27 -84 -45q-43 -39 -43 -115z" glyph-name="eight" horiz-adv-x="1155" unicode="8"/><glyph d="M1092 907q0 -469 -467 -907h-432q72 54 204 211.5t201 282.5q-64 -21 -127 -21q-128 0 -224.5 64.5t-144 167t-47.5 223.5q0 141 71 249t190 164t264 56q136 0 254 -66t188 -179.5t70 -244.5zM719 918q0 66 -43.5 112.5t-114.5 46.5t-110 -44t-39 -107q0 -62 42.5 -109 t110.5 -47t111 45t43 103z" glyph-name="nine" horiz-adv-x="1155" unicode="9"/><glyph d="M90 983q0 103 73.5 176.5t174.5 73.5q103 0 176.5 -73.5t73.5 -176.5q0 -101 -73.5 -174.5t-176.5 -73.5q-101 0 -174.5 73.5t-73.5 174.5zM90 223q0 103 73.5 176.5t174.5 73.5q103 0 176.5 -73.5t73.5 -176.5q0 -101 -73.5 -174.5t-176.5 -73.5q-101 0 -174.5 73.5 t-73.5 174.5z" glyph-name="colon" horiz-adv-x="671" unicode=":"/><glyph d="M98 983q0 103 73.5 176.5t174.5 73.5q103 0 176.5 -73.5t73.5 -176.5q0 -101 -73.5 -174.5t-176.5 -73.5q-101 0 -174.5 73.5t-73.5 174.5zM561 442q17 -80 17 -147q0 -169 -65 -352.5t-151 -325.5l-256 102q105 268 105 480q0 87 -23 184z" glyph-name="semicolon" horiz-adv-x="679" unicode=";"/><glyph d="M983 0l-840 428v213l840 477v-342l-504 -221l504 -213v-342z" glyph-name="less" horiz-adv-x="1146" unicode="&lt;"/><glyph d="M1047 895v-279h-945v279h945zM1047 399v-278h-945v278h945z" glyph-name="equal" horiz-adv-x="1148" unicode="="/><glyph d="M164 1118l840 -428v-213l-840 -477v342l504 221l-504 213v342z" glyph-name="greater" horiz-adv-x="1146" unicode="&gt;"/><glyph d="M268 522q0 89 97 221q102 139 102 211q0 59 -36 88t-116 29q-54 0 -111 -21.5t-89 -48.5v312q58 36 146.5 60t164.5 24q204 0 324 -102.5t120 -254.5q0 -157 -141 -319q-53 -62 -72.5 -101.5t-25.5 -97.5h-363zM207 223q0 103 73.5 176.5t174.5 73.5q103 0 176.5 -73.5 t73.5 -176.5q0 -101 -73.5 -174.5t-176.5 -73.5q-101 0 -174.5 73.5t-73.5 174.5z" glyph-name="question" horiz-adv-x="929" unicode="?"/><glyph d="M557 426q0 81 26.5 163.5t73.5 150.5t118.5 110.5t154.5 42.5q66 0 115.5 -36.5t70.5 -106.5l10 135h269l-90 -439q-17 -83 6.5 -120t68.5 -37q89 0 143 82.5t54 226.5q0 237 -163 370.5t-447 133.5q-128 0 -239 -48t-187 -129.5t-119 -191.5t-43 -233q0 -177 74 -319.5 t205 -222t294 -79.5q146 0 271 45l-17 -258q-22 -3 -70 -13t-93.5 -16t-90.5 -6q-183 0 -347 66.5t-282.5 180.5t-187.5 272t-69 335q0 184 71 345.5t190 274t279 177t334 64.5q171 0 332.5 -51.5t289.5 -144.5t205.5 -237t77.5 -315q0 -151 -55 -268t-165 -185.5 t-261 -68.5q-120 0 -196 44t-95 120q-89 -142 -242 -142q-85 0 -149 50.5t-94.5 124t-30.5 153.5zM846 473q0 -53 26 -83t70 -30q63 0 111 54l20 125q-8 40 -32 66t-58 26q-57 0 -97 -45.5t-40 -112.5z" glyph-name="at" horiz-adv-x="1918" unicode="@"/><glyph d="M6 0l22 38t19 33.5t19 35t17 32t18 36t17 34.5t20 41t20 42t23.5 50.5t25.5 54.5l475 1004h106l494 -1004q129 -262 209 -397h-444l-80 197h-500l-84 -197h-377zM582 477h266l-137 322z" glyph-name="A" horiz-adv-x="1497" unicode="A"/><glyph d="M147 0q9 105 9 360v588q0 373 -6 428h514q83 0 162.5 -18t152.5 -55.5t117.5 -106.5t44.5 -160q0 -92 -47.5 -164t-124.5 -100q101 -35 169 -124.5t68 -213.5q0 -91 -32 -165.5t-85.5 -123.5t-125 -82.5t-147.5 -48t-157 -14.5h-512zM764 989q0 60 -35.5 102t-99.5 42 h-82v-287h82q59 0 97 38.5t38 104.5zM809 430q0 74 -43.5 123t-120.5 49h-98v-346h94q79 0 123.5 44.5t44.5 129.5z" glyph-name="B" horiz-adv-x="1304" unicode="B"/><glyph d="M84 690q0 156 58.5 291t157.5 227t232.5 144.5t282.5 52.5q162 0 334 -47v-395q-46 45 -128.5 72.5t-172.5 27.5q-158 0 -265.5 -110t-107.5 -263q0 -159 111 -267t266 -108q172 0 313 78v-383q-158 -35 -350 -35q-156 0 -292.5 55t-232.5 150t-151 227.5t-55 282.5z" glyph-name="C" horiz-adv-x="1294" unicode="C"/><glyph d="M147 0q9 105 9 360v656q0 261 -9 360h572q186 0 339.5 -87t243 -243t89.5 -350q0 -123 -37.5 -233.5t-102.5 -193.5t-150 -144.5t-183 -93t-199 -31.5h-572zM549 322h119q147 0 239 103.5t92 260.5q0 160 -95.5 264.5t-237.5 104.5h-117v-733z" glyph-name="D" horiz-adv-x="1474" unicode="D"/><glyph d="M147 0q7 172 7 360v658q0 265 -7 358h578q194 0 319 8l-61 -333q-55 6 -319 6h-117v-195h110q236 0 318 6v-327q-82 6 -318 6h-110v-225h153q238 0 318 6v-334q-80 6 -318 6h-553z" glyph-name="E" horiz-adv-x="1142" unicode="E"/><glyph d="M147 0q7 96 7 360v656q0 267 -7 360h547q266 0 350 6l-61 -331q-55 6 -350 6h-86v-256h69q248 0 328 6v-330q-53 4 -328 4h-69v-121q0 -278 6 -360h-406z" glyph-name="F" horiz-adv-x="1103" unicode="F"/><glyph d="M84 694q0 157 57.5 289.5t159 225t245 144.5t312.5 52q175 0 324 -41v-369q-174 74 -312 74q-82 0 -150 -23t-112 -61t-74.5 -88t-43.5 -102t-13 -105q0 -155 106 -269t251 -114q22 0 30 4v140q0 186 -6 266h381q-6 -55 -6 -281v-397q-75 -29 -184 -47.5t-207 -18.5 q-161 0 -301 53t-241 146.5t-158.5 228.5t-57.5 293z" glyph-name="G" horiz-adv-x="1386" unicode="G"/><glyph d="M147 0q7 86 7 291v725q0 276 -7 360h404q-6 -72 -6 -360v-139h452v139q0 235 -8 360h408q-8 -196 -8 -360v-727q0 -164 8 -289h-408q8 81 8 291v270h-452v-272q0 -215 6 -289h-404z" glyph-name="H" horiz-adv-x="1544" unicode="H"/><glyph d="M147 0q7 96 7 401v574q0 308 -7 401h404q-6 -80 -6 -401v-574q0 -319 6 -401h-404z" glyph-name="I" horiz-adv-x="698" unicode="I"/><glyph d="M74 6v350q89 -47 194 -47q70 0 101.5 52t31.5 161v494q0 280 -6 360h406q-6 -80 -6 -360v-529q0 -149 -54.5 -261.5t-168 -179t-273.5 -66.5q-95 0 -225 26z" glyph-name="J" horiz-adv-x="940" unicode="J"/><glyph d="M147 0q7 96 7 360v656q0 267 -7 360h406q-6 -80 -6 -360v-260l252 374q78 115 149 246h432q-67 -88 -178 -250l-274 -397l323 -436q112 -147 238 -293h-522q-32 60 -131 199l-289 401v-240q0 -278 6 -360h-406z" glyph-name="K" horiz-adv-x="1492" unicode="K"/><glyph d="M147 0q7 172 7 360v656q0 267 -7 360h406q-6 -80 -6 -360v-684h170q295 0 358 4v-342q-82 6 -358 6h-570z" glyph-name="L" horiz-adv-x="1130" unicode="L"/><glyph d="M70 0q4 54 14 170t14 180l70 1026h321l396 -678l399 678h309l60 -1048q9 -184 24 -328h-379q-5 152 -16 301l-29 379l-335 -533h-72l-342 533l-23 -379q-3 -68 -7 -179.5t-5 -121.5h-399z" glyph-name="M" horiz-adv-x="1744" unicode="M"/><glyph d="M147 0q7 86 7 291v713q0 230 -7 399h101l721 -660v273q0 247 -6 360h387q-9 -221 -9 -360v-715q0 -182 9 -326h-97l-725 672v-358q0 -203 7 -289h-388z" glyph-name="N" horiz-adv-x="1497" unicode="N"/><glyph d="M84 694q0 201 97.5 363.5t268 254t379.5 91.5q159 0 299.5 -55.5t240.5 -151t158 -229.5t58 -285q0 -202 -98 -364.5t-268.5 -253.5t-380.5 -91q-159 0 -299.5 55.5t-240 151t-157 229t-57.5 285.5zM479 690q0 -171 101.5 -283t257.5 -112q154 0 253 111.5t99 279.5 q0 171 -102 284t-257 113t-253.5 -112t-98.5 -281z" glyph-name="O" horiz-adv-x="1669" unicode="O"/><glyph d="M1194 905q0 -208 -138.5 -327t-393.5 -119h-115v-99q0 -267 8 -360h-408q9 105 9 360v656q0 261 -9 360h508q117 0 215.5 -31.5t170.5 -90.5t112.5 -148.5t40.5 -200.5zM801 913q0 67 -48.5 117.5t-127.5 50.5h-78v-336h78q80 0 128 50t48 118z" glyph-name="P" horiz-adv-x="1267" unicode="P"/><glyph d="M1880 -29l51 -274q-143 -43 -270 -43q-110 0 -208.5 24.5t-183.5 72t-155 102.5t-145 131q-79 -11 -131 -11q-159 0 -299.5 55.5t-240 151t-157 229t-57.5 285.5q0 201 97.5 363.5t268 254t379.5 91.5q159 0 299.5 -55.5t240.5 -151t158 -229.5t58 -285 q0 -169 -69.5 -311.5t-194.5 -239.5q90 -81 198.5 -128.5t221.5 -47.5q69 0 139 16zM479 690q0 -171 101.5 -283t257.5 -112q154 0 253 111.5t99 279.5q0 171 -102 284t-257 113t-253.5 -112t-98.5 -281z" glyph-name="Q" horiz-adv-x="1669" unicode="Q"/><glyph d="M1198 932q0 -67 -16 -122.5t-37 -89.5t-53.5 -61.5t-55 -40t-51.5 -24.5l189 -315q17 -29 33 -53t36.5 -53t34 -46.5t45.5 -59.5t51 -67h-471l-266 492h-90v-130q0 -269 8 -362h-408q9 105 9 362v654q0 261 -9 360h537q231 0 372.5 -115.5t141.5 -328.5zM805 913 q0 77 -43.5 117.5t-102.5 40.5h-112v-309h96q69 0 115.5 36t46.5 115z" glyph-name="R" horiz-adv-x="1402" unicode="R"/><glyph d="M78 59l88 312q126 -99 272 -99q75 0 121.5 26t46.5 69t-42.5 81t-131.5 95q-49 31 -81.5 55t-75.5 65t-69 82.5t-44.5 101t-18.5 126.5q0 193 134.5 313.5t363.5 120.5q170 0 315 -68v-305q-146 76 -270 76q-68 0 -102.5 -23t-34.5 -57q0 -18 8.5 -34.5t31 -35.5 t37 -29.5t52 -34.5t49.5 -32q297 -197 297 -454q0 -191 -148.5 -317t-396.5 -126q-120 0 -229 28t-172 64z" glyph-name="S" horiz-adv-x="1128" unicode="S"/><glyph d="M461 0q10 173 10 360v435q0 147 -6 258h-47q-176 0 -363 -11v338q82 -4 363 -4h495q219 0 367 4v-338q-183 11 -367 11h-45q-2 -49 -2 -258v-435q0 -232 11 -360h-416z" glyph-name="T" horiz-adv-x="1335" unicode="T"/><glyph d="M547 1376q-8 -120 -8 -401v-436q0 -109 49.5 -165.5t144.5 -56.5q96 0 146.5 57t50.5 165v436q0 288 -6 401h403q-4 -88 -4 -401v-426q0 -264 -158 -418t-428 -154q-275 0 -433.5 158t-158.5 414v426q0 329 -6 401h408z" glyph-name="U" horiz-adv-x="1466" unicode="U"/><glyph d="M0 1376h440l301 -686l303 686h404q-77 -129 -160 -303l-532 -1100h-62l-532 1100q-116 236 -162 303z" glyph-name="V" horiz-adv-x="1447" unicode="V"/><glyph d="M0 1376h385l391 -755l113 237l-277 518h320l108 -221l109 221h340l-291 -532l107 -223l391 755h385l-144 -303l-516 -1091h-65l-312 581l-317 -581h-68l-526 1091q-38 77 -76 170.5t-57 132.5z" glyph-name="W" horiz-adv-x="2080" unicode="W"/><glyph d="M0 0q83 93 227 319l238 375l-236 369q-141 226 -211 313h465q31 -58 90 -164l107 -190l113 197q59 103 84 157h430q-67 -80 -207 -295l-230 -356l244 -373q172 -265 244 -352h-469q-5 14 -17 34.5t-36 59t-39 64.5l-140 233l-149 -256q-74 -129 -74 -135h-434z" glyph-name="X" horiz-adv-x="1357" unicode="X"/><glyph d="M506 0q4 125 4 299v297l-332 522q-129 199 -178 258h469q20 -53 78 -151l174 -293l172 287q50 81 86 157h432q-36 -46 -201 -299l-309 -477v-301q0 -217 6 -299h-401z" glyph-name="Y" horiz-adv-x="1411" unicode="Y"/><glyph d="M25 0q20 35 72 137.5t87 167.5l402 748h-160q-250 0 -332 -6v335q126 -6 332 -6h737l-565 -1050h205q212 0 332 6v-338q-120 6 -332 6h-778z" glyph-name="Z" horiz-adv-x="1216" unicode="Z"/><glyph d="M154 -367q4 45 4 215v1502q0 168 -4 215h485q123 0 170 4v-283q-45 4 -172 4h-168v-1382h170q123 0 170 4v-283q-45 4 -172 4h-483z" glyph-name="bracketleft" horiz-adv-x="903" unicode="["/><glyph d="M393 1452l377 -1544h-377l-395 1544h395z" glyph-name="backslash" horiz-adv-x="770" unicode="\"/><glyph d="M750 -367h-484q-127 0 -172 -4v283q47 -4 170 -4h170v1382h-168q-127 0 -172 -4v283q47 -4 170 -4h486q-5 -59 -5 -215v-1502q0 -159 5 -215z" glyph-name="bracketright" horiz-adv-x="903" unicode="]"/><glyph d="M735 815l-194 322l-183 -322h-354l473 686h152l471 -686h-365z" glyph-name="asciicircum" horiz-adv-x="1103" unicode="^"/><glyph d="M16 -274v192h910v-192h-910z" glyph-name="underscore" horiz-adv-x="942" unicode="_"/><glyph d="M70 283q0 140 90 224.5t221 100.5q26 4 78.5 7.5t91.5 5.5l39 2v18q0 48 -42 75t-118 27q-113 0 -221 -49l-109 238q62 42 163.5 66t217.5 24q251 0 365.5 -116.5t114.5 -340.5v-219q0 -227 45 -346h-365l-14 100q-79 -125 -244 -125q-136 0 -224.5 85.5t-88.5 222.5z M438 291q0 -32 21 -51t53 -19q51 0 86 55v109l-80 -4q-32 -2 -56 -28.5t-24 -61.5z" glyph-name="a" unicode="a"/><glyph d="M223 0h-98v1231h-109l76 217h410q-6 -58 -6 -207v-307q113 88 270 88q132 0 234.5 -67.5t157 -182t54.5 -254.5q0 -143 -55.5 -263.5t-162.5 -194.5t-244 -74q-102 0 -181.5 36.5t-124.5 81.5zM496 389q63 -90 172 -90q85 0 131.5 59.5t46.5 143.5q0 86 -48.5 146.5 t-127.5 60.5q-49 0 -97.5 -24t-76.5 -60v-236z" glyph-name="b" horiz-adv-x="1280" unicode="b"/><glyph d="M68 502q0 115 47 213.5t125.5 165t181 104t213.5 37.5q78 0 199 -23v-350q-78 43 -160 43q-116 0 -177 -58.5t-61 -137.5q0 -77 61.5 -131t174.5 -54q87 0 170 35v-340q-85 -20 -193 -20q-251 0 -416 145.5t-165 370.5z" glyph-name="c" horiz-adv-x="954" unicode="c"/><glyph d="M68 520q0 140 53.5 253.5t158 181t242.5 67.5q147 0 266 -88v297h-110l76 217h411q-6 -58 -6 -207v-1032q0 -148 6 -209h-276l-101 92q-103 -106 -260 -106q-136 0 -242.5 74t-162 195t-55.5 265zM434 502q0 -85 46.5 -145t131.5 -60q51 0 98 23.5t78 68.5v236 q-28 35 -79 58.5t-101 23.5q-79 0 -126.5 -59.5t-47.5 -145.5z" glyph-name="d" horiz-adv-x="1286" unicode="d"/><glyph d="M68 500q0 107 32.5 201t93.5 165t155 112.5t210 41.5q96 0 176 -28t134 -75t92 -109t55.5 -128t17.5 -133q0 -66 -18 -127h-582q15 -141 213 -141q157 0 324 61v-274q-161 -82 -348 -82q-264 0 -409.5 143t-145.5 373zM553 743q-57 0 -92.5 -41t-38.5 -96h248 q0 56 -30.5 96.5t-86.5 40.5z" glyph-name="e" unicode="e"/><glyph d="M236 0q6 144 6 209v502h-183v290h183v35q0 219 111.5 325.5t322.5 106.5q146 0 285 -38l-62 -281q-63 29 -133 29q-143 0 -143 -125v-52h249l-61 -290h-188v-502q0 -135 6 -209h-393z" glyph-name="f" horiz-adv-x="892" unicode="f"/><glyph d="M68 496q0 140 54 259.5t155.5 193t228.5 73.5q152 0 276 -119v98h314q-6 -153 -6 -155v-744q0 -146 -41 -251t-119.5 -167.5t-184 -91t-243.5 -28.5q-109 0 -214 15t-161 36l100 266q48 -10 137.5 -18t149.5 -8q133 0 190.5 49.5t57.5 158.5v19q-96 -96 -240 -96 q-131 0 -235.5 67.5t-161.5 183.5t-57 259zM434 504q0 -85 45 -146t119 -61q45 0 88.5 23.5t71.5 60.5v237q-64 91 -158 91q-75 0 -120.5 -60t-45.5 -145z" glyph-name="g" horiz-adv-x="1216" unicode="g"/><glyph d="M119 0q6 57 6 250v981h-109l76 217h424q-10 -92 -10 -207v-328q101 107 262 107q177 0 265.5 -122t88.5 -343v-305q0 -177 8 -250h-395q6 57 6 250v340q0 51 -30.5 85t-77.5 34q-73 0 -127 -95v-364q0 -177 8 -250h-395z" glyph-name="h" horiz-adv-x="1239" unicode="h"/><glyph d="M121 1270q0 83 57.5 140.5t140.5 57.5t141 -57.5t58 -140.5t-58 -141t-141 -58t-140.5 58t-57.5 141zM125 0q8 76 8 205v581q0 135 -12 215h401q-8 -79 -8 -204v-592q0 -137 8 -205h-397z" glyph-name="i" horiz-adv-x="632" unicode="i"/><glyph d="M319 1468q83 0 141 -57.5t58 -140.5t-58 -141t-141 -58t-140.5 58t-57.5 141t57.5 140.5t140.5 57.5zM-129 -418v316h113q76 0 114.5 65.5t38.5 188.5v628q0 134 -10 221h405q-6 -77 -6 -210v-660q0 -82 -14 -159.5t-46 -148.5t-78.5 -124.5t-116 -85t-154.5 -31.5h-246z" glyph-name="j" horiz-adv-x="647" unicode="j"/><glyph d="M119 0q6 39 6 209v1022h-109l76 217h410q-6 -58 -6 -207v-633l354 393h407q-77 -74 -190 -196l-240 -266l299 -373q39 -49 146 -166h-477l-299 373v-164q0 -148 6 -209h-383z" glyph-name="k" horiz-adv-x="1271" unicode="k"/><glyph d="M119 0q6 39 6 209v1022h-109l76 217h410q-6 -39 -6 -207v-1032q0 -170 6 -209h-383z" glyph-name="l" horiz-adv-x="622" unicode="l"/><glyph d="M23 780l75 221h416v-120q104 139 293 139q188 0 260 -141q106 141 295 141q170 0 268.5 -112.5t98.5 -313.5v-385q0 -152 6 -209h-394q7 110 7 209v381q0 54 -26.5 87.5t-72.5 33.5q-69 0 -127 -97v-405q0 -131 4 -209h-391q6 72 6 209v381q0 54 -27 87.5t-73 33.5 q-71 0 -129 -97v-405q0 -160 4 -209h-385q2 66 2 209v571h-110z" glyph-name="m" horiz-adv-x="1843" unicode="m"/><glyph d="M23 780l77 221h402v-102q90 121 268 121q175 0 255.5 -117t80.5 -358v-295q0 -197 6 -250h-383q6 53 6 250v340q0 53 -30.5 87t-77.5 34q-68 0 -125 -97v-364q0 -197 6 -250h-381q6 59 6 250v530h-110z" glyph-name="n" horiz-adv-x="1220" unicode="n"/><glyph d="M68 502q0 109 43.5 206.5t116 166t168.5 108t200 39.5q145 0 267 -70t192.5 -190t70.5 -260q0 -146 -74.5 -266t-195.5 -185t-260 -65q-145 0 -266.5 69t-191.5 188t-70 259zM426 502q0 -77 49.5 -135t120.5 -58t121.5 58.5t50.5 134.5q0 79 -50 135.5t-122 56.5 q-71 0 -120.5 -56.5t-49.5 -135.5z" glyph-name="o" horiz-adv-x="1193" unicode="o"/><glyph d="M23 784l77 217h402v-96q100 117 274 117q129 0 231 -67.5t157 -182.5t55 -256q0 -106 -33 -202t-91.5 -169t-146 -116t-190.5 -43q-78 0 -145 23t-111 57v-465l-375 -45q6 59 6 208v1020h-110zM852 500q0 88 -48.5 148.5t-127.5 60.5q-49 0 -97.5 -24t-76.5 -60v-236 q63 -90 172 -90q85 0 131.5 58t46.5 143z" glyph-name="p" horiz-adv-x="1286" unicode="p"/><glyph d="M68 518q0 217 123 360.5t331 143.5q43 0 79.5 -5.5t68 -18.5t46.5 -20t43 -25.5t29 -18.5v67h375q-6 -99 -6 -305v-878q0 -163 8 -234h-381q9 88 9 252v256q-112 -106 -267 -106q-134 0 -240 72.5t-162 193t-56 266.5zM432 500q0 -86 47 -144.5t131 -58.5q51 0 99 24 t79 68v236q-28 35 -80 58.5t-102 23.5q-77 0 -125.5 -59.5t-48.5 -147.5z" glyph-name="q" horiz-adv-x="1286" unicode="q"/><glyph d="M23 782l75 219h346l27 -217q143 238 303 238q60 0 121 -37l-74 -352q-58 22 -110 22q-56 0 -120 -44.5t-79 -90.5v-311q0 -107 10 -209h-397q6 105 6 209v573h-108z" glyph-name="r" horiz-adv-x="892" unicode="r"/><glyph d="M78 43l67 287q128 -82 248 -82q86 0 86 35q0 9 -5.5 17t-21 17.5t-29.5 17t-45 23t-54 27.5q-49 26 -83 50t-67.5 61t-50.5 87.5t-17 114.5q0 159 108 241.5t306 82.5q134 0 295 -53v-285q-146 80 -254 80q-74 0 -74 -35q0 -12 8.5 -22.5t26.5 -21.5t36 -20l47 -23.5 t50 -25.5q43 -23 75.5 -47.5t64.5 -61t49.5 -87t17.5 -111.5q0 -154 -113 -244t-335 -90q-90 0 -184.5 16t-151.5 52z" glyph-name="s" horiz-adv-x="942" unicode="s"/><glyph d="M59 711v290h134v95q0 40 -5 137l390 43q-7 -86 -7 -191v-84h260l-49 -290h-211v-232q0 -174 138 -174q35 0 73 17l52 -269q-44 -30 -115.5 -49.5t-126.5 -19.5q-181 0 -290 108.5t-109 306.5v312h-134z" glyph-name="t" horiz-adv-x="909" unicode="t"/><glyph d="M23 780l75 221h422q-8 -91 -8 -210v-334q0 -86 36 -127t87 -41q84 0 115 102v400q0 146 -7 210h394q-7 -64 -7 -210v-564q0 -121 19 -227h-332l-29 143q-43 -75 -107.5 -118t-172.5 -43q-169 0 -273 112.5t-104 313.5v372h-108z" glyph-name="u" horiz-adv-x="1269" unicode="u"/><glyph d="M451 1001q8 -29 41 -114l108 -281l109 291q28 78 34 104h398q-69 -113 -121 -219l-393 -807h-121l-387 805q-48 102 -119 221h451z" glyph-name="v" horiz-adv-x="1140" unicode="v"/><glyph d="M0 1001h426q5 -30 47 -145l100 -278l160 423h168l160 -403l72 205q28 71 65 198h381q-85 -157 -121 -262l-266 -755h-162l-233 483l-211 -483h-170l-303 776q-21 54 -40.5 96t-41 82.5t-31.5 62.5z" glyph-name="w" horiz-adv-x="1579" unicode="w"/><glyph d="M2 0q43 51 170 242l176 260l-192 317q-58 95 -129 182h426l133 -225l153 225h381q-47 -52 -133 -182l-196 -303l161 -274q52 -90 158 -242h-410l-143 240l-154 -240h-401z" glyph-name="x" horiz-adv-x="1138" unicode="x"/><glyph d="M0 1001h451q12 -51 47 -137l153 -354l115 346q22 69 39 145h422q-31 -52 -101 -221l-329 -784q-95 -228 -195.5 -321t-232.5 -93h-246v314q149 0 197 13t83 75l48 94l-342 715q-32 69 -109 208z" glyph-name="y" horiz-adv-x="1226" unicode="y"/><glyph d="M27 0l434 662h-205q-105 0 -166 -5l2 351q82 -7 197 -7h745l-387 -663h209q98 0 166 6v-348q-43 4 -168 4h-827z" glyph-name="z" horiz-adv-x="1081" unicode="z"/><glyph d="M47 457v286q99 0 152 48t53 143q0 36 -3 114t-3 107q0 212 147.5 312.5t452.5 103.5v-271q-132 3 -200 -47.5t-68 -142.5q0 -43 2 -108.5t2 -88.5q0 -258 -207 -313q207 -55 207 -313q0 -49 -2 -109.5t-2 -87.5q0 -92 68 -142.5t200 -47.5v-271q-305 3 -452.5 104 t-147.5 316q0 50 3 119.5t3 97.5q0 94 -54 142.5t-151 48.5z" glyph-name="braceleft" horiz-adv-x="909" unicode="{"/><glyph d="M426 1556v-1994h-289v1994h289z" glyph-name="bar" horiz-adv-x="561" unicode="|"/><glyph d="M862 743v-286q-99 0 -152 -48t-53 -143q0 -36 3.5 -114t3.5 -107q0 -212 -148 -312.5t-453 -103.5v271q132 -3 200.5 47.5t68.5 142.5q0 43 -2 108.5t-2 88.5q0 258 207 313q-207 55 -207 313q0 49 2 109.5t2 87.5q0 92 -68.5 142.5t-200.5 47.5v271q305 -3 453 -104 t148 -316q0 -50 -3.5 -119.5t-3.5 -97.5q0 -94 54 -142.5t151 -48.5z" glyph-name="braceright" horiz-adv-x="909" unicode="}"/><glyph d="M143 393q3 120 74.5 210.5t185.5 90.5q50 0 98 -20t83.5 -40t54.5 -20q27 0 42 17t15 49h217q-2 -76 -28 -142.5t-82.5 -112.5t-132.5 -46q-45 0 -86 13t-65.5 28t-48.5 28t-38 13q-57 0 -57 -68h-232z" glyph-name="asciitilde" horiz-adv-x="1056" unicode="~"/><glyph d="M625 803q0 -103 -73.5 -176.5t-174.5 -73.5q-103 0 -176.5 73.5t-73.5 176.5q0 101 73.5 174.5t176.5 73.5q101 0 174.5 -73.5t73.5 -174.5zM584 -350h-396q5 61 5 229v344q0 168 -5 232h396q-6 -68 -6 -232v-344q0 -172 6 -229z" glyph-name="exclamdown" horiz-adv-x="745" unicode="¡"/><glyph d="M920 27q-49 -17 -111 -17v-184h-223v190q-194 38 -300 159t-106 323q0 201 107.5 328t290.5 163v197h231v-193q11 0 25.5 -1.5t27 -4t23.5 -5t19 -4.5l7 -1v-340q-70 37 -166 37q-78 0 -132 -48t-54 -128t53.5 -124t132.5 -44q117 0 175 24v-327z" glyph-name="cent" horiz-adv-x="1148" unicode="¢"/><glyph d="M35 0v317q72 2 117.5 13t79 40t49 79t20.5 129h-192v233h208q31 288 176 426.5t412 138.5q74 0 217 -39l-45 -297q-5 1 -31 10t-40 12.5t-38.5 8t-45.5 4.5q-98 0 -157.5 -57.5t-70.5 -157.5l-6 -49h275l-39 -233h-254q-21 -197 -129 -273h166h155q174 0 211 4v-313 q-55 4 -219 4h-819z" glyph-name="sterling" horiz-adv-x="1148" unicode="£"/><glyph d="M160 621q0 94 51 190l-148 147l177 175l149 -150q80 39 186 39q80 0 181 -37l137 135l176 -178l-129 -131q49 -107 49 -190q0 -90 -49 -181l143 -143l-176 -174l-151 147q-86 -39 -181 -39q-107 0 -182 37l-135 -139l-182 178l135 133q-51 80 -51 181zM471 625 q0 -43 30.5 -74t73.5 -31t74 31t31 74t-31 73.5t-74 30.5t-73.5 -30.5t-30.5 -73.5z" glyph-name="currency" horiz-adv-x="1148" unicode="¤"/><glyph d="M362 0q7 147 7 195v77h-217v164h217v68h-217v188h272l-330 512q-21 32 -40.5 66.5t-31 56t-18.5 29.5h426q15 -42 55 -127l97 -211l102 209q14 28 38.5 70.5t31.5 58.5h391q-11 -16 -54 -93t-81 -135l-283 -436h260v-188h-227v-68h227v-164h-227v-73q0 -73 6 -199h-404z" glyph-name="yen" horiz-adv-x="1148" unicode="¥"/><glyph d="M426 1559v-740h-289v740h289zM426 301v-739h-289v739h289z" glyph-name="brokenbar" horiz-adv-x="561" unicode="¦"/><glyph d="M119 610q0 98 52 169.5t146 105.5q-45 35 -79.5 101t-34.5 134q0 161 106.5 248.5t327.5 87.5q198 0 348 -53v-283q-133 60 -289 60q-50 0 -77 -19t-27 -53q0 -41 47 -71.5t133 -61.5q40 -14 73.5 -28.5t73.5 -36.5t69.5 -49.5t55.5 -62t40 -80t14 -97.5 q0 -83 -43.5 -151.5t-118.5 -107.5q52 -34 82.5 -95t30.5 -142q0 -171 -124.5 -263.5t-359.5 -92.5q-105 0 -214 14.5t-173 36.5l49 291q64 -28 151.5 -49t158.5 -21q147 0 147 78q0 40 -52 70t-149 61q-56 18 -99.5 36t-96 49t-87 67.5t-58 90t-23.5 117.5zM451 682 q0 -41 27.5 -67.5t80.5 -47.5q118 -44 176 -73q35 35 35 77q0 25 -12.5 47t-28 35.5t-41.5 26.5t-40 18.5t-36 12.5q-68 25 -118 51q-43 -21 -43 -80z" glyph-name="section" horiz-adv-x="1212" unicode="§"/><glyph d="M84 688q0 144 56 275.5t150.5 226.5t225.5 151t275 56t275 -56t226 -151t151 -226.5t56 -275.5t-56 -275t-151 -225t-226 -150t-275 -56t-275 56t-225.5 150t-150.5 225t-56 275zM268 690q0 -142 70.5 -263t191.5 -191t263 -70q106 0 203.5 41.5t167.5 111.5t111.5 167.5 t41.5 203.5t-41.5 203.5t-111.5 167.5t-167.5 111.5t-203.5 41.5q-142 0 -263 -70t-191.5 -191t-70.5 -263zM457 690q0 162 118.5 271.5t282.5 109.5q70 0 152 -18v-265q-62 29 -129 29q-63 0 -104.5 -37.5t-41.5 -89.5q0 -51 39 -87t94 -36q92 0 150 33v-272 q-81 -17 -170 -17q-163 0 -277 111t-114 268z" glyph-name="copyright" horiz-adv-x="1583" unicode="©"/><glyph d="M43 164q0 82 58 129t147 55l119 10v9q0 29 -35 45t-80 16q-76 0 -131 -22l-45 159q94 33 203 33q342 0 342 -295v-110q0 -118 28 -193h-243l-15 51q-53 -71 -147 -71q-88 0 -144.5 51.5t-56.5 132.5zM289 170q0 -15 10 -27t29 -12q26 0 43 21v61l-43 -4q-39 -3 -39 -39z" glyph-name="ordfeminine" horiz-adv-x="690" unicode="ª"/><glyph d="M694 23l-612 466v60l612 471v-350l-207 -150l207 -145v-352zM1391 23l-613 466v60l613 471v-350l-207 -150l207 -145v-352z" glyph-name="guillemotleft" horiz-adv-x="1492" unicode="«"/><glyph d="M55 512v313h985v-643h-393v330h-592z" glyph-name="logicalnot" horiz-adv-x="1148" unicode="¬"/><glyph d="M127 1192q0 136 96.5 233t233.5 97q136 0 232.5 -96.5t96.5 -233.5t-96.5 -233.5t-232.5 -96.5q-137 0 -233.5 97t-96.5 233zM223 1192q0 -97 68.5 -165.5t165.5 -68.5t165 68.5t68 165.5t-68 165t-165 68t-165.5 -68t-68.5 -165zM569 1255q0 -77 -61 -92l100 -127h-116 l-54 113h-20v-113h-103q2 16 2 76v168q0 60 -2 78h117q69 0 103 -28.5t34 -74.5zM487 1249q0 15 -11.5 26t-29.5 11h-28v-74h26q43 0 43 37z" glyph-name="registered" horiz-adv-x="913" unicode="®"/><glyph d="M342 1397q124 0 212.5 -88.5t88.5 -212.5t-88.5 -212.5t-212.5 -88.5t-212.5 88.5t-88.5 212.5t88.5 212.5t212.5 88.5zM340 991q43 0 74.5 32t31.5 75q0 44 -31.5 76t-74.5 32q-44 0 -76.5 -32t-32.5 -76q0 -43 32.5 -75t76.5 -32z" glyph-name="degree" horiz-adv-x="688" unicode="°"/><glyph d="M102 733v279h312v317h319v-317h314v-279h-314v-313h-319v313h-312zM102 0v311h945v-311h-945z" glyph-name="plusminus" horiz-adv-x="1148" unicode="±"/><glyph d="M111 868v138q76 63 120.5 107t79.5 97q49 70 49 127q0 42 -27.5 68.5t-70.5 26.5q-76 0 -141 -41v243q41 18 104 28.5t117 10.5q144 0 223.5 -77.5t79.5 -209.5q0 -83 -61 -172q-27 -35 -99 -112h80q57 0 115 6v-240h-569z" glyph-name="uni00B2" horiz-adv-x="790" unicode="²"/><glyph d="M141 1409v231q101 33 205 33q140 0 221.5 -57t81.5 -156q0 -128 -139 -182q64 -18 113 -65.5t49 -122.5q0 -106 -93 -170t-223 -64t-225 41v223q76 -45 182 -45q78 0 78 53q0 20 -20 35t-56 15q-17 0 -45 -4v194l43 -2q56 0 56 41q0 43 -66 43q-78 0 -162 -41z" glyph-name="uni00B3" horiz-adv-x="790" unicode="³"/><glyph d="M23 780l75 221h422q-8 -91 -8 -210v-334q0 -86 36 -127t87 -41q84 0 115 102v400q0 146 -7 210h394q-7 -64 -7 -210v-564q0 -121 19 -227h-332l-29 143q-60 -157 -192 -157q-63 0 -104 71q20 -61 20 -166v-208q0 -137 8 -205h-397q8 76 8 205v1097h-108z" glyph-name="uni00B5" horiz-adv-x="1269" unicode="µ"/><glyph d="M74 913q0 141 75 248t195.5 161t263.5 54h733v-1538h-188v1358h-184v-999q0 -268 8 -361h-387q8 93 8 361v262q-252 0 -388 119.5t-136 334.5z" glyph-name="paragraph" horiz-adv-x="1484" unicode="¶"/><glyph d="M90 543q0 103 73.5 176.5t174.5 73.5q103 0 176.5 -73.5t73.5 -176.5q0 -101 -73.5 -174.5t-176.5 -73.5q-101 0 -174.5 73.5t-73.5 174.5z" glyph-name="periodcentered" horiz-adv-x="677" unicode="·"/><glyph d="M528 1008q0 -107 2 -140h-276q2 33 2 138v378l-160 -63l-30 203q147 54 342 147h122q-2 -18 -2 -160v-503z" glyph-name="uni00B9" horiz-adv-x="688" unicode="¹"/><glyph d="M371 594q141 0 236 -90.5t95 -220.5t-95 -221t-236 -91t-236.5 91t-95.5 221t95.5 220.5t236.5 90.5zM369 188q38 0 66 28.5t28 66.5t-28 66t-66 28t-66.5 -28t-28.5 -66t28.5 -66.5t66.5 -28.5z" glyph-name="ordmasculine" horiz-adv-x="739" unicode="º"/><glyph d="M102 1020l613 -467v-59l-613 -471v350l207 149l-207 146v352zM799 1020l612 -467v-59l-612 -471v350l207 149l-207 146v352z" glyph-name="guillemotright" horiz-adv-x="1492" unicode="»"/><glyph d="M528 719q0 -106 2 -139h-276q2 33 2 137v379l-160 -64l-30 203q147 54 342 147h122q-2 -18 -2 -159v-504zM1526 1376l-1049 -1376h-305l1047 1376h307zM1266 0q2 20 2 82v70l-369 -2v131l477 512h168v-463q86 0 121 2v-182q-39 2 -121 2v-70q0 -43 2 -82h-280zM1268 332 v172l-164 -172h164z" glyph-name="onequarter" horiz-adv-x="1716" unicode="¼"/><glyph d="M528 713q0 -107 2 -140h-276q2 33 2 138v379l-160 -64l-30 203q147 54 342 147h122q-2 -18 -2 -159v-504zM1579 1376l-1049 -1376h-305l1047 1376h307zM1253 0v137q76 63 121 107.5t80 97.5q49 70 49 127q0 42 -27.5 68t-70.5 26q-76 0 -141 -41v244q41 18 104 28.5 t117 10.5q144 0 223.5 -77.5t79.5 -209.5q0 -82 -62 -172q-35 -46 -98 -113h80q47 0 115 7v-240h-570z" glyph-name="onehalf" horiz-adv-x="1933" unicode="½"/><glyph d="M141 1116v232q98 32 205 32q140 0 221.5 -57t81.5 -156q0 -128 -139 -182q64 -18 113 -65.5t49 -122.5q0 -106 -93 -170t-223 -64t-225 41v223q76 -45 182 -45q78 0 78 54q0 20 -20 34.5t-56 14.5q-17 0 -45 -4v194l43 -2q56 0 56 41q0 43 -66 43q-78 0 -162 -41z M1583 1376l-1048 -1376h-306l1047 1376h307zM1333 0q2 20 2 82v70l-368 -2v131l477 512h168v-463q86 0 121 2v-182q-39 2 -121 2v-70q0 -43 2 -82h-281zM1335 332v172l-164 -172h164z" glyph-name="threequarters" horiz-adv-x="1783" unicode="¾"/><glyph d="M778 793q0 -103 -73.5 -176.5t-174.5 -73.5q-103 0 -176 73.5t-73 176.5q0 101 73 174t176 73q101 0 174.5 -73t73.5 -174zM717 494q0 -91 -96 -222q-103 -141 -103 -211q0 -58 36 -87t116 -29q54 0 111 21t89 48v-311q-58 -36 -146.5 -60t-164.5 -24q-204 0 -324 102 t-120 254q0 158 141 320q53 62 72.5 101.5t25.5 97.5h363z" glyph-name="questiondown" horiz-adv-x="929" unicode="¿"/><glyph d="M328 1841h370l252 -356h-346zM6 0l22 38t19 33.5t19 35t17 32t18 36t17 34.5t20 41t20 42t23.5 50.5t25.5 54.5l475 1004h106l494 -1004q129 -262 209 -397h-444l-80 197h-500l-84 -197h-377zM582 477h266l-137 322z" glyph-name="Agrave" horiz-adv-x="1497" unicode="À"/><glyph d="M1139 1841l-277 -356h-346l252 356h371zM6 0l22 38t19 33.5t19 35t17 32t18 36t17 34.5t20 41t20 42t23.5 50.5t25.5 54.5l475 1004h106l494 -1004q129 -262 209 -397h-444l-80 197h-500l-84 -197h-377zM582 477h266l-137 322z" glyph-name="Aacute" horiz-adv-x="1497" unicode="Á"/><glyph d="M358 1466l334 371h76l324 -371h-283l-78 109l-76 -109h-297zM6 0l22 38t19 33.5t19 35t17 32t18 36t17 34.5t20 41t20 42t23.5 50.5t25.5 54.5l475 1004h106l494 -1004q129 -262 209 -397h-444l-80 197h-500l-84 -197h-377zM582 477h266l-137 322z" glyph-name="Acircumflex" horiz-adv-x="1497" unicode="Â"/><glyph d="M348 1479q3 120 74.5 210.5t185.5 90.5q50 0 98 -20t83.5 -40t54.5 -20q57 0 57 65h217q-2 -76 -28.5 -142.5t-83 -112.5t-132.5 -46q-45 0 -86 13t-65 28t-48 28t-38 13q-57 0 -57 -67h-232zM6 0l22 38t19 33.5t19 35t17 32t18 36t17 34.5t20 41t20 42t23.5 50.5 t25.5 54.5l475 1004h106l494 -1004q129 -262 209 -397h-444l-80 197h-500l-84 -197h-377zM582 477h266l-137 322z" glyph-name="Atilde" horiz-adv-x="1497" unicode="Ã"/><glyph d="M299 1649q0 83 58 140.5t141 57.5t140.5 -57.5t57.5 -140.5t-57.5 -141t-140.5 -58t-141 58t-58 141zM776 1649q0 83 58 140.5t141 57.5t141 -57.5t58 -140.5t-58 -141t-141 -58t-141 58t-58 141zM6 0l22 38t19 33.5t19 35t17 32t18 36t17 34.5t20 41t20 42t23.5 50.5 t25.5 54.5l475 1004h106l494 -1004q129 -262 209 -397h-444l-80 197h-500l-84 -197h-377zM582 477h266l-137 322z" glyph-name="Adieresis" horiz-adv-x="1497" unicode="Ä"/><glyph d="M496 1653q0 91 68 154t169 63t169.5 -63t68.5 -154t-68.5 -154t-169.5 -63t-169 63t-68 154zM674 1649q0 -25 17 -42.5t42 -17.5t42.5 17.5t17.5 42.5t-17.5 42t-42.5 17t-42 -17t-17 -42zM6 0l22 38t19 33.5t19 35t17 32t18 36t17 34.5t20 41t20 42t23.5 50.5t25.5 54.5 l475 1004h106l494 -1004q129 -262 209 -397h-444l-80 197h-500l-84 -197h-377zM582 477h266l-137 322z" glyph-name="Aring" horiz-adv-x="1497" unicode="Å"/><glyph d="M6 0l22 38t19 33.5t19 35t17 32t18 36t17 34.5t20 41t20 42t23.5 50.5t25.5 54.5l463 979h555q194 0 319 8v-333q-55 6 -319 6h-138l41 -195h175q235 0 317 6v-327q-82 6 -317 6h-111l43 -225h154q237 0 317 6v-334q-88 6 -215 6h-504l-41 197h-479l-84 -197h-377z M582 477h307l-103 504z" glyph-name="AE" horiz-adv-x="1804" unicode="Æ"/><glyph d="M1165 10q-158 -35 -344 -35l-26 -51q180 -41 180 -221q0 -110 -77 -175t-224 -65q-95 0 -176 29v176q73 -26 127 -26q104 0 104 59q0 26 -29.5 42.5t-78.5 16.5q-51 0 -93 -12l123 244q-254 51 -410.5 243.5t-156.5 454.5q0 156 58.5 291t157.5 227t232.5 144.5 t282.5 52.5q162 0 334 -47v-395q-46 45 -128.5 72.5t-172.5 27.5q-158 0 -265.5 -110t-107.5 -263q0 -159 111 -267t266 -108q172 0 313 78v-383z" glyph-name="Ccedilla" horiz-adv-x="1294" unicode="Ç"/><glyph d="M109 1841h370l252 -356h-346zM147 0q7 172 7 360v658q0 265 -7 358h578q194 0 319 8l-61 -333q-55 6 -319 6h-117v-195h110q236 0 318 6v-327q-82 6 -318 6h-110v-225h153q238 0 318 6v-334q-80 6 -318 6h-553z" glyph-name="Egrave" horiz-adv-x="1142" unicode="È"/><glyph d="M920 1841l-277 -356h-346l252 356h371zM147 0q7 172 7 360v658q0 265 -7 358h578q194 0 319 8l-61 -333q-55 6 -319 6h-117v-195h110q236 0 318 6v-327q-82 6 -318 6h-110v-225h153q238 0 318 6v-334q-80 6 -318 6h-553z" glyph-name="Eacute" horiz-adv-x="1142" unicode="É"/><glyph d="M139 1466l334 371h76l323 -371h-282l-78 109l-76 -109h-297zM147 0q7 172 7 360v658q0 265 -7 358h578q194 0 319 8l-61 -333q-55 6 -319 6h-117v-195h110q236 0 318 6v-327q-82 6 -318 6h-110v-225h153q238 0 318 6v-334q-80 6 -318 6h-553z" glyph-name="Ecircumflex" horiz-adv-x="1142" unicode="Ê"/><glyph d="M80 1649q0 83 58 140.5t141 57.5t140.5 -57.5t57.5 -140.5t-57.5 -141t-140.5 -58t-141 58t-58 141zM557 1649q0 83 58 140.5t141 57.5t140.5 -57.5t57.5 -140.5t-57.5 -141t-140.5 -58t-141 58t-58 141zM147 0q7 172 7 360v658q0 265 -7 358h578q194 0 319 8l-61 -333 q-55 6 -319 6h-117v-195h110q236 0 318 6v-327q-82 6 -318 6h-110v-225h153q238 0 318 6v-334q-80 6 -318 6h-553z" glyph-name="Edieresis" horiz-adv-x="1142" unicode="Ë"/><glyph d="M-57 1841h370l252 -356h-346zM147 0q7 96 7 401v574q0 308 -7 401h404q-6 -80 -6 -401v-574q0 -319 6 -401h-404z" glyph-name="Igrave" horiz-adv-x="698" unicode="Ì"/><glyph d="M754 1841l-277 -356h-346l252 356h371zM147 0q7 96 7 401v574q0 308 -7 401h404q-6 -80 -6 -401v-574q0 -319 6 -401h-404z" glyph-name="Iacute" horiz-adv-x="698" unicode="Í"/><glyph d="M-27 1466l334 371h76l324 -371h-283l-78 109l-76 -109h-297zM147 0q7 96 7 401v574q0 308 -7 401h404q-6 -80 -6 -401v-574q0 -319 6 -401h-404z" glyph-name="Icircumflex" horiz-adv-x="698" unicode="Î"/><glyph d="M-86 1649q0 83 58 140.5t141 57.5t140.5 -57.5t57.5 -140.5t-57.5 -141t-140.5 -58t-141 58t-58 141zM391 1649q0 83 58 140.5t141 57.5t140.5 -57.5t57.5 -140.5t-57.5 -141t-140.5 -58t-141 58t-58 141zM147 0q7 96 7 401v574q0 308 -7 401h404q-6 -80 -6 -401v-574 q0 -319 6 -401h-404z" glyph-name="Idieresis" horiz-adv-x="698" unicode="Ï"/><glyph d="M719 1376q186 0 339.5 -87t243 -243t89.5 -350q0 -123 -37.5 -233.5t-102.5 -193.5t-150 -144.5t-183 -93t-199 -31.5h-572q9 105 9 360v193h-131v289h131v174q0 261 -9 360h572zM668 322q147 0 239 103.5t92 260.5q0 160 -95.5 264.5t-237.5 104.5h-117v-213h201v-289 h-201v-231h119z" glyph-name="Eth" horiz-adv-x="1474" unicode="Ð"/><glyph d="M399 1479q3 120 74.5 210.5t185.5 90.5q50 0 98 -20t83.5 -40t54.5 -20q57 0 57 65h217q-2 -76 -28 -142.5t-82.5 -112.5t-132.5 -46q-45 0 -86 13t-65.5 28t-48.5 28t-38 13q-57 0 -57 -67h-232zM147 0q7 86 7 291v713q0 230 -7 399h101l721 -660v273q0 247 -6 360h387 q-9 -221 -9 -360v-715q0 -182 9 -326h-97l-725 672v-358q0 -203 7 -289h-388z" glyph-name="Ntilde" horiz-adv-x="1497" unicode="Ñ"/><glyph d="M424 1841h371l252 -356h-347zM84 694q0 201 97.5 363.5t268 254t379.5 91.5q159 0 299.5 -55.5t240.5 -151t158 -229.5t58 -285q0 -202 -98 -364.5t-268.5 -253.5t-380.5 -91q-159 0 -299.5 55.5t-240 151t-157 229t-57.5 285.5zM479 690q0 -171 101.5 -283t257.5 -112 q154 0 253 111.5t99 279.5q0 171 -102 284t-257 113t-253.5 -112t-98.5 -281z" glyph-name="Ograve" horiz-adv-x="1669" unicode="Ò"/><glyph d="M1235 1841l-277 -356h-346l252 356h371zM84 694q0 201 97.5 363.5t268 254t379.5 91.5q159 0 299.5 -55.5t240.5 -151t158 -229.5t58 -285q0 -202 -98 -364.5t-268.5 -253.5t-380.5 -91q-159 0 -299.5 55.5t-240 151t-157 229t-57.5 285.5zM479 690q0 -171 101.5 -283 t257.5 -112q154 0 253 111.5t99 279.5q0 171 -102 284t-257 113t-253.5 -112t-98.5 -281z" glyph-name="Oacute" horiz-adv-x="1669" unicode="Ó"/><glyph d="M455 1466l333 371h76l324 -371h-283l-78 109l-75 -109h-297zM84 694q0 201 97.5 363.5t268 254t379.5 91.5q159 0 299.5 -55.5t240.5 -151t158 -229.5t58 -285q0 -202 -98 -364.5t-268.5 -253.5t-380.5 -91q-159 0 -299.5 55.5t-240 151t-157 229t-57.5 285.5zM479 690 q0 -171 101.5 -283t257.5 -112q154 0 253 111.5t99 279.5q0 171 -102 284t-257 113t-253.5 -112t-98.5 -281z" glyph-name="Ocircumflex" horiz-adv-x="1669" unicode="Ô"/><glyph d="M444 1479q3 120 75 210.5t186 90.5q50 0 97.5 -20t83 -40t54.5 -20q57 0 57 65h217q-2 -76 -28 -142.5t-82.5 -112.5t-132.5 -46q-45 0 -86 13t-65.5 28t-48.5 28t-38 13q-57 0 -57 -67h-232zM84 694q0 201 97.5 363.5t268 254t379.5 91.5q159 0 299.5 -55.5t240.5 -151 t158 -229.5t58 -285q0 -202 -98 -364.5t-268.5 -253.5t-380.5 -91q-159 0 -299.5 55.5t-240 151t-157 229t-57.5 285.5zM479 690q0 -171 101.5 -283t257.5 -112q154 0 253 111.5t99 279.5q0 171 -102 284t-257 113t-253.5 -112t-98.5 -281z" glyph-name="Otilde" horiz-adv-x="1669" unicode="Õ"/><glyph d="M395 1649q0 83 58 140.5t141 57.5t141 -57.5t58 -140.5t-58 -141t-141 -58t-141 58t-58 141zM872 1649q0 83 58 140.5t141 57.5t141 -57.5t58 -140.5t-58 -141t-141 -58t-141 58t-58 141zM84 694q0 201 97.5 363.5t268 254t379.5 91.5q159 0 299.5 -55.5t240.5 -151 t158 -229.5t58 -285q0 -202 -98 -364.5t-268.5 -253.5t-380.5 -91q-159 0 -299.5 55.5t-240 151t-157 229t-57.5 285.5zM479 690q0 -171 101.5 -283t257.5 -112q154 0 253 111.5t99 279.5q0 171 -102 284t-257 113t-253.5 -112t-98.5 -281z" glyph-name="Odieresis" horiz-adv-x="1669" unicode="Ö"/><glyph d="M406 565l-283 277l196 194l277 -276l270 264l199 -193l-272 -270l282 -278l-196 -193l-279 277l-268 -267l-195 197z" glyph-name="multiply" horiz-adv-x="1200" unicode="×"/><glyph d="M1585 1378l-186 -213q186 -202 186 -483q0 -202 -98 -364.5t-268.5 -253.5t-380.5 -91q-209 0 -389 97l-62 -70h-303l184 211q-184 200 -184 483q0 201 97.5 363.5t268 254t379.5 91.5q212 0 390 -96l61 71h305zM479 690q0 -102 39 -188l473 542q-73 39 -160 39 q-155 0 -253.5 -112t-98.5 -281zM1190 686q0 107 -41 191l-473 -543q76 -39 162 -39q154 0 253 111.5t99 279.5z" glyph-name="Oslash" horiz-adv-x="1669" unicode="Ø"/><glyph d="M332 1841h370l252 -356h-346zM547 1376q-8 -120 -8 -401v-436q0 -109 49.5 -165.5t144.5 -56.5q96 0 146.5 57t50.5 165v436q0 288 -6 401h403q-4 -88 -4 -401v-426q0 -264 -158 -418t-428 -154q-275 0 -433.5 158t-158.5 414v426q0 329 -6 401h408z" glyph-name="Ugrave" horiz-adv-x="1466" unicode="Ù"/><glyph d="M1143 1841l-277 -356h-346l252 356h371zM547 1376q-8 -120 -8 -401v-436q0 -109 49.5 -165.5t144.5 -56.5q96 0 146.5 57t50.5 165v436q0 288 -6 401h403q-4 -88 -4 -401v-426q0 -264 -158 -418t-428 -154q-275 0 -433.5 158t-158.5 414v426q0 329 -6 401h408z" glyph-name="Uacute" horiz-adv-x="1466" unicode="Ú"/><glyph d="M362 1466l334 371h76l324 -371h-283l-78 109l-76 -109h-297zM547 1376q-8 -120 -8 -401v-436q0 -109 49.5 -165.5t144.5 -56.5q96 0 146.5 57t50.5 165v436q0 288 -6 401h403q-4 -88 -4 -401v-426q0 -264 -158 -418t-428 -154q-275 0 -433.5 158t-158.5 414v426 q0 329 -6 401h408z" glyph-name="Ucircumflex" horiz-adv-x="1466" unicode="Û"/><glyph d="M303 1649q0 83 58 140.5t141 57.5t140.5 -57.5t57.5 -140.5t-57.5 -141t-140.5 -58t-141 58t-58 141zM780 1649q0 83 58 140.5t141 57.5t141 -57.5t58 -140.5t-58 -141t-141 -58t-141 58t-58 141zM547 1376q-8 -120 -8 -401v-436q0 -109 49.5 -165.5t144.5 -56.5 q96 0 146.5 57t50.5 165v436q0 288 -6 401h403q-4 -88 -4 -401v-426q0 -264 -158 -418t-428 -154q-275 0 -433.5 158t-158.5 414v426q0 329 -6 401h408z" glyph-name="Udieresis" horiz-adv-x="1466" unicode="Ü"/><glyph d="M1122 1841l-276 -356h-346l252 356h370zM506 0q4 125 4 299v297l-332 522q-129 199 -178 258h469q20 -53 78 -151l174 -293l172 287q50 81 86 157h432q-36 -46 -201 -299l-309 -477v-301q0 -217 6 -299h-401z" glyph-name="Yacute" horiz-adv-x="1411" unicode="Ý"/><glyph d="M1153 692q0 -213 -138 -331.5t-394 -118.5h-74v-29q0 -120 8 -213h-408q9 105 9 360v656q0 261 -9 360h408q-3 -34 -8 -176v-41h67q156 0 277.5 -54.5t191.5 -161.5t70 -251zM780 696q0 67 -48.5 117.5t-127.5 50.5h-57v-336h57q80 0 128 50t48 118z" glyph-name="Thorn" horiz-adv-x="1226" unicode="Þ"/><glyph d="M606 905q36 -6 72 -6q60 0 103.5 50t43.5 118q0 61 -42 99t-99 38q-86 0 -132.5 -55.5t-45.5 -161.5l8 -743q1 -40 1 -94t0.5 -90t2.5 -60h-397q4 63 4 244v747q0 115 44 214.5t118 168.5t173.5 108.5t209.5 39.5q101 0 190.5 -26.5t159.5 -77.5t110.5 -131.5 t40.5 -180.5q0 -109 -43.5 -189t-115.5 -118q117 -31 196.5 -128t79.5 -253q0 -130 -70.5 -234t-186 -159.5t-249.5 -55.5q-103 0 -194 27v340q82 -37 164 -37q63 0 113 47t50 113q0 69 -53.5 122.5t-116.5 53.5q-106 0 -139 -12v282z" glyph-name="germandbls" horiz-adv-x="1349" unicode="ß"/><glyph d="M102 1452h371l252 -356h-346zM70 283q0 140 90 224.5t221 100.5q26 4 78.5 7.5t91.5 5.5l39 2v18q0 48 -42 75t-118 27q-113 0 -221 -49l-109 238q62 42 163.5 66t217.5 24q251 0 365.5 -116.5t114.5 -340.5v-219q0 -227 45 -346h-365l-14 100q-79 -125 -244 -125 q-136 0 -224.5 85.5t-88.5 222.5zM438 291q0 -32 21 -51t53 -19q51 0 86 55v109l-80 -4q-32 -2 -56 -28.5t-24 -61.5z" glyph-name="agrave" unicode="à"/><glyph d="M913 1452l-276 -356h-346l252 356h370zM70 283q0 140 90 224.5t221 100.5q26 4 78.5 7.5t91.5 5.5l39 2v18q0 48 -42 75t-118 27q-113 0 -221 -49l-109 238q62 42 163.5 66t217.5 24q251 0 365.5 -116.5t114.5 -340.5v-219q0 -227 45 -346h-365l-14 100 q-79 -125 -244 -125q-136 0 -224.5 85.5t-88.5 222.5zM438 291q0 -32 21 -51t53 -19q51 0 86 55v109l-80 -4q-32 -2 -56 -28.5t-24 -61.5z" glyph-name="aacute" unicode="á"/><glyph d="M133 1077l334 371h76l323 -371h-282l-78 109l-76 -109h-297zM70 283q0 140 90 224.5t221 100.5q26 4 78.5 7.5t91.5 5.5l39 2v18q0 48 -42 75t-118 27q-113 0 -221 -49l-109 238q62 42 163.5 66t217.5 24q251 0 365.5 -116.5t114.5 -340.5v-219q0 -227 45 -346h-365 l-14 100q-79 -125 -244 -125q-136 0 -224.5 85.5t-88.5 222.5zM438 291q0 -32 21 -51t53 -19q51 0 86 55v109l-80 -4q-32 -2 -56 -28.5t-24 -61.5z" glyph-name="acircumflex" unicode="â"/><glyph d="M123 1090q3 120 74.5 210.5t185.5 90.5q50 0 97.5 -20t83 -40t54.5 -20q27 0 42.5 16.5t15.5 48.5h217q-2 -76 -28.5 -142.5t-83 -112.5t-132.5 -46q-45 0 -86 13t-65 28t-48 28t-38 13q-27 0 -42.5 -17t-15.5 -50h-231zM70 283q0 140 90 224.5t221 100.5q26 4 78.5 7.5 t91.5 5.5l39 2v18q0 48 -42 75t-118 27q-113 0 -221 -49l-109 238q62 42 163.5 66t217.5 24q251 0 365.5 -116.5t114.5 -340.5v-219q0 -227 45 -346h-365l-14 100q-79 -125 -244 -125q-136 0 -224.5 85.5t-88.5 222.5zM438 291q0 -32 21 -51t53 -19q51 0 86 55v109l-80 -4 q-32 -2 -56 -28.5t-24 -61.5z" glyph-name="atilde" unicode="ã"/><glyph d="M74 1260q0 83 57.5 140.5t140.5 57.5t141 -57.5t58 -140.5t-58 -141t-141 -58t-140.5 58t-57.5 141zM551 1260q0 83 58 140.5t141 57.5t140.5 -57.5t57.5 -140.5t-57.5 -141t-140.5 -58t-141 58t-58 141zM70 283q0 140 90 224.5t221 100.5q26 4 78.5 7.5t91.5 5.5l39 2 v18q0 48 -42 75t-118 27q-113 0 -221 -49l-109 238q62 42 163.5 66t217.5 24q251 0 365.5 -116.5t114.5 -340.5v-219q0 -227 45 -346h-365l-14 100q-79 -125 -244 -125q-136 0 -224.5 85.5t-88.5 222.5zM438 291q0 -32 21 -51t53 -19q51 0 86 55v109l-80 -4 q-32 -2 -56 -28.5t-24 -61.5z" glyph-name="adieresis" unicode="ä"/><glyph d="M270 1264q0 91 68.5 154t169.5 63t169 -63t68 -154t-68 -154t-169 -63t-169.5 63t-68.5 154zM449 1260q0 -25 17 -42.5t42 -17.5t42 17.5t17 42.5t-17 42t-42 17t-42 -17t-17 -42zM70 283q0 140 90 224.5t221 100.5q26 4 78.5 7.5t91.5 5.5l39 2v18q0 48 -42 75t-118 27 q-113 0 -221 -49l-109 238q62 42 163.5 66t217.5 24q251 0 365.5 -116.5t114.5 -340.5v-219q0 -227 45 -346h-365l-14 100q-79 -125 -244 -125q-136 0 -224.5 85.5t-88.5 222.5zM438 291q0 -32 21 -51t53 -19q51 0 86 55v109l-80 -4q-32 -2 -56 -28.5t-24 -61.5z" glyph-name="aring" unicode="å"/><glyph d="M70 281q0 74 26.5 134.5t71.5 99.5t99 62.5t114 30.5q26 4 78.5 7.5t91.5 5.5l39 2v18q0 48 -42 75t-118 27q-113 0 -221 -49l-109 238q66 43 162 66.5t193 23.5q173 0 272 -86q120 84 289 84q117 0 210.5 -42.5t149 -112t84.5 -151t29 -167.5q0 -63 -19 -127h-581 q15 -141 213 -141q156 0 323 61v-274q-161 -82 -346 -82q-134 0 -239 37.5t-160 97.5q-57 -70 -124.5 -107t-162.5 -37q-147 0 -235 84.5t-88 221.5zM879 606h245q0 56 -29 96.5t-85 40.5q-57 0 -92.5 -41t-38.5 -96zM438 291q0 -32 21 -51t53 -19q28 0 53 16.5t41 41.5 q-24 46 -24 106l-64 -4q-32 -2 -56 -28.5t-24 -61.5z" glyph-name="ae" horiz-adv-x="1552" unicode="æ"/><glyph d="M842 6q-79 -20 -185 -20l-32 -62q180 -41 180 -221q0 -110 -77 -175t-224 -65q-95 0 -176 29v176q73 -26 127 -26q104 0 104 59q0 26 -29.5 42.5t-78.5 16.5q-51 0 -93 -12l129 256q-189 43 -304 177.5t-115 320.5q0 115 47 213.5t125.5 165t181 104t213.5 37.5 q78 0 199 -23v-350q-78 43 -160 43q-116 0 -177 -58.5t-61 -137.5q0 -77 61.5 -131t174.5 -54q87 0 170 35v-340z" glyph-name="ccedilla" horiz-adv-x="954" unicode="ç"/><glyph d="M147 1452h371l252 -356h-346zM68 500q0 107 32.5 201t93.5 165t155 112.5t210 41.5q96 0 176 -28t134 -75t92 -109t55.5 -128t17.5 -133q0 -66 -18 -127h-582q15 -141 213 -141q157 0 324 61v-274q-161 -82 -348 -82q-264 0 -409.5 143t-145.5 373zM553 743 q-57 0 -92.5 -41t-38.5 -96h248q0 56 -30.5 96.5t-86.5 40.5z" glyph-name="egrave" unicode="è"/><glyph d="M958 1452l-276 -356h-346l252 356h370zM68 500q0 107 32.5 201t93.5 165t155 112.5t210 41.5q96 0 176 -28t134 -75t92 -109t55.5 -128t17.5 -133q0 -66 -18 -127h-582q15 -141 213 -141q157 0 324 61v-274q-161 -82 -348 -82q-264 0 -409.5 143t-145.5 373zM553 743 q-57 0 -92.5 -41t-38.5 -96h248q0 56 -30.5 96.5t-86.5 40.5z" glyph-name="eacute" unicode="é"/><glyph d="M178 1077l334 371h76l323 -371h-282l-78 109l-76 -109h-297zM68 500q0 107 32.5 201t93.5 165t155 112.5t210 41.5q96 0 176 -28t134 -75t92 -109t55.5 -128t17.5 -133q0 -66 -18 -127h-582q15 -141 213 -141q157 0 324 61v-274q-161 -82 -348 -82q-264 0 -409.5 143 t-145.5 373zM553 743q-57 0 -92.5 -41t-38.5 -96h248q0 56 -30.5 96.5t-86.5 40.5z" glyph-name="ecircumflex" unicode="ê"/><glyph d="M119 1260q0 83 57.5 140.5t140.5 57.5t141 -57.5t58 -140.5t-58 -141t-141 -58t-140.5 58t-57.5 141zM596 1260q0 83 58 140.5t141 57.5t140.5 -57.5t57.5 -140.5t-57.5 -141t-140.5 -58t-141 58t-58 141zM68 500q0 107 32.5 201t93.5 165t155 112.5t210 41.5 q96 0 176 -28t134 -75t92 -109t55.5 -128t17.5 -133q0 -66 -18 -127h-582q15 -141 213 -141q157 0 324 61v-274q-161 -82 -348 -82q-264 0 -409.5 143t-145.5 373zM553 743q-57 0 -92.5 -41t-38.5 -96h248q0 56 -30.5 96.5t-86.5 40.5z" glyph-name="edieresis" unicode="ë"/><glyph d="M-68 1452h371l252 -356h-346zM125 0q8 76 8 205v581q0 135 -12 215h401q-8 -79 -8 -204v-592q0 -137 8 -205h-397z" glyph-name="igrave" horiz-adv-x="643" unicode="ì"/><glyph d="M743 1452l-276 -356h-346l252 356h370zM125 0q8 76 8 205v581q0 135 -12 215h401q-8 -79 -8 -204v-592q0 -137 8 -205h-397z" glyph-name="iacute" horiz-adv-x="643" unicode="í"/><glyph d="M-37 1077l334 371h76l323 -371h-282l-78 109l-76 -109h-297zM125 0q8 76 8 205v581q0 135 -12 215h401q-8 -79 -8 -204v-592q0 -137 8 -205h-397z" glyph-name="icircumflex" horiz-adv-x="643" unicode="î"/><glyph d="M-96 1260q0 83 57.5 140.5t140.5 57.5t141 -57.5t58 -140.5t-58 -141t-141 -58t-140.5 58t-57.5 141zM381 1260q0 83 58 140.5t141 57.5t140.5 -57.5t57.5 -140.5t-57.5 -141t-140.5 -58t-141 58t-58 141zM125 0q8 76 8 205v581q0 135 -12 215h401q-8 -79 -8 -204v-592 q0 -137 8 -205h-397z" glyph-name="idieresis" horiz-adv-x="643" unicode="ï"/><glyph d="M874 1249q122 -125 187 -295t65 -368q0 -144 -43.5 -260.5t-117.5 -189.5t-168.5 -111.5t-200.5 -38.5q-145 0 -266.5 68.5t-191.5 188t-70 261.5q0 191 121.5 313.5t304.5 122.5q109 0 198 -49q-20 109 -123 199l-231 -121l-80 143l148 76q-100 41 -207 41l37 289 q288 -12 503 -156l209 108l82 -141zM596 309q71 0 121.5 58.5t50.5 136.5q0 77 -50.5 133.5t-121.5 56.5t-120.5 -56.5t-49.5 -133.5q0 -78 49.5 -136.5t120.5 -58.5z" glyph-name="eth" horiz-adv-x="1193" unicode="ð"/><glyph d="M190 1090q3 120 75 210.5t186 90.5q50 0 97.5 -20t83 -40t54.5 -20q57 0 57 65h218q-2 -76 -28.5 -142.5t-83 -112.5t-132.5 -46q-45 0 -86 13t-65.5 28t-48.5 28t-38 13q-57 0 -57 -67h-232zM23 780l77 221h402v-102q90 121 268 121q175 0 255.5 -117t80.5 -358v-295 q0 -197 6 -250h-383q6 53 6 250v340q0 53 -30.5 87t-77.5 34q-68 0 -125 -97v-364q0 -197 6 -250h-381q6 59 6 250v530h-110z" glyph-name="ntilde" horiz-adv-x="1220" unicode="ñ"/><glyph d="M184 1450h371l252 -356h-346zM68 502q0 109 43.5 206.5t116 166t168.5 108t200 39.5q145 0 267 -70t192.5 -190t70.5 -260q0 -146 -74.5 -266t-195.5 -185t-260 -65q-145 0 -266.5 69t-191.5 188t-70 259zM426 502q0 -77 49.5 -135t120.5 -58t121.5 58.5t50.5 134.5 q0 79 -50 135.5t-122 56.5q-71 0 -120.5 -56.5t-49.5 -135.5z" glyph-name="ograve" horiz-adv-x="1193" unicode="ò"/><glyph d="M995 1450l-276 -356h-346l252 356h370zM68 502q0 109 43.5 206.5t116 166t168.5 108t200 39.5q145 0 267 -70t192.5 -190t70.5 -260q0 -146 -74.5 -266t-195.5 -185t-260 -65q-145 0 -266.5 69t-191.5 188t-70 259zM426 502q0 -77 49.5 -135t120.5 -58t121.5 58.5 t50.5 134.5q0 79 -50 135.5t-122 56.5q-71 0 -120.5 -56.5t-49.5 -135.5z" glyph-name="oacute" horiz-adv-x="1193" unicode="ó"/><glyph d="M215 1075l334 371h76l323 -371h-282l-78 109l-76 -109h-297zM68 502q0 109 43.5 206.5t116 166t168.5 108t200 39.5q145 0 267 -70t192.5 -190t70.5 -260q0 -146 -74.5 -266t-195.5 -185t-260 -65q-145 0 -266.5 69t-191.5 188t-70 259zM426 502q0 -77 49.5 -135 t120.5 -58t121.5 58.5t50.5 134.5q0 79 -50 135.5t-122 56.5q-71 0 -120.5 -56.5t-49.5 -135.5z" glyph-name="ocircumflex" horiz-adv-x="1193" unicode="ô"/><glyph d="M205 1087q3 120 74.5 211t185.5 91q50 0 97.5 -20t83 -40t54.5 -20q27 0 42.5 16.5t15.5 48.5h217q-2 -76 -28.5 -142.5t-83 -112.5t-132.5 -46q-45 0 -86 13t-65 28t-48 28t-38 13q-27 0 -42.5 -17.5t-15.5 -50.5h-231zM68 502q0 109 43.5 206.5t116 166t168.5 108 t200 39.5q145 0 267 -70t192.5 -190t70.5 -260q0 -146 -74.5 -266t-195.5 -185t-260 -65q-145 0 -266.5 69t-191.5 188t-70 259zM426 502q0 -77 49.5 -135t120.5 -58t121.5 58.5t50.5 134.5q0 79 -50 135.5t-122 56.5q-71 0 -120.5 -56.5t-49.5 -135.5z" glyph-name="otilde" horiz-adv-x="1193" unicode="õ"/><glyph d="M156 1257q0 83 57.5 141t140.5 58t141 -58t58 -141t-58 -140.5t-141 -57.5t-140.5 57.5t-57.5 140.5zM633 1257q0 83 57.5 141t140.5 58t141 -58t58 -141t-58 -140.5t-141 -57.5t-140.5 57.5t-57.5 140.5zM68 502q0 109 43.5 206.5t116 166t168.5 108t200 39.5 q145 0 267 -70t192.5 -190t70.5 -260q0 -146 -74.5 -266t-195.5 -185t-260 -65q-145 0 -266.5 69t-191.5 188t-70 259zM426 502q0 -77 49.5 -135t120.5 -58t121.5 58.5t50.5 134.5q0 79 -50 135.5t-122 56.5q-71 0 -120.5 -56.5t-49.5 -135.5z" glyph-name="odieresis" horiz-adv-x="1193" unicode="ö"/><glyph d="M383 1141q0 89 63 152t152 63t152 -63t63 -152t-63 -152t-152 -63t-152 63t-63 152zM1108 821v-289h-1018v289h1018zM383 231q0 89 63 152t152 63t152 -63t63 -152t-63 -152t-152 -63t-152 63t-63 152z" glyph-name="divide" horiz-adv-x="1200" unicode="÷"/><glyph d="M987 852q139 -149 139 -350q0 -146 -74.5 -266t-195.5 -185t-260 -65q-168 0 -305 94l-72 -80h-151l139 154q-139 142 -139 348q0 109 43.5 206.5t116 166t168.5 108t200 39.5q171 0 309 -98l70 77h147zM426 502q0 -46 18 -86l232 256q-36 22 -80 22q-71 0 -120.5 -56.5 t-49.5 -135.5zM596 309q71 0 121.5 58.5t50.5 134.5q0 46 -18 86l-232 -256q38 -23 78 -23z" glyph-name="oslash" horiz-adv-x="1193" unicode="ø"/><glyph d="M217 1452h371l252 -356h-346zM23 780l75 221h422q-8 -91 -8 -210v-334q0 -86 36 -127t87 -41q84 0 115 102v400q0 146 -7 210h394q-7 -64 -7 -210v-564q0 -121 19 -227h-332l-29 143q-43 -75 -107.5 -118t-172.5 -43q-169 0 -273 112.5t-104 313.5v372h-108z" glyph-name="ugrave" horiz-adv-x="1269" unicode="ù"/><glyph d="M1028 1452l-276 -356h-346l251 356h371zM23 780l75 221h422q-8 -91 -8 -210v-334q0 -86 36 -127t87 -41q84 0 115 102v400q0 146 -7 210h394q-7 -64 -7 -210v-564q0 -121 19 -227h-332l-29 143q-43 -75 -107.5 -118t-172.5 -43q-169 0 -273 112.5t-104 313.5v372h-108z" glyph-name="uacute" horiz-adv-x="1269" unicode="ú"/><glyph d="M248 1077l334 371h75l324 -371h-283l-77 109l-76 -109h-297zM23 780l75 221h422q-8 -91 -8 -210v-334q0 -86 36 -127t87 -41q84 0 115 102v400q0 146 -7 210h394q-7 -64 -7 -210v-564q0 -121 19 -227h-332l-29 143q-43 -75 -107.5 -118t-172.5 -43q-169 0 -273 112.5 t-104 313.5v372h-108z" glyph-name="ucircumflex" horiz-adv-x="1269" unicode="û"/><glyph d="M188 1260q0 83 58 140.5t141 57.5t141 -57.5t58 -140.5t-58 -141t-141 -58t-141 58t-58 141zM666 1260q0 83 57.5 140.5t140.5 57.5t141 -57.5t58 -140.5t-58 -141t-141 -58t-140.5 58t-57.5 141zM23 780l75 221h422q-8 -91 -8 -210v-334q0 -86 36 -127t87 -41 q84 0 115 102v400q0 146 -7 210h394q-7 -64 -7 -210v-564q0 -121 19 -227h-332l-29 143q-43 -75 -107.5 -118t-172.5 -43q-169 0 -273 112.5t-104 313.5v372h-108z" glyph-name="udieresis" horiz-adv-x="1269" unicode="ü"/><glyph d="M1036 1452l-276 -356h-346l252 356h370zM0 1001h451q12 -51 47 -137l153 -354l115 346q22 69 39 145h422q-31 -52 -101 -221l-329 -784q-95 -228 -195.5 -321t-232.5 -93h-246v314q149 0 197 13t83 75l48 94l-342 715q-32 69 -109 208z" glyph-name="yacute" horiz-adv-x="1226" unicode="ý"/><glyph d="M1219 516q0 -106 -33 -202t-91.5 -169t-146 -116t-190.5 -43q-78 0 -145 23t-111 57v-279q0 -137 8 -205h-383q6 59 6 209v1493q0 137 -12 217h389q-8 -79 -8 -205v-391q100 117 274 117q129 0 231 -67.5t157 -182.5t55 -256zM852 500q0 88 -48.5 148.5t-127.5 60.5 q-49 0 -97.5 -24t-76.5 -60v-236q63 -90 172 -90q85 0 131.5 58t46.5 143z" glyph-name="thorn" horiz-adv-x="1286" unicode="þ"/><glyph d="M197 1260q0 83 57.5 140.5t140.5 57.5t141 -57.5t58 -140.5t-58 -141t-141 -58t-140.5 58t-57.5 141zM674 1260q0 83 57.5 140.5t140.5 57.5t141 -57.5t58 -140.5t-58 -141t-141 -58t-140.5 58t-57.5 141zM0 1001h451q12 -51 47 -137l153 -354l115 346q22 69 39 145h422 q-31 -52 -101 -221l-329 -784q-95 -228 -195.5 -321t-232.5 -93h-246v314q149 0 197 13t83 75l48 94l-342 715q-32 69 -109 208z" glyph-name="ydieresis" horiz-adv-x="1226" unicode="ÿ"/><glyph d="M399 1526v241h668v-241h-668zM6 0l22 38t19 33.5t19 35t17 32t18 36t17 34.5t20 41t20 42t23.5 50.5t25.5 54.5l475 1004h106l494 -1004q129 -262 209 -397h-444l-80 197h-500l-84 -197h-377zM582 477h266l-137 322z" glyph-name="Amacron" horiz-adv-x="1497" unicode="Ā"/><glyph d="M174 1137v241h668v-241h-668zM70 283q0 140 90 224.5t221 100.5q26 4 78.5 7.5t91.5 5.5l39 2v18q0 48 -42 75t-118 27q-113 0 -221 -49l-109 238q62 42 163.5 66t217.5 24q251 0 365.5 -116.5t114.5 -340.5v-219q0 -227 45 -346h-365l-14 100q-79 -125 -244 -125 q-136 0 -224.5 85.5t-88.5 222.5zM438 291q0 -32 21 -51t53 -19q51 0 86 55v109l-80 -4q-32 -2 -56 -28.5t-24 -61.5z" glyph-name="amacron" unicode="ā"/><glyph d="M645 1823q0 -43 25 -66.5t61 -23.5q37 0 62.5 23.5t25.5 66.5h254q-4 -142 -104.5 -239t-237.5 -97q-140 0 -240 100t-100 236h254zM6 0l22 38t19 33.5t19 35t17 32t18 36t17 34.5t20 41t20 42t23.5 50.5t25.5 54.5l475 1004h106l494 -1004q129 -262 209 -397h-444 l-80 197h-500l-84 -197h-377zM582 477h266l-137 322z" glyph-name="Abreve" horiz-adv-x="1497" unicode="Ă"/><glyph d="M420 1434q0 -43 25 -67t61 -24t62 24t26 67h254q-4 -142 -104.5 -239t-237.5 -97q-140 0 -240 100t-100 236h254zM70 283q0 140 90 224.5t221 100.5q26 4 78.5 7.5t91.5 5.5l39 2v18q0 48 -42 75t-118 27q-113 0 -221 -49l-109 238q62 42 163.5 66t217.5 24 q251 0 365.5 -116.5t114.5 -340.5v-219q0 -227 45 -346h-365l-14 100q-79 -125 -244 -125q-136 0 -224.5 85.5t-88.5 222.5zM438 291q0 -32 21 -51t53 -19q51 0 86 55v109l-80 -4q-32 -2 -56 -28.5t-24 -61.5z" glyph-name="abreve" unicode="ă"/><glyph d="M1348 -281q60 0 112 27l31 -205q-105 -63 -266 -63q-128 0 -202.5 59.5t-74.5 163.5q0 178 172 299h-73l-80 197h-500l-84 -197h-377l22 38t19 33.5t19 35t17 32t18 36t17 34.5t20 41t20 42t23.5 50.5t25.5 54.5l475 1004h106l494 -1004q129 -262 209 -397 q-229 -87 -229 -207q0 -39 21 -56.5t65 -17.5zM582 477h266l-137 322z" glyph-name="Aogonek" horiz-adv-x="1497" unicode="Ą"/><glyph d="M862 -281q61 0 113 27l31 -205q-105 -63 -267 -63q-128 0 -202 59.5t-74 163.5q0 92 43 165.5t135 137.5l-14 96q-79 -125 -244 -125q-136 0 -224.5 85.5t-88.5 222.5q0 140 90 224.5t221 100.5q26 4 78.5 7.5t91.5 5.5l39 2v18q0 48 -42 75t-118 27q-113 0 -221 -49 l-109 238q62 42 163.5 66t217.5 24q251 0 365.5 -116.5t114.5 -340.5v-219q0 -227 45 -346q-230 -87 -230 -207q0 -39 21 -56.5t65 -17.5zM598 276v109l-80 -4q-32 -2 -56 -28.5t-24 -61.5q0 -32 21 -51t53 -19q51 0 86 55z" glyph-name="aogonek" unicode="ą"/><glyph d="M1116 1841l-276 -356h-346l251 356h371zM84 690q0 156 58.5 291t157.5 227t232.5 144.5t282.5 52.5q162 0 334 -47v-395q-46 45 -128.5 72.5t-172.5 27.5q-158 0 -265.5 -110t-107.5 -263q0 -159 111 -267t266 -108q172 0 313 78v-383q-158 -35 -350 -35 q-156 0 -292.5 55t-232.5 150t-151 227.5t-55 282.5z" glyph-name="Cacute" horiz-adv-x="1294" unicode="Ć"/><glyph d="M885 1452l-277 -356h-346l252 356h371zM68 502q0 115 47 213.5t125.5 165t181 104t213.5 37.5q78 0 199 -23v-350q-78 43 -160 43q-116 0 -177 -58.5t-61 -137.5q0 -77 61.5 -131t174.5 -54q87 0 170 35v-340q-85 -20 -193 -20q-251 0 -416 145.5t-165 370.5z" glyph-name="cacute" horiz-adv-x="954" unicode="ć"/><glyph d="M512 1659q0 83 58 141t141 58t140.5 -58t57.5 -141t-57.5 -141t-140.5 -58t-141 58t-58 141zM84 690q0 156 58.5 291t157.5 227t232.5 144.5t282.5 52.5q162 0 334 -47v-395q-46 45 -128.5 72.5t-172.5 27.5q-158 0 -265.5 -110t-107.5 -263q0 -159 111 -267t266 -108 q172 0 313 78v-383q-158 -35 -350 -35q-156 0 -292.5 55t-232.5 150t-151 227.5t-55 282.5z" glyph-name="Cdotaccent" horiz-adv-x="1294" unicode="Ċ"/><glyph d="M281 1270q0 83 57.5 140.5t140.5 57.5t141 -57.5t58 -140.5t-58 -141t-141 -58t-140.5 58t-57.5 141zM68 502q0 115 47 213.5t125.5 165t181 104t213.5 37.5q78 0 199 -23v-350q-78 43 -160 43q-116 0 -177 -58.5t-61 -137.5q0 -77 61.5 -131t174.5 -54q87 0 170 35v-340 q-85 -20 -193 -20q-251 0 -416 145.5t-165 370.5z" glyph-name="cdotaccent" horiz-adv-x="954" unicode="ċ"/><glyph d="M1083 1837l-333 -371h-76l-324 371h283l78 -108l75 108h297zM84 690q0 156 58.5 291t157.5 227t232.5 144.5t282.5 52.5q162 0 334 -47v-395q-46 45 -128.5 72.5t-172.5 27.5q-158 0 -265.5 -110t-107.5 -263q0 -159 111 -267t266 -108q172 0 313 78v-383 q-158 -35 -350 -35q-156 0 -292.5 55t-232.5 150t-151 227.5t-55 282.5z" glyph-name="Ccaron" horiz-adv-x="1294" unicode="Č"/><glyph d="M852 1448l-334 -371h-76l-323 371h282l78 -109l76 109h297zM68 502q0 115 47 213.5t125.5 165t181 104t213.5 37.5q78 0 199 -23v-350q-78 43 -160 43q-116 0 -177 -58.5t-61 -137.5q0 -77 61.5 -131t174.5 -54q87 0 170 35v-340q-85 -20 -193 -20q-251 0 -416 145.5 t-165 370.5z" glyph-name="ccaron" horiz-adv-x="954" unicode="č"/><glyph d="M1030 1837l-334 -371h-75l-324 371h283l77 -108l76 108h297zM147 0q9 105 9 360v656q0 261 -9 360h572q186 0 339.5 -87t243 -243t89.5 -350q0 -123 -37.5 -233.5t-102.5 -193.5t-150 -144.5t-183 -93t-199 -31.5h-572zM549 322h119q147 0 239 103.5t92 260.5 q0 160 -95.5 264.5t-237.5 104.5h-117v-733z" glyph-name="Dcaron" horiz-adv-x="1474" unicode="Ď"/><glyph d="M1542 1053h-274l28 417h310zM68 520q0 140 53.5 253.5t158 181t242.5 67.5q147 0 266 -88v297h-110l76 217h411q-6 -58 -6 -207v-1032q0 -148 6 -209h-276l-101 92q-103 -106 -260 -106q-136 0 -242.5 74t-162 195t-55.5 265zM434 502q0 -85 46.5 -145t131.5 -60 q51 0 98 23.5t78 68.5v236q-28 35 -79 58.5t-101 23.5q-79 0 -126.5 -59.5t-47.5 -145.5z" glyph-name="dcaron" horiz-adv-x="1286" unicode="ď"/><glyph d="M719 1376q186 0 339.5 -87t243 -243t89.5 -350q0 -123 -37.5 -233.5t-102.5 -193.5t-150 -144.5t-183 -93t-199 -31.5h-572q9 105 9 360v193h-131v289h131v174q0 261 -9 360h572zM668 322q147 0 239 103.5t92 260.5q0 160 -95.5 264.5t-237.5 104.5h-117v-213h201v-289 h-201v-231h119z" glyph-name="Dcroat" horiz-adv-x="1474" unicode="Đ"/><glyph d="M1241 1061h-82v-852q0 -148 6 -209h-276l-101 92q-103 -106 -260 -106q-136 0 -242.5 74t-162 195t-55.5 265q0 140 53.5 253.5t158 181t242.5 67.5q147 0 266 -88v127h-323v137h323v33h-110l76 217h411q-6 -58 -6 -207v-43h82v-137zM788 389v236q-28 35 -79 58.5 t-101 23.5q-79 0 -126.5 -59.5t-47.5 -145.5q0 -85 46.5 -145t131.5 -60q51 0 98 23.5t78 68.5z" glyph-name="dslash" horiz-adv-x="1286" unicode="đ"/><glyph d="M180 1526v241h668v-241h-668zM147 0q7 172 7 360v658q0 265 -7 358h578q194 0 319 8l-61 -333q-55 6 -319 6h-117v-195h110q236 0 318 6v-327q-82 6 -318 6h-110v-225h153q238 0 318 6v-334q-80 6 -318 6h-553z" glyph-name="Emacron" horiz-adv-x="1142" unicode="Ē"/><glyph d="M219 1137v241h668v-241h-668zM68 500q0 107 32.5 201t93.5 165t155 112.5t210 41.5q96 0 176 -28t134 -75t92 -109t55.5 -128t17.5 -133q0 -66 -18 -127h-582q15 -141 213 -141q157 0 324 61v-274q-161 -82 -348 -82q-264 0 -409.5 143t-145.5 373zM553 743 q-57 0 -92.5 -41t-38.5 -96h248q0 56 -30.5 96.5t-86.5 40.5z" glyph-name="emacron" unicode="ē"/><glyph d="M315 1659q0 83 58 141t141 58t141 -58t58 -141t-58 -141t-141 -58t-141 58t-58 141zM147 0q7 172 7 360v658q0 265 -7 358h578q194 0 319 8l-61 -333q-55 6 -319 6h-117v-195h110q236 0 318 6v-327q-82 6 -318 6h-110v-225h153q238 0 318 6v-334q-80 6 -318 6h-553z" glyph-name="Edotaccent" horiz-adv-x="1142" unicode="Ė"/><glyph d="M354 1270q0 83 58 140.5t141 57.5t141 -57.5t58 -140.5t-58 -141t-141 -58t-141 58t-58 141zM68 500q0 107 32.5 201t93.5 165t155 112.5t210 41.5q96 0 176 -28t134 -75t92 -109t55.5 -128t17.5 -133q0 -66 -18 -127h-582q15 -141 213 -141q157 0 324 61v-274 q-161 -82 -348 -82q-264 0 -409.5 143t-145.5 373zM553 743q-57 0 -92.5 -41t-38.5 -96h248q0 56 -30.5 96.5t-86.5 40.5z" glyph-name="edotaccent" unicode="ė"/><glyph d="M1008 -6q-215 -84 -215 -201q0 -39 21 -56.5t65 -17.5q60 0 112 27l31 -205q-105 -63 -266 -63q-128 0 -202.5 59.5t-74.5 163.5q0 178 172 299h-504q7 172 7 360v658q0 265 -7 358h578q194 0 319 8l-61 -333q-55 6 -319 6h-117v-195h110q236 0 318 6v-327q-82 6 -318 6 h-110v-225h153q238 0 318 6v-322l4 -6q-1 0 -2 -1t-2 -1v-4h-10z" glyph-name="Eogonek" horiz-adv-x="1142" unicode="Ę"/><glyph d="M1034 547q0 -66 -18 -127h-582q15 -141 213 -141q157 0 324 61v-274q-2 -1 -2 -3q-230 -120 -230 -249q0 -49 27 -72t72 -23q48 0 100 27l31 -205q-105 -63 -267 -63q-127 0 -201.5 64t-74.5 169q0 154 111 277q-225 24 -347 163t-122 349q0 107 32.5 201t93.5 165 t155 112.5t210 41.5q96 0 176 -28t134 -75t92 -109t55.5 -128t17.5 -133zM422 606h248q0 56 -30.5 96.5t-86.5 40.5q-57 0 -92.5 -41t-38.5 -96z" glyph-name="eogonek" unicode="ę"/><glyph d="M887 1837l-334 -371h-76l-323 371h282l78 -108l76 108h297zM147 0q7 172 7 360v658q0 265 -7 358h578q194 0 319 8l-61 -333q-55 6 -319 6h-117v-195h110q236 0 318 6v-327q-82 6 -318 6h-110v-225h153q238 0 318 6v-334q-80 6 -318 6h-553z" glyph-name="Ecaron" horiz-adv-x="1142" unicode="Ě"/><glyph d="M926 1448l-334 -371h-76l-323 371h282l78 -109l76 109h297zM68 500q0 107 32.5 201t93.5 165t155 112.5t210 41.5q96 0 176 -28t134 -75t92 -109t55.5 -128t17.5 -133q0 -66 -18 -127h-582q15 -141 213 -141q157 0 324 61v-274q-161 -82 -348 -82q-264 0 -409.5 143 t-145.5 373zM553 743q-57 0 -92.5 -41t-38.5 -96h248q0 56 -30.5 96.5t-86.5 40.5z" glyph-name="ecaron" unicode="ě"/><glyph d="M672 1823q0 -43 25 -66.5t61 -23.5q37 0 62.5 23.5t25.5 66.5h254q-4 -142 -104.5 -239t-237.5 -97q-140 0 -240 100t-100 236h254zM84 694q0 157 57.5 289.5t159 225t245 144.5t312.5 52q175 0 324 -41v-369q-174 74 -312 74q-82 0 -150 -23t-112 -61t-74.5 -88 t-43.5 -102t-13 -105q0 -155 106 -269t251 -114q22 0 30 4v140q0 186 -6 266h381q-6 -55 -6 -281v-397q-75 -29 -184 -47.5t-207 -18.5q-161 0 -301 53t-241 146.5t-158.5 228.5t-57.5 293z" glyph-name="Gbreve" horiz-adv-x="1386" unicode="Ğ"/><glyph d="M479 1434q0 -43 25 -67t61 -24t62 24t26 67h254q-4 -142 -104.5 -239t-237.5 -97q-140 0 -240 100t-100 236h254zM68 496q0 140 54 259.5t155.5 193t228.5 73.5q152 0 276 -119v98h314q-6 -153 -6 -155v-744q0 -146 -41 -251t-119.5 -167.5t-184 -91t-243.5 -28.5 q-109 0 -214 15t-161 36l100 266q48 -10 137.5 -18t149.5 -8q133 0 190.5 49.5t57.5 158.5v19q-96 -96 -240 -96q-131 0 -235.5 67.5t-161.5 183.5t-57 259zM434 504q0 -85 45 -146t119 -61q45 0 88.5 23.5t71.5 60.5v237q-64 91 -158 91q-75 0 -120.5 -60t-45.5 -145z" glyph-name="gbreve" horiz-adv-x="1216" unicode="ğ"/><glyph d="M561 1659q0 83 58 141t141 58t140.5 -58t57.5 -141t-57.5 -141t-140.5 -58t-141 58t-58 141zM84 694q0 157 57.5 289.5t159 225t245 144.5t312.5 52q175 0 324 -41v-369q-174 74 -312 74q-82 0 -150 -23t-112 -61t-74.5 -88t-43.5 -102t-13 -105q0 -155 106 -269 t251 -114q22 0 30 4v140q0 186 -6 266h381q-6 -55 -6 -281v-397q-75 -29 -184 -47.5t-207 -18.5q-161 0 -301 53t-241 146.5t-158.5 228.5t-57.5 293z" glyph-name="Gdotaccent" horiz-adv-x="1386" unicode="Ġ"/><glyph d="M369 1270q0 83 57.5 140.5t140.5 57.5t141 -57.5t58 -140.5t-58 -141t-141 -58t-140.5 58t-57.5 141zM68 496q0 140 54 259.5t155.5 193t228.5 73.5q152 0 276 -119v98h314q-6 -153 -6 -155v-744q0 -146 -41 -251t-119.5 -167.5t-184 -91t-243.5 -28.5q-109 0 -214 15 t-161 36l100 266q48 -10 137.5 -18t149.5 -8q133 0 190.5 49.5t57.5 158.5v19q-96 -96 -240 -96q-131 0 -235.5 67.5t-161.5 183.5t-57 259zM434 504q0 -85 45 -146t119 -61q45 0 88.5 23.5t71.5 60.5v237q-64 91 -158 91q-75 0 -120.5 -60t-45.5 -145z" glyph-name="gdotaccent" horiz-adv-x="1216" unicode="ġ"/><glyph d="M84 694q0 157 57.5 289.5t159 225t245 144.5t312.5 52q175 0 324 -41v-369q-174 74 -312 74q-82 0 -150 -23t-112 -61t-74.5 -88t-43.5 -102t-13 -105q0 -155 106 -269t251 -114q22 0 30 4v140q0 186 -6 266h381q-6 -55 -6 -281v-397q-75 -29 -184 -47.5t-207 -18.5 q-161 0 -301 53t-241 146.5t-158.5 228.5t-57.5 293zM977 -72q12 -30 12 -71q0 -127 -170 -293l-301 45q100 112 100 213q0 47 -18 82z" glyph-name="Gcommaaccent" horiz-adv-x="1386" unicode="Ģ"/><glyph d="M348 1057q-12 30 -12 71q0 127 170 293l301 -45q-100 -112 -100 -213q0 -47 18 -82zM68 496q0 140 54 259.5t155.5 193t228.5 73.5q152 0 276 -119v98h314q-6 -153 -6 -155v-744q0 -146 -41 -251t-119.5 -167.5t-184 -91t-243.5 -28.5q-109 0 -214 15t-161 36l100 266 q48 -10 137.5 -18t149.5 -8q133 0 190.5 49.5t57.5 158.5v19q-96 -96 -240 -96q-131 0 -235.5 67.5t-161.5 183.5t-57 259zM434 504q0 -85 45 -146t119 -61q45 0 88.5 23.5t71.5 60.5v237q-64 91 -158 91q-75 0 -120.5 -60t-45.5 -145z" glyph-name="gcommaaccent" horiz-adv-x="1216" unicode="ģ"/><glyph d="M1507 1001h-118v-712q0 -164 8 -289h-408q8 81 8 291v270h-452v-272q0 -215 6 -289h-404q7 86 7 291v710h-117v228h117q-4 118 -7 147h404q-2 -16 -6 -147h450l-6 147h408q-4 -106 -4 -147h114v-228zM997 877v124h-452v-124h452z" glyph-name="Hbar" horiz-adv-x="1544" unicode="Ħ"/><glyph d="M735 0q6 57 6 250v340q0 51 -30.5 85t-77.5 34q-73 0 -127 -95v-364q0 -177 8 -250h-395q6 57 6 250v811h-92v137h92v33h-109l76 217h424q-10 -92 -10 -207v-43h315v-137h-315v-148q101 107 262 107q177 0 265.5 -122t88.5 -343v-305q0 -177 8 -250h-395z" glyph-name="hbar" horiz-adv-x="1239" unicode="ħ"/><glyph d="M14 1526v241h668v-241h-668zM147 0q7 96 7 401v574q0 308 -7 401h404q-6 -80 -6 -401v-574q0 -319 6 -401h-404z" glyph-name="Imacron" horiz-adv-x="698" unicode="Ī"/><glyph d="M4 1137v241h668v-241h-668zM125 0q8 76 8 205v581q0 135 -12 215h401q-8 -79 -8 -204v-592q0 -137 8 -205h-397z" glyph-name="imacron" horiz-adv-x="643" unicode="ī"/><glyph d="M551 0q-229 -87 -229 -207q0 -39 21 -56.5t65 -17.5q60 0 112 27l31 -205q-105 -63 -266 -63q-128 0 -202.5 59.5t-74.5 163.5q0 178 172 299h-33q7 96 7 401v574q0 308 -7 401h404q-6 -80 -6 -401v-574q0 -319 6 -401z" glyph-name="Iogonek" horiz-adv-x="698" unicode="Į"/><glyph d="M338 1071q-83 0 -141 58t-58 141t58 140.5t141 57.5t141 -57.5t58 -140.5t-58 -141t-141 -58zM522 1001q-8 -79 -8 -204v-592q0 -137 8 -205q-229 -87 -229 -207q0 -39 21 -56.5t65 -17.5q61 0 113 27l30 -205q-105 -63 -266 -63q-128 0 -202 59.5t-74 163.5 q0 178 172 299h-27q8 76 8 205v581q0 135 -12 215h401z" glyph-name="iogonek" horiz-adv-x="647" unicode="į"/><glyph d="M150 1659q0 83 57.5 141t140.5 58t141 -58t58 -141t-58 -141t-141 -58t-140.5 58t-57.5 141zM147 0q7 96 7 401v574q0 308 -7 401h404q-6 -80 -6 -401v-574q0 -319 6 -401h-404z" glyph-name="Idotaccent" horiz-adv-x="698" unicode="İ"/><glyph d="M125 0q8 76 8 205v581q0 135 -12 215h401q-8 -79 -8 -204v-592q0 -137 8 -205h-397z" glyph-name="dotlessi" horiz-adv-x="643" unicode="ı"/><glyph d="M147 0q7 96 7 360v656q0 267 -7 360h406q-6 -80 -6 -360v-260l252 374q78 115 149 246h432q-67 -88 -178 -250l-274 -397l323 -436q112 -147 238 -293h-522q-32 60 -131 199l-289 401v-240q0 -278 6 -360h-406zM944 -72q12 -30 12 -71q0 -127 -170 -293l-301 45 q101 113 101 213q0 45 -19 82z" glyph-name="Kcommaaccent" horiz-adv-x="1492" unicode="Ķ"/><glyph d="M119 0q6 39 6 209v1022h-109l76 217h410q-6 -58 -6 -207v-633l354 393h407q-77 -74 -190 -196l-240 -266l299 -373q39 -49 146 -166h-477l-299 373v-164q0 -148 6 -209h-383zM850 -72q12 -30 12 -71q0 -127 -170 -293l-301 45q101 113 101 213q0 45 -19 82z" glyph-name="kcommaaccent" horiz-adv-x="1271" unicode="ķ"/><glyph d="M780 1841l-276 -356h-346l252 356h370zM147 0q7 172 7 360v656q0 267 -7 360h406q-6 -80 -6 -360v-684h170q295 0 358 4v-342q-82 6 -358 6h-570z" glyph-name="Lacute" horiz-adv-x="1130" unicode="Ĺ"/><glyph d="M729 1933l-276 -356h-347l252 356h371zM119 0q6 39 6 209v1022h-109l76 217h410q-6 -39 -6 -207v-1032q0 -170 6 -209h-383z" glyph-name="lacute" horiz-adv-x="622" unicode="ĺ"/><glyph d="M147 0q7 172 7 360v656q0 267 -7 360h406q-6 -80 -6 -360v-684h170q295 0 358 4v-342q-82 6 -358 6h-570zM799 -72q12 -30 12 -71q0 -127 -170 -293l-301 45q100 112 100 213q0 47 -18 82z" glyph-name="Lcommaaccent" horiz-adv-x="1130" unicode="Ļ"/><glyph d="M119 0q6 39 6 209v1022h-109l76 217h410q-6 -39 -6 -207v-1032q0 -170 6 -209h-383zM522 -72q13 -33 13 -71q0 -127 -170 -293l-302 45q101 113 101 213q0 45 -19 82z" glyph-name="lcommaaccent" horiz-adv-x="622" unicode="ļ"/><glyph d="M698 1053l29 417h309l-63 -417h-275zM147 0q7 172 7 360v656q0 267 -7 360h406q-6 -80 -6 -360v-684h170q295 0 358 4v-342q-82 6 -358 6h-570z" glyph-name="Lcaron" horiz-adv-x="1130" unicode="Ľ"/><glyph d="M610 1053l29 417h309l-63 -417h-275zM119 0q6 39 6 209v1022h-109l76 217h410q-6 -39 -6 -207v-1032q0 -170 6 -209h-383z" glyph-name="lcaron" horiz-adv-x="622" unicode="ľ"/><glyph d="M147 0q7 172 7 360v656q0 267 -7 360h406q-6 -80 -6 -360v-684h170q295 0 358 4v-342q-82 6 -358 6h-570zM645 930q0 76 54.5 131t131.5 55t132 -55t55 -131t-55 -131.5t-132 -55.5q-76 0 -131 55t-55 132z" glyph-name="Ldot" horiz-adv-x="1130" unicode="Ŀ"/><glyph d="M119 0q6 39 6 209v1022h-109l76 217h410q-6 -39 -6 -207v-1032q0 -170 6 -209h-383zM645 815q0 77 54.5 131.5t131.5 54.5t132 -55t55 -131t-55 -131t-132 -55t-131.5 54.5t-54.5 131.5z" glyph-name="ldot" horiz-adv-x="1017" unicode="ŀ"/><glyph d="M717 332q295 0 358 4v-342q-82 6 -358 6h-570q7 172 7 360v43l-80 -34v336l80 34v277q0 267 -7 360h406q-6 -80 -6 -360v-101l403 181v-336l-403 -180v-248h170z" glyph-name="Lslash" horiz-adv-x="1130" unicode="Ł"/><glyph d="M688 684l-131 -57v-418q0 -170 6 -209h-383q6 39 6 209v254l-125 -55v303l125 55v465h-108l76 217h409q-6 -39 -6 -207v-311l131 57v-303z" glyph-name="lslash" horiz-adv-x="749" unicode="ł"/><glyph d="M1190 1841l-277 -356h-346l252 356h371zM147 0q7 86 7 291v713q0 230 -7 399h101l721 -660v273q0 247 -6 360h387q-9 -221 -9 -360v-715q0 -182 9 -326h-97l-725 672v-358q0 -203 7 -289h-388z" glyph-name="Nacute" horiz-adv-x="1497" unicode="Ń"/><glyph d="M981 1452l-276 -356h-347l252 356h371zM23 780l77 221h402v-102q90 121 268 121q175 0 255.5 -117t80.5 -358v-295q0 -197 6 -250h-383q6 53 6 250v340q0 53 -30.5 87t-77.5 34q-68 0 -125 -97v-364q0 -197 6 -250h-381q6 59 6 250v530h-110z" glyph-name="nacute" horiz-adv-x="1220" unicode="ń"/><glyph d="M147 0q7 86 7 291v713q0 230 -7 399h101l721 -660v273q0 247 -6 360h387q-9 -221 -9 -360v-715q0 -182 9 -326h-97l-725 672v-358q0 -203 7 -289h-388zM1004 -72q12 -30 12 -71q0 -127 -170 -293l-301 45q100 112 100 213q0 47 -18 82z" glyph-name="Ncommaaccent" horiz-adv-x="1497" unicode="Ņ"/><glyph d="M23 780l77 221h402v-102q90 121 268 121q175 0 255.5 -117t80.5 -358v-295q0 -197 6 -250h-383q6 53 6 250v340q0 53 -30.5 87t-77.5 34q-68 0 -125 -97v-364q0 -197 6 -250h-381q6 59 6 250v530h-110zM823 -72q13 -32 13 -71q0 -127 -170 -293l-301 45q100 112 100 213 q0 45 -19 82z" glyph-name="ncommaaccent" horiz-adv-x="1220" unicode="ņ"/><glyph d="M1157 1837l-334 -371h-75l-324 371h283l77 -108l76 108h297zM147 0q7 86 7 291v713q0 230 -7 399h101l721 -660v273q0 247 -6 360h387q-9 -221 -9 -360v-715q0 -182 9 -326h-97l-725 672v-358q0 -203 7 -289h-388z" glyph-name="Ncaron" horiz-adv-x="1497" unicode="Ň"/><glyph d="M948 1448l-334 -371h-75l-324 371h283l77 -109l76 109h297zM23 780l77 221h402v-102q90 121 268 121q175 0 255.5 -117t80.5 -358v-295q0 -197 6 -250h-383q6 53 6 250v340q0 53 -30.5 87t-77.5 34q-68 0 -125 -97v-364q0 -197 6 -250h-381q6 59 6 250v530h-110z" glyph-name="ncaron" horiz-adv-x="1220" unicode="ň"/><glyph d="M1341 1016v-715q0 -182 9 -326h-2q0 -108 -46 -207.5t-121.5 -170.5t-176.5 -113.5t-207 -42.5q-109 0 -244 27v350q89 -47 195 -47q92 0 153.5 60.5t61.5 152.5v262l-435 401v-358q0 -203 7 -289h-388q7 86 7 291v713q0 230 -7 399h101l721 -660v273q0 247 -6 360h387 q-9 -221 -9 -360z" glyph-name="Eng" horiz-adv-x="1497" unicode="Ŋ"/><glyph d="M127 0q6 59 6 250v530h-110l77 221h402v-102q90 121 268 121q175 0 255.5 -117t80.5 -358v-414q0 -83 -12 -159.5t-41.5 -148.5t-73 -124.5t-111.5 -84.5t-153 -32h-246v316h113q76 0 114.5 65.5t38.5 188.5v438q0 53 -30.5 87t-77.5 34q-68 0 -125 -97v-364 q0 -197 6 -250h-381z" glyph-name="eng" horiz-adv-x="1214" unicode="ŋ"/><glyph d="M496 1526v241h667v-241h-667zM84 694q0 201 97.5 363.5t268 254t379.5 91.5q159 0 299.5 -55.5t240.5 -151t158 -229.5t58 -285q0 -202 -98 -364.5t-268.5 -253.5t-380.5 -91q-159 0 -299.5 55.5t-240 151t-157 229t-57.5 285.5zM479 690q0 -171 101.5 -283t257.5 -112 q154 0 253 111.5t99 279.5q0 171 -102 284t-257 113t-253.5 -112t-98.5 -281z" glyph-name="Omacron" horiz-adv-x="1669" unicode="Ō"/><glyph d="M256 1135v241h668v-241h-668zM68 502q0 109 43.5 206.5t116 166t168.5 108t200 39.5q145 0 267 -70t192.5 -190t70.5 -260q0 -146 -74.5 -266t-195.5 -185t-260 -65q-145 0 -266.5 69t-191.5 188t-70 259zM426 502q0 -77 49.5 -135t120.5 -58t121.5 58.5t50.5 134.5 q0 79 -50 135.5t-122 56.5q-71 0 -120.5 -56.5t-49.5 -135.5z" glyph-name="omacron" horiz-adv-x="1193" unicode="ō"/><glyph d="M928 1841l-277 -356h-346l252 356h371zM1511 1841l-276 -356h-346l252 356h370zM84 694q0 201 97.5 363.5t268 254t379.5 91.5q159 0 299.5 -55.5t240.5 -151t158 -229.5t58 -285q0 -202 -98 -364.5t-268.5 -253.5t-380.5 -91q-159 0 -299.5 55.5t-240 151t-157 229 t-57.5 285.5zM479 690q0 -171 101.5 -283t257.5 -112q154 0 253 111.5t99 279.5q0 171 -102 284t-257 113t-253.5 -112t-98.5 -281z" glyph-name="Ohungarumlaut" horiz-adv-x="1669" unicode="Ő"/><glyph d="M688 1450l-276 -356h-346l251 356h371zM1272 1450l-277 -356h-346l252 356h371zM68 502q0 109 43.5 206.5t116 166t168.5 108t200 39.5q145 0 267 -70t192.5 -190t70.5 -260q0 -146 -74.5 -266t-195.5 -185t-260 -65q-145 0 -266.5 69t-191.5 188t-70 259zM426 502 q0 -77 49.5 -135t120.5 -58t121.5 58.5t50.5 134.5q0 79 -50 135.5t-122 56.5q-71 0 -120.5 -56.5t-49.5 -135.5z" glyph-name="ohungarumlaut" horiz-adv-x="1193" unicode="ő"/><glyph d="M84 688q0 205 98 362.5t268.5 241.5t383.5 84h534q195 0 320 8v-333q-55 6 -320 6h-137v-195h110q236 0 318 6v-327q-82 6 -318 6h-110v-225h153q238 0 318 6v-334q-80 6 -318 6h-550q-158 0 -297 52t-238.5 142t-157 218.5t-57.5 275.5zM479 688q0 -160 104.5 -264.5 t254.5 -104.5v738q-176 0 -267.5 -98t-91.5 -271z" glyph-name="OE" horiz-adv-x="1800" unicode="Œ"/><glyph d="M68 502q0 109 43.5 206.5t116 166t168.5 108t200 39.5q198 0 338 -127q125 125 328 125q96 0 176 -28t134 -75t92 -109t55.5 -128t17.5 -133q0 -63 -19 -127h-581q15 -141 213 -141q156 0 323 61v-274q-161 -82 -348 -82q-246 0 -387 131q-142 -129 -342 -129 q-145 0 -266.5 69t-191.5 188t-70 259zM1124 606h248q0 56 -30.5 96.5t-86.5 40.5q-57 0 -92.5 -41t-38.5 -96zM426 502q0 -77 49.5 -135t120.5 -58t121.5 58.5t50.5 134.5q0 79 -50 135.5t-122 56.5q-71 0 -120.5 -56.5t-49.5 -135.5z" glyph-name="oe" horiz-adv-x="1800" unicode="œ"/><glyph d="M1026 1841l-276 -356h-347l252 356h371zM1198 932q0 -67 -16 -122.5t-37 -89.5t-53.5 -61.5t-55 -40t-51.5 -24.5l189 -315q17 -29 33 -53t36.5 -53t34 -46.5t45.5 -59.5t51 -67h-471l-266 492h-90v-130q0 -269 8 -362h-408q9 105 9 362v654q0 261 -9 360h537 q231 0 372.5 -115.5t141.5 -328.5zM805 913q0 77 -43.5 117.5t-102.5 40.5h-112v-309h96q69 0 115.5 36t46.5 115z" glyph-name="Racute" horiz-adv-x="1402" unicode="Ŕ"/><glyph d="M813 1452l-276 -356h-347l252 356h371zM23 782l75 219h346l27 -217q143 238 303 238q60 0 121 -37l-74 -352q-58 22 -110 22q-56 0 -120 -44.5t-79 -90.5v-311q0 -107 10 -209h-397q6 105 6 209v573h-108z" glyph-name="racute" horiz-adv-x="892" unicode="ŕ"/><glyph d="M1198 932q0 -67 -16 -122.5t-37 -89.5t-53.5 -61.5t-55 -40t-51.5 -24.5l189 -315q17 -29 33 -53t36.5 -53t34 -46.5t45.5 -59.5t51 -67h-471l-266 492h-90v-130q0 -269 8 -362h-408q9 105 9 362v654q0 261 -9 360h537q231 0 372.5 -115.5t141.5 -328.5zM805 913 q0 77 -43.5 117.5t-102.5 40.5h-112v-309h96q69 0 115.5 36t46.5 115zM901 -72q12 -30 12 -71q0 -127 -170 -293l-301 45q101 113 101 213q0 45 -19 82z" glyph-name="Rcommaaccent" horiz-adv-x="1402" unicode="Ŗ"/><glyph d="M23 782l75 219h346l27 -217q143 238 303 238q60 0 121 -37l-74 -352q-58 22 -110 22q-56 0 -120 -44.5t-79 -90.5v-311q0 -107 10 -209h-397q6 105 6 209v573h-108zM612 -72q13 -32 13 -71q0 -127 -170 -293l-301 45q100 112 100 213q0 47 -18 82z" glyph-name="rcommaaccent" horiz-adv-x="892" unicode="ŗ"/><glyph d="M993 1837l-334 -371h-75l-324 371h283l78 -108l75 108h297zM1198 932q0 -67 -16 -122.5t-37 -89.5t-53.5 -61.5t-55 -40t-51.5 -24.5l189 -315q17 -29 33 -53t36.5 -53t34 -46.5t45.5 -59.5t51 -67h-471l-266 492h-90v-130q0 -269 8 -362h-408q9 105 9 362v654 q0 261 -9 360h537q231 0 372.5 -115.5t141.5 -328.5zM805 913q0 77 -43.5 117.5t-102.5 40.5h-112v-309h96q69 0 115.5 36t46.5 115z" glyph-name="Rcaron" horiz-adv-x="1402" unicode="Ř"/><glyph d="M780 1448l-334 -371h-75l-324 371h283l78 -109l75 109h297zM23 782l75 219h346l27 -217q143 238 303 238q60 0 121 -37l-74 -352q-58 22 -110 22q-56 0 -120 -44.5t-79 -90.5v-311q0 -107 10 -209h-397q6 105 6 209v573h-108z" glyph-name="rcaron" horiz-adv-x="892" unicode="ř"/><glyph d="M924 1841l-277 -356h-346l252 356h371zM78 59l88 312q126 -99 272 -99q75 0 121.5 26t46.5 69t-42.5 81t-131.5 95q-49 31 -81.5 55t-75.5 65t-69 82.5t-44.5 101t-18.5 126.5q0 193 134.5 313.5t363.5 120.5q170 0 315 -68v-305q-146 76 -270 76q-68 0 -102.5 -23 t-34.5 -57q0 -18 8.5 -34.5t31 -35.5t37 -29.5t52 -34.5t49.5 -32q297 -197 297 -454q0 -191 -148.5 -317t-396.5 -126q-120 0 -229 28t-172 64z" glyph-name="Sacute" horiz-adv-x="1128" unicode="Ś"/><glyph d="M881 1452l-277 -356h-346l252 356h371zM78 43l67 287q128 -82 248 -82q86 0 86 35q0 9 -5.5 17t-21 17.5t-29.5 17t-45 23t-54 27.5q-49 26 -83 50t-67.5 61t-50.5 87.5t-17 114.5q0 159 108 241.5t306 82.5q134 0 295 -53v-285q-146 80 -254 80q-74 0 -74 -35 q0 -12 8.5 -22.5t26.5 -21.5t36 -20l47 -23.5t50 -25.5q43 -23 75.5 -47.5t64.5 -61t49.5 -87t17.5 -111.5q0 -154 -113 -244t-335 -90q-90 0 -184.5 16t-151.5 52z" glyph-name="sacute" horiz-adv-x="942" unicode="ś"/><glyph d="M1024 410q0 -162 -110 -281t-300 -152l-28 -53q180 -41 180 -221q0 -110 -77 -175t-224 -65q-95 0 -176 29v176q73 -26 127 -26q104 0 104 59q0 26 -29.5 42.5t-78.5 16.5q-51 0 -93 -12l111 221q-106 6 -200.5 32t-151.5 58l88 312q126 -99 272 -99q75 0 121.5 26 t46.5 69t-42.5 81t-131.5 95q-49 31 -81.5 55t-75.5 65t-69 82.5t-44.5 101t-18.5 126.5q0 193 134.5 313.5t363.5 120.5q170 0 315 -68v-305q-146 76 -270 76q-68 0 -102.5 -23t-34.5 -57q0 -18 8.5 -34.5t31 -35.5t37 -29.5t52 -34.5t49.5 -32q297 -197 297 -454z" glyph-name="Scedilla" horiz-adv-x="1128" unicode="Ş"/><glyph d="M862 309q0 -130 -82 -215.5t-245 -109.5l-31 -60q180 -41 180 -221q0 -110 -77 -175t-224 -65q-95 0 -176 29v176q73 -26 127 -26q104 0 104 59q0 26 -29.5 42.5t-78.5 16.5q-50 0 -92 -12l114 229q-182 8 -274 66l67 287q128 -82 248 -82q86 0 86 35q0 9 -5.5 17 t-21 17.5t-29.5 17t-45 23t-54 27.5q-49 26 -83 50t-67.5 61t-50.5 87.5t-17 114.5q0 159 108 241.5t306 82.5q134 0 295 -53v-285q-146 80 -254 80q-74 0 -74 -35q0 -12 8.5 -22.5t26.5 -21.5t36 -20l47 -23.5t50 -25.5q43 -23 75.5 -47.5t64.5 -61t49.5 -87t17.5 -111.5z" glyph-name="scedilla" horiz-adv-x="942" unicode="ş"/><glyph d="M891 1837l-334 -371h-76l-323 371h282l78 -108l76 108h297zM78 59l88 312q126 -99 272 -99q75 0 121.5 26t46.5 69t-42.5 81t-131.5 95q-49 31 -81.5 55t-75.5 65t-69 82.5t-44.5 101t-18.5 126.5q0 193 134.5 313.5t363.5 120.5q170 0 315 -68v-305q-146 76 -270 76 q-68 0 -102.5 -23t-34.5 -57q0 -18 8.5 -34.5t31 -35.5t37 -29.5t52 -34.5t49.5 -32q297 -197 297 -454q0 -191 -148.5 -317t-396.5 -126q-120 0 -229 28t-172 64z" glyph-name="Scaron" horiz-adv-x="1128" unicode="Š"/><glyph d="M848 1448l-334 -371h-76l-323 371h282l78 -109l76 109h297zM78 43l67 287q128 -82 248 -82q86 0 86 35q0 9 -5.5 17t-21 17.5t-29.5 17t-45 23t-54 27.5q-49 26 -83 50t-67.5 61t-50.5 87.5t-17 114.5q0 159 108 241.5t306 82.5q134 0 295 -53v-285q-146 80 -254 80 q-74 0 -74 -35q0 -12 8.5 -22.5t26.5 -21.5t36 -20l47 -23.5t50 -25.5q43 -23 75.5 -47.5t64.5 -61t49.5 -87t17.5 -111.5q0 -154 -113 -244t-335 -90q-90 0 -184.5 16t-151.5 52z" glyph-name="scaron" horiz-adv-x="942" unicode="š"/><glyph d="M913 1376q219 0 367 4v-338q-183 11 -367 11h-45q-2 -49 -2 -258v-435q0 -232 11 -360h-107l-39 -76q180 -41 180 -221q0 -110 -77 -175t-224 -65q-95 0 -176 29v176q73 -26 127 -26q51 0 78 15.5t27 43.5q0 26 -30 42.5t-79 16.5q-50 0 -92 -12l127 252h-131 q10 173 10 360v435q0 147 -6 258h-47q-176 0 -363 -11v338q82 -4 363 -4h495z" glyph-name="uni0162" horiz-adv-x="1335" unicode="Ţ"/><glyph d="M545 -76q180 -41 180 -221q0 -110 -77 -175t-224 -65q-95 0 -176 29v176q73 -26 127 -26q104 0 104 59q0 26 -29.5 42.5t-78.5 16.5q-50 0 -92 -12l135 268q-104 44 -162.5 142t-58.5 241v312h-134v290h134v95q0 40 -5 137l390 43q-7 -86 -7 -191v-84h260l-49 -290h-211 v-232q0 -174 138 -174q35 0 73 17l52 -269q-44 -30 -115.5 -49.5t-126.5 -19.5h-17z" glyph-name="uni0163" horiz-adv-x="909" unicode="ţ"/><glyph d="M1047 1837l-334 -371h-76l-324 371h283l78 -108l76 108h297zM461 0q10 173 10 360v435q0 147 -6 258h-47q-176 0 -363 -11v338q82 -4 363 -4h495q219 0 367 4v-338q-183 11 -367 11h-45q-2 -49 -2 -258v-435q0 -232 11 -360h-416z" glyph-name="Tcaron" horiz-adv-x="1335" unicode="Ť"/><glyph d="M965 1053h-275l29 417h309zM59 711v290h134v95q0 40 -5 137l390 43q-7 -86 -7 -191v-84h260l-49 -290h-211v-232q0 -174 138 -174q35 0 73 17l52 -269q-44 -30 -115.5 -49.5t-126.5 -19.5q-181 0 -290 108.5t-109 306.5v312h-134z" glyph-name="tcaron" horiz-adv-x="909" unicode="ť"/><glyph d="M868 1053q-2 -49 -2 -258v-13h258v-274h-258v-148q0 -232 11 -360h-416q10 173 10 360v148h-258v274h258v13q0 147 -6 258h-47q-176 0 -363 -11v338q82 -4 363 -4h495q219 0 367 4v-338q-183 11 -367 11h-45z" glyph-name="Tbar" horiz-adv-x="1335" unicode="Ŧ"/><glyph d="M782 322l52 -269q-44 -30 -115.5 -49.5t-126.5 -19.5q-181 0 -290 108.5t-109 306.5v4h-134v230h134v78h-134v290h134v95q0 40 -5 137l390 43q-7 -86 -7 -191v-84h260l-49 -290h-211v-78h203v-230h-194q24 -98 129 -98q35 0 73 17z" glyph-name="tbar" horiz-adv-x="909" unicode="ŧ"/><glyph d="M403 1526v241h668v-241h-668zM547 1376q-8 -120 -8 -401v-436q0 -109 49.5 -165.5t144.5 -56.5q96 0 146.5 57t50.5 165v436q0 288 -6 401h403q-4 -88 -4 -401v-426q0 -264 -158 -418t-428 -154q-275 0 -433.5 158t-158.5 414v426q0 329 -6 401h408z" glyph-name="Umacron" horiz-adv-x="1466" unicode="Ū"/><glyph d="M289 1137v241h667v-241h-667zM23 780l75 221h422q-8 -91 -8 -210v-334q0 -86 36 -127t87 -41q84 0 115 102v400q0 146 -7 210h394q-7 -64 -7 -210v-564q0 -121 19 -227h-332l-29 143q-43 -75 -107.5 -118t-172.5 -43q-169 0 -273 112.5t-104 313.5v372h-108z" glyph-name="umacron" horiz-adv-x="1269" unicode="ū"/><glyph d="M500 1653q0 91 68 154t169 63t169.5 -63t68.5 -154t-68.5 -154t-169.5 -63t-169 63t-68 154zM678 1649q0 -25 17 -42.5t42 -17.5t42.5 17.5t17.5 42.5t-17.5 42t-42.5 17t-42 -17t-17 -42zM547 1376q-8 -120 -8 -401v-436q0 -109 49.5 -165.5t144.5 -56.5q96 0 146.5 57 t50.5 165v436q0 288 -6 401h403q-4 -88 -4 -401v-426q0 -264 -158 -418t-428 -154q-275 0 -433.5 158t-158.5 414v426q0 329 -6 401h408z" glyph-name="Uring" horiz-adv-x="1466" unicode="Ů"/><glyph d="M385 1264q0 91 68.5 154t169.5 63t169 -63t68 -154t-68 -154t-169 -63t-169.5 63t-68.5 154zM563 1260q0 -25 17.5 -42.5t42.5 -17.5t42 17.5t17 42.5t-17 42t-42 17t-42.5 -17t-17.5 -42zM23 780l75 221h422q-8 -91 -8 -210v-334q0 -86 36 -127t87 -41q84 0 115 102v400 q0 146 -7 210h394q-7 -64 -7 -210v-564q0 -121 19 -227h-332l-29 143q-43 -75 -107.5 -118t-172.5 -43q-169 0 -273 112.5t-104 313.5v372h-108z" glyph-name="uring" horiz-adv-x="1269" unicode="ů"/><glyph d="M836 1841l-277 -356h-346l252 356h371zM1419 1841l-276 -356h-346l252 356h370zM547 1376q-8 -120 -8 -401v-436q0 -109 49.5 -165.5t144.5 -56.5q96 0 146.5 57t50.5 165v436q0 288 -6 401h403q-4 -88 -4 -401v-426q0 -264 -158 -418t-428 -154q-275 0 -433.5 158 t-158.5 414v426q0 329 -6 401h408z" glyph-name="Uhungarumlaut" horiz-adv-x="1466" unicode="Ű"/><glyph d="M721 1452l-277 -356h-346l252 356h371zM1305 1452l-277 -356h-346l252 356h371zM23 780l75 221h422q-8 -91 -8 -210v-334q0 -86 36 -127t87 -41q84 0 115 102v400q0 146 -7 210h394q-7 -64 -7 -210v-564q0 -121 19 -227h-332l-29 143q-43 -75 -107.5 -118t-172.5 -43 q-169 0 -273 112.5t-104 313.5v372h-108z" glyph-name="uhungarumlaut" horiz-adv-x="1269" unicode="ű"/><glyph d="M924 1376h403q-4 -88 -4 -401v-426q0 -147 -51 -263t-146 -190q-121 -88 -175 -166.5t-54 -136.5q0 -39 21 -56.5t65 -17.5q61 0 113 27l30 -205q-105 -63 -266 -63q-128 0 -202 59.5t-74 163.5q0 147 114 276q-257 12 -405 168.5t-148 403.5v426q0 329 -6 401h408 q-8 -120 -8 -401v-436q0 -109 49.5 -165.5t144.5 -56.5q96 0 146.5 57t50.5 165v436q0 288 -6 401z" glyph-name="Uogonek" horiz-adv-x="1466" unicode="Ų"/><glyph d="M1006 -281q60 0 112 27l31 -205q-105 -63 -266 -63q-128 0 -202.5 59.5t-74.5 163.5q0 100 50 177t157 145l-25 120q-43 -75 -107.5 -118t-172.5 -43q-169 0 -273 112.5t-104 313.5v372h-108l75 221h422q-8 -91 -8 -210v-334q0 -86 36 -127t87 -41q84 0 115 102v400 q0 146 -7 210h394q-7 -64 -7 -210v-564q0 -121 19 -227q-229 -87 -229 -207q0 -39 21 -56.5t65 -17.5z" glyph-name="uogonek" horiz-adv-x="1269" unicode="ų"/><glyph d="M676 1466l334 371h75l324 -371h-283l-77 109l-76 -109h-297zM0 1376h385l391 -755l113 237l-277 518h320l108 -221l109 221h340l-291 -532l107 -223l391 755h385l-144 -303l-516 -1091h-65l-312 581l-317 -581h-68l-526 1091q-38 77 -76 170.5t-57 132.5z" glyph-name="Wcircumflex" horiz-adv-x="2080" unicode="Ŵ"/><glyph d="M444 1077l334 371h76l324 -371h-283l-78 109l-76 -109h-297zM0 1001h426q5 -30 47 -145l100 -278l160 423h168l160 -403l72 205q28 71 65 198h381q-85 -157 -121 -262l-266 -755h-162l-233 483l-211 -483h-170l-303 776q-21 54 -40.5 96t-41 82.5t-31.5 62.5z" glyph-name="wcircumflex" horiz-adv-x="1579" unicode="ŵ"/><glyph d="M342 1466l334 371h76l323 -371h-282l-78 109l-76 -109h-297zM506 0q4 125 4 299v297l-332 522q-129 199 -178 258h469q20 -53 78 -151l174 -293l172 287q50 81 86 157h432q-36 -46 -201 -299l-309 -477v-301q0 -217 6 -299h-401z" glyph-name="Ycircumflex" horiz-adv-x="1411" unicode="Ŷ"/><glyph d="M256 1077l334 371h76l323 -371h-282l-78 109l-76 -109h-297zM0 1001h451q12 -51 47 -137l153 -354l115 346q22 69 39 145h422q-31 -52 -101 -221l-329 -784q-95 -228 -195.5 -321t-232.5 -93h-246v314q149 0 197 13t83 75l48 94l-342 715q-32 69 -109 208z" glyph-name="ycircumflex" horiz-adv-x="1226" unicode="ŷ"/><glyph d="M283 1649q0 83 57.5 140.5t140.5 57.5t141 -57.5t58 -140.5t-58 -141t-141 -58t-140.5 58t-57.5 141zM760 1649q0 83 57.5 140.5t140.5 57.5t141 -57.5t58 -140.5t-58 -141t-141 -58t-140.5 58t-57.5 141zM506 0q4 125 4 299v297l-332 522q-129 199 -178 258h469 q20 -53 78 -151l174 -293l172 287q50 81 86 157h432q-36 -46 -201 -299l-309 -477v-301q0 -217 6 -299h-401z" glyph-name="Ydieresis" horiz-adv-x="1411" unicode="Ÿ"/><glyph d="M1006 1841l-277 -356h-346l252 356h371zM25 0q20 35 72 137.5t87 167.5l402 748h-160q-250 0 -332 -6v335q126 -6 332 -6h737l-565 -1050h205q212 0 332 6v-338q-120 6 -332 6h-778z" glyph-name="Zacute" horiz-adv-x="1216" unicode="Ź"/><glyph d="M961 1452l-277 -356h-346l252 356h371zM27 0l434 662h-205q-105 0 -166 -5l2 351q82 -7 197 -7h745l-387 -663h209q98 0 166 6v-348q-43 4 -168 4h-827z" glyph-name="zacute" horiz-adv-x="1081" unicode="ź"/><glyph d="M401 1659q0 83 58 141t141 58t141 -58t58 -141t-58 -141t-141 -58t-141 58t-58 141zM25 0q20 35 72 137.5t87 167.5l402 748h-160q-250 0 -332 -6v335q126 -6 332 -6h737l-565 -1050h205q212 0 332 6v-338q-120 6 -332 6h-778z" glyph-name="Zdotaccent" horiz-adv-x="1216" unicode="Ż"/><glyph d="M356 1270q0 83 58 140.5t141 57.5t141 -57.5t58 -140.5t-58 -141t-141 -58t-141 58t-58 141zM27 0l434 662h-205q-105 0 -166 -5l2 351q82 -7 197 -7h745l-387 -663h209q98 0 166 6v-348q-43 4 -168 4h-827z" glyph-name="zdotaccent" horiz-adv-x="1081" unicode="ż"/><glyph d="M973 1837l-334 -371h-76l-323 371h282l78 -108l76 108h297zM25 0q20 35 72 137.5t87 167.5l402 748h-160q-250 0 -332 -6v335q126 -6 332 -6h737l-565 -1050h205q212 0 332 6v-338q-120 6 -332 6h-778z" glyph-name="Zcaron" horiz-adv-x="1216" unicode="Ž"/><glyph d="M928 1448l-334 -371h-76l-323 371h282l78 -109l76 109h297zM27 0l434 662h-205q-105 0 -166 -5l2 351q82 -7 197 -7h745l-387 -663h209q98 0 166 6v-348q-43 4 -168 4h-827z" glyph-name="zcaron" horiz-adv-x="1081" unicode="ž"/><glyph d="M-184 -399v317q63 -39 174 -39q43 0 70.5 7t56 29t48 64t37.5 112t34 173l38 256h-163v273h200l8 49q48 286 171 419.5t344 133.5q119 0 206 -21v-323q-70 36 -157 36q-172 0 -199 -274l-2 -20h215v-273h-252l-41 -276q-54 -358 -199 -518t-405 -160q-109 0 -184 35z" glyph-name="florin" horiz-adv-x="1148" unicode="ƒ"/><glyph d="M78 59l88 312q126 -99 272 -99q75 0 121.5 26t46.5 69t-42.5 81t-131.5 95q-49 31 -81.5 55t-75.5 65t-69 82.5t-44.5 101t-18.5 126.5q0 193 134.5 313.5t363.5 120.5q170 0 315 -68v-305q-146 76 -270 76q-68 0 -102.5 -23t-34.5 -57q0 -18 8.5 -34.5t31 -35.5 t37 -29.5t52 -34.5t49.5 -32q297 -197 297 -454q0 -191 -148.5 -317t-396.5 -126q-120 0 -229 28t-172 64zM737 -72q13 -32 13 -71q0 -127 -170 -293l-301 45q100 112 100 213q0 45 -19 82z" glyph-name="Scommaaccent" horiz-adv-x="1128" unicode="Ș"/><glyph d="M78 43l67 287q128 -82 248 -82q86 0 86 35q0 9 -5.5 17t-21 17.5t-29.5 17t-45 23t-54 27.5q-49 26 -83 50t-67.5 61t-50.5 87.5t-17 114.5q0 159 108 241.5t306 82.5q134 0 295 -53v-285q-146 80 -254 80q-74 0 -74 -35q0 -12 8.5 -22.5t26.5 -21.5t36 -20l47 -23.5 t50 -25.5q43 -23 75.5 -47.5t64.5 -61t49.5 -87t17.5 -111.5q0 -154 -113 -244t-335 -90q-90 0 -184.5 16t-151.5 52zM655 -72q13 -32 13 -71q0 -127 -170 -293l-301 45q100 112 100 213q0 47 -18 82z" glyph-name="scommaaccent" horiz-adv-x="942" unicode="ș"/><glyph d="M461 0q10 173 10 360v435q0 147 -6 258h-47q-176 0 -363 -11v338q82 -4 363 -4h495q219 0 367 4v-338q-183 11 -367 11h-45q-2 -49 -2 -258v-435q0 -232 11 -360h-416zM883 -72q12 -30 12 -71q0 -127 -170 -293l-301 45q100 112 100 213q0 47 -18 82z" glyph-name="uni021A" horiz-adv-x="1335" unicode="Ț"/><glyph d="M59 711v290h134v95q0 40 -5 137l390 43q-7 -86 -7 -191v-84h260l-49 -290h-211v-232q0 -174 138 -174q35 0 73 17l52 -269q-44 -30 -115.5 -49.5t-126.5 -19.5q-181 0 -290 108.5t-109 306.5v312h-134zM696 -72q13 -32 13 -71q0 -127 -170 -293l-301 45q100 112 100 213 q0 45 -19 82z" glyph-name="uni021B" horiz-adv-x="909" unicode="ț"/><glyph d="M-129 -418v316h113q76 0 114.5 65.5t38.5 188.5v628q0 134 -10 221h405q-6 -77 -6 -210v-660q0 -82 -14 -159.5t-46 -148.5t-78.5 -124.5t-116 -85t-154.5 -31.5h-246z" glyph-name="uni0237" horiz-adv-x="653" unicode="ȷ"/><glyph d="M-770 1452h371l252 -356h-347z" glyph-name="gravecomb" horiz-adv-x="0" unicode="̀"/><glyph d="M-147 1452l-277 -356h-346l252 356h371z" glyph-name="acutecomb" horiz-adv-x="0" unicode="́"/><glyph d="M-831 1077l333 371h76l324 -371h-283l-78 109l-76 -109h-296z" glyph-name="uni0302" horiz-adv-x="0" unicode="̂"/><glyph d="M-850 1090q3 120 74.5 210.5t185.5 90.5q50 0 98 -20t83.5 -40t54.5 -20q57 0 57 65h217q-2 -76 -28.5 -142.5t-83 -112.5t-132.5 -46q-45 0 -86 13t-65 28t-48 28t-38 13q-57 0 -57 -67h-232z" glyph-name="tildecomb" horiz-adv-x="0" unicode="̃"/><glyph d="M-807 1137v241h668v-241h-668z" glyph-name="uni0304" horiz-adv-x="0" unicode="̄"/><glyph d="M-522 1434q0 -43 25 -67t61 -24t62 24t26 67h254q-4 -142 -104.5 -239t-237.5 -97q-140 0 -240 100t-100 236h254z" glyph-name="uni0306" horiz-adv-x="0" unicode="̆"/><glyph d="M-518 1270q0 83 58 140.5t141 57.5t140.5 -57.5t57.5 -140.5t-57.5 -141t-140.5 -58t-141 58t-58 141z" glyph-name="uni0307" horiz-adv-x="0" unicode="̇"/><glyph d="M-973 1270q0 83 58 140.5t141 57.5t141 -57.5t58 -140.5t-58 -141t-141 -58t-141 58t-58 141zM-496 1270q0 83 58 140.5t141 57.5t141 -57.5t58 -140.5t-58 -141t-141 -58t-141 58t-58 141z" glyph-name="uni0308" horiz-adv-x="0" unicode="̈"/><glyph d="M-647 1264q0 91 68 154t169 63t169.5 -63t68.5 -154t-68.5 -154t-169.5 -63t-169 63t-68 154zM-469 1260q0 -25 17 -42.5t42 -17.5t42.5 17.5t17.5 42.5t-17.5 42t-42.5 17t-42 -17t-17 -42z" glyph-name="uni030A" horiz-adv-x="0" unicode="̊"/><glyph d="M-731 1452l-277 -356h-346l252 356h371zM-147 1452l-277 -356h-346l252 356h371z" glyph-name="uni030B" horiz-adv-x="0" unicode="̋"/><glyph d="M-98 1448l-334 -371h-76l-323 371h282l78 -109l76 109h297z" glyph-name="uni030C" horiz-adv-x="0" unicode="̌"/><glyph d="M-657 1057q-13 33 -13 71q0 127 170 293l301 -45q-100 -112 -100 -213q0 -47 18 -82z" glyph-name="uni0312" horiz-adv-x="0" unicode="̒"/><glyph d="M-211 -72q12 -30 12 -71q0 -127 -170 -293l-301 45q101 113 101 213q0 45 -19 82z" glyph-name="uni0326" horiz-adv-x="0" unicode="̦"/><glyph d="M-438 41h180l-61 -117q180 -41 180 -221q0 -110 -77 -175t-224 -65q-95 0 -176 29v176q73 -26 127 -26q104 0 104 59q0 26 -30 42.5t-79 16.5q-50 0 -92 -12z" glyph-name="uni0327" horiz-adv-x="0" unicode="̧"/><glyph d="M-178 141l92 -141q-229 -87 -229 -207q0 -39 21 -56.5t65 -17.5q60 0 112 27l31 -205q-105 -63 -266 -63q-128 0 -202.5 59.5t-74.5 163.5q0 143 105 243t346 197z" glyph-name="uni0328" horiz-adv-x="0" unicode="̨"/><glyph d="M770 1452l-276 -356h-347l252 356h371z" glyph-name="tonos" horiz-adv-x="917" unicode="΄"/><glyph d="M1018 1452l-277 -356h-346l252 356h371zM41 1274q0 69 48.5 117.5t117.5 48.5t117.5 -48.5t48.5 -117.5t-48.5 -117.5t-117.5 -48.5t-117.5 48.5t-48.5 117.5zM1024 1274q0 69 48.5 117.5t117.5 48.5t117.5 -48.5t48.5 -117.5t-48.5 -117.5t-117.5 -48.5t-117.5 48.5 t-48.5 117.5z" glyph-name="dieresistonos" horiz-adv-x="1396" unicode="΅"/><glyph d="M6 0l22 38t19 33.5t19 35t17 32t18 36t17 34.5t20 41t20 42t23.5 50.5t25.5 54.5l475 1004h106l494 -1004q129 -262 209 -397h-444l-80 197h-500l-84 -197h-377zM537 1376l-277 -356h-346l252 356h371zM582 477h266l-137 322z" glyph-name="Alphatonos" horiz-adv-x="1497" unicode="Ά"/><glyph d="M334 885q97 0 166 -69.5t69 -166.5t-69 -166t-166 -69t-166.5 69t-69.5 166t69.5 166.5t166.5 69.5z" glyph-name="anoteleia" horiz-adv-x="667" unicode="·"/><glyph d="M748 0q6 147 6 360v658q0 278 -6 358h577q195 0 320 8l-62 -333q-55 6 -319 6h-117v-195h110q236 0 318 6v-327q-82 6 -318 6h-110v-225h153q238 0 318 6v-334q-80 6 -318 6h-552zM664 1378l-277 -356h-346l252 356h371z" glyph-name="Epsilontonos" horiz-adv-x="1742" unicode="Έ"/><glyph d="M664 1376l-277 -356h-346l252 356h371zM735 0q6 74 6 291v725q0 288 -6 360h404q-6 -72 -6 -360v-139h452v139q0 235 -8 360h408q-9 -221 -9 -360v-727q0 -148 9 -289h-408q8 81 8 291v270h-452v-272q0 -215 6 -289h-404z" glyph-name="Etatonos" horiz-adv-x="2131" unicode="Ή"/><glyph d="M664 1378l-277 -356h-346l252 356h371zM707 0q6 82 6 401v574q0 321 -6 401h403q-6 -80 -6 -401v-574q0 -319 6 -401h-403z" glyph-name="Iotatonos" horiz-adv-x="1257" unicode="Ί"/><glyph d="M514 694q0 201 97.5 363.5t268.5 254t380 91.5q159 0 299.5 -55.5t240.5 -151t157.5 -229.5t57.5 -285q0 -202 -98 -364.5t-268.5 -253.5t-380.5 -91q-159 0 -299.5 55.5t-240 151t-157 229t-57.5 285.5zM664 1376l-277 -356h-346l252 356h371zM909 690 q0 -171 101.5 -283t257.5 -112q154 0 253 111.5t99 279.5q0 171 -101.5 284t-256.5 113t-254 -112t-99 -281z" glyph-name="Omicrontonos" horiz-adv-x="2099" unicode="Ό"/><glyph d="M664 1376l-277 -356h-346l252 356h371zM1280 0q4 125 4 299v297l-332 522q-129 199 -178 258h469q20 -53 78 -151l174 -293l172 287q50 81 86 157h432q-30 -38 -200 -299l-310 -477v-301q0 -217 6 -299h-401z" glyph-name="Upsilontonos" horiz-adv-x="2185" unicode="Ύ"/><glyph d="M549 -6v338q84 -6 225 -6h55q-223 180 -223 454q0 146 58.5 264.5t159.5 194t234 116t285 40.5q213 0 381 -76.5t263.5 -217.5t95.5 -323q0 -282 -232 -452h47q150 0 238 6v-338q-88 6 -367 6h-305v348q97 79 151 169t54 210q0 151 -88 238.5t-240 87.5 q-151 0 -238 -86.5t-87 -239.5q0 -221 203 -379v-348h-324q-262 0 -346 -6zM664 1378l-277 -356h-346l252 356h371z" glyph-name="Omegatonos" horiz-adv-x="2217" unicode="Ώ"/><glyph d="M668 1452l-277 -356h-346l252 356h371zM-309 1274q0 69 48.5 117.5t117.5 48.5t117.5 -48.5t48.5 -117.5t-48.5 -117.5t-117.5 -48.5t-117.5 48.5t-48.5 117.5zM674 1274q0 69 48.5 117.5t117.5 48.5t117.5 -48.5t48.5 -117.5t-48.5 -117.5t-117.5 -48.5t-117.5 48.5 t-48.5 117.5zM125 0q8 76 8 205v581q0 135 -12 215h401q-8 -79 -8 -204v-592q0 -137 8 -205h-397z" glyph-name="iotadieresistonos" horiz-adv-x="643" unicode="ΐ"/><glyph d="M6 0l22 38t19 33.5t19 35t17 32t18 36t17 34.5t20 41t20 42t23.5 50.5t25.5 54.5l475 1004h106l494 -1004q129 -262 209 -397h-444l-80 197h-500l-84 -197h-377zM582 477h266l-137 322z" glyph-name="Alpha" horiz-adv-x="1497" unicode="Α"/><glyph d="M147 0q9 105 9 360v588q0 373 -6 428h514q83 0 162.5 -18t152.5 -55.5t117.5 -106.5t44.5 -160q0 -92 -47.5 -164t-124.5 -100q101 -35 169 -124.5t68 -213.5q0 -91 -32 -165.5t-85.5 -123.5t-125 -82.5t-147.5 -48t-157 -14.5h-512zM764 989q0 60 -35.5 102t-99.5 42 h-82v-287h82q59 0 97 38.5t38 104.5zM809 430q0 74 -43.5 123t-120.5 49h-98v-346h94q79 0 123.5 44.5t44.5 129.5z" glyph-name="Beta" horiz-adv-x="1304" unicode="Β"/><glyph d="M147 0q7 93 7 360v656q0 188 -7 360h570q276 0 358 6v-342q-63 4 -358 4h-170v-684q0 -280 6 -360h-406z" glyph-name="Gamma" horiz-adv-x="1130" unicode="Γ"/><glyph d="M6 0q80 139 164 317l508 1080h102l512 -1080q92 -192 164 -317h-1450zM713 786l-195 -475h389z" glyph-name="uni0394" horiz-adv-x="1462" unicode="Δ"/><glyph d="M147 0q7 172 7 360v658q0 265 -7 358h578q194 0 319 8l-61 -333q-55 6 -319 6h-117v-195h110q236 0 318 6v-327q-82 6 -318 6h-110v-225h153q238 0 318 6v-334q-80 6 -318 6h-553z" glyph-name="Epsilon" horiz-adv-x="1142" unicode="Ε"/><glyph d="M25 0q20 35 72 137.5t87 167.5l402 748h-160q-250 0 -332 -6v335q126 -6 332 -6h737l-565 -1050h205q212 0 332 6v-338q-120 6 -332 6h-778z" glyph-name="Zeta" horiz-adv-x="1216" unicode="Ζ"/><glyph d="M147 0q7 86 7 291v725q0 276 -7 360h404q-6 -72 -6 -360v-139h452v139q0 235 -8 360h408q-8 -196 -8 -360v-727q0 -164 8 -289h-408q8 81 8 291v270h-452v-272q0 -215 6 -289h-404z" glyph-name="Eta" horiz-adv-x="1544" unicode="Η"/><glyph d="M84 694q0 201 97.5 363.5t268 254t379.5 91.5q159 0 299.5 -55.5t240.5 -151t158 -229.5t58 -285q0 -202 -98 -364.5t-268.5 -253.5t-380.5 -91q-159 0 -299.5 55.5t-240 151t-157 229t-57.5 285.5zM479 690q0 -171 101.5 -283t257.5 -112q154 0 253 111.5t99 279.5 q0 171 -102 284t-257 113t-253.5 -112t-98.5 -281zM934 821q118 0 184 4v-262q-106 4 -188 4h-187q-80 0 -186 -4v262q9 0 83 -2t101 -2h193z" glyph-name="Theta" horiz-adv-x="1669" unicode="Θ"/><glyph d="M147 0q7 96 7 401v574q0 308 -7 401h404q-6 -80 -6 -401v-574q0 -319 6 -401h-404z" glyph-name="Iota" horiz-adv-x="698" unicode="Ι"/><glyph d="M147 0q7 96 7 360v656q0 267 -7 360h406q-6 -80 -6 -360v-260l252 374q78 115 149 246h432q-67 -88 -178 -250l-274 -397l323 -436q112 -147 238 -293h-522q-32 60 -131 199l-289 401v-240q0 -278 6 -360h-406z" glyph-name="Kappa" horiz-adv-x="1492" unicode="Κ"/><glyph d="M1448 0h-440l-301 686l-304 -686h-403q77 129 160 303l532 1100h62l532 -1100q116 -236 162 -303z" glyph-name="Lambda" horiz-adv-x="1447" unicode="Λ"/><glyph d="M70 0q4 54 14 170t14 180l70 1026h321l396 -678l399 678h309l60 -1048q9 -184 24 -328h-379q-5 152 -16 301l-29 379l-335 -533h-72l-342 533l-23 -379q-3 -68 -7 -179.5t-5 -121.5h-399z" glyph-name="Mu" horiz-adv-x="1744" unicode="Μ"/><glyph d="M147 0q7 86 7 291v713q0 230 -7 399h101l721 -660v273q0 247 -6 360h387q-9 -221 -9 -360v-715q0 -182 9 -326h-97l-725 672v-358q0 -203 7 -289h-388z" glyph-name="Nu" horiz-adv-x="1497" unicode="Ν"/><glyph d="M137 1380q63 -4 260 -4h383q97 0 297 8v-354q-160 4 -297 4h-383q-134 0 -260 -4v350zM141 872q51 -2 238 -2h422l272 4v-350q-156 4 -272 4h-422q-191 0 -238 -6v350zM121 348q45 -4 293 -4h360q154 0 322 4v-352q-168 4 -322 4h-362q-139 0 -291 -4v352z" glyph-name="Xi" horiz-adv-x="1216" unicode="Ξ"/><glyph d="M84 694q0 201 97.5 363.5t268 254t379.5 91.5q159 0 299.5 -55.5t240.5 -151t158 -229.5t58 -285q0 -202 -98 -364.5t-268.5 -253.5t-380.5 -91q-159 0 -299.5 55.5t-240 151t-157 229t-57.5 285.5zM479 690q0 -171 101.5 -283t257.5 -112q154 0 253 111.5t99 279.5 q0 171 -102 284t-257 113t-253.5 -112t-98.5 -281z" glyph-name="Omicron" horiz-adv-x="1669" unicode="Ο"/><glyph d="M147 0q11 191 11 360v1016h1220v-1022q0 -286 8 -354h-411q10 150 10 358v693h-434v-691q0 -243 10 -360h-414z" glyph-name="Pi" horiz-adv-x="1533" unicode="Π"/><glyph d="M1194 905q0 -208 -138.5 -327t-393.5 -119h-115v-99q0 -267 8 -360h-408q9 105 9 360v656q0 261 -9 360h508q117 0 215.5 -31.5t170.5 -90.5t112.5 -148.5t40.5 -200.5zM801 913q0 67 -48.5 117.5t-127.5 50.5h-78v-336h78q80 0 128 50t48 118z" glyph-name="Rho" horiz-adv-x="1267" unicode="Ρ"/><glyph d="M18 0l459 690l-459 686h834q280 0 360 4v-303q-121 2 -360 2h-236l261 -389l-263 -393h232q239 0 360 2v-303q-80 4 -360 4h-828z" glyph-name="Sigma" horiz-adv-x="1310" unicode="Σ"/><glyph d="M461 0q10 173 10 360v435q0 147 -6 258h-47q-176 0 -363 -11v338q82 -4 363 -4h495q219 0 367 4v-338q-183 11 -367 11h-45q-2 -49 -2 -258v-435q0 -232 11 -360h-416z" glyph-name="Tau" horiz-adv-x="1335" unicode="Τ"/><glyph d="M506 0q4 125 4 299v297l-332 522q-129 199 -178 258h469q20 -53 78 -151l174 -293l172 287q50 81 86 157h432q-36 -46 -201 -299l-309 -477v-301q0 -217 6 -299h-401z" glyph-name="Upsilon" horiz-adv-x="1411" unicode="Υ"/><glyph d="M84 688q0 136 45.5 252t125.5 198t187.5 133t231.5 64q0 88 -2 123h364q-2 -35 -2 -121q124 -14 231.5 -65.5t187.5 -133.5t125.5 -198t45.5 -252q0 -128 -46 -240t-125.5 -192t-187 -131t-231.5 -64q0 -89 2 -122h-362v122q-124 13 -231.5 64t-187 131t-125.5 192 t-46 240zM1243 690q0 126 -57 218t-156 104v-625q98 10 155.5 99.5t57.5 203.5zM465 690q0 -114 57.5 -203.5t155.5 -99.5v623q-99 -10 -156 -102t-57 -218z" glyph-name="Phi" horiz-adv-x="1708" unicode="Φ"/><glyph d="M0 0q83 93 227 319l238 375l-236 369q-141 226 -211 313h465q31 -58 90 -164l107 -190l113 197q59 103 84 157h430q-67 -80 -207 -295l-230 -356l244 -373q172 -265 244 -352h-469q-5 14 -17 34.5t-36 59t-39 64.5l-140 233l-149 -256q-74 -129 -74 -135h-434z" glyph-name="Chi" horiz-adv-x="1357" unicode="Χ"/><glyph d="M457 1376q10 -85 12 -358q0 -117 53 -198.5t131 -106.5v401q0 209 -6 262h383q-4 -59 -4 -262v-403q89 39 136.5 117.5t47.5 189.5q0 225 13 358h387q-19 -68 -24 -138.5t-7 -217.5q-3 -246 -160.5 -426t-392.5 -217v-94q0 -222 4 -283h-383q6 84 6 283v94 q-244 43 -398 222t-157 421q0 10 -0.5 43t-0.5 41.5t-0.5 36t-1 36.5t-1.5 32.5t-2.5 34.5t-3.5 31t-4 34t-5 31.5t-7 35.5h385z" glyph-name="Psi" horiz-adv-x="1677" unicode="Ψ"/><glyph d="M82 -6v338q84 -6 225 -6h55q-223 180 -223 454q0 146 58.5 264.5t159.5 194t234 116t286 40.5q159 0 296 -45t234.5 -125t153 -195.5t55.5 -251.5q0 -282 -232 -452h48q149 0 237 6v-338q-88 6 -366 6h-306v348q97 79 151 169t54 210q0 151 -88 238.5t-240 87.5 q-151 0 -238 -86.5t-87 -239.5q0 -221 203 -379v-348h-324q-262 0 -346 -6z" glyph-name="uni03A9" horiz-adv-x="1751" unicode="Ω"/><glyph d="M-82 1649q0 83 58 140.5t141 57.5t140.5 -57.5t57.5 -140.5t-57.5 -141t-140.5 -58t-141 58t-58 141zM395 1649q0 83 58 140.5t141 57.5t141 -57.5t58 -140.5t-58 -141t-141 -58t-141 58t-58 141zM147 0q7 96 7 401v574q0 308 -7 401h404q-6 -80 -6 -401v-574 q0 -319 6 -401h-404z" glyph-name="Iotadieresis" horiz-adv-x="698" unicode="Ϊ"/><glyph d="M270 1649q0 83 58 140.5t141 57.5t141 -57.5t58 -140.5t-58 -141t-141 -58t-141 58t-58 141zM748 1649q0 83 57.5 140.5t140.5 57.5t141 -57.5t58 -140.5t-58 -141t-141 -58t-140.5 58t-57.5 141zM506 0q4 125 4 299v297l-332 522q-129 199 -178 258h469q20 -53 78 -151 l174 -293l172 287q50 81 86 157h432q-36 -46 -201 -299l-309 -477v-301q0 -217 6 -299h-401z" glyph-name="Upsilondieresis" horiz-adv-x="1411" unicode="Ϋ"/><glyph d="M1063 1452l-277 -356h-346l252 356h371zM68 494q0 101 30.5 195.5t85.5 169t140 119t186 44.5q189 0 283 -137q16 87 24 116h354q-71 -266 -90 -438q42 -276 109 -276q19 0 41 14l37 -264q-56 -34 -97.5 -48t-99.5 -14q-83 0 -144.5 46.5t-90.5 123.5 q-63 -83 -138.5 -126.5t-193.5 -43.5q-82 0 -153 30.5t-122 81.5t-88 118t-55 140.5t-18 148.5zM455 500q0 -82 46.5 -141.5t108.5 -59.5q58 0 102 54.5t68 146.5q-69 198 -178 198q-60 0 -103.5 -57.5t-43.5 -140.5z" glyph-name="alphatonos" horiz-adv-x="1300" unicode="ά"/><glyph d="M942 1452l-276 -356h-347l252 356h371zM909 35q-184 -49 -352 -49q-215 0 -344 84t-129 219q0 93 59.5 156t143.5 79q-166 55 -166 209q0 130 115 208.5t333 78.5q195 0 316 -43v-277q-47 22 -124 38t-147 16q-133 0 -133 -64q0 -33 29.5 -51t75.5 -18q158 0 168 2v-248 q-24 8 -136 8q-97 0 -136.5 -13t-39.5 -46q0 -36 37 -55t103 -19q77 0 178.5 21t148.5 51v-287z" glyph-name="epsilontonos" horiz-adv-x="1017" unicode="έ"/><glyph d="M997 1452l-276 -356h-346l252 356h370zM23 780l77 221h402v-102q90 121 268 121q175 0 255.5 -117t80.5 -358v-817q0 -197 6 -250h-383q6 53 6 250v862q0 53 -30.5 87t-77.5 34q-68 0 -125 -97v-364q0 -197 6 -250h-381q6 59 6 250v530h-110z" glyph-name="etatonos" horiz-adv-x="1220" unicode="ή"/><glyph d="M737 1452l-276 -356h-346l252 356h370zM125 0q8 76 8 205v581q0 135 -12 215h401q-8 -79 -8 -204v-592q0 -137 8 -205h-397z" glyph-name="iotatonos" horiz-adv-x="643" unicode="ί"/><glyph d="M920 1452l-277 -356h-346l252 356h371zM-57 1274q0 69 48.5 117.5t117.5 48.5t117 -48.5t48 -117.5t-48 -117.5t-117 -48.5t-117.5 48.5t-48.5 117.5zM926 1274q0 69 48.5 117.5t117.5 48.5t117 -48.5t48 -117.5t-48 -117.5t-117 -48.5t-117.5 48.5t-48.5 117.5zM139 426 q0 54 14.5 135.5t14.5 95.5q0 24 -12 39t-33 15t-45 -15l-37 265q101 61 223 61q75 0 130 -23.5t86.5 -66t46 -94.5t14.5 -115q0 -45 -10.5 -138t-10.5 -126q0 -87 39 -128.5t98 -41.5q75 0 110.5 70t35.5 219q0 259 -109 423h385q63 -124 89 -225t26 -207q0 -186 -70 -320 t-190 -200.5t-277 -66.5q-220 0 -369 123t-149 321z" glyph-name="upsilondieresistonos" horiz-adv-x="1261" unicode="ΰ"/><glyph d="M68 494q0 101 30.5 195.5t85.5 169t140 119t186 44.5q189 0 283 -137q16 87 24 116h354q-71 -266 -90 -438q42 -276 109 -276q19 0 41 14l37 -264q-56 -34 -97.5 -48t-99.5 -14q-83 0 -144.5 46.5t-90.5 123.5q-63 -83 -138.5 -126.5t-193.5 -43.5q-82 0 -153 30.5 t-122 81.5t-88 118t-55 140.5t-18 148.5zM455 500q0 -82 46.5 -141.5t108.5 -59.5q58 0 102 54.5t68 146.5q-69 198 -178 198q-60 0 -103.5 -57.5t-43.5 -140.5z" glyph-name="alpha" horiz-adv-x="1300" unicode="α"/><glyph d="M1288 418q0 -131 -71.5 -233.5t-193.5 -157t-273 -54.5q-147 0 -236 13v-158q0 -189 4 -244h-397q4 63 4 244v1163q0 234 152.5 382.5t392.5 148.5q101 0 190.5 -26.5t159.5 -77.5t110.5 -131.5t40.5 -180.5q0 -109 -43.5 -189t-115.5 -118q117 -31 196.5 -128t79.5 -253 zM895 459q0 72 -47 124t-119 52q-62 0 -102 -12v280q24 -4 51 -4q59 0 97 49.5t38 118.5q0 63 -39 100t-104 37q-75 0 -115.5 -54.5t-40.5 -160.5v-672q70 -18 180 -18q100 0 150.5 44.5t50.5 115.5z" glyph-name="beta" horiz-adv-x="1349" unicode="β"/><glyph d="M412 -475l45 483q-5 36 -11 97.5t-10.5 113.5t-13.5 117t-21 117t-32.5 104.5t-47.5 87.5t-67 56.5t-90 21.5q-48 0 -88 -12l-84 231q73 64 256 64q88 0 153 -17.5t110 -56.5t73.5 -88.5t44 -125.5t21 -154.5t5.5 -188.5q3 64 8 114.5t14.5 94.5t17 75t25 65t28 53.5 t37 52.5t41.5 50t52 57t58 64l305 -241q-199 -161 -283 -297q-56 -88 -87 -185.5t-68 -265.5l8 -487h-399z" glyph-name="gamma" horiz-adv-x="1323" unicode="γ"/><glyph d="M68 481q0 140 77.5 250t210.5 170q-241 120 -241 275q0 137 129 215.5t360 78.5q280 0 483 -108v-348q-238 168 -458 168q-107 0 -107 -64q0 -21 46.5 -47.5t139 -73t158.5 -90.5q129 -84 205 -191.5t76 -234.5q0 -107 -47 -201t-123 -157t-172.5 -99t-196.5 -36 q-145 0 -268 62t-197.5 176t-74.5 255zM459 489q0 -68 44 -116.5t105 -48.5q59 0 101.5 49t42.5 116q0 66 -49.5 118t-114.5 73q-61 -20 -95 -70t-34 -121z" glyph-name="delta" horiz-adv-x="1208" unicode="δ"/><glyph d="M909 35q-184 -49 -352 -49q-215 0 -344 84t-129 219q0 93 59.5 156t143.5 79q-166 55 -166 209q0 130 115 208.5t333 78.5q195 0 316 -43v-277q-47 22 -124 38t-147 16q-133 0 -133 -64q0 -33 29.5 -51t75.5 -18q158 0 168 2v-248q-24 8 -136 8q-97 0 -136.5 -13 t-39.5 -46q0 -36 37 -55t103 -19q77 0 178.5 21t148.5 51v-287z" glyph-name="epsilon" horiz-adv-x="1017" unicode="ε"/><glyph d="M78 446q0 173 117 370.5t325 393.5q-171 -30 -370 -30v276q3 0 31 -1t73.5 -2t91.5 -1q367 0 561 66v-314q-102 -79 -178 -150t-142.5 -153t-101 -169t-34.5 -175q0 -46 12 -80t29.5 -55t50 -37t60.5 -24.5t75 -18.5q147 -33 219 -108.5t72 -210.5q0 -174 -111 -375 l-293 84q47 112 47 172q0 75 -102 92q-206 34 -319 151t-113 299z" glyph-name="zeta" horiz-adv-x="987" unicode="ζ"/><glyph d="M23 780l77 221h402v-102q90 121 268 121q175 0 255.5 -117t80.5 -358v-817q0 -197 6 -250h-383q6 53 6 250v862q0 53 -30.5 87t-77.5 34q-68 0 -125 -97v-364q0 -197 6 -250h-381q6 59 6 250v530h-110z" glyph-name="eta" horiz-adv-x="1220" unicode="η"/><glyph d="M68 723q0 87 15 173.5t44 171t76.5 157t107.5 127.5t141.5 86.5t174.5 31.5q117 0 214 -47.5t160.5 -124t108 -176t63.5 -200t19 -199.5q0 -104 -21.5 -207t-67 -199t-110.5 -170t-160 -118.5t-206 -44.5q-96 0 -179.5 33t-143 89.5t-106 129.5t-74.5 156.5t-42 166.5 t-14 164zM442 856h375q-20 136 -69.5 221.5t-120.5 85.5q-67 0 -116 -86.5t-69 -220.5zM442 582q22 -133 70.5 -220.5t114.5 -87.5q67 0 117 87.5t73 220.5h-375z" glyph-name="theta" horiz-adv-x="1259" unicode="θ"/><glyph d="M125 0q8 76 8 205v581q0 135 -12 215h401q-8 -79 -8 -204v-592q0 -137 8 -205h-397z" glyph-name="iota" horiz-adv-x="643" unicode="ι"/><glyph d="M123 0q4 45 4 209v545q0 186 -6 247h401q-6 -183 -6 -247v-136q25 37 81.5 93.5t129.5 118.5t162 116.5t164 77.5l186 -231q-98 -34 -207.5 -104.5t-163.5 -131.5l236 -354q59 -86 156 -203h-480q-26 57 -80 143l-90 146q-51 -61 -94 -131v-158h-393z" glyph-name="kappa" horiz-adv-x="1259" unicode="κ"/><glyph d="M0 0q73 133 109 209l342 715l-58 114q-9 19 -20 32.5t-20.5 23.5t-28.5 16t-31.5 9.5t-43 5t-49.5 1.5h-65h-22v314h245q132 0 231.5 -93t196.5 -321l340 -805q70 -169 101 -221h-422q-17 76 -39 145l-115 347l-153 -355q-35 -86 -47 -137h-451z" glyph-name="lambda" horiz-adv-x="1226" unicode="λ"/><glyph d="M23 780l75 221h422q-8 -91 -8 -210v-334q0 -86 36 -127t87 -41q84 0 115 102v400q0 146 -7 210h394q-7 -64 -7 -210v-564q0 -121 19 -227h-332l-29 143q-60 -157 -192 -157q-63 0 -104 71q20 -61 20 -166v-208q0 -137 8 -205h-397q8 76 8 205v1097h-108z" glyph-name="uni03BC" horiz-adv-x="1269" unicode="μ"/><glyph d="M451 1001q14 -54 41 -114l165 -383q58 67 83.5 131.5t25.5 140.5q0 50 -19.5 115.5t-46.5 109.5h351q47 -172 47 -276q0 -107 -29.5 -203t-92.5 -187.5t-145.5 -175.5t-203.5 -184h-121l-387 805q-48 102 -119 221h451z" glyph-name="nu" horiz-adv-x="1140" unicode="ν"/><glyph d="M121 352q0 117 72 199t208 125q-93 23 -153 80t-60 137q0 45 22 89t57 78.5t80 64.5t88 50.5t85 34.5q-171 -30 -370 -30v276q3 0 31 -1t73.5 -2t91.5 -1q367 0 561 66v-314q-358 -107 -358 -262q0 -48 42.5 -85.5t106.5 -37.5t119 15v-279q-86 0 -123 -6 q-94 -12 -151.5 -47t-57.5 -84q0 -42 42.5 -66.5t131.5 -36.5q141 -19 218 -109.5t77 -230.5q0 -55 -8 -100t-26.5 -87t-35 -70.5t-48.5 -75.5l-265 127q4 12 16.5 41.5t19.5 52t7 39.5q0 36 -28.5 63.5t-89.5 34.5q-178 22 -276.5 123t-98.5 229z" glyph-name="xi" horiz-adv-x="1017" unicode="ξ"/><glyph d="M68 502q0 109 43.5 206.5t116 166t168.5 108t200 39.5q145 0 267 -70t192.5 -190t70.5 -260q0 -146 -74.5 -266t-195.5 -185t-260 -65q-145 0 -266.5 69t-191.5 188t-70 259zM426 502q0 -77 49.5 -135t120.5 -58t121.5 58.5t50.5 134.5q0 79 -50 135.5t-122 56.5 q-71 0 -120.5 -56.5t-49.5 -135.5z" glyph-name="omicron" horiz-adv-x="1193" unicode="ο"/><glyph d="M23 680v321h1206q33 0 166 5v-330q-51 4 -166 4h-51v-240q0 -272 36 -440h-401q-18 88 -18 375v305h-168v-680h-363v680h-241z" glyph-name="pi" horiz-adv-x="1417" unicode="π"/><glyph d="M121 473q0 128 43.5 233t117.5 173.5t171 105.5t206 37q136 0 242 -39t172 -108t99.5 -160t33.5 -199q0 -142 -56 -262.5t-161 -194t-237 -73.5q-160 0 -263 80v-482h-368v889zM840 502q0 87 -48 147t-130 60q-85 0 -129 -62t-44 -174v-84q63 -90 177 -90 q81 0 127.5 58.5t46.5 144.5z" glyph-name="rho" horiz-adv-x="1273" unicode="ρ"/><glyph d="M68 500q0 115 47 214.5t125 166t179.5 104t209.5 37.5q84 0 205 -23v-350q-49 26 -81.5 34.5t-97.5 8.5q-90 0 -154.5 -57.5t-64.5 -134.5q0 -73 51.5 -129t155.5 -101q146 -65 207 -146.5t61 -201.5q0 -113 -47.5 -199t-122.5 -159l-301 45q45 50 82 111.5t37 101.5 l1 10q0 11 -0.5 17t-2 19.5t-5.5 24t-10.5 25t-17.5 27t-25.5 26.5t-35.5 27t-47 25q-348 154 -348 477z" glyph-name="uni03C2" horiz-adv-x="954" unicode="ς"/><glyph d="M68 504q0 224 151 360.5t399 136.5h568l-70 -321h-143q29 -37 49 -102.5t20 -122.5q0 -129 -54.5 -234t-164.5 -170t-258 -65q-142 0 -256 69.5t-177.5 188t-63.5 260.5zM680 473q0 133 -55 207h-33q-55 0 -108.5 -47t-53.5 -135q0 -83 39.5 -136t85.5 -53q57 0 91 48.5 t34 115.5z" glyph-name="sigma" horiz-adv-x="1193" unicode="σ"/><glyph d="M1057 1001l-49 -301q-56 11 -138 11h-170v-232q0 -174 138 -174q35 0 73 17l52 -269q-44 -30 -115.5 -49.5t-126.5 -19.5q-181 0 -290 108.5t-109 306.5v312h-99q-58 0 -164 -9v281q70 18 213 18h785z" glyph-name="tau" horiz-adv-x="1132" unicode="τ"/><glyph d="M139 426q0 54 14.5 135.5t14.5 95.5q0 24 -12 39t-33 15t-45 -15l-37 265q101 61 223 61q75 0 130 -23.5t86.5 -66t46 -94.5t14.5 -115q0 -45 -10.5 -138t-10.5 -126q0 -87 39 -128.5t98 -41.5q75 0 110.5 70t35.5 219q0 259 -109 423h385q63 -124 89 -225t26 -207 q0 -186 -70 -320t-190 -200.5t-277 -66.5q-220 0 -369 123t-149 321z" glyph-name="upsilon" horiz-adv-x="1261" unicode="υ"/><glyph d="M68 504q0 217 139.5 356.5t384.5 161.5v213q0 158 -8 213h346q-8 -72 -8 -211v-215q112 -12 206.5 -51.5t166 -104t111.5 -157.5t40 -205q0 -115 -42 -210t-114.5 -159t-166 -102.5t-199.5 -48.5v-187q0 -152 10 -211h-348q6 43 6 211v187q-244 20 -384 163t-140 357z M436 504q0 -81 44 -137.5t112 -57.5v383q-68 0 -112 -54t-44 -134zM1077 504q0 80 -42.5 134t-112.5 54v-383q68 1 111.5 58t43.5 137z" glyph-name="phi" horiz-adv-x="1513" unicode="φ"/><glyph d="M444 -416h-381l355 647l-103 287q-44 107 -79 150t-76 43q-25 0 -49 -15l-37 265q32 29 94.5 45t120.5 16q101 0 177 -55t120 -148l67 -145l162 327h383l-395 -747l84 -211q42 -92 77 -129t70 -37q39 0 58 12l36 -264q-82 -61 -215 -61q-87 0 -165 46.5t-117 117.5 l-58 104z" glyph-name="chi" horiz-adv-x="1232" unicode="χ"/><glyph d="M672 -522q4 62 4 211v297q-114 16 -215.5 61.5t-180.5 114.5t-125 167.5t-46 213.5q0 60 11 156t11 128q0 107 -14 174h360q23 -64 23 -180q0 -38 -8.5 -119.5t-8.5 -126.5q0 -92 56.5 -157.5t136.5 -95.5v919q0 145 -4 207h342q-6 -59 -6 -207v-919q200 82 200 430 q0 130 -22 249h379q24 -122 24 -274q0 -101 -22 -200t-69.5 -192t-114.5 -166.5t-164 -122.5t-211 -60v-297q0 -158 6 -211h-342z" glyph-name="psi" horiz-adv-x="1656" unicode="ψ"/><glyph d="M68 508q0 126 37 238.5t108 254.5h418q-77 -99 -124.5 -225t-47.5 -239q0 -209 82 -209q36 0 54.5 81t18.5 207q0 127 -6 156h363q-4 -43 -4 -158q0 -123 18.5 -204.5t56.5 -81.5t60 53.5t22 155.5q0 123 -43 247.5t-118 216.5h421q132 -233 132 -485q0 -115 -28 -211 t-83 -168.5t-142.5 -113.5t-199.5 -41q-96 0 -170 46.5t-105 125.5q-35 -79 -112 -125.5t-182 -46.5q-111 0 -196 44.5t-133.5 120.5t-72.5 167t-24 194z" glyph-name="omega" horiz-adv-x="1583" unicode="ω"/><glyph d="M-102 1260q0 83 57.5 140.5t140.5 57.5t141 -57.5t58 -140.5t-58 -141t-141 -58t-140.5 58t-57.5 141zM375 1260q0 83 57.5 140.5t140.5 57.5t141 -57.5t58 -140.5t-58 -141t-141 -58t-140.5 58t-57.5 141zM125 0q8 76 8 205v581q0 135 -12 215h401q-8 -79 -8 -204v-592 q0 -137 8 -205h-397z" glyph-name="iotadieresis" horiz-adv-x="643" unicode="ϊ"/><glyph d="M150 1260q0 83 57.5 140.5t140.5 57.5t141 -57.5t58 -140.5t-58 -141t-141 -58t-140.5 58t-57.5 141zM627 1260q0 83 57.5 140.5t140.5 57.5t141 -57.5t58 -140.5t-58 -141t-141 -58t-140.5 58t-57.5 141zM139 426q0 54 14.5 135.5t14.5 95.5q0 24 -12 39t-33 15t-45 -15 l-37 265q101 61 223 61q75 0 130 -23.5t86.5 -66t46 -94.5t14.5 -115q0 -45 -10.5 -138t-10.5 -126q0 -87 39 -128.5t98 -41.5q75 0 110.5 70t35.5 219q0 259 -109 423h385q63 -124 89 -225t26 -207q0 -186 -70 -320t-190 -200.5t-277 -66.5q-220 0 -369 123t-149 321z" glyph-name="upsilondieresis" horiz-adv-x="1261" unicode="ϋ"/><glyph d="M995 1450l-276 -356h-346l252 356h370zM68 502q0 109 43.5 206.5t116 166t168.5 108t200 39.5q145 0 267 -70t192.5 -190t70.5 -260q0 -146 -74.5 -266t-195.5 -185t-260 -65q-145 0 -266.5 69t-191.5 188t-70 259zM426 502q0 -77 49.5 -135t120.5 -58t121.5 58.5 t50.5 134.5q0 79 -50 135.5t-122 56.5q-71 0 -120.5 -56.5t-49.5 -135.5z" glyph-name="omicrontonos" horiz-adv-x="1193" unicode="ό"/><glyph d="M989 1452l-276 -356h-346l251 356h371zM139 426q0 54 14.5 135.5t14.5 95.5q0 24 -12 39t-33 15t-45 -15l-37 265q101 61 223 61q75 0 130 -23.5t86.5 -66t46 -94.5t14.5 -115q0 -45 -10.5 -138t-10.5 -126q0 -87 39 -128.5t98 -41.5q75 0 110.5 70t35.5 219 q0 259 -109 423h385q63 -124 89 -225t26 -207q0 -186 -70 -320t-190 -200.5t-277 -66.5q-220 0 -369 123t-149 321z" glyph-name="upsilontonos" horiz-adv-x="1261" unicode="ύ"/><glyph d="M1180 1452l-277 -356h-346l252 356h371zM68 508q0 126 37 238.5t108 254.5h418q-77 -99 -124.5 -225t-47.5 -239q0 -209 82 -209q36 0 54.5 81t18.5 207q0 127 -6 156h363q-4 -43 -4 -158q0 -123 18.5 -204.5t56.5 -81.5t60 53.5t22 155.5q0 123 -43 247.5t-118 216.5 h421q132 -233 132 -485q0 -115 -28 -211t-83 -168.5t-142.5 -113.5t-199.5 -41q-96 0 -170 46.5t-105 125.5q-35 -79 -112 -125.5t-182 -46.5q-111 0 -196 44.5t-133.5 120.5t-72.5 167t-24 194z" glyph-name="omegatonos" horiz-adv-x="1583" unicode="ώ"/><glyph d="M117 1649q0 83 57.5 140.5t140.5 57.5t141 -57.5t58 -140.5t-58 -141t-141 -58t-140.5 58t-57.5 141zM594 1649q0 83 58 140.5t141 57.5t140.5 -57.5t57.5 -140.5t-57.5 -141t-140.5 -58t-141 58t-58 141zM147 0q7 172 7 360v658q0 265 -7 358h578q194 0 319 8l-61 -333 q-55 6 -319 6h-117v-195h110q236 0 318 6v-327q-82 6 -318 6h-110v-225h153q238 0 318 6v-334q-80 6 -318 6h-553z" glyph-name="uni0401" horiz-adv-x="1142" unicode="Ё"/><glyph d="M434 0q10 182 10 375v663h-51q-199 0 -338 -8v352q84 -6 340 -6h713q250 0 334 6v-352q-139 8 -334 8h-252v-176q82 33 205 33q112 0 205 -32t153 -84t102 -119.5t60 -135.5t18 -135q0 -177 -126.5 -293t-309.5 -116q-130 0 -192 20v328q25 -17 86 -17q48 0 86.5 28 t38.5 69q0 63 -54.5 105t-140.5 42q-78 0 -131 -23v-198q0 -219 8 -334h-430z" glyph-name="uni0402" horiz-adv-x="1673" unicode="Ђ"/><glyph d="M997 1841l-276 -356h-346l252 356h370zM147 0q7 93 7 360v656q0 188 -7 360h570q276 0 358 6v-342q-63 4 -358 4h-170v-684q0 -280 6 -360h-406z" glyph-name="uni0403" horiz-adv-x="1130" unicode="Ѓ"/><glyph d="M852 315q172 0 313 78v-383q-158 -35 -350 -35q-156 0 -292.5 55t-232.5 150t-151 227.5t-55 282.5q0 156 58.5 291t157.5 227t232.5 144.5t282.5 52.5q162 0 334 -47v-395q-46 45 -128.5 72.5t-172.5 27.5q-106 0 -193.5 -54t-136.5 -143h139q203 0 312 8v-337 q-84 6 -312 6h-153q45 -103 139 -165.5t209 -62.5z" glyph-name="uni0404" horiz-adv-x="1294" unicode="Є"/><glyph d="M78 59l88 312q126 -99 272 -99q75 0 121.5 26t46.5 69t-42.5 81t-131.5 95q-49 31 -81.5 55t-75.5 65t-69 82.5t-44.5 101t-18.5 126.5q0 193 134.5 313.5t363.5 120.5q170 0 315 -68v-305q-146 76 -270 76q-68 0 -102.5 -23t-34.5 -57q0 -18 8.5 -34.5t31 -35.5 t37 -29.5t52 -34.5t49.5 -32q297 -197 297 -454q0 -191 -148.5 -317t-396.5 -126q-120 0 -229 28t-172 64z" glyph-name="uni0405" horiz-adv-x="1128" unicode="Ѕ"/><glyph d="M147 0q7 96 7 401v574q0 308 -7 401h404q-6 -80 -6 -401v-574q0 -319 6 -401h-404z" glyph-name="uni0406" horiz-adv-x="698" unicode="І"/><glyph d="M-86 1649q0 83 58 140.5t141 57.5t140.5 -57.5t57.5 -140.5t-57.5 -141t-140.5 -58t-141 58t-58 141zM391 1649q0 83 58 140.5t141 57.5t140.5 -57.5t57.5 -140.5t-57.5 -141t-140.5 -58t-141 58t-58 141zM147 0q7 96 7 401v574q0 308 -7 401h404q-6 -80 -6 -401v-574 q0 -319 6 -401h-404z" glyph-name="uni0407" horiz-adv-x="698" unicode="Ї"/><glyph d="M543 -51q0 -108 -43.5 -203t-117.5 -161.5t-175 -105t-213 -38.5q-99 0 -234 27v350q85 -47 187 -47q98 0 150.5 58.5t52.5 154.5v1032q0 267 -7 360h406q-6 -80 -6 -360v-1067z" glyph-name="uni0408" horiz-adv-x="696" unicode="Ј"/><glyph d="M1481 918q256 0 394 -119t138 -332q0 -144 -70 -251t-191 -161.5t-277 -54.5h-508q8 88 8 360v703h-197q-8 -39 -40 -223t-58 -289q-24 -96 -52 -174t-71.5 -154.5t-96.5 -128t-128 -83t-164 -31.5q-30 0 -65 7t-52 17v309q29 -10 82 -10q139 0 250 422q67 257 119 651 h872q-8 -93 -8 -360v-98h115zM1444 295q79 0 127.5 50.5t48.5 117.5q0 68 -48 118t-128 50h-78v-336h78z" glyph-name="uni0409" horiz-adv-x="2086" unicode="Љ"/><glyph d="M1276 897q257 0 394.5 -114.5t137.5 -325.5q0 -144 -70 -248.5t-190.5 -156.5t-277.5 -52h-488q9 99 9 360v218h-246v-289q0 -215 6 -289h-404q7 86 7 291v725q0 276 -7 360h404q-6 -72 -6 -360v-123h246v123q0 255 -9 360h408q-8 -93 -8 -360v-119h94zM1239 295 q80 0 128 46t48 112q0 67 -47.5 112t-128.5 45h-57v-315h57z" glyph-name="uni040A" horiz-adv-x="1882" unicode="Њ"/><glyph d="M465 0q6 57 6 250v844h-53q-176 0 -363 -11v297q82 -4 363 -4h495q219 0 367 4v-297q-183 11 -367 11h-61v-201q78 65 203 65q183 0 298 -126t115 -338v-244q0 -168 9 -250h-396q6 57 6 250v278q0 52 -30.5 85.5t-81.5 33.5q-86 0 -123 -72v-325q0 -177 8 -250h-395z" glyph-name="uni040B" horiz-adv-x="1574" unicode="Ћ"/><glyph d="M1141 1841l-277 -356h-346l252 356h371zM147 0q7 98 7 360v656q0 267 -7 360h404q-6 -80 -6 -360v-176h57q30 0 58.5 17t54.5 51.5t41.5 59t38.5 66.5q68 124 107.5 211.5t64.5 130.5h454q-27 -33 -62.5 -91.5t-150.5 -256.5q-5 -9 -29 -51t-34.5 -59t-36 -53 t-45.5 -56.5t-50.5 -45t-62.5 -40.5q80 -43 135 -116t142 -228q84 -149 133 -226t113 -153h-529q-75 154 -97.5 201.5t-39 88t-41.5 97.5q-16 35 -22.5 48.5t-22.5 42.5t-28.5 41.5t-31.5 24t-40 11.5h-76v-195q0 -276 6 -360h-404z" glyph-name="uni040C" horiz-adv-x="1476" unicode="Ќ"/><glyph d="M276 1823h254q0 -43 25 -66.5t61 -23.5q37 0 63 23.5t26 66.5h253q-4 -142 -104.5 -239t-237.5 -97q-140 0 -240 100t-100 236zM123 0v313h143q77 0 112.5 23t72.5 98l-342 735q-36 76 -109 209h451q6 -25 47 -137l153 -399l115 391q22 69 39 145h422q-17 -28 -32 -60.5 t-37 -85.5t-32 -75l-329 -764q-66 -153 -134 -240.5t-136.5 -120t-157.5 -32.5h-246z" glyph-name="uni040E" horiz-adv-x="1226" unicode="Ў"/><glyph d="M147 1376h414q-10 -117 -10 -360v-690h475v692q0 208 -10 358h411q-8 -68 -8 -354v-1022h-458v-70q0 -162 8 -346h-359l6 353v63h-458v1016q0 169 -11 360z" glyph-name="uni040F" horiz-adv-x="1574" unicode="Џ"/><glyph d="M6 0l22 38t19 33.5t19 35t17 32t18 36t17 34.5t20 41t20 42t23.5 50.5t25.5 54.5l475 1004h106l494 -1004q129 -262 209 -397h-444l-80 197h-500l-84 -197h-377zM582 477h266l-137 322z" glyph-name="uni0410" horiz-adv-x="1497" unicode="А"/><glyph d="M147 0v1376h560q276 0 358 6v-342q-63 4 -358 4h-168v-126h114q256 0 394.5 -119t138.5 -332q0 -144 -70 -251t-191.5 -161.5t-277.5 -54.5h-500zM793 463q0 68 -48.5 118t-128.5 50h-77v-336h77q80 0 128.5 50.5t48.5 117.5z" glyph-name="uni0411" horiz-adv-x="1259" unicode="Б"/><glyph d="M147 0q9 105 9 360v588q0 373 -6 428h514q83 0 162.5 -18t152.5 -55.5t117.5 -106.5t44.5 -160q0 -92 -47.5 -164t-124.5 -100q101 -35 169 -124.5t68 -213.5q0 -91 -32 -165.5t-85.5 -123.5t-125 -82.5t-147.5 -48t-157 -14.5h-512zM764 989q0 60 -35.5 102t-99.5 42 h-82v-287h82q59 0 97 38.5t38 104.5zM809 430q0 74 -43.5 123t-120.5 49h-98v-346h94q79 0 123.5 44.5t44.5 129.5z" glyph-name="uni0412" horiz-adv-x="1304" unicode="В"/><glyph d="M147 0q7 93 7 360v656q0 188 -7 360h570q276 0 358 6v-342q-63 4 -358 4h-170v-684q0 -280 6 -360h-406z" glyph-name="uni0413" horiz-adv-x="1130" unicode="Г"/><glyph d="M88 -416q4 117 4 353v374h164q91 123 153 251t114.5 333.5t80.5 480.5h866v-1065h166v-362q0 -195 9 -365h-359l6 416h-856l6 -416h-354zM1096 311v752h-215q-73 -487 -215 -752h430z" glyph-name="uni0414" horiz-adv-x="1697" unicode="Д"/><glyph d="M147 0q7 172 7 360v658q0 265 -7 358h578q194 0 319 8l-61 -333q-55 6 -319 6h-117v-195h110q236 0 318 6v-327q-82 6 -318 6h-110v-225h153q238 0 318 6v-334q-80 6 -318 6h-553z" glyph-name="uni0415" horiz-adv-x="1142" unicode="Е"/><glyph d="M0 0q19 23 38 50t44.5 71t39.5 69.5t51.5 94t51.5 94.5q146 268 256 338q-95 54 -223 332q-77 167 -207 327h449l129 -262q96 -196 122.5 -234t75.5 -38h27v174q0 253 -8 360h405q-6 -182 -6 -360v-174h27q49 0 75.5 38t122.5 234l129 262h449q-130 -160 -207 -327 q-128 -278 -223 -332q110 -70 256 -338q14 -26 51.5 -94.5t51.5 -94t39.5 -69.5t44.5 -71t38 -50h-504l-118 287q-54 131 -87 192.5t-59 82t-63 20.5h-23v-222q0 -172 6 -360h-405q8 109 8 360v222h-23q-37 0 -62.5 -20.5t-58.5 -82t-87 -192.5l-119 -287h-504z" glyph-name="uni0416" horiz-adv-x="2099" unicode="Ж"/><glyph d="M164 41v328q49 -30 122.5 -51t141.5 -21q83 0 129.5 35.5t46.5 99.5q0 54 -41 88.5t-106 34.5q-54 0 -101 -8v301q55 -6 97 -6q57 0 89.5 27.5t32.5 76.5q0 50 -41 83.5t-106 33.5q-130 0 -246 -59v319q52 24 141 38.5t187 14.5q207 0 329 -97t122 -261q0 -215 -226 -297 q130 -44 197 -132.5t67 -209.5q0 -188 -131.5 -293.5t-357.5 -105.5q-197 0 -346 61z" glyph-name="uni0417" unicode="З"/><glyph d="M1350 0h-387q6 74 6 289v358l-725 -672h-97q9 144 9 326v715q0 140 -9 360h388q-7 -132 -7 -360v-273l721 660h101q-7 -169 -7 -399v-713q0 -205 7 -291z" glyph-name="uni0418" horiz-adv-x="1497" unicode="И"/><glyph d="M412 1823h254q0 -43 25 -66.5t61 -23.5q37 0 62.5 23.5t25.5 66.5h254q-4 -142 -104.5 -239t-237.5 -97q-140 0 -240 100t-100 236zM1350 0h-387q6 74 6 289v358l-725 -672h-97q9 144 9 326v715q0 140 -9 360h388q-7 -132 -7 -360v-273l721 660h101q-7 -169 -7 -399v-713 q0 -205 7 -291z" glyph-name="uni0419" horiz-adv-x="1497" unicode="Й"/><glyph d="M147 0q7 98 7 360v656q0 267 -7 360h404q-6 -80 -6 -360v-176h57q30 0 58.5 17t54.5 51.5t41.5 59t38.5 66.5q68 124 107.5 211.5t64.5 130.5h454q-27 -33 -62.5 -91.5t-150.5 -256.5q-5 -9 -29 -51t-34.5 -59t-36 -53t-45.5 -56.5t-50.5 -45t-62.5 -40.5 q80 -43 135 -116t142 -228q84 -149 133 -226t113 -153h-529q-75 154 -97.5 201.5t-39 88t-41.5 97.5q-16 35 -22.5 48.5t-22.5 42.5t-28.5 41.5t-31.5 24t-40 11.5h-76v-195q0 -276 6 -360h-404z" glyph-name="uni041A" horiz-adv-x="1476" unicode="К"/><glyph d="M51 4v309q29 -10 82 -10q139 0 250 422q67 257 119 651h907v-1022q0 -124 2 -212.5t4 -115.5l2 -26h-413q12 135 12 360v703h-238q-8 -39 -40 -223t-58 -289q-24 -96 -52 -174t-71.5 -154.5t-96.5 -128t-128 -83t-164 -31.5q-30 0 -65 7t-52 17z" glyph-name="uni041B" horiz-adv-x="1564" unicode="Л"/><glyph d="M70 0q4 54 14 170t14 180l70 1026h321l396 -678l399 678h309l60 -1048q9 -184 24 -328h-379q-5 152 -16 301l-29 379l-335 -533h-72l-342 533l-23 -379q-3 -68 -7 -179.5t-5 -121.5h-399z" glyph-name="uni041C" horiz-adv-x="1744" unicode="М"/><glyph d="M147 0q7 86 7 291v725q0 276 -7 360h404q-6 -72 -6 -360v-139h452v139q0 235 -8 360h408q-8 -196 -8 -360v-727q0 -164 8 -289h-408q8 81 8 291v270h-452v-272q0 -215 6 -289h-404z" glyph-name="uni041D" horiz-adv-x="1544" unicode="Н"/><glyph d="M84 694q0 201 97.5 363.5t268 254t379.5 91.5q159 0 299.5 -55.5t240.5 -151t158 -229.5t58 -285q0 -202 -98 -364.5t-268.5 -253.5t-380.5 -91q-159 0 -299.5 55.5t-240 151t-157 229t-57.5 285.5zM479 690q0 -171 101.5 -283t257.5 -112q154 0 253 111.5t99 279.5 q0 171 -102 284t-257 113t-253.5 -112t-98.5 -281z" glyph-name="uni041E" horiz-adv-x="1669" unicode="О"/><glyph d="M147 0q11 191 11 360v1016h1220v-1022q0 -286 8 -354h-411q10 150 10 358v693h-434v-691q0 -243 10 -360h-414z" glyph-name="uni041F" horiz-adv-x="1533" unicode="П"/><glyph d="M1194 905q0 -208 -138.5 -327t-393.5 -119h-115v-99q0 -267 8 -360h-408q9 105 9 360v656q0 261 -9 360h508q117 0 215.5 -31.5t170.5 -90.5t112.5 -148.5t40.5 -200.5zM801 913q0 67 -48.5 117.5t-127.5 50.5h-78v-336h78q80 0 128 50t48 118z" glyph-name="uni0420" horiz-adv-x="1267" unicode="Р"/><glyph d="M84 690q0 156 58.5 291t157.5 227t232.5 144.5t282.5 52.5q162 0 334 -47v-395q-46 45 -128.5 72.5t-172.5 27.5q-158 0 -265.5 -110t-107.5 -263q0 -159 111 -267t266 -108q172 0 313 78v-383q-158 -35 -350 -35q-156 0 -292.5 55t-232.5 150t-151 227.5t-55 282.5z" glyph-name="uni0421" horiz-adv-x="1294" unicode="С"/><glyph d="M461 0q10 173 10 360v435q0 147 -6 258h-47q-176 0 -363 -11v338q82 -4 363 -4h495q219 0 367 4v-338q-183 11 -367 11h-45q-2 -49 -2 -258v-435q0 -232 11 -360h-416z" glyph-name="uni0422" horiz-adv-x="1335" unicode="Т"/><glyph d="M123 0v313h143q77 0 112.5 23t72.5 98l-342 735q-36 76 -109 209h451q6 -25 47 -137l153 -399l115 391q22 69 39 145h422q-17 -28 -32 -60.5t-37 -85.5t-32 -75l-329 -764q-66 -153 -134 -240.5t-136.5 -120t-157.5 -32.5h-246z" glyph-name="uni0423" horiz-adv-x="1226" unicode="У"/><glyph d="M84 678q0 135 45 240.5t127 173.5t186 107.5t232 53.5q0 88 -2 123h364q-2 -35 -2 -121q128 -14 232 -54t186 -108.5t127 -174t45 -240.5q0 -103 -30 -188.5t-82.5 -148t-127.5 -108.5t-162 -72.5t-188 -37.5q0 -90 2 -123h-362v123q-101 11 -188 37.5t-162 72.5 t-127.5 108.5t-82.5 148t-30 188.5zM1243 680q0 117 -53.5 177.5t-159.5 72.5v-481q213 22 213 231zM465 680q0 -209 213 -231v479q-105 -11 -159 -71t-54 -177z" glyph-name="uni0424" horiz-adv-x="1708" unicode="Ф"/><glyph d="M0 0q83 93 227 319l238 375l-236 369q-141 226 -211 313h465q31 -58 90 -164l107 -190l113 197q59 103 84 157h430q-67 -80 -207 -295l-230 -356l244 -373q172 -265 244 -352h-469q-5 14 -17 34.5t-36 59t-39 64.5l-140 233l-149 -256q-74 -129 -74 -135h-434z" glyph-name="uni0425" horiz-adv-x="1357" unicode="Х"/><glyph d="M158 0v1016q0 169 -11 360h414q-10 -117 -10 -360v-690h434v692q0 208 -10 358h411q-8 -68 -8 -354v-711h166v-362q0 -214 8 -365h-358q6 357 6 359v57h-1042z" glyph-name="uni0426" horiz-adv-x="1605" unicode="Ц"/><glyph d="M74 1378h405q-6 -57 -6 -250v-241q0 -122 38.5 -169.5t129.5 -47.5q37 0 86 20.5t84 50.5v387q0 177 -8 250h405q-6 -57 -6 -250v-911q0 -52 4 -106.5t8 -82.5l3 -28h-416q10 92 10 207v221q-126 -70 -281 -70q-236 0 -342 120t-106 345v305q0 177 -8 250z" glyph-name="uni0427" horiz-adv-x="1363" unicode="Ч"/><glyph d="M1970 0h-1812v1016q0 169 -11 360h394q-11 -128 -11 -360v-690h373v692q0 208 -10 358h381q-8 -68 -8 -354v-696h331v692q0 208 -10 358h391q-8 -68 -8 -354v-1022z" glyph-name="uni0428" horiz-adv-x="2125" unicode="Ш"/><glyph d="M158 0v1016q0 169 -11 360h394q-11 -128 -11 -360v-690h373v692q0 208 -10 358h381q-8 -68 -8 -354v-696h331v692q0 208 -10 358h391q-8 -68 -8 -354v-711h166v-362q0 -214 8 -365h-358q1 48 2 144.5t2 144.5l2 127h-1634z" glyph-name="uni0429" horiz-adv-x="2197" unicode="Щ"/><glyph d="M465 0q8 88 8 360v684h-74q-295 0 -358 -4v342q82 -6 358 -6h465v-458h115q256 0 394 -119t138 -332q0 -144 -70 -251t-191 -161.5t-277 -54.5h-508zM1118 463q0 68 -48 118t-128 50h-78v-336h78q79 0 127.5 50.5t48.5 117.5z" glyph-name="uni042A" horiz-adv-x="1585" unicode="Ъ"/><glyph d="M147 0q9 99 9 360v656q0 255 -9 360h408q-8 -93 -8 -360v-98h115q256 0 394 -119t138 -332q0 -144 -70 -251t-191.5 -161.5t-277.5 -54.5h-508zM1415 0q6 82 6 401v574q0 321 -6 401h404q-7 -93 -7 -401v-574q0 -305 7 -401h-404zM801 463q0 68 -48 118t-128 50h-78v-336 h78q79 0 127.5 50.5t48.5 117.5z" glyph-name="uni042B" horiz-adv-x="1966" unicode="Ы"/><glyph d="M147 0q9 99 9 360v656q0 255 -9 360h408q-8 -93 -8 -360v-98h115q256 0 394 -119t138 -332q0 -144 -70 -251t-191.5 -161.5t-277.5 -54.5h-508zM801 463q0 68 -48 118t-128 50h-78v-336h78q79 0 127.5 50.5t48.5 117.5z" glyph-name="uni042C" horiz-adv-x="1267" unicode="Ь"/><glyph d="M479 1405q149 0 282.5 -52.5t232.5 -144.5t157.5 -227t58.5 -291q0 -150 -55 -282.5t-151 -227.5t-232.5 -150t-292.5 -55q-193 0 -350 35v383q141 -78 313 -78q115 0 210 62.5t139 165.5h-154q-227 0 -311 -6v337q109 -8 311 -8h139q-49 89 -136.5 143t-193.5 54 q-90 0 -172.5 -27.5t-128.5 -72.5v395q172 47 334 47z" glyph-name="uni042D" horiz-adv-x="1294" unicode="Э"/><glyph d="M147 0q7 86 7 291v725q0 276 -7 360h404q-6 -72 -6 -360v-139h182q54 237 233 381.5t424 144.5q189 0 344.5 -95t243.5 -259t88 -361q0 -207 -88.5 -371t-242.5 -254t-345 -90q-171 0 -314.5 76.5t-235 210t-117.5 301.5h-172v-272q0 -215 6 -289h-404zM1096 688 q0 -174 76 -283.5t212 -109.5q138 0 211.5 108.5t73.5 284.5q0 174 -76 284.5t-209 110.5q-140 0 -214 -109.5t-74 -285.5z" glyph-name="uni042E" horiz-adv-x="2144" unicode="Ю"/><glyph d="M205 932q0 213 141.5 328.5t372.5 115.5h536q-8 -88 -8 -360v-654q0 -269 8 -362h-407q8 93 8 362v130h-90l-266 -492h-471q19 25 51 67t45.5 59.5t34 46.5t36.5 53t33 53l189 315q-29 12 -51.5 24.5t-55 40t-53.5 61.5t-37 89.5t-16 122.5zM598 913q0 -79 46.5 -115 t115.5 -36h96v309h-113q-59 0 -102 -40.5t-43 -117.5z" glyph-name="uni042F" horiz-adv-x="1402" unicode="Я"/><glyph d="M70 283q0 140 90 224.5t221 100.5q26 4 78.5 7.5t91.5 5.5l39 2v18q0 48 -42 75t-118 27q-113 0 -221 -49l-109 238q62 42 163.5 66t217.5 24q251 0 365.5 -116.5t114.5 -340.5v-219q0 -227 45 -346h-365l-14 100q-79 -125 -244 -125q-136 0 -224.5 85.5t-88.5 222.5z M438 291q0 -32 21 -51t53 -19q51 0 86 55v109l-80 -4q-32 -2 -56 -28.5t-24 -61.5z" glyph-name="uni0430" unicode="а"/><glyph d="M78 657q0 608 561 717q155 30 416 117v-361q-123 -63 -371 -100q-48 -7 -72 -11t-58.5 -11t-50.5 -13.5t-38.5 -17t-32.5 -22.5t-22 -29.5t-17.5 -39.5t-9.5 -50q90 106 270 106q208 0 337.5 -136.5t129.5 -338.5q0 -143 -68 -253.5t-182.5 -169t-255.5 -58.5 q-113 0 -204 35.5t-152 97t-102 147t-59.5 183t-18.5 208.5zM776 469q0 64 -46.5 110t-113.5 46q-40 0 -82 -20.5t-65 -47.5q-8 -33 -8 -82q0 -63 47 -109.5t113 -46.5q65 0 110 44t45 106z" glyph-name="uni0431" horiz-adv-x="1187" unicode="б"/><glyph d="M129 0q8 93 8 256v502q0 133 -16 243h500q207 0 312 -65t105 -186q0 -79 -41 -136.5t-108 -76.5q192 -55 192 -230q0 -134 -114.5 -220.5t-339.5 -86.5h-498zM674 676q0 44 -28.5 66t-76.5 22h-61v-176h59q107 0 107 88zM705 315q0 40 -30.5 61t-86.5 21h-80v-159h88 q109 0 109 77z" glyph-name="uni0432" horiz-adv-x="1163" unicode="в"/><glyph d="M121 0q10 102 10 377v268q0 70 -5 189t-5 167h493q240 0 283 9v-344q-73 8 -283 8h-94v-297q0 -268 8 -377h-407z" glyph-name="uni0433" horiz-adv-x="950" unicode="г"/><glyph d="M61 -416q5 115 5 279v434h98q205 278 274 704h748v-704h100v-424q0 -157 6 -289h-348q0 48 3 144.5t3 144.5l2 127h-555l2 -143q1 -45 4.5 -136.5t4.5 -136.5h-347zM838 297v408h-129q-30 -175 -156 -408h285z" glyph-name="uni0434" horiz-adv-x="1347" unicode="д"/><glyph d="M68 500q0 107 32.5 201t93.5 165t155 112.5t210 41.5q96 0 176 -28t134 -75t92 -109t55.5 -128t17.5 -133q0 -66 -18 -127h-582q15 -141 213 -141q157 0 324 61v-274q-161 -82 -348 -82q-264 0 -409.5 143t-145.5 373zM553 743q-57 0 -92.5 -41t-38.5 -96h248 q0 56 -30.5 96.5t-86.5 40.5z" glyph-name="uni0435" unicode="е"/><glyph d="M2 0q46 50 131 172l166 236q65 89 139 110q-75 25 -143 133l-98 158q-64 103 -138 192h387q6 -18 17.5 -38t34 -56.5t32.5 -54.5l99 -168q24 -41 47 -41h14v94q0 219 -4 264h377q-4 -45 -4 -264v-94h12q22 0 51 43l113 186q32 51 72 129h379q-38 -42 -119 -170l-111 -172 q-28 -43 -69 -81.5t-78 -51.5q77 -24 133 -106l168 -246q83 -120 131 -174h-424q-5 12 -14 33t-13 30.5t-13.5 27t-21.5 38.5l-133 229q-28 52 -49 52h-14v-140q0 -225 4 -270h-377q4 88 4 270v140h-12q-21 0 -49 -48l-140 -233q-47 -75 -63 -129h-424z" glyph-name="uni0436" horiz-adv-x="1742" unicode="ж"/><glyph d="M109 35v287q47 -30 148.5 -51t178.5 -21q66 0 102.5 19t36.5 55q0 33 -39.5 46t-136.5 13q-111 0 -135 -8v248q10 -2 168 -2q46 0 75.5 18t29.5 51q0 64 -134 64q-70 0 -146.5 -16t-123.5 -38v277q121 43 316 43q218 0 333 -78.5t115 -208.5q0 -154 -166 -209 q84 -16 143.5 -79t59.5 -156q0 -135 -129 -219t-344 -84q-168 0 -352 49z" glyph-name="uni0437" horiz-adv-x="1017" unicode="з"/><glyph d="M123 -18q4 168 4 223v553q0 141 -6 243h371q-7 -110 -7 -262v-170l498 451h121q-4 -80 -4 -295v-518q0 -168 4 -207h-365q2 51 2 207v168l-465 -393h-153z" glyph-name="uni0438" horiz-adv-x="1224" unicode="и"/><glyph d="M297 1434h254q0 -43 25 -67t61 -24t62 24t26 67h254q-4 -142 -104.5 -239t-237.5 -97q-140 0 -240 100t-100 236zM123 -18q4 168 4 223v553q0 141 -6 243h371q-7 -110 -7 -262v-170l498 451h121q-4 -80 -4 -295v-518q0 -168 4 -207h-365q2 51 2 207v168l-465 -393h-153z" glyph-name="uni0439" horiz-adv-x="1224" unicode="й"/><glyph d="M121 0q8 59 8 270v467q0 63 -1 106t-2.5 84.5t-2.5 73.5h399q-4 -45 -4 -264v-94h8q14 0 26 12.5t46 57.5l211 288h393q-95 -113 -137 -170l-123 -172q-32 -44 -68.5 -67.5t-87.5 -34.5q101 -29 154 -108l186 -275q51 -75 140 -174h-449l-235 350q-4 6 -9.5 14t-8 12 t-6.5 9.5t-6 8t-5 6t-5.5 5l-5 3t-5 2t-5.5 0.5h-8v-140q0 -225 4 -270h-401z" glyph-name="uni043A" horiz-adv-x="1269" unicode="к"/><glyph d="M66 0v313q31 -14 67 -14q49 0 95.5 69.5t81.5 179t60.5 226t39.5 227.5h821q0 -59 -2 -174t-2 -174v-282q0 -252 10 -371h-399q8 119 8 369v336h-137q-51 -356 -182 -540.5t-326 -184.5q-90 0 -135 20z" glyph-name="uni043B" horiz-adv-x="1357" unicode="л"/><glyph d="M121 0q6 63 14 244l17 420q2 56 3 168t3 169h270l336 -450l323 450h279q2 -50 2 -151.5t2 -151.5l21 -454q10 -204 14 -244h-363q5 84 -2 203l-12 215l-225 -242h-80l-201 252l-8 -219q-3 -104 0 -209h-393z" glyph-name="uni043C" horiz-adv-x="1525" unicode="м"/><glyph d="M121 0q8 49 8 207v538q0 157 -6 256h379q-4 -114 -4 -256v-100h280v100q0 92 -4 256h381q-6 -99 -6 -256v-540q0 -91 6 -205h-381q4 102 4 207v170h-280v-172q0 -103 4 -205h-381z" glyph-name="uni043D" horiz-adv-x="1275" unicode="н"/><glyph d="M68 502q0 109 43.5 206.5t116 166t168.5 108t200 39.5q145 0 267 -70t192.5 -190t70.5 -260q0 -146 -74.5 -266t-195.5 -185t-260 -65q-145 0 -266.5 69t-191.5 188t-70 259zM426 502q0 -77 49.5 -135t120.5 -58t121.5 58.5t50.5 134.5q0 79 -50 135.5t-122 56.5 q-71 0 -120.5 -56.5t-49.5 -135.5z" glyph-name="uni043E" horiz-adv-x="1193" unicode="о"/><glyph d="M121 0q8 112 8 262v739h1020v-747q0 -179 10 -254h-414q7 205 7 262v414h-226v-414q0 -96 9 -262h-414z" glyph-name="uni043F" horiz-adv-x="1280" unicode="п"/><glyph d="M121 -416v1303q240 135 563 135q226 0 374 -146t148 -360q0 -107 -34 -202.5t-96.5 -168.5t-159.5 -116t-214 -43q-143 0 -213 47v-449h-368zM840 502q0 88 -51.5 147.5t-145.5 59.5q-89 0 -154 -39v-314q28 -25 69.5 -41t82.5 -16q94 0 146.5 58.5t52.5 144.5z" glyph-name="uni0440" horiz-adv-x="1273" unicode="р"/><glyph d="M68 502q0 115 47 213.5t125.5 165t181 104t213.5 37.5q78 0 199 -23v-350q-78 43 -160 43q-116 0 -177 -58.5t-61 -137.5q0 -77 61.5 -131t174.5 -54q87 0 170 35v-340q-85 -20 -193 -20q-251 0 -416 145.5t-165 370.5z" glyph-name="uni0441" horiz-adv-x="954" unicode="с"/><glyph d="M350 0q4 84 4 262v414h-30q-214 0 -269 -2v332q137 -5 269 -5h450q196 0 273 5v-332q-59 2 -273 2h-29v-414q0 -211 5 -262h-400z" glyph-name="uni0442" horiz-adv-x="1099" unicode="т"/><glyph d="M0 1001h451q12 -51 47 -137l153 -354l115 346q22 69 39 145h422q-31 -52 -101 -221l-329 -784q-95 -228 -195.5 -321t-232.5 -93h-246v314q149 0 197 13t83 75l48 94l-342 715q-32 69 -109 208z" glyph-name="uni0443" horiz-adv-x="1226" unicode="у"/><glyph d="M68 504q0 217 139.5 356.5t384.5 161.5v213q0 158 -8 213h346q-8 -72 -8 -211v-215q112 -12 206.5 -51.5t166 -104t111.5 -157.5t40 -205q0 -115 -42 -210t-114.5 -159t-166 -102.5t-199.5 -48.5v-187q0 -152 10 -211h-348q6 43 6 211v187q-244 20 -384 163t-140 357z M436 504q0 -81 44 -137.5t112 -57.5v383q-68 0 -112 -54t-44 -134zM1077 504q0 80 -42.5 134t-112.5 54v-383q68 1 111.5 58t43.5 137z" glyph-name="uni0444" horiz-adv-x="1513" unicode="ф"/><glyph d="M2 0q43 51 170 242l176 260l-192 317q-58 95 -129 182h426l133 -225l153 225h381q-47 -52 -133 -182l-196 -303l161 -274q52 -90 158 -242h-410l-143 240l-154 -240h-401z" glyph-name="uni0445" horiz-adv-x="1138" unicode="х"/><glyph d="M129 0v739q0 150 -8 262h424q-8 -148 -8 -262v-413h213v413q0 57 -7 262h416q-10 -75 -10 -253v-451h100v-424q0 -157 6 -289h-344q1 69 2 208t2 208h-786z" glyph-name="uni0446" horiz-adv-x="1310" unicode="ц"/><glyph d="M74 1001h401q-6 -45 -6 -198v-74q0 -98 30 -136t99 -38q32 0 63 16t50 41v191q0 131 -9 198h404q-4 -45 -4 -198v-631q0 -41 2.5 -84t5.5 -66l2 -22h-410q9 97 9 164v104q-30 -24 -86.5 -39.5t-108.5 -15.5q-198 0 -317 104t-119 287v199q0 130 -6 198z" glyph-name="uni0447" horiz-adv-x="1232" unicode="ч"/><glyph d="M129 0v739q0 150 -8 262h385q-8 -148 -8 -262v-413h231v413q0 87 -6 262h385q-10 -75 -10 -253v-422h231v413q0 87 -6 262h385q-10 -75 -10 -253v-748h-1569z" glyph-name="uni0448" horiz-adv-x="1828" unicode="ш"/><glyph d="M129 0v739q0 150 -8 262h385q-8 -148 -8 -262v-413h231v413q0 87 -6 262h385q-10 -75 -10 -253v-422h231v413q0 87 -6 262h385q-10 -75 -10 -253v-451h100v-424q0 -157 6 -289h-344q1 69 2 208t2 208h-1335z" glyph-name="uni0449" horiz-adv-x="1859" unicode="щ"/><glyph d="M344 0q4 39 4 233v443h-51q-162 0 -242 -4v334q151 -5 367 -5h315q-6 -80 -6 -210v-54h154q178 0 301 -103t123 -263q0 -167 -123.5 -269t-341.5 -102h-500zM932 365q0 52 -38 83t-118 31h-45v-227h55q76 0 111 27.5t35 85.5z" glyph-name="uni044A" horiz-adv-x="1349" unicode="ъ"/><glyph d="M121 0q4 39 4 233v529q0 186 -2 239h379q-4 -53 -4 -239v-25h92q95 0 174 -20.5t141 -63t96.5 -114.5t34.5 -168q0 -166 -123 -268.5t-333 -102.5h-459zM1202 0q8 76 8 205v581q0 135 -12 215h401q-8 -79 -8 -204v-592q0 -137 8 -205h-397zM659 367q0 48 -35 80t-94 32 h-32v-227h34q61 0 94 31t33 84z" glyph-name="uni044B" horiz-adv-x="1720" unicode="ы"/><glyph d="M121 0q4 39 4 233v529q0 186 -2 239h379q-4 -53 -4 -239v-25h92q95 0 174 -20.5t141 -63t96.5 -114.5t34.5 -168q0 -166 -123 -268.5t-333 -102.5h-459zM659 367q0 48 -35 80t-94 32h-32v-227h34q61 0 94 31t33 84z" glyph-name="uni044C" horiz-adv-x="1077" unicode="ь"/><glyph d="M942 504q0 -157 -74.5 -277t-198 -181.5t-274.5 -61.5q-170 0 -282 32v301q92 -59 256 -59q171 0 209 127h-105q-178 0 -225 -6v242q39 -5 225 -5h107q-20 57 -76.5 91t-134.5 34q-149 0 -248 -63v309q163 31 274 31q232 0 389.5 -146t157.5 -368z" glyph-name="uni044D" horiz-adv-x="1009" unicode="э"/><glyph d="M1690 508q0 -144 -73 -265t-193.5 -189t-258.5 -68q-181 0 -314 99t-177 275h-156v-124q0 -122 6 -236h-401q4 164 4 236v532q0 141 -6 233h403q-6 -114 -6 -233v-147h150q38 183 175.5 291t321.5 108q143 0 264 -69.5t191 -187.5t70 -255zM1319 504q0 84 -43.5 142.5 t-110.5 58.5t-110 -58t-43 -143q0 -88 43 -146.5t110 -58.5t110.5 58.5t43.5 146.5z" glyph-name="uni044E" horiz-adv-x="1757" unicode="ю"/><glyph d="M100 670q0 154 125 242.5t375 88.5h461q-4 -31 -4 -245v-531q0 -196 4 -225h-387q6 59 6 215v109h-45l-156 -324h-448q53 62 131 174q99 142 170 193q-101 34 -166.5 110.5t-65.5 192.5zM477 657q0 -39 30 -65.5t83 -26.5h90v183h-90q-51 0 -82 -26t-31 -65z" glyph-name="uni044F" horiz-adv-x="1181" unicode="я"/><glyph d="M143 1260q0 83 58 140.5t141 57.5t141 -57.5t58 -140.5t-58 -141t-141 -58t-141 58t-58 141zM621 1260q0 83 57.5 140.5t140.5 57.5t141 -57.5t58 -140.5t-58 -141t-141 -58t-140.5 58t-57.5 141zM68 500q0 107 32.5 201t93.5 165t155 112.5t210 41.5q96 0 176 -28 t134 -75t92 -109t55.5 -128t17.5 -133q0 -66 -18 -127h-582q15 -141 213 -141q157 0 324 61v-274q-161 -82 -348 -82q-264 0 -409.5 143t-145.5 373zM553 743q-57 0 -92.5 -41t-38.5 -96h248q0 56 -30.5 96.5t-86.5 40.5z" glyph-name="uni0451" unicode="ё"/><glyph d="M102 0q7 66 7 250v811h-93v219h93q0 68 -19 168h410q-11 -101 -11 -168h316v-219h-316v-148q101 107 265 107q116 0 197 -71t118 -185t37 -260t-37.5 -290.5t-96 -254.5t-121 -191t-120.5 -126l-244 213q119 117 178.5 283.5t59.5 359.5q0 115 -28.5 163t-84.5 48 q-69 0 -123 -95v-364q0 -168 9 -250h-396z" glyph-name="uni0452" horiz-adv-x="1241" unicode="ђ"/><glyph d="M872 1452l-276 -356h-346l252 356h370zM121 0q10 102 10 377v268q0 70 -5 189t-5 167h493q240 0 283 9v-344q-73 8 -283 8h-94v-297q0 -268 8 -377h-407z" glyph-name="uni0453" horiz-adv-x="950" unicode="ѓ"/><glyph d="M68 504q0 147 72 265t197 183.5t277 65.5q112 0 275 -31v-309q-99 63 -248 63q-78 0 -134.5 -34t-76.5 -91h107q186 0 225 5v-242q-47 6 -225 6h-105q38 -127 209 -127q164 0 256 59v-301q-112 -32 -283 -32q-151 0 -274 61.5t-197.5 181.5t-74.5 277z" glyph-name="uni0454" horiz-adv-x="1009" unicode="є"/><glyph d="M78 43l67 287q128 -82 248 -82q86 0 86 35q0 9 -5.5 17t-21 17.5t-29.5 17t-45 23t-54 27.5q-49 26 -83 50t-67.5 61t-50.5 87.5t-17 114.5q0 159 108 241.5t306 82.5q134 0 295 -53v-285q-146 80 -254 80q-74 0 -74 -35q0 -12 8.5 -22.5t26.5 -21.5t36 -20l47 -23.5 t50 -25.5q43 -23 75.5 -47.5t64.5 -61t49.5 -87t17.5 -111.5q0 -154 -113 -244t-335 -90q-90 0 -184.5 16t-151.5 52z" glyph-name="uni0455" horiz-adv-x="942" unicode="ѕ"/><glyph d="M121 1270q0 83 57.5 140.5t140.5 57.5t141 -57.5t58 -140.5t-58 -141t-141 -58t-140.5 58t-57.5 141zM125 0q8 76 8 205v581q0 135 -12 215h401q-8 -79 -8 -204v-592q0 -137 8 -205h-397z" glyph-name="uni0456" horiz-adv-x="632" unicode="і"/><glyph d="M-96 1260q0 83 57.5 140.5t140.5 57.5t141 -57.5t58 -140.5t-58 -141t-141 -58t-140.5 58t-57.5 141zM381 1260q0 83 58 140.5t141 57.5t140.5 -57.5t57.5 -140.5t-57.5 -141t-140.5 -58t-141 58t-58 141zM125 0q8 76 8 205v581q0 135 -12 215h401q-8 -79 -8 -204v-592 q0 -137 8 -205h-397z" glyph-name="uni0457" horiz-adv-x="643" unicode="ї"/><glyph d="M319 1468q83 0 141 -57.5t58 -140.5t-58 -141t-141 -58t-140.5 58t-57.5 141t57.5 140.5t140.5 57.5zM-129 -418v316h113q76 0 114.5 65.5t38.5 188.5v628q0 134 -10 221h405q-6 -77 -6 -210v-660q0 -82 -14 -159.5t-46 -148.5t-78.5 -124.5t-116 -85t-154.5 -31.5h-246z" glyph-name="uni0458" horiz-adv-x="647" unicode="ј"/><glyph d="M1298 737q95 0 174 -20.5t141.5 -63t97 -114.5t34.5 -168q0 -166 -123.5 -268.5t-333.5 -102.5h-471q8 119 8 369v336h-116q-51 -356 -182 -540.5t-326 -184.5q-90 0 -135 20v313q31 -14 67 -14q49 0 95.5 69.5t81.5 179t60.5 226t39.5 227.5h800q0 -64 -2 -138t-2 -107 v-19h92zM1241 252q61 0 94 31t33 84q0 48 -35 80t-94 32h-33v-227h35z" glyph-name="uni0459" horiz-adv-x="1785" unicode="љ"/><glyph d="M1186 737q95 0 174 -20.5t141 -63t96.5 -114.5t34.5 -168q0 -166 -123 -268.5t-333 -102.5h-459q4 39 4 233v144h-223v-172q0 -103 4 -205h-381q8 49 8 207v538q0 157 -6 256h379q-4 -114 -4 -256v-100h223v117q0 186 -2 239h379q-4 -53 -4 -239v-25h92zM1128 252 q61 0 94 31t33 84q0 48 -35 80t-94 32h-32v-227h34z" glyph-name="uni045A" horiz-adv-x="1673" unicode="њ"/><glyph d="M719 0q6 57 6 250v340q0 51 -31 85t-78 34q-73 0 -127 -95v-364q0 -168 9 -250h-396q7 66 7 250v811h-93v137h93q0 145 -15 250h406q-11 -101 -11 -207v-43h316v-137h-316v-148q101 107 263 107q177 0 265.5 -122t88.5 -343v-305q0 -177 8 -250h-395z" glyph-name="uni045B" horiz-adv-x="1222" unicode="ћ"/><glyph d="M1038 1452l-276 -356h-346l252 356h370zM121 0q8 59 8 270v467q0 63 -1 106t-2.5 84.5t-2.5 73.5h399q-4 -45 -4 -264v-94h8q14 0 26 12.5t46 57.5l211 288h393q-95 -113 -137 -170l-123 -172q-32 -44 -68.5 -67.5t-87.5 -34.5q101 -29 154 -108l186 -275 q51 -75 140 -174h-449l-235 350q-4 6 -9.5 14t-8 12t-6.5 9.5t-6 8t-5 6t-5.5 5l-5 3t-5 2t-5.5 0.5h-8v-140q0 -225 4 -270h-401z" glyph-name="uni045C" horiz-adv-x="1269" unicode="ќ"/><glyph d="M279 1434h253q0 -43 25 -67t61 -24q37 0 63 24t26 67h254q-4 -141 -104.5 -238.5t-238.5 -97.5q-140 0 -239.5 100t-99.5 236zM0 1001h451q12 -51 47 -137l153 -354l115 346q22 69 39 145h422q-31 -52 -101 -221l-329 -784q-95 -228 -195.5 -321t-232.5 -93h-246v314 q149 0 197 13t83 75l48 94l-342 715q-32 69 -109 208z" glyph-name="uni045E" horiz-adv-x="1226" unicode="ў"/><glyph d="M121 1001h405q-8 -148 -8 -262v-413h242v413q0 87 -6 262h405q-10 -75 -10 -253v-748h-315v-152q0 -114 8 -262h-406q8 112 8 262v152h-315v739q0 150 -8 262z" glyph-name="uni045F" horiz-adv-x="1280" unicode="џ"/><glyph d="M119 0q6 57 6 250v981h-109l76 217h424q-10 -92 -10 -207v-328q101 107 262 107q177 0 265.5 -122t88.5 -343v-305q0 -177 8 -250h-395q6 57 6 250v340q0 51 -30.5 85t-77.5 34q-73 0 -127 -95v-364q0 -177 8 -250h-395z" glyph-name="uni04BB" horiz-adv-x="1239" unicode="һ"/><glyph d="M147 0q7 96 7 401v574q0 308 -7 401h404q-6 -80 -6 -401v-574q0 -319 6 -401h-404z" glyph-name="uni04C0" horiz-adv-x="698" unicode="Ӏ"/><glyph d="M125 0q8 76 8 205v581q0 135 -12 215h401q-8 -79 -8 -204v-592q0 -137 8 -205h-397z" glyph-name="uni04CF" horiz-adv-x="643" unicode="ӏ"/><glyph d="M418 1526v241h667v-241h-667zM1350 0h-387q6 74 6 289v358l-725 -672h-97q9 144 9 326v715q0 140 -9 360h388q-7 -132 -7 -360v-273l721 660h101q-7 -169 -7 -399v-713q0 -205 7 -291z" glyph-name="uni04E2" horiz-adv-x="1497" unicode="Ӣ"/><glyph d="M303 1137v241h668v-241h-668zM123 -18q4 168 4 223v553q0 141 -6 243h371q-7 -110 -7 -262v-170l498 451h121q-4 -80 -4 -295v-518q0 -168 4 -207h-365q2 51 2 207v168l-465 -393h-153z" glyph-name="uni04E3" horiz-adv-x="1224" unicode="ӣ"/><glyph d="M285 1137v241h667v-241h-667zM0 1001h451q12 -51 47 -137l153 -354l115 346q22 69 39 145h422q-31 -52 -101 -221l-329 -784q-95 -228 -195.5 -321t-232.5 -93h-246v314q149 0 197 13t83 75l48 94l-342 715q-32 69 -109 208z" glyph-name="uni04EF" horiz-adv-x="1226" unicode="ӯ"/><glyph d="M645 1841h371l252 -356h-346zM0 1376h385l391 -755l113 237l-277 518h320l108 -221l109 221h340l-291 -532l107 -223l391 755h385l-144 -303l-516 -1091h-65l-312 581l-317 -581h-68l-526 1091q-38 77 -76 170.5t-57 132.5z" glyph-name="Wgrave" horiz-adv-x="2080" unicode="Ẁ"/><glyph d="M414 1452h370l252 -356h-346zM0 1001h426q5 -30 47 -145l100 -278l160 423h168l160 -403l72 205q28 71 65 198h381q-85 -157 -121 -262l-266 -755h-162l-233 483l-211 -483h-170l-303 776q-21 54 -40.5 96t-41 82.5t-31.5 62.5z" glyph-name="wgrave" horiz-adv-x="1579" unicode="ẁ"/><glyph d="M1456 1841l-276 -356h-346l251 356h371zM0 1376h385l391 -755l113 237l-277 518h320l108 -221l109 221h340l-291 -532l107 -223l391 755h385l-144 -303l-516 -1091h-65l-312 581l-317 -581h-68l-526 1091q-38 77 -76 170.5t-57 132.5z" glyph-name="Wacute" horiz-adv-x="2080" unicode="Ẃ"/><glyph d="M1225 1452l-277 -356h-346l252 356h371zM0 1001h426q5 -30 47 -145l100 -278l160 423h168l160 -403l72 205q28 71 65 198h381q-85 -157 -121 -262l-266 -755h-162l-233 483l-211 -483h-170l-303 776q-21 54 -40.5 96t-41 82.5t-31.5 62.5z" glyph-name="wacute" horiz-adv-x="1579" unicode="ẃ"/><glyph d="M616 1649q0 83 58 140.5t141 57.5t141 -57.5t58 -140.5t-58 -141t-141 -58t-141 58t-58 141zM1094 1649q0 83 57.5 140.5t140.5 57.5t141 -57.5t58 -140.5t-58 -141t-141 -58t-140.5 58t-57.5 141zM0 1376h385l391 -755l113 237l-277 518h320l108 -221l109 221h340 l-291 -532l107 -223l391 755h385l-144 -303l-516 -1091h-65l-312 581l-317 -581h-68l-526 1091q-38 77 -76 170.5t-57 132.5z" glyph-name="Wdieresis" horiz-adv-x="2080" unicode="Ẅ"/><glyph d="M385 1260q0 83 58 140.5t141 57.5t140.5 -57.5t57.5 -140.5t-57.5 -141t-140.5 -58t-141 58t-58 141zM862 1260q0 83 58 140.5t141 57.5t141 -57.5t58 -140.5t-58 -141t-141 -58t-141 58t-58 141zM0 1001h426q5 -30 47 -145l100 -278l160 423h168l160 -403l72 205 q28 71 65 198h381q-85 -157 -121 -262l-266 -755h-162l-233 483l-211 -483h-170l-303 776q-21 54 -40.5 96t-41 82.5t-31.5 62.5z" glyph-name="wdieresis" horiz-adv-x="1579" unicode="ẅ"/><glyph d="M311 1841h371l252 -356h-346zM506 0q4 125 4 299v297l-332 522q-129 199 -178 258h469q20 -53 78 -151l174 -293l172 287q50 81 86 157h432q-36 -46 -201 -299l-309 -477v-301q0 -217 6 -299h-401z" glyph-name="Ygrave" horiz-adv-x="1411" unicode="Ỳ"/><glyph d="M225 1452h371l252 -356h-346zM0 1001h451q12 -51 47 -137l153 -354l115 346q22 69 39 145h422q-31 -52 -101 -221l-329 -784q-95 -228 -195.5 -321t-232.5 -93h-246v314q149 0 197 13t83 75l48 94l-342 715q-32 69 -109 208z" glyph-name="ygrave" horiz-adv-x="1226" unicode="ỳ"/><glyph d="M57 340v352h985v-352h-985z" glyph-name="endash" unicode="–"/><glyph d="M-10 340v352h2068v-352h-2068z" glyph-name="emdash" horiz-adv-x="2048" unicode="—"/><glyph d="M-10 340v311h2068v-311h-2068z" glyph-name="uni2015" horiz-adv-x="2048" unicode="―"/><glyph d="M104 891q0 161 61.5 335t143.5 308l242 -96q-98 -248 -98 -455q0 -95 20 -176l-352 -55q-17 76 -17 139z" glyph-name="quoteleft" horiz-adv-x="622" unicode="‘"/><glyph d="M545 1395q0 -161 -61.5 -335t-143.5 -308l-242 96q99 251 99 455q0 91 -21 176l352 55q17 -76 17 -139z" glyph-name="quoteright" horiz-adv-x="645" unicode="’"/><glyph d="M545 215q0 -161 -61.5 -335t-143.5 -308l-242 96q99 251 99 455q0 91 -21 176l352 55q17 -77 17 -139z" glyph-name="quotesinglbase" horiz-adv-x="645" unicode="‚"/><glyph d="M104 891q0 161 61.5 335t143.5 308l242 -96q-98 -248 -98 -455q0 -95 20 -176l-352 -55q-17 76 -17 139zM657 891q0 161 61.5 335t143.5 308l242 -96q-98 -248 -98 -455q0 -95 20 -176l-352 -55q-17 76 -17 139z" glyph-name="quotedblleft" horiz-adv-x="1175" unicode="“"/><glyph d="M545 1395q0 -161 -61.5 -335t-143.5 -308l-242 96q99 251 99 455q0 91 -21 176l352 55q17 -76 17 -139zM1098 1395q0 -161 -61.5 -335t-143.5 -308l-242 96q99 251 99 455q0 91 -21 176l352 55q17 -76 17 -139z" glyph-name="quotedblright" horiz-adv-x="1198" unicode="”"/><glyph d="M545 227q0 -161 -61.5 -335t-143.5 -308l-242 97q99 251 99 454q0 91 -21 176l352 56q17 -77 17 -140zM1098 227q0 -161 -61.5 -335t-143.5 -308l-242 97q99 251 99 454q0 91 -21 176l352 56q17 -76 17 -140z" glyph-name="quotedblbase" horiz-adv-x="1198" unicode="„"/><glyph d="M20 813v250q51 -2 228 -2q0 42 -4 127.5t-4 132.5h286q-1 -15 -3 -92t-5 -168q38 0 115 1t115 1v-250q-7 0 -39 0.5t-85 1t-110 0.5q0 -9 2 -100.5t4 -220.5t2 -230q0 -62 4 -164h-286q4 102 4 164q0 136 2 274t4 208l2 69q-58 0 -112 -0.5t-85.5 -1t-34.5 -0.5z" glyph-name="dagger" horiz-adv-x="768" unicode="†"/><glyph d="M61 842v260q70 -4 232 -4q-2 78 -10 223h288q-8 -192 -10 -223q197 0 234 2v-256q-47 2 -234 2q6 -80 6 -135l-6 -133q39 0 117 1t117 1v-254q-53 2 -234 2q2 -13 10 -226h-288l10 226q-39 0 -116 -1t-116 -1v254q57 -2 232 -2q-6 78 -6 141l6 127q-39 -1 -116 -2 t-116 -2z" glyph-name="daggerdbl" horiz-adv-x="856" unicode="‡"/><glyph d="M164 502q0 135 95 230t230 95t230.5 -95t95.5 -230t-95.5 -230.5t-230.5 -95.5t-230 95.5t-95 230.5z" glyph-name="bullet" horiz-adv-x="978" unicode="•"/><glyph d="M90 223q0 103 73.5 176.5t174.5 73.5q103 0 176.5 -73.5t73.5 -176.5q0 -101 -73.5 -174.5t-176.5 -73.5q-101 0 -174.5 73.5t-73.5 174.5zM705 223q0 103 73 176.5t174 73.5q103 0 176.5 -73.5t73.5 -176.5q0 -101 -73.5 -174.5t-176.5 -73.5q-101 0 -174 73.5 t-73 174.5zM1319 223q0 103 73.5 176.5t174.5 73.5q103 0 176.5 -73.5t73.5 -176.5q0 -101 -73.5 -174.5t-176.5 -73.5q-101 0 -174.5 73.5t-73.5 174.5z" glyph-name="ellipsis" horiz-adv-x="1906" unicode="…"/><glyph d="M66 1028q0 152 108 260.5t260 108.5t260.5 -108.5t108.5 -260.5t-108.5 -260.5t-260.5 -108.5t-260 108.5t-108 260.5zM211 0l1046 1376h349l-1049 -1376h-346zM334 1026q0 -40 29.5 -69t70.5 -29q40 0 69 29t29 69q0 41 -29 70.5t-69 29.5q-41 0 -70.5 -29.5 t-29.5 -70.5zM1010 348q0 152 108 260.5t260 108.5t260.5 -108.5t108.5 -260.5t-108.5 -260t-260.5 -108t-260 108t-108 260zM1806 348q0 152 108.5 260.5t260.5 108.5t260.5 -108.5t108.5 -260.5t-108.5 -260t-260.5 -108t-260.5 108t-108.5 260zM1378 246q41 0 71 29.5 t30 70.5q0 43 -30 73t-71 30q-43 0 -72.5 -30t-29.5 -73q0 -41 29.5 -70.5t72.5 -29.5zM2175 244q43 0 72.5 29.5t29.5 72.5t-29.5 73t-72.5 30t-72.5 -30t-29.5 -73t29.5 -72.5t72.5 -29.5z" glyph-name="perthousand" horiz-adv-x="2609" unicode="‰"/><glyph d="M694 23l-612 466v60l612 471v-350l-207 -150l207 -145v-352z" glyph-name="guilsinglleft" horiz-adv-x="796" unicode="‹"/><glyph d="M102 1020l613 -467v-59l-613 -471v350l207 149l-207 146v352z" glyph-name="guilsinglright" horiz-adv-x="796" unicode="›"/><glyph d="M967 1376l-1049 -1376h-305l1046 1376h308z" glyph-name="fraction" horiz-adv-x="561" unicode="⁄"/><glyph d="M838 289q89 0 136.5 13.5t108.5 47.5v-332q-124 -32 -278 -32q-266 0 -411.5 112.5t-188.5 341.5h-154v201h135v37v37h-135v205h158q45 226 191 341t405 115q45 0 128.5 -10t141.5 -27v-340q-64 41 -109.5 56.5t-129.5 15.5q-106 0 -165.5 -34.5t-86.5 -116.5h334v-205 h-361v-37v-37h361v-201h-332q29 -85 89.5 -118t162.5 -33z" glyph-name="Euro" horiz-adv-x="1148" unicode="€"/><glyph d="M147 0q7 86 7 291v713q0 230 -7 399h101l721 -660v273q0 247 -6 360h387q-9 -221 -9 -360v-715q0 -182 9 -326h-97l-725 672v-358q0 -203 7 -289h-388zM1503 887q0 160 101.5 259t253.5 99q153 0 252.5 -98.5t99.5 -259.5t-99 -258t-253 -97q-155 0 -255 97.5t-100 257.5 zM1714 887q0 -87 39 -132.5t105 -45.5t103.5 45.5t37.5 132.5t-37.5 132.5t-103.5 45.5t-105 -45.5t-39 -132.5zM2179 385v-244h-635v244h635z" glyph-name="uni2116" horiz-adv-x="2316" unicode="№"/><glyph d="M84 688q0 144 56 275.5t150.5 226.5t225.5 151t275 56t275 -56t226 -151t151 -226.5t56 -275.5t-56 -275t-151 -225t-226 -150t-275 -56t-275 56t-225.5 150t-150.5 225t-56 275zM268 690q0 -142 70.5 -263t191.5 -191t263 -70q106 0 203.5 41.5t167.5 111.5t111.5 167.5 t41.5 203.5t-41.5 203.5t-111.5 167.5t-167.5 111.5t-203.5 41.5q-142 0 -263 -70t-191.5 -191t-70.5 -263zM504 289q2 45 2 141v395q0 160 -2 203h348q154 0 236.5 -72.5t82.5 -201.5q0 -125 -83 -193.5t-242 -68.5h-74v-74q0 -94 6 -129h-274zM897 760q0 28 -25.5 48.5 t-64.5 20.5h-35v-139h37q38 0 63 20t25 50z" glyph-name="uni2117" horiz-adv-x="1583" unicode="℗"/><glyph d="M645 741q4 54 8 156l17 483h145l186 -286l179 286h149l19 -483q4 -100 8 -156h-197q0 78 -2 123l-8 148l-127 -158h-43l-111 152l-8 -150q0 -23 -1 -59.5t-1 -55.5h-213zM199 741q6 88 6 158v289h-146v188h512v-188h-151v-287q0 -117 2 -160h-223z" glyph-name="trademark" horiz-adv-x="1456" unicode="™"/><glyph d="M82 -6v338q84 -6 225 -6h55q-223 180 -223 454q0 146 58.5 264.5t159.5 194t234 116t286 40.5q159 0 296 -45t234.5 -125t153 -195.5t55.5 -251.5q0 -282 -232 -452h48q149 0 237 6v-338q-88 6 -366 6h-306v348q97 79 151 169t54 210q0 151 -88 238.5t-240 87.5 q-151 0 -238 -86.5t-87 -239.5q0 -221 203 -379v-348h-324q-262 0 -346 -6z" glyph-name="uni2126" horiz-adv-x="1751" unicode="Ω"/><glyph d="M356 262q61 -110 197.5 -171.5t280.5 -61.5q287 0 475 215h139q-107 -127 -266 -193.5t-355 -66.5q-113 0 -222.5 29.5t-206 87.5t-170 138t-116 188t-42.5 230q0 146 63 274.5t168 216t243 137.5t287 50t284 -49t238 -137.5t165.5 -220.5t66.5 -289h-1229v-377z M1305 1053q-40 102 -180 166.5t-294 64.5q-89 0 -180.5 -24.5t-174.5 -79.5t-120 -131v-363h949v367z" glyph-name="estimated" horiz-adv-x="1658" unicode="℮"/><glyph d="M528 713q0 -107 2 -140h-276q2 33 2 138v379l-160 -64l-30 203q147 54 342 147h122q-2 -18 -2 -159v-504zM1581 1376l-1049 -1376h-305l1047 1376h307zM1272 535v231q101 33 205 33q140 0 221.5 -57t81.5 -156q0 -129 -140 -183q64 -18 113 -65.5t49 -122.5 q0 -106 -92.5 -169.5t-222.5 -63.5t-225 41v223q76 -45 182 -45q78 0 78 53q0 20 -20 34.5t-56 14.5q-17 0 -45 -4v195l43 -2q55 0 55 40q0 43 -65 43q-80 0 -162 -40z" glyph-name="uni2153" horiz-adv-x="1921" unicode="⅓"/><glyph d="M111 594v137q75 62 120 107t80 98q49 70 49 127q0 42 -27.5 68t-70.5 26q-76 0 -141 -41v244q41 18 104 28.5t117 10.5q144 0 223.5 -77.5t79.5 -209.5q0 -83 -61 -172q-31 -40 -99 -113h80q47 0 115 7v-240h-569zM1765 1376l-1048 -1376h-305l1046 1376h307zM1372 510 v231q101 33 205 33q140 0 221.5 -57t81.5 -156q0 -128 -139 -182q64 -18 113 -66t49 -123q0 -106 -92.5 -169.5t-223.5 -63.5q-130 0 -225 41v223q76 -45 182 -45q78 0 78 53q0 20 -20 35t-56 15q-10 0 -45 -5v195l43 -2q55 0 55 41q0 43 -65 43q-78 0 -162 -41z" glyph-name="uni2154" horiz-adv-x="2021" unicode="⅔"/><glyph d="M74 479q0 138 72.5 247.5t190.5 167.5t257 58q102 0 191.5 -30.5t144.5 -81.5q4 28 4 32q0 90 -52 153t-130 90.5t-172 27.5q-86 0 -179 -22.5t-151 -51.5l-90 305q84 31 137 47.5t142 32.5t177 16q336 0 525.5 -190.5t189.5 -509.5q0 -169 -56 -316t-152.5 -249 t-228 -160.5t-278.5 -58.5q-123 0 -226 40t-171.5 107.5t-106.5 157t-38 188.5zM422 481q0 -73 57.5 -127.5t143.5 -54.5q93 0 165 66.5t86 160.5q-40 52 -108 81.5t-139 29.5q-87 0 -146 -42t-59 -114z" glyph-name="partialdiff" horiz-adv-x="1445" unicode="∂"/><glyph d="M6 0q80 139 164 317l508 1080h102l512 -1080q92 -192 164 -317h-1450zM713 786l-195 -475h389z" glyph-name="uni2206" horiz-adv-x="1462" unicode="∆"/><glyph d="M123 -166q8 133 8 359v774h-90v409h1528l-78 -409h-90v-783q0 -293 8 -350h-408q7 126 7 354v779h-486v-774q0 -239 6 -359h-405z" glyph-name="product" horiz-adv-x="1589" unicode="∏"/><glyph d="M475 526l-459 850h836q280 0 360 6v-305q-121 4 -360 4h-236l277 -532l-307 -582h260q239 0 360 4v-307q-80 6 -360 6h-830z" glyph-name="summation" horiz-adv-x="1323" unicode="∑"/><glyph d="M102 340v311h945v-311h-945z" glyph-name="minus" horiz-adv-x="1148" unicode="−"/><glyph d="M160 348l-103 297l486 199l295 -709l401 1501h336l-524 -1898h-433l-311 668z" glyph-name="radical" horiz-adv-x="1579" unicode="√"/><glyph d="M94 647q0 109 56.5 196t147 133t194.5 46q124 0 214.5 -48t172.5 -151q83 105 166.5 152t191.5 47q162 0 267.5 -109.5t105.5 -267.5q0 -170 -109.5 -283.5t-273.5 -113.5q-240 0 -375 205q-82 -112 -172 -158.5t-209 -46.5q-168 0 -272.5 117t-104.5 282zM367 633 q0 -54 35 -90.5t85 -36.5q93 0 185 123q-30 39 -53 64t-59.5 48t-70.5 23q-53 0 -87.5 -37t-34.5 -94zM1303 641q0 54 -32.5 88.5t-78.5 34.5q-20 0 -40.5 -8t-42 -28t-32.5 -30.5t-34 -38.5t-25 -30q89 -123 172 -123q54 0 83.5 40.5t29.5 94.5z" glyph-name="infinity" horiz-adv-x="1703" unicode="∞"/><glyph d="M72 -336v279q45 -29 131 -29q31 0 55 12t38 36t22.5 47.5t12 59t4.5 56.5t1 53q0 174 -18.5 505t-18.5 493q0 153 49 269t152 184.5t250 68.5q84 0 133 -19v-262q-35 21 -99 21q-153 0 -153 -275q0 -159 18.5 -459t18.5 -446q0 -75 -4 -136.5t-16 -127t-31 -116 t-51.5 -97t-76 -77t-105.5 -48.5t-138 -18q-121 0 -174 26z" glyph-name="integral" horiz-adv-x="968" unicode="∫"/><glyph d="M43 631q5 161 102 270t250 109q57 0 111.5 -18t89 -39.5t75 -39.5t72.5 -18q86 0 107 106h256q-2 -100 -46 -188t-125 -143.5t-179 -55.5q-60 0 -108.5 12.5t-80 31t-58 36.5t-56 30.5t-60.5 12.5q-41 0 -70.5 -30.5t-35.5 -75.5h-244zM43 127q5 162 101.5 271.5 t250.5 109.5q57 0 109.5 -18.5t86 -40t75 -40t77.5 -18.5q40 0 69.5 30.5t37.5 76.5h256q-2 -100 -46.5 -187.5t-125.5 -142.5t-178 -55q-64 0 -123.5 18.5t-96 41.5t-76 41.5t-69.5 18.5q-38 0 -68 -31t-36 -75h-244z" glyph-name="approxequal" horiz-adv-x="1148" unicode="≈"/><glyph d="M1047 647h-299l-111 -217h410v-278h-555l-78 -152h-226l80 152h-166v278h310l112 217h-422v279h568l90 172h221l-88 -172h154v-279z" glyph-name="notequal" horiz-adv-x="1148" unicode="≠"/><glyph d="M1047 1448v-344l-486 -221l486 -215v-346l-957 516v92zM1047 0h-945v287h945v-287z" glyph-name="lessequal" horiz-adv-x="1148" unicode="≤"/><glyph d="M102 1448l957 -518v-92l-957 -516v346l486 215l-486 221v344zM102 0v287h945v-287h-945z" glyph-name="greaterequal" horiz-adv-x="1148" unicode="≥"/><glyph d="M41 721l537 729h61l537 -729l-537 -721h-61zM446 721l160 -234l164 234l-164 233z" glyph-name="lozenge" horiz-adv-x="1216" unicode="◊"/><glyph d="M-129 -418v316h113q76 0 114.5 65.5t38.5 188.5v628q0 134 -10 221h405q-6 -77 -6 -210v-660q0 -82 -14 -159.5t-46 -148.5t-78.5 -124.5t-116 -85t-154.5 -31.5h-246z" glyph-name="uniF6BE" horiz-adv-x="653" unicode=""/><glyph d="M6 0l22 38t19 33.5t19 35t17 32t18 36t17 34.5t20 41t20 42t23.5 50.5t25.5 54.5l354 748l-100 229h340l481 -977q129 -262 209 -397h-444l-80 197h-500l-84 -197h-377zM711 799l-129 -322h266z" glyph-name="A.alt" horiz-adv-x="1497"/><glyph d="M84 688q0 160 59.5 295.5t161 227t237 143t287.5 51.5q196 0 353 -41v-369q-103 43 -174 58.5t-162 15.5q-161 0 -265 -111.5t-104 -269.5q0 -155 106.5 -268t256.5 -113q16 0 24 4v185h-131v280h500v-737q-75 -29 -184 -47.5t-211 -18.5q-213 0 -385 91t-270.5 254.5 t-98.5 369.5z" glyph-name="G.alt" horiz-adv-x="1380"/><glyph d="M543 -51q0 -108 -43.5 -203t-117.5 -161.5t-175 -105t-213 -38.5q-99 0 -234 27v350q85 -47 187 -47q98 0 150.5 58.5t52.5 154.5v1032q0 267 -7 360h406q-6 -80 -6 -360v-1067z" glyph-name="J.alt" horiz-adv-x="696"/><glyph d="M1585 682q0 -160 -62 -295.5t-175 -232.5q162 -221 237 -318h-420q-75 121 -104 166q-113 -29 -223 -29q-159 0 -299.5 55.5t-240 151t-157 229t-57.5 285.5q0 201 97.5 363.5t268 254t379.5 91.5q159 0 299.5 -55.5t240.5 -151t158 -229.5t58 -285zM838 295h22 q-104 143 -213 287h387q39 -56 92 -129q64 103 64 233q0 171 -102 284t-257 113t-253.5 -112t-98.5 -281q0 -171 101.5 -283t257.5 -112z" glyph-name="Q.alt" horiz-adv-x="1669"/><glyph d="M0 1376h385l324 -774l299 774h98l328 -774l292 774h355q-58 -114 -137 -303l-447 -1073h-197l-272 651l-252 -651h-196l-447 1073q-75 182 -133 303z" glyph-name="W.alt" horiz-adv-x="2080"/><glyph d="M0 1376h385l324 -774h8l164 420q-49 139 -152 354h385l328 -774h8l293 774h354q-58 -114 -137 -303l-447 -1073h-204l-262 629l-263 -629h-204l-447 1073q-75 182 -133 303z" glyph-name="W.alt2" horiz-adv-x="2097"/><glyph d="M139 1270q0 83 58 140.5t141 57.5t141 -57.5t58 -140.5t-58 -141t-141 -58t-141 58t-58 141zM125 0q8 76 8 205v581q0 135 -12 215h401q-8 -79 -8 -204v-592q0 -137 8 -205h-397z" glyph-name="i.loclTRK" horiz-adv-x="643"/><glyph d="M-98 -397l57 258q66 -29 152 -29q55 0 93 34t38 91v754h-183v290h183v35q0 217 111 324.5t304 107.5q159 0 304 -38l-62 -281q-66 29 -151 29q-54 0 -89.5 -34t-35.5 -91v-52h249l-61 -290h-188v-715q0 -217 -112 -324.5t-306 -107.5q-154 0 -303 39z" glyph-name="f.alt" horiz-adv-x="892"/><glyph d="M125 1270q0 83 58 140.5t141 57.5t140.5 -57.5t57.5 -140.5t-57.5 -141t-140.5 -58t-141 58t-58 141zM125 0q8 76 8 205v575h-110l77 221h418q0 -43 -2 -149.5t-2 -149.5v-497q0 -137 8 -205h-397z" glyph-name="i.alt" horiz-adv-x="632"/><glyph d="M121 1270q0 83 57.5 140.5t140.5 57.5t141 -57.5t58 -140.5t-58 -141t-141 -58t-140.5 58t-57.5 141zM-129 -418v316h113q76 0 114.5 65.5t38.5 188.5v628h-110l77 221h428q-6 -77 -6 -210v-660q0 -82 -14 -159.5t-46 -148.5t-78.5 -124.5t-116 -85t-154.5 -31.5h-246z" glyph-name="j.alt" horiz-adv-x="647"/><glyph d="M188 0q0 44 2.5 133t2.5 133v445h-134v290h134v60q0 25 -2.5 86t-2.5 86l390 43q-7 -86 -7 -191v-84h260l-49 -290h-211v-447q0 -44 2 -132t2 -132h-387z" glyph-name="t.alt" horiz-adv-x="907"/><glyph d="M23 780l75 221h422q-8 -91 -8 -210v-334q0 -86 36 -127t87 -41q84 0 115 102v400q0 146 -7 210h394q-7 -64 -7 -210v-564q0 -121 19 -227h-332l-29 143q-43 -75 -107.5 -118t-172.5 -43q-169 0 -273 112.5t-104 313.5v372h-108z" glyph-name="u.alt" horiz-adv-x="1269"/><glyph d="M0 1001h395q8 -29 41 -114l162 -410l90 197l-145 327h186l53 -118l54 118h188l-147 -325l92 -203l161 414q33 85 41 114h396q-52 -88 -115 -221l-371 -805h-82l-217 492l-223 -492h-80l-364 805q-55 120 -115 221z" glyph-name="w.alt" horiz-adv-x="1566"/><glyph d="M244 -416q58 102 96 193l119 282l-350 734q-32 69 -109 208h451q12 -51 47 -137l153 -354l115 346q22 69 39 145h422q-31 -52 -101 -221l-505 -1196h-377z" glyph-name="y.alt" horiz-adv-x="1226"/><glyph d="M84 686q0 104 19.5 202t62 187.5t103 156.5t149.5 106.5t196 39.5q110 0 201 -42t151 -111.5t101.5 -161.5t59.5 -188.5t18 -196.5q0 -103 -19.5 -200.5t-61.5 -187t-103 -157t-150.5 -107.5t-196.5 -40q-110 0 -201 42t-151 111.5t-101 161.5t-59 188.5t-18 196.5z M471 682q0 -192 36.5 -292.5t106.5 -100.5q142 0 142 393q0 395 -142 395q-70 0 -106.5 -101t-36.5 -294z" glyph-name="zero.non" horiz-adv-x="1230"/><glyph d="M475 0q4 88 4 213v743q-70 -27 -239 -96l-47 303q248 88 516 215h159q-4 -33 -4 -260v-905q0 -172 4 -213h-393z" glyph-name="one.non" horiz-adv-x="1134"/><glyph d="M152 0v258q179 114 317.5 286.5t138.5 313.5q0 79 -52 129.5t-132 50.5q-111 0 -167 -23.5t-97 -82.5v387q137 70 381 70q128 0 225 -34t156.5 -97t89.5 -148t30 -190q0 -331 -350 -588h178q102 0 207 10v-342h-925z" glyph-name="two.non" horiz-adv-x="1155"/><glyph d="M164 -164v328q49 -30 122.5 -51t141.5 -21q86 0 141.5 36t55.5 99q0 51 -60 87t-129 36q-53 0 -100 -8v301q56 -6 96 -6q59 0 111.5 36.5t52.5 84.5q0 49 -50.5 82.5t-117.5 33.5q-130 0 -246 -59v320q52 24 141 38.5t187 14.5q209 0 340 -98t131 -261 q0 -106 -65.5 -188.5t-180.5 -124.5q273 -92 273 -326q0 -188 -136.5 -301.5t-361.5 -113.5q-197 0 -346 61z" glyph-name="three.non" horiz-adv-x="1155"/><glyph d="M518 -184q4 35 4 153v166h-504v160l752 899h104v-801q159 0 222 4v-266q-94 4 -222 4v-166q0 -94 5 -153h-361zM522 393v201l-168 -201h168z" glyph-name="four.non" horiz-adv-x="1105"/><glyph d="M106 -176v356q156 -96 291 -96q91 0 145 36t54 101t-63 106.5t-158 41.5q-137 0 -217 -19q5 51 14 122t12 122l37 563q66 -4 133 -4h396q15 0 180 6v-334q-76 6 -152 6h-272l-10 -190q46 8 94 8q186 0 302 -114.5t116 -290.5q0 -121 -44 -217t-118 -154t-164.5 -88.5 t-189.5 -30.5q-202 0 -386 70z" glyph-name="five.non" horiz-adv-x="1155"/><glyph d="M63 469q0 469 467 907h433q-73 -55 -205 -211.5t-201 -281.5q61 20 127 20q128 0 224.5 -64.5t144 -166.5t47.5 -223q0 -141 -71 -249t-190 -164t-264 -56q-136 0 -254 66t-188 179t-70 244zM436 459q0 -66 43.5 -113t114.5 -47t110 44.5t39 107.5q0 62 -42.5 108.5 t-110.5 46.5t-111 -44.5t-43 -102.5z" glyph-name="six.non" horiz-adv-x="1155"/><glyph d="M102 829v347q54 -5 277 -5h565q118 0 195 5q-14 -27 -78 -168.5t-76 -171.5l-342 -856q-7 -18 -25.5 -61t-33 -78.5t-17.5 -45.5h-430q38 60 111 211l399 830h-268q-217 0 -277 -7z" glyph-name="seven.non" horiz-adv-x="1155"/><glyph d="M100 379q0 111 65.5 212t178.5 130q-199 68 -199 280q0 110 62.5 197t163.5 132.5t221 45.5q198 0 321 -105t123 -251q0 -87 -54.5 -169.5t-137.5 -125.5q110 -27 173.5 -122.5t63.5 -211.5q0 -120 -70 -213.5t-180.5 -141.5t-238.5 -48q-127 0 -238.5 47.5t-182.5 138.5 t-71 205zM469 973q0 -43 47 -83.5t94 -45.5q2 1 18 8.5t21.5 10.5t18.5 11.5t19 16.5t14 20t11 27.5t3 34.5q0 53 -35 89t-88 36t-88 -38t-35 -87zM436 434q0 -53 46 -97t110 -44q63 0 106 43.5t43 97.5q0 64 -43.5 101.5t-134.5 58.5q-63 -27 -84 -45q-43 -39 -43 -115z" glyph-name="eight.non" horiz-adv-x="1155"/><glyph d="M1092 723q0 -469 -467 -907h-432q72 54 204 211t201 282q-61 -20 -127 -20q-128 0 -224.5 64.5t-144 166.5t-47.5 223q0 141 71 249t190 164t264 56q136 0 254 -66t188 -179t70 -244zM719 733q0 66 -43.5 113t-114.5 47t-110 -44.5t-39 -107.5q0 -62 42.5 -108.5 t110.5 -46.5t111 44.5t43 102.5z" glyph-name="nine.non" horiz-adv-x="1155"/><glyph d="M84 686q0 104 19.5 202t62 187.5t103 156.5t149.5 106.5t196 39.5q110 0 201 -42t151 -111.5t101.5 -161.5t59.5 -188.5t18 -196.5q0 -103 -19.5 -200.5t-61.5 -187t-103 -157t-150.5 -107.5t-196.5 -40q-110 0 -201 42t-151 111.5t-101 161.5t-59 188.5t-18 196.5z M471 682q0 -192 36.5 -292.5t106.5 -100.5q142 0 142 393q0 395 -142 395q-70 0 -106.5 -101t-36.5 -294z" glyph-name="zero.tf" horiz-adv-x="1230"/><glyph d="M475 0q4 88 4 213v743q-70 -27 -239 -96l-47 303q248 88 516 215h159q-4 -33 -4 -260v-905q0 -172 4 -213h-393z" glyph-name="one.tf" horiz-adv-x="1230"/><glyph d="M152 0v258q179 114 317.5 286.5t138.5 313.5q0 79 -52 129.5t-132 50.5q-111 0 -167 -23.5t-97 -82.5v387q137 70 381 70q128 0 225 -34t156.5 -97t89.5 -148t30 -190q0 -331 -350 -588h178q102 0 207 10v-342h-925z" glyph-name="two.tf" horiz-adv-x="1230"/><glyph d="M193 41v328q49 -30 122.5 -51t141.5 -21q86 0 141 36t55 99q0 51 -59.5 87t-128.5 36q-53 0 -100 -8v301q56 -6 96 -6q59 0 111.5 36.5t52.5 84.5q0 49 -50.5 82.5t-117.5 33.5q-130 0 -246 -59v319q52 24 141 39t187 15q209 0 340 -98t131 -261q0 -106 -65.5 -188.5 t-180.5 -124.5q272 -91 272 -326q0 -189 -136 -302t-361 -113q-197 0 -346 61z" glyph-name="three.tf" horiz-adv-x="1230"/><glyph d="M571 0q4 35 4 154v165h-503v160l751 899h105v-800q158 0 221 4v-267q-94 4 -221 4v-165q0 -107 4 -154h-361zM575 578v200l-167 -200h167z" glyph-name="four.tf" horiz-adv-x="1230"/><glyph d="M166 49v357q158 -97 291 -97q91 0 144.5 36t53.5 101t-63 106.5t-158 41.5q-137 0 -217 -19q5 52 14.5 122.5t12.5 121.5l37 563q66 -4 133 -4h395q15 0 180 6v-333q-77 6 -151 6h-273l-10 -191q46 8 94 8q186 0 302 -114.5t116 -290.5q0 -121 -44 -216.5t-118 -154 t-164.5 -88.5t-189.5 -30q-204 0 -385 69z" glyph-name="five.tf" horiz-adv-x="1230"/><glyph d="M96 469q0 469 467 907h432q-72 -54 -204 -211t-201 -282q61 20 127 20q128 0 224.5 -64.5t144 -166.5t47.5 -223q0 -141 -71 -249t-190 -164t-264 -56q-136 0 -254 66t-188 179t-70 244zM469 459q0 -66 43.5 -113t114.5 -47t110 44.5t39 107.5q0 62 -42.5 108.5 t-110.5 46.5t-111 -44.5t-43 -102.5z" glyph-name="six.tf" horiz-adv-x="1230"/><glyph d="M102 1034v346q43 -4 277 -4h565q133 0 195 4q-14 -27 -78 -168.5t-76 -171.5l-342 -856q-7 -19 -40 -95t-36 -89h-430q38 60 111 211l399 829h-268q-226 0 -277 -6z" glyph-name="seven.tf" horiz-adv-x="1230"/><glyph d="M125 379q0 111 65.5 212t178.5 130q-199 68 -199 280q0 110 62 197t163 132.5t221 45.5q198 0 321.5 -105t123.5 -251q0 -86 -55 -169t-138 -126q110 -27 174 -122.5t64 -211.5q0 -120 -70.5 -213.5t-181 -141.5t-238.5 -48q-127 0 -238.5 47.5t-182 138.5t-70.5 205z M494 973q0 -43 47 -83.5t94 -45.5q2 1 18 8.5t21 10.5t18.5 11.5t19 16.5t13.5 20t11 27.5t3 34.5q0 53 -35 89t-88 36t-87.5 -37.5t-34.5 -87.5zM461 434q0 -53 45.5 -97t109.5 -44q63 0 106.5 43.5t43.5 97.5q0 64 -43.5 101.5t-134.5 58.5q-63 -27 -84 -45 q-43 -39 -43 -115z" glyph-name="eight.tf" horiz-adv-x="1230"/><glyph d="M1133 907q0 -469 -467 -907h-433q73 54 205 211.5t201 282.5q-65 -21 -127 -21q-128 0 -224.5 64.5t-144 167t-47.5 223.5q0 141 71 249t190 164t264 56q136 0 254 -66t188 -179.5t70 -244.5zM760 918q0 66 -43.5 112.5t-114.5 46.5t-110 -44t-39 -107q0 -62 42.5 -109 t110.5 -47t111 45t43 103z" glyph-name="nine.tf" horiz-adv-x="1230"/><glyph glyph-name="CR" horiz-adv-x="487"/><glyph d="M-758 1434h254q0 -43 25 -67t61 -24t62 24t26 67h254q-4 -142 -104.5 -239t-237.5 -97q-140 0 -240 100t-100 236z" glyph-name="brevecombcy" horiz-adv-x="0"/></font>
</defs>
</svg>
